<?xml version="1.0" encoding="UTF-8"?>
<!--Generator: Apple Native CoreSVG 175-->
<!DOCTYPE svg
PUBLIC "-//W3C//DTD SVG 1.1//EN"
       "http://www.w3.org/Graphics/SVG/1.1/DTD/svg11.dtd">
<svg version="1.1" xmlns="http://www.w3.org/2000/svg" xmlns:xlink="http://www.w3.org/1999/xlink" width="3300" height="2200">
 <!--glyph: "uni100232.medium", point size: 100.0, font version: "17.1d1e1", template writer version: "65.1"-->
 <g id="Notes">
  <rect height="2200" id="artboard" style="fill:white;opacity:1" width="3300" x="0" y="0"/>
  <line style="fill:none;stroke:black;opacity:1;stroke-width:0.5;" x1="263" x2="3036" y1="292" y2="292"/>
  <text style="stroke:none;fill:black;font-family:sans-serif;font-size:13;font-weight:bold;" transform="matrix(1 0 0 1 263 322)">Weight/Scale Variations</text>
  <text style="stroke:none;fill:black;font-family:sans-serif;font-size:13;text-anchor:middle;" transform="matrix(1 0 0 1 559.711 322)">Ultralight</text>
  <text style="stroke:none;fill:black;font-family:sans-serif;font-size:13;text-anchor:middle;" transform="matrix(1 0 0 1 856.422 322)">Thin</text>
  <text style="stroke:none;fill:black;font-family:sans-serif;font-size:13;text-anchor:middle;" transform="matrix(1 0 0 1 1153.13 322)">Light</text>
  <text style="stroke:none;fill:black;font-family:sans-serif;font-size:13;text-anchor:middle;" transform="matrix(1 0 0 1 1449.84 322)">Regular</text>
  <text style="stroke:none;fill:black;font-family:sans-serif;font-size:13;text-anchor:middle;" transform="matrix(1 0 0 1 1746.56 322)">Medium</text>
  <text style="stroke:none;fill:black;font-family:sans-serif;font-size:13;text-anchor:middle;" transform="matrix(1 0 0 1 2043.27 322)">Semibold</text>
  <text style="stroke:none;fill:black;font-family:sans-serif;font-size:13;text-anchor:middle;" transform="matrix(1 0 0 1 2339.98 322)">Bold</text>
  <text style="stroke:none;fill:black;font-family:sans-serif;font-size:13;text-anchor:middle;" transform="matrix(1 0 0 1 2636.69 322)">Heavy</text>
  <text style="stroke:none;fill:black;font-family:sans-serif;font-size:13;text-anchor:middle;" transform="matrix(1 0 0 1 2933.4 322)">Black</text>
  <line style="fill:none;stroke:black;opacity:1;stroke-width:0.5;" x1="263" x2="3036" y1="1903" y2="1903"/>
  <g transform="matrix(1 0 0 1 263 1933)">
   <path d="M9.24805 0.830078Q10.8691 0.830078 12.2949 0.214844Q13.7207-0.400391 14.8096-1.49414Q15.8984-2.58789 16.5186-4.01367Q17.1387-5.43945 17.1387-7.05078Q17.1387-8.66211 16.5186-10.0879Q15.8984-11.5137 14.8047-12.6074Q13.7109-13.7012 12.2852-14.3164Q10.8594-14.9316 9.23828-14.9316Q7.62695-14.9316 6.20117-14.3164Q4.77539-13.7012 3.69141-12.6074Q2.60742-11.5137 1.9873-10.0879Q1.36719-8.66211 1.36719-7.05078Q1.36719-5.43945 1.9873-4.01367Q2.60742-2.58789 3.69629-1.49414Q4.78516-0.400391 6.21094 0.214844Q7.63672 0.830078 9.24805 0.830078ZM9.24805-0.654297Q7.91992-0.654297 6.7627-1.14746Q5.60547-1.64062 4.73145-2.51953Q3.85742-3.39844 3.36426-4.56055Q2.87109-5.72266 2.87109-7.05078Q2.87109-8.37891 3.35938-9.54102Q3.84766-10.7031 4.72168-11.582Q5.5957-12.4609 6.75293-12.9541Q7.91016-13.4473 9.23828-13.4473Q10.5762-13.4473 11.7334-12.9541Q12.8906-12.4609 13.7695-11.582Q14.6484-10.7031 15.1465-9.54102Q15.6445-8.37891 15.6445-7.05078Q15.6445-5.72266 15.1514-4.56055Q14.6582-3.39844 13.7842-2.51953Q12.9102-1.64062 11.748-1.14746Q10.5859-0.654297 9.24805-0.654297ZM5.6543-7.05078Q5.6543-6.72852 5.85938-6.52832Q6.06445-6.32812 6.40625-6.32812L8.51562-6.32812L8.51562-4.20898Q8.51562-3.88672 8.71094-3.67676Q8.90625-3.4668 9.23828-3.4668Q9.56055-3.4668 9.77051-3.67676Q9.98047-3.88672 9.98047-4.20898L9.98047-6.32812L12.0898-6.32812Q12.4219-6.32812 12.627-6.52832Q12.832-6.72852 12.832-7.05078Q12.832-7.38281 12.627-7.58789Q12.4219-7.79297 12.0898-7.79297L9.98047-7.79297L9.98047-9.90234Q9.98047-10.2344 9.77051-10.4443Q9.56055-10.6543 9.23828-10.6543Q8.90625-10.6543 8.71094-10.4443Q8.51562-10.2344 8.51562-9.90234L8.51562-7.79297L6.40625-7.79297Q6.06445-7.79297 5.85938-7.58789Q5.6543-7.38281 5.6543-7.05078Z"/>
  </g>
  <g transform="matrix(1 0 0 1 281.867 1933)">
   <path d="M11.709 2.91016Q13.75 2.91016 15.5518 2.12891Q17.3535 1.34766 18.7305-0.0292969Q20.1074-1.40625 20.8887-3.20801Q21.6699-5.00977 21.6699-7.05078Q21.6699-9.0918 20.8887-10.8936Q20.1074-12.6953 18.7305-14.0723Q17.3535-15.4492 15.5469-16.2305Q13.7402-17.0117 11.6992-17.0117Q9.6582-17.0117 7.85645-16.2305Q6.05469-15.4492 4.68262-14.0723Q3.31055-12.6953 2.5293-10.8936Q1.74805-9.0918 1.74805-7.05078Q1.74805-5.00977 2.5293-3.20801Q3.31055-1.40625 4.6875-0.0292969Q6.06445 1.34766 7.86621 2.12891Q9.66797 2.91016 11.709 2.91016ZM11.709 1.25Q9.98047 1.25 8.47656 0.605469Q6.97266-0.0390625 5.83496-1.17676Q4.69727-2.31445 4.05762-3.81836Q3.41797-5.32227 3.41797-7.05078Q3.41797-8.7793 4.05762-10.2832Q4.69727-11.7871 5.83008-12.9297Q6.96289-14.0723 8.4668-14.7119Q9.9707-15.3516 11.6992-15.3516Q13.4277-15.3516 14.9316-14.7119Q16.4355-14.0723 17.5781-12.9297Q18.7207-11.7871 19.3652-10.2832Q20.0098-8.7793 20.0098-7.05078Q20.0098-5.32227 19.3701-3.81836Q18.7305-2.31445 17.5928-1.17676Q16.4551-0.0390625 14.9463 0.605469Q13.4375 1.25 11.709 1.25ZM7.17773-7.05078Q7.17773-6.69922 7.41211-6.47461Q7.64648-6.25 8.01758-6.25L10.8887-6.25L10.8887-3.36914Q10.8887-2.99805 11.1133-2.76855Q11.3379-2.53906 11.6895-2.53906Q12.0605-2.53906 12.29-2.76855Q12.5195-2.99805 12.5195-3.36914L12.5195-6.25L15.4004-6.25Q15.7715-6.25 16.001-6.47461Q16.2305-6.69922 16.2305-7.05078Q16.2305-7.42188 16.001-7.65137Q15.7715-7.88086 15.4004-7.88086L12.5195-7.88086L12.5195-10.752Q12.5195-11.1328 12.29-11.3623Q12.0605-11.5918 11.6895-11.5918Q11.3379-11.5918 11.1133-11.3574Q10.8887-11.123 10.8887-10.752L10.8887-7.88086L8.01758-7.88086Q7.63672-7.88086 7.40723-7.65137Q7.17773-7.42188 7.17773-7.05078Z"/>
  </g>
  <g transform="matrix(1 0 0 1 305.646 1933)">
   <path d="M14.9707 5.66406Q17.0605 5.66406 18.96 5.01465Q20.8594 4.36523 22.4512 3.19336Q24.043 2.02148 25.2197 0.429688Q26.3965-1.16211 27.0459-3.06641Q27.6953-4.9707 27.6953-7.05078Q27.6953-9.14062 27.0459-11.04Q26.3965-12.9395 25.2197-14.5312Q24.043-16.123 22.4512-17.2998Q20.8594-18.4766 18.9551-19.126Q17.0508-19.7754 14.9609-19.7754Q12.8711-19.7754 10.9717-19.126Q9.07227-18.4766 7.48535-17.2998Q5.89844-16.123 4.72168-14.5312Q3.54492-12.9395 2.90039-11.04Q2.25586-9.14062 2.25586-7.05078Q2.25586-4.9707 2.90527-3.06641Q3.55469-1.16211 4.72656 0.429688Q5.89844 2.02148 7.49023 3.19336Q9.08203 4.36523 10.9814 5.01465Q12.8809 5.66406 14.9707 5.66406ZM14.9707 3.84766Q13.1641 3.84766 11.5283 3.2959Q9.89258 2.74414 8.53516 1.74805Q7.17773 0.751953 6.17676-0.610352Q5.17578-1.97266 4.62891-3.6084Q4.08203-5.24414 4.08203-7.05078Q4.08203-8.86719 4.62891-10.5029Q5.17578-12.1387 6.17188-13.501Q7.16797-14.8633 8.52539-15.8594Q9.88281-16.8555 11.5186-17.4023Q13.1543-17.9492 14.9609-17.9492Q16.7773-17.9492 18.4131-17.4023Q20.0488-16.8555 21.4111-15.8594Q22.7734-14.8633 23.7695-13.501Q24.7656-12.1387 25.3174-10.5029Q25.8691-8.86719 25.8691-7.05078Q25.8789-5.24414 25.332-3.6084Q24.7852-1.97266 23.7842-0.610352Q22.7832 0.751953 21.4209 1.74805Q20.0586 2.74414 18.4229 3.2959Q16.7871 3.84766 14.9707 3.84766ZM9.19922-7.05078Q9.19922-6.66992 9.45801-6.4209Q9.7168-6.17188 10.1172-6.17188L14.0625-6.17188L14.0625-2.2168Q14.0625-1.81641 14.3115-1.55762Q14.5605-1.29883 14.9512-1.29883Q15.3516-1.29883 15.6104-1.55273Q15.8691-1.80664 15.8691-2.2168L15.8691-6.17188L19.8242-6.17188Q20.2246-6.17188 20.4785-6.4209Q20.7324-6.66992 20.7324-7.05078Q20.7324-7.46094 20.4785-7.71484Q20.2246-7.96875 19.8242-7.96875L15.8691-7.96875L15.8691-11.9141Q15.8691-12.3242 15.6104-12.583Q15.3516-12.8418 14.9512-12.8418Q14.5605-12.8418 14.3115-12.583Q14.0625-12.3242 14.0625-11.9141L14.0625-7.96875L10.1172-7.96875Q9.70703-7.96875 9.45312-7.71484Q9.19922-7.46094 9.19922-7.05078Z"/>
  </g>
  <text style="stroke:none;fill:black;font-family:sans-serif;font-size:13;font-weight:bold;" transform="matrix(1 0 0 1 263 1953)">Design Variations</text>
  <text style="stroke:none;fill:black;font-family:sans-serif;font-size:13;" transform="matrix(1 0 0 1 263 1971)">Symbols are supported in up to nine weights and three scales.</text>
  <text style="stroke:none;fill:black;font-family:sans-serif;font-size:13;" transform="matrix(1 0 0 1 263 1989)">For optimal layout with text and other symbols, vertically align</text>
  <text style="stroke:none;fill:black;font-family:sans-serif;font-size:13;" transform="matrix(1 0 0 1 263 2007)">symbols with the adjacent text.</text>
  <line style="fill:none;stroke:#00AEEF;stroke-width:0.5;opacity:1.0;" x1="776" x2="776" y1="1919" y2="1933"/>
  <g transform="matrix(1 0 0 1 776 1933)">
   <path d="M3.31055 0.15625Q3.70117 0.15625 3.91602-0.00976562Q4.13086-0.175781 4.26758-0.585938L5.52734-4.0332L11.2891-4.0332L12.5488-0.585938Q12.6855-0.175781 12.9004-0.00976562Q13.1152 0.15625 13.4961 0.15625Q13.8867 0.15625 14.1162-0.0585938Q14.3457-0.273438 14.3457-0.644531Q14.3457-0.869141 14.2383-1.17188L9.6582-13.3691Q9.48242-13.8184 9.17969-14.043Q8.87695-14.2676 8.4082-14.2676Q7.5-14.2676 7.17773-13.3789L2.59766-1.16211Q2.49023-0.859375 2.49023-0.634766Q2.49023-0.263672 2.70996-0.0537109Q2.92969 0.15625 3.31055 0.15625ZM6.00586-5.51758L8.37891-12.0898L8.42773-12.0898L10.8008-5.51758Z"/>
  </g>
  <line style="fill:none;stroke:#00AEEF;stroke-width:0.5;opacity:1.0;" x1="793.197" x2="793.197" y1="1919" y2="1933"/>
  <text style="stroke:none;fill:black;font-family:sans-serif;font-size:13;font-weight:bold;" transform="matrix(1 0 0 1 776 1953)">Margins</text>
  <text style="stroke:none;fill:black;font-family:sans-serif;font-size:13;" transform="matrix(1 0 0 1 776 1971)">Leading and trailing margins on the left and right side of each symbol</text>
  <text style="stroke:none;fill:black;font-family:sans-serif;font-size:13;" transform="matrix(1 0 0 1 776 1989)">can be adjusted by modifying the x-location of the margin guidelines.</text>
  <text style="stroke:none;fill:black;font-family:sans-serif;font-size:13;" transform="matrix(1 0 0 1 776 2007)">Modifications are automatically applied proportionally to all</text>
  <text style="stroke:none;fill:black;font-family:sans-serif;font-size:13;" transform="matrix(1 0 0 1 776 2025)">scales and weights.</text>
  <g transform="matrix(1 0 0 1 1289 1933)">
   <path d="M2.8418 1.86523L4.54102 3.57422Q5.18555 4.22852 5.90332 4.17969Q6.62109 4.13086 7.31445 3.35938L18.0078-8.42773L17.041-9.4043L6.42578 2.27539Q6.16211 2.57812 5.89355 2.61719Q5.625 2.65625 5.27344 2.30469L4.10156 1.14258Q3.75 0.791016 3.79395 0.522461Q3.83789 0.253906 4.14062-0.0195312L15.6152-10.8203L14.6387-11.7871L3.04688-0.898438Q2.30469-0.214844 2.25098 0.498047Q2.19727 1.21094 2.8418 1.86523ZM9.25781-16.3281Q8.94531-16.0254 8.90625-15.6348Q8.86719-15.2441 9.04297-14.9512Q9.21875-14.6777 9.55566-14.541Q9.89258-14.4043 10.3809-14.5215Q11.4746-14.7754 12.5977-14.7314Q13.7207-14.6875 14.7949-13.9844L14.209-12.5293Q13.9551-11.9043 14.0674-11.4404Q14.1797-10.9766 14.5801-10.5664L16.875-8.25195Q17.2363-7.88086 17.5781-7.82227Q17.9199-7.76367 18.3398-7.8418L19.4043-8.03711L20.0684-7.36328L20.0293-6.80664Q20-6.43555 20.1221-6.12305Q20.2441-5.81055 20.6055-5.44922L21.3672-4.70703Q21.7285-4.3457 22.1533-4.33105Q22.5781-4.31641 22.9297-4.66797L25.8398-7.58789Q26.1914-7.93945 26.1816-8.35449Q26.1719-8.76953 25.8105-9.13086L25.0391-9.89258Q24.6875-10.2539 24.3799-10.3857Q24.0723-10.5176 23.7109-10.4883L23.1348-10.4395L22.4902-11.0742L22.7344-12.1973Q22.832-12.6172 22.6953-12.9834Q22.5586-13.3496 22.1191-13.7891L19.9219-15.9766Q18.6719-17.2168 17.2607-17.8369Q15.8496-18.457 14.4189-18.4814Q12.9883-18.5059 11.665-17.959Q10.3418-17.4121 9.25781-16.3281ZM10.752-15.957Q11.6602-16.6211 12.7002-16.9043Q13.7402-17.1875 14.8047-17.085Q15.8691-16.9824 16.8701-16.5137Q17.8711-16.0449 18.7012-15.2051L21.1328-12.793Q21.3086-12.6172 21.3525-12.4512Q21.3965-12.2852 21.3379-12.0312L21.0156-10.5469L22.5195-9.0625L23.5059-9.12109Q23.6914-9.13086 23.7891-9.09668Q23.8867-9.0625 24.0332-8.91602L24.6094-8.33984L22.168-5.89844L21.5918-6.47461Q21.4453-6.62109 21.4062-6.71875Q21.3672-6.81641 21.377-7.01172L21.4453-7.98828L19.9512-9.47266L18.4277-9.21875Q18.1836-9.16992 18.042-9.2041Q17.9004-9.23828 17.7148-9.41406L15.7129-11.416Q15.5176-11.5918 15.4932-11.7529Q15.4688-11.9141 15.5859-12.1875L16.4648-14.2773Q15.293-15.3711 13.8281-15.791Q12.3633-16.2109 10.8398-15.7617Q10.7227-15.7324 10.6885-15.8057Q10.6543-15.8789 10.752-15.957Z"/>
  </g>
  <text style="stroke:none;fill:black;font-family:sans-serif;font-size:13;font-weight:bold;" transform="matrix(1 0 0 1 1289 1953)">Exporting</text>
  <text style="stroke:none;fill:black;font-family:sans-serif;font-size:13;" transform="matrix(1 0 0 1 1289 1971)">Symbols should be outlined when exporting to ensure the</text>
  <text style="stroke:none;fill:black;font-family:sans-serif;font-size:13;" transform="matrix(1 0 0 1 1289 1989)">design is preserved when submitting to Xcode.</text>
  <text id="template-version" style="stroke:none;fill:black;font-family:sans-serif;font-size:13;text-anchor:end;" transform="matrix(1 0 0 1 3036 1933)">Template v.3.0</text>
  <text style="stroke:none;fill:black;font-family:sans-serif;font-size:13;text-anchor:end;" transform="matrix(1 0 0 1 3036 1951)">Requires Xcode 13 or greater</text>
  <text id="descriptive-name" style="stroke:none;fill:black;font-family:sans-serif;font-size:13;text-anchor:end;" transform="matrix(1 0 0 1 3036 1969)">Generated from xmark.bin.fill</text>
  <text style="stroke:none;fill:black;font-family:sans-serif;font-size:13;text-anchor:end;" transform="matrix(1 0 0 1 3036 1987)">Typeset at 100 points</text>
  <text style="stroke:none;fill:black;font-family:sans-serif;font-size:13;" transform="matrix(1 0 0 1 263 726)">Small</text>
  <text style="stroke:none;fill:black;font-family:sans-serif;font-size:13;" transform="matrix(1 0 0 1 263 1156)">Medium</text>
  <text style="stroke:none;fill:black;font-family:sans-serif;font-size:13;" transform="matrix(1 0 0 1 263 1586)">Large</text>
 </g>
 <g id="Guides">
  <g id="H-reference" style="fill:#27AAE1;stroke:none;" transform="matrix(1 0 0 1 339 696)">
   <path d="M0.993347 0L3.6377 0L29.3282-67.1326L30.0301-67.1326L30.0301-70.459L28.1227-70.459ZM11.6882-24.4797L46.9818-24.4797L46.2311-26.7288L12.4382-26.7288ZM55.1193 0L57.7637 0L30.6381-70.459L29.4327-70.459L29.4327-67.1326Z"/>
  </g>
  <line id="Baseline-S" style="fill:none;stroke:#27AAE1;opacity:1;stroke-width:0.5;" x1="263" x2="3036" y1="696" y2="696"/>
  <line id="Capline-S" style="fill:none;stroke:#27AAE1;opacity:1;stroke-width:0.5;" x1="263" x2="3036" y1="625.541" y2="625.541"/>
  <g id="H-reference" style="fill:#27AAE1;stroke:none;" transform="matrix(1 0 0 1 339 1126)">
   <path d="M0.993347 0L3.6377 0L29.3282-67.1326L30.0301-67.1326L30.0301-70.459L28.1227-70.459ZM11.6882-24.4797L46.9818-24.4797L46.2311-26.7288L12.4382-26.7288ZM55.1193 0L57.7637 0L30.6381-70.459L29.4327-70.459L29.4327-67.1326Z"/>
  </g>
  <line id="Baseline-M" style="fill:none;stroke:#27AAE1;opacity:1;stroke-width:0.5;" x1="263" x2="3036" y1="1126" y2="1126"/>
  <line id="Capline-M" style="fill:none;stroke:#27AAE1;opacity:1;stroke-width:0.5;" x1="263" x2="3036" y1="1055.54" y2="1055.54"/>
  <g id="H-reference" style="fill:#27AAE1;stroke:none;" transform="matrix(1 0 0 1 339 1556)">
   <path d="M0.993347 0L3.6377 0L29.3282-67.1326L30.0301-67.1326L30.0301-70.459L28.1227-70.459ZM11.6882-24.4797L46.9818-24.4797L46.2311-26.7288L12.4382-26.7288ZM55.1193 0L57.7637 0L30.6381-70.459L29.4327-70.459L29.4327-67.1326Z"/>
  </g>
  <line id="Baseline-L" style="fill:none;stroke:#27AAE1;opacity:1;stroke-width:0.5;" x1="263" x2="3036" y1="1556" y2="1556"/>
  <line id="Capline-L" style="fill:none;stroke:#27AAE1;opacity:1;stroke-width:0.5;" x1="263" x2="3036" y1="1485.54" y2="1485.54"/>
  <line id="left-margin-Regular-M" style="fill:none;stroke:#00AEEF;stroke-width:0.5;opacity:1.0;" x1="1379.33" x2="1379.33" y1="1030.79" y2="1150.12"/>
  <line id="right-margin-Regular-M" style="fill:none;stroke:#00AEEF;stroke-width:0.5;opacity:1.0;" x1="1520.36" x2="1520.36" y1="1030.79" y2="1150.12"/>
 </g>
 <g id="Symbols">
  <g id="Black-L" transform="matrix(1 0 0 1 2835.36 1556)">
   <path d="M63.2926 26.4225L132.794 26.4225Q143.974 26.4225 149.265 20.2124Q154.556 14.0023 156.349 2.96278L165.087-51.9335L30.9779-51.9335L39.737 2.96278Q41.5312 14.0062 46.8214 20.2143Q52.1116 26.4225 63.2926 26.4225ZM28.5633-63.1993L167.581-63.1993Q173.3-63.1993 176.651-66.4604Q180.002-69.7215 180.002-75.8508L180.002-84.147Q180.002-90.2556 176.651-93.5271Q173.3-96.7985 167.581-96.7985L28.5633-96.7985Q22.9854-96.7985 19.5347-93.5271Q16.084-90.2556 16.084-84.147L16.084-75.8508Q16.084-69.7215 19.4932-66.4604Q22.9025-63.1993 28.5633-63.1993ZM82.1709 9.51013Q79.0455 9.51013 76.7809 7.21633Q74.5163 4.92253 74.5163 1.79711Q74.5163-1.40239 76.8503-3.73512L87.2057-14.0164L76.8503-24.2977Q74.5163-26.572 74.5163-29.8312Q74.5163-33.0137 76.7816-35.2576Q79.0468-37.5015 82.1709-37.5015Q83.8303-37.5015 85.1148-36.9365Q86.3993-36.3715 87.624-35.1882L98.0221-24.6369L108.46-35.2089Q110.857-37.5429 113.916-37.5429Q117.04-37.5429 119.304-35.2887Q121.568-33.0345 121.568-29.8312Q121.568-28.1121 121.034-26.8276Q120.499-25.5432 119.235-24.3184L108.859-14.0164L119.215-3.75584Q120.398-2.5518 120.973-1.24726Q121.547 0.0572855 121.547 1.79711Q121.547 4.92125 119.293 7.21569Q117.039 9.51013 113.916 9.51013Q112.293 9.51013 110.948 8.92442Q109.602 8.33871 108.419 7.17612L98.0221-3.37519L87.6448 7.17612Q85.3107 9.51013 82.1709 9.51013Z"/>
  </g>
  <g id="Heavy-L" transform="matrix(1 0 0 1 2540.3 1556)">
   <path d="M62.0595 25.5158L130.715 25.5158Q141.413 25.5158 146.453 19.6514Q151.493 13.7871 153.184 3.21947L161.983-52.9263L30.7548-52.9263L39.5838 3.21947Q41.281 13.8052 46.3179 19.6605Q51.3548 25.5158 62.0595 25.5158ZM28.0895-63.476L164.723-63.476Q170.315-63.476 173.5-66.6577Q176.684-69.8395 176.684-75.7498L176.684-83.6085Q176.684-89.489 173.5-92.6857Q170.315-95.8823 164.723-95.8823L28.0895-95.8823Q22.6613-95.8823 19.3726-92.6857Q16.084-89.489 16.084-83.6085L16.084-75.7498Q16.084-69.8395 19.3131-66.6577Q22.5422-63.476 28.0895-63.476ZM79.784 8.41958Q76.9418 8.41958 74.8794 6.33486Q72.817 4.25013 72.817 1.40791Q72.817-1.45799 74.9419-3.57689L86.5362-15.1475L74.9419-26.7181Q72.817-28.7924 72.817-31.7089Q72.817-34.5897 74.8824-36.6224Q76.9478-38.655 79.784-38.655Q81.2809-38.655 82.4356-38.1297Q83.5903-37.6044 84.6944-36.5599L96.3543-24.802L108.068-36.5896Q110.282-38.7146 112.99-38.7146Q115.826-38.7146 117.886-36.667Q119.945-34.6195 119.945-31.7089Q119.945-30.1614 119.448-29.0067Q118.951-27.8519 117.826-26.7479L106.202-15.1475L117.796-3.60665Q118.841-2.53234 119.378-1.35087Q119.915-0.169396 119.915 1.40791Q119.915 4.2441 117.868 6.33184Q115.82 8.41958 112.99 8.41958Q111.502 8.41958 110.277 7.8645Q109.053 7.30943 108.008 6.29465L96.3543-5.46328L84.7242 6.29465Q82.5992 8.41958 79.784 8.41958Z"/>
  </g>
  <g id="Bold-L" transform="matrix(1 0 0 1 2245.45 1556)">
   <path d="M60.7349 24.3864L128.33 24.3864Q138.434 24.3864 143.183 18.9304Q147.932 13.4744 149.498 3.49509L158.385-54.1289L30.629-54.1289L39.5534 3.49509Q41.1335 13.5171 45.8755 18.9517Q50.6175 24.3864 60.7349 24.3864ZM27.4646-63.7193L161.616-63.7193Q167.005-63.7193 169.986-66.7893Q172.967-69.8593 172.967-75.467L172.967-82.9888Q172.967-88.5596 169.986-91.648Q167.005-94.7365 161.616-94.7365L27.4646-94.7365Q22.2527-94.7365 19.1683-91.648Q16.084-88.5596 16.084-82.9888L16.084-75.467Q16.084-69.8593 19.0944-66.7893Q22.1047-63.7193 27.4646-63.7193ZM77.0707 6.99817Q74.6 6.99817 72.8069 5.1905Q71.0138 3.38283 71.0138 0.912104Q71.0138-1.52882 72.8617-3.36248L85.9829-16.5135L72.8617-29.6646Q71.0138-31.469 71.0138-33.9534Q71.0138-36.4391 72.814-38.1952Q74.6142-39.9512 77.0707-39.9512Q78.3541-39.9512 79.3436-39.4818Q80.333-39.0124 81.2791-38.1403L94.4885-24.8945L107.758-38.1773Q109.717-40.0252 111.995-40.0252Q114.451-40.0252 116.237-38.2506Q118.023-36.4761 118.023-33.9534Q118.023-32.6265 117.582-31.637Q117.142-30.6476 116.189-29.7016L103.031-16.5135L116.152-3.39947Q117.024-2.49043 117.505-1.47109Q117.986-0.451754 117.986 0.912104Q117.986 3.36861 116.211 5.18339Q114.437 6.99817 111.995 6.99817Q110.689 6.99817 109.622 6.49176Q108.556 5.98535 107.684 5.15029L94.4885-8.09555L81.3161 5.15029Q79.4682 6.99817 77.0707 6.99817Z"/>
  </g>
  <g id="Semibold-L" transform="matrix(1 0 0 1 1950.02 1556)">
   <path d="M59.8217 23.6077L126.687 23.6077Q136.379 23.6077 140.928 18.4333Q145.477 13.2588 146.956 3.6851L155.904-54.9581L30.5423-54.9581L39.5324 3.6851Q41.0318 13.3184 45.5705 18.4631Q50.1093 23.6077 59.8217 23.6077ZM27.0337-63.8871L159.473-63.8871Q164.723-63.8871 167.564-66.88Q170.405-69.8729 170.405-75.272L170.405-82.5617Q170.405-87.9188 167.564-90.9327Q164.723-93.9466 159.473-93.9466L27.0337-93.9466Q21.971-93.9466 19.0275-90.9327Q16.084-87.9188 16.084-82.5617L16.084-75.272Q16.084-69.8729 18.9435-66.88Q21.8031-63.8871 27.0337-63.8871ZM75.2002 6.01826Q72.9855 6.01826 71.3781 4.40159Q69.7708 2.78492 69.7708 0.570297Q69.7708-1.57765 71.4276-3.21466L85.6016-17.4553L71.4276-31.6958Q69.7708-33.3143 69.7708-35.5007Q69.7708-37.714 71.3881-39.2794Q73.0054-40.8448 75.2002-40.8448Q76.3364-40.8448 77.212-40.4139Q78.0875-39.983 78.9246-39.2299L93.2023-24.9583L107.544-39.2719Q109.327-40.9288 111.308-40.9288Q113.503-40.9288 115.1-39.3424Q116.698-37.756 116.698-35.5007Q116.698-34.3259 116.296-33.4504Q115.894-32.5749 115.061-31.7378L100.845-17.4553L115.019-3.25664Q115.772-2.46153 116.214-1.55397Q116.656-0.646409 116.656 0.570297Q116.656 2.76505 115.07 4.39166Q113.483 6.01826 111.308 6.01826Q110.129 6.01826 109.171 5.5454Q108.213 5.07254 107.46 4.36138L93.2023-9.91023L78.9665 4.36138Q77.3097 6.01826 75.2002 6.01826Z"/>
  </g>
  <g id="Medium-L" transform="matrix(1 0 0 1 1654.28 1556)">
   <path d="M59.1293 23.0174L125.44 23.0174Q134.822 23.0174 139.218 18.0564Q143.615 13.0954 145.029 3.82918L154.023-55.5867L30.4765-55.5867L39.5165 3.82918Q40.9547 13.1678 45.3393 18.0926Q49.7239 23.0174 59.1293 23.0174ZM26.7071-64.0143L157.849-64.0143Q162.992-64.0143 165.727-66.9488Q168.462-69.8833 168.462-75.1242L168.462-82.2377Q168.462-87.4329 165.727-90.3903Q162.992-93.3476 157.849-93.3476L26.7071-93.3476Q21.7574-93.3476 18.9207-90.3903Q16.084-87.4329 16.084-82.2377L16.084-75.1242Q16.084-69.8833 18.8292-66.9488Q21.5744-64.0143 26.7071-64.0143ZM73.7818 5.27526Q71.7614 5.27526 70.2948 3.80341Q68.8282 2.33156 68.8282 0.311124Q68.8282-1.61468 70.3403-3.10258L85.3124-18.1693L70.3403-33.236Q68.8282-34.7134 68.8282-36.6739Q68.8282-38.6807 70.3069-40.1015Q71.7856-41.5224 73.7818-41.5224Q74.8065-41.5224 75.5957-41.1207Q76.3848-40.719 77.1393-40.0561L92.227-25.0067L107.382-40.1018Q109.031-41.6139 110.788-41.6139Q112.784-41.6139 114.239-40.1702Q115.693-38.7264 115.693-36.6739Q115.693-35.6145 115.321-34.8254Q114.949-34.0363 114.205-33.2818L99.1874-18.1693L114.16-3.14833Q114.822-2.43962 115.235-1.61681Q115.647-0.794005 115.647 0.311124Q115.647 2.3074 114.204 3.79133Q112.76 5.27526 110.788 5.27526Q109.704 5.27526 108.829 4.82783Q107.954 4.38041 107.291 3.7632L92.227-11.2862L77.185 3.7632Q75.673 5.27526 73.7818 5.27526Z"/>
  </g>
  <g id="Regular-L" transform="matrix(1 0 0 1 1358.84 1556)">
   <path d="M58.2261 22.2473L123.815 22.2473Q132.79 22.2473 136.988 17.5647Q141.187 12.8821 142.515 4.01711L151.57-56.4067L30.3908-56.4067L39.4958 4.01711Q40.8542 12.9714 45.0377 17.6093Q49.2212 22.2473 58.2261 22.2473ZM26.281-64.1802L155.73-64.1802Q160.735-64.1802 163.331-67.0385Q165.927-69.8968 165.927-74.9314L165.927-81.8152Q165.927-86.7992 163.331-89.6828Q160.735-92.5664 155.73-92.5664L26.281-92.5664Q21.4788-92.5664 18.7814-89.6828Q16.084-86.7992 16.084-81.8152L16.084-74.9314Q16.084-69.8968 18.68-67.0385Q21.2761-64.1802 26.281-64.1802ZM71.9319 4.30612Q70.1647 4.30612 68.8818 3.02317Q67.5988 1.74022 67.5988-0.0269273Q67.5988-1.66297 68.922-2.95639L84.9352-19.1007L68.922-35.245Q67.5988-36.5384 67.5988-38.2042Q67.5988-39.9416 68.8966-41.1739Q70.1944-42.4061 71.9319-42.4061Q72.811-42.4061 73.4875-42.0426Q74.1639-41.679 74.8106-41.1337L90.9549-25.0698L107.171-41.1843Q108.646-42.5075 110.109-42.5075Q111.847-42.5075 113.115-41.2499Q114.383-39.9923 114.383-38.2042Q114.383-37.2953 114.049-36.6188Q113.715-35.9424 113.089-35.2957L97.0254-19.1007L113.039-3.00707Q113.584-2.41104 113.958-1.69878Q114.332-0.986522 114.332-0.0269273Q114.332 1.71048 113.074 3.0083Q111.817 4.30612 110.109 4.30612Q109.15 4.30612 108.382 3.89187Q107.615 3.47762 107.069 2.98296L90.9549-13.0809L74.8613 2.98296Q73.5382 4.30612 71.9319 4.30612Z"/>
  </g>
  <g id="Light-L" transform="matrix(1 0 0 1 1062.14 1556)">
   <path d="M58.616 21.4264L123.404 21.4264Q131.969 21.4264 136.096 16.8978Q140.222 12.3691 141.469 3.93502L150.667-57.0634L31.2732-57.0634L40.5014 3.93502Q41.7982 12.5199 45.8996 16.9731Q50.001 21.4264 58.616 21.4264ZM25.6038-63.7082L156.366-63.7082Q160.94-63.7082 163.413-66.4023Q165.886-69.0964 165.886-73.7206L165.886-81.6921Q165.886-86.2861 163.413-88.9953Q160.94-91.7045 156.366-91.7045L25.6038-91.7045Q21.1505-91.7045 18.6172-88.9953Q16.084-86.2861 16.084-81.6921L16.084-73.7206Q16.084-69.0964 18.5569-66.4023Q21.0298-63.7082 25.6038-63.7082ZM71.624 2.86958Q70.2468 2.86958 69.2717 1.89446Q68.2966 0.919339 68.2966-0.457889Q68.2966-1.72454 69.3119-2.68961L86.3307-19.819L69.3119-36.9483Q68.2966-37.9134 68.2966-39.2303Q68.2966-40.5573 69.2968-41.5022Q70.2971-42.4472 71.624-42.4472Q72.2775-42.4472 72.8102-42.1657Q73.343-41.8842 73.8256-41.462L90.9549-24.4131L108.094-41.4922Q109.2-42.5075 110.396-42.5075Q111.723-42.5075 112.673-41.5475Q113.623-40.5874 113.623-39.2303Q113.623-38.5266 113.392-37.9938Q113.161-37.461 112.658-36.9785L95.6094-19.819L112.628-2.71977Q113.05-2.26739 113.322-1.72957Q113.593-1.19174 113.593-0.457889Q113.593 0.869078 112.633 1.86933Q111.673 2.86958 110.396 2.86958Q109.663 2.86958 109.059 2.55794Q108.456 2.24631 108.034 1.85425L90.9549-15.1947L73.8557 1.85425Q72.8404 2.86958 71.624 2.86958Z"/>
  </g>
  <g id="Thin-L" transform="matrix(1 0 0 1 765.459 1556)">
   <path d="M59.1317 20.3407L122.862 20.3407Q130.883 20.3407 134.915 16.0156Q138.947 11.6905 140.085 3.82645L149.473-57.932L32.4403-57.932L41.8313 3.82645Q43.0467 11.9228 47.0396 16.1317Q51.0324 20.3407 59.1317 20.3407ZM24.7081-63.084L157.208-63.084Q161.212-63.084 163.522-65.5609Q165.832-68.0379 165.832-72.1192L165.832-81.5293Q165.832-85.6076 163.522-88.086Q161.212-90.5645 157.208-90.5645L24.7081-90.5645Q20.7162-90.5645 18.4001-88.086Q16.084-85.6076 16.084-81.5293L16.084-72.1192Q16.084-68.0379 18.3941-65.5609Q20.7041-63.084 24.7081-63.084ZM71.2169 0.969642Q70.3554 0.969642 69.7874 0.401651Q69.2194-0.16634 69.2194-1.02787Q69.2194-1.80596 69.8276-2.33676L88.1763-20.7689L69.8276-39.2011Q69.2194-39.7319 69.2194-40.5874Q69.2194-41.3715 69.8261-41.9365Q70.4328-42.5015 71.2169-42.5015Q71.5718-42.5015 71.9146-42.3286Q72.2574-42.1556 72.5228-41.8963L90.9549-23.5445L109.316-41.8993Q109.933-42.5075 110.776-42.5075Q111.561-42.5075 112.09-41.941Q112.619-41.3745 112.619-40.5874Q112.619-40.1551 112.524-39.8123Q112.428-39.4695 112.088-39.2041L93.7366-20.7689L112.085-2.33978Q112.345-2.0774 112.48-1.77028Q112.616-1.46316 112.616-1.02787Q112.616-0.243742 112.05 0.36295Q111.483 0.969642 110.776 0.969642Q110.341 0.969642 109.955 0.793715Q109.569 0.617788 109.31 0.361441L90.9549-17.9903L72.5258 0.361441Q71.9176 0.969642 71.2169 0.969642Z"/>
  </g>
  <g id="Ultralight-L" transform="matrix(1 0 0 1 468.761 1556)">
   <path d="M59.3959 19.7847L122.584 19.7847Q130.327 19.7847 134.31 15.5638Q138.293 11.343 139.376 3.77084L148.861-58.3768L33.0381-58.3768L42.5125 3.77084Q43.6862 11.6169 47.6234 15.7008Q51.5607 19.7847 59.3959 19.7847ZM24.2493-62.7642L157.639-62.7642Q161.351-62.7642 163.577-65.13Q165.804-67.4957 165.804-71.299L165.804-81.4458Q165.804-85.26 163.577-87.6203Q161.351-89.9806 157.639-89.9806L24.2493-89.9806Q20.4938-89.9806 18.2889-87.6203Q16.084-85.26 16.084-81.4458L16.084-71.299Q16.084-67.4957 18.3106-65.13Q20.5373-62.7642 24.2493-62.7642ZM71.0084-0.00349655Q70.411-0.00349655 70.0515-0.362958Q69.692-0.722419 69.692-1.31981Q69.692-1.84767 70.0917-2.15603L89.1216-21.2555L70.0917-40.355Q69.692-40.6633 69.692-41.2825Q69.692-41.7886 70.0972-42.1589Q70.5023-42.5293 71.0084-42.5293Q71.2103-42.5293 71.4558-42.412Q71.7013-42.2947 71.8555-42.1187L90.9549-23.0997L109.941-42.1078Q110.308-42.5075 110.971-42.5075Q111.477-42.5075 111.791-42.1426Q112.105-41.7777 112.105-41.2825Q112.105-40.9892 112.079-40.7437Q112.053-40.4983 111.796-40.3441L92.7773-21.2555L111.807-2.14515Q111.983-1.98008 112.049-1.79113Q112.116-1.60218 112.116-1.31981Q112.116-0.813723 111.751-0.40861Q111.386-0.00349655 110.971-0.00349655Q110.689-0.00349655 110.414-0.109914Q110.139-0.216331 109.963-0.403168L90.9549-19.4222L71.8446-0.403168Q71.4449-0.00349655 71.0084-0.00349655Z"/>
  </g>
  <g id="Black-M" transform="matrix(1 0 0 1 2856.02 1126)">
   <path d="M50.1479 13.203L104.613 13.203Q113.632 13.203 117.937 8.11543Q122.242 3.02789 123.708-5.87206L130.445-47.4065L24.3112-47.4065L31.0539-5.87206Q32.5189 3.02698 36.824 8.11497Q41.1292 13.203 50.1479 13.203ZM22.4445-56.5971L132.374-56.5971Q136.856-56.5971 139.578-59.1695Q142.301-61.742 142.301-66.6233L142.301-73.5741Q142.301-78.4498 139.578-81.025Q136.856-83.6003 132.374-83.6003L22.4445-83.6003Q18.0418-83.6003 15.2514-81.025Q12.4609-78.4498 12.4609-73.5741L12.4609-66.6233Q12.4609-61.742 15.2403-59.1695Q18.0197-56.5971 22.4445-56.5971ZM65.671 0.174789Q63.059 0.174789 61.1725-1.74029Q59.2859-3.65537 59.2859-6.26734Q59.2859-8.98278 61.2322-10.9293L68.3264-17.92L61.2322-24.9108Q59.2859-26.8002 59.2859-29.5724Q59.2859-32.2418 61.1723-34.1228Q63.0587-36.0039 65.671-36.0039Q67.0657-36.0039 68.1528-35.5432Q69.24-35.0825 70.2703-34.0631L77.3753-26.7921L84.4915-34.0686Q86.4543-36.0149 89.0903-36.0149Q91.7025-36.0149 93.5892-34.1311Q95.4759-32.2473 95.4759-29.5724Q95.4759-28.121 95.0435-27.0338Q94.611-25.9466 93.5294-24.9163L86.4297-17.92L93.5239-10.9348Q94.5432-9.90998 95.0068-8.81715Q95.4704-7.72433 95.4704-6.26734Q95.4704-3.65507 93.5866-1.74014Q91.7028 0.174789 89.0903 0.174789Q87.7475 0.174789 86.6236-0.291414Q85.4998-0.757617 84.4805-1.77144L77.3753-9.04245L70.2759-1.77144Q68.3296 0.174789 65.671 0.174789Z"/>
  </g>
  <g id="Heavy-M" transform="matrix(1 0 0 1 2560.93 1126)">
   <path d="M48.9066 12.3923L102.618 12.3923Q111.205 12.3923 115.271 7.62857Q119.337 2.86483 120.711-5.61356L127.494-48.3164L24.0117-48.3164L30.8113-5.61356Q32.1872 2.87217 36.2523 7.63224Q40.3174 12.3923 48.9066 12.3923ZM22.0439-56.9111L129.522-56.9111Q133.919-56.9111 136.49-59.4212Q139.061-61.9312 139.061-66.6362L139.061-73.059Q139.061-77.7478 136.49-80.2659Q133.919-82.7841 129.522-82.7841L22.0439-82.7841Q17.7552-82.7841 15.1081-80.2659Q12.4609-77.7478 12.4609-73.059L12.4609-66.6362Q12.4609-61.9312 15.0756-59.4212Q17.6903-56.9111 22.0439-56.9111ZM63.366-0.758774Q60.9949-0.758774 59.2776-2.49787Q57.5603-4.23696 57.5603-6.60804Q57.5603-9.03145 59.3306-10.7993L67.5431-18.9595L59.3306-27.1198Q57.5603-28.8439 57.5603-31.3134Q57.5603-33.7257 59.2788-35.4267Q60.9973-37.1278 63.366-37.1278Q64.6226-37.1278 65.5962-36.6983Q66.5698-36.2688 67.4973-35.3737L75.7448-27.0141L84.0223-35.39Q85.8413-37.1602 88.1586-37.1602Q90.5272-37.1602 92.2433-35.4511Q93.9593-33.7419 93.9593-31.3134Q93.9593-30.0107 93.5541-29.0371Q93.1489-28.0635 92.1915-27.136L83.9627-18.9595L92.1753-10.8155Q93.0703-9.90421 93.5067-8.9156Q93.9431-7.927 93.9431-6.60804Q93.9431-4.2394 92.2339-2.49909Q90.5248-0.758774 88.1586-0.758774Q86.9269-0.758774 85.9059-1.20449Q84.8849-1.65021 83.9899-2.52902L75.7448-10.8887L67.5136-2.52902Q65.7433-0.758774 63.366-0.758774Z"/>
  </g>
  <g id="Bold-M" transform="matrix(1 0 0 1 2266.03 1126)">
   <path d="M47.518 11.4855L100.386 11.4855Q108.489 11.4855 112.288 7.08395Q116.088 2.68243 117.358-5.32439L124.193-49.3343L23.6767-49.3343L30.54-5.32439Q31.8162 2.69899 35.6127 7.09223Q39.4093 11.4855 47.518 11.4855ZM21.5957-57.2624L126.331-57.2624Q130.634-57.2624 133.036-59.7027Q135.437-62.1429 135.437-66.6507L135.437-72.4828Q135.437-76.9624 133.036-79.4168Q130.634-81.8711 126.331-81.8711L21.5957-81.8711Q17.4347-81.8711 14.9478-79.4168Q12.4609-76.9624 12.4609-72.4828L12.4609-66.6507Q12.4609-62.1429 14.8914-59.7027Q17.3218-57.2624 21.5957-57.2624ZM60.7875-1.8031Q58.6859-1.8031 57.1579-3.34532Q55.63-4.88755 55.63-6.98917Q55.63-9.0859 57.2034-10.6538L66.667-20.1223L57.2034-29.5908Q55.63-31.1301 55.63-33.2609Q55.63-35.3856 57.1607-36.8853Q58.6914-38.385 60.7875-38.385Q61.8897-38.385 62.7363-37.9904Q63.5828-37.5959 64.3953-36.8399L73.9209-27.2623L83.4975-36.8681Q85.1556-38.4415 87.1163-38.4415Q89.2125-38.4415 90.7376-36.9276Q92.2628-35.4138 92.2628-33.2609Q92.2628-32.1246 91.8881-31.2781Q91.5133-30.4315 90.695-29.6191L81.2031-20.1223L90.6667-10.682Q91.4227-9.89775 91.8287-9.02573Q92.2346-8.15371 92.2346-6.98917Q92.2346-4.89307 90.7208-3.34808Q89.2069-1.8031 87.1163-1.8031Q86.0089-1.8031 85.103-2.2259Q84.197-2.64871 83.441-3.37648L73.9209-12.954L64.4235-3.37648Q62.8502-1.8031 60.7875-1.8031Z"/>
  </g>
  <g id="Semibold-M" transform="matrix(1 0 0 1 1970.57 1126)">
   <path d="M46.5607 10.8603L98.8471 10.8603Q106.617 10.8603 110.232 6.70849Q113.847 2.55668 115.047-5.12504L121.918-50.0361L23.4457-50.0361L30.3529-5.12504Q31.5604 2.57961 35.1718 6.71995Q38.7832 10.8603 46.5607 10.8603ZM21.2867-57.5046L124.132-57.5046Q128.369-57.5046 130.654-59.8967Q132.939-62.2888 132.939-66.6607L132.939-72.0856Q132.939-76.421 130.654-78.8314Q128.369-81.2417 124.132-81.2417L21.2867-81.2417Q17.2137-81.2417 14.8373-78.8314Q12.4609-76.421 12.4609-72.0856L12.4609-66.6607Q12.4609-62.2888 14.7643-59.8967Q17.0677-57.5046 21.2867-57.5046ZM59.0099-2.52305Q57.0941-2.52305 55.6966-3.92956Q54.2992-5.33606 54.2992-7.25192Q54.2992-9.12343 55.7369-10.5535L66.063-20.9239L55.7369-31.2944Q54.2992-32.7062 54.2992-34.6035Q54.2992-36.5299 55.7005-37.8908Q57.1017-39.2517 59.0099-39.2517Q60.0057-39.2517 60.7647-38.8812Q61.5236-38.5107 62.2568-37.8506L72.6636-27.4335L83.1357-37.8871Q84.6829-39.3248 86.3978-39.3248Q88.3061-39.3248 89.6997-37.9456Q91.0933-36.5664 91.0933-34.6035Q91.0933-33.582 90.7395-32.823Q90.3857-32.064 89.6633-31.3309L79.3006-20.9239L89.6267-10.59Q90.2869-9.8933 90.6718-9.10165Q91.0568-8.31 91.0568-7.25192Q91.0568-5.3437 89.6776-3.93338Q88.2984-2.52305 86.3978-2.52305Q85.3761-2.52305 84.5495-2.93006Q83.7228-3.33707 83.0627-3.96071L72.6636-14.3778L62.2933-3.96071Q60.8556-2.52305 59.0099-2.52305Z"/>
  </g>
  <g id="Medium-M" transform="matrix(1 0 0 1 1674.8 1126)">
   <path d="M45.8348 10.3863L97.6803 10.3863Q105.197 10.3863 108.673 6.4238Q112.149 2.46134 113.295-4.97389L120.193-50.5682L23.2706-50.5682L30.2111-4.97389Q31.3665 2.48908 34.8375 6.43767Q38.3085 10.3863 45.8348 10.3863ZM21.0525-57.6883L122.464-57.6883Q126.651-57.6883 128.848-60.0439Q131.045-62.3994 131.045-66.6683L131.045-71.7844Q131.045-76.0105 128.848-78.3875Q126.651-80.7644 122.464-80.7644L21.0525-80.7644Q17.0462-80.7644 14.7536-78.3875Q12.4609-76.0105 12.4609-71.7844L12.4609-66.6683Q12.4609-62.3994 14.668-60.0439Q16.8751-57.6883 21.0525-57.6883ZM57.6621-3.06895Q55.8871-3.06895 54.5886-4.37255Q53.2902-5.67615 53.2902-7.45115Q53.2902-9.15189 54.6249-10.4774L65.605-21.5317L54.6249-32.586Q53.2902-33.9013 53.2902-35.6215Q53.2902-37.3976 54.5933-38.6533Q55.8963-39.9089 57.6621-39.9089Q58.5771-39.9089 59.2697-39.5567Q59.9623-39.2044 60.6353-38.617L71.7102-27.5633L82.8613-38.6597Q84.3244-39.9945 85.853-39.9945Q87.6188-39.9945 88.9126-38.7174Q90.2065-37.4404 90.2065-35.6215Q90.2065-34.687 89.8686-33.9944Q89.5307-33.3019 88.881-32.6288L77.8581-21.5317L88.8382-10.5202Q89.4257-9.88993 89.7947-9.15922Q90.1637-8.42851 90.1637-7.45115Q90.1637-5.68539 88.8866-4.37717Q87.6095-3.06895 85.853-3.06895Q84.8962-3.06895 84.1297-3.46398Q83.3633-3.85901 82.7758-4.4037L71.7102-15.4574L60.6781-4.4037Q59.3433-3.06895 57.6621-3.06895Z"/>
  </g>
  <g id="Regular-M" transform="matrix(1 0 0 1 1379.33 1126)">
   <path d="M44.888 9.76797L96.1584 9.76797Q103.346 9.76797 106.639 6.05247Q109.933 2.33697 111.009-4.77673L117.942-51.2622L23.0421-51.2622L30.026-4.77673Q31.1135 2.37101 34.4014 6.06949Q37.6893 9.76797 44.888 9.76797ZM20.7469-57.9278L120.288-57.9278Q124.411-57.9278 126.493-60.2358Q128.574-62.5438 128.574-66.6782L128.574-71.3916Q128.574-75.4751 126.493-77.8085Q124.411-80.142 120.288-80.142L20.7469-80.142Q16.8277-80.142 14.6443-77.8085Q12.4609-75.4751 12.4609-71.3916L12.4609-66.6782Q12.4609-62.5438 14.5424-60.2358Q16.6238-57.9278 20.7469-57.9278ZM55.904-3.78099Q54.3128-3.78099 53.1434-4.95036Q51.974-6.11973 51.974-7.71101Q51.974-9.18902 53.1745-10.3782L65.0076-22.3245L53.1745-34.2709Q51.974-35.46 51.974-36.9494Q51.974-38.5293 53.1491-39.6477Q54.3241-40.7661 55.904-40.7661Q56.7138-40.7661 57.3197-40.4377Q57.9257-40.1093 58.5203-39.6166L70.4666-27.7326L82.5035-39.6675Q83.8569-40.8681 85.1424-40.8681Q86.7224-40.8681 87.8861-39.7242Q89.0498-38.5803 89.0498-36.9494Q89.0498-36.1283 88.7327-35.5223Q88.4156-34.9164 87.8606-34.3218L75.9765-22.3245L87.8096-10.4292Q88.3023-9.88552 88.6505-9.2343Q88.9988-8.58308 88.9988-7.71101Q88.9988-6.13107 87.8549-4.95603Q86.711-3.78099 85.1424-3.78099Q84.2704-3.78099 83.5823-4.16039Q82.8943-4.5398 82.4016-4.98151L70.4666-16.8655L58.5712-4.98151Q57.3707-3.78099 55.904-3.78099Z"/>
  </g>
  <g id="Light-M" transform="matrix(1 0 0 1 1082.63 1126)">
   <path d="M45.2376 9.03201L95.7905 9.03201Q102.61 9.03201 105.839 5.4545Q109.068 1.877 110.071-4.85032L117.132-51.8509L23.8333-51.8509L30.9276-4.85032Q31.9598 1.96623 35.1742 5.49912Q38.3885 9.03201 45.2376 9.03201ZM20.1397-57.5047L120.859-57.5047Q124.595-57.5047 126.566-59.6654Q128.537-61.8262 128.537-65.5926L128.537-71.2812Q128.537-75.0151 126.566-77.1921Q124.595-79.3692 120.859-79.3692L20.1397-79.3692Q16.5333-79.3692 14.4971-77.1921Q12.4609-75.0151 12.4609-71.2812L12.4609-65.5926Q12.4609-61.8262 14.432-59.6654Q16.403-57.5047 20.1397-57.5047ZM55.6281-5.06892Q54.3864-5.06892 53.493-5.9623Q52.5996-6.85569 52.5996-8.09738Q52.5996-9.24421 53.5241-10.139L66.2587-22.9685L53.5241-35.798Q52.5996-36.6928 52.5996-37.8693Q52.5996-39.0813 53.5078-39.9421Q54.4161-40.8029 55.6281-40.8029Q56.2354-40.8029 56.7126-40.5481Q57.1897-40.2932 57.6371-39.911L70.4666-27.1438L83.3315-39.9435Q84.3537-40.8681 85.4-40.8681Q86.612-40.8681 87.4905-39.991Q88.369-39.1139 88.369-37.8693Q88.369-37.2322 88.1439-36.7551Q87.9188-36.2779 87.4742-35.8305L74.707-22.9685L87.4416-10.1716Q87.8239-9.75673 88.0802-9.2619Q88.3364-8.76707 88.3364-8.09738Q88.3364-6.88543 87.4593-5.97718Q86.5822-5.06892 85.4-5.06892Q84.7303-5.06892 84.1895-5.35633Q83.6486-5.64374 83.2663-5.99346L70.4666-18.7606L57.6697-5.99346Q56.7451-5.06892 55.6281-5.06892Z"/>
  </g>
  <g id="Thin-M" transform="matrix(1 0 0 1 785.944 1126)">
   <path d="M45.7 8.05864L95.3038 8.05864Q101.636 8.05864 104.78 4.66364Q107.925 1.26864 108.83-4.94766L116.062-52.6296L24.8797-52.6296L32.12-4.94766Q33.0792 1.43088 36.1962 4.74476Q39.3132 8.05864 45.7 8.05864ZM19.3367-56.945L121.613-56.945Q124.839-56.945 126.664-58.9111Q128.489-60.8772 128.489-64.1569L128.489-71.1352Q128.489-74.4067 126.664-76.3769Q124.839-78.3472 121.613-78.3472L19.3367-78.3472Q16.1439-78.3472 14.3024-76.3769Q12.4609-74.4067 12.4609-71.1352L12.4609-64.1569Q12.4609-60.8772 14.286-58.9111Q16.111-56.945 19.3367-56.945ZM55.263-6.77231Q54.4837-6.77231 53.9553-7.30068Q53.4269-7.82906 53.4269-8.6084Q53.4269-9.31722 53.9865-9.82266L67.9135-23.8202L53.9865-37.8177Q53.4269-38.3232 53.4269-39.0861Q53.4269-39.8113 53.9824-40.3315Q54.5378-40.8516 55.263-40.8516Q55.6027-40.8516 55.9096-40.6941Q56.2164-40.5366 56.4691-40.3003L70.4666-26.3651L84.4265-40.3085Q85.0107-40.8681 85.7407-40.8681Q86.466-40.8681 86.9673-40.3438Q87.4686-39.8195 87.4686-39.0861Q87.4686-38.6923 87.3652-38.3855Q87.2618-38.0787 86.9632-37.8259L73.028-23.8202L86.955-9.83089Q87.1912-9.58639 87.3258-9.2984Q87.4604-9.01041 87.4604-8.6084Q87.4604-7.88313 86.9361-7.32772Q86.4119-6.77231 85.7407-6.77231Q85.3387-6.77231 84.9925-6.93805Q84.6463-7.10379 84.41-7.33183L70.4666-21.2671L56.4773-7.33183Q55.9178-6.77231 55.263-6.77231Z"/>
  </g>
  <g id="Ultralight-M" transform="matrix(1 0 0 1 489.244 1126)">
   <path d="M45.9368 7.56009L95.0545 7.56009Q101.138 7.56009 104.238 4.25857Q107.339 0.957048 108.194-4.99752L115.513-53.0285L25.4156-53.0285L32.7307-4.99752Q33.6525 1.15667 36.7197 4.35838Q39.7868 7.56009 45.9368 7.56009ZM18.9254-56.6583L121.999-56.6583Q124.963-56.6583 126.714-58.5247Q128.464-60.3911 128.464-63.4216L128.464-71.0604Q128.464-74.0951 126.714-75.9594Q124.963-77.8237 121.999-77.8237L18.9254-77.8237Q15.9445-77.8237 14.2027-75.9594Q12.4609-74.0951 12.4609-71.0604L12.4609-63.4216Q12.4609-60.3911 14.2112-58.5247Q15.9615-56.6583 18.9254-56.6583ZM55.0761-7.64478Q54.5336-7.64478 54.1921-7.98619Q53.8507-8.32761 53.8507-8.87014Q53.8507-9.35461 54.2233-9.66063L68.761-24.2564L54.2233-38.8522Q53.8507-39.1582 53.8507-39.7092Q53.8507-40.1852 54.2254-40.5309Q54.6001-40.8765 55.0761-40.8765Q55.2787-40.8765 55.4982-40.7689Q55.7178-40.6612 55.8708-40.4997L70.4666-25.9663L84.9874-40.4955Q85.3472-40.8681 85.9152-40.8681Q86.3912-40.8681 86.6993-40.5245Q87.0075-40.181 87.0075-39.7092Q87.0075-39.4401 86.9663-39.2205Q86.9252-39.001 86.7014-38.848L72.168-24.2564L86.7057-9.6564Q86.8672-9.49915 86.9394-9.3171Q87.0117-9.13505 87.0117-8.87014Q87.0117-8.39415 86.6682-8.01946Q86.3246-7.64478 85.9152-7.64478Q85.6503-7.64478 85.4038-7.7482Q85.1573-7.85162 84.9958-8.01735L70.4666-22.5508L55.8666-8.01735Q55.494-7.64478 55.0761-7.64478Z"/>
  </g>
  <g id="Black-S" transform="matrix(1 0 0 1 2872.27 696)">
   <path d="M39.6973 2.92969L82.5684 2.92969Q89.7461 2.92969 93.1885-1.14746Q96.6309-5.22461 97.8027-12.3047L103.076-44.5312L19.1895-44.5312L24.4629-12.3047Q25.6348-5.22461 29.0771-1.14746Q32.5195 2.92969 39.6973 2.92969ZM17.6758-51.8555L104.639-51.8555Q108.154-51.8555 110.327-53.8818Q112.5-55.9082 112.5-59.7656L112.5-65.4297Q112.5-69.2871 110.327-71.3135Q108.154-73.3398 104.639-73.3398L17.6758-73.3398Q14.209-73.3398 11.9873-71.3135Q9.76562-69.2871 9.76562-65.4297L9.76562-59.7656Q9.76562-55.9082 11.9873-53.8818Q14.209-51.8555 17.6758-51.8555ZM52.1484-7.27539Q50.0488-7.27539 48.5352-8.81348Q47.0215-10.3516 47.0215-12.4512Q47.0215-14.6484 48.584-16.2109L53.8574-21.3867L48.584-26.5625Q47.0215-28.0762 47.0215-30.3223Q47.0215-32.4707 48.5352-33.9844Q50.0488-35.498 52.1484-35.498Q53.2715-35.498 54.1504-35.1318Q55.0293-34.7656 55.8594-33.9355L61.1328-28.5156L66.4062-33.9355Q67.9688-35.498 70.1172-35.498Q72.2168-35.498 73.7305-33.9844Q75.2441-32.4707 75.2441-30.3223Q75.2441-29.1504 74.9023-28.2715Q74.5605-27.3926 73.6816-26.5625L68.4082-21.3867L73.6816-16.2109Q74.5117-15.3809 74.8779-14.502Q75.2441-13.623 75.2441-12.4512Q75.2441-10.3516 73.7305-8.81348Q72.2168-7.27539 70.1172-7.27539Q69.043-7.27539 68.1396-7.6416Q67.2363-8.00781 66.4062-8.83789L61.1328-14.2578L55.8594-8.83789Q54.2969-7.27539 52.1484-7.27539Z"/>
  </g>
  <g id="Heavy-S" transform="matrix(1 0 0 1 2576.94 696)">
   <path d="M38.5909 2.33042L80.9088 2.33042Q87.7639 2.33042 91.0104-1.48743Q94.2568-5.30528 95.3595-12.0742L100.656-45.2342L18.8322-45.2342L24.1402-12.0742Q25.2429-5.30528 28.4894-1.48743Q31.7359 2.33042 38.5909 2.33042ZM17.4107-52.1782L102.126-52.1782Q105.619-52.1782 107.677-54.1699Q109.734-56.1617 109.734-59.9154L109.734-65.0033Q109.734-68.7455 107.677-70.743Q105.619-72.7406 102.126-72.7406L17.4107-72.7406Q14.0015-72.7406 11.8836-70.743Q9.76562-68.7455 9.76562-65.0033L9.76562-59.9154Q9.76562-56.1617 11.8605-54.1699Q13.9554-52.1782 17.4107-52.1782ZM50.2123-7.90924Q48.2741-7.90924 46.8699-9.33208Q45.4657-10.7549 45.4657-12.6932Q45.4657-14.683 46.9129-16.1303L53.0277-22.1934L46.9129-28.2566Q45.4657-29.6665 45.4657-31.6937Q45.4657-33.6692 46.8699-35.0619Q48.2741-36.4546 50.2123-36.4546Q51.2432-36.4546 52.0414-36.1057Q52.8396-35.7567 53.6006-35.0188L59.7384-28.7807L65.8992-35.0304Q67.381-36.4776 69.2874-36.4776Q71.2257-36.4776 72.6299-35.0792Q74.0341-33.6808 74.0341-31.6937Q74.0341-30.6255 73.7038-29.8273Q73.3735-29.0291 72.5868-28.2681L66.4606-22.1934L72.5753-16.1418Q73.3132-15.3924 73.6679-14.5826Q74.0225-13.7729 74.0225-12.6932Q74.0225-10.7549 72.6241-9.33208Q71.2257-7.90924 69.2874-7.90924Q68.2824-7.90924 67.4482-8.26968Q66.614-8.63013 65.8761-9.35649L59.7384-15.5947L53.6121-9.35649Q52.1648-7.90924 50.2123-7.90924Z"/>
  </g>
  <g id="Bold-S" transform="matrix(1 0 0 1 2281.77 696)">
   <path d="M37.3535 1.66016L79.0527 1.66016Q85.5469 1.66016 88.5742-1.86768Q91.6016-5.39551 92.627-11.8164L97.9492-46.0205L18.4326-46.0205L23.7793-11.8164Q24.8047-5.39551 27.832-1.86768Q30.8594 1.66016 37.3535 1.66016ZM17.1143-52.5391L99.3164-52.5391Q102.783-52.5391 104.712-54.4922Q106.641-56.4453 106.641-60.083L106.641-64.5264Q106.641-68.1396 104.712-70.105Q102.783-72.0703 99.3164-72.0703L17.1143-72.0703Q13.7695-72.0703 11.7676-70.105Q9.76562-68.1396 9.76562-64.5264L9.76562-60.083Q9.76562-56.4453 11.7188-54.4922Q13.6719-52.5391 17.1143-52.5391ZM48.0469-8.61816Q46.2891-8.61816 45.0073-9.91211Q43.7256-11.2061 43.7256-12.9639Q43.7256-14.7217 45.0439-16.04L52.0996-23.0957L45.0439-30.1514Q43.7256-31.4453 43.7256-33.2275Q43.7256-35.0098 45.0073-36.2671Q46.2891-37.5244 48.0469-37.5244Q48.9746-37.5244 49.6826-37.1948Q50.3906-36.8652 51.0742-36.2305L58.1787-29.0771L65.332-36.2549Q66.7236-37.5732 68.3594-37.5732Q70.1172-37.5732 71.3989-36.3037Q72.6807-35.0342 72.6807-33.2275Q72.6807-32.2754 72.3633-31.5674Q72.0459-30.8594 71.3623-30.1758L64.2822-23.0957L71.3379-16.0645Q71.9727-15.4053 72.3145-14.6729Q72.6562-13.9404 72.6562-12.9639Q72.6562-11.2061 71.3867-9.91211Q70.1172-8.61816 68.3594-8.61816Q67.4316-8.61816 66.6748-8.97217Q65.918-9.32617 65.2832-9.93652L58.1787-17.0898L51.0986-9.93652Q49.7803-8.61816 48.0469-8.61816Z"/>
  </g>
  <g id="Semibold-S" transform="matrix(1 0 0 1 1986.13 696)">
   <path d="M36.5004 1.19805L77.773 1.19805Q84.0184 1.19805 86.8946-2.12983Q89.7709-5.45771 90.743-11.6387L96.083-46.5626L18.1571-46.5626L23.5305-11.6387Q24.5025-5.45771 27.3788-2.12983Q30.2551 1.19805 36.5004 1.19805ZM16.9099-52.7879L97.3791-52.7879Q100.828-52.7879 102.668-54.7144Q104.508-56.6408 104.508-60.1985L104.508-64.1976Q104.508-67.722 102.668-69.6651Q100.828-71.6082 97.3791-71.6082L16.9099-71.6082Q13.6096-71.6082 11.6876-69.6651Q9.76562-67.722 9.76562-64.1976L9.76562-60.1985Q9.76562-56.6408 11.621-54.7144Q13.4764-52.7879 16.9099-52.7879ZM46.5539-9.10693Q44.9205-9.10693 43.7232-10.312Q42.5259-11.5171 42.5259-13.1505Q42.5259-14.7483 43.7554-15.9778L51.4598-23.7178L43.7554-31.4577Q42.5259-32.6717 42.5259-34.2851Q42.5259-35.934 43.7232-37.098Q44.9205-38.262 46.5539-38.262Q47.4105-38.262 48.0563-37.9458Q48.7021-37.6295 49.3324-37.0658L57.1034-29.2815L64.941-37.0991Q66.2704-38.3286 67.7195-38.3286Q69.3529-38.3286 70.5502-37.1479Q71.7476-35.9673 71.7476-34.2851Q71.7476-33.4129 71.4391-32.7671Q71.1306-32.1213 70.5181-31.491L62.7804-23.7178L70.4848-16.0111Q71.0484-15.4142 71.3813-14.7351Q71.7143-14.056 71.7143-13.1505Q71.7143-11.5171 70.5336-10.312Q69.3529-9.10693 67.7195-9.10693Q66.8451-9.10693 66.1416-9.45649Q65.4381-9.80605 64.8744-10.3364L57.1034-18.1207L49.3657-10.3364Q48.1362-9.10693 46.5539-9.10693Z"/>
  </g>
  <g id="Medium-S" transform="matrix(1 0 0 1 1690.23 696)">
   <path d="M35.8535 0.847656L76.8027 0.847656Q82.8594 0.847656 85.6211-2.32861Q88.3828-5.50488 89.3145-11.5039L94.668-46.9736L17.9482-46.9736L23.3418-11.5039Q24.2734-5.50488 27.0352-2.32861Q29.7969 0.847656 35.8535 0.847656ZM16.7549-52.9766L95.9102-52.9766Q99.3457-52.9766 101.118-54.8828Q102.891-56.7891 102.891-60.2861L102.891-63.9482Q102.891-67.4053 101.118-69.3315Q99.3457-71.2578 95.9102-71.2578L16.7549-71.2578Q13.4883-71.2578 11.627-69.3315Q9.76562-67.4053 9.76562-63.9482L9.76562-60.2861Q9.76562-56.7891 11.5469-54.8828Q13.3281-52.9766 16.7549-52.9766ZM45.4219-9.47754Q43.8828-9.47754 42.7495-10.6152Q41.6162-11.7529 41.6162-13.292Q41.6162-14.7686 42.7783-15.9307L50.9746-24.1895L42.7783-32.4482Q41.6162-33.6016 41.6162-35.0869Q41.6162-36.6348 42.7495-37.728Q43.8828-38.8213 45.4219-38.8213Q46.2246-38.8213 46.8232-38.5151Q47.4219-38.209 48.0117-37.6992L56.2881-29.4365L64.6445-37.7393Q65.9268-38.9014 67.2344-38.9014Q68.7734-38.9014 69.9067-37.7881Q71.04-36.6748 71.04-35.0869Q71.04-34.2754 70.7383-33.6768Q70.4365-33.0781 69.8779-32.4883L61.6416-24.1895L69.8379-15.9707Q70.3477-15.4209 70.6738-14.7822Q71-14.1436 71-13.292Q71-11.7529 69.8867-10.6152Q68.7734-9.47754 67.2344-9.47754Q66.4004-9.47754 65.7373-9.82373Q65.0742-10.1699 64.5645-10.6396L56.2881-18.9023L48.0518-10.6396Q46.8896-9.47754 45.4219-9.47754Z"/>
  </g>
  <g id="Regular-S" transform="matrix(1 0 0 1 1394.57 696)">
   <path d="M35.0098 0.390625L75.5371 0.390625Q81.3477 0.390625 83.96-2.58789Q86.5723-5.56641 87.4512-11.3281L92.8223-47.5098L17.6758-47.5098L23.0957-11.3281Q23.9746-5.56641 26.5869-2.58789Q29.1992 0.390625 35.0098 0.390625ZM16.5527-53.2227L93.9941-53.2227Q97.4121-53.2227 99.0967-55.1025Q100.781-56.9824 100.781-60.4004L100.781-63.623Q100.781-66.9922 99.0967-68.8965Q97.4121-70.8008 93.9941-70.8008L16.5527-70.8008Q13.3301-70.8008 11.5479-68.8965Q9.76562-66.9922 9.76562-63.623L9.76562-60.4004Q9.76562-56.9824 11.4502-55.1025Q13.1348-53.2227 16.5527-53.2227ZM43.9453-9.96094Q42.5293-9.96094 41.4795-11.0107Q40.4297-12.0605 40.4297-13.4766Q40.4297-14.7949 41.5039-15.8691L50.3418-24.8047L41.5039-33.7402Q40.4297-34.8145 40.4297-36.1328Q40.4297-37.5488 41.4795-38.5498Q42.5293-39.5508 43.9453-39.5508Q44.6777-39.5508 45.2148-39.2578Q45.752-38.9648 46.2891-38.5254L55.2246-29.6387L64.2578-38.5742Q65.4785-39.6484 66.6016-39.6484Q68.0176-39.6484 69.0674-38.623Q70.1172-37.5977 70.1172-36.1328Q70.1172-35.4004 69.8242-34.8633Q69.5312-34.3262 69.043-33.7891L60.1562-24.8047L68.9941-15.918Q69.4336-15.4297 69.751-14.8438Q70.0684-14.2578 70.0684-13.4766Q70.0684-12.0605 69.043-11.0107Q68.0176-9.96094 66.6016-9.96094Q65.8203-9.96094 65.21-10.3027Q64.5996-10.6445 64.1602-11.0352L55.2246-19.9219L46.3379-11.0352Q45.2637-9.96094 43.9453-9.96094Z"/>
  </g>
  <g id="Light-S" transform="matrix(1 0 0 1 1097.88 696)">
   <path d="M35.319-0.260417L75.2116-0.260417Q80.6966-0.260417 83.252-3.11686Q85.8073-5.97331 86.6211-11.3932L92.1061-48.0306L18.3757-48.0306L23.8932-11.3932Q24.7233-5.92448 27.2705-3.09245Q29.8177-0.260417 35.319-0.260417ZM16.0156-52.8483L94.4987-52.8483Q97.5749-52.8483 99.1618-54.598Q100.749-56.3477 100.749-59.4401L100.749-63.5254Q100.749-66.5853 99.1618-68.3512Q97.5749-70.1172 94.4987-70.1172L16.0156-70.1172Q13.0697-70.1172 11.4176-68.3512Q9.76562-66.5853 9.76562-63.5254L9.76562-59.4401Q9.76562-56.3477 11.3525-54.598Q12.9395-52.8483 16.0156-52.8483ZM43.7012-11.1003Q42.5944-11.1003 41.7887-11.9059Q40.9831-12.7116 40.9831-13.8184Q40.9831-14.8438 41.8132-15.6576L51.4486-25.3743L41.8132-35.0911Q40.9831-35.9049 40.9831-36.9466Q40.9831-38.0371 41.7969-38.8102Q42.6107-39.5833 43.7012-39.5833Q44.2546-39.5833 44.6777-39.3555Q45.1009-39.1276 45.5078-38.7858L55.2246-29.1178L64.9902-38.8184Q65.918-39.6484 66.8294-39.6484Q67.9199-39.6484 68.7174-38.859Q69.515-38.0697 69.515-36.9466Q69.515-36.377 69.3034-35.9538Q69.0918-35.5306 68.7012-35.1237L59.0332-25.3743L68.6686-15.6901Q69.0104-15.3158 69.2464-14.8682Q69.4824-14.4206 69.4824-13.8184Q69.4824-12.7279 68.693-11.9141Q67.9036-11.1003 66.8294-11.1003Q66.2272-11.1003 65.7471-11.3607Q65.2669-11.6211 64.9251-11.9303L55.2246-21.5983L45.5404-11.9303Q44.7103-11.1003 43.7012-11.1003Z"/>
  </g>
  <g id="Thin-S" transform="matrix(1 0 0 1 801.184 696)">
   <path d="M35.728-1.12147L74.7811-1.12147Q79.8356-1.12147 82.3156-3.81647Q84.7956-6.51147 85.5232-11.4793L91.159-48.7194L19.3013-48.7194L24.948-11.4793Q25.7135-6.39806 28.1746-3.75977Q30.6357-1.12147 35.728-1.12147ZM15.3053-52.3532L95.166-52.3532Q97.7901-52.3532 99.2479-53.9307Q100.706-55.5081 100.706-58.17L100.706-63.3962Q100.706-66.0471 99.2479-67.6301Q97.7901-69.2131 95.166-69.2131L15.3053-69.2131Q12.7252-69.2131 11.2454-67.6301Q9.76562-66.0471 9.76562-63.3962L9.76562-58.17Q9.76562-55.5081 11.2234-53.9307Q12.6811-52.3532 15.3053-52.3532ZM43.3783-12.6071Q42.6805-12.6071 42.1977-13.0899Q41.715-13.5726 41.715-14.2704Q41.715-14.9083 42.2222-15.3777L52.9124-26.1278L42.2222-36.8778Q41.715-37.3472 41.715-38.0229Q41.715-38.6829 42.2166-39.1546Q42.7183-39.6264 43.3783-39.6264Q43.6949-39.6264 43.9674-39.4846Q44.2399-39.3429 44.4745-39.1302L55.2246-28.429L65.9589-39.1413Q66.4992-39.6484 67.1308-39.6484Q67.7908-39.6484 68.2546-39.1712Q68.7185-38.6939 68.7185-38.0229Q68.7185-37.6685 68.6145-37.396Q68.5106-37.1236 68.2491-36.8889L57.5479-26.1278L68.2381-15.3887Q68.4507-15.1651 68.5791-14.9005Q68.7075-14.6358 68.7075-14.2704Q68.7075-13.6104 68.2302-13.1088Q67.753-12.6071 67.1308-12.6071Q66.7654-12.6071 66.4574-12.7599Q66.1495-12.9127 65.9369-13.1143L55.2246-23.8155L44.4856-13.1143Q43.9784-12.6071 43.3783-12.6071Z"/>
  </g>
  <g id="Ultralight-S" transform="matrix(1 0 0 1 504.483 696)">
   <path d="M35.9375-1.5625L74.5605-1.5625Q79.3945-1.5625 81.8359-4.1748Q84.2773-6.78711 84.9609-11.5234L90.6738-49.0723L19.7754-49.0723L25.4883-11.5234Q26.2207-6.64062 28.6377-4.10156Q31.0547-1.5625 35.9375-1.5625ZM14.9414-52.0996L95.5078-52.0996Q97.9004-52.0996 99.292-53.5889Q100.684-55.0781 100.684-57.5195L100.684-63.3301Q100.684-65.7715 99.292-67.2607Q97.9004-68.75 95.5078-68.75L14.9414-68.75Q12.5488-68.75 11.1572-67.2607Q9.76562-65.7715 9.76562-63.3301L9.76562-57.5195Q9.76562-55.0781 11.1572-53.5889Q12.5488-52.0996 14.9414-52.0996ZM43.2129-13.3789Q42.7246-13.3789 42.4072-13.6963Q42.0898-14.0137 42.0898-14.502Q42.0898-14.9414 42.4316-15.2344L53.6621-26.5137L42.4316-37.793Q42.0898-38.0859 42.0898-38.5742Q42.0898-39.0137 42.4316-39.3311Q42.7734-39.6484 43.2129-39.6484Q43.4082-39.6484 43.6035-39.5508Q43.7988-39.4531 43.9453-39.3066L55.2246-28.0762L66.4551-39.3066Q66.7969-39.6484 67.2852-39.6484Q67.7246-39.6484 68.0176-39.3311Q68.3105-39.0137 68.3105-38.5742Q68.3105-38.3301 68.2617-38.1348Q68.2129-37.9395 68.0176-37.793L56.7871-26.5137L68.0176-15.2344Q68.1641-15.0879 68.2373-14.917Q68.3105-14.7461 68.3105-14.502Q68.3105-14.0625 67.9932-13.7207Q67.6758-13.3789 67.2852-13.3789Q67.041-13.3789 66.8213-13.4766Q66.6016-13.5742 66.4551-13.7207L55.2246-24.9512L43.9453-13.7207Q43.6035-13.3789 43.2129-13.3789Z"/>
  </g>
 </g>
</svg>
