<?xml version="1.0" encoding="UTF-8"?>
<!--Generator: Apple Native CoreSVG 175-->
<!DOCTYPE svg
PUBLIC "-//W3C//DTD SVG 1.1//EN"
       "http://www.w3.org/Graphics/SVG/1.1/DTD/svg11.dtd">
<svg version="1.1" xmlns="http://www.w3.org/2000/svg" xmlns:xlink="http://www.w3.org/1999/xlink" width="3300" height="2200">
 <!--glyph: "uni1001FB.medium", point size: 100.0, font version: "17.1d1e1", template writer version: "65.1"-->
 <g id="Notes">
  <rect height="2200" id="artboard" style="fill:white;opacity:1" width="3300" x="0" y="0"/>
  <line style="fill:none;stroke:black;opacity:1;stroke-width:0.5;" x1="263" x2="3036" y1="292" y2="292"/>
  <text style="stroke:none;fill:black;font-family:sans-serif;font-size:13;font-weight:bold;" transform="matrix(1 0 0 1 263 322)">Weight/Scale Variations</text>
  <text style="stroke:none;fill:black;font-family:sans-serif;font-size:13;text-anchor:middle;" transform="matrix(1 0 0 1 559.711 322)">Ultralight</text>
  <text style="stroke:none;fill:black;font-family:sans-serif;font-size:13;text-anchor:middle;" transform="matrix(1 0 0 1 856.422 322)">Thin</text>
  <text style="stroke:none;fill:black;font-family:sans-serif;font-size:13;text-anchor:middle;" transform="matrix(1 0 0 1 1153.13 322)">Light</text>
  <text style="stroke:none;fill:black;font-family:sans-serif;font-size:13;text-anchor:middle;" transform="matrix(1 0 0 1 1449.84 322)">Regular</text>
  <text style="stroke:none;fill:black;font-family:sans-serif;font-size:13;text-anchor:middle;" transform="matrix(1 0 0 1 1746.56 322)">Medium</text>
  <text style="stroke:none;fill:black;font-family:sans-serif;font-size:13;text-anchor:middle;" transform="matrix(1 0 0 1 2043.27 322)">Semibold</text>
  <text style="stroke:none;fill:black;font-family:sans-serif;font-size:13;text-anchor:middle;" transform="matrix(1 0 0 1 2339.98 322)">Bold</text>
  <text style="stroke:none;fill:black;font-family:sans-serif;font-size:13;text-anchor:middle;" transform="matrix(1 0 0 1 2636.69 322)">Heavy</text>
  <text style="stroke:none;fill:black;font-family:sans-serif;font-size:13;text-anchor:middle;" transform="matrix(1 0 0 1 2933.4 322)">Black</text>
  <line style="fill:none;stroke:black;opacity:1;stroke-width:0.5;" x1="263" x2="3036" y1="1903" y2="1903"/>
  <g transform="matrix(1 0 0 1 263 1933)">
   <path d="M9.24805 0.830078Q10.8691 0.830078 12.2949 0.214844Q13.7207-0.400391 14.8096-1.49414Q15.8984-2.58789 16.5186-4.01367Q17.1387-5.43945 17.1387-7.05078Q17.1387-8.66211 16.5186-10.0879Q15.8984-11.5137 14.8047-12.6074Q13.7109-13.7012 12.2852-14.3164Q10.8594-14.9316 9.23828-14.9316Q7.62695-14.9316 6.20117-14.3164Q4.77539-13.7012 3.69141-12.6074Q2.60742-11.5137 1.9873-10.0879Q1.36719-8.66211 1.36719-7.05078Q1.36719-5.43945 1.9873-4.01367Q2.60742-2.58789 3.69629-1.49414Q4.78516-0.400391 6.21094 0.214844Q7.63672 0.830078 9.24805 0.830078ZM9.24805-0.654297Q7.91992-0.654297 6.7627-1.14746Q5.60547-1.64062 4.73145-2.51953Q3.85742-3.39844 3.36426-4.56055Q2.87109-5.72266 2.87109-7.05078Q2.87109-8.37891 3.35938-9.54102Q3.84766-10.7031 4.72168-11.582Q5.5957-12.4609 6.75293-12.9541Q7.91016-13.4473 9.23828-13.4473Q10.5762-13.4473 11.7334-12.9541Q12.8906-12.4609 13.7695-11.582Q14.6484-10.7031 15.1465-9.54102Q15.6445-8.37891 15.6445-7.05078Q15.6445-5.72266 15.1514-4.56055Q14.6582-3.39844 13.7842-2.51953Q12.9102-1.64062 11.748-1.14746Q10.5859-0.654297 9.24805-0.654297ZM5.6543-7.05078Q5.6543-6.72852 5.85938-6.52832Q6.06445-6.32812 6.40625-6.32812L8.51562-6.32812L8.51562-4.20898Q8.51562-3.88672 8.71094-3.67676Q8.90625-3.4668 9.23828-3.4668Q9.56055-3.4668 9.77051-3.67676Q9.98047-3.88672 9.98047-4.20898L9.98047-6.32812L12.0898-6.32812Q12.4219-6.32812 12.627-6.52832Q12.832-6.72852 12.832-7.05078Q12.832-7.38281 12.627-7.58789Q12.4219-7.79297 12.0898-7.79297L9.98047-7.79297L9.98047-9.90234Q9.98047-10.2344 9.77051-10.4443Q9.56055-10.6543 9.23828-10.6543Q8.90625-10.6543 8.71094-10.4443Q8.51562-10.2344 8.51562-9.90234L8.51562-7.79297L6.40625-7.79297Q6.06445-7.79297 5.85938-7.58789Q5.6543-7.38281 5.6543-7.05078Z"/>
  </g>
  <g transform="matrix(1 0 0 1 281.867 1933)">
   <path d="M11.709 2.91016Q13.75 2.91016 15.5518 2.12891Q17.3535 1.34766 18.7305-0.0292969Q20.1074-1.40625 20.8887-3.20801Q21.6699-5.00977 21.6699-7.05078Q21.6699-9.0918 20.8887-10.8936Q20.1074-12.6953 18.7305-14.0723Q17.3535-15.4492 15.5469-16.2305Q13.7402-17.0117 11.6992-17.0117Q9.6582-17.0117 7.85645-16.2305Q6.05469-15.4492 4.68262-14.0723Q3.31055-12.6953 2.5293-10.8936Q1.74805-9.0918 1.74805-7.05078Q1.74805-5.00977 2.5293-3.20801Q3.31055-1.40625 4.6875-0.0292969Q6.06445 1.34766 7.86621 2.12891Q9.66797 2.91016 11.709 2.91016ZM11.709 1.25Q9.98047 1.25 8.47656 0.605469Q6.97266-0.0390625 5.83496-1.17676Q4.69727-2.31445 4.05762-3.81836Q3.41797-5.32227 3.41797-7.05078Q3.41797-8.7793 4.05762-10.2832Q4.69727-11.7871 5.83008-12.9297Q6.96289-14.0723 8.4668-14.7119Q9.9707-15.3516 11.6992-15.3516Q13.4277-15.3516 14.9316-14.7119Q16.4355-14.0723 17.5781-12.9297Q18.7207-11.7871 19.3652-10.2832Q20.0098-8.7793 20.0098-7.05078Q20.0098-5.32227 19.3701-3.81836Q18.7305-2.31445 17.5928-1.17676Q16.4551-0.0390625 14.9463 0.605469Q13.4375 1.25 11.709 1.25ZM7.17773-7.05078Q7.17773-6.69922 7.41211-6.47461Q7.64648-6.25 8.01758-6.25L10.8887-6.25L10.8887-3.36914Q10.8887-2.99805 11.1133-2.76855Q11.3379-2.53906 11.6895-2.53906Q12.0605-2.53906 12.29-2.76855Q12.5195-2.99805 12.5195-3.36914L12.5195-6.25L15.4004-6.25Q15.7715-6.25 16.001-6.47461Q16.2305-6.69922 16.2305-7.05078Q16.2305-7.42188 16.001-7.65137Q15.7715-7.88086 15.4004-7.88086L12.5195-7.88086L12.5195-10.752Q12.5195-11.1328 12.29-11.3623Q12.0605-11.5918 11.6895-11.5918Q11.3379-11.5918 11.1133-11.3574Q10.8887-11.123 10.8887-10.752L10.8887-7.88086L8.01758-7.88086Q7.63672-7.88086 7.40723-7.65137Q7.17773-7.42188 7.17773-7.05078Z"/>
  </g>
  <g transform="matrix(1 0 0 1 305.646 1933)">
   <path d="M14.9707 5.66406Q17.0605 5.66406 18.96 5.01465Q20.8594 4.36523 22.4512 3.19336Q24.043 2.02148 25.2197 0.429688Q26.3965-1.16211 27.0459-3.06641Q27.6953-4.9707 27.6953-7.05078Q27.6953-9.14062 27.0459-11.04Q26.3965-12.9395 25.2197-14.5312Q24.043-16.123 22.4512-17.2998Q20.8594-18.4766 18.9551-19.126Q17.0508-19.7754 14.9609-19.7754Q12.8711-19.7754 10.9717-19.126Q9.07227-18.4766 7.48535-17.2998Q5.89844-16.123 4.72168-14.5312Q3.54492-12.9395 2.90039-11.04Q2.25586-9.14062 2.25586-7.05078Q2.25586-4.9707 2.90527-3.06641Q3.55469-1.16211 4.72656 0.429688Q5.89844 2.02148 7.49023 3.19336Q9.08203 4.36523 10.9814 5.01465Q12.8809 5.66406 14.9707 5.66406ZM14.9707 3.84766Q13.1641 3.84766 11.5283 3.2959Q9.89258 2.74414 8.53516 1.74805Q7.17773 0.751953 6.17676-0.610352Q5.17578-1.97266 4.62891-3.6084Q4.08203-5.24414 4.08203-7.05078Q4.08203-8.86719 4.62891-10.5029Q5.17578-12.1387 6.17188-13.501Q7.16797-14.8633 8.52539-15.8594Q9.88281-16.8555 11.5186-17.4023Q13.1543-17.9492 14.9609-17.9492Q16.7773-17.9492 18.4131-17.4023Q20.0488-16.8555 21.4111-15.8594Q22.7734-14.8633 23.7695-13.501Q24.7656-12.1387 25.3174-10.5029Q25.8691-8.86719 25.8691-7.05078Q25.8789-5.24414 25.332-3.6084Q24.7852-1.97266 23.7842-0.610352Q22.7832 0.751953 21.4209 1.74805Q20.0586 2.74414 18.4229 3.2959Q16.7871 3.84766 14.9707 3.84766ZM9.19922-7.05078Q9.19922-6.66992 9.45801-6.4209Q9.7168-6.17188 10.1172-6.17188L14.0625-6.17188L14.0625-2.2168Q14.0625-1.81641 14.3115-1.55762Q14.5605-1.29883 14.9512-1.29883Q15.3516-1.29883 15.6104-1.55273Q15.8691-1.80664 15.8691-2.2168L15.8691-6.17188L19.8242-6.17188Q20.2246-6.17188 20.4785-6.4209Q20.7324-6.66992 20.7324-7.05078Q20.7324-7.46094 20.4785-7.71484Q20.2246-7.96875 19.8242-7.96875L15.8691-7.96875L15.8691-11.9141Q15.8691-12.3242 15.6104-12.583Q15.3516-12.8418 14.9512-12.8418Q14.5605-12.8418 14.3115-12.583Q14.0625-12.3242 14.0625-11.9141L14.0625-7.96875L10.1172-7.96875Q9.70703-7.96875 9.45312-7.71484Q9.19922-7.46094 9.19922-7.05078Z"/>
  </g>
  <text style="stroke:none;fill:black;font-family:sans-serif;font-size:13;font-weight:bold;" transform="matrix(1 0 0 1 263 1953)">Design Variations</text>
  <text style="stroke:none;fill:black;font-family:sans-serif;font-size:13;" transform="matrix(1 0 0 1 263 1971)">Symbols are supported in up to nine weights and three scales.</text>
  <text style="stroke:none;fill:black;font-family:sans-serif;font-size:13;" transform="matrix(1 0 0 1 263 1989)">For optimal layout with text and other symbols, vertically align</text>
  <text style="stroke:none;fill:black;font-family:sans-serif;font-size:13;" transform="matrix(1 0 0 1 263 2007)">symbols with the adjacent text.</text>
  <line style="fill:none;stroke:#00AEEF;stroke-width:0.5;opacity:1.0;" x1="776" x2="776" y1="1919" y2="1933"/>
  <g transform="matrix(1 0 0 1 776 1933)">
   <path d="M3.31055 0.15625Q3.70117 0.15625 3.91602-0.00976562Q4.13086-0.175781 4.26758-0.585938L5.52734-4.0332L11.2891-4.0332L12.5488-0.585938Q12.6855-0.175781 12.9004-0.00976562Q13.1152 0.15625 13.4961 0.15625Q13.8867 0.15625 14.1162-0.0585938Q14.3457-0.273438 14.3457-0.644531Q14.3457-0.869141 14.2383-1.17188L9.6582-13.3691Q9.48242-13.8184 9.17969-14.043Q8.87695-14.2676 8.4082-14.2676Q7.5-14.2676 7.17773-13.3789L2.59766-1.16211Q2.49023-0.859375 2.49023-0.634766Q2.49023-0.263672 2.70996-0.0537109Q2.92969 0.15625 3.31055 0.15625ZM6.00586-5.51758L8.37891-12.0898L8.42773-12.0898L10.8008-5.51758Z"/>
  </g>
  <line style="fill:none;stroke:#00AEEF;stroke-width:0.5;opacity:1.0;" x1="793.197" x2="793.197" y1="1919" y2="1933"/>
  <text style="stroke:none;fill:black;font-family:sans-serif;font-size:13;font-weight:bold;" transform="matrix(1 0 0 1 776 1953)">Margins</text>
  <text style="stroke:none;fill:black;font-family:sans-serif;font-size:13;" transform="matrix(1 0 0 1 776 1971)">Leading and trailing margins on the left and right side of each symbol</text>
  <text style="stroke:none;fill:black;font-family:sans-serif;font-size:13;" transform="matrix(1 0 0 1 776 1989)">can be adjusted by modifying the x-location of the margin guidelines.</text>
  <text style="stroke:none;fill:black;font-family:sans-serif;font-size:13;" transform="matrix(1 0 0 1 776 2007)">Modifications are automatically applied proportionally to all</text>
  <text style="stroke:none;fill:black;font-family:sans-serif;font-size:13;" transform="matrix(1 0 0 1 776 2025)">scales and weights.</text>
  <g transform="matrix(1 0 0 1 1289 1933)">
   <path d="M2.8418 1.86523L4.54102 3.57422Q5.18555 4.22852 5.90332 4.17969Q6.62109 4.13086 7.31445 3.35938L18.0078-8.42773L17.041-9.4043L6.42578 2.27539Q6.16211 2.57812 5.89355 2.61719Q5.625 2.65625 5.27344 2.30469L4.10156 1.14258Q3.75 0.791016 3.79395 0.522461Q3.83789 0.253906 4.14062-0.0195312L15.6152-10.8203L14.6387-11.7871L3.04688-0.898438Q2.30469-0.214844 2.25098 0.498047Q2.19727 1.21094 2.8418 1.86523ZM9.25781-16.3281Q8.94531-16.0254 8.90625-15.6348Q8.86719-15.2441 9.04297-14.9512Q9.21875-14.6777 9.55566-14.541Q9.89258-14.4043 10.3809-14.5215Q11.4746-14.7754 12.5977-14.7314Q13.7207-14.6875 14.7949-13.9844L14.209-12.5293Q13.9551-11.9043 14.0674-11.4404Q14.1797-10.9766 14.5801-10.5664L16.875-8.25195Q17.2363-7.88086 17.5781-7.82227Q17.9199-7.76367 18.3398-7.8418L19.4043-8.03711L20.0684-7.36328L20.0293-6.80664Q20-6.43555 20.1221-6.12305Q20.2441-5.81055 20.6055-5.44922L21.3672-4.70703Q21.7285-4.3457 22.1533-4.33105Q22.5781-4.31641 22.9297-4.66797L25.8398-7.58789Q26.1914-7.93945 26.1816-8.35449Q26.1719-8.76953 25.8105-9.13086L25.0391-9.89258Q24.6875-10.2539 24.3799-10.3857Q24.0723-10.5176 23.7109-10.4883L23.1348-10.4395L22.4902-11.0742L22.7344-12.1973Q22.832-12.6172 22.6953-12.9834Q22.5586-13.3496 22.1191-13.7891L19.9219-15.9766Q18.6719-17.2168 17.2607-17.8369Q15.8496-18.457 14.4189-18.4814Q12.9883-18.5059 11.665-17.959Q10.3418-17.4121 9.25781-16.3281ZM10.752-15.957Q11.6602-16.6211 12.7002-16.9043Q13.7402-17.1875 14.8047-17.085Q15.8691-16.9824 16.8701-16.5137Q17.8711-16.0449 18.7012-15.2051L21.1328-12.793Q21.3086-12.6172 21.3525-12.4512Q21.3965-12.2852 21.3379-12.0312L21.0156-10.5469L22.5195-9.0625L23.5059-9.12109Q23.6914-9.13086 23.7891-9.09668Q23.8867-9.0625 24.0332-8.91602L24.6094-8.33984L22.168-5.89844L21.5918-6.47461Q21.4453-6.62109 21.4062-6.71875Q21.3672-6.81641 21.377-7.01172L21.4453-7.98828L19.9512-9.47266L18.4277-9.21875Q18.1836-9.16992 18.042-9.2041Q17.9004-9.23828 17.7148-9.41406L15.7129-11.416Q15.5176-11.5918 15.4932-11.7529Q15.4688-11.9141 15.5859-12.1875L16.4648-14.2773Q15.293-15.3711 13.8281-15.791Q12.3633-16.2109 10.8398-15.7617Q10.7227-15.7324 10.6885-15.8057Q10.6543-15.8789 10.752-15.957Z"/>
  </g>
  <text style="stroke:none;fill:black;font-family:sans-serif;font-size:13;font-weight:bold;" transform="matrix(1 0 0 1 1289 1953)">Exporting</text>
  <text style="stroke:none;fill:black;font-family:sans-serif;font-size:13;" transform="matrix(1 0 0 1 1289 1971)">Symbols should be outlined when exporting to ensure the</text>
  <text style="stroke:none;fill:black;font-family:sans-serif;font-size:13;" transform="matrix(1 0 0 1 1289 1989)">design is preserved when submitting to Xcode.</text>
  <text id="template-version" style="stroke:none;fill:black;font-family:sans-serif;font-size:13;text-anchor:end;" transform="matrix(1 0 0 1 3036 1933)">Template v.3.0</text>
  <text style="stroke:none;fill:black;font-family:sans-serif;font-size:13;text-anchor:end;" transform="matrix(1 0 0 1 3036 1951)">Requires Xcode 13 or greater</text>
  <text id="descriptive-name" style="stroke:none;fill:black;font-family:sans-serif;font-size:13;text-anchor:end;" transform="matrix(1 0 0 1 3036 1969)">Generated from checkmark.seal.fill</text>
  <text style="stroke:none;fill:black;font-family:sans-serif;font-size:13;text-anchor:end;" transform="matrix(1 0 0 1 3036 1987)">Typeset at 100 points</text>
  <text style="stroke:none;fill:black;font-family:sans-serif;font-size:13;" transform="matrix(1 0 0 1 263 726)">Small</text>
  <text style="stroke:none;fill:black;font-family:sans-serif;font-size:13;" transform="matrix(1 0 0 1 263 1156)">Medium</text>
  <text style="stroke:none;fill:black;font-family:sans-serif;font-size:13;" transform="matrix(1 0 0 1 263 1586)">Large</text>
 </g>
 <g id="Guides">
  <g id="H-reference" style="fill:#27AAE1;stroke:none;" transform="matrix(1 0 0 1 339 696)">
   <path d="M0.993347 0L3.6377 0L29.3282-67.1326L30.0301-67.1326L30.0301-70.459L28.1227-70.459ZM11.6882-24.4797L46.9818-24.4797L46.2311-26.7288L12.4382-26.7288ZM55.1193 0L57.7637 0L30.6381-70.459L29.4327-70.459L29.4327-67.1326Z"/>
  </g>
  <line id="Baseline-S" style="fill:none;stroke:#27AAE1;opacity:1;stroke-width:0.5;" x1="263" x2="3036" y1="696" y2="696"/>
  <line id="Capline-S" style="fill:none;stroke:#27AAE1;opacity:1;stroke-width:0.5;" x1="263" x2="3036" y1="625.541" y2="625.541"/>
  <g id="H-reference" style="fill:#27AAE1;stroke:none;" transform="matrix(1 0 0 1 339 1126)">
   <path d="M0.993347 0L3.6377 0L29.3282-67.1326L30.0301-67.1326L30.0301-70.459L28.1227-70.459ZM11.6882-24.4797L46.9818-24.4797L46.2311-26.7288L12.4382-26.7288ZM55.1193 0L57.7637 0L30.6381-70.459L29.4327-70.459L29.4327-67.1326Z"/>
  </g>
  <line id="Baseline-M" style="fill:none;stroke:#27AAE1;opacity:1;stroke-width:0.5;" x1="263" x2="3036" y1="1126" y2="1126"/>
  <line id="Capline-M" style="fill:none;stroke:#27AAE1;opacity:1;stroke-width:0.5;" x1="263" x2="3036" y1="1055.54" y2="1055.54"/>
  <g id="H-reference" style="fill:#27AAE1;stroke:none;" transform="matrix(1 0 0 1 339 1556)">
   <path d="M0.993347 0L3.6377 0L29.3282-67.1326L30.0301-67.1326L30.0301-70.459L28.1227-70.459ZM11.6882-24.4797L46.9818-24.4797L46.2311-26.7288L12.4382-26.7288ZM55.1193 0L57.7637 0L30.6381-70.459L29.4327-70.459L29.4327-67.1326Z"/>
  </g>
  <line id="Baseline-L" style="fill:none;stroke:#27AAE1;opacity:1;stroke-width:0.5;" x1="263" x2="3036" y1="1556" y2="1556"/>
  <line id="Capline-L" style="fill:none;stroke:#27AAE1;opacity:1;stroke-width:0.5;" x1="263" x2="3036" y1="1485.54" y2="1485.54"/>
  <line id="left-margin-Regular-M" style="fill:none;stroke:#00AEEF;stroke-width:0.5;opacity:1.0;" x1="1385.67" x2="1385.67" y1="1030.79" y2="1150.12"/>
  <line id="right-margin-Regular-M" style="fill:none;stroke:#00AEEF;stroke-width:0.5;opacity:1.0;" x1="1514.01" x2="1514.01" y1="1030.79" y2="1150.12"/>
 </g>
 <g id="Symbols">
  <g id="Black-L" transform="matrix(1 0 0 1 2848.45 1556)">
   <path d="M47.1629 21.6082L60.0879 21.6082Q61.3989 21.6082 62.3196 22.5289L71.4507 31.6367Q78.2363 38.4249 84.9521 38.4146Q91.6679 38.4042 98.4549 31.6367L107.565 22.5289Q108.485 21.6082 109.816 21.6082L122.721 21.6082Q132.303 21.6082 137.067 16.8259Q141.83 12.0436 141.83 2.49884L141.83-10.4054Q141.83-11.7138 142.751-12.6578L151.838-21.7669Q158.647-28.5539 158.636-35.2697Q158.626-41.9855 151.838-48.7725L142.751-57.8816Q141.83-58.8256 141.83-60.134L141.83-73.0382Q141.83-82.6414 137.048-87.3945Q132.265-92.1476 122.721-92.1476L109.816-92.1476Q108.485-92.1476 107.565-93.0683L98.4549-102.176Q91.6082-109.024 84.9223-109.014Q78.2363-109.003 71.4494-102.118L62.3196-93.0683Q61.3989-92.1476 60.0879-92.1476L47.1629-92.1476Q37.5804-92.1476 32.828-87.4341Q28.0756-82.7206 28.0756-73.0382L28.0756-60.134Q28.0756-58.8256 27.1549-57.8816L18.0458-48.7725Q11.2575-41.9855 11.2575-35.2697Q11.2575-28.5539 18.0458-21.7669L27.1549-12.6578Q28.0756-11.7138 28.0756-10.4054L28.0756 2.49884Q28.0756 12.102 32.8572 16.8551Q37.6388 21.6082 47.1629 21.6082ZM78.0361-3.15791Q75.6217-3.15791 73.6633-4.2555Q71.7049-5.35309 70.0405-7.29769L55.9448-23.8753Q53.5718-26.6685 53.5718-29.7757Q53.5718-33.1555 56.0208-35.518Q58.4697-37.8806 61.8105-37.8806Q63.7319-37.8806 65.2667-37.0983Q66.8014-36.316 68.1324-34.7426L77.9519-23.1031L100.971-59.5093Q103.956-64.1722 108.225-64.1722Q111.582-64.1722 114.123-61.9796Q116.664-59.7869 116.664-56.3669Q116.664-55.1176 116.214-53.7101Q115.764-52.3025 114.777-50.8974L85.81-7.47291Q82.8429-3.15791 78.0361-3.15791Z"/>
  </g>
  <g id="Heavy-L" transform="matrix(1 0 0 1 2552.32 1556)">
   <path d="M46.4488 20.9976L59.6141 20.9976Q61.0686 20.9976 62.082 22.011L71.4012 31.2884Q77.9484 37.8476 84.3701 37.8328Q90.7918 37.8179 97.345 31.2884L106.634 22.011Q107.642 20.9976 109.126 20.9976L122.262 20.9976Q131.512 20.9976 136.075 16.4277Q140.637 11.8578 140.637 2.62185L140.637-10.5137Q140.637-11.9562 141.651-13.0114L150.898-22.2948Q157.487-28.848 157.473-35.2697Q157.458-41.6914 150.898-48.2446L141.651-57.528Q140.637-58.5832 140.637-60.0257L140.637-73.1613Q140.637-82.4419 136.068-86.9894Q131.498-91.537 122.262-91.537L109.126-91.537Q107.642-91.537 106.634-92.5504L97.345-101.828Q90.7411-108.438 84.3448-108.423Q77.9484-108.408 71.3952-101.783L62.082-92.5504Q61.0686-91.537 59.6141-91.537L46.4488-91.537Q37.1979-91.537 32.6534-87.0266Q28.1088-82.5162 28.1088-73.1613L28.1088-60.0257Q28.1088-58.5832 27.0954-57.528L17.812-48.2446Q11.2528-41.6914 11.2528-35.2697Q11.2528-28.848 17.812-22.2948L27.0954-13.0114Q28.1088-11.9562 28.1088-10.5137L28.1088 2.62185Q28.1088 11.9025 32.6757 16.45Q37.2426 20.9976 46.4488 20.9976ZM77.4274-3.50008Q75.2221-3.50008 73.429-4.50002Q71.636-5.49997 70.0884-7.33627L55.5063-24.6561Q53.3605-27.2217 53.3605-30.0728Q53.3605-33.1233 55.5523-35.2675Q57.7441-37.4117 60.7737-37.4117Q62.5416-37.4117 63.9597-36.69Q65.3779-35.9683 66.6428-34.4295L77.3023-21.5203L101.378-59.7127Q104.057-63.9119 107.923-63.9119Q110.931-63.9119 113.238-61.9506Q115.544-59.9893 115.544-56.8854Q115.544-55.7069 115.086-54.3929Q114.627-53.0789 113.752-51.7903L84.5223-7.47013Q81.8289-3.50008 77.4274-3.50008Z"/>
  </g>
  <g id="Bold-L" transform="matrix(1 0 0 1 2256.4 1556)">
   <path d="M45.4427 20.1535L58.9892 20.1535Q60.6244 20.1535 61.7558 21.2849L71.366 30.8297Q77.5687 37.0608 83.5751 37.0423Q89.5814 37.0238 95.7984 30.8297L105.372 21.2849Q106.489 20.1535 108.161 20.1535L121.67 20.1535Q130.45 20.1535 134.724 15.883Q138.998 11.6126 138.998 2.82566L138.998-10.6838Q138.998-12.2905 140.13-13.4874L149.637-23.0464Q155.906-29.2633 155.887-35.2697Q155.869-41.2761 149.637-47.493L140.13-57.052Q138.998-58.2489 138.998-59.8556L138.998-73.3651Q138.998-82.1812 134.728-86.437Q130.457-90.6929 121.67-90.6929L108.161-90.6929Q106.489-90.6929 105.372-91.8243L95.7984-101.369Q89.538-107.644 83.5534-107.625Q77.5687-107.607 71.3518-101.34L61.7558-91.8243Q60.6244-90.6929 58.9892-90.6929L45.4427-90.6929Q36.6636-90.6929 32.4149-86.4701Q28.1661-82.2474 28.1661-73.3651L28.1661-59.8556Q28.1661-58.2489 27.0347-57.052L17.4757-47.493Q11.2446-41.2761 11.2446-35.2697Q11.2446-29.2633 17.4757-23.0464L27.0347-13.4874Q28.1661-12.2905 28.1661-10.6838L28.1661 2.82566Q28.1661 11.6418 32.4295 15.8976Q36.6928 20.1535 45.4427 20.1535ZM76.6199-3.92313Q74.6916-3.92313 73.1252-4.79226Q71.5589-5.66139 70.1795-7.32761L54.892-25.6101Q53.0376-27.8751 53.0376-30.3764Q53.0376-33.0009 54.903-34.8563Q56.7684-36.7116 59.3865-36.7116Q60.9482-36.7116 62.2028-36.0735Q63.4573-35.4354 64.6167-33.9814L76.4577-19.4503L101.963-59.9632Q104.256-63.563 107.592-63.563Q110.152-63.563 112.15-61.8923Q114.148-60.2216 114.148-57.5373Q114.148-56.4725 113.696-55.2949Q113.244-54.1172 112.511-52.9876L82.8027-7.41522Q80.4643-3.92313 76.6199-3.92313Z"/>
  </g>
  <g id="Semibold-L" transform="matrix(1 0 0 1 1960.23 1556)">
   <path d="M44.7492 19.5715L58.5584 19.5715Q60.3181 19.5715 61.5309 20.7843L71.3418 30.5134Q77.307 36.5184 83.027 36.4974Q88.747 36.4764 94.7321 30.5134L104.501 20.7843Q105.694 19.5715 107.496 19.5715L121.263 19.5715Q129.717 19.5715 133.793 15.5075Q137.868 11.4435 137.868 2.96616L137.868-10.8011Q137.868-12.5211 139.081-13.8156L148.768-23.5646Q154.815-29.5497 154.794-35.2697Q154.773-40.9897 148.768-46.9748L139.081-56.7238Q137.868-58.0183 137.868-59.7383L137.868-73.5056Q137.868-82.0015 133.804-86.0562Q129.74-90.1109 121.263-90.1109L107.496-90.1109Q105.694-90.1109 104.501-91.3237L94.7321-101.053Q88.7086-107.096 83.0078-107.075Q77.307-107.054 71.3219-101.034L61.5309-91.3237Q60.3181-90.1109 58.5584-90.1109L44.7492-90.1109Q36.2952-90.1109 32.2504-86.0865Q28.2057-82.062 28.2057-73.5056L28.2057-59.7383Q28.2057-58.0183 26.9929-56.7238L17.2439-46.9748Q11.2389-40.9897 11.2389-35.2697Q11.2389-29.5497 17.2439-23.5646L26.9929-13.8156Q28.2057-12.5211 28.2057-10.8011L28.2057 2.96616Q28.2057 11.4621 32.2597 15.5168Q36.3138 19.5715 44.7492 19.5715ZM76.0632-4.21478Q74.3259-4.21478 72.9158-4.99373Q71.5058-5.77267 70.2422-7.32164L54.4684-26.2678Q52.8151-28.3255 52.8151-30.5856Q52.8151-32.9165 54.4554-34.5728Q56.0958-36.229 58.4302-36.229Q59.8497-36.229 60.9915-35.6485Q62.1333-35.068 63.22-33.6725L75.8754-18.0233L102.365-60.136Q104.394-63.3225 107.365-63.3225Q109.614-63.3225 111.4-61.8521Q113.185-60.3817 113.185-57.9867Q113.185-57.0003 112.738-55.9167Q112.29-54.8331 111.655-53.8131L81.6172-7.37736Q79.5236-4.21478 76.0632-4.21478Z"/>
  </g>
  <g id="Medium-L" transform="matrix(1 0 0 1 1663.94 1556)">
   <path d="M44.2233 19.1302L58.2317 19.1302Q60.0859 19.1302 61.3604 20.4047L71.3234 30.2737Q77.1085 36.1071 82.6114 36.0842Q88.1144 36.0613 93.9236 30.2737L103.841 20.4047Q105.091 19.1302 106.991 19.1302L120.954 19.1302Q129.161 19.1302 133.086 15.2228Q137.011 11.3153 137.011 3.07269L137.011-10.89Q137.011-12.6959 138.286-14.0644L148.109-23.9575Q153.988-29.7668 153.965-35.2697Q153.942-40.7726 148.109-46.5819L138.286-56.475Q137.011-57.8435 137.011-59.6494L137.011-73.6121Q137.011-81.8652 133.104-85.7674Q129.196-89.6696 120.954-89.6696L106.991-89.6696Q105.091-89.6696 103.841-90.9442L93.9236-100.813Q88.0797-106.681 82.5941-106.658Q77.1085-106.635 71.2992-100.803L61.3604-90.9442Q60.0859-89.6696 58.2317-89.6696L44.2233-89.6696Q36.0159-89.6696 32.1258-85.7956Q28.2356-81.9215 28.2356-73.6121L28.2356-59.6494Q28.2356-57.8435 26.9611-56.475L17.0681-46.5819Q11.2346-40.7726 11.2346-35.2697Q11.2346-29.7668 17.0681-23.9575L26.9611-14.0644Q28.2356-12.6959 28.2356-10.89L28.2356 3.07269Q28.2356 11.3258 32.131 15.228Q36.0264 19.1302 44.2233 19.1302ZM75.641-4.43593Q74.0485-4.43593 72.757-5.14649Q71.4655-5.85705 70.2898-7.31712L54.1473-26.7665Q52.6464-28.6671 52.6464-30.7443Q52.6464-32.8526 54.1161-34.3578Q55.5858-35.8631 57.7051-35.8631Q59.0168-35.8631 60.0731-35.3263Q61.1293-34.7895 62.1609-33.4382L75.4339-16.9413L102.671-60.267Q104.498-63.1402 107.192-63.1402Q109.207-63.1402 110.831-61.8216Q112.455-60.5031 112.455-58.3275Q112.455-57.4005 112.011-56.3882Q111.567-55.3758 111.006-54.4389L80.7183-7.34866Q78.8104-4.43593 75.641-4.43593Z"/>
  </g>
  <g id="Regular-L" transform="matrix(1 0 0 1 1367.77 1556)">
   <path d="M43.5373 18.5547L57.8056 18.5547Q59.783 18.5547 61.138 19.9097L71.2994 29.9609Q76.8496 35.5706 82.0694 35.5453Q87.2891 35.5199 92.8691 29.9609L102.98 19.9097Q104.305 18.5547 106.333 18.5547L120.551 18.5547Q128.436 18.5547 132.165 14.8514Q135.894 11.1481 135.894 3.21165L135.894-11.0059Q135.894-12.9239 137.249-14.389L147.249-24.47Q152.91-30.0499 152.884-35.2697Q152.859-40.4895 147.249-46.0694L137.249-56.1504Q135.894-57.6156 135.894-59.5335L135.894-73.7511Q135.894-81.6875 132.19-85.3908Q128.487-89.0941 120.551-89.0941L106.333-89.0941Q104.305-89.0941 102.98-90.4491L92.8691-100.5Q87.2594-106.14 82.0545-106.114Q76.8496-106.089 71.2696-100.5L61.138-90.4491Q59.783-89.0941 57.8056-89.0941L43.5373-89.0941Q35.6516-89.0941 31.9631-85.4161Q28.2747-81.7382 28.2747-73.7511L28.2747-59.5335Q28.2747-57.6156 26.9197-56.1504L16.8388-46.0694Q11.2291-40.4895 11.2291-35.2697Q11.2291-30.0499 16.8388-24.47L26.9197-14.389Q28.2747-12.9239 28.2747-11.0059L28.2747 3.21165Q28.2747 11.1481 31.9631 14.8514Q35.6516 18.5547 43.5373 18.5547ZM75.0904-4.72437Q73.6868-4.72437 72.5499-5.34574Q71.4129-5.96711 70.3519-7.31121L53.7285-27.417Q52.4263-29.1126 52.4263-30.9513Q52.4263-32.7691 53.6734-34.0774Q54.9205-35.3857 56.7593-35.3857Q57.9304-35.3857 58.8751-34.9059Q59.8199-34.4261 60.7795-33.1327L74.858-15.53L103.069-60.4378Q104.634-62.9023 106.967-62.9023Q108.675-62.9023 110.089-61.7819Q111.503-60.6615 111.503-58.772Q111.503-57.9226 111.063-57.0032Q110.624-56.0838 110.159-55.2553L79.5458-7.31121Q77.88-4.72437 75.0904-4.72437Z"/>
  </g>
  <g id="Light-L" transform="matrix(1 0 0 1 1072.08 1556)">
   <path d="M42.0598 17.4055L57.1284 17.4055Q59.2494 17.4055 60.707 18.8631L71.443 29.4684Q76.4392 34.565 81.0433 34.55Q85.6474 34.5349 90.6938 29.4684L101.4 18.8631Q102.807 17.4055 104.958 17.4055L119.997 17.4055Q127.164 17.4055 130.441 14.1434Q133.718 10.8813 133.718 3.68365L133.718-11.3548Q133.718-13.3753 135.176-14.9636L145.751-25.6192Q150.878-30.6656 150.863-35.2697Q150.848-39.8738 145.751-44.9202L135.176-55.5758Q133.718-57.1641 133.718-59.1846L133.718-74.2231Q133.718-81.4207 130.456-84.6828Q127.194-87.9449 119.997-87.9449L104.958-87.9449Q102.807-87.9449 101.4-89.4025L90.6938-100.008Q85.5971-105.155 81.0181-105.14Q76.4392-105.125 71.3928-100.008L60.707-89.4025Q59.2494-87.9449 57.1284-87.9449L42.0598-87.9449Q34.8923-87.9449 31.6553-84.6979Q28.4184-81.4509 28.4184-74.2231L28.4184-59.1846Q28.4184-57.1641 26.9608-55.5758L16.3052-44.9202Q11.2085-39.8738 11.2085-35.2697Q11.2085-30.6656 16.3052-25.6192L26.9608-14.9636Q28.4184-13.3753 28.4184-11.3548L28.4184 3.68365Q28.4184 10.8813 31.6553 14.1434Q34.8923 17.4055 42.0598 17.4055ZM74.1875-5.01168Q73.0917-5.01168 72.2523-5.47914Q71.4129-5.94659 70.6187-6.94182L52.846-27.9916Q51.8106-29.3588 51.8106-30.7461Q51.8106-32.1535 52.7807-33.1437Q53.7508-34.1339 55.1381-34.1339Q56.0629-34.1339 56.7716-33.767Q57.4804-33.4 58.2142-32.435L74.0166-13.3957L103.993-60.602Q105.25-62.4919 107.029-62.4919Q108.306-62.4919 109.391-61.5972Q110.477-60.7025 110.477-59.2851Q110.477-58.6819 110.15-57.9882Q109.824-57.2946 109.482-56.6713L77.5551-6.94182Q76.2382-5.01168 74.1875-5.01168Z"/>
  </g>
  <g id="Thin-L" transform="matrix(1 0 0 1 776.717 1556)">
   <path d="M40.1055 15.8855L56.2327 15.8855Q58.5437 15.8855 60.137 17.4788L71.633 28.817Q75.8963 33.2351 79.6862 33.2336Q83.476 33.2321 87.8167 28.817L99.3097 17.4788Q100.826 15.8855 103.14 15.8855L119.264 15.8855Q125.481 15.8855 128.161 13.207Q130.841 10.5285 130.841 4.30792L130.841-11.8162Q130.841-13.9725 132.435-15.7236L143.77-27.1392Q148.191-31.4799 148.189-35.2697Q148.188-39.0595 143.77-43.4002L132.435-54.8158Q130.841-56.5669 130.841-58.7232L130.841-74.8473Q130.841-81.0679 128.163-83.7464Q125.484-86.4249 119.264-86.4249L103.14-86.4249Q100.826-86.4249 99.3097-88.0182L87.8167-99.3564Q83.3986-103.852 79.6475-103.85Q75.8963-103.849 71.5556-99.3564L60.137-88.0182Q58.5437-86.4249 56.2327-86.4249L40.1055-86.4249Q33.888-86.4249 31.2482-83.7479Q28.6084-81.0709 28.6084-74.8473L28.6084-58.7232Q28.6084-56.5669 27.0151-54.8158L15.5995-43.4002Q11.1814-39.0595 11.1814-35.2697Q11.1814-31.4799 15.5995-27.1392L27.0151-15.7236Q28.6084-13.9725 28.6084-11.8162L28.6084 4.30792Q28.6084 10.5285 31.2482 13.207Q33.888 15.8855 40.1055 15.8855ZM72.9932-5.39167Q72.3046-5.39167 71.8587-5.65556Q71.4129-5.91945 70.9716-6.45326L51.6789-28.7516Q50.9963-29.6845 50.9963-30.4747Q50.9963-31.3392 51.6-31.9087Q52.2037-32.4782 52.9938-32.4782Q53.593-32.4782 53.9896-32.2606Q54.3862-32.0429 54.8215-31.5121L72.9037-10.5729L105.214-60.8191Q106.064-61.949 107.11-61.949Q107.817-61.949 108.468-61.3529Q109.12-60.7568 109.12-59.9636Q109.12-59.6861 108.942-59.2911Q108.765-58.896 108.586-58.5441L74.9224-6.45326Q74.0669-5.39167 72.9932-5.39167Z"/>
  </g>
  <g id="Ultralight-L" transform="matrix(1 0 0 1 480.698 1556)">
   <path d="M39.1046 15.107L55.7739 15.107Q58.1823 15.107 59.8451 16.7698L71.7303 28.4833Q75.6183 32.5539 78.9911 32.5593Q82.3639 32.5648 86.3431 28.4833L98.2392 16.7698Q99.8107 15.107 102.208 15.107L118.888 15.107Q124.619 15.107 126.994 12.7274Q129.368 10.3477 129.368 4.62766L129.368-12.0525Q129.368-14.2783 131.031-16.1128L142.755-27.9177Q146.815-31.8969 146.82-35.2697Q146.826-38.6425 142.755-42.6217L131.031-54.4266Q129.368-56.2611 129.368-58.4869L129.368-75.1671Q129.368-80.8871 126.988-83.2668Q124.609-85.6464 118.888-85.6464L102.208-85.6464Q99.8107-85.6464 98.2392-87.3092L86.3431-99.0227Q82.2725-103.185 78.9454-103.19Q75.6183-103.195 71.639-99.0227L59.8451-87.3092Q58.1823-85.6464 55.7739-85.6464L39.1046-85.6464Q33.3736-85.6464 31.0397-83.2613Q28.7057-80.8763 28.7057-75.1671L28.7057-58.4869Q28.7057-56.2611 27.0429-54.4266L15.238-42.6217Q11.1675-38.6425 11.1675-35.2697Q11.1675-31.8969 15.238-27.9177L27.0429-16.1128Q28.7057-14.2783 28.7057-12.0525L28.7057 4.62766Q28.7057 10.3477 31.0397 12.7274Q33.3736 15.107 39.1046 15.107ZM72.3815-5.5863Q71.9014-5.5863 71.6572-5.74592Q71.4129-5.90555 71.1523-6.20303L51.0811-29.1409Q50.5793-29.8513 50.5793-30.3357Q50.5793-30.9222 50.9953-31.2762Q51.4113-31.6302 51.8956-31.6302Q52.3279-31.6302 52.5646-31.489Q52.8013-31.3478 53.0837-31.0395L72.3338-9.12711L105.84-60.9303Q106.481-61.671 107.152-61.671Q107.567-61.671 107.996-61.2278Q108.425-60.7846 108.425-60.3112Q108.425-60.2005 108.324-59.9583Q108.223-59.7162 108.127-59.5034L73.5739-6.20303Q72.9547-5.5863 72.3815-5.5863Z"/>
  </g>
  <g id="Black-M" transform="matrix(1 0 0 1 2867.22 1126)">
   <path d="M36.9526 9.17404L46.868 9.17404Q47.7798 9.17404 48.4274 9.82161L55.4178 16.8071Q60.8049 22.1936 66.1772 22.1908Q71.5495 22.1881 76.9363 16.8071L83.9212 9.82161Q84.5691 9.17404 85.4864 9.17404L95.3963 9.17404Q103.008 9.17404 106.81 5.34628Q110.612 1.51851 110.612-6.04154L110.612-15.9514Q110.612-16.8638 111.259-17.5163L118.239-24.5015Q123.631-29.8883 123.629-35.2606Q123.626-40.633 118.239-46.0197L111.259-53.005Q110.612-53.6574 110.612-54.5699L110.612-64.4798Q110.612-72.0969 106.784-75.8961Q102.956-79.6953 95.3963-79.6953L85.4864-79.6953Q84.5691-79.6953 83.9212-80.3429L76.9363-87.3284Q71.4928-92.7717 66.1488-92.7689Q60.8049-92.7662 55.4181-87.2713L48.4274-80.3429Q47.7798-79.6953 46.868-79.6953L36.9526-79.6953Q29.3409-79.6953 25.5416-75.9274Q21.7422-72.1595 21.7422-64.4798L21.7422-54.5699Q21.7422-53.6574 21.0946-53.005L14.1094-46.0197Q8.72296-40.633 8.72296-35.2606Q8.72296-29.8883 14.1094-24.5015L21.0946-17.5163Q21.7422-16.8638 21.7422-15.9514L21.7422-6.04154Q21.7422 1.5756 25.5701 5.37482Q29.398 9.17404 36.9526 9.17404ZM60.8586-10.1272Q58.8501-10.1272 57.2311-11.0406Q55.612-11.954 54.2582-13.5064L43.6001-25.8397Q41.6026-28.1548 41.6026-30.721Q41.6026-33.5669 43.6833-35.5418Q45.764-37.5168 48.5586-37.5168Q50.1457-37.5168 51.403-36.8739Q52.6603-36.2311 53.7177-35.0268L60.8369-26.9058L78.0024-53.8875Q80.5352-57.8208 84.1152-57.8208Q86.9562-57.8208 89.0818-55.9537Q91.2075-54.0867 91.2075-51.2295Q91.2075-50.2341 90.8813-49.0938Q90.555-47.9534 89.7122-46.7926L67.3176-13.6776Q64.8309-10.1272 60.8586-10.1272Z"/>
  </g>
  <g id="Heavy-M" transform="matrix(1 0 0 1 2570.99 1126)">
   <path d="M36.3908 8.68321L46.4673 8.68321Q47.5062 8.68321 48.2349 9.4119L55.3562 16.5121Q60.5612 21.722 65.7029 21.7139Q70.8445 21.7058 76.052 16.5121L83.1571 9.4119Q83.8833 8.68321 84.9384 8.68321L94.9987 8.68321Q102.352 8.68321 106 5.02235Q109.647 1.36149 109.647-5.96483L109.647-16.0251Q109.647-17.0591 110.375-17.8089L117.459-24.9115Q122.686-30.119 122.677-35.2606Q122.669-40.4023 117.459-45.6098L110.375-52.7124Q109.647-53.4622 109.647-54.4962L109.647-64.5565Q109.647-71.9264 105.986-75.5655Q102.325-79.2045 94.9987-79.2045L84.9384-79.2045Q83.8833-79.2045 83.1571-79.9332L76.052-87.0334Q70.7984-92.2894 65.6798-92.2812Q60.5612-92.2731 55.3537-86.9898L48.2349-79.9332Q47.5062-79.2045 46.4673-79.2045L36.3908-79.2045Q29.0371-79.2045 25.3993-75.5954Q21.7615-71.9863 21.7615-64.5565L21.7615-54.4962Q21.7615-53.4622 21.0328-52.7124L13.9301-45.6098Q8.72021-40.4023 8.72021-35.2606Q8.72021-30.119 13.9301-24.9115L21.0328-17.8089Q21.7615-17.0591 21.7615-16.0251L21.7615-5.96483Q21.7615 1.40512 25.4211 5.04416Q29.0807 8.68321 36.3908 8.68321ZM60.3469-10.4351Q58.5144-10.4351 57.0295-11.2673Q55.5447-12.0995 54.2805-13.5781L43.2528-26.55Q41.4528-28.6729 41.4528-31.0304Q41.4528-33.5922 43.3077-35.3831Q45.1627-37.1739 47.6946-37.1739Q49.1544-37.1739 50.3195-36.5799Q51.4845-35.9858 52.4981-34.7851L60.2795-25.5554L78.3147-54.0712Q80.5773-57.6042 83.8136-57.6042Q86.3542-57.6042 88.2809-55.9425Q90.2076-54.2808 90.2076-51.689Q90.2076-50.7401 89.8628-49.6704Q89.5181-48.6007 88.7726-47.5348L66.2424-13.709Q63.9911-10.4351 60.3469-10.4351Z"/>
  </g>
  <g id="Bold-M" transform="matrix(1 0 0 1 2274.8 1126)">
   <path d="M35.7624 8.13415L46.0192 8.13415Q47.2001 8.13415 48.0196 8.95358L55.2873 16.182Q60.2887 21.1945 65.1723 21.1804Q70.0558 21.1662 75.0627 16.182L82.3022 8.95358Q83.1161 8.13415 84.3253 8.13415L94.5539 8.13415Q101.619 8.13415 105.093 4.66Q108.567 1.18585 108.567-5.87902L108.567-16.1076Q108.567-17.2775 109.386-18.1362L116.587-25.3701Q121.627-30.3771 121.613-35.2606Q121.599-40.1442 116.587-45.1511L109.386-52.3851Q108.567-53.2438 108.567-54.4137L108.567-64.6423Q108.567-71.7357 105.093-75.1956Q101.619-78.6554 94.5539-78.6554L84.3253-78.6554Q83.1161-78.6554 82.3022-79.4749L75.0627-86.7033Q70.0218-91.7498 65.1552-91.7357Q60.2887-91.7216 55.2818-86.6748L48.0196-79.4749Q47.2001-78.6554 46.0192-78.6554L35.7624-78.6554Q28.6972-78.6554 25.2401-75.224Q21.783-71.7925 21.783-64.6423L21.783-54.4137Q21.783-53.2438 20.9635-52.3851L13.7296-45.1511Q8.71714-40.1442 8.71714-35.2606Q8.71714-30.3771 13.7296-25.3701L20.9635-18.1362Q21.783-17.2775 21.783-16.1076L21.783-5.87902Q21.783 1.2144 25.2544 4.67427Q28.7258 8.13415 35.7624 8.13415ZM59.7744-10.7797Q58.1388-10.7797 56.804-11.5209Q55.4693-12.2622 54.3054-13.6584L42.8643-27.3445Q41.2851-29.2525 41.2851-31.3765Q41.2851-33.6206 42.8875-35.2054Q44.4899-36.7903 46.7281-36.7903Q48.0455-36.7903 49.1074-36.2509Q50.1692-35.7114 51.1339-34.5147L59.656-24.0448L78.6642-54.2767Q80.6243-57.3618 83.4761-57.3618Q85.6809-57.3618 87.385-55.9299Q89.0891-54.498 89.0891-52.203Q89.0891-51.3061 88.7236-50.3155Q88.358-49.3248 87.7214-48.365L65.0397-13.7441Q63.0517-10.7797 59.7744-10.7797Z"/>
  </g>
  <g id="Semibold-M" transform="matrix(1 0 0 1 1978.46 1126)">
   <path d="M35.3292 7.75563L45.7102 7.75563Q46.9891 7.75563 47.8711 8.63762L55.2398 15.9545Q60.1008 20.8308 64.8065 20.8125Q69.5121 20.7943 74.3808 15.9545L81.7129 8.63762Q82.5873 7.75563 83.9027 7.75563L94.2472 7.75563Q101.114 7.75563 104.468 4.4102Q107.823 1.06476 107.823-5.81986L107.823-16.1644Q107.823-17.428 108.705-18.3618L115.985-25.6863Q120.898-30.555 120.88-35.2606Q120.861-39.9663 115.985-44.835L108.705-52.1595Q107.823-53.0933 107.823-54.3569L107.823-64.7014Q107.823-71.6042 104.477-74.9406Q101.132-78.2769 94.2472-78.2769L83.9027-78.2769Q82.5873-78.2769 81.7129-79.1589L74.3808-86.4758Q69.4863-91.3779 64.7936-91.3596Q60.1008-91.3414 55.2321-86.4576L47.8711-79.1589Q46.9891-78.2769 45.7102-78.2769L35.3292-78.2769Q28.4629-78.2769 25.1304-74.9679Q21.7978-71.6589 21.7978-64.7014L21.7978-54.3569Q21.7978-53.0933 20.9158-52.1595L13.5913-44.835Q8.71502-39.9663 8.71502-35.2606Q8.71502-30.555 13.5913-25.6863L20.9158-18.3618Q21.7978-17.428 21.7978-16.1644L21.7978-5.81986Q21.7978 1.08292 25.1394 4.41927Q28.481 7.75563 35.3292 7.75563ZM59.3798-11.0172Q57.8798-11.0172 56.6486-11.6958Q55.4173-12.3744 54.3226-13.7138L42.5965-27.8923Q41.1696-29.652 41.1696-31.6151Q41.1696-33.6401 42.5979-35.083Q44.0261-36.5259 46.0618-36.5259Q47.281-36.5259 48.2718-36.0241Q49.2625-35.5223 50.1935-34.3283L59.2261-23.0033L78.9051-54.4183Q80.6567-57.1947 83.2435-57.1947Q85.2167-57.1947 86.7674-55.9212Q88.3181-54.6477 88.3181-52.5573Q88.3181-51.6963 87.9382-50.7602Q87.5583-49.824 86.9968-48.9374L64.2106-13.7683Q62.404-11.0172 59.3798-11.0172Z"/>
  </g>
  <g id="Medium-M" transform="matrix(1 0 0 1 1682.02 1126)">
   <path d="M35.0007 7.46862L45.4759 7.46862Q46.8291 7.46862 47.7586 8.39804L55.2037 15.782Q59.9583 20.555 64.5291 20.5336Q69.0998 20.5123 73.8637 15.782L81.2661 8.39804Q82.1863 7.46862 83.5823 7.46862L94.0147 7.46862Q100.73 7.46862 103.994 4.22078Q107.258 0.972951 107.258-5.77501L107.258-16.2075Q107.258-17.5422 108.188-18.5329L115.529-25.9261Q120.345-30.6899 120.323-35.2606Q120.302-39.8314 115.529-44.5952L108.188-51.9884Q107.258-52.9791 107.258-54.3138L107.258-64.7463Q107.258-71.5045 104.011-74.7472Q100.763-77.9899 94.0147-77.9899L83.5823-77.9899Q82.1863-77.9899 81.2661-78.9193L73.8637-86.3032Q69.0803-91.0958 64.5193-91.0745Q59.9583-91.0531 55.1945-86.293L47.7586-78.9193Q46.8291-77.9899 45.4759-77.9899L35.0007-77.9899Q28.2852-77.9899 25.0471-74.7737Q21.8091-71.5576 21.8091-64.7463L21.8091-54.3138Q21.8091-52.9791 20.8796-51.9884L13.4865-44.5952Q8.71341-39.8314 8.71341-35.2606Q8.71341-30.6899 13.4865-25.9261L20.8796-18.5329Q21.8091-17.5422 21.8091-16.2075L21.8091-5.77501Q21.8091 0.983228 25.0523 4.22592Q28.2955 7.46862 35.0007 7.46862ZM59.0806-11.1973Q57.6835-11.1973 56.5307-11.8284Q55.3779-12.4594 54.3356-13.7558L42.3934-28.3077Q41.0819-29.955 41.0819-31.796Q41.0819-33.6549 42.3782-34.9901Q43.6745-36.3254 45.5566-36.3254Q46.7014-36.3254 47.6382-35.8521Q48.5749-35.3789 49.4803-34.187L58.9002-22.2137L79.0877-54.5258Q80.6813-57.068 83.0671-57.068Q84.8647-57.068 86.299-55.9146Q87.7334-54.7612 87.7334-52.826Q87.7334-51.9922 87.3427-51.0973Q86.952-50.2025 86.4474-49.3714L63.5819-13.7866Q61.913-11.1973 59.0806-11.1973Z"/>
  </g>
  <g id="Regular-M" transform="matrix(1 0 0 1 1385.67 1126)">
   <path d="M34.5722 7.09425L45.1703 7.09425Q46.6205 7.09425 47.6117 8.08555L55.1568 15.5569Q59.7725 20.1954 64.1673 20.1699Q68.5621 20.1444 73.1892 15.5569L80.6832 8.08555Q81.6632 7.09425 83.1643 7.09425L93.7115 7.09425Q100.23 7.09425 103.376 3.97372Q106.522 0.853195 106.522-5.7165L106.522-16.2637Q106.522-17.6911 107.514-18.756L114.934-26.2388Q119.623-30.8658 119.598-35.2606Q119.572-39.6554 114.934-44.2825L107.514-51.7652Q106.522-52.8302 106.522-54.2576L106.522-64.8048Q106.522-71.3745 103.402-74.495Q100.281-77.6155 93.7115-77.6155L83.1643-77.6155Q81.6632-77.6155 80.6832-78.6068L73.1892-86.0782Q68.5508-90.728 64.1616-90.7025Q59.7725-90.677 55.1454-86.0782L47.6117-78.6068Q46.6205-77.6155 45.1703-77.6155L34.5722-77.6155Q28.0535-77.6155 24.9386-74.5205Q21.8238-71.4254 21.8238-64.8048L21.8238-54.2576Q21.8238-52.8302 20.8325-51.7652L13.3497-44.2825Q8.71131-39.6554 8.71131-35.2606Q8.71131-30.8658 13.3497-26.2388L20.8325-18.756Q21.8238-17.6911 21.8238-16.2637L21.8238-5.7165Q21.8238 0.853195 24.9386 3.97372Q28.0535 7.09425 34.5722 7.09425ZM58.6903-11.4322Q57.4274-11.4322 56.377-12.0013Q55.3266-12.5704 54.3526-13.8105L42.1286-28.8494Q40.9676-30.3501 40.9676-32.032Q40.9676-33.6742 42.0917-34.869Q43.2158-36.0639 44.8977-36.0639Q45.9453-36.0639 46.8117-35.6279Q47.6781-35.1918 48.5502-34.0026L58.4751-21.1837L79.326-54.6659Q80.7134-56.9027 82.837-56.9027Q84.4056-56.9027 85.6882-55.906Q86.9708-54.9093 86.9708-53.1765Q86.9708-52.3781 86.5659-51.5372Q86.161-50.6962 85.7307-49.9374L62.7618-13.8105Q61.2725-11.4322 58.6903-11.4322Z"/>
  </g>
  <g id="Light-M" transform="matrix(1 0 0 1 1089.88 1126)">
   <path d="M33.2475 6.06391L44.5632 6.06391Q46.1421 6.06391 47.2254 7.1472L55.2856 15.1153Q59.4045 19.2938 63.2474 19.2775Q67.0902 19.2612 71.2389 15.1153L79.2665 7.1472Q80.3201 6.06391 81.9315 6.06391L93.2147 6.06391Q99.0894 6.06391 101.831 3.33896Q104.572 0.614008 104.572-5.29332L104.572-16.5765Q104.572-18.0959 105.655-19.2712L113.591-27.2691Q117.802-31.4178 117.786-35.2606Q117.769-39.1035 113.591-43.2522L105.655-51.2501Q104.572-52.4254 104.572-53.9448L104.572-65.228Q104.572-71.1353 101.847-73.8602Q99.122-76.5852 93.2147-76.5852L81.9315-76.5852Q80.3201-76.5852 79.2665-77.6685L71.2389-85.6366Q67.0604-89.8448 63.2325-89.8286Q59.4045-89.8123 55.2558-85.6366L47.2254-77.6685Q46.1421-76.5852 44.5632-76.5852L33.2475-76.5852Q27.3727-76.5852 24.6626-73.8765Q21.9525-71.1679 21.9525-65.228L21.9525-53.9448Q21.9525-52.4254 20.8693-51.2501L12.8714-43.2522Q8.69291-39.1035 8.69291-35.2606Q8.69291-31.4178 12.8714-27.2691L20.8693-19.2712Q21.9525-18.0959 21.9525-16.5765L21.9525-5.29332Q21.9525 0.614008 24.6626 3.33896Q27.3727 6.06391 33.2475 6.06391ZM57.8807-11.6898Q56.8939-11.6898 56.1102-12.1209Q55.3266-12.552 54.5918-13.4793L41.3374-29.3646Q40.4157-30.5709 40.4157-31.848Q40.4157-33.1222 41.2914-34.0319Q42.1671-34.9416 43.4441-34.9416Q44.271-34.9416 44.9258-34.6067Q45.5806-34.2719 46.2503-33.3771L57.7207-19.2702L80.1539-54.8131Q81.2654-56.5347 82.8922-56.5347Q84.0744-56.5347 85.0626-55.7404Q86.0509-54.9461 86.0509-53.6365Q86.0509-53.0588 85.7472-52.4203Q85.4435-51.7818 85.1235-51.2069L60.9771-13.4793Q59.8005-11.6898 57.8807-11.6898Z"/>
  </g>
  <g id="Thin-M" transform="matrix(1 0 0 1 794.378 1126)">
   <path d="M31.4954 4.7012L43.7601 4.7012Q45.5094 4.7012 46.7144 5.90616L55.4559 14.5313Q58.9178 18.1014 62.0306 18.0973Q65.1434 18.0932 68.6595 14.5313L77.3928 5.90616Q78.5437 4.7012 80.3012 4.7012L92.5577 4.7012Q97.5807 4.7012 99.7866 2.49943Q101.992 0.297664 101.992-4.73364L101.992-16.9901Q101.992-18.6312 103.197-19.9526L111.814-28.6318Q115.393-32.1478 115.389-35.2606Q115.384-38.3734 111.814-41.8895L103.197-50.5687Q101.992-51.8901 101.992-53.5312L101.992-65.7877Q101.992-70.819 99.7907-73.0207Q97.589-75.2225 92.5577-75.2225L80.3012-75.2225Q78.5437-75.2225 77.3928-76.4274L68.6595-85.0526Q65.0894-88.6768 62.0036-88.6727Q58.9178-88.6686 55.4018-85.0526L46.7144-76.4274Q45.5094-75.2225 43.7601-75.2225L31.4954-75.2225Q26.4723-75.2225 24.2976-73.0248Q22.1229-70.8272 22.1229-65.7877L22.1229-53.5312Q22.1229-51.8901 20.9179-50.5687L12.2387-41.8895Q8.66858-38.3734 8.66858-35.2606Q8.66858-32.1478 12.2387-28.6318L20.9179-19.9526Q22.1229-18.6312 22.1229-16.9901L22.1229-4.73364Q22.1229 0.297664 24.2976 2.49943Q26.4723 4.7012 31.4954 4.7012ZM56.81-12.0304Q56.1882-12.0304 55.7574-12.279Q55.3266-12.5277 54.9081-13.0413L40.291-30.0459Q39.6857-30.8629 39.6857-31.6046Q39.6857-32.3922 40.2328-32.9247Q40.78-33.4572 41.5217-33.4572Q42.0566-33.4572 42.4316-33.2562Q42.8065-33.0552 43.2086-32.5497L56.723-16.7394L81.249-55.0077Q81.9954-56.048 82.9652-56.048Q83.6364-56.048 84.2353-55.5214Q84.8342-54.9948 84.8342-54.2448Q84.8342-53.9592 84.6643-53.5883Q84.4945-53.2175 84.3205-52.886L58.6167-13.0413Q57.8538-12.0304 56.81-12.0304Z"/>
  </g>
  <g id="Ultralight-M" transform="matrix(1 0 0 1 498.287 1126)">
   <path d="M30.598 4.00322L43.3488 4.00322Q45.1853 4.00322 46.4526 5.2705L55.5431 14.2322Q58.6686 17.4907 61.4075 17.4928Q64.1463 17.4949 67.3383 14.2322L76.4331 5.2705Q77.6338 4.00322 79.4661 4.00322L92.2211 4.00322Q96.808 4.00322 98.7396 2.06943Q100.671 0.135634 100.671-4.44697L100.671-17.202Q100.671-18.9054 101.939-20.3016L110.905-29.3298Q114.159-32.5218 114.161-35.2606Q114.163-37.9995 110.905-41.1915L101.939-50.2197Q100.671-51.6159 100.671-53.3193L100.671-66.0743Q100.671-70.6569 98.7375-72.5907Q96.8037-74.5245 92.2211-74.5245L79.4661-74.5245Q77.6338-74.5245 76.4331-75.7918L67.3383-84.7535Q64.0798-88.0785 61.3742-88.0806Q58.6686-88.0828 55.4766-84.7535L46.4526-75.7918Q45.1853-74.5245 43.3488-74.5245L30.598-74.5245Q26.0112-74.5245 24.1107-72.5886Q22.2101-70.6527 22.2101-66.0743L22.2101-53.3193Q22.2101-51.6159 20.9429-50.2197L11.9146-41.1915Q8.65611-37.9995 8.65611-35.2606Q8.65611-32.5218 11.9146-29.3298L20.9429-20.3016Q22.2101-18.9054 22.2101-17.202L22.2101-4.44697Q22.2101 0.135634 24.1107 2.06943Q26.0112 4.00322 30.598 4.00322ZM56.2616-12.2049Q55.8267-12.2049 55.5766-12.3601Q55.3266-12.5152 55.0701-12.817L39.7551-30.3949Q39.3117-31.0125 39.3117-31.48Q39.3117-32.0183 39.6907-32.3576Q40.0696-32.6969 40.5371-32.6969Q40.9224-32.6969 41.154-32.5644Q41.3857-32.432 41.6506-32.1259L56.212-15.4432L81.8098-55.1074Q82.3693-55.7987 83.0026-55.7987Q83.412-55.7987 83.8115-55.4092Q84.211-55.0197 84.211-54.5564Q84.211-54.4204 84.1097-54.1866Q84.0084-53.9529 83.9092-53.746L57.4077-12.817Q56.8567-12.2049 56.2616-12.2049Z"/>
  </g>
  <g id="Black-S" transform="matrix(1 0 0 1 2881.45 696)">
   <path d="M29.0527-0.341797L36.8164-0.341797Q37.5-0.341797 37.9883 0.146484L43.457 5.61523Q47.7051 9.86328 51.9531 9.86328Q56.2012 9.86328 60.4492 5.61523L65.918 0.146484Q66.4062-0.341797 67.0898-0.341797L74.8535-0.341797Q80.8594-0.341797 83.8623-3.36914Q86.8652-6.39648 86.8652-12.3535L86.8652-20.1172Q86.8652-20.8008 87.3535-21.2891L92.8223-26.7578Q97.0703-31.0059 97.0703-35.2539Q97.0703-39.502 92.8223-43.75L87.3535-49.2188Q86.8652-49.707 86.8652-50.3906L86.8652-58.1543Q86.8652-64.1602 83.8379-67.1631Q80.8105-70.166 74.8535-70.166L67.0898-70.166Q66.4062-70.166 65.918-70.6543L60.4492-76.123Q56.1523-80.4199 51.9287-80.4199Q47.7051-80.4199 43.457-76.0742L37.9883-70.6543Q37.5-70.166 36.8164-70.166L29.0527-70.166Q23.0469-70.166 20.0439-67.1875Q17.041-64.209 17.041-58.1543L17.041-50.3906Q17.041-49.707 16.5527-49.2188L11.084-43.75Q6.83594-39.502 6.83594-35.2539Q6.83594-31.0059 11.084-26.7578L16.5527-21.2891Q17.041-20.8008 17.041-20.1172L17.041-12.3535Q17.041-6.34766 20.0684-3.34473Q23.0957-0.341797 29.0527-0.341797ZM47.8027-15.4785Q46.1914-15.4785 44.8975-16.2109Q43.6035-16.9434 42.5293-18.1641L34.2285-27.6855Q32.6172-29.541 32.6172-31.5918Q32.6172-33.8867 34.3018-35.4736Q35.9863-37.0605 38.2324-37.0605Q39.502-37.0605 40.5029-36.5479Q41.5039-36.0352 42.334-35.1074L47.8027-29.0039L61.084-49.8047Q63.1348-52.9785 66.0156-52.9785Q68.3105-52.9785 70.0195-51.4648Q71.7285-49.9512 71.7285-47.6562Q71.7285-46.875 71.4844-45.9717Q71.2402-45.0684 70.5566-44.1406L52.9785-18.3105Q50.9766-15.4785 47.8027-15.4785Z"/>
  </g>
  <g id="Heavy-S" transform="matrix(1 0 0 1 2585.02 696)">
   <path d="M28.7416-0.629909L36.5513-0.629909Q37.3271-0.629909 37.873-0.0840049L43.3879 5.41932Q47.5437 9.57517 51.665 9.56941Q55.7863 9.56365 59.9421 5.41932L65.4455-0.0840049Q65.9914-0.629909 66.7787-0.629909L74.5769-0.629909Q80.4445-0.629909 83.3668-3.56506Q86.289-6.5002 86.289-12.342L86.289-20.1402Q86.289-20.916 86.8349-21.4735L92.3267-26.9768Q96.4941-31.1326 96.4883-35.2539Q96.4826-39.3752 92.3267-43.531L86.8349-49.0344Q86.289-49.5918 86.289-50.3676L86.289-58.1658Q86.289-64.0449 83.3539-66.9614Q80.4187-69.8779 74.5769-69.8779L66.7787-69.8779Q65.9914-69.8779 65.4455-70.4238L59.9421-75.9271Q55.749-80.1203 51.6464-80.1145Q47.5437-80.1088 43.3879-75.8898L37.873-70.4238Q37.3271-69.8779 36.5513-69.8779L28.7416-69.8779Q22.874-69.8779 19.9575-66.9858Q17.041-64.0937 17.041-58.1658L17.041-50.3676Q17.041-49.5918 16.4951-49.0344L10.9918-43.531Q6.83594-39.3752 6.83594-35.2539Q6.83594-31.1326 10.9918-26.9768L16.4951-21.4735Q17.041-20.916 17.041-20.1402L17.041-12.342Q17.041-6.4629 19.9762-3.5464Q22.9113-0.629909 28.7416-0.629909ZM47.4685-15.709Q45.9724-15.709 44.7592-16.3896Q43.5459-17.0701 42.5178-18.2678L34.0326-28.2272Q32.5596-29.9559 32.5596-31.8799Q32.5596-33.9789 34.0828-35.4448Q35.606-36.9107 37.6792-36.9107Q38.8681-36.9107 39.8172-36.4268Q40.7663-35.943 41.5849-34.9807L47.4224-28.0935L61.2453-49.943Q63.1002-52.8402 65.7506-52.8402Q67.838-52.8402 69.4145-51.4764Q70.9909-50.1125 70.9909-47.9905Q70.9909-47.2207 70.718-46.352Q70.445-45.4832 69.8306-44.6131L52.287-18.3797Q50.4464-15.709 47.4685-15.709Z"/>
  </g>
  <g id="Bold-S" transform="matrix(1 0 0 1 2288.64 696)">
   <path d="M28.3936-0.952148L36.2549-0.952148Q37.1338-0.952148 37.7441-0.341797L43.3105 5.2002Q47.3633 9.25293 51.3428 9.24072Q55.3223 9.22852 59.375 5.2002L64.917-0.341797Q65.5273-0.952148 66.4307-0.952148L74.2676-0.952148Q79.9805-0.952148 82.8125-3.78418Q85.6445-6.61621 85.6445-12.3291L85.6445-20.166Q85.6445-21.0449 86.2549-21.6797L91.7725-27.2217Q95.8496-31.2744 95.8374-35.2539Q95.8252-39.2334 91.7725-43.2861L86.2549-48.8281Q85.6445-49.4629 85.6445-50.3418L85.6445-58.1787Q85.6445-63.916 82.8125-66.7358Q79.9805-69.5557 74.2676-69.5557L66.4307-69.5557Q65.5273-69.5557 64.917-70.166L59.375-75.708Q55.2979-79.7852 51.3306-79.7729Q47.3633-79.7607 43.3105-75.6836L37.7441-70.166Q37.1338-69.5557 36.2549-69.5557L28.3936-69.5557Q22.6807-69.5557 19.8608-66.7603Q17.041-63.9648 17.041-58.1787L17.041-50.3418Q17.041-49.4629 16.4307-48.8281L10.8887-43.2861Q6.83594-39.2334 6.83594-35.2539Q6.83594-31.2744 10.8887-27.2217L16.4307-21.6797Q17.041-21.0449 17.041-20.166L17.041-12.3291Q17.041-6.5918 19.873-3.77197Q22.7051-0.952148 28.3936-0.952148ZM47.0947-15.9668Q45.7275-15.9668 44.6045-16.5894Q43.4814-17.2119 42.5049-18.3838L33.8135-28.833Q32.4951-30.4199 32.4951-32.2021Q32.4951-34.082 33.8379-35.4126Q35.1807-36.7432 37.0605-36.7432Q38.1592-36.7432 39.0503-36.2915Q39.9414-35.8398 40.7471-34.8389L46.9971-27.0752L61.4258-50.0977Q63.0615-52.6855 65.4541-52.6855Q67.3096-52.6855 68.7378-51.4893Q70.166-50.293 70.166-48.3643Q70.166-47.6074 69.8608-46.7773Q69.5557-45.9473 69.0186-45.1416L51.5137-18.457Q49.8535-15.9668 47.0947-15.9668Z"/>
  </g>
  <g id="Semibold-S" transform="matrix(1 0 0 1 1992.15 696)">
   <path d="M28.1536-1.17432L36.0505-1.17432Q37.0005-1.17432 37.6553-0.519531L43.2572 5.04912Q47.2389 9.03076 51.1206 9.01411Q55.0023 8.99746 58.984 5.04912L64.5526-0.519531Q65.2074-1.17432 66.1907-1.17432L74.0543-1.17432Q79.6605-1.17432 82.4304-3.93525Q85.2002-6.69619 85.2002-12.3202L85.2002-20.1838Q85.2002-21.1338 85.855-21.8219L91.3903-27.3905Q95.4053-31.3722 95.3886-35.2539Q95.372-39.1356 91.3903-43.1173L85.855-48.6859Q85.2002-49.374 85.2002-50.324L85.2002-58.1876Q85.2002-63.8271 82.4393-66.5803Q79.6783-69.3335 74.0543-69.3335L66.1907-69.3335Q65.2074-69.3335 64.5526-69.9883L58.984-75.5569Q54.9868-79.5541 51.1128-79.5375Q47.2389-79.5208 43.2572-75.5414L37.6553-69.9883Q37.0005-69.3335 36.0505-69.3335L28.1536-69.3335Q22.5474-69.3335 19.7942-66.6047Q17.041-63.876 17.041-58.1876L17.041-50.324Q17.041-49.374 16.3862-48.6859L10.8176-43.1173Q6.83594-39.1356 6.83594-35.2539Q6.83594-31.3722 10.8176-27.3905L16.3862-21.8219Q17.041-21.1338 17.041-20.1838L17.041-12.3202Q17.041-6.68066 19.802-3.92749Q22.5629-1.17432 28.1536-1.17432ZM46.837-16.1445Q45.5587-16.1445 44.4979-16.7271Q43.437-17.3097 42.496-18.4638L33.6624-29.2507Q32.4507-30.7398 32.4507-32.4243Q32.4507-34.1531 33.669-35.3904Q34.8874-36.6276 36.634-36.6276Q37.6704-36.6276 38.5215-36.1982Q39.3727-35.7687 40.1694-34.7411L46.7038-26.3731L61.5502-50.2043Q63.0349-52.5789 65.2497-52.5789Q66.9452-52.5789 68.2712-51.4981Q69.5973-50.4174 69.5973-48.622Q69.5973-47.874 69.2699-47.0706Q68.9425-46.2672 68.4587-45.506L50.9805-18.5104Q49.4447-16.1445 46.837-16.1445Z"/>
  </g>
  <g id="Medium-S" transform="matrix(1 0 0 1 1695.6 696)">
   <path d="M27.9717-1.34277L35.8955-1.34277Q36.8994-1.34277 37.5879-0.654297L43.2168 4.93457Q47.1445 8.8623 50.9521 8.84229Q54.7598 8.82227 58.6875 4.93457L64.2764-0.654297Q64.9648-1.34277 66.0088-1.34277L73.8926-1.34277Q79.418-1.34277 82.1406-4.0498Q84.8633-6.75684 84.8633-12.3135L84.8633-20.1973Q84.8633-21.2012 85.5518-21.9297L91.1006-27.5186Q95.0684-31.4463 95.0483-35.2539Q95.0283-39.0615 91.1006-42.9893L85.5518-48.5781Q84.8633-49.3066 84.8633-50.3105L84.8633-58.1943Q84.8633-63.7598 82.1562-66.4624Q79.4492-69.165 73.8926-69.165L66.0088-69.165Q64.9648-69.165 64.2764-69.8535L58.6875-75.4424Q54.751-79.3789 50.9478-79.3589Q47.1445-79.3389 43.2168-75.4336L37.5879-69.8535Q36.8994-69.165 35.8955-69.165L27.9717-69.165Q22.4463-69.165 19.7437-66.4868Q17.041-63.8086 17.041-58.1943L17.041-50.3105Q17.041-49.3066 16.3525-48.5781L10.7637-42.9893Q6.83594-39.0615 6.83594-35.2539Q6.83594-31.4463 10.7637-27.5186L16.3525-21.9297Q17.041-21.2012 17.041-20.1973L17.041-12.3135Q17.041-6.74805 19.748-4.04541Q22.4551-1.34277 27.9717-1.34277ZM46.6416-16.2793Q45.4307-16.2793 44.417-16.8315Q43.4033-17.3838 42.4893-18.5244L33.5479-29.5674Q32.417-30.9824 32.417-32.5928Q32.417-34.207 33.541-35.3735Q34.665-36.54 36.3105-36.54Q37.2998-36.54 38.1206-36.1274Q38.9414-35.7148 39.7314-34.667L46.4814-25.8408L61.6445-50.2852Q63.0146-52.498 65.0947-52.498Q66.6689-52.498 67.9175-51.5049Q69.166-50.5117 69.166-48.8174Q69.166-48.0762 68.8218-47.293Q68.4775-46.5098 68.0342-45.7822L50.5762-18.5508Q49.1348-16.2793 46.6416-16.2793Z"/>
  </g>
  <g id="Regular-S" transform="matrix(1 0 0 1 1399.11 696)">
   <path d="M27.7344-1.5625L35.6934-1.5625Q36.7676-1.5625 37.5-0.830078L43.1641 4.78516Q47.0215 8.64258 50.7324 8.61816Q54.4434 8.59375 58.3008 4.78516L63.916-0.830078Q64.6484-1.5625 65.7715-1.5625L73.6816-1.5625Q79.1016-1.5625 81.7627-4.19922Q84.4238-6.83594 84.4238-12.3047L84.4238-20.2148Q84.4238-21.2891 85.1562-22.0703L90.7227-27.6855Q94.6289-31.543 94.6045-35.2539Q94.5801-38.9648 90.7227-42.8223L85.1562-48.4375Q84.4238-49.2188 84.4238-50.293L84.4238-58.2031Q84.4238-63.6719 81.7871-66.3086Q79.1504-68.9453 73.6816-68.9453L65.7715-68.9453Q64.6484-68.9453 63.916-69.6777L58.3008-75.293Q54.4434-79.1504 50.7324-79.126Q47.0215-79.1016 43.1641-75.293L37.5-69.6777Q36.7676-68.9453 35.6934-68.9453L27.7344-68.9453Q22.3145-68.9453 19.6777-66.333Q17.041-63.7207 17.041-58.2031L17.041-50.293Q17.041-49.2188 16.3086-48.4375L10.6934-42.8223Q6.83594-38.9648 6.83594-35.2539Q6.83594-31.543 10.6934-27.6855L16.3086-22.0703Q17.041-21.2891 17.041-20.2148L17.041-12.3047Q17.041-6.83594 19.6777-4.19922Q22.3145-1.5625 27.7344-1.5625ZM46.3867-16.4551Q45.2637-16.4551 44.3115-16.9678Q43.3594-17.4805 42.4805-18.6035L33.3984-29.9805Q32.373-31.2988 32.373-32.8125Q32.373-34.2773 33.374-35.3516Q34.375-36.4258 35.8887-36.4258Q36.8164-36.4258 37.5977-36.0352Q38.3789-35.6445 39.1602-34.5703L46.1914-25.1465L61.7676-50.3906Q62.9883-52.3926 64.8926-52.3926Q66.3086-52.3926 67.4561-51.5137Q68.6035-50.6348 68.6035-49.0723Q68.6035-48.3398 68.2373-47.583Q67.8711-46.8262 67.4805-46.1426L50.0488-18.6035Q48.7305-16.4551 46.3867-16.4551Z"/>
  </g>
  <g id="Light-S" transform="matrix(1 0 0 1 1103.21 696)">
   <path d="M26.5625-2.47396L35.1562-2.47396Q36.3444-2.47396 37.1582-1.66016L43.278 4.39453Q46.696 7.84505 49.9186 7.82878Q53.1413 7.8125 56.5755 4.39453L62.6628-1.66016Q63.4603-2.47396 64.681-2.47396L73.2422-2.47396Q78.0924-2.47396 80.3955-4.76074Q82.6986-7.04753 82.6986-11.9303L82.6986-20.4915Q82.6986-21.6471 83.5124-22.526L89.5345-28.597Q93.0176-32.0312 93.0013-35.2539Q92.985-38.4766 89.5345-41.9108L83.5124-47.9818Q82.6986-48.8607 82.6986-50.0163L82.6986-58.5775Q82.6986-63.4603 80.4118-65.7471Q78.125-68.0339 73.2422-68.0339L64.681-68.0339Q63.4603-68.0339 62.6628-68.8477L56.5755-74.9023Q53.125-78.3691 49.9105-78.3529Q46.696-78.3366 43.2617-74.9023L37.1582-68.8477Q36.3444-68.0339 35.1562-68.0339L26.5625-68.0339Q21.7122-68.0339 19.4336-65.7633Q17.1549-63.4928 17.1549-58.5775L17.1549-50.0163Q17.1549-48.8607 16.3411-47.9818L10.2702-41.9108Q6.81966-38.4766 6.81966-35.2539Q6.81966-32.0312 10.2702-28.597L16.3411-22.526Q17.1549-21.6471 17.1549-20.4915L17.1549-11.9303Q17.1549-7.04753 19.4336-4.76074Q21.7122-2.47396 26.5625-2.47396ZM45.6706-16.6829Q44.7917-16.6829 44.0755-17.0736Q43.3594-17.4642 42.6921-18.3105L32.6986-30.4362Q31.8848-31.4941 31.8848-32.6497Q31.8848-33.7891 32.666-34.611Q33.4473-35.4329 34.6029-35.4329Q35.3353-35.4329 35.9294-35.1318Q36.5234-34.8307 37.1257-34.0169L45.5241-23.4538L62.5-50.5208Q63.4766-52.0671 64.9414-52.0671Q66.0156-52.0671 66.9027-51.3672Q67.7897-50.6673 67.7897-49.4792Q67.7897-48.9421 67.513-48.3643Q67.2363-47.7865 66.9434-47.2656L48.4701-18.3105Q47.4284-16.6829 45.6706-16.6829Z"/>
  </g>
  <g id="Thin-S" transform="matrix(1 0 0 1 807.571 696)">
   <path d="M25.0126-3.67944L34.4459-3.67944Q35.7847-3.67944 36.7061-2.758L43.4287 3.8779Q46.2654 6.79026 48.8423 6.78475Q51.4192 6.77923 54.2937 3.8779L61.0052-2.758Q61.8889-3.67944 63.2387-3.67944L72.661-3.67944Q76.7578-3.67944 78.5873-5.5034Q80.4168-7.32737 80.4168-11.4352L80.4168-20.8575Q80.4168-22.1207 81.3382-23.1288L87.9631-29.8025Q90.8865-32.677 90.881-35.2539Q90.8754-37.8308 87.9631-40.7053L81.3382-47.379Q80.4168-48.3871 80.4168-49.6503L80.4168-59.0726Q80.4168-63.1804 78.5928-65.0044Q76.7688-66.8284 72.661-66.8284L63.2387-66.8284Q61.8889-66.8284 61.0052-67.7498L54.2937-74.3857Q51.3814-77.3359 48.8234-77.3304Q46.2654-77.3248 43.3909-74.3857L36.7061-67.7498Q35.7847-66.8284 34.4459-66.8284L25.0126-66.8284Q20.9158-66.8284 19.1107-65.0099Q17.3056-63.1915 17.3056-59.0726L17.3056-49.6503Q17.3056-48.3871 16.3842-47.379L9.7105-40.7053Q6.79814-37.8308 6.79814-35.2539Q6.79814-32.677 9.7105-29.8025L16.3842-23.1288Q17.3056-22.1207 17.3056-20.8575L17.3056-11.4352Q17.3056-7.32737 19.1107-5.5034Q20.9158-3.67944 25.0126-3.67944ZM44.7234-16.9843Q44.1674-16.9843 43.7634-17.2135Q43.3594-17.4427 42.9719-17.9231L31.7729-31.0389Q31.239-31.7525 31.239-32.4345Q31.239-33.1433 31.7296-33.6316Q32.2203-34.1198 32.9023-34.1198Q33.3764-34.1198 33.7229-33.9371Q34.0694-33.7544 34.4349-33.285L44.6415-21.215L63.4687-50.693Q64.1224-51.6365 65.006-51.6365Q65.6282-51.6365 66.1708-51.1735Q66.7134-50.7104 66.7134-50.0173Q66.7134-49.7385 66.5551-49.3975Q66.3968-49.0565 66.233-48.7509L46.382-17.9231Q45.7063-16.9843 44.7234-16.9843Z"/>
  </g>
  <g id="Ultralight-S" transform="matrix(1 0 0 1 511.408 696)">
   <path d="M24.2188-4.29688L34.082-4.29688Q35.498-4.29688 36.4746-3.32031L43.5059 3.61328Q46.0449 6.25 48.291 6.25Q50.5371 6.25 53.125 3.61328L60.1562-3.32031Q61.084-4.29688 62.5-4.29688L72.3633-4.29688Q76.0742-4.29688 77.6611-5.88379Q79.248-7.4707 79.248-11.1816L79.248-21.0449Q79.248-22.3633 80.2246-23.4375L87.1582-30.4199Q89.7949-33.0078 89.7949-35.2539Q89.7949-37.5 87.1582-40.0879L80.2246-47.0703Q79.248-48.1445 79.248-49.4629L79.248-59.3262Q79.248-63.0371 77.6611-64.624Q76.0742-66.2109 72.3633-66.2109L62.5-66.2109Q61.084-66.2109 60.1562-67.1875L53.125-74.1211Q50.4883-76.8066 48.2666-76.8066Q46.0449-76.8066 43.457-74.1211L36.4746-67.1875Q35.498-66.2109 34.082-66.2109L24.2188-66.2109Q20.5078-66.2109 18.9453-64.624Q17.3828-63.0371 17.3828-59.3262L17.3828-49.4629Q17.3828-48.1445 16.4062-47.0703L9.42383-40.0879Q6.78711-37.5 6.78711-35.2539Q6.78711-33.0078 9.42383-30.4199L16.4062-23.4375Q17.3828-22.3633 17.3828-21.0449L17.3828-11.1816Q17.3828-7.4707 18.9453-5.88379Q20.5078-4.29688 24.2188-4.29688ZM44.2383-17.1387Q43.8477-17.1387 43.6035-17.2852Q43.3594-17.4316 43.1152-17.7246L31.2988-31.3477Q30.9082-31.8848 30.9082-32.3242Q30.9082-32.8125 31.25-33.1299Q31.5918-33.4473 32.0312-33.4473Q32.373-33.4473 32.5928-33.3252Q32.8125-33.2031 33.0566-32.9102L44.1895-20.0684L63.9648-50.7812Q64.4531-51.416 65.0391-51.416Q65.4297-51.416 65.7959-51.0742Q66.1621-50.7324 66.1621-50.293Q66.1621-50.1465 66.0645-49.9268Q65.9668-49.707 65.8691-49.5117L45.3125-17.7246Q44.8242-17.1387 44.2383-17.1387Z"/>
  </g>
 </g>
</svg>
