<?xml version="1.0" encoding="UTF-8"?>
<!--Generator: Apple Native CoreSVG 175-->
<!DOCTYPE svg
PUBLIC "-//W3C//DTD SVG 1.1//EN"
       "http://www.w3.org/Graphics/SVG/1.1/DTD/svg11.dtd">
<svg version="1.1" xmlns="http://www.w3.org/2000/svg" xmlns:xlink="http://www.w3.org/1999/xlink" width="3300" height="2200">
 <!--glyph: "uni10079C.medium", point size: 100.0, font version: "17.1d1e1", template writer version: "65.1"-->
 <g id="Notes">
  <rect height="2200" id="artboard" style="fill:white;opacity:1" width="3300" x="0" y="0"/>
  <line style="fill:none;stroke:black;opacity:1;stroke-width:0.5;" x1="263" x2="3036" y1="292" y2="292"/>
  <text style="stroke:none;fill:black;font-family:sans-serif;font-size:13;font-weight:bold;" transform="matrix(1 0 0 1 263 322)">Weight/Scale Variations</text>
  <text style="stroke:none;fill:black;font-family:sans-serif;font-size:13;text-anchor:middle;" transform="matrix(1 0 0 1 559.711 322)">Ultralight</text>
  <text style="stroke:none;fill:black;font-family:sans-serif;font-size:13;text-anchor:middle;" transform="matrix(1 0 0 1 856.422 322)">Thin</text>
  <text style="stroke:none;fill:black;font-family:sans-serif;font-size:13;text-anchor:middle;" transform="matrix(1 0 0 1 1153.13 322)">Light</text>
  <text style="stroke:none;fill:black;font-family:sans-serif;font-size:13;text-anchor:middle;" transform="matrix(1 0 0 1 1449.84 322)">Regular</text>
  <text style="stroke:none;fill:black;font-family:sans-serif;font-size:13;text-anchor:middle;" transform="matrix(1 0 0 1 1746.56 322)">Medium</text>
  <text style="stroke:none;fill:black;font-family:sans-serif;font-size:13;text-anchor:middle;" transform="matrix(1 0 0 1 2043.27 322)">Semibold</text>
  <text style="stroke:none;fill:black;font-family:sans-serif;font-size:13;text-anchor:middle;" transform="matrix(1 0 0 1 2339.98 322)">Bold</text>
  <text style="stroke:none;fill:black;font-family:sans-serif;font-size:13;text-anchor:middle;" transform="matrix(1 0 0 1 2636.69 322)">Heavy</text>
  <text style="stroke:none;fill:black;font-family:sans-serif;font-size:13;text-anchor:middle;" transform="matrix(1 0 0 1 2933.4 322)">Black</text>
  <line style="fill:none;stroke:black;opacity:1;stroke-width:0.5;" x1="263" x2="3036" y1="1903" y2="1903"/>
  <g transform="matrix(1 0 0 1 263 1933)">
   <path d="M9.24805 0.830078Q10.8691 0.830078 12.2949 0.214844Q13.7207-0.400391 14.8096-1.49414Q15.8984-2.58789 16.5186-4.01367Q17.1387-5.43945 17.1387-7.05078Q17.1387-8.66211 16.5186-10.0879Q15.8984-11.5137 14.8047-12.6074Q13.7109-13.7012 12.2852-14.3164Q10.8594-14.9316 9.23828-14.9316Q7.62695-14.9316 6.20117-14.3164Q4.77539-13.7012 3.69141-12.6074Q2.60742-11.5137 1.9873-10.0879Q1.36719-8.66211 1.36719-7.05078Q1.36719-5.43945 1.9873-4.01367Q2.60742-2.58789 3.69629-1.49414Q4.78516-0.400391 6.21094 0.214844Q7.63672 0.830078 9.24805 0.830078ZM9.24805-0.654297Q7.91992-0.654297 6.7627-1.14746Q5.60547-1.64062 4.73145-2.51953Q3.85742-3.39844 3.36426-4.56055Q2.87109-5.72266 2.87109-7.05078Q2.87109-8.37891 3.35938-9.54102Q3.84766-10.7031 4.72168-11.582Q5.5957-12.4609 6.75293-12.9541Q7.91016-13.4473 9.23828-13.4473Q10.5762-13.4473 11.7334-12.9541Q12.8906-12.4609 13.7695-11.582Q14.6484-10.7031 15.1465-9.54102Q15.6445-8.37891 15.6445-7.05078Q15.6445-5.72266 15.1514-4.56055Q14.6582-3.39844 13.7842-2.51953Q12.9102-1.64062 11.748-1.14746Q10.5859-0.654297 9.24805-0.654297ZM5.6543-7.05078Q5.6543-6.72852 5.85938-6.52832Q6.06445-6.32812 6.40625-6.32812L8.51562-6.32812L8.51562-4.20898Q8.51562-3.88672 8.71094-3.67676Q8.90625-3.4668 9.23828-3.4668Q9.56055-3.4668 9.77051-3.67676Q9.98047-3.88672 9.98047-4.20898L9.98047-6.32812L12.0898-6.32812Q12.4219-6.32812 12.627-6.52832Q12.832-6.72852 12.832-7.05078Q12.832-7.38281 12.627-7.58789Q12.4219-7.79297 12.0898-7.79297L9.98047-7.79297L9.98047-9.90234Q9.98047-10.2344 9.77051-10.4443Q9.56055-10.6543 9.23828-10.6543Q8.90625-10.6543 8.71094-10.4443Q8.51562-10.2344 8.51562-9.90234L8.51562-7.79297L6.40625-7.79297Q6.06445-7.79297 5.85938-7.58789Q5.6543-7.38281 5.6543-7.05078Z"/>
  </g>
  <g transform="matrix(1 0 0 1 281.867 1933)">
   <path d="M11.709 2.91016Q13.75 2.91016 15.5518 2.12891Q17.3535 1.34766 18.7305-0.0292969Q20.1074-1.40625 20.8887-3.20801Q21.6699-5.00977 21.6699-7.05078Q21.6699-9.0918 20.8887-10.8936Q20.1074-12.6953 18.7305-14.0723Q17.3535-15.4492 15.5469-16.2305Q13.7402-17.0117 11.6992-17.0117Q9.6582-17.0117 7.85645-16.2305Q6.05469-15.4492 4.68262-14.0723Q3.31055-12.6953 2.5293-10.8936Q1.74805-9.0918 1.74805-7.05078Q1.74805-5.00977 2.5293-3.20801Q3.31055-1.40625 4.6875-0.0292969Q6.06445 1.34766 7.86621 2.12891Q9.66797 2.91016 11.709 2.91016ZM11.709 1.25Q9.98047 1.25 8.47656 0.605469Q6.97266-0.0390625 5.83496-1.17676Q4.69727-2.31445 4.05762-3.81836Q3.41797-5.32227 3.41797-7.05078Q3.41797-8.7793 4.05762-10.2832Q4.69727-11.7871 5.83008-12.9297Q6.96289-14.0723 8.4668-14.7119Q9.9707-15.3516 11.6992-15.3516Q13.4277-15.3516 14.9316-14.7119Q16.4355-14.0723 17.5781-12.9297Q18.7207-11.7871 19.3652-10.2832Q20.0098-8.7793 20.0098-7.05078Q20.0098-5.32227 19.3701-3.81836Q18.7305-2.31445 17.5928-1.17676Q16.4551-0.0390625 14.9463 0.605469Q13.4375 1.25 11.709 1.25ZM7.17773-7.05078Q7.17773-6.69922 7.41211-6.47461Q7.64648-6.25 8.01758-6.25L10.8887-6.25L10.8887-3.36914Q10.8887-2.99805 11.1133-2.76855Q11.3379-2.53906 11.6895-2.53906Q12.0605-2.53906 12.29-2.76855Q12.5195-2.99805 12.5195-3.36914L12.5195-6.25L15.4004-6.25Q15.7715-6.25 16.001-6.47461Q16.2305-6.69922 16.2305-7.05078Q16.2305-7.42188 16.001-7.65137Q15.7715-7.88086 15.4004-7.88086L12.5195-7.88086L12.5195-10.752Q12.5195-11.1328 12.29-11.3623Q12.0605-11.5918 11.6895-11.5918Q11.3379-11.5918 11.1133-11.3574Q10.8887-11.123 10.8887-10.752L10.8887-7.88086L8.01758-7.88086Q7.63672-7.88086 7.40723-7.65137Q7.17773-7.42188 7.17773-7.05078Z"/>
  </g>
  <g transform="matrix(1 0 0 1 305.646 1933)">
   <path d="M14.9707 5.66406Q17.0605 5.66406 18.96 5.01465Q20.8594 4.36523 22.4512 3.19336Q24.043 2.02148 25.2197 0.429688Q26.3965-1.16211 27.0459-3.06641Q27.6953-4.9707 27.6953-7.05078Q27.6953-9.14062 27.0459-11.04Q26.3965-12.9395 25.2197-14.5312Q24.043-16.123 22.4512-17.2998Q20.8594-18.4766 18.9551-19.126Q17.0508-19.7754 14.9609-19.7754Q12.8711-19.7754 10.9717-19.126Q9.07227-18.4766 7.48535-17.2998Q5.89844-16.123 4.72168-14.5312Q3.54492-12.9395 2.90039-11.04Q2.25586-9.14062 2.25586-7.05078Q2.25586-4.9707 2.90527-3.06641Q3.55469-1.16211 4.72656 0.429688Q5.89844 2.02148 7.49023 3.19336Q9.08203 4.36523 10.9814 5.01465Q12.8809 5.66406 14.9707 5.66406ZM14.9707 3.84766Q13.1641 3.84766 11.5283 3.2959Q9.89258 2.74414 8.53516 1.74805Q7.17773 0.751953 6.17676-0.610352Q5.17578-1.97266 4.62891-3.6084Q4.08203-5.24414 4.08203-7.05078Q4.08203-8.86719 4.62891-10.5029Q5.17578-12.1387 6.17188-13.501Q7.16797-14.8633 8.52539-15.8594Q9.88281-16.8555 11.5186-17.4023Q13.1543-17.9492 14.9609-17.9492Q16.7773-17.9492 18.4131-17.4023Q20.0488-16.8555 21.4111-15.8594Q22.7734-14.8633 23.7695-13.501Q24.7656-12.1387 25.3174-10.5029Q25.8691-8.86719 25.8691-7.05078Q25.8789-5.24414 25.332-3.6084Q24.7852-1.97266 23.7842-0.610352Q22.7832 0.751953 21.4209 1.74805Q20.0586 2.74414 18.4229 3.2959Q16.7871 3.84766 14.9707 3.84766ZM9.19922-7.05078Q9.19922-6.66992 9.45801-6.4209Q9.7168-6.17188 10.1172-6.17188L14.0625-6.17188L14.0625-2.2168Q14.0625-1.81641 14.3115-1.55762Q14.5605-1.29883 14.9512-1.29883Q15.3516-1.29883 15.6104-1.55273Q15.8691-1.80664 15.8691-2.2168L15.8691-6.17188L19.8242-6.17188Q20.2246-6.17188 20.4785-6.4209Q20.7324-6.66992 20.7324-7.05078Q20.7324-7.46094 20.4785-7.71484Q20.2246-7.96875 19.8242-7.96875L15.8691-7.96875L15.8691-11.9141Q15.8691-12.3242 15.6104-12.583Q15.3516-12.8418 14.9512-12.8418Q14.5605-12.8418 14.3115-12.583Q14.0625-12.3242 14.0625-11.9141L14.0625-7.96875L10.1172-7.96875Q9.70703-7.96875 9.45312-7.71484Q9.19922-7.46094 9.19922-7.05078Z"/>
  </g>
  <text style="stroke:none;fill:black;font-family:sans-serif;font-size:13;font-weight:bold;" transform="matrix(1 0 0 1 263 1953)">Design Variations</text>
  <text style="stroke:none;fill:black;font-family:sans-serif;font-size:13;" transform="matrix(1 0 0 1 263 1971)">Symbols are supported in up to nine weights and three scales.</text>
  <text style="stroke:none;fill:black;font-family:sans-serif;font-size:13;" transform="matrix(1 0 0 1 263 1989)">For optimal layout with text and other symbols, vertically align</text>
  <text style="stroke:none;fill:black;font-family:sans-serif;font-size:13;" transform="matrix(1 0 0 1 263 2007)">symbols with the adjacent text.</text>
  <line style="fill:none;stroke:#00AEEF;stroke-width:0.5;opacity:1.0;" x1="776" x2="776" y1="1919" y2="1933"/>
  <g transform="matrix(1 0 0 1 776 1933)">
   <path d="M3.31055 0.15625Q3.70117 0.15625 3.91602-0.00976562Q4.13086-0.175781 4.26758-0.585938L5.52734-4.0332L11.2891-4.0332L12.5488-0.585938Q12.6855-0.175781 12.9004-0.00976562Q13.1152 0.15625 13.4961 0.15625Q13.8867 0.15625 14.1162-0.0585938Q14.3457-0.273438 14.3457-0.644531Q14.3457-0.869141 14.2383-1.17188L9.6582-13.3691Q9.48242-13.8184 9.17969-14.043Q8.87695-14.2676 8.4082-14.2676Q7.5-14.2676 7.17773-13.3789L2.59766-1.16211Q2.49023-0.859375 2.49023-0.634766Q2.49023-0.263672 2.70996-0.0537109Q2.92969 0.15625 3.31055 0.15625ZM6.00586-5.51758L8.37891-12.0898L8.42773-12.0898L10.8008-5.51758Z"/>
  </g>
  <line style="fill:none;stroke:#00AEEF;stroke-width:0.5;opacity:1.0;" x1="793.197" x2="793.197" y1="1919" y2="1933"/>
  <text style="stroke:none;fill:black;font-family:sans-serif;font-size:13;font-weight:bold;" transform="matrix(1 0 0 1 776 1953)">Margins</text>
  <text style="stroke:none;fill:black;font-family:sans-serif;font-size:13;" transform="matrix(1 0 0 1 776 1971)">Leading and trailing margins on the left and right side of each symbol</text>
  <text style="stroke:none;fill:black;font-family:sans-serif;font-size:13;" transform="matrix(1 0 0 1 776 1989)">can be adjusted by modifying the x-location of the margin guidelines.</text>
  <text style="stroke:none;fill:black;font-family:sans-serif;font-size:13;" transform="matrix(1 0 0 1 776 2007)">Modifications are automatically applied proportionally to all</text>
  <text style="stroke:none;fill:black;font-family:sans-serif;font-size:13;" transform="matrix(1 0 0 1 776 2025)">scales and weights.</text>
  <g transform="matrix(1 0 0 1 1289 1933)">
   <path d="M2.8418 1.86523L4.54102 3.57422Q5.18555 4.22852 5.90332 4.17969Q6.62109 4.13086 7.31445 3.35938L18.0078-8.42773L17.041-9.4043L6.42578 2.27539Q6.16211 2.57812 5.89355 2.61719Q5.625 2.65625 5.27344 2.30469L4.10156 1.14258Q3.75 0.791016 3.79395 0.522461Q3.83789 0.253906 4.14062-0.0195312L15.6152-10.8203L14.6387-11.7871L3.04688-0.898438Q2.30469-0.214844 2.25098 0.498047Q2.19727 1.21094 2.8418 1.86523ZM9.25781-16.3281Q8.94531-16.0254 8.90625-15.6348Q8.86719-15.2441 9.04297-14.9512Q9.21875-14.6777 9.55566-14.541Q9.89258-14.4043 10.3809-14.5215Q11.4746-14.7754 12.5977-14.7314Q13.7207-14.6875 14.7949-13.9844L14.209-12.5293Q13.9551-11.9043 14.0674-11.4404Q14.1797-10.9766 14.5801-10.5664L16.875-8.25195Q17.2363-7.88086 17.5781-7.82227Q17.9199-7.76367 18.3398-7.8418L19.4043-8.03711L20.0684-7.36328L20.0293-6.80664Q20-6.43555 20.1221-6.12305Q20.2441-5.81055 20.6055-5.44922L21.3672-4.70703Q21.7285-4.3457 22.1533-4.33105Q22.5781-4.31641 22.9297-4.66797L25.8398-7.58789Q26.1914-7.93945 26.1816-8.35449Q26.1719-8.76953 25.8105-9.13086L25.0391-9.89258Q24.6875-10.2539 24.3799-10.3857Q24.0723-10.5176 23.7109-10.4883L23.1348-10.4395L22.4902-11.0742L22.7344-12.1973Q22.832-12.6172 22.6953-12.9834Q22.5586-13.3496 22.1191-13.7891L19.9219-15.9766Q18.6719-17.2168 17.2607-17.8369Q15.8496-18.457 14.4189-18.4814Q12.9883-18.5059 11.665-17.959Q10.3418-17.4121 9.25781-16.3281ZM10.752-15.957Q11.6602-16.6211 12.7002-16.9043Q13.7402-17.1875 14.8047-17.085Q15.8691-16.9824 16.8701-16.5137Q17.8711-16.0449 18.7012-15.2051L21.1328-12.793Q21.3086-12.6172 21.3525-12.4512Q21.3965-12.2852 21.3379-12.0312L21.0156-10.5469L22.5195-9.0625L23.5059-9.12109Q23.6914-9.13086 23.7891-9.09668Q23.8867-9.0625 24.0332-8.91602L24.6094-8.33984L22.168-5.89844L21.5918-6.47461Q21.4453-6.62109 21.4062-6.71875Q21.3672-6.81641 21.377-7.01172L21.4453-7.98828L19.9512-9.47266L18.4277-9.21875Q18.1836-9.16992 18.042-9.2041Q17.9004-9.23828 17.7148-9.41406L15.7129-11.416Q15.5176-11.5918 15.4932-11.7529Q15.4688-11.9141 15.5859-12.1875L16.4648-14.2773Q15.293-15.3711 13.8281-15.791Q12.3633-16.2109 10.8398-15.7617Q10.7227-15.7324 10.6885-15.8057Q10.6543-15.8789 10.752-15.957Z"/>
  </g>
  <text style="stroke:none;fill:black;font-family:sans-serif;font-size:13;font-weight:bold;" transform="matrix(1 0 0 1 1289 1953)">Exporting</text>
  <text style="stroke:none;fill:black;font-family:sans-serif;font-size:13;" transform="matrix(1 0 0 1 1289 1971)">Symbols should be outlined when exporting to ensure the</text>
  <text style="stroke:none;fill:black;font-family:sans-serif;font-size:13;" transform="matrix(1 0 0 1 1289 1989)">design is preserved when submitting to Xcode.</text>
  <text id="template-version" style="stroke:none;fill:black;font-family:sans-serif;font-size:13;text-anchor:end;" transform="matrix(1 0 0 1 3036 1933)">Template v.3.0</text>
  <text style="stroke:none;fill:black;font-family:sans-serif;font-size:13;text-anchor:end;" transform="matrix(1 0 0 1 3036 1951)">Requires Xcode 13 or greater</text>
  <text id="descriptive-name" style="stroke:none;fill:black;font-family:sans-serif;font-size:13;text-anchor:end;" transform="matrix(1 0 0 1 3036 1969)">Generated from checkmark.shield.fill</text>
  <text style="stroke:none;fill:black;font-family:sans-serif;font-size:13;text-anchor:end;" transform="matrix(1 0 0 1 3036 1987)">Typeset at 100 points</text>
  <text style="stroke:none;fill:black;font-family:sans-serif;font-size:13;" transform="matrix(1 0 0 1 263 726)">Small</text>
  <text style="stroke:none;fill:black;font-family:sans-serif;font-size:13;" transform="matrix(1 0 0 1 263 1156)">Medium</text>
  <text style="stroke:none;fill:black;font-family:sans-serif;font-size:13;" transform="matrix(1 0 0 1 263 1586)">Large</text>
 </g>
 <g id="Guides">
  <g id="H-reference" style="fill:#27AAE1;stroke:none;" transform="matrix(1 0 0 1 339 696)">
   <path d="M0.993347 0L3.6377 0L29.3282-67.1326L30.0301-67.1326L30.0301-70.459L28.1227-70.459ZM11.6882-24.4797L46.9818-24.4797L46.2311-26.7288L12.4382-26.7288ZM55.1193 0L57.7637 0L30.6381-70.459L29.4327-70.459L29.4327-67.1326Z"/>
  </g>
  <line id="Baseline-S" style="fill:none;stroke:#27AAE1;opacity:1;stroke-width:0.5;" x1="263" x2="3036" y1="696" y2="696"/>
  <line id="Capline-S" style="fill:none;stroke:#27AAE1;opacity:1;stroke-width:0.5;" x1="263" x2="3036" y1="625.541" y2="625.541"/>
  <g id="H-reference" style="fill:#27AAE1;stroke:none;" transform="matrix(1 0 0 1 339 1126)">
   <path d="M0.993347 0L3.6377 0L29.3282-67.1326L30.0301-67.1326L30.0301-70.459L28.1227-70.459ZM11.6882-24.4797L46.9818-24.4797L46.2311-26.7288L12.4382-26.7288ZM55.1193 0L57.7637 0L30.6381-70.459L29.4327-70.459L29.4327-67.1326Z"/>
  </g>
  <line id="Baseline-M" style="fill:none;stroke:#27AAE1;opacity:1;stroke-width:0.5;" x1="263" x2="3036" y1="1126" y2="1126"/>
  <line id="Capline-M" style="fill:none;stroke:#27AAE1;opacity:1;stroke-width:0.5;" x1="263" x2="3036" y1="1055.54" y2="1055.54"/>
  <g id="H-reference" style="fill:#27AAE1;stroke:none;" transform="matrix(1 0 0 1 339 1556)">
   <path d="M0.993347 0L3.6377 0L29.3282-67.1326L30.0301-67.1326L30.0301-70.459L28.1227-70.459ZM11.6882-24.4797L46.9818-24.4797L46.2311-26.7288L12.4382-26.7288ZM55.1193 0L57.7637 0L30.6381-70.459L29.4327-70.459L29.4327-67.1326Z"/>
  </g>
  <line id="Baseline-L" style="fill:none;stroke:#27AAE1;opacity:1;stroke-width:0.5;" x1="263" x2="3036" y1="1556" y2="1556"/>
  <line id="Capline-L" style="fill:none;stroke:#27AAE1;opacity:1;stroke-width:0.5;" x1="263" x2="3036" y1="1485.54" y2="1485.54"/>
  <line id="left-margin-Regular-M" style="fill:none;stroke:#00AEEF;stroke-width:0.5;opacity:1.0;" x1="1390.48" x2="1390.48" y1="1030.79" y2="1150.12"/>
  <line id="right-margin-Regular-M" style="fill:none;stroke:#00AEEF;stroke-width:0.5;opacity:1.0;" x1="1509.2" x2="1509.2" y1="1030.79" y2="1150.12"/>
 </g>
 <g id="Symbols">
  <g id="Black-L" transform="matrix(1 0 0 1 2857.05 1556)">
   <path d="M78.8762 30.1401Q79.9361 30.1401 81.2554 29.7198Q82.5747 29.2994 83.8744 28.7171Q97.7264 21.9814 107.315 16.2152Q116.903 10.4489 122.785 4.64675Q128.667-1.15536 131.32-7.80834Q133.973-14.4613 133.973-22.9483L133.973-67.7495Q133.973-75.3834 131.323-79.3959Q128.673-83.4083 121.799-86.3055Q119.823-87.1277 115.296-88.6962Q110.769-90.2648 105.517-92.0228Q100.265-93.7807 95.8641-95.2001Q91.4635-96.6195 89.6625-97.1433Q87.1506-97.8958 84.2213-98.3421Q81.2921-98.7885 78.8762-98.7885Q76.4409-98.7885 73.5116-98.3318Q70.5824-97.8751 68.0704-97.1433Q66.2681-96.639 61.8688-95.2189Q57.4696-93.7989 52.2174-92.0312Q46.9652-90.2635 42.4375-88.6956Q37.9097-87.1277 35.9335-86.3055Q29.0597-83.4303 26.4093-79.4069Q23.759-75.3834 23.759-67.7495L23.759-22.9483Q23.759-14.4613 26.4337-7.85108Q29.1084-1.24084 35.0221 4.51918Q40.9359 10.2792 50.5036 16.0669Q60.0713 21.8545 73.878 28.7171Q75.1582 29.3202 76.4775 29.7301Q77.7968 30.1401 78.8762 30.1401ZM71.9615-6.25652Q69.547-6.25652 67.5886-7.35411Q65.6303-8.4517 63.9658-10.3963L49.8702-26.9739Q47.4972-29.7671 47.4972-32.8743Q47.4972-36.2541 49.9461-38.6166Q52.3951-40.9792 55.7359-40.9792Q57.6573-40.9792 59.192-40.1969Q60.7268-39.4146 62.0577-37.8412L71.8773-26.2017L94.8967-62.6079Q97.8808-67.2709 102.151-67.2709Q105.507-67.2709 108.048-65.0782Q110.589-62.8855 110.589-59.4655Q110.589-58.2163 110.139-56.8087Q109.689-55.4011 108.703-53.996L79.7354-10.5715Q76.7682-6.25652 71.9615-6.25652Z"/>
  </g>
  <g id="Heavy-L" transform="matrix(1 0 0 1 2560.42 1556)">
   <path d="M77.9278 29.692Q78.9197 29.692 80.1839 29.2987Q81.448 28.9055 82.7283 28.3188Q96.4643 21.4939 105.932 15.7485Q115.4 10.0031 121.168 4.28536Q126.937-1.43243 129.525-8.00468Q132.113-14.5769 132.113-23.0198L132.113-68.4684Q132.113-75.4596 129.613-79.0293Q127.114-82.599 120.908-85.2072Q118.708-86.1225 114.033-87.7802Q109.358-89.4379 103.974-91.289Q98.5895-93.1402 94.0159-94.658Q89.4423-96.1758 87.3757-96.8112Q85.1579-97.481 82.622-97.8815Q80.086-98.2819 77.9278-98.2819Q75.7458-98.2819 73.2098-97.8666Q70.6739-97.4513 68.4561-96.8112Q66.3835-96.1995 61.8159-94.6787Q57.2483-93.1579 51.8639-91.2949Q46.4795-89.4319 41.8018-87.7772Q37.1241-86.1225 34.9236-85.2072Q28.7181-82.6348 26.2155-79.0472Q23.713-75.4596 23.713-68.4684L23.713-23.0198Q23.713-14.5769 26.3366-8.07024Q28.9603-1.56355 34.7766 4.0917Q40.5929 9.74695 50.0309 15.5251Q59.4688 21.3033 73.1272 28.3188Q74.3838 28.9353 75.648 29.3136Q76.9121 29.692 77.9278 29.692ZM70.9911-6.17613Q68.7858-6.17613 66.9927-7.17608Q65.1997-8.17602 63.6521-10.0123L49.07-27.3321Q46.9242-29.8978 46.9242-32.7488Q46.9242-35.7993 49.116-37.9435Q51.3079-40.0878 54.3374-40.0878Q56.1053-40.0878 57.5235-39.366Q58.9416-38.6443 60.2065-37.1055L70.866-24.1963L94.9418-62.3887Q97.6203-66.5879 101.486-66.5879Q104.495-66.5879 106.801-64.6266Q109.108-62.6654 109.108-59.5614Q109.108-58.3829 108.649-57.0689Q108.191-55.755 107.316-54.4663L78.086-10.1462Q75.3926-6.17613 70.9911-6.17613Z"/>
  </g>
  <g id="Bold-L" transform="matrix(1 0 0 1 2264.05 1556)">
   <path d="M76.6596 29.1446Q77.5927 29.1446 78.7952 28.773Q79.9977 28.4015 81.236 27.8158Q94.8222 20.8536 104.132 15.1359Q113.442 9.4182 119.069 3.82497Q124.697-1.76827 127.202-8.20128Q129.707-14.6343 129.707-22.976L129.707-69.1401Q129.707-75.424 127.391-78.5099Q125.076-81.5958 119.572-83.8894Q117.051-84.9318 112.243-86.6806Q107.435-88.4294 101.964-90.3661Q96.494-92.3028 91.7556-93.9234Q87.0172-95.5441 84.5844-96.3303Q82.6986-96.9076 80.6113-97.2582Q78.5239-97.6088 76.6596-97.6088Q74.7725-97.6088 72.6851-97.2397Q70.5978-96.8707 68.712-96.3303Q66.265-95.5669 61.5408-93.9391Q56.8167-92.3113 51.3462-90.3632Q45.8758-88.4152 41.0605-86.6735Q36.2452-84.9318 33.7248-83.8894Q28.2208-81.647 25.898-78.5355Q23.5752-75.424 23.5752-69.1401L23.5752-22.976Q23.5752-14.6343 26.1316-8.28949Q28.6881-1.94469 34.3781 3.56746Q40.0682 9.0796 49.3409 14.8414Q58.6136 20.6032 72.0831 27.8158Q73.2987 28.4385 74.5012 28.7915Q75.7037 29.1446 76.6596 29.1446ZM69.7186-6.12938Q67.7903-6.12938 66.224-6.99851Q64.6576-7.86764 63.2782-9.53386L47.9907-27.8164Q46.1364-30.0813 46.1364-32.5826Q46.1364-35.2071 48.0018-37.0625Q49.8672-38.9179 52.4853-38.9179Q54.047-38.9179 55.3015-38.2798Q56.556-37.6416 57.7155-36.1876L69.5564-21.6566L95.0613-62.1695Q97.3548-65.7693 100.691-65.7693Q103.25-65.7693 105.248-64.0985Q107.246-62.4278 107.246-59.7435Q107.246-58.6788 106.795-57.5011Q106.343-56.3235 105.609-55.1939L75.9014-9.62147Q73.5631-6.12938 69.7186-6.12938Z"/>
  </g>
  <g id="Semibold-L" transform="matrix(1 0 0 1 1967.58 1556)">
   <path d="M75.7853 28.7672Q76.6779 28.7672 77.8379 28.4106Q78.9979 28.054 80.2073 27.469Q93.6902 20.4121 102.891 14.7135Q112.092 9.01495 117.622 3.50757Q123.152-1.9998 125.6-8.33682Q128.048-14.6738 128.048-22.9458L128.048-69.6032Q128.048-75.3994 125.859-78.1518Q123.67-80.9042 118.65-82.9809Q115.909-84.111 111.009-85.9226Q106.109-87.7342 100.579-89.7298Q95.0494-91.7254 90.1973-93.417Q85.3453-95.1086 82.6601-95.9988Q81.0032-96.5124 79.2251-96.8286Q77.447-97.1448 75.7853-97.1448Q74.1015-97.1448 72.3234-96.8076Q70.5454-96.4704 68.8885-95.9988Q66.1834-95.1307 61.3512-93.4292Q56.5191-91.7277 50.9893-89.721Q45.4596-87.7143 40.5494-85.9127Q35.6392-84.111 32.8983-82.9809Q27.8781-80.9661 25.6791-78.1828Q23.4802-75.3994 23.4802-69.6032L23.4802-22.9458Q23.4802-14.6738 25.9903-8.44064Q28.5004-2.20744 34.1034 3.20605Q39.7065 8.61954 48.8652 14.37Q58.024 20.1205 71.3633 27.469Q72.5507 28.096 73.7106 28.4316Q74.8706 28.7672 75.7853 28.7672ZM68.8413-6.09715Q67.104-6.09715 65.694-6.87609Q64.284-7.65504 63.0204-9.20401L47.2466-28.1502Q45.5933-30.2079 45.5933-32.468Q45.5933-34.7989 47.2336-36.4551Q48.874-38.1114 51.2084-38.1114Q52.6279-38.1114 53.7697-37.5309Q54.9115-36.9504 55.9982-35.5548L68.6536-19.9057L95.1436-62.0183Q97.1718-65.2049 100.143-65.2049Q102.392-65.2049 104.178-63.7345Q105.963-62.2641 105.963-59.8691Q105.963-58.8827 105.516-57.7991Q105.068-56.7154 104.433-55.6954L74.3954-9.25973Q72.3018-6.09715 68.8413-6.09715Z"/>
  </g>
  <g id="Medium-L" transform="matrix(1 0 0 1 1671.05 1556)">
   <path d="M75.1224 28.4811Q75.9843 28.4811 77.112 28.1358Q78.2397 27.7906 79.4273 27.206Q92.8318 20.0774 101.95 14.3933Q111.068 8.70918 116.524 3.26691Q121.981-2.17536 124.386-8.43959Q126.791-14.7038 126.791-22.9229L126.791-69.9544Q126.791-75.3808 124.698-77.8803Q122.605-80.3798 117.952-82.292Q115.043-83.4886 110.073-85.3478Q105.103-87.207 99.5287-89.2473Q93.954-91.2877 89.0158-93.0331Q84.0776-94.7785 81.201-95.7475Q79.7176-96.2127 78.1741-96.5028Q76.6305-96.7929 75.1224-96.7929Q73.5927-96.7929 72.0492-96.4799Q70.5056-96.1669 69.0222-95.7475Q66.1214-94.8001 61.2074-93.0426Q56.2934-91.2851 50.7187-89.234Q45.144-87.1828 40.1619-85.3357Q35.1798-83.4886 32.2716-82.292Q27.6181-80.4497 25.5132-77.9153Q23.4082-75.3808 23.4082-69.9544L23.4082-22.9229Q23.4082-14.7038 25.8832-8.55525Q28.3581-2.40668 33.8952 2.93201Q39.4322 8.2707 48.5046 14.0126Q57.577 19.7546 70.8175 27.206Q71.9835 27.8363 73.1112 28.1587Q74.2389 28.4811 75.1224 28.4811ZM68.1762-6.07271Q66.5837-6.07271 65.2921-6.78327Q64.0006-7.49383 62.825-8.9539L46.6825-28.4033Q45.1815-30.3038 45.1815-32.3811Q45.1815-34.4894 46.6512-35.9946Q48.1209-37.4998 50.2402-37.4998Q51.552-37.4998 52.6082-36.963Q53.6645-36.4262 54.696-35.075L67.969-18.5781L95.2061-61.9037Q97.033-64.777 99.7275-64.777Q101.742-64.777 103.366-63.4584Q104.99-62.1399 104.99-59.9643Q104.99-59.0373 104.546-58.025Q104.102-57.0126 103.541-56.0757L73.2534-8.98544Q71.3455-6.07271 68.1762-6.07271Z"/>
  </g>
  <g id="Regular-L" transform="matrix(1 0 0 1 1374.57 1556)">
   <path d="M74.2577 28.1079Q75.0795 28.1079 76.1652 27.7774Q77.2509 27.4469 78.4098 26.8631Q91.7122 19.6408 100.723 13.9756Q109.733 8.31036 115.093 2.95301Q120.453-2.40434 122.802-8.57364Q125.151-14.7429 125.151-22.893L125.151-70.4124Q125.151-75.3565 123.183-77.5262Q121.215-79.6958 117.04-81.3935Q113.914-82.6768 108.853-84.5981Q103.792-86.5194 98.1586-88.6181Q92.5252-90.7167 87.4747-92.5322Q82.4241-94.3478 79.2978-95.4196Q78.0408-95.8217 76.8031-96.0778Q75.5654-96.334 74.2577-96.334Q72.9291-96.334 71.6914-96.0525Q70.4537-95.771 69.1967-95.4196Q66.0407-94.3687 61.0199-92.5383Q55.9991-90.7079 50.3657-88.5988Q44.7323-86.4897 39.6564-84.5832Q34.5806-82.6768 31.4542-81.3935Q27.2791-79.7763 25.2967-77.5664Q23.3142-75.3565 23.3142-70.4124L23.3142-22.893Q23.3142-14.7429 25.7434-8.70474Q28.1725-2.66654 33.6235 2.57457Q39.0744 7.81569 48.0342 13.5464Q56.9939 19.2772 70.1057 26.8631Q71.2437 27.4976 72.3293 27.8028Q73.415 28.1079 74.2577 28.1079ZM67.3085-6.04083Q65.905-6.04083 64.768-6.6622Q63.631-7.28357 62.5701-8.62767L45.9466-28.7335Q44.6444-30.429 44.6444-32.2678Q44.6444-34.0856 45.8915-35.3939Q47.1386-36.7022 48.9774-36.7022Q50.1485-36.7022 51.0933-36.2224Q52.038-35.7426 52.9976-34.4492L67.0761-16.8464L95.2876-61.7542Q96.852-64.2188 99.1854-64.2188Q100.893-64.2188 102.307-63.0983Q103.721-61.9779 103.721-60.0885Q103.721-59.239 103.282-58.3196Q102.842-57.4003 102.377-56.5718L71.7639-8.62767Q70.0981-6.04083 67.3085-6.04083Z"/>
  </g>
  <g id="Light-L" transform="matrix(1 0 0 1 1079.69 1556)">
   <path d="M72.7802 27.7795Q73.7251 27.7795 74.8108 27.3875Q75.8964 26.9955 76.9117 26.4526Q90.0705 18.9635 98.9167 13.3291Q107.763 7.6947 113.02 2.55283Q118.278-2.58904 120.555-8.40946Q122.832-14.2299 122.832-22.0105L122.832-69.4684Q122.832-74.4946 120.977-76.7463Q119.122-78.9981 114.619-80.7573Q111-82.2048 106.165-84.0645Q101.329-85.9243 96.1372-87.8895Q90.945-89.8548 86.0997-91.619Q81.2544-93.3832 77.6355-94.6398Q76.3991-95.0419 75.2229-95.3083Q74.0468-95.5747 72.7802-95.5747Q71.5336-95.5747 70.3575-95.2932Q69.1814-95.0117 67.9449-94.6398Q64.2758-93.3631 59.4807-91.5738Q54.6857-89.7844 49.4935-87.8292Q44.3014-85.874 39.441-84.0394Q34.5806-82.2048 30.9617-80.7573Q26.4582-79.0785 24.5784-76.7866Q22.6986-74.4946 22.6986-69.4684L22.6986-22.0105Q22.6986-14.2299 25.0559-8.52004Q27.4132-2.8102 32.741 2.24622Q38.0689 7.30264 46.8849 12.9924Q55.701 18.6821 68.6486 26.4526Q69.684 27.0256 70.7697 27.4026Q71.8553 27.7795 72.7802 27.7795ZM65.9746-6.34866Q64.8789-6.34866 64.0395-6.81611Q63.2-7.28357 62.4059-8.2788L44.6332-29.3286Q43.5977-30.6958 43.5977-32.0831Q43.5977-33.4905 44.5678-34.4807Q45.5379-35.4709 46.9252-35.4709Q47.8501-35.4709 48.5588-35.1039Q49.2675-34.737 50.0014-33.7719L65.8037-14.7327L95.7801-61.9389Q97.0367-63.8289 98.816-63.8289Q100.093-63.8289 101.178-62.9342Q102.264-62.0395 102.264-60.622Q102.264-60.0189 101.937-59.3252Q101.611-58.6316 101.269-58.0083L69.3423-8.2788Q68.0254-6.34866 65.9746-6.34866Z"/>
  </g>
  <g id="Thin-L" transform="matrix(1 0 0 1 785.406 1556)">
   <path d="M70.8259 27.3453Q71.9337 27.3453 73.0194 26.8718Q74.1051 26.3983 74.9304 25.9098Q87.8991 18.0679 96.5282 12.4742Q105.157 6.88044 110.279 2.02356Q115.401-2.83332 117.583-8.19233Q119.765-13.5513 119.765-20.8434L119.765-68.2198Q119.765-73.3546 118.059-75.715Q116.354-78.0753 111.416-79.9159Q107.146-81.5806 102.609-83.3588Q98.0723-85.1371 93.4637-86.926Q88.8551-88.7148 84.2812-90.4112Q79.7073-92.1076 75.437-93.6084Q74.2277-94.0105 73.133-94.2904Q72.0383-94.5704 70.8259-94.5704Q69.688-94.5704 68.5933-94.2889Q67.4986-94.0075 66.2892-93.6084Q61.9416-92.0332 57.4451-90.2981Q52.9486-88.5631 48.34-86.8114Q43.7314-85.0597 39.156-83.3201Q34.5806-81.5806 30.3103-79.9159Q25.3726-78.1557 23.6284-75.7552Q21.8843-73.3546 21.8843-68.2198L21.8843-20.8434Q21.8843-13.5513 24.1466-8.27577Q26.409-3.00019 31.5739 1.81195Q36.7389 6.62409 45.365 12.2595Q53.991 17.895 66.7215 25.9098Q67.6212 26.4014 68.7069 26.8733Q69.7926 27.3453 70.8259 27.3453ZM64.2104-6.75579Q63.5218-6.75579 63.0759-7.01968Q62.6301-7.28357 62.1887-7.81738L42.8961-30.1157Q42.2135-31.0486 42.2135-31.8388Q42.2135-32.7033 42.8172-33.2728Q43.4209-33.8423 44.211-33.8423Q44.8102-33.8423 45.2068-33.6247Q45.6033-33.4071 46.0386-32.8763L64.1209-11.937L96.4315-62.1832Q97.2809-63.3132 98.3275-63.3132Q99.0342-63.3132 99.6856-62.717Q100.337-62.1209 100.337-61.3277Q100.337-61.0503 100.16-60.6552Q99.9822-60.2601 99.8032-59.9082L66.1396-7.81738Q65.2841-6.75579 64.2104-6.75579Z"/>
  </g>
  <g id="Ultralight-L" transform="matrix(1 0 0 1 489.936 1556)">
   <path d="M69.825 27.1228Q71.0162 27.1228 72.1019 26.6077Q73.1875 26.0925 73.9155 25.6317Q86.7869 17.6091 95.3048 12.0362Q103.823 6.46338 108.875 1.75247Q113.927-2.95843 116.06-8.08111Q118.194-13.2038 118.194-20.2457L118.194-67.5803Q118.194-72.7708 116.565-75.1867Q114.936-77.6026 109.776-79.4849Q105.172-81.2608 100.788-82.9974Q96.4041-84.734 92.0944-86.4325Q87.7846-88.131 83.3498-89.7926Q78.9149-91.4542 74.311-93.0801Q73.1156-93.4822 72.0625-93.7691Q71.0095-94.056 69.825-94.056Q68.7427-94.056 67.6896-93.7746Q66.6366-93.4931 65.4412-93.0801Q60.746-91.352 56.4024-89.6447Q52.0589-87.9375 47.7491-86.2901Q43.4394-84.6427 39.01-82.9517Q34.5806-81.2608 29.9767-79.4849Q24.8165-77.683 23.1419-75.2269Q21.4673-72.7708 21.4673-67.5803L21.4673-20.2457Q21.4673-13.2038 23.6809-8.15065Q25.8946-3.09751 30.9762 1.58952Q36.0577 6.27654 44.5865 11.8842Q53.1152 17.4918 65.7345 25.6317Q66.5647 26.0816 67.6503 26.6022Q68.736 27.1228 69.825 27.1228ZM63.3068-6.96432Q62.8267-6.96432 62.5824-7.12394Q62.3381-7.28357 62.0775-7.58105L42.0064-30.5189Q41.5045-31.2294 41.5045-31.7137Q41.5045-32.3002 41.9205-32.6542Q42.3365-33.0082 42.8208-33.0082Q43.2531-33.0082 43.4899-32.867Q43.7266-32.7259 44.0089-32.4175L63.259-10.5051L96.7651-62.3083Q97.4061-63.049 98.0772-63.049Q98.492-63.049 98.921-62.6058Q99.35-62.1626 99.35-61.6892Q99.35-61.5785 99.249-61.3364Q99.148-61.0942 99.0525-60.8814L64.4991-7.58105Q63.88-6.96432 63.3068-6.96432Z"/>
  </g>
  <g id="Black-M" transform="matrix(1 0 0 1 2874.43 1126)">
   <path d="M61.7236 15.7557Q62.6199 15.7557 63.6894 15.3985Q64.7589 15.0412 65.7631 14.5992Q76.575 9.42147 84.0851 4.94028Q91.5951 0.459098 96.2356-4.07932Q100.876-8.61774 102.977-13.7942Q105.079-18.9707 105.079-25.5338L105.079-59.6784Q105.079-66.1561 102.912-69.6564Q100.745-73.1567 94.801-75.658Q93.3959-76.2371 90.046-77.3674Q86.6962-78.4977 82.8005-79.7615Q78.9048-81.0253 75.6721-82.0335Q72.4393-83.0416 71.2055-83.3764Q69.0093-84.0305 66.4102-84.4171Q63.8111-84.8037 61.7236-84.8037Q59.6303-84.8037 57.0312-84.4144Q54.4321-84.025 52.2359-83.3764Q51.0024-83.0474 47.7693-82.0394Q44.5363-81.0314 40.6406-79.7647Q36.7449-78.498 33.3952-77.3676Q30.0455-76.2371 28.6404-75.658Q22.6961-73.1619 20.5296-69.659Q18.3632-66.1561 18.3632-59.6784L18.3632-25.5338Q18.3632-18.9707 20.4696-13.8049Q22.576-8.63918 27.2246-4.11163Q31.8732 0.41591 39.3778 4.90246Q46.8823 9.389 57.6841 14.5992Q58.6825 15.0467 59.752 15.4012Q60.8215 15.7557 61.7236 15.7557ZM56.4047-12.8937Q54.3962-12.8937 52.7772-13.8071Q51.1581-14.7205 49.8043-16.2729L39.1462-28.6062Q37.1487-30.9214 37.1487-33.4876Q37.1487-36.3335 39.2294-38.3084Q41.3101-40.2833 44.1047-40.2833Q45.6918-40.2833 46.9491-39.6405Q48.2065-38.9976 49.2638-37.7933L56.383-29.6724L73.5485-56.6541Q76.0813-60.5874 79.6613-60.5874Q82.5023-60.5874 84.6279-58.7203Q86.7536-56.8532 86.7536-53.996Q86.7536-53.0007 86.4274-51.8603Q86.1011-50.72 85.2583-49.5592L62.8637-16.4442Q60.377-12.8937 56.4047-12.8937Z"/>
  </g>
  <g id="Heavy-M" transform="matrix(1 0 0 1 2577.62 1126)">
   <path d="M60.9328 15.3479Q61.7512 15.3479 62.7668 15.0228Q63.7824 14.6977 64.7809 14.2478Q75.4927 9.00735 82.8999 4.54376Q90.3071 0.0801746 94.8463-4.39569Q99.3855-8.87155 101.43-14.0013Q103.474-19.131 103.474-25.685L103.474-60.4682Q103.474-66.3101 101.444-69.37Q99.4138-72.4299 94.1531-74.643Q92.5743-75.298 89.0593-76.5211Q85.5443-77.7443 81.4787-79.1115Q77.413-80.4787 73.9922-81.5877Q70.5713-82.6968 69.1233-83.1237Q67.2128-83.697 64.9925-84.0378Q62.7722-84.3786 60.9328-84.3786Q59.0795-84.3786 56.8592-84.0297Q54.6389-83.6808 52.7284-83.1237Q51.278-82.7106 47.8596-81.6003Q44.4412-80.49 40.3755-79.1159Q36.3099-77.7418 32.7937-76.5199Q29.2774-75.298 27.6986-74.643Q22.4379-72.4486 20.4065-69.3793Q18.375-66.3101 18.375-60.4682L18.375-25.685Q18.375-19.131 20.4381-14.0362Q22.5012-8.94139 27.066-4.49923Q31.6307-0.0570652 39.0217 4.42398Q46.4127 8.90503 57.0847 14.2478Q58.0693 14.714 59.0849 15.0309Q60.1005 15.3479 60.9328 15.3479ZM55.5793-12.7867Q53.7467-12.7867 52.2619-13.6189Q50.777-14.451 49.5128-15.9297L38.4852-28.9016Q36.6851-31.0245 36.6851-33.382Q36.6851-35.9438 38.5401-37.7347Q40.395-39.5255 42.927-39.5255Q44.3868-39.5255 45.5518-38.9314Q46.7169-38.3374 47.7305-37.1367L55.5119-27.907L73.5471-56.4228Q75.8096-59.9557 79.0459-59.9557Q81.5866-59.9557 83.5133-58.2941Q85.44-56.6324 85.44-54.0406Q85.44-53.0917 85.0952-52.022Q84.7504-50.9523 84.0049-49.8864L61.4748-16.0606Q59.2234-12.7867 55.5793-12.7867Z"/>
  </g>
  <g id="Bold-M" transform="matrix(1 0 0 1 2280.81 1126)">
   <path d="M60.0481 14.8918Q60.7795 14.8918 61.7348 14.6026Q62.6901 14.3135 63.6821 13.8547Q74.2819 8.54409 81.5741 4.10019Q88.8663-0.343706 93.2921-4.74959Q97.7179-9.15548 99.6988-14.2329Q101.68-19.3104 101.68-25.8543L101.68-61.3518Q101.68-66.4824 99.8021-69.0496Q97.9244-71.6169 93.4285-73.5076Q91.6552-74.2475 87.9555-75.5745Q84.2557-76.9014 80-78.3843Q75.7442-79.8671 72.1129-81.0891Q68.4817-82.3111 66.7941-82.8411Q65.2032-83.3239 63.4066-83.6135Q61.6101-83.9031 60.0481-83.9031Q58.4634-83.9031 56.6668-83.5994Q54.8703-83.2956 53.2794-82.8411Q51.5863-82.3338 47.9605-81.1091Q44.3348-79.8843 40.079-78.3901Q35.8233-76.8959 32.1208-75.5717Q28.4183-74.2475 26.645-73.5076Q22.1491-71.6506 20.2687-69.0665Q18.3883-66.4824 18.3883-61.3518L18.3883-25.8543Q18.3883-19.3104 20.4029-14.2949Q22.4176-9.27946 26.8885-4.93281Q31.3594-0.586156 38.6234 3.88874Q45.8873 8.36364 56.4141 13.8547Q57.3834 14.3417 58.3387 14.6167Q59.294 14.8918 60.0481 14.8918ZM54.6558-12.6671Q53.0201-12.6671 51.6854-13.4083Q50.3507-14.1496 49.1868-15.5458L37.7457-29.2319Q36.1665-31.1399 36.1665-33.2639Q36.1665-35.5079 37.7689-37.0928Q39.3713-38.6777 41.6095-38.6777Q42.9269-38.6777 43.9887-38.1383Q45.0506-37.5988 46.0153-36.4021L54.5374-25.9321L73.5455-56.1641Q75.5057-59.2491 78.3575-59.2491Q80.5622-59.2491 82.2664-57.8173Q83.9705-56.3854 83.9705-54.0904Q83.9705-53.1935 83.605-52.2029Q83.2394-51.2122 82.6028-50.2524L59.9211-15.6315Q57.933-12.6671 54.6558-12.6671Z"/>
  </g>
  <g id="Semibold-M" transform="matrix(1 0 0 1 1984.03 1126)">
   <path d="M59.4382 14.5773Q60.1096 14.5773 61.0233 14.3129Q61.9371 14.0486 62.9246 13.5836Q73.4473 8.22473 80.6601 3.7944Q87.873-0.635927 92.2206-4.99357Q96.5683-9.35122 98.5054-14.3926Q100.443-19.434 100.443-25.9709L100.443-61.9608Q100.443-66.6012 98.6701-68.8288Q96.8976-71.0564 92.9289-72.7248Q91.0216-73.5233 87.1945-74.9218Q83.3674-76.3203 78.9806-77.8829Q74.5938-79.4456 70.8174-80.7454Q67.0411-82.0452 65.1883-82.6462Q63.8178-83.0667 62.3133-83.3209Q60.8089-83.5752 59.4382-83.5752Q58.0386-83.5752 56.5342-83.3027Q55.0298-83.0301 53.6593-82.6462Q51.7988-82.074 48.0301-80.7704Q44.2614-79.4668 39.8746-77.8897Q35.4878-76.3127 31.6569-74.918Q27.8259-73.5233 25.9187-72.7248Q21.95-71.1005 20.1737-68.8509Q18.3974-66.6012 18.3974-61.9608L18.3974-25.9709Q18.3974-19.434 20.3786-14.4733Q22.3599-9.51253 26.7662-5.23172Q31.1724-0.950908 38.3488 3.51975Q45.5251 7.9904 55.9518 13.5836Q56.9105 14.0852 57.8242 14.3312Q58.738 14.5773 59.4382 14.5773ZM54.0192-12.5845Q52.5192-12.5845 51.288-13.2631Q50.0567-13.9417 48.962-15.2812L37.2359-29.4597Q35.809-31.2194 35.809-33.1825Q35.809-35.2074 37.2373-36.6504Q38.6656-38.0933 40.7013-38.0933Q41.9205-38.0933 42.9112-37.5915Q43.9019-37.0897 44.8329-35.8957L53.8655-24.5707L73.5445-55.9857Q75.2961-58.762 77.8829-58.762Q79.8561-58.762 81.4068-57.4886Q82.9575-56.2151 82.9575-54.1247Q82.9575-53.2637 82.5776-52.3275Q82.1977-51.3914 81.6362-50.5047L58.85-15.3356Q57.0434-12.5845 54.0192-12.5845Z"/>
  </g>
  <g id="Medium-M" transform="matrix(1 0 0 1 1687.26 1126)">
   <path d="M58.9758 14.3388Q59.6016 14.3388 60.4839 14.0933Q61.3661 13.8478 62.3503 13.3781Q72.8144 7.98257 79.9671 3.56254Q87.1198-0.857501 91.4082-5.17857Q95.6967-9.49963 97.6006-14.5137Q99.5045-19.5278 99.5045-26.0594L99.5045-62.4227Q99.5045-66.6913 97.8117-68.6613Q96.119-70.6314 92.5501-72.1313Q90.5412-72.9742 86.6175-74.427Q82.6939-75.8797 78.2077-77.5028Q73.7215-79.1259 69.8351-80.4847Q65.9488-81.8435 63.9707-82.4984Q62.7673-82.8716 61.4844-83.0991Q60.2015-83.3266 58.9758-83.3266Q57.7166-83.3266 56.4337-83.0777Q55.1508-82.8288 53.9473-82.4984Q51.96-81.8771 48.0829-80.5136Q44.2058-79.1502 39.7196-77.5103Q35.2334-75.8705 31.3051-74.4223Q27.3768-72.9742 25.3679-72.1313Q21.799-70.6834 20.1016-68.6873Q18.4043-66.6913 18.4043-62.4227L18.4043-26.0594Q18.4043-19.5278 20.3602-14.6085Q22.3162-9.68925 26.6734-5.45836Q31.0306-1.22748 38.1405 3.23996Q45.2505 7.7074 55.6013 13.3781Q56.5519 13.8906 57.4342 14.1147Q58.3164 14.3388 58.9758 14.3388ZM53.5365-12.522Q52.1394-12.522 50.9867-13.1531Q49.8339-13.7842 48.7915-15.0805L36.8494-29.6324Q35.5379-31.2797 35.5379-33.1207Q35.5379-34.9796 36.8342-36.3149Q38.1304-37.6501 40.0126-37.6501Q41.1573-37.6501 42.0941-37.1769Q43.0309-36.7036 43.9363-35.5117L53.3561-23.5384L73.5437-55.8505Q75.1373-58.3927 77.523-58.3927Q79.3206-58.3927 80.755-57.2393Q82.1894-56.086 82.1894-54.1508Q82.1894-53.3169 81.7986-52.4221Q81.4079-51.5272 80.9033-50.6961L58.0378-15.1113Q56.3689-12.522 53.5365-12.522Z"/>
  </g>
  <g id="Regular-M" transform="matrix(1 0 0 1 1390.48 1126)">
   <path d="M58.3726 14.0278Q58.9391 14.0278 59.7802 13.8068Q60.6213 13.5859 61.6011 13.1101Q71.9889 7.66672 79.0631 3.2601Q86.1374-1.14651 90.3486-5.41987Q94.5597-9.69322 96.4203-14.6716Q98.2809-19.6501 98.2809-26.1748L98.2809-63.0251Q98.2809-66.8088 96.6922-68.4429Q95.1035-70.0771 92.056-71.3572Q89.9146-72.2579 85.8649-73.7815Q81.8153-75.3051 77.1995-77.007Q72.5836-78.7089 68.5538-80.1447Q64.524-81.5805 62.3826-82.3057Q61.3971-82.6172 60.4031-82.8098Q59.4091-83.0024 58.3726-83.0024Q57.2965-83.0024 56.3025-82.7843Q55.3085-82.5663 54.323-82.3057Q52.1702-81.6202 48.1517-80.1787Q44.1333-78.7372 39.5174-77.0155Q34.9016-75.2937 30.8463-73.7758Q26.791-72.2579 24.6496-71.3572Q21.602-70.1394 20.0077-68.4741Q18.4134-66.8088 18.4134-63.0251L18.4134-26.1748Q18.4134-19.6501 20.3362-14.7849Q22.2591-9.91975 26.5524-5.75399Q30.8456-1.58822 37.869 2.87502Q44.8923 7.33827 55.1441 13.1101Q56.0842 13.6368 56.9254 13.8323Q57.7665 14.0278 58.3726 14.0278ZM52.9069-12.4404Q51.6441-12.4404 50.5936-13.0095Q49.5432-13.5786 48.5692-14.8188L36.3452-29.8576Q35.1843-31.3583 35.1843-33.0402Q35.1843-34.6824 36.3084-35.8773Q37.4325-37.0721 39.1143-37.0721Q40.1619-37.0721 41.0283-36.6361Q41.8948-36.2 42.7668-35.0109L52.6917-22.1919L73.5426-55.6741Q74.93-57.9109 77.0536-57.9109Q78.6222-57.9109 79.9048-56.9142Q81.1875-55.9175 81.1875-54.1847Q81.1875-53.3863 80.7826-52.5454Q80.3777-51.7044 79.9473-50.9456L56.9784-14.8188Q55.4891-12.4404 52.9069-12.4404Z"/>
  </g>
  <g id="Light-M" transform="matrix(1 0 0 1 1095.42 1126)">
   <path d="M57.0479 13.7334Q57.7248 13.7334 58.5659 13.4572Q59.407 13.1811 60.258 12.7421Q70.5169 7.05955 77.444 2.68054Q84.3711-1.69848 88.4903-5.77865Q92.6094-9.85881 94.4056-14.5244Q96.2018-19.1901 96.2018-25.3836L96.2018-62.1787Q96.2018-66.036 94.7143-67.7437Q93.2268-69.4515 89.8849-70.7868Q87.3019-71.8347 83.4547-73.3031Q79.6074-74.7715 75.3872-76.3538Q71.1669-77.9362 67.3211-79.326Q63.4753-80.7158 60.8923-81.6065Q59.9251-81.9181 58.9863-82.1198Q58.0476-82.3216 57.0479-82.3216Q56.0454-82.3216 55.1066-82.1036Q54.1678-81.8855 53.2006-81.6065Q50.5879-80.7186 46.7718-79.3139Q42.9557-77.9093 38.7355-76.3255Q34.5152-74.7418 30.6531-73.2882Q26.791-71.8347 24.208-70.7868Q20.8661-69.5138 19.3637-67.7749Q17.8614-66.036 17.8614-62.1787L17.8614-25.3836Q17.8614-19.1901 19.7199-14.6193Q21.5784-10.0485 25.7612-6.04837Q29.9441-2.0482 36.8386 2.37825Q43.7331 6.8047 53.8378 12.7421Q54.6859 13.2136 55.527 13.4735Q56.3681 13.7334 57.0479 13.7334ZM51.711-12.7164Q50.7241-12.7164 49.9405-13.1475Q49.1568-13.5786 48.422-14.506L35.1677-30.3912Q34.2459-31.5975 34.2459-32.8746Q34.2459-34.1488 35.1216-35.0585Q35.9973-35.9682 37.2744-35.9682Q38.1013-35.9682 38.7561-35.6333Q39.4109-35.2985 40.0806-34.4037L51.551-20.2968L73.9842-55.8397Q75.0956-57.5613 76.7224-57.5613Q77.9046-57.5613 78.8929-56.767Q79.8811-55.9727 79.8811-54.6631Q79.8811-54.0855 79.5774-53.4469Q79.2737-52.8084 78.9538-52.2336L54.8074-14.506Q53.6308-12.7164 51.711-12.7164Z"/>
  </g>
  <g id="Thin-M" transform="matrix(1 0 0 1 800.877 1126)">
   <path d="M55.2958 13.344Q56.1187 13.344 56.9598 12.9949Q57.8009 12.6457 58.4816 12.2554Q68.5702 6.25652 75.3026 1.91401Q82.035-2.42851 86.0325-6.25316Q90.03-10.0778 91.741-14.3298Q93.452-18.5817 93.452-24.3372L93.452-61.0594Q93.452-65.014 92.0984-66.819Q90.7447-68.6241 87.0135-70.0325Q83.8464-71.275 80.2669-72.6704Q76.6873-74.0658 72.9903-75.49Q69.2932-76.9142 65.6907-78.2431Q62.0882-79.5721 58.9212-80.6818Q57.9784-80.9934 57.1126-81.2073Q56.2468-81.4213 55.2958-81.4213Q54.3906-81.4213 53.5248-81.2032Q52.659-80.9851 51.7163-80.6818Q48.4952-79.5262 44.9468-78.1702Q41.3984-76.8142 37.7013-75.413Q34.0042-74.0117 30.3976-72.6434Q26.791-71.275 23.624-70.0325Q19.8927-68.6864 18.512-66.8502Q17.1314-65.014 17.1314-61.0594L17.1314-24.3372Q17.1314-18.5817 18.9047-14.4003Q20.678-10.2189 24.7149-6.43772Q28.7517-2.65655 35.4759 1.72123Q42.2001 6.09901 52.11 12.2554Q52.8365 12.6539 53.6776 12.999Q54.5187 13.344 55.2958 13.344ZM50.1292-13.0814Q49.5074-13.0814 49.0766-13.33Q48.6458-13.5786 48.2273-14.0923L33.6103-31.0969Q33.0049-31.9139 33.0049-32.6556Q33.0049-33.4432 33.5521-33.9756Q34.0993-34.5081 34.841-34.5081Q35.3758-34.5081 35.7508-34.3071Q36.1258-34.1061 36.5278-33.6007L50.0423-17.7904L74.5682-56.0587Q75.3146-57.099 76.2844-57.099Q76.9556-57.099 77.5545-56.5724Q78.1534-56.0457 78.1534-55.2958Q78.1534-55.0102 77.9835-54.6393Q77.8137-54.2684 77.6397-53.937L51.9359-14.0923Q51.173-13.0814 50.1292-13.0814Z"/>
  </g>
  <g id="Ultralight-M" transform="matrix(1 0 0 1 505.279 1126)">
   <path d="M54.3984 13.1446Q55.2961 13.1446 56.1372 12.7581Q56.9783 12.3715 57.5717 12.0062Q67.5731 5.84522 74.2058 1.5214Q80.8385-2.80242 84.7737-6.49621Q88.7088-10.19 90.3762-14.2301Q92.0436-18.2701 92.0436-23.8013L92.0436-60.486Q92.0436-64.4905 90.7585-66.3454Q89.4734-68.2004 85.5427-69.6461Q82.0766-70.9884 78.6341-72.3464Q75.1917-73.7044 71.7626-75.0475Q68.3335-76.3907 64.8556-77.6885Q61.3778-78.9863 57.9116-80.2082Q56.9813-80.5197 56.1529-80.7399Q55.3245-80.9601 54.3984-80.9601Q53.5431-80.9601 52.7147-80.742Q51.8863-80.524 50.956-80.2082Q47.4233-78.9155 44.012-77.5844Q40.6007-76.2534 37.1716-74.9456Q33.7425-73.6378 30.2667-72.3131Q26.791-70.9884 23.3249-69.6461Q19.3942-68.2627 18.0758-66.3766Q16.7574-64.4905 16.7574-60.486L16.7574-23.8013Q16.7574-18.2701 18.4871-14.2881Q20.2168-10.3061 24.1789-6.63714Q28.141-2.96815 34.7779 1.38471Q41.4149 5.73756 51.2251 12.0062Q51.8893 12.3673 52.7304 12.7559Q53.5715 13.1446 54.3984 13.1446ZM49.3191-13.2683Q48.8842-13.2683 48.6341-13.4235Q48.3841-13.5786 48.1276-13.8804L32.8126-31.4583Q32.3692-32.0759 32.3692-32.5434Q32.3692-33.0817 32.7482-33.421Q33.1271-33.7603 33.5946-33.7603Q33.9799-33.7603 34.2115-33.6278Q34.4432-33.4954 34.7081-33.1894L49.2695-16.5066L74.8673-56.1709Q75.4268-56.8622 76.0601-56.8622Q76.4695-56.8622 76.869-56.4726Q77.2685-56.0831 77.2685-55.6198Q77.2685-55.4838 77.1672-55.25Q77.0659-55.0163 76.9667-54.8094L50.4652-13.8804Q49.9142-13.2683 49.3191-13.2683Z"/>
  </g>
  <g id="Black-S" transform="matrix(1 0 0 1 2887.31 696)">
   <path d="M48.5352 4.83398Q49.2676 4.83398 50.1221 4.54102Q50.9766 4.24805 51.7578 3.90625Q60.2539-0.146484 66.1621-3.66211Q72.0703-7.17773 75.7324-10.7422Q79.3945-14.3066 81.0547-18.3594Q82.7148-22.4121 82.7148-27.5391L82.7148-54.1016Q82.7148-59.375 80.9814-62.2559Q79.248-65.1367 74.3652-67.1875Q73.291-67.627 70.7275-68.4814Q68.1641-69.3359 65.1855-70.2881Q62.207-71.2402 59.7412-71.9971Q57.2754-72.7539 56.3477-72.998Q54.541-73.5352 52.3926-73.8525Q50.2441-74.1699 48.5352-74.1699Q46.8262-74.1699 44.6777-73.8525Q42.5293-73.5352 40.7227-72.998Q39.7949-72.7539 37.3291-71.9971Q34.8633-71.2402 31.8848-70.2881Q28.9062-69.3359 26.3428-68.4814Q23.7793-67.627 22.7051-67.1875Q17.8223-65.1367 16.0889-62.2559Q14.3555-59.375 14.3555-54.1016L14.3555-27.5391Q14.3555-22.4121 16.0156-18.3594Q17.6758-14.3066 21.3379-10.7422Q25-7.17773 30.9082-3.66211Q36.8164-0.146484 45.3125 3.90625Q46.0938 4.24805 46.9482 4.54102Q47.8027 4.83398 48.5352 4.83398ZM44.3848-17.7734Q42.7734-17.7734 41.4795-18.5059Q40.1855-19.2383 39.1113-20.459L30.8105-29.9805Q29.1992-31.8359 29.1992-33.8867Q29.1992-36.1816 30.8838-37.7686Q32.5684-39.3555 34.8145-39.3555Q36.084-39.3555 37.085-38.8428Q38.0859-38.3301 38.916-37.4023L44.3848-31.2988L57.666-52.0996Q59.7168-55.2734 62.5977-55.2734Q64.8926-55.2734 66.6016-53.7598Q68.3105-52.2461 68.3105-49.9512Q68.3105-49.1699 68.0664-48.2666Q67.8223-47.3633 67.1387-46.4355L49.5605-20.6055Q47.5586-17.7734 44.3848-17.7734Z"/>
  </g>
  <g id="Heavy-S" transform="matrix(1 0 0 1 2590.31 696)">
   <path d="M48.0281 4.52282Q48.6798 4.52282 49.4882 4.26443Q50.2966 4.00603 51.0894 3.65271Q59.5163-0.423072 65.3554-3.92717Q71.1945-7.43127 74.7817-10.9669Q78.3689-14.5026 79.9887-18.5553Q81.6085-22.608 81.6085-27.7696L81.6085-54.8852Q81.6085-59.6055 79.9788-62.1003Q78.3491-64.5951 74.0886-66.3923Q72.9222-66.8779 70.1917-67.8188Q67.4611-68.7597 64.2866-69.8156Q61.1122-70.8715 58.462-71.7205Q55.8118-72.5695 54.7573-72.8713Q53.1927-73.3392 51.3611-73.6163Q49.5296-73.8933 48.0281-73.8933Q46.515-73.8933 44.6835-73.6105Q42.852-73.3277 41.2874-72.8713Q40.2329-72.581 37.5826-71.732Q34.9324-70.883 31.758-69.8213Q28.5836-68.7597 25.853-67.8188Q23.1224-66.8779 21.956-66.3923Q17.6955-64.6066 16.0658-62.106Q14.4361-59.6055 14.4361-54.8852L14.4361-27.7696Q14.4361-22.608 16.0675-18.5783Q17.6988-14.5487 21.3033-11.0361Q24.9078-7.52347 30.7353-4.00784Q36.5629-0.492218 44.9668 3.65271Q45.748 4.01756 46.5564 4.27019Q47.3648 4.52282 48.0281 4.52282ZM43.8316-17.6467Q42.3355-17.6467 41.1222-18.3272Q39.909-19.0078 38.8808-20.2054L30.3957-30.1649Q28.9226-31.8936 28.9226-33.8176Q28.9226-35.9166 30.4459-37.3825Q31.9691-38.8484 34.0423-38.8484Q35.2312-38.8484 36.1803-38.3645Q37.1294-37.8806 37.948-36.9183L43.7855-30.0311L57.6084-51.8806Q59.4633-54.7779 62.1136-54.7779Q64.2011-54.7779 65.7776-53.414Q67.354-52.0502 67.354-49.9281Q67.354-49.1584 67.0811-48.2897Q66.8081-47.4209 66.1937-46.5508L48.6501-20.3174Q46.8095-17.6467 43.8316-17.6467Z"/>
  </g>
  <g id="Bold-S" transform="matrix(1 0 0 1 2293.27 696)">
   <path d="M47.4609 4.1748Q48.0225 4.1748 48.7793 3.95508Q49.5361 3.73535 50.3418 3.36914Q58.6914-0.732422 64.4531-4.22363Q70.2148-7.71484 73.7183-11.2183Q77.2217-14.7217 78.7964-18.7744Q80.3711-22.8271 80.3711-28.0273L80.3711-55.7617Q80.3711-59.8633 78.8574-61.9263Q77.3438-63.9893 73.7793-65.5029Q72.5098-66.04 69.5923-67.0776Q66.6748-68.1152 63.2812-69.2871Q59.8877-70.459 57.0312-71.4111Q54.1748-72.3633 52.9785-72.7295Q51.6846-73.1201 50.2075-73.3521Q48.7305-73.584 47.4609-73.584Q46.167-73.584 44.6899-73.3398Q43.2129-73.0957 41.9189-72.7295Q40.7227-72.3877 37.8662-71.4355Q35.0098-70.4834 31.6162-69.2993Q28.2227-68.1152 25.3052-67.0776Q22.3877-66.04 21.1182-65.5029Q17.5537-64.0137 16.04-61.9385Q14.5264-59.8633 14.5264-55.7617L14.5264-28.0273Q14.5264-22.8271 16.1255-18.8232Q17.7246-14.8193 21.2646-11.3647Q24.8047-7.91016 30.542-4.39453Q36.2793-0.878906 44.5801 3.36914Q45.3613 3.75977 46.1182 3.96729Q46.875 4.1748 47.4609 4.1748ZM43.2129-17.5049Q41.8457-17.5049 40.7227-18.1274Q39.5996-18.75 38.623-19.9219L29.9316-30.3711Q28.6133-31.958 28.6133-33.7402Q28.6133-35.6201 29.9561-36.9507Q31.2988-38.2812 33.1787-38.2812Q34.2773-38.2812 35.1685-37.8296Q36.0596-37.3779 36.8652-36.377L43.1152-28.6133L57.5439-51.6357Q59.1797-54.2236 61.5723-54.2236Q63.4277-54.2236 64.856-53.0273Q66.2842-51.8311 66.2842-49.9023Q66.2842-49.1455 65.979-48.3154Q65.6738-47.4854 65.1367-46.6797L47.6318-19.9951Q45.9717-17.5049 43.2129-17.5049Z"/>
  </g>
  <g id="Semibold-S" transform="matrix(1 0 0 1 1996.34 696)">
   <path d="M47.0699 3.93486Q47.5692 3.93486 48.2905 3.7418Q49.0118 3.54873 49.8264 3.17363Q58.1227-0.945703 63.8311-4.42803Q69.5395-7.91035 72.9851-11.3916Q76.4308-14.8728 77.9744-18.9255Q79.518-22.9782 79.518-28.2051L79.518-56.366Q79.518-60.041 78.0843-61.8063Q76.6506-63.5716 73.566-64.8897Q72.2254-65.4624 69.1791-66.5667Q66.1327-67.6709 62.5881-68.9228Q59.0435-70.1746 56.0448-71.1979Q53.0462-72.2211 51.7521-72.6317Q50.6448-72.969 49.4122-73.1699Q48.1795-73.3707 47.0699-73.3707Q45.9271-73.3707 44.6944-73.1532Q43.4617-72.9357 42.3544-72.6317Q41.0604-72.2544 38.0617-71.2312Q35.0631-70.2079 31.5185-68.9394Q27.9738-67.6709 24.9275-66.5667Q21.8812-65.4624 20.5405-64.8897Q17.456-63.6049 16.0223-61.8229Q14.5886-60.041 14.5886-56.366L14.5886-28.2051Q14.5886-22.9782 16.1655-18.9921Q17.7424-15.006 21.238-11.5914Q24.7336-8.17676 30.4087-4.66113Q36.0838-1.14551 44.3135 3.17363Q45.0947 3.58203 45.816 3.75845Q46.5373 3.93486 47.0699 3.93486ZM42.7863-17.4071Q41.508-17.4071 40.4472-17.9897Q39.3863-18.5723 38.4453-19.7264L29.6117-30.5133Q28.4-32.0024 28.4-33.6869Q28.4-35.4157 29.6184-36.653Q30.8367-37.8902 32.5833-37.8902Q33.6197-37.8902 34.4708-37.4608Q35.322-37.0313 36.1187-36.0037L42.6531-27.6357L57.4995-51.4669Q58.9842-53.8415 61.199-53.8415Q62.8945-53.8415 64.2206-52.7607Q65.5466-51.68 65.5466-49.8846Q65.5466-49.1366 65.2192-48.3332Q64.8918-47.5298 64.408-46.7686L46.9298-19.7729Q45.394-17.4071 42.7863-17.4071Z"/>
  </g>
  <g id="Medium-S" transform="matrix(1 0 0 1 1699.46 696)">
   <path d="M46.7734 3.75293Q47.2256 3.75293 47.9199 3.58008Q48.6143 3.40723 49.4355 3.02539Q57.6914-1.10742 63.3594-4.58301Q69.0273-8.05859 72.4292-11.5229Q75.8311-14.9873 77.3511-19.04Q78.8711-23.0928 78.8711-28.3398L78.8711-56.8242Q78.8711-60.1758 77.498-61.7153Q76.125-63.2549 73.4043-64.4248Q72.0098-65.0244 68.8657-66.1792Q65.7217-67.334 62.0625-68.6465Q58.4033-69.959 55.2969-71.0361Q52.1904-72.1133 50.8223-72.5576Q49.8564-72.8545 48.8091-73.0317Q47.7617-73.209 46.7734-73.209Q45.7451-73.209 44.6978-73.0117Q43.6504-72.8145 42.6846-72.5576Q41.3164-72.1533 38.21-71.0762Q35.1035-69.999 31.4443-68.6665Q27.7852-67.334 24.6411-66.1792Q21.4971-65.0244 20.1025-64.4248Q17.3818-63.2949 16.0088-61.7354Q14.6357-60.1758 14.6357-56.8242L14.6357-28.3398Q14.6357-23.0928 16.1958-19.1201Q17.7559-15.1475 21.2178-11.7632Q24.6797-8.37891 30.3076-4.86328Q35.9355-1.34766 44.1113 3.02539Q44.8926 3.44727 45.5869 3.6001Q46.2812 3.75293 46.7734 3.75293ZM42.4629-17.333Q41.252-17.333 40.2383-17.8853Q39.2246-18.4375 38.3105-19.5781L29.3691-30.6211Q28.2383-32.0361 28.2383-33.6465Q28.2383-35.2607 29.3623-36.4272Q30.4863-37.5938 32.1318-37.5938Q33.1211-37.5938 33.9419-37.1812Q34.7627-36.7686 35.5527-35.7207L42.3027-26.8945L57.4658-51.3389Q58.8359-53.5518 60.916-53.5518Q62.4902-53.5518 63.7388-52.5586Q64.9873-51.5654 64.9873-49.8711Q64.9873-49.1299 64.6431-48.3467Q64.2988-47.5635 63.8555-46.8359L46.3975-19.6045Q44.9561-17.333 42.4629-17.333Z"/>
  </g>
  <g id="Regular-S" transform="matrix(1 0 0 1 1402.53 696)">
   <path d="M46.3867 3.51562Q46.7773 3.51562 47.4365 3.36914Q48.0957 3.22266 48.9258 2.83203Q57.1289-1.31836 62.7441-4.78516Q68.3594-8.25195 71.7041-11.6943Q75.0488-15.1367 76.5381-19.1895Q78.0273-23.2422 78.0273-28.5156L78.0273-57.4219Q78.0273-60.3516 76.7334-61.5967Q75.4395-62.8418 73.1934-63.8184Q71.7285-64.4531 68.457-65.6738Q65.1855-66.8945 61.377-68.2861Q57.5684-69.6777 54.3213-70.8252Q51.0742-71.9727 49.6094-72.4609Q48.8281-72.7051 48.0225-72.8516Q47.2168-72.998 46.3867-72.998Q45.5078-72.998 44.7021-72.8271Q43.8965-72.6562 43.1152-72.4609Q41.6504-72.0215 38.4033-70.874Q35.1562-69.7266 31.3477-68.3105Q27.5391-66.8945 24.2676-65.6738Q20.9961-64.4531 19.5312-63.8184Q17.2852-62.8906 15.9912-61.6211Q14.6973-60.3516 14.6973-57.4219L14.6973-28.5156Q14.6973-23.2422 16.2354-19.2871Q17.7734-15.332 21.1914-11.9873Q24.6094-8.64258 30.1758-5.12695Q35.7422-1.61133 43.8477 2.83203Q44.6289 3.27148 45.2881 3.39355Q45.9473 3.51562 46.3867 3.51562ZM42.041-17.2363Q40.918-17.2363 39.9658-17.749Q39.0137-18.2617 38.1348-19.3848L29.0527-30.7617Q28.0273-32.0801 28.0273-33.5938Q28.0273-35.0586 29.0283-36.1328Q30.0293-37.207 31.543-37.207Q32.4707-37.207 33.252-36.8164Q34.0332-36.4258 34.8145-35.3516L41.8457-25.9277L57.4219-51.1719Q58.6426-53.1738 60.5469-53.1738Q61.9629-53.1738 63.1104-52.2949Q64.2578-51.416 64.2578-49.8535Q64.2578-49.1211 63.8916-48.3643Q63.5254-47.6074 63.1348-46.9238L45.7031-19.3848Q44.3848-17.2363 42.041-17.2363Z"/>
  </g>
  <g id="Light-S" transform="matrix(1 0 0 1 1107.27 696)">
   <path d="M45.2148 3.25521Q45.7031 3.25521 46.3623 3.0599Q47.0215 2.86458 47.7376 2.50651Q55.8268-1.85547 61.3118-5.29785Q66.7969-8.74023 70.0602-12.0117Q73.3236-15.2832 74.7559-19.0592Q76.1882-22.8353 76.1882-27.8158L76.1882-56.6732Q76.1882-59.668 74.9837-60.9782Q73.7793-62.2884 71.2728-63.3138Q69.4173-64.0788 66.3249-65.2507Q63.2324-66.4225 59.7738-67.7083Q56.3151-68.9941 53.2308-70.1009Q50.1465-71.2077 48.291-71.8424Q47.526-72.0866 46.7692-72.2412Q46.0124-72.3958 45.2148-72.3958Q44.401-72.3958 43.6442-72.2249Q42.8874-72.054 42.1224-71.8424Q40.2507-71.224 37.1826-70.109Q34.1146-68.9941 30.6559-67.7002Q27.1973-66.4062 24.0967-65.2425Q20.9961-64.0788 19.1406-63.3138Q16.6341-62.3372 15.4215-61.0026Q14.209-59.668 14.209-56.6732L14.209-27.8158Q14.209-22.8353 15.6901-19.1406Q17.1712-15.446 20.4915-12.2477Q23.8118-9.04948 29.2643-5.56641Q34.7168-2.08333 42.6921 2.50651Q43.3919 2.89714 44.0511 3.07617Q44.7103 3.25521 45.2148 3.25521ZM40.9831-17.4805Q40.1042-17.4805 39.388-17.8711Q38.6719-18.2617 38.0046-19.1081L28.0111-31.2337Q27.1973-32.2917 27.1973-33.4473Q27.1973-34.5866 27.9785-35.4085Q28.7598-36.2305 29.9154-36.2305Q30.6478-36.2305 31.2419-35.9294Q31.8359-35.6283 32.4382-34.8145L40.8366-24.2513L57.8125-51.3184Q58.7891-52.8646 60.2539-52.8646Q61.3281-52.8646 62.2152-52.1647Q63.1022-51.4648 63.1022-50.2767Q63.1022-49.7396 62.8255-49.1618Q62.5488-48.584 62.2559-48.0632L43.7826-19.1081Q42.7409-17.4805 40.9831-17.4805Z"/>
  </g>
  <g id="Thin-S" transform="matrix(1 0 0 1 812.483 696)">
   <path d="M43.6649 2.91079Q44.2824 2.91079 44.9416 2.65089Q45.6007 2.391 46.1662 2.07598Q54.1047-2.56584 59.4175-5.97593Q64.7303-9.38603 67.8861-12.4315Q71.0418-15.4769 72.3987-18.887Q73.7557-22.2971 73.7557-26.8901L73.7557-55.683Q73.7557-58.7639 72.6696-60.1602Q71.5836-61.5565 68.7327-62.6465Q66.3606-63.5837 63.5049-64.691Q60.6493-65.7983 57.6534-66.9441Q54.6576-68.09 51.7885-69.143Q48.9195-70.1959 46.5474-71.0244Q45.8039-71.2686 45.1117-71.434Q44.4194-71.5994 43.6649-71.5994Q42.9372-71.5994 42.245-71.4285Q41.5527-71.2576 40.8093-71.0244Q38.3994-70.1692 35.5681-69.0973Q32.7369-68.0255 29.7411-66.893Q26.7452-65.7605 23.8707-64.6721Q20.9961-63.5837 18.624-62.6465Q15.7731-61.6053 14.6681-60.1846Q13.5632-58.7639 13.5632-55.683L13.5632-26.8901Q13.5632-22.2971 14.969-18.9469Q16.3747-15.5966 19.5659-12.5921Q22.7571-9.58764 28.0588-6.14762Q33.3606-2.7076 41.1637 2.07598Q41.7559 2.40203 42.4151 2.65641Q43.0743 2.91079 43.6649 2.91079ZM39.5839-17.8034Q39.0278-17.8034 38.6238-18.0325Q38.2198-18.2617 37.8323-18.7421L26.6334-31.858Q26.0994-32.5715 26.0994-33.2535Q26.0994-33.9623 26.5901-34.4506Q27.0807-34.9389 27.7627-34.9389Q28.2368-34.9389 28.5834-34.7562Q28.9299-34.5735 29.2953-34.1041L39.502-22.0341L58.3291-51.5121Q58.9828-52.4556 59.8664-52.4556Q60.4886-52.4556 61.0312-51.9925Q61.5738-51.5294 61.5738-50.8364Q61.5738-50.5576 61.4155-50.2166Q61.2572-49.8756 61.0934-49.57L41.2424-18.7421Q40.5667-17.8034 39.5839-17.8034Z"/>
  </g>
  <g id="Ultralight-S" transform="matrix(1 0 0 1 516.756 696)">
   <path d="M42.8711 2.73438Q43.5547 2.73438 44.2139 2.44141Q44.873 2.14844 45.3613 1.85547Q53.2227-2.92969 58.4473-6.32324Q63.6719-9.7168 66.7725-12.6465Q69.873-15.5762 71.1914-18.7988Q72.5098-22.0215 72.5098-26.416L72.5098-55.1758Q72.5098-58.3008 71.4844-59.7412Q70.459-61.1816 67.4316-62.3047Q64.7949-63.3301 62.0605-64.4043Q59.3262-65.4785 56.5674-66.5527Q53.8086-67.627 51.0498-68.6523Q48.291-69.6777 45.6543-70.6055Q44.9219-70.8496 44.2627-71.0205Q43.6035-71.1914 42.8711-71.1914Q42.1875-71.1914 41.5283-71.0205Q40.8691-70.8496 40.1367-70.6055Q37.4512-69.6289 34.7412-68.5791Q32.0312-67.5293 29.2725-66.4795Q26.5137-65.4297 23.7549-64.3799Q20.9961-63.3301 18.3594-62.3047Q15.332-61.2305 14.2822-59.7656Q13.2324-58.3008 13.2324-55.1758L13.2324-26.416Q13.2324-22.0215 14.5996-18.8477Q15.9668-15.6738 19.0918-12.7686Q22.2168-9.86328 27.4414-6.44531Q32.666-3.02734 40.3809 1.85547Q40.918 2.14844 41.5771 2.44141Q42.2363 2.73438 42.8711 2.73438ZM38.8672-17.9688Q38.4766-17.9688 38.2324-18.1152Q37.9883-18.2617 37.7441-18.5547L25.9277-32.1777Q25.5371-32.7148 25.5371-33.1543Q25.5371-33.6426 25.8789-33.96Q26.2207-34.2773 26.6602-34.2773Q27.002-34.2773 27.2217-34.1553Q27.4414-34.0332 27.6855-33.7402L38.8184-20.8984L58.5938-51.6113Q59.082-52.2461 59.668-52.2461Q60.0586-52.2461 60.4248-51.9043Q60.791-51.5625 60.791-51.123Q60.791-50.9766 60.6934-50.7568Q60.5957-50.5371 60.498-50.3418L39.9414-18.5547Q39.4531-17.9688 38.8672-17.9688Z"/>
  </g>
 </g>
</svg>
