<svg xmlns="http://www.w3.org/2000/svg" xmlns:xlink="http://www.w3.org/1999/xlink" width="154" height="132">
  <path fill-rule="nonzero" stroke-opacity="1" stroke-width="2.11666" stroke-dasharray="none" stroke-miterlimit="4" version="1.1" stroke-linejoin="round" stroke-linecap="round" fill-opacity="1" fill="#000000" xml:space="preserve" stroke="none" xmlns:svg="http://www.w3.org/2000/svg" d="M28.277,31.766C17.954,31.766,9.644,40.128,9.644,50.516L9.644,113.016C9.644,123.403,17.954,131.766,28.277,131.766L90.384,131.766C100.707,131.766,109.017,123.403,109.017,113.016L109.017,50.516C109.017,40.128,100.707,31.766,90.384,31.766ZM59.331,63.016C69.621,63.016,77.963,71.41,77.963,81.766C77.963,92.121,69.621,100.515,59.331,100.516C54.389,100.516,49.65,98.54,46.156,95.024C42.661,91.507,40.698,86.738,40.698,81.766C40.698,71.41,49.04,63.016,59.331,63.016ZM145.255,41.17C139.788,41.372,130.827,46.3,116.501,54.596L116.501,108.982C153.977,130.684,154.089,128.924,154.089,81.789C154.089,52.672,154.089,40.843,145.255,41.17ZM145.255,41.17"/>

</svg>
