<?xml version="1.0" encoding="UTF-8"?>
<!--Generator: Apple Native CoreSVG 175-->
<!DOCTYPE svg
PUBLIC "-//W3C//DTD SVG 1.1//EN"
       "http://www.w3.org/Graphics/SVG/1.1/DTD/svg11.dtd">
<svg version="1.1" xmlns="http://www.w3.org/2000/svg" xmlns:xlink="http://www.w3.org/1999/xlink" width="3300" height="2200">
 <!--glyph: "uni100204.medium", point size: 100.0, font version: "17.1d1e1", template writer version: "65.1"-->
 <g id="Notes">
  <rect height="2200" id="artboard" style="fill:white;opacity:1" width="3300" x="0" y="0"/>
  <line style="fill:none;stroke:black;opacity:1;stroke-width:0.5;" x1="263" x2="3036" y1="292" y2="292"/>
  <text style="stroke:none;fill:black;font-family:sans-serif;font-size:13;font-weight:bold;" transform="matrix(1 0 0 1 263 322)">Weight/Scale Variations</text>
  <text style="stroke:none;fill:black;font-family:sans-serif;font-size:13;text-anchor:middle;" transform="matrix(1 0 0 1 559.711 322)">Ultralight</text>
  <text style="stroke:none;fill:black;font-family:sans-serif;font-size:13;text-anchor:middle;" transform="matrix(1 0 0 1 856.422 322)">Thin</text>
  <text style="stroke:none;fill:black;font-family:sans-serif;font-size:13;text-anchor:middle;" transform="matrix(1 0 0 1 1153.13 322)">Light</text>
  <text style="stroke:none;fill:black;font-family:sans-serif;font-size:13;text-anchor:middle;" transform="matrix(1 0 0 1 1449.84 322)">Regular</text>
  <text style="stroke:none;fill:black;font-family:sans-serif;font-size:13;text-anchor:middle;" transform="matrix(1 0 0 1 1746.56 322)">Medium</text>
  <text style="stroke:none;fill:black;font-family:sans-serif;font-size:13;text-anchor:middle;" transform="matrix(1 0 0 1 2043.27 322)">Semibold</text>
  <text style="stroke:none;fill:black;font-family:sans-serif;font-size:13;text-anchor:middle;" transform="matrix(1 0 0 1 2339.98 322)">Bold</text>
  <text style="stroke:none;fill:black;font-family:sans-serif;font-size:13;text-anchor:middle;" transform="matrix(1 0 0 1 2636.69 322)">Heavy</text>
  <text style="stroke:none;fill:black;font-family:sans-serif;font-size:13;text-anchor:middle;" transform="matrix(1 0 0 1 2933.4 322)">Black</text>
  <line style="fill:none;stroke:black;opacity:1;stroke-width:0.5;" x1="263" x2="3036" y1="1903" y2="1903"/>
  <g transform="matrix(1 0 0 1 263 1933)">
   <path d="M9.24805 0.830078Q10.8691 0.830078 12.2949 0.214844Q13.7207-0.400391 14.8096-1.49414Q15.8984-2.58789 16.5186-4.01367Q17.1387-5.43945 17.1387-7.05078Q17.1387-8.66211 16.5186-10.0879Q15.8984-11.5137 14.8047-12.6074Q13.7109-13.7012 12.2852-14.3164Q10.8594-14.9316 9.23828-14.9316Q7.62695-14.9316 6.20117-14.3164Q4.77539-13.7012 3.69141-12.6074Q2.60742-11.5137 1.9873-10.0879Q1.36719-8.66211 1.36719-7.05078Q1.36719-5.43945 1.9873-4.01367Q2.60742-2.58789 3.69629-1.49414Q4.78516-0.400391 6.21094 0.214844Q7.63672 0.830078 9.24805 0.830078ZM9.24805-0.654297Q7.91992-0.654297 6.7627-1.14746Q5.60547-1.64062 4.73145-2.51953Q3.85742-3.39844 3.36426-4.56055Q2.87109-5.72266 2.87109-7.05078Q2.87109-8.37891 3.35938-9.54102Q3.84766-10.7031 4.72168-11.582Q5.5957-12.4609 6.75293-12.9541Q7.91016-13.4473 9.23828-13.4473Q10.5762-13.4473 11.7334-12.9541Q12.8906-12.4609 13.7695-11.582Q14.6484-10.7031 15.1465-9.54102Q15.6445-8.37891 15.6445-7.05078Q15.6445-5.72266 15.1514-4.56055Q14.6582-3.39844 13.7842-2.51953Q12.9102-1.64062 11.748-1.14746Q10.5859-0.654297 9.24805-0.654297ZM5.6543-7.05078Q5.6543-6.72852 5.85938-6.52832Q6.06445-6.32812 6.40625-6.32812L8.51562-6.32812L8.51562-4.20898Q8.51562-3.88672 8.71094-3.67676Q8.90625-3.4668 9.23828-3.4668Q9.56055-3.4668 9.77051-3.67676Q9.98047-3.88672 9.98047-4.20898L9.98047-6.32812L12.0898-6.32812Q12.4219-6.32812 12.627-6.52832Q12.832-6.72852 12.832-7.05078Q12.832-7.38281 12.627-7.58789Q12.4219-7.79297 12.0898-7.79297L9.98047-7.79297L9.98047-9.90234Q9.98047-10.2344 9.77051-10.4443Q9.56055-10.6543 9.23828-10.6543Q8.90625-10.6543 8.71094-10.4443Q8.51562-10.2344 8.51562-9.90234L8.51562-7.79297L6.40625-7.79297Q6.06445-7.79297 5.85938-7.58789Q5.6543-7.38281 5.6543-7.05078Z"/>
  </g>
  <g transform="matrix(1 0 0 1 281.867 1933)">
   <path d="M11.709 2.91016Q13.75 2.91016 15.5518 2.12891Q17.3535 1.34766 18.7305-0.0292969Q20.1074-1.40625 20.8887-3.20801Q21.6699-5.00977 21.6699-7.05078Q21.6699-9.0918 20.8887-10.8936Q20.1074-12.6953 18.7305-14.0723Q17.3535-15.4492 15.5469-16.2305Q13.7402-17.0117 11.6992-17.0117Q9.6582-17.0117 7.85645-16.2305Q6.05469-15.4492 4.68262-14.0723Q3.31055-12.6953 2.5293-10.8936Q1.74805-9.0918 1.74805-7.05078Q1.74805-5.00977 2.5293-3.20801Q3.31055-1.40625 4.6875-0.0292969Q6.06445 1.34766 7.86621 2.12891Q9.66797 2.91016 11.709 2.91016ZM11.709 1.25Q9.98047 1.25 8.47656 0.605469Q6.97266-0.0390625 5.83496-1.17676Q4.69727-2.31445 4.05762-3.81836Q3.41797-5.32227 3.41797-7.05078Q3.41797-8.7793 4.05762-10.2832Q4.69727-11.7871 5.83008-12.9297Q6.96289-14.0723 8.4668-14.7119Q9.9707-15.3516 11.6992-15.3516Q13.4277-15.3516 14.9316-14.7119Q16.4355-14.0723 17.5781-12.9297Q18.7207-11.7871 19.3652-10.2832Q20.0098-8.7793 20.0098-7.05078Q20.0098-5.32227 19.3701-3.81836Q18.7305-2.31445 17.5928-1.17676Q16.4551-0.0390625 14.9463 0.605469Q13.4375 1.25 11.709 1.25ZM7.17773-7.05078Q7.17773-6.69922 7.41211-6.47461Q7.64648-6.25 8.01758-6.25L10.8887-6.25L10.8887-3.36914Q10.8887-2.99805 11.1133-2.76855Q11.3379-2.53906 11.6895-2.53906Q12.0605-2.53906 12.29-2.76855Q12.5195-2.99805 12.5195-3.36914L12.5195-6.25L15.4004-6.25Q15.7715-6.25 16.001-6.47461Q16.2305-6.69922 16.2305-7.05078Q16.2305-7.42188 16.001-7.65137Q15.7715-7.88086 15.4004-7.88086L12.5195-7.88086L12.5195-10.752Q12.5195-11.1328 12.29-11.3623Q12.0605-11.5918 11.6895-11.5918Q11.3379-11.5918 11.1133-11.3574Q10.8887-11.123 10.8887-10.752L10.8887-7.88086L8.01758-7.88086Q7.63672-7.88086 7.40723-7.65137Q7.17773-7.42188 7.17773-7.05078Z"/>
  </g>
  <g transform="matrix(1 0 0 1 305.646 1933)">
   <path d="M14.9707 5.66406Q17.0605 5.66406 18.96 5.01465Q20.8594 4.36523 22.4512 3.19336Q24.043 2.02148 25.2197 0.429688Q26.3965-1.16211 27.0459-3.06641Q27.6953-4.9707 27.6953-7.05078Q27.6953-9.14062 27.0459-11.04Q26.3965-12.9395 25.2197-14.5312Q24.043-16.123 22.4512-17.2998Q20.8594-18.4766 18.9551-19.126Q17.0508-19.7754 14.9609-19.7754Q12.8711-19.7754 10.9717-19.126Q9.07227-18.4766 7.48535-17.2998Q5.89844-16.123 4.72168-14.5312Q3.54492-12.9395 2.90039-11.04Q2.25586-9.14062 2.25586-7.05078Q2.25586-4.9707 2.90527-3.06641Q3.55469-1.16211 4.72656 0.429688Q5.89844 2.02148 7.49023 3.19336Q9.08203 4.36523 10.9814 5.01465Q12.8809 5.66406 14.9707 5.66406ZM14.9707 3.84766Q13.1641 3.84766 11.5283 3.2959Q9.89258 2.74414 8.53516 1.74805Q7.17773 0.751953 6.17676-0.610352Q5.17578-1.97266 4.62891-3.6084Q4.08203-5.24414 4.08203-7.05078Q4.08203-8.86719 4.62891-10.5029Q5.17578-12.1387 6.17188-13.501Q7.16797-14.8633 8.52539-15.8594Q9.88281-16.8555 11.5186-17.4023Q13.1543-17.9492 14.9609-17.9492Q16.7773-17.9492 18.4131-17.4023Q20.0488-16.8555 21.4111-15.8594Q22.7734-14.8633 23.7695-13.501Q24.7656-12.1387 25.3174-10.5029Q25.8691-8.86719 25.8691-7.05078Q25.8789-5.24414 25.332-3.6084Q24.7852-1.97266 23.7842-0.610352Q22.7832 0.751953 21.4209 1.74805Q20.0586 2.74414 18.4229 3.2959Q16.7871 3.84766 14.9707 3.84766ZM9.19922-7.05078Q9.19922-6.66992 9.45801-6.4209Q9.7168-6.17188 10.1172-6.17188L14.0625-6.17188L14.0625-2.2168Q14.0625-1.81641 14.3115-1.55762Q14.5605-1.29883 14.9512-1.29883Q15.3516-1.29883 15.6104-1.55273Q15.8691-1.80664 15.8691-2.2168L15.8691-6.17188L19.8242-6.17188Q20.2246-6.17188 20.4785-6.4209Q20.7324-6.66992 20.7324-7.05078Q20.7324-7.46094 20.4785-7.71484Q20.2246-7.96875 19.8242-7.96875L15.8691-7.96875L15.8691-11.9141Q15.8691-12.3242 15.6104-12.583Q15.3516-12.8418 14.9512-12.8418Q14.5605-12.8418 14.3115-12.583Q14.0625-12.3242 14.0625-11.9141L14.0625-7.96875L10.1172-7.96875Q9.70703-7.96875 9.45312-7.71484Q9.19922-7.46094 9.19922-7.05078Z"/>
  </g>
  <text style="stroke:none;fill:black;font-family:sans-serif;font-size:13;font-weight:bold;" transform="matrix(1 0 0 1 263 1953)">Design Variations</text>
  <text style="stroke:none;fill:black;font-family:sans-serif;font-size:13;" transform="matrix(1 0 0 1 263 1971)">Symbols are supported in up to nine weights and three scales.</text>
  <text style="stroke:none;fill:black;font-family:sans-serif;font-size:13;" transform="matrix(1 0 0 1 263 1989)">For optimal layout with text and other symbols, vertically align</text>
  <text style="stroke:none;fill:black;font-family:sans-serif;font-size:13;" transform="matrix(1 0 0 1 263 2007)">symbols with the adjacent text.</text>
  <line style="fill:none;stroke:#00AEEF;stroke-width:0.5;opacity:1.0;" x1="776" x2="776" y1="1919" y2="1933"/>
  <g transform="matrix(1 0 0 1 776 1933)">
   <path d="M3.31055 0.15625Q3.70117 0.15625 3.91602-0.00976562Q4.13086-0.175781 4.26758-0.585938L5.52734-4.0332L11.2891-4.0332L12.5488-0.585938Q12.6855-0.175781 12.9004-0.00976562Q13.1152 0.15625 13.4961 0.15625Q13.8867 0.15625 14.1162-0.0585938Q14.3457-0.273438 14.3457-0.644531Q14.3457-0.869141 14.2383-1.17188L9.6582-13.3691Q9.48242-13.8184 9.17969-14.043Q8.87695-14.2676 8.4082-14.2676Q7.5-14.2676 7.17773-13.3789L2.59766-1.16211Q2.49023-0.859375 2.49023-0.634766Q2.49023-0.263672 2.70996-0.0537109Q2.92969 0.15625 3.31055 0.15625ZM6.00586-5.51758L8.37891-12.0898L8.42773-12.0898L10.8008-5.51758Z"/>
  </g>
  <line style="fill:none;stroke:#00AEEF;stroke-width:0.5;opacity:1.0;" x1="793.197" x2="793.197" y1="1919" y2="1933"/>
  <text style="stroke:none;fill:black;font-family:sans-serif;font-size:13;font-weight:bold;" transform="matrix(1 0 0 1 776 1953)">Margins</text>
  <text style="stroke:none;fill:black;font-family:sans-serif;font-size:13;" transform="matrix(1 0 0 1 776 1971)">Leading and trailing margins on the left and right side of each symbol</text>
  <text style="stroke:none;fill:black;font-family:sans-serif;font-size:13;" transform="matrix(1 0 0 1 776 1989)">can be adjusted by modifying the x-location of the margin guidelines.</text>
  <text style="stroke:none;fill:black;font-family:sans-serif;font-size:13;" transform="matrix(1 0 0 1 776 2007)">Modifications are automatically applied proportionally to all</text>
  <text style="stroke:none;fill:black;font-family:sans-serif;font-size:13;" transform="matrix(1 0 0 1 776 2025)">scales and weights.</text>
  <g transform="matrix(1 0 0 1 1289 1933)">
   <path d="M2.8418 1.86523L4.54102 3.57422Q5.18555 4.22852 5.90332 4.17969Q6.62109 4.13086 7.31445 3.35938L18.0078-8.42773L17.041-9.4043L6.42578 2.27539Q6.16211 2.57812 5.89355 2.61719Q5.625 2.65625 5.27344 2.30469L4.10156 1.14258Q3.75 0.791016 3.79395 0.522461Q3.83789 0.253906 4.14062-0.0195312L15.6152-10.8203L14.6387-11.7871L3.04688-0.898438Q2.30469-0.214844 2.25098 0.498047Q2.19727 1.21094 2.8418 1.86523ZM9.25781-16.3281Q8.94531-16.0254 8.90625-15.6348Q8.86719-15.2441 9.04297-14.9512Q9.21875-14.6777 9.55566-14.541Q9.89258-14.4043 10.3809-14.5215Q11.4746-14.7754 12.5977-14.7314Q13.7207-14.6875 14.7949-13.9844L14.209-12.5293Q13.9551-11.9043 14.0674-11.4404Q14.1797-10.9766 14.5801-10.5664L16.875-8.25195Q17.2363-7.88086 17.5781-7.82227Q17.9199-7.76367 18.3398-7.8418L19.4043-8.03711L20.0684-7.36328L20.0293-6.80664Q20-6.43555 20.1221-6.12305Q20.2441-5.81055 20.6055-5.44922L21.3672-4.70703Q21.7285-4.3457 22.1533-4.33105Q22.5781-4.31641 22.9297-4.66797L25.8398-7.58789Q26.1914-7.93945 26.1816-8.35449Q26.1719-8.76953 25.8105-9.13086L25.0391-9.89258Q24.6875-10.2539 24.3799-10.3857Q24.0723-10.5176 23.7109-10.4883L23.1348-10.4395L22.4902-11.0742L22.7344-12.1973Q22.832-12.6172 22.6953-12.9834Q22.5586-13.3496 22.1191-13.7891L19.9219-15.9766Q18.6719-17.2168 17.2607-17.8369Q15.8496-18.457 14.4189-18.4814Q12.9883-18.5059 11.665-17.959Q10.3418-17.4121 9.25781-16.3281ZM10.752-15.957Q11.6602-16.6211 12.7002-16.9043Q13.7402-17.1875 14.8047-17.085Q15.8691-16.9824 16.8701-16.5137Q17.8711-16.0449 18.7012-15.2051L21.1328-12.793Q21.3086-12.6172 21.3525-12.4512Q21.3965-12.2852 21.3379-12.0312L21.0156-10.5469L22.5195-9.0625L23.5059-9.12109Q23.6914-9.13086 23.7891-9.09668Q23.8867-9.0625 24.0332-8.91602L24.6094-8.33984L22.168-5.89844L21.5918-6.47461Q21.4453-6.62109 21.4062-6.71875Q21.3672-6.81641 21.377-7.01172L21.4453-7.98828L19.9512-9.47266L18.4277-9.21875Q18.1836-9.16992 18.042-9.2041Q17.9004-9.23828 17.7148-9.41406L15.7129-11.416Q15.5176-11.5918 15.4932-11.7529Q15.4688-11.9141 15.5859-12.1875L16.4648-14.2773Q15.293-15.3711 13.8281-15.791Q12.3633-16.2109 10.8398-15.7617Q10.7227-15.7324 10.6885-15.8057Q10.6543-15.8789 10.752-15.957Z"/>
  </g>
  <text style="stroke:none;fill:black;font-family:sans-serif;font-size:13;font-weight:bold;" transform="matrix(1 0 0 1 1289 1953)">Exporting</text>
  <text style="stroke:none;fill:black;font-family:sans-serif;font-size:13;" transform="matrix(1 0 0 1 1289 1971)">Symbols should be outlined when exporting to ensure the</text>
  <text style="stroke:none;fill:black;font-family:sans-serif;font-size:13;" transform="matrix(1 0 0 1 1289 1989)">design is preserved when submitting to Xcode.</text>
  <text id="template-version" style="stroke:none;fill:black;font-family:sans-serif;font-size:13;text-anchor:end;" transform="matrix(1 0 0 1 3036 1933)">Template v.3.0</text>
  <text style="stroke:none;fill:black;font-family:sans-serif;font-size:13;text-anchor:end;" transform="matrix(1 0 0 1 3036 1951)">Requires Xcode 13 or greater</text>
  <text id="descriptive-name" style="stroke:none;fill:black;font-family:sans-serif;font-size:13;text-anchor:end;" transform="matrix(1 0 0 1 3036 1969)">Generated from square.and.arrow.down</text>
  <text style="stroke:none;fill:black;font-family:sans-serif;font-size:13;text-anchor:end;" transform="matrix(1 0 0 1 3036 1987)">Typeset at 100 points</text>
  <text style="stroke:none;fill:black;font-family:sans-serif;font-size:13;" transform="matrix(1 0 0 1 263 726)">Small</text>
  <text style="stroke:none;fill:black;font-family:sans-serif;font-size:13;" transform="matrix(1 0 0 1 263 1156)">Medium</text>
  <text style="stroke:none;fill:black;font-family:sans-serif;font-size:13;" transform="matrix(1 0 0 1 263 1586)">Large</text>
 </g>
 <g id="Guides">
  <g id="H-reference" style="fill:#27AAE1;stroke:none;" transform="matrix(1 0 0 1 339 696)">
   <path d="M0.993347 0L3.6377 0L29.3282-67.1326L30.0301-67.1326L30.0301-70.459L28.1227-70.459ZM11.6882-24.4797L46.9818-24.4797L46.2311-26.7288L12.4382-26.7288ZM55.1193 0L57.7637 0L30.6381-70.459L29.4327-70.459L29.4327-67.1326Z"/>
  </g>
  <line id="Baseline-S" style="fill:none;stroke:#27AAE1;opacity:1;stroke-width:0.5;" x1="263" x2="3036" y1="696" y2="696"/>
  <line id="Capline-S" style="fill:none;stroke:#27AAE1;opacity:1;stroke-width:0.5;" x1="263" x2="3036" y1="625.541" y2="625.541"/>
  <g id="H-reference" style="fill:#27AAE1;stroke:none;" transform="matrix(1 0 0 1 339 1126)">
   <path d="M0.993347 0L3.6377 0L29.3282-67.1326L30.0301-67.1326L30.0301-70.459L28.1227-70.459ZM11.6882-24.4797L46.9818-24.4797L46.2311-26.7288L12.4382-26.7288ZM55.1193 0L57.7637 0L30.6381-70.459L29.4327-70.459L29.4327-67.1326Z"/>
  </g>
  <line id="Baseline-M" style="fill:none;stroke:#27AAE1;opacity:1;stroke-width:0.5;" x1="263" x2="3036" y1="1126" y2="1126"/>
  <line id="Capline-M" style="fill:none;stroke:#27AAE1;opacity:1;stroke-width:0.5;" x1="263" x2="3036" y1="1055.54" y2="1055.54"/>
  <g id="H-reference" style="fill:#27AAE1;stroke:none;" transform="matrix(1 0 0 1 339 1556)">
   <path d="M0.993347 0L3.6377 0L29.3282-67.1326L30.0301-67.1326L30.0301-70.459L28.1227-70.459ZM11.6882-24.4797L46.9818-24.4797L46.2311-26.7288L12.4382-26.7288ZM55.1193 0L57.7637 0L30.6381-70.459L29.4327-70.459L29.4327-67.1326Z"/>
  </g>
  <line id="Baseline-L" style="fill:none;stroke:#27AAE1;opacity:1;stroke-width:0.5;" x1="263" x2="3036" y1="1556" y2="1556"/>
  <line id="Capline-L" style="fill:none;stroke:#27AAE1;opacity:1;stroke-width:0.5;" x1="263" x2="3036" y1="1485.54" y2="1485.54"/>
  <line id="left-margin-Regular-M" style="fill:none;stroke:#00AEEF;stroke-width:0.5;opacity:1.0;" x1="1394.06" x2="1394.06" y1="1030.79" y2="1150.12"/>
  <line id="right-margin-Regular-M" style="fill:none;stroke:#00AEEF;stroke-width:0.5;opacity:1.0;" x1="1505.63" x2="1505.63" y1="1030.79" y2="1150.12"/>
 </g>
 <g id="Symbols">
  <g id="Black-L" transform="matrix(1 0 0 1 2856.86 1556)">
   <path d="M39.8556 33.034L113.232 33.034Q124.6 33.034 130.802 26.8418Q137.004 20.6496 137.004 9.32481L137.004-49.6815Q137.004-61.0063 130.802-67.1985Q124.6-73.3907 113.232-73.3907L97.8476-73.3907L97.8476-53.3901L110.501-53.3901Q113.764-53.3901 115.393-51.8705Q117.023-50.3508 117.023-46.8467L117.023 6.49Q117.023 9.93572 115.393 11.4839Q113.764 13.0322 110.501 13.0322L42.5864 13.0322Q39.3783 13.0322 37.7217 11.4839Q36.065 9.93572 36.065 6.49L36.065-46.8467Q36.065-50.3508 37.7217-51.8705Q39.3783-53.3901 42.5864-53.3901L55.7097-53.3901L55.7097-73.3907L39.8556-73.3907Q28.5077-73.3907 22.2958-67.1997Q16.084-61.0087 16.084-49.6815L16.084 9.32481Q16.084 20.652 22.2958 26.843Q28.5077 33.034 39.8556 33.034ZM76.5334-5.80179Q78.347-5.80179 80.1008-6.50214Q81.8545-7.20248 83.5889-8.87845L104.209-28.628Q106.484-30.8817 106.484-33.7676Q106.484-36.9079 104.184-38.8954Q101.884-40.8828 99.0743-40.8828Q95.7535-40.8828 93.5014-38.4307L87.1045-31.6128L83.8863-26.5787L85.239-35.7255L85.239-97.2062Q85.239-100.681 82.7406-103.247Q80.2422-105.812 76.5334-105.812Q72.9038-105.812 70.3762-103.247Q67.8487-100.681 67.8487-97.2062L67.8487-35.7255L69.2013-26.5776L65.9819-31.6128L59.5838-38.4307Q57.3121-40.8828 53.9913-40.8828Q51.1598-40.8828 48.8809-38.8954Q46.602-36.9079 46.602-33.7676Q46.602-30.8817 48.8569-28.628L69.4779-8.87845Q71.2331-7.20248 73.0155-6.50214Q74.7978-5.80179 76.5334-5.80179Z"/>
  </g>
  <g id="Heavy-L" transform="matrix(1 0 0 1 2561.29 1556)">
   <path d="M38.8315 32.5409L111.967 32.5409Q122.94 32.5409 128.827 26.666Q134.714 20.7911 134.714 9.88392L134.714-50.1207Q134.714-61.028 128.827-66.9028Q122.94-72.7777 111.967-72.7777L96.0481-72.7777L96.0481-55.2527L109.843-55.2527Q113.478-55.2527 115.346-53.4874Q117.214-51.7221 117.214-47.8456L117.214 7.6088Q117.214 11.4406 115.346 13.2254Q113.478 15.0102 109.843 15.0102L40.9557 15.0102Q37.3483 15.0102 35.4663 13.2254Q33.5844 11.4406 33.5844 7.6088L33.5844-47.8456Q33.5844-51.7221 35.4663-53.4874Q37.3483-55.2527 40.9557-55.2527L55.1184-55.2527L55.1184-72.7777L38.8315-72.7777Q27.8828-72.7777 21.9834-66.9084Q16.084-61.0392 16.084-50.1207L16.084 9.88392Q16.084 20.8024 21.9834 26.6716Q27.8828 32.5409 38.8315 32.5409ZM75.3841-6.84887Q76.9837-6.84887 78.5185-7.46949Q80.0534-8.09011 81.5782-9.57031L102.412-29.5865Q104.493-31.6316 104.493-34.2407Q104.493-37.0583 102.438-38.8596Q100.383-40.6609 97.8088-40.6609Q94.8058-40.6609 92.7952-38.4404L85.5759-30.771L82.0288-25.789L83.1527-34.9792L83.1527-97.848Q83.1527-100.955 80.911-103.233Q78.6693-105.512 75.3841-105.512Q72.1736-105.512 69.9097-103.233Q67.6458-100.955 67.6458-97.848L67.6458-34.9792L68.7695-25.7834L65.2168-30.771L57.9919-38.4404Q55.9568-40.6609 52.9537-40.6609Q50.3435-40.6609 48.3218-38.8596Q46.3002-37.0583 46.3002-34.2407Q46.3002-31.6316 48.3511-29.5865L69.19-9.57031Q70.7451-8.09011 72.2994-7.46949Q73.8537-6.84887 75.3841-6.84887Z"/>
  </g>
  <g id="Bold-L" transform="matrix(1 0 0 1 2265.99 1556)">
   <path d="M37.5412 31.8742L110.437 31.8742Q120.888 31.8742 126.391 26.3837Q131.894 20.8933 131.894 10.5308L131.894-50.778Q131.894-61.1405 126.391-66.631Q120.888-72.1214 110.437-72.1214L93.8719-72.1214L93.8719-57.6549L108.991-57.6549Q113.11-57.6549 115.281-55.5785Q117.452-53.5022 117.452-49.1424L117.452 8.89515Q117.452 13.2258 115.281 15.31Q113.11 17.3943 108.991 17.3943L38.987 17.3943Q34.8579 17.3943 32.6918 15.31Q30.5258 13.2258 30.5258 8.89515L30.5258-49.1424Q30.5258-53.5022 32.6918-55.5785Q34.8579-57.6549 38.987-57.6549L54.366-57.6549L54.366-72.1214L37.5412-72.1214Q27.1142-72.1214 21.5991-66.6442Q16.084-61.167 16.084-50.778L16.084 10.5308Q16.084 20.9197 21.5991 26.397Q27.1142 31.8742 37.5412 31.8742ZM73.97-8.02823Q75.3007-8.02823 76.5665-8.54894Q77.8324-9.06965 79.096-10.3041L100.273-30.755Q102.093-32.5241 102.093-34.7726Q102.093-37.1757 100.35-38.7353Q98.6059-40.2949 96.3531-40.2949Q93.7644-40.2949 92.0534-38.3737L83.775-29.6367L79.6939-24.5521L80.5485-33.759L80.5485-98.5873Q80.5485-101.226 78.6368-103.143Q76.7252-105.061 73.97-105.061Q71.2818-105.061 69.3557-103.143Q67.4295-101.226 67.4295-98.5873L67.4295-33.759L68.2839-24.539L64.1897-29.6367L55.8979-38.3737Q54.1624-40.2949 51.5735-40.2949Q49.2697-40.2949 47.5706-38.7353Q45.8715-37.1757 45.8715-34.7726Q45.8715-32.5241 47.6541-30.755L68.8439-10.3041Q70.1456-9.06965 71.4194-8.54894Q72.6932-8.02823 73.97-8.02823Z"/>
  </g>
  <g id="Semibold-L" transform="matrix(1 0 0 1 1970.25 1556)">
   <path d="M36.6518 31.4145L109.382 31.4145Q119.474 31.4145 124.712 26.1891Q129.95 20.9637 129.95 10.9767L129.95-51.2311Q129.95-61.2181 124.712-66.4435Q119.474-71.6689 109.382-71.6689L92.3716-71.6689L92.3716-59.3109L108.404-59.3109Q112.856-59.3109 115.236-57.0202Q117.616-54.7294 117.616-50.0364L117.616 9.78194Q117.616 14.4565 115.236 16.7471Q112.856 19.0378 108.404 19.0378L37.6298 19.0378Q33.141 19.0378 30.7791 16.7471Q28.4171 14.4565 28.4171 9.78194L28.4171-50.0364Q28.4171-54.7294 30.7791-57.0202Q33.141-59.3109 37.6298-59.3109L53.8472-59.3109L53.8472-71.6689L36.6518-71.6689Q26.5843-71.6689 21.3341-66.462Q16.084-61.2551 16.084-51.2311L16.084 10.9767Q16.084 21.0007 21.3341 26.2076Q26.5843 31.4145 36.6518 31.4145ZM72.995-8.84127Q74.1404-8.84127 75.2208-9.2931Q76.3013-9.74494 77.3849-10.8099L98.7982-31.5607Q100.439-33.1393 100.439-35.1394Q100.439-37.2566 98.9097-38.6496Q97.3805-40.0426 95.3495-40.0426Q93.0465-40.0426 91.542-38.3278L82.5334-28.8547L78.0843-23.6995L78.7532-32.9177L78.7532-99.0971Q78.7532-101.413 77.069-103.081Q75.3848-104.75 72.995-104.75Q70.667-104.75 68.9737-103.081Q67.2804-101.413 67.2804-99.0971L67.2804-32.9177L67.949-23.6812L63.4816-28.8547L54.4544-38.3278Q52.9253-40.0426 50.622-40.0426Q48.5294-40.0426 47.0527-38.6496Q45.576-37.2566 45.576-35.1394Q45.576-33.1393 47.1736-31.5607L68.6052-10.8099Q69.7324-9.74494 70.8127-9.2931Q71.8931-8.84127 72.995-8.84127Z"/>
  </g>
  <g id="Medium-L" transform="matrix(1 0 0 1 1674.28 1556)">
   <path d="M35.9773 31.066L108.582 31.066Q118.401 31.066 123.438 26.0416Q128.475 21.0171 128.475 11.3148L128.475-51.5747Q128.475-61.277 123.438-66.3014Q118.401-71.3259 108.582-71.3259L91.234-71.3259L91.234-60.5666L107.959-60.5666Q112.663-60.5666 115.202-58.1133Q117.741-55.66 117.741-50.7142L117.741 10.4544Q117.741 15.3896 115.202 17.8368Q112.663 20.284 107.959 20.284L36.6007 20.284Q31.8392 20.284 29.3288 17.8368Q26.8183 15.3896 26.8183 10.4544L26.8183-50.7142Q26.8183-55.66 29.3288-58.1133Q31.8392-60.5666 36.6007-60.5666L53.4539-60.5666L53.4539-71.3259L35.9773-71.3259Q26.1825-71.3259 21.1332-66.3239Q16.084-61.3219 16.084-51.5747L16.084 11.3148Q16.084 21.062 21.1332 26.064Q26.1825 31.066 35.9773 31.066ZM72.2558-9.45775Q73.2607-9.45775 74.2005-9.85736Q75.1403-10.257 76.0874-11.1935L97.6801-32.1715Q99.1847-33.6058 99.1847-35.4174Q99.1847-37.318 97.818-38.5846Q96.4514-39.8513 94.5885-39.8513Q92.5021-39.8513 91.1542-38.2929L81.592-28.2618L76.8638-23.053L77.3919-32.2799L77.3919-99.4835Q77.3919-101.554 75.8802-103.034Q74.3686-104.514 72.2558-104.514Q70.2009-104.514 68.6841-103.034Q67.1674-101.554 67.1674-99.4835L67.1674-32.2799L67.6952-23.0307L62.9447-28.2618L53.3598-38.2929Q51.9873-39.8513 49.9005-39.8513Q47.9681-39.8513 46.66-38.5846Q45.352-37.318 45.352-35.4174Q45.352-33.6058 46.8093-32.1715L68.4243-11.1935Q69.419-10.257 70.3528-9.85736Q71.2865-9.45775 72.2558-9.45775Z"/>
  </g>
  <g id="Regular-L" transform="matrix(1 0 0 1 1378.53 1556)">
   <path d="M35.0976 30.6114L107.539 30.6114Q117.003 30.6114 121.777 25.8491Q126.552 21.0868 126.552 11.7559L126.552-52.0228Q126.552-61.3537 121.777-66.1161Q117.003-70.8784 107.539-70.8784L89.7503-70.8784L89.7503-62.2044L107.378-62.2044Q112.412-62.2044 115.158-59.5391Q117.903-56.8737 117.903-51.5984L117.903 11.3314Q117.903 16.6068 115.158 19.2581Q112.412 21.9095 107.378 21.9095L35.2585 21.9095Q30.1412 21.9095 27.437 19.2581Q24.7329 16.6068 24.7329 11.3314L24.7329-51.5984Q24.7329-56.8737 27.437-59.5391Q30.1412-62.2044 35.2585-62.2044L52.9409-62.2044L52.9409-70.8784L35.0976-70.8784Q25.6584-70.8784 20.8712-66.1437Q16.084-61.409 16.084-52.0228L16.084 11.7559Q16.084 21.1421 20.8712 25.8767Q25.6584 30.6114 35.0976 30.6114ZM71.2916-10.2619Q72.1132-10.2619 72.8696-10.5933Q73.626-10.9248 74.395-11.6938L96.2218-32.9683Q97.5487-34.2143 97.5487-35.7801Q97.5487-37.398 96.3941-38.4999Q95.2395-39.6017 93.5959-39.6017Q91.7921-39.6017 90.6484-38.2474L80.3641-27.4884L75.2718-22.2097L75.6163-31.4479L75.6163-99.9877Q75.6163-101.739 74.3297-102.973Q73.043-104.207 71.2916-104.207Q69.5928-104.207 68.3064-102.973Q67.02-101.739 67.02-99.9877L67.02-31.4479L67.364-22.1823L62.2443-27.4884L51.9321-38.2474Q50.7638-39.6017 48.9595-39.6017Q47.236-39.6017 46.1479-38.4999Q45.0597-37.398 45.0597-35.7801Q45.0597-34.2143 46.334-32.9683L68.1883-11.6938Q69.0103-10.9248 69.7528-10.5933Q70.4952-10.2619 71.2916-10.2619Z"/>
  </g>
  <g id="Light-L" transform="matrix(1 0 0 1 1082.74 1556)">
   <path d="M34.067 29.7909L106.718 29.7909Q115.609 29.7909 120.155 25.2384Q124.701 20.686 124.701 11.9085L124.701-53.2061Q124.701-61.9835 120.155-66.536Q115.609-71.0884 106.718-71.0884L88.586-71.0884L88.586-64.4756L106.557-64.4756Q112.068-64.4756 115.072-61.5526Q118.075-58.6296 118.075-52.8771L118.075 11.5796Q118.075 17.3321 115.072 20.2315Q112.068 23.1309 106.557 23.1309L34.2279 23.1309Q28.5761 23.1309 25.643 20.2315Q22.7099 17.3321 22.7099 11.5796L22.7099-52.8771Q22.7099-58.6296 25.643-61.5526Q28.5761-64.4756 34.2279-64.4756L52.2919-64.4756L52.2919-71.0884L34.067-71.0884Q25.1621-71.0884 20.623-66.5827Q16.084-62.077 16.084-53.2061L16.084 11.9085Q16.084 20.7794 20.623 25.2851Q25.1621 29.7909 34.067 29.7909ZM70.3755-10.3193Q70.987-10.3193 71.5717-10.5743Q72.1564-10.8293 72.7346-11.4075L95.3057-33.6554Q96.3273-34.5958 96.3273-35.7993Q96.3273-37.0354 95.4303-37.8986Q94.5334-38.7619 93.3096-38.7619Q91.9258-38.7619 90.9918-37.694L79.7151-26.1144L73.4396-19.6903L73.6889-28.6996L73.6889-100.14Q73.6889-101.491 72.7075-102.439Q71.7261-103.386 70.3755-103.386Q69.0583-103.386 68.0773-102.439Q67.0963-101.491 67.0963-100.14L67.0963-28.6996L67.3448-19.644L61.023-26.1144L49.6991-37.694Q48.7789-38.7619 47.3943-38.7619Q46.0909-38.7619 45.2508-37.8986Q44.4107-37.0354 44.4107-35.7993Q44.4107-34.5958 45.399-33.6554L68.0164-11.4075Q68.6287-10.8293 69.1899-10.5743Q69.751-10.3193 70.3755-10.3193Z"/>
  </g>
  <g id="Thin-L" transform="matrix(1 0 0 1 787.254 1556)">
   <path d="M32.704 28.7056L105.633 28.7056Q113.767 28.7056 118.01 24.4307Q122.253 20.1558 122.253 12.1104L122.253-54.771Q122.253-62.8164 118.01-67.0913Q113.767-71.3662 105.633-71.3662L87.0461-71.3662L87.0461-67.4794L105.472-67.4794Q111.614-67.4794 114.958-64.2157Q118.303-60.952 118.303-54.5684L118.303 11.9078Q118.303 18.2914 114.958 21.5188Q111.614 24.7463 105.472 24.7463L32.8648 24.7463Q26.5061 24.7463 23.2702 21.5188Q20.0343 18.2914 20.0343 11.9078L20.0343-54.5684Q20.0343-60.952 23.2702-64.2157Q26.5061-67.4794 32.8648-67.4794L51.4335-67.4794L51.4335-71.3662L32.704-71.3662Q24.5056-71.3662 20.2948-67.1633Q16.084-62.9603 16.084-54.771L16.084 12.1104Q16.084 20.2998 20.2948 24.5027Q24.5056 28.7056 32.704 28.7056ZM69.1639-10.3952Q69.4976-10.3952 69.8552-10.549Q70.2128-10.7029 70.5387-11.0288L94.0941-34.5643Q94.7119-35.1005 94.7119-35.8248Q94.7119-36.5557 94.1557-37.1035Q93.5995-37.6512 92.9309-37.6512Q92.1026-37.6512 91.446-36.962L78.8567-24.2971L71.0163-16.3582L71.1396-25.0647L71.1396-100.342Q71.1396-101.163 70.562-101.732Q69.9843-102.301 69.1639-102.301Q68.3513-102.301 67.7743-101.732Q67.1972-101.163 67.1972-100.342L67.1972-25.0647L67.3193-16.2868L59.4076-24.2971L46.7457-36.962Q46.1538-37.6512 45.3243-37.6512Q44.5765-37.6512 44.0644-37.1035Q43.5523-36.5557 43.5523-35.8248Q43.5523-35.1005 44.1624-34.5643L67.7891-11.0288Q68.124-10.7029 68.4454-10.549Q68.7667-10.3952 69.1639-10.3952Z"/>
  </g>
  <g id="Ultralight-L" transform="matrix(1 0 0 1 491.17 1556)">
   <path d="M32.0059 28.1498L105.077 28.1498Q112.823 28.1498 116.911 24.017Q120.999 19.8843 120.999 12.2138L120.999-55.5725Q120.999-63.243 116.911-67.3758Q112.823-71.5085 105.077-71.5085L86.2573-71.5085L86.2573-69.018L104.916-69.018Q111.382-69.018 114.9-65.5797Q118.419-62.1415 118.419-55.4347L118.419 12.076Q118.419 18.7827 114.9 22.1782Q111.382 25.5737 104.916 25.5737L32.1667 25.5737Q25.4458 25.5737 22.0548 22.1782Q18.6638 18.7827 18.6638 12.076L18.6638-55.4347Q18.6638-62.1415 22.0548-65.5797Q25.4458-69.018 32.1667-69.018L50.9938-69.018L50.9938-71.5085L32.0059-71.5085Q24.1693-71.5085 20.1266-67.4607Q16.084-63.4128 16.084-55.5725L16.084 12.2138Q16.084 20.0541 20.1266 24.1019Q24.1693 28.1498 32.0059 28.1498ZM68.5433-10.4341Q68.7347-10.4341 68.976-10.5361Q69.2173-10.6382 69.4139-10.8348L93.4735-35.0298Q93.8846-35.359 93.8846-35.8378Q93.8846-36.31 93.5029-36.6962Q93.1212-37.0823 92.7369-37.0823Q92.1932-37.0823 91.6787-36.5871L78.417-23.3663L69.7751-14.6515L69.8339-23.2029L69.8339-100.446Q69.8339-100.994 69.4631-101.37Q69.0922-101.745 68.5433-101.745Q67.9892-101.745 67.6191-101.37Q67.2489-100.994 67.2489-100.446L67.2489-23.2029L67.3063-14.5673L58.5802-23.3663L45.233-36.5871Q44.8092-37.0823 44.2641-37.0823Q43.8008-37.0823 43.4567-36.6962Q43.1127-36.31 43.1127-35.8378Q43.1127-35.359 43.529-35.0298L67.6727-10.8348Q67.8655-10.6382 68.064-10.5361Q68.2625-10.4341 68.5433-10.4341Z"/>
  </g>
  <g id="Black-M" transform="matrix(1 0 0 1 2873.24 1126)">
   <path d="M31.6184 17.9698L88.7016 17.9698Q97.7699 17.9698 102.815 12.9281Q107.859 7.88638 107.859-1.17124L107.859-46.2089Q107.859-55.2665 102.815-60.3082Q97.7699-65.3499 88.7016-65.3499L77.1954-65.3499L77.1954-48.0062L86.0648-48.0062Q88.3373-48.0062 89.4292-47.0051Q90.5211-46.0041 90.5211-43.5446L90.5211-3.83555Q90.5211-1.43319 89.4292-0.403433Q88.3373 0.626319 86.0648 0.626319L34.2553 0.626319Q32.0407 0.626319 30.9198-0.403433Q29.7989-1.43319 29.7989-3.83555L29.7989-43.5446Q29.7989-46.0041 30.9198-47.0051Q32.0407-48.0062 34.2553-48.0062L43.5808-48.0062L43.5808-65.3499L31.6184-65.3499Q22.5559-65.3499 17.5084-60.3079Q12.4609-55.266 12.4609-46.2089L12.4609-1.17124Q12.4609 7.88581 17.5084 12.9278Q22.5559 17.9698 31.6184 17.9698ZM60.1573-11.5385Q61.7178-11.5385 63.2414-12.1392Q64.765-12.74 66.263-14.1808L82.1553-29.3844Q84.0444-31.2683 84.0444-33.6929Q84.0444-36.3514 82.0859-38.0189Q80.1275-39.6863 77.8058-39.6863Q75.0169-39.6863 73.093-37.6262L68.7093-32.9647L66.3384-28.8648L67.5701-35.8828L67.5701-82.7145Q67.5701-85.6692 65.4552-87.8642Q63.3404-90.0593 60.1573-90.0593Q57.0368-90.0593 54.8933-87.8642Q52.7499-85.6692 52.7499-82.7145L52.7499-35.8828L53.9816-28.8651L51.611-32.9647L47.2277-37.6262Q45.2979-39.6863 42.509-39.6863Q40.1821-39.6863 38.229-38.0189Q36.276-36.3514 36.276-33.6929Q36.276-31.2683 38.1596-29.3844L54.0516-14.1808Q55.555-12.74 57.1073-12.1392Q58.6596-11.5385 60.1573-11.5385Z"/>
  </g>
  <g id="Heavy-M" transform="matrix(1 0 0 1 2577.56 1126)">
   <path d="M30.7123 17.5634L87.5407 17.5634Q96.2762 17.5634 101.034 12.8126Q105.792 8.06175 105.792-0.638753L105.792-46.5291Q105.792-55.2296 101.034-59.9804Q96.2762-64.7313 87.5407-64.7313L75.5437-64.7313L75.5437-49.6175L85.4967-49.6175Q88.0892-49.6175 89.3908-48.4Q90.6924-47.1825 90.6924-44.4031L90.6924-2.76474Q90.6924-0.0289649 89.3908 1.20919Q88.0892 2.44734 85.4967 2.44734L32.7562 2.44734Q30.2005 2.44734 28.8805 1.20919Q27.5605-0.0289649 27.5605-2.76474L27.5605-44.4031Q27.5605-47.1825 28.8805-48.4Q30.2005-49.6175 32.7562-49.6175L43.0627-49.6175L43.0627-64.7313L30.7123-64.7313Q21.9908-64.7313 17.2259-59.9827Q12.4609-55.2342 12.4609-46.5291L12.4609-0.638753Q12.4609 8.0663 17.2259 12.8148Q21.9908 17.5634 30.7123 17.5634ZM59.1183-12.5568Q60.489-12.5568 61.8144-13.0867Q63.1398-13.6165 64.4505-14.8836L80.4829-30.258Q82.2099-31.9662 82.2099-34.1536Q82.2099-36.5319 80.4679-38.0394Q78.7259-39.5469 76.5951-39.5469Q74.0781-39.5469 72.3709-37.6868L67.2749-32.2686L64.6916-28.3252L65.7084-35.4068L65.7084-83.3278Q65.7084-85.9594 63.8163-87.9004Q61.9243-89.8415 59.1183-89.8415Q56.3723-89.8415 54.4584-87.9004Q52.5445-85.9594 52.5445-83.3278L52.5445-35.4068L53.5613-28.3229L50.9758-32.2686L45.8775-37.6868Q44.1562-39.5469 41.6391-39.5469Q39.4897-39.5469 37.7652-38.0394Q36.0408-36.5319 36.0408-34.1536Q36.0408-31.9662 37.7513-30.258L53.786-14.8836Q55.1131-13.6165 56.4592-13.0867Q57.8053-12.5568 59.1183-12.5568Z"/>
  </g>
  <g id="Bold-M" transform="matrix(1 0 0 1 2282.01 1126)">
   <path d="M29.6986 17.1088L86.242 17.1088Q94.6053 17.1088 99.0425 12.6834Q103.48 8.25793 103.48-0.0430887L103.48-46.8873Q103.48-55.1884 99.0425-59.6138Q94.6053-64.0392 86.242-64.0392L73.6961-64.0392L73.6961-51.42L84.8612-51.42Q87.8116-51.42 89.3478-49.9604Q90.884-48.5008 90.884-45.3635L90.884-1.5669Q90.884 1.54186 89.3478 3.01314Q87.8116 4.48441 84.8612 4.48441L31.0794 4.48441Q28.1421 4.48441 26.5994 3.01314Q25.0566 1.54186 25.0566-1.5669L25.0566-45.3635Q25.0566-48.5008 26.5994-49.9604Q28.1421-51.42 31.0794-51.42L42.4831-51.42L42.4831-64.0392L29.6986-64.0392Q21.3587-64.0392 16.9098-59.6189Q12.4609-55.1986 12.4609-46.8873L12.4609-0.0430887Q12.4609 8.2682 16.9098 12.6885Q21.3587 17.1088 29.6986 17.1088ZM57.956-13.6959Q59.1143-13.6959 60.2181-14.1465Q61.3218-14.597 62.423-15.6697L78.6122-31.2352Q80.1577-32.7469 80.1577-34.669Q80.1577-36.7338 78.6578-38.0623Q77.1579-39.3909 75.2408-39.3909Q73.0279-39.3909 71.5632-37.7546L65.6703-31.4899L62.8494-27.7215L63.6258-34.8743L63.6258-84.0139Q63.6258-86.2839 61.983-87.941Q60.3401-89.598 57.956-89.598Q55.6289-89.598 53.9719-87.941Q52.3148-86.2839 52.3148-84.0139L52.3148-34.8743L53.0911-27.7164L50.2652-31.4899L44.3671-37.7546Q42.8789-39.3909 40.6659-39.3909Q38.7152-39.3909 37.2464-38.0623Q35.7777-36.7338 35.7777-34.669Q35.7777-32.7469 37.2947-31.2352L53.4889-15.6697Q54.6188-14.597 55.7342-14.1465Q56.8497-13.6959 57.956-13.6959Z"/>
  </g>
  <g id="Semibold-M" transform="matrix(1 0 0 1 1986.09 1126)">
   <path d="M28.9999 16.7954L85.3466 16.7954Q93.4534 16.7954 97.6695 12.5943Q101.886 8.39318 101.886 0.367559L101.886-47.1343Q101.886-55.1599 97.6695-59.361Q93.4534-63.5621 85.3466-63.5621L72.4223-63.5621L72.4223-52.6626L84.4231-52.6626Q87.6203-52.6626 89.3181-51.0361Q91.016-49.4096 91.016-46.0256L91.016-0.741106Q91.016 2.62477 89.3181 4.25677Q87.6203 5.88876 84.4231 5.88876L29.9234 5.88876Q26.723 5.88876 25.0267 4.25677Q23.3305 2.62477 23.3305-0.741106L23.3305-46.0256Q23.3305-49.4096 25.0267-51.0361Q26.723-52.6626 29.9234-52.6626L42.0835-52.6626L42.0835-63.5621L28.9999-63.5621Q20.9229-63.5621 16.6919-59.3681Q12.4609-55.1741 12.4609-47.1343L12.4609 0.367559Q12.4609 8.40739 16.6919 12.6014Q20.9229 16.7954 28.9999 16.7954ZM57.1547-14.4812Q58.1666-14.4812 59.1176-14.8771Q60.0685-15.273 61.0253-16.2117L77.3225-31.9089Q78.743-33.2851 78.743-35.0243Q78.743-36.873 77.41-38.0782Q76.077-39.2833 74.3072-39.2833Q72.3039-39.2833 71.0063-37.8013L64.5641-30.9531L61.5794-27.3053L62.1901-34.5073L62.1901-84.4869Q62.1901-86.5077 60.7191-87.9689Q59.2481-89.4301 57.1547-89.4301Q55.1165-89.4301 53.6364-87.9689Q52.1564-86.5077 52.1564-84.4869L52.1564-34.5073L52.767-27.2983L49.7753-30.9531L43.3258-37.8013Q41.9984-39.2833 39.995-39.2833Q38.1812-39.2833 36.8888-38.0782Q35.5964-36.873 35.5964-35.0243Q35.5964-33.2851 36.9798-31.9089L53.2841-16.2117Q54.278-15.273 55.2344-14.8771Q56.1908-14.4812 57.1547-14.4812Z"/>
  </g>
  <g id="Medium-M" transform="matrix(1 0 0 1 1689.99 1126)">
   <path d="M28.47 16.5578L84.6678 16.5578Q92.58 16.5578 96.6284 12.5268Q100.677 8.49573 100.677 0.678929L100.677-47.3215Q100.677-55.1383 96.6284-59.1693Q92.58-63.2004 84.6678-63.2004L71.4565-63.2004L71.4565-53.6049L84.091-53.6049Q87.4752-53.6049 89.2957-51.8518Q91.1162-50.0988 91.1162-46.5276L91.1162-0.114957Q91.1162 3.44589 89.2957 5.19974Q87.4752 6.95359 84.091 6.95359L29.0468 6.95359Q25.647 6.95359 23.8343 5.19974Q22.0216 3.44589 22.0216-0.114957L22.0216-46.5276Q22.0216-50.0988 23.8343-51.8518Q25.647-53.6049 29.0468-53.6049L41.7805-53.6049L41.7805-63.2004L28.47-63.2004Q20.5925-63.2004 16.5267-59.1779Q12.4609-55.1555 12.4609-47.3215L12.4609 0.678929Q12.4609 8.51292 16.5267 12.5354Q20.5925 16.5578 28.47 16.5578ZM56.5471-15.0766Q57.4481-15.0766 58.2831-15.4311Q59.1181-15.7856 59.9655-16.6226L76.3446-32.4197Q77.6703-33.6932 77.6703-35.2937Q77.6703-36.9785 76.4638-38.0902Q75.2574-39.2018 73.5993-39.2018Q71.755-39.2018 70.5841-37.8368L63.7253-30.546L60.6164-26.9898L61.1015-34.2289L61.1015-84.8456Q61.1015-86.6773 59.7607-87.99Q58.42-89.3028 56.5471-89.3028Q54.7279-89.3028 53.3821-87.99Q52.0363-86.6773 52.0363-84.8456L52.0363-34.2289L52.5213-26.9813L49.4038-30.546L42.5363-37.8368Q41.3308-39.2018 39.4863-39.2018Q37.7763-39.2018 36.6176-38.0902Q35.4589-36.9785 35.4589-35.2937Q35.4589-33.6932 36.7411-32.4197L53.1288-16.6226Q54.0196-15.7856 54.8555-15.4311Q55.6913-15.0766 56.5471-15.0766Z"/>
  </g>
  <g id="Regular-M" transform="matrix(1 0 0 1 1394.06 1126)">
   <path d="M27.7789 16.2478L83.7823 16.2478Q91.4407 16.2478 95.2705 12.4387Q99.1003 8.62949 99.1003 1.08506L99.1003-47.5657Q99.1003-55.1102 95.2705-58.9193Q91.4407-62.7285 83.7823-62.7285L70.1968-62.7285L70.1968-54.8338L83.6577-54.8338Q87.2859-54.8338 89.2663-52.9157Q91.2468-50.9976 91.2468-47.1824L91.2468 0.701758Q91.2468 4.5169 89.2663 6.42971Q87.2859 8.34251 83.6577 8.34251L27.9035 8.34251Q24.2435 8.34251 22.279 6.42971Q20.3144 4.5169 20.3144 0.701758L20.3144-47.1824Q20.3144-50.9976 22.279-52.9157Q24.2435-54.8338 27.9035-54.8338L41.3853-54.8338L41.3853-62.7285L27.7789-62.7285Q20.1615-62.7285 16.3112-58.9299Q12.4609-55.1313 12.4609-47.5657L12.4609 1.08506Q12.4609 8.65058 16.3112 12.4492Q20.1615 16.2478 27.7789 16.2478ZM55.7547-15.8533Q56.5108-15.8533 57.1947-16.1537Q57.8786-16.4541 58.5831-17.1586L75.0691-33.086Q76.2711-34.2255 76.2711-35.6451Q76.2711-37.1162 75.2297-38.1058Q74.1884-39.0954 72.6759-39.0954Q71.039-39.0954 70.0334-37.883L62.6312-30.0151L59.3603-26.5782L59.6815-33.8659L59.6815-85.3134Q59.6815-86.8986 58.5107-88.0177Q57.3399-89.1367 55.7547-89.1367Q54.2211-89.1367 53.0504-88.0177Q51.8797-86.8986 51.8797-85.3134L51.8797-33.8659L52.2007-26.5677L48.9193-30.0151L41.5065-37.883Q40.4599-39.0954 38.8228-39.0954Q37.2482-39.0954 36.2639-38.1058Q35.2795-37.1162 35.2795-35.6451Q35.2795-34.2255 36.4298-33.086L52.9263-17.1586Q53.6826-16.4541 54.3612-16.1537Q55.0397-15.8533 55.7547-15.8533Z"/>
  </g>
  <g id="Light-M" transform="matrix(1 0 0 1 1098.18 1126)">
   <path d="M26.8549 15.5122L83.0466 15.5122Q90.1916 15.5122 93.8161 11.8911Q97.4406 8.27013 97.4406 1.22191L97.4406-48.6266Q97.4406-55.6748 93.8161-59.2958Q90.1916-62.9168 83.0466-62.9168L69.1529-62.9168L69.1529-56.8701L82.922-56.8701Q86.978-56.8701 89.1894-54.721Q91.4009-52.5719 91.4009-48.3289L91.4009 0.924271Q91.4009 5.16719 89.1894 7.30236Q86.978 9.43754 82.922 9.43754L26.9795 9.43754Q22.8403 9.43754 20.6705 7.30236Q18.5007 5.16719 18.5007 0.924271L18.5007-48.3289Q18.5007-52.5719 20.6705-54.721Q22.8403-56.8701 26.9795-56.8701L40.8035-56.8701L40.8035-62.9168L26.8549-62.9168Q19.7165-62.9168 16.0887-59.3235Q12.4609-55.7301 12.4609-48.6266L12.4609 1.22191Q12.4609 8.32544 16.0887 11.9188Q19.7165 15.5122 26.8549 15.5122ZM54.9333-15.9048Q55.5012-15.9048 56.0311-16.1366Q56.561-16.3684 57.0945-16.9019L74.2478-33.7021Q75.176-34.5676 75.176-35.6624Q75.176-36.7911 74.3657-37.5668Q73.5553-38.3425 72.4192-38.3425Q71.1588-38.3425 70.3413-37.3868L62.0494-28.7832L57.7176-24.3194L57.9534-31.4018L57.9534-85.4502Q57.9534-86.6761 57.0563-87.5386Q56.1592-88.401 54.9333-88.401Q53.7419-88.401 52.845-87.5386Q51.9481-86.6761 51.9481-85.4502L51.9481-31.4018L52.1834-24.292L47.8243-28.7832L39.5045-37.3868Q38.6804-38.3425 37.4196-38.3425Q36.2216-38.3425 35.4596-37.5668Q34.6976-36.7911 34.6976-35.6624Q34.6976-34.5676 35.5915-33.7021L52.7722-16.9019Q53.3405-16.3684 53.8565-16.1366Q54.3725-15.9048 54.9333-15.9048Z"/>
  </g>
  <g id="Thin-M" transform="matrix(1 0 0 1 802.569 1126)">
   <path d="M25.6329 14.5392L82.0736 14.5392Q88.5395 14.5392 91.8926 11.167Q95.2456 7.79485 95.2456 1.40289L95.2456-50.0296Q95.2456-56.4215 91.8926-59.7937Q88.5395-63.1659 82.0736-63.1659L67.7723-63.1659L67.7723-59.5632L81.949-59.5632Q86.5708-59.5632 89.0877-57.1086Q91.6047-54.6539 91.6047-49.8453L91.6047 1.21856Q91.6047 6.02725 89.0877 8.45653Q86.5708 10.8858 81.949 10.8858L25.7575 10.8858Q20.9845 10.8858 18.5432 8.45653Q16.1019 6.02725 16.1019 1.21856L16.1019-49.8453Q16.1019-54.6539 18.5432-57.1086Q20.9845-59.5632 25.7575-59.5632L40.0339-59.5632L40.0339-63.1659L25.6329-63.1659Q19.1279-63.1659 15.7944-59.844Q12.4609-56.5221 12.4609-50.0296L12.4609 1.40289Q12.4609 7.89541 15.7944 11.2173Q19.1279 14.5392 25.6329 14.5392ZM53.847-15.9728Q54.1658-15.9728 54.4922-16.114Q54.8185-16.2551 55.1257-16.5623L73.1615-34.5169Q73.7278-35.0201 73.7278-35.6852Q73.7278-36.361 73.2229-36.8539Q72.7181-37.3467 72.0796-37.3467Q71.3174-37.3467 70.7485-36.7305L61.2798-27.154L55.545-21.332L55.6679-28.143L55.6679-85.6312Q55.6679-86.3818 55.1328-86.9049Q54.5977-87.428 53.847-87.428Q53.108-87.428 52.5733-86.9049Q52.0386-86.3818 52.0386-85.6312L52.0386-28.143L52.1606-21.2822L46.376-27.154L36.8566-36.7305Q36.3268-37.3467 35.5638-37.3467Q34.8638-37.3467 34.3959-36.8539Q33.928-36.361 33.928-35.6852Q33.928-35.0201 34.4827-34.5169L52.5684-16.5623Q52.888-16.2551 53.189-16.114Q53.49-15.9728 53.847-15.9728Z"/>
  </g>
  <g id="Ultralight-M" transform="matrix(1 0 0 1 506.42 1126)">
   <path d="M25.007 14.0408L81.5753 14.0408Q87.6933 14.0408 90.9073 10.7961Q94.1213 7.55142 94.1213 1.49559L94.1213-50.7482Q94.1213-56.804 90.9073-60.0487Q87.6933-63.2934 81.5753-63.2934L67.0652-63.2934L67.0652-60.9426L81.4507-60.9426Q86.3622-60.9426 89.0356-58.3315Q91.709-55.7204 91.709-50.6219L91.709 1.3693Q91.709 6.46777 89.0356 9.04768Q86.3622 11.6276 81.4507 11.6276L25.1316 11.6276Q20.0339 11.6276 17.4535 9.04768Q14.8732 6.46777 14.8732 1.3693L14.8732-50.6219Q14.8732-55.7204 17.4535-58.3315Q20.0339-60.9426 25.1316-60.9426L39.6397-60.9426L39.6397-63.2934L25.007-63.2934Q18.8264-63.2934 15.6437-60.1106Q12.4609-56.9278 12.4609-50.7482L12.4609 1.49559Q12.4609 7.67515 15.6437 10.858Q18.8264 14.0408 25.007 14.0408ZM53.2906-16.0077Q53.4819-16.0077 53.7039-16.1024Q53.926-16.1971 54.1173-16.3884L72.6051-34.9343Q72.986-35.2518 72.986-35.6969Q72.986-36.1408 72.6376-36.4887Q72.2892-36.8366 71.9057-36.8366Q71.3986-36.8366 70.9571-36.3944L60.8856-26.3195L54.4323-19.8019L54.4973-26.4738L54.4973-85.7239Q54.4973-86.2311 54.1476-86.5804Q53.7978-86.9297 53.2906-86.9297Q52.7834-86.9297 52.4342-86.5804Q52.085-86.2311 52.085-85.7239L52.085-26.4738L52.1489-19.7405L45.6342-26.3195L35.5004-36.3944Q35.1213-36.8366 34.6132-36.8366Q34.1684-36.8366 33.8511-36.4887Q33.5339-36.1408 33.5339-35.6969Q33.5339-35.2518 33.9148-34.9343L52.464-16.3884Q52.6563-16.1971 52.8471-16.1024Q53.038-16.0077 53.2906-16.0077Z"/>
  </g>
  <g id="Black-S" transform="matrix(1 0 0 1 2885.99 696)">
   <path d="M25 6.54297L69.8242 6.54297Q77.002 6.54297 81.0303 2.51465Q85.0586-1.51367 85.0586-8.69141L85.0586-43.7988Q85.0586-50.9766 81.0303-55.0049Q77.002-59.0332 69.8242-59.0332L60.9375-59.0332L60.9375-44.873L67.5781-44.873Q69.2871-44.873 70.0928-44.1406Q70.8984-43.4082 70.8984-41.5527L70.8984-10.9375Q70.8984-9.13086 70.0928-8.37402Q69.2871-7.61719 67.5781-7.61719L27.2461-7.61719Q25.5859-7.61719 24.7559-8.37402Q23.9258-9.13086 23.9258-10.9375L23.9258-41.5527Q23.9258-43.4082 24.7559-44.1406Q25.5859-44.873 27.2461-44.873L34.2773-44.873L34.2773-59.0332L25-59.0332Q17.8223-59.0332 13.7939-55.0049Q9.76562-50.9766 9.76562-43.7988L9.76562-8.69141Q9.76562-1.51367 13.7939 2.51465Q17.8223 6.54297 25 6.54297ZM47.4121-16.3574Q48.6816-16.3574 49.9268-16.8457Q51.1719-17.334 52.3926-18.5059L64.8438-30.4199Q66.3574-31.9336 66.3574-33.8867Q66.3574-36.0352 64.7705-37.3779Q63.1836-38.7207 61.3281-38.7207Q59.082-38.7207 57.5195-37.0605L54.248-33.5938L52.3926-30.2734L53.418-35.7422L53.418-72.2656Q53.418-74.6582 51.709-76.4404Q50-78.2227 47.4121-78.2227Q44.873-78.2227 43.1396-76.4404Q41.4062-74.6582 41.4062-72.2656L41.4062-35.7422L42.4316-30.2734L40.5762-33.5938L37.3047-37.0605Q35.7422-38.7207 33.4961-38.7207Q31.6406-38.7207 30.0537-37.3779Q28.4668-36.0352 28.4668-33.8867Q28.4668-31.9336 29.9805-30.4199L42.4316-18.5059Q43.6523-17.334 44.9219-16.8457Q46.1914-16.3574 47.4121-16.3574Z"/>
  </g>
  <g id="Heavy-S" transform="matrix(1 0 0 1 2590.05 696)">
   <path d="M24.3431 6.28943L68.9253 6.28943Q75.8841 6.28943 79.6934 2.48584Q83.5028-1.31776 83.5028-8.25348L83.5028-43.9371Q83.5028-50.8728 79.6934-54.6764Q75.8841-58.48 68.9253-58.48L59.6583-58.48L59.6583-45.9909L67.1863-45.9909Q69.1142-45.9909 70.0697-45.1029Q71.0252-44.2149 71.0252-42.1405L71.0252-10.0501Q71.0252-8.01299 70.0697-7.10633Q69.1142-6.19968 67.1863-6.19968L26.0821-6.19968Q24.1915-6.19968 23.2173-7.10633Q22.2432-8.01299 22.2432-10.0501L22.2432-42.1405Q22.2432-44.2149 23.2173-45.1029Q24.1915-45.9909 26.0821-45.9909L33.9086-45.9909L33.9086-58.48L24.3431-58.48Q17.3959-58.48 13.5807-54.6764Q9.76562-50.8728 9.76562-43.9371L9.76562-8.25348Q9.76562-1.31776 13.5807 2.48584Q17.3959 6.28943 24.3431 6.28943ZM46.6284-17.2218Q47.7597-17.2218 48.855-17.6582Q49.9503-18.0946 51.0327-19.1397L63.5184-31.0883Q64.9284-32.4868 64.9284-34.2786Q64.9284-36.2311 63.4971-37.4644Q62.0657-38.6977 60.3255-38.6977Q58.2638-38.6977 56.8626-37.1758L53.0956-33.1558L51.194-30.1006L52.0466-35.65L52.0466-72.7727Q52.0466-74.9348 50.4932-76.5326Q48.9397-78.1305 46.6284-78.1305Q44.366-78.1305 42.7939-76.5326Q41.2219-74.9348 41.2219-72.7727L41.2219-35.65L42.0744-30.1006L40.1728-33.1558L36.4058-37.1758Q34.9931-38.6977 32.9314-38.6977Q31.1796-38.6977 29.7598-37.4644Q28.34-36.2311 28.34-34.2786Q28.34-32.4868 29.7385-31.0883L42.2242-19.1397Q43.3181-18.0946 44.4321-17.6582Q45.546-17.2218 46.6284-17.2218Z"/>
  </g>
  <g id="Bold-S" transform="matrix(1 0 0 1 2294.21 696)">
   <path d="M23.6084 6.00586L67.9199 6.00586Q74.6338 6.00586 78.1982 2.45361Q81.7627-1.09863 81.7627-7.76367L81.7627-44.0918Q81.7627-50.7568 78.1982-54.3091Q74.6338-57.8613 67.9199-57.8613L58.2275-57.8613L58.2275-47.2412L66.748-47.2412Q68.9209-47.2412 70.0439-46.1792Q71.167-45.1172 71.167-42.7979L71.167-9.05762Q71.167-6.7627 70.0439-5.68848Q68.9209-4.61426 66.748-4.61426L24.7803-4.61426Q22.6318-4.61426 21.4966-5.68848Q20.3613-6.7627 20.3613-9.05762L20.3613-42.7979Q20.3613-45.1172 21.4966-46.1792Q22.6318-47.2412 24.7803-47.2412L33.4961-47.2412L33.4961-57.8613L23.6084-57.8613Q16.9189-57.8613 13.3423-54.3091Q9.76562-50.7568 9.76562-44.0918L9.76562-7.76367Q9.76562-1.09863 13.3423 2.45361Q16.9189 6.00586 23.6084 6.00586ZM45.752-18.1885Q46.7285-18.1885 47.6562-18.5669Q48.584-18.9453 49.5117-19.8486L62.0361-31.8359Q63.3301-33.1055 63.3301-34.7168Q63.3301-36.4502 62.0728-37.561Q60.8154-38.6719 59.2041-38.6719Q57.3486-38.6719 56.1279-37.3047L51.8066-32.666L49.8535-29.9072L50.5127-35.5469L50.5127-73.3398Q50.5127-75.2441 49.1333-76.6357Q47.7539-78.0273 45.752-78.0273Q43.7988-78.0273 42.4072-76.6357Q41.0156-75.2441 41.0156-73.3398L41.0156-35.5469L41.6748-29.9072L39.7217-32.666L35.4004-37.3047Q34.1553-38.6719 32.2998-38.6719Q30.6641-38.6719 29.4312-37.561Q28.1982-36.4502 28.1982-34.7168Q28.1982-33.1055 29.4678-31.8359L41.9922-19.8486Q42.9443-18.9453 43.8843-18.5669Q44.8242-18.1885 45.752-18.1885Z"/>
  </g>
  <g id="Semibold-S" transform="matrix(1 0 0 1 1998.1 696)">
   <path d="M23.1019 5.81035L67.2268 5.81035Q73.7718 5.81035 77.1674 2.4314Q80.563-0.947559 80.563-7.42598L80.563-44.1984Q80.563-50.6769 77.1674-54.0558Q73.7718-57.4348 67.2268-57.4348L57.2411-57.4348L57.2411-48.1032L66.4459-48.1032Q68.7876-48.1032 70.0262-46.9212Q71.2647-45.7393 71.2647-43.2511L71.2647-8.37334Q71.2647-5.90068 70.0262-4.71094Q68.7876-3.52119 66.4459-3.52119L23.8827-3.52119Q21.5565-3.52119 20.3102-4.71094Q19.0639-5.90068 19.0639-8.37334L19.0639-43.2511Q19.0639-45.7393 20.3102-46.9212Q21.5565-48.1032 23.8827-48.1032L33.2117-48.1032L33.2117-57.4348L23.1019-57.4348Q16.5901-57.4348 13.1779-54.0558Q9.76562-50.6769 9.76562-44.1984L9.76562-7.42598Q9.76562-0.947559 13.1779 2.4314Q16.5901 5.81035 23.1019 5.81035ZM45.1477-18.855Q46.0176-18.855 46.8298-19.1934Q47.642-19.5318 48.4631-20.3374L61.0142-32.3514Q62.2281-33.532 62.2281-35.0189Q62.2281-36.6013 61.0908-37.6277Q59.9534-38.6541 58.431-38.6541Q56.7177-38.6541 55.6214-37.3936L50.918-32.3283L48.9293-29.7739L49.4552-35.4758L49.4552-73.7309Q49.4552-75.4574 48.1958-76.7068Q46.9363-77.9562 45.1477-77.9562Q43.4078-77.9562 42.1406-76.7068Q40.8734-75.4574 40.8734-73.7309L40.8734-35.4758L41.3993-29.7739L39.4106-32.3283L34.7072-37.3936Q33.5776-38.6541 31.8644-38.6541Q30.3086-38.6541 29.2045-37.6277Q28.1005-36.6013 28.1005-35.0189Q28.1005-33.532 29.2812-32.3514L41.8322-20.3374Q42.6866-19.5318 43.5066-19.1934Q44.3266-18.855 45.1477-18.855Z"/>
  </g>
  <g id="Medium-S" transform="matrix(1 0 0 1 1701.85 696)">
   <path d="M22.7178 5.66211L66.7012 5.66211Q73.1182 5.66211 76.3857 2.41455Q79.6533-0.833008 79.6533-7.16992L79.6533-44.2793Q79.6533-50.6162 76.3857-53.8638Q73.1182-57.1113 66.7012-57.1113L56.4932-57.1113L56.4932-48.7568L66.2168-48.7568Q68.6865-48.7568 70.0127-47.4839Q71.3389-46.2109 71.3389-43.5947L71.3389-7.85449Q71.3389-5.24707 70.0127-3.96973Q68.6865-2.69238 66.2168-2.69238L23.2021-2.69238Q20.7412-2.69238 19.4106-3.96973Q18.0801-5.24707 18.0801-7.85449L18.0801-43.5947Q18.0801-46.2109 19.4106-47.4839Q20.7412-48.7568 23.2021-48.7568L32.9961-48.7568L32.9961-57.1113L22.7178-57.1113Q16.3408-57.1113 13.0532-53.8638Q9.76562-50.6162 9.76562-44.2793L9.76562-7.16992Q9.76562-0.833008 13.0532 2.41455Q16.3408 5.66211 22.7178 5.66211ZM44.6895-19.3604Q45.4785-19.3604 46.2031-19.6685Q46.9277-19.9766 47.668-20.708L60.2393-32.7422Q61.3926-33.8555 61.3926-35.248Q61.3926-36.7158 60.3462-37.6782Q59.2998-38.6406 57.8447-38.6406Q56.2393-38.6406 55.2373-37.4609L50.2441-32.0723L48.2285-29.6729L48.6533-35.4219L48.6533-74.0273Q48.6533-75.6191 47.4849-76.7607Q46.3164-77.9023 44.6895-77.9023Q43.1113-77.9023 41.9385-76.7607Q40.7656-75.6191 40.7656-74.0273L40.7656-35.4219L41.1904-29.6729L39.1748-32.0723L34.1816-37.4609Q33.1396-38.6406 31.5342-38.6406Q30.0391-38.6406 29.0327-37.6782Q28.0264-36.7158 28.0264-35.248Q28.0264-33.8555 29.1396-32.7422L41.7109-20.708Q42.4912-19.9766 43.2202-19.6685Q43.9492-19.3604 44.6895-19.3604Z"/>
  </g>
  <g id="Regular-S" transform="matrix(1 0 0 1 1405.73 696)">
   <path d="M22.2168 5.46875L66.0156 5.46875Q72.2656 5.46875 75.3662 2.39258Q78.4668-0.683594 78.4668-6.83594L78.4668-44.3848Q78.4668-50.5371 75.3662-53.6133Q72.2656-56.6895 66.0156-56.6895L55.5176-56.6895L55.5176-49.6094L65.918-49.6094Q68.5547-49.6094 69.9951-48.2178Q71.4355-46.8262 71.4355-44.043L71.4355-7.17773Q71.4355-4.39453 69.9951-3.00293Q68.5547-1.61133 65.918-1.61133L22.3145-1.61133Q19.6777-1.61133 18.2373-3.00293Q16.7969-4.39453 16.7969-7.17773L16.7969-44.043Q16.7969-46.8262 18.2373-48.2178Q19.6777-49.6094 22.3145-49.6094L32.7148-49.6094L32.7148-56.6895L22.2168-56.6895Q16.0156-56.6895 12.8906-53.6133Q9.76562-50.5371 9.76562-44.3848L9.76562-6.83594Q9.76562-0.683594 12.8906 2.39258Q16.0156 5.46875 22.2168 5.46875ZM44.0918-20.0195Q44.7754-20.0195 45.3857-20.2881Q45.9961-20.5566 46.6309-21.1914L59.2285-33.252Q60.3027-34.2773 60.3027-35.5469Q60.3027-36.8652 59.375-37.7441Q58.4473-38.623 57.0801-38.623Q55.6152-38.623 54.7363-37.5488L49.3652-31.7383L47.3145-29.541L47.6074-35.3516L47.6074-74.4141Q47.6074-75.8301 46.5576-76.8311Q45.5078-77.832 44.0918-77.832Q42.7246-77.832 41.6748-76.8311Q40.625-75.8301 40.625-74.4141L40.625-35.3516L40.918-29.541L38.8672-31.7383L33.4961-37.5488Q32.5684-38.623 31.1035-38.623Q29.6875-38.623 28.8086-37.7441Q27.9297-36.8652 27.9297-35.5469Q27.9297-34.2773 28.9551-33.252L41.5527-21.1914Q42.2363-20.5566 42.8467-20.2881Q43.457-20.0195 44.0918-20.0195Z"/>
  </g>
  <g id="Light-S" transform="matrix(1 0 0 1 1109.75 696)">
   <path d="M21.3994 4.81796L65.3648 4.81796Q71.1606 4.81796 74.0796 1.90824Q76.9986-1.00149 76.9986-6.71488L76.9986-45.3232Q76.9986-51.0366 74.0796-53.9463Q71.1606-56.856 65.3648-56.856L54.5942-56.856L54.5942-51.4107L65.2672-51.4107Q68.2823-51.4107 69.9271-49.8147Q71.5719-48.2188 71.5719-45.0572L71.5719-6.9809Q71.5719-3.81927 69.9271-2.23096Q68.2823-0.642649 65.2672-0.642649L21.4971-0.642649Q18.4364-0.642649 16.8144-2.23096Q15.1924-3.81927 15.1924-6.9809L15.1924-45.0572Q15.1924-48.2188 16.8144-49.8147Q18.4364-51.4107 21.4971-51.4107L32.2001-51.4107L32.2001-56.856L21.3994-56.856Q15.6219-56.856 12.6938-53.9614Q9.76562-51.0668 9.76562-45.3232L9.76562-6.71488Q9.76562-0.971222 12.6938 1.92337Q15.6219 4.81796 21.3994 4.81796ZM43.3652-20.0651Q43.8822-20.0651 44.3564-20.273Q44.8306-20.4809 45.314-20.9643L58.5019-33.7969Q59.3341-34.58 59.3341-35.5621Q59.3341-36.5776 58.6107-37.2673Q57.8873-37.957 56.853-37.957Q55.7213-37.957 55.0087-37.1099L48.8505-30.6485L45.8613-27.5429L46.0787-33.1718L46.0787-74.5351Q46.0787-75.6332 45.271-76.4072Q44.4633-77.1812 43.3652-77.1812Q42.3007-77.1812 41.4931-76.4072Q40.6855-75.6332 40.6855-74.5351L40.6855-33.1718L40.9027-27.5279L37.8985-30.6485L31.7251-37.1099Q30.9942-37.957 29.8622-37.957Q28.7793-37.957 28.0972-37.2673Q27.415-36.5776 27.415-35.5621Q27.415-34.58 28.2135-33.7969L41.4164-20.9643Q41.9337-20.4809 42.4002-20.273Q42.8668-20.0651 43.3652-20.0651Z"/>
  </g>
  <g id="Thin-S" transform="matrix(1 0 0 1 814.011 696)">
   <path d="M20.3184 3.95724L64.5041 3.95724Q69.6992 3.95724 72.378 1.26766Q75.0569-1.42192 75.0569-6.55478L75.0569-46.5643Q75.0569-51.6972 72.378-54.3868Q69.6992-57.0763 64.5041-57.0763L53.3729-57.0763L53.3729-53.793L64.4065-53.793Q67.9221-53.793 69.8371-51.9268Q71.7521-50.0606 71.7521-46.3985L71.7521-6.72056Q71.7521-3.05845 69.8371-1.20997Q67.9221 0.638506 64.4065 0.638506L20.4161 0.638506Q16.7947 0.638506 14.9325-1.20997Q13.0704-3.05845 13.0704-6.72056L13.0704-46.3985Q13.0704-50.0606 14.9325-51.9268Q16.7947-53.793 20.4161-53.793L31.5193-53.793L31.5193-57.0763L20.3184-57.0763Q15.1013-57.0763 12.4335-54.4219Q9.76562-51.7675 9.76562-46.5643L9.76562-6.55478Q9.76562-1.35163 12.4335 1.30281Q15.1013 3.95724 20.3184 3.95724ZM42.4043-20.1253Q42.701-20.1253 42.995-20.2529Q43.2891-20.3806 43.5724-20.6639L57.541-34.5177Q58.0529-34.9802 58.0529-35.5823Q58.0529-36.1972 57.5998-36.6366Q57.1466-37.0761 56.5526-37.0761Q55.8615-37.0761 55.3689-36.5293L48.1697-29.2073L43.9394-24.9002L44.0569-30.289L44.0569-74.6952Q44.0569-75.3729 43.5695-75.8467Q43.082-76.3205 42.4043-76.3205Q41.74-76.3205 41.2528-75.8467Q40.7656-75.3729 40.7656-74.6952L40.7656-30.289L40.8825-24.8653L36.6174-29.2073L29.3827-36.5293Q28.9122-37.0761 28.2205-37.0761Q27.5782-37.0761 27.1562-36.6366Q26.7342-36.1972 26.7342-35.5823Q26.7342-34.9802 27.2327-34.5177L41.2361-20.6639Q41.5334-20.3806 41.8098-20.2529Q42.0861-20.1253 42.4043-20.1253Z"/>
  </g>
  <g id="Ultralight-S" transform="matrix(1 0 0 1 517.797 696)">
   <path d="M19.7647 3.51639L64.0633 3.51639Q68.9507 3.51639 71.5065 0.93956Q74.0623-1.63727 74.0623-6.47278L74.0623-47.2Q74.0623-52.0355 71.5065-54.6124Q68.9507-57.1892 64.0633-57.1892L52.7473-57.1892L52.7473-55.0133L63.9656-55.0133Q67.7376-55.0133 69.791-53.0087Q71.8445-51.004 71.8445-47.0856L71.8445-6.58722Q71.8445-2.66876 69.791-0.687027Q67.7376 1.29471 63.9656 1.29471L19.8624 1.29471Q15.9538 1.29471 13.9687-0.687027Q11.9835-2.66876 11.9835-6.58722L11.9835-47.0856Q11.9835-51.004 13.9687-53.0087Q15.9538-55.0133 19.8624-55.0133L31.1707-55.0133L31.1707-57.1892L19.7647-57.1892Q14.8346-57.1892 12.3001-54.6577Q9.76562-52.1263 9.76562-47.2L9.76562-6.47278Q9.76562-1.54648 12.3001 0.984955Q14.8346 3.51639 19.7647 3.51639ZM41.9121-20.1561Q42.0959-20.1561 42.2977-20.2427Q42.4995-20.3293 42.6804-20.5101L57.0488-34.8869Q57.3967-35.1852 57.3967-35.5927Q57.3967-36.0023 57.082-36.3136Q56.7673-36.6249 56.3988-36.6249Q55.9334-36.6249 55.5534-36.232L47.821-28.4691L42.955-23.5466L43.0214-28.8124L43.0214-74.7772Q43.0214-75.2396 42.6979-75.5596Q42.3744-75.8797 41.9121-75.8797Q41.4528-75.8797 41.1297-75.5596Q40.8066-75.2396 40.8066-74.7772L40.8066-28.8124L40.8722-23.5016L35.9612-28.4691L28.183-36.232Q27.8458-36.6249 27.3796-36.6249Q26.963-36.6249 26.6743-36.3136Q26.3855-36.0023 26.3855-35.5927Q26.3855-35.1852 26.7303-34.8869L41.1438-20.5101Q41.3284-20.3293 41.5073-20.2427Q41.6862-20.1561 41.9121-20.1561Z"/>
  </g>
 </g>
</svg>
