<?xml version="1.0" encoding="UTF-8"?>
<!--Generator: Apple Native CoreSVG 175-->
<!DOCTYPE svg
PUBLIC "-//W3C//DTD SVG 1.1//EN"
       "http://www.w3.org/Graphics/SVG/1.1/DTD/svg11.dtd">
<svg version="1.1" xmlns="http://www.w3.org/2000/svg" xmlns:xlink="http://www.w3.org/1999/xlink" width="3300" height="2200">
 <!--glyph: "uni10096D.medium", point size: 100.0, font version: "17.1d1e1", template writer version: "65.1"-->
 <g id="Notes">
  <rect height="2200" id="artboard" style="fill:white;opacity:1" width="3300" x="0" y="0"/>
  <line style="fill:none;stroke:black;opacity:1;stroke-width:0.5;" x1="263" x2="3036" y1="292" y2="292"/>
  <text style="stroke:none;fill:black;font-family:sans-serif;font-size:13;font-weight:bold;" transform="matrix(1 0 0 1 263 322)">Weight/Scale Variations</text>
  <text style="stroke:none;fill:black;font-family:sans-serif;font-size:13;text-anchor:middle;" transform="matrix(1 0 0 1 559.711 322)">Ultralight</text>
  <text style="stroke:none;fill:black;font-family:sans-serif;font-size:13;text-anchor:middle;" transform="matrix(1 0 0 1 856.422 322)">Thin</text>
  <text style="stroke:none;fill:black;font-family:sans-serif;font-size:13;text-anchor:middle;" transform="matrix(1 0 0 1 1153.13 322)">Light</text>
  <text style="stroke:none;fill:black;font-family:sans-serif;font-size:13;text-anchor:middle;" transform="matrix(1 0 0 1 1449.84 322)">Regular</text>
  <text style="stroke:none;fill:black;font-family:sans-serif;font-size:13;text-anchor:middle;" transform="matrix(1 0 0 1 1746.56 322)">Medium</text>
  <text style="stroke:none;fill:black;font-family:sans-serif;font-size:13;text-anchor:middle;" transform="matrix(1 0 0 1 2043.27 322)">Semibold</text>
  <text style="stroke:none;fill:black;font-family:sans-serif;font-size:13;text-anchor:middle;" transform="matrix(1 0 0 1 2339.98 322)">Bold</text>
  <text style="stroke:none;fill:black;font-family:sans-serif;font-size:13;text-anchor:middle;" transform="matrix(1 0 0 1 2636.69 322)">Heavy</text>
  <text style="stroke:none;fill:black;font-family:sans-serif;font-size:13;text-anchor:middle;" transform="matrix(1 0 0 1 2933.4 322)">Black</text>
  <line style="fill:none;stroke:black;opacity:1;stroke-width:0.5;" x1="263" x2="3036" y1="1903" y2="1903"/>
  <g transform="matrix(1 0 0 1 263 1933)">
   <path d="M9.24805 0.830078Q10.8691 0.830078 12.2949 0.214844Q13.7207-0.400391 14.8096-1.49414Q15.8984-2.58789 16.5186-4.01367Q17.1387-5.43945 17.1387-7.05078Q17.1387-8.66211 16.5186-10.0879Q15.8984-11.5137 14.8047-12.6074Q13.7109-13.7012 12.2852-14.3164Q10.8594-14.9316 9.23828-14.9316Q7.62695-14.9316 6.20117-14.3164Q4.77539-13.7012 3.69141-12.6074Q2.60742-11.5137 1.9873-10.0879Q1.36719-8.66211 1.36719-7.05078Q1.36719-5.43945 1.9873-4.01367Q2.60742-2.58789 3.69629-1.49414Q4.78516-0.400391 6.21094 0.214844Q7.63672 0.830078 9.24805 0.830078ZM9.24805-0.654297Q7.91992-0.654297 6.7627-1.14746Q5.60547-1.64062 4.73145-2.51953Q3.85742-3.39844 3.36426-4.56055Q2.87109-5.72266 2.87109-7.05078Q2.87109-8.37891 3.35938-9.54102Q3.84766-10.7031 4.72168-11.582Q5.5957-12.4609 6.75293-12.9541Q7.91016-13.4473 9.23828-13.4473Q10.5762-13.4473 11.7334-12.9541Q12.8906-12.4609 13.7695-11.582Q14.6484-10.7031 15.1465-9.54102Q15.6445-8.37891 15.6445-7.05078Q15.6445-5.72266 15.1514-4.56055Q14.6582-3.39844 13.7842-2.51953Q12.9102-1.64062 11.748-1.14746Q10.5859-0.654297 9.24805-0.654297ZM5.6543-7.05078Q5.6543-6.72852 5.85938-6.52832Q6.06445-6.32812 6.40625-6.32812L8.51562-6.32812L8.51562-4.20898Q8.51562-3.88672 8.71094-3.67676Q8.90625-3.4668 9.23828-3.4668Q9.56055-3.4668 9.77051-3.67676Q9.98047-3.88672 9.98047-4.20898L9.98047-6.32812L12.0898-6.32812Q12.4219-6.32812 12.627-6.52832Q12.832-6.72852 12.832-7.05078Q12.832-7.38281 12.627-7.58789Q12.4219-7.79297 12.0898-7.79297L9.98047-7.79297L9.98047-9.90234Q9.98047-10.2344 9.77051-10.4443Q9.56055-10.6543 9.23828-10.6543Q8.90625-10.6543 8.71094-10.4443Q8.51562-10.2344 8.51562-9.90234L8.51562-7.79297L6.40625-7.79297Q6.06445-7.79297 5.85938-7.58789Q5.6543-7.38281 5.6543-7.05078Z"/>
  </g>
  <g transform="matrix(1 0 0 1 281.867 1933)">
   <path d="M11.709 2.91016Q13.75 2.91016 15.5518 2.12891Q17.3535 1.34766 18.7305-0.0292969Q20.1074-1.40625 20.8887-3.20801Q21.6699-5.00977 21.6699-7.05078Q21.6699-9.0918 20.8887-10.8936Q20.1074-12.6953 18.7305-14.0723Q17.3535-15.4492 15.5469-16.2305Q13.7402-17.0117 11.6992-17.0117Q9.6582-17.0117 7.85645-16.2305Q6.05469-15.4492 4.68262-14.0723Q3.31055-12.6953 2.5293-10.8936Q1.74805-9.0918 1.74805-7.05078Q1.74805-5.00977 2.5293-3.20801Q3.31055-1.40625 4.6875-0.0292969Q6.06445 1.34766 7.86621 2.12891Q9.66797 2.91016 11.709 2.91016ZM11.709 1.25Q9.98047 1.25 8.47656 0.605469Q6.97266-0.0390625 5.83496-1.17676Q4.69727-2.31445 4.05762-3.81836Q3.41797-5.32227 3.41797-7.05078Q3.41797-8.7793 4.05762-10.2832Q4.69727-11.7871 5.83008-12.9297Q6.96289-14.0723 8.4668-14.7119Q9.9707-15.3516 11.6992-15.3516Q13.4277-15.3516 14.9316-14.7119Q16.4355-14.0723 17.5781-12.9297Q18.7207-11.7871 19.3652-10.2832Q20.0098-8.7793 20.0098-7.05078Q20.0098-5.32227 19.3701-3.81836Q18.7305-2.31445 17.5928-1.17676Q16.4551-0.0390625 14.9463 0.605469Q13.4375 1.25 11.709 1.25ZM7.17773-7.05078Q7.17773-6.69922 7.41211-6.47461Q7.64648-6.25 8.01758-6.25L10.8887-6.25L10.8887-3.36914Q10.8887-2.99805 11.1133-2.76855Q11.3379-2.53906 11.6895-2.53906Q12.0605-2.53906 12.29-2.76855Q12.5195-2.99805 12.5195-3.36914L12.5195-6.25L15.4004-6.25Q15.7715-6.25 16.001-6.47461Q16.2305-6.69922 16.2305-7.05078Q16.2305-7.42188 16.001-7.65137Q15.7715-7.88086 15.4004-7.88086L12.5195-7.88086L12.5195-10.752Q12.5195-11.1328 12.29-11.3623Q12.0605-11.5918 11.6895-11.5918Q11.3379-11.5918 11.1133-11.3574Q10.8887-11.123 10.8887-10.752L10.8887-7.88086L8.01758-7.88086Q7.63672-7.88086 7.40723-7.65137Q7.17773-7.42188 7.17773-7.05078Z"/>
  </g>
  <g transform="matrix(1 0 0 1 305.646 1933)">
   <path d="M14.9707 5.66406Q17.0605 5.66406 18.96 5.01465Q20.8594 4.36523 22.4512 3.19336Q24.043 2.02148 25.2197 0.429688Q26.3965-1.16211 27.0459-3.06641Q27.6953-4.9707 27.6953-7.05078Q27.6953-9.14062 27.0459-11.04Q26.3965-12.9395 25.2197-14.5312Q24.043-16.123 22.4512-17.2998Q20.8594-18.4766 18.9551-19.126Q17.0508-19.7754 14.9609-19.7754Q12.8711-19.7754 10.9717-19.126Q9.07227-18.4766 7.48535-17.2998Q5.89844-16.123 4.72168-14.5312Q3.54492-12.9395 2.90039-11.04Q2.25586-9.14062 2.25586-7.05078Q2.25586-4.9707 2.90527-3.06641Q3.55469-1.16211 4.72656 0.429688Q5.89844 2.02148 7.49023 3.19336Q9.08203 4.36523 10.9814 5.01465Q12.8809 5.66406 14.9707 5.66406ZM14.9707 3.84766Q13.1641 3.84766 11.5283 3.2959Q9.89258 2.74414 8.53516 1.74805Q7.17773 0.751953 6.17676-0.610352Q5.17578-1.97266 4.62891-3.6084Q4.08203-5.24414 4.08203-7.05078Q4.08203-8.86719 4.62891-10.5029Q5.17578-12.1387 6.17188-13.501Q7.16797-14.8633 8.52539-15.8594Q9.88281-16.8555 11.5186-17.4023Q13.1543-17.9492 14.9609-17.9492Q16.7773-17.9492 18.4131-17.4023Q20.0488-16.8555 21.4111-15.8594Q22.7734-14.8633 23.7695-13.501Q24.7656-12.1387 25.3174-10.5029Q25.8691-8.86719 25.8691-7.05078Q25.8789-5.24414 25.332-3.6084Q24.7852-1.97266 23.7842-0.610352Q22.7832 0.751953 21.4209 1.74805Q20.0586 2.74414 18.4229 3.2959Q16.7871 3.84766 14.9707 3.84766ZM9.19922-7.05078Q9.19922-6.66992 9.45801-6.4209Q9.7168-6.17188 10.1172-6.17188L14.0625-6.17188L14.0625-2.2168Q14.0625-1.81641 14.3115-1.55762Q14.5605-1.29883 14.9512-1.29883Q15.3516-1.29883 15.6104-1.55273Q15.8691-1.80664 15.8691-2.2168L15.8691-6.17188L19.8242-6.17188Q20.2246-6.17188 20.4785-6.4209Q20.7324-6.66992 20.7324-7.05078Q20.7324-7.46094 20.4785-7.71484Q20.2246-7.96875 19.8242-7.96875L15.8691-7.96875L15.8691-11.9141Q15.8691-12.3242 15.6104-12.583Q15.3516-12.8418 14.9512-12.8418Q14.5605-12.8418 14.3115-12.583Q14.0625-12.3242 14.0625-11.9141L14.0625-7.96875L10.1172-7.96875Q9.70703-7.96875 9.45312-7.71484Q9.19922-7.46094 9.19922-7.05078Z"/>
  </g>
  <text style="stroke:none;fill:black;font-family:sans-serif;font-size:13;font-weight:bold;" transform="matrix(1 0 0 1 263 1953)">Design Variations</text>
  <text style="stroke:none;fill:black;font-family:sans-serif;font-size:13;" transform="matrix(1 0 0 1 263 1971)">Symbols are supported in up to nine weights and three scales.</text>
  <text style="stroke:none;fill:black;font-family:sans-serif;font-size:13;" transform="matrix(1 0 0 1 263 1989)">For optimal layout with text and other symbols, vertically align</text>
  <text style="stroke:none;fill:black;font-family:sans-serif;font-size:13;" transform="matrix(1 0 0 1 263 2007)">symbols with the adjacent text.</text>
  <line style="fill:none;stroke:#00AEEF;stroke-width:0.5;opacity:1.0;" x1="776" x2="776" y1="1919" y2="1933"/>
  <g transform="matrix(1 0 0 1 776 1933)">
   <path d="M3.31055 0.15625Q3.70117 0.15625 3.91602-0.00976562Q4.13086-0.175781 4.26758-0.585938L5.52734-4.0332L11.2891-4.0332L12.5488-0.585938Q12.6855-0.175781 12.9004-0.00976562Q13.1152 0.15625 13.4961 0.15625Q13.8867 0.15625 14.1162-0.0585938Q14.3457-0.273438 14.3457-0.644531Q14.3457-0.869141 14.2383-1.17188L9.6582-13.3691Q9.48242-13.8184 9.17969-14.043Q8.87695-14.2676 8.4082-14.2676Q7.5-14.2676 7.17773-13.3789L2.59766-1.16211Q2.49023-0.859375 2.49023-0.634766Q2.49023-0.263672 2.70996-0.0537109Q2.92969 0.15625 3.31055 0.15625ZM6.00586-5.51758L8.37891-12.0898L8.42773-12.0898L10.8008-5.51758Z"/>
  </g>
  <line style="fill:none;stroke:#00AEEF;stroke-width:0.5;opacity:1.0;" x1="793.197" x2="793.197" y1="1919" y2="1933"/>
  <text style="stroke:none;fill:black;font-family:sans-serif;font-size:13;font-weight:bold;" transform="matrix(1 0 0 1 776 1953)">Margins</text>
  <text style="stroke:none;fill:black;font-family:sans-serif;font-size:13;" transform="matrix(1 0 0 1 776 1971)">Leading and trailing margins on the left and right side of each symbol</text>
  <text style="stroke:none;fill:black;font-family:sans-serif;font-size:13;" transform="matrix(1 0 0 1 776 1989)">can be adjusted by modifying the x-location of the margin guidelines.</text>
  <text style="stroke:none;fill:black;font-family:sans-serif;font-size:13;" transform="matrix(1 0 0 1 776 2007)">Modifications are automatically applied proportionally to all</text>
  <text style="stroke:none;fill:black;font-family:sans-serif;font-size:13;" transform="matrix(1 0 0 1 776 2025)">scales and weights.</text>
  <g transform="matrix(1 0 0 1 1289 1933)">
   <path d="M2.8418 1.86523L4.54102 3.57422Q5.18555 4.22852 5.90332 4.17969Q6.62109 4.13086 7.31445 3.35938L18.0078-8.42773L17.041-9.4043L6.42578 2.27539Q6.16211 2.57812 5.89355 2.61719Q5.625 2.65625 5.27344 2.30469L4.10156 1.14258Q3.75 0.791016 3.79395 0.522461Q3.83789 0.253906 4.14062-0.0195312L15.6152-10.8203L14.6387-11.7871L3.04688-0.898438Q2.30469-0.214844 2.25098 0.498047Q2.19727 1.21094 2.8418 1.86523ZM9.25781-16.3281Q8.94531-16.0254 8.90625-15.6348Q8.86719-15.2441 9.04297-14.9512Q9.21875-14.6777 9.55566-14.541Q9.89258-14.4043 10.3809-14.5215Q11.4746-14.7754 12.5977-14.7314Q13.7207-14.6875 14.7949-13.9844L14.209-12.5293Q13.9551-11.9043 14.0674-11.4404Q14.1797-10.9766 14.5801-10.5664L16.875-8.25195Q17.2363-7.88086 17.5781-7.82227Q17.9199-7.76367 18.3398-7.8418L19.4043-8.03711L20.0684-7.36328L20.0293-6.80664Q20-6.43555 20.1221-6.12305Q20.2441-5.81055 20.6055-5.44922L21.3672-4.70703Q21.7285-4.3457 22.1533-4.33105Q22.5781-4.31641 22.9297-4.66797L25.8398-7.58789Q26.1914-7.93945 26.1816-8.35449Q26.1719-8.76953 25.8105-9.13086L25.0391-9.89258Q24.6875-10.2539 24.3799-10.3857Q24.0723-10.5176 23.7109-10.4883L23.1348-10.4395L22.4902-11.0742L22.7344-12.1973Q22.832-12.6172 22.6953-12.9834Q22.5586-13.3496 22.1191-13.7891L19.9219-15.9766Q18.6719-17.2168 17.2607-17.8369Q15.8496-18.457 14.4189-18.4814Q12.9883-18.5059 11.665-17.959Q10.3418-17.4121 9.25781-16.3281ZM10.752-15.957Q11.6602-16.6211 12.7002-16.9043Q13.7402-17.1875 14.8047-17.085Q15.8691-16.9824 16.8701-16.5137Q17.8711-16.0449 18.7012-15.2051L21.1328-12.793Q21.3086-12.6172 21.3525-12.4512Q21.3965-12.2852 21.3379-12.0312L21.0156-10.5469L22.5195-9.0625L23.5059-9.12109Q23.6914-9.13086 23.7891-9.09668Q23.8867-9.0625 24.0332-8.91602L24.6094-8.33984L22.168-5.89844L21.5918-6.47461Q21.4453-6.62109 21.4062-6.71875Q21.3672-6.81641 21.377-7.01172L21.4453-7.98828L19.9512-9.47266L18.4277-9.21875Q18.1836-9.16992 18.042-9.2041Q17.9004-9.23828 17.7148-9.41406L15.7129-11.416Q15.5176-11.5918 15.4932-11.7529Q15.4688-11.9141 15.5859-12.1875L16.4648-14.2773Q15.293-15.3711 13.8281-15.791Q12.3633-16.2109 10.8398-15.7617Q10.7227-15.7324 10.6885-15.8057Q10.6543-15.8789 10.752-15.957Z"/>
  </g>
  <text style="stroke:none;fill:black;font-family:sans-serif;font-size:13;font-weight:bold;" transform="matrix(1 0 0 1 1289 1953)">Exporting</text>
  <text style="stroke:none;fill:black;font-family:sans-serif;font-size:13;" transform="matrix(1 0 0 1 1289 1971)">Symbols should be outlined when exporting to ensure the</text>
  <text style="stroke:none;fill:black;font-family:sans-serif;font-size:13;" transform="matrix(1 0 0 1 1289 1989)">design is preserved when submitting to Xcode.</text>
  <text id="template-version" style="stroke:none;fill:black;font-family:sans-serif;font-size:13;text-anchor:end;" transform="matrix(1 0 0 1 3036 1933)">Template v.3.0</text>
  <text style="stroke:none;fill:black;font-family:sans-serif;font-size:13;text-anchor:end;" transform="matrix(1 0 0 1 3036 1951)">Requires Xcode 13 or greater</text>
  <text id="descriptive-name" style="stroke:none;fill:black;font-family:sans-serif;font-size:13;text-anchor:end;" transform="matrix(1 0 0 1 3036 1969)">Generated from puzzlepiece.extension</text>
  <text style="stroke:none;fill:black;font-family:sans-serif;font-size:13;text-anchor:end;" transform="matrix(1 0 0 1 3036 1987)">Typeset at 100 points</text>
  <text style="stroke:none;fill:black;font-family:sans-serif;font-size:13;" transform="matrix(1 0 0 1 263 726)">Small</text>
  <text style="stroke:none;fill:black;font-family:sans-serif;font-size:13;" transform="matrix(1 0 0 1 263 1156)">Medium</text>
  <text style="stroke:none;fill:black;font-family:sans-serif;font-size:13;" transform="matrix(1 0 0 1 263 1586)">Large</text>
 </g>
 <g id="Guides">
  <g id="H-reference" style="fill:#27AAE1;stroke:none;" transform="matrix(1 0 0 1 339 696)">
   <path d="M0.993347 0L3.6377 0L29.3282-67.1326L30.0301-67.1326L30.0301-70.459L28.1227-70.459ZM11.6882-24.4797L46.9818-24.4797L46.2311-26.7288L12.4382-26.7288ZM55.1193 0L57.7637 0L30.6381-70.459L29.4327-70.459L29.4327-67.1326Z"/>
  </g>
  <line id="Baseline-S" style="fill:none;stroke:#27AAE1;opacity:1;stroke-width:0.5;" x1="263" x2="3036" y1="696" y2="696"/>
  <line id="Capline-S" style="fill:none;stroke:#27AAE1;opacity:1;stroke-width:0.5;" x1="263" x2="3036" y1="625.541" y2="625.541"/>
  <g id="H-reference" style="fill:#27AAE1;stroke:none;" transform="matrix(1 0 0 1 339 1126)">
   <path d="M0.993347 0L3.6377 0L29.3282-67.1326L30.0301-67.1326L30.0301-70.459L28.1227-70.459ZM11.6882-24.4797L46.9818-24.4797L46.2311-26.7288L12.4382-26.7288ZM55.1193 0L57.7637 0L30.6381-70.459L29.4327-70.459L29.4327-67.1326Z"/>
  </g>
  <line id="Baseline-M" style="fill:none;stroke:#27AAE1;opacity:1;stroke-width:0.5;" x1="263" x2="3036" y1="1126" y2="1126"/>
  <line id="Capline-M" style="fill:none;stroke:#27AAE1;opacity:1;stroke-width:0.5;" x1="263" x2="3036" y1="1055.54" y2="1055.54"/>
  <g id="H-reference" style="fill:#27AAE1;stroke:none;" transform="matrix(1 0 0 1 339 1556)">
   <path d="M0.993347 0L3.6377 0L29.3282-67.1326L30.0301-67.1326L30.0301-70.459L28.1227-70.459ZM11.6882-24.4797L46.9818-24.4797L46.2311-26.7288L12.4382-26.7288ZM55.1193 0L57.7637 0L30.6381-70.459L29.4327-70.459L29.4327-67.1326Z"/>
  </g>
  <line id="Baseline-L" style="fill:none;stroke:#27AAE1;opacity:1;stroke-width:0.5;" x1="263" x2="3036" y1="1556" y2="1556"/>
  <line id="Capline-L" style="fill:none;stroke:#27AAE1;opacity:1;stroke-width:0.5;" x1="263" x2="3036" y1="1485.54" y2="1485.54"/>
  <line id="left-margin-Regular-M" style="fill:none;stroke:#00AEEF;stroke-width:0.5;opacity:1.0;" x1="1379.5" x2="1379.5" y1="1030.79" y2="1150.12"/>
  <line id="right-margin-Regular-M" style="fill:none;stroke:#00AEEF;stroke-width:0.5;opacity:1.0;" x1="1520.19" x2="1520.19" y1="1030.79" y2="1150.12"/>
 </g>
 <g id="Symbols">
  <g id="Black-L" transform="matrix(1 0 0 1 2839.03 1556)">
   <path d="M16.084 7.31299Q16.084 17.4005 22.0762 23.3421Q28.0684 29.2837 38.3972 29.2837L116.971 29.2837Q127.279 29.2837 133.271 23.3421Q139.264 17.4005 139.264 7.31299L139.264-9.8059Q139.264-10.6353 139.791-10.8423Q140.318-11.0493 141.227-10.5972Q143.342-9.4432 145.935-8.86381Q148.528-8.28443 151.484-8.28443Q158.096-8.28443 164.032-11.5364Q169.968-14.7884 173.729-20.8377Q177.49-26.887 177.49-35.3126Q177.49-43.7589 173.729-49.8264Q169.968-55.8939 164.032-59.1173Q158.096-62.3407 151.484-62.3407Q148.528-62.3407 145.935-61.7711Q143.342-61.2015 141.227-60.0267Q140.318-59.5954 139.791-59.8322Q139.264-60.0691 139.264-60.8388L139.264-78.0132Q139.264-88.1591 133.271-94.0715Q127.279-99.9839 116.971-99.9839L38.3972-99.9839Q28.0684-99.9839 22.0762-94.0715Q16.084-88.1591 16.084-78.0132L16.084-50.5745Q16.084-45.23 19.3669-41.8035Q22.6499-38.3769 27.5114-38.3769Q30.4212-38.3769 32.5622-39.3029Q34.7031-40.229 36.5068-41.541Q38.4565-42.9734 40.49-44.0281Q42.5236-45.0827 45.0441-45.0827Q49.1887-45.0827 51.9371-42.414Q54.6855-39.7453 54.6855-35.3281Q54.6855-30.9109 51.9371-28.2422Q49.1887-25.5735 45.0441-25.5735Q42.5236-25.5735 40.49-26.6281Q38.4565-27.6828 36.5068-29.1152Q34.7031-30.4273 32.5622-31.3533Q30.4212-32.2793 27.5114-32.2793Q22.6499-32.2793 19.3669-28.8527Q16.084-25.4262 16.084-20.0817ZM33.7287 6.67801L33.7287-9.50155Q33.7287-10.7877 34.3907-10.8332Q35.0527-10.8787 35.9821-10.4474Q38.0572-9.35587 40.5559-8.82793Q43.0545-8.29999 45.9491-8.29999Q52.5611-8.29999 58.4963-11.552Q64.4316-14.804 68.1829-20.8429Q71.9342-26.8817 71.9342-35.3281Q71.9342-43.7745 68.1829-49.8426Q64.4316-55.9106 58.4963-59.1334Q52.5611-62.3562 45.9491-62.3562Q43.0545-62.3562 40.5559-61.8283Q38.0572-61.3004 35.9821-60.2088Q35.0527-59.7775 34.3907-59.8522Q33.7287-59.9269 33.7287-61.1547L33.7287-77.3783Q33.7287-79.7231 35.0296-81.0312Q36.3304-82.3392 38.558-82.3392L116.81-82.3392Q119.038-82.3392 120.328-81.0312Q121.619-79.7231 121.619-77.3783L121.619-50.5917Q121.619-45.2473 124.902-41.8043Q128.185-38.3613 133.046-38.3613Q135.956-38.3613 138.098-39.2978Q140.239-40.2342 142.042-41.5255Q143.991-42.9579 146.025-44.0125Q148.058-45.0672 150.579-45.0672Q154.724-45.0672 157.472-42.3979Q160.22-39.7285 160.22-35.3126Q160.22-30.8954 157.472-28.2267Q154.724-25.5579 150.579-25.5579Q148.058-25.5579 146.025-26.6126Q143.991-27.6672 142.042-29.0997Q140.239-30.4105 138.098-31.3365Q135.956-32.2626 133.046-32.2626Q128.185-32.2626 124.902-28.8202Q121.619-25.3778 121.619-20.053L121.619 6.67801Q121.619 9.02288 120.328 10.3309Q119.038 11.6389 116.81 11.6389L38.558 11.6389Q36.3304 11.6389 35.0296 10.3309Q33.7287 9.02288 33.7287 6.67801Z"/>
  </g>
  <g id="Heavy-L" transform="matrix(1 0 0 1 2543.22 1556)">
   <path d="M16.084 7.19295Q16.084 17.0182 21.7897 22.6686Q27.4954 28.319 37.562 28.319L115.975 28.319Q126.011 28.319 131.717 22.6686Q137.423 17.0182 137.423 7.19295L137.423-11.2628Q137.423-12.0906 137.953-12.3197Q138.484-12.5488 139.387-12.0471Q141.7-10.6814 144.507-9.89294Q147.314-9.1045 150.548-9.1045Q157.008-9.1045 162.74-12.2774Q168.471-15.4502 172.076-21.3156Q175.68-27.1809 175.68-35.2413Q175.68-43.332 172.076-49.2017Q168.471-55.0715 162.74-58.2248Q157.008-61.3782 150.548-61.3782Q147.314-61.3782 144.507-60.6021Q141.7-59.826 139.387-58.43Q138.484-57.9584 137.953-58.2127Q137.423-58.4669 137.423-59.2444L137.423-77.8932Q137.423-87.7631 131.717-93.3912Q126.011-99.0193 115.975-99.0193L37.562-99.0193Q27.4954-99.0193 21.7897-93.3912Q16.084-87.7631 16.084-77.8932L16.084-50.3027Q16.084-45.3217 19.1052-42.2002Q22.1265-39.0786 26.5959-39.0786Q29.2228-39.0786 31.2719-39.9618Q33.3209-40.8451 35.1169-42.237Q37.1658-43.8294 39.3384-44.9315Q41.5109-46.0336 44.133-46.0336Q48.6125-46.0336 51.649-43.101Q54.6855-40.1683 54.6855-35.3143Q54.6855-30.4604 51.649-27.5277Q48.6125-24.595 44.133-24.595Q41.5109-24.595 39.3384-25.6971Q37.1658-26.7993 35.1169-28.3916Q33.3209-29.7836 31.2719-30.6668Q29.2228-31.5501 26.5959-31.5501Q22.1265-31.5501 19.1052-28.4285Q16.084-25.3069 16.084-20.3259ZM31.7995 6.58892L31.7995-10.9146Q31.7995-12.4008 32.5235-12.3783Q33.2475-12.3557 34.1803-11.8842Q36.4395-10.6091 39.1075-9.89328Q41.7754-9.17749 44.9245-9.17749Q51.3853-9.17749 57.1137-12.3504Q62.8421-15.5232 66.4346-21.3734Q70.0271-27.2237 70.0271-35.3143Q70.0271-43.405 66.4346-49.2775Q62.8421-55.1501 57.1137-58.3006Q51.3853-61.4512 44.9245-61.4512Q41.7754-61.4512 39.1075-60.7354Q36.4395-60.0196 34.1803-58.7445Q33.2475-58.2729 32.5235-58.2727Q31.7995-58.2724 31.7995-59.714L31.7995-77.2892Q31.7995-80.1529 33.3885-81.7284Q34.9774-83.3038 37.7228-83.3038L115.814-83.3038Q118.559-83.3038 120.133-81.7284Q121.707-80.1529 121.707-77.2892L121.707-50.3161Q121.707-45.3351 124.728-42.1703Q127.75-39.0056 132.219-39.0056Q134.846-39.0056 136.898-39.904Q138.95-40.8023 140.74-42.1641Q142.789-43.7564 144.962-44.8585Q147.134-45.9606 149.756-45.9606Q154.236-45.9606 157.272-43.0252Q160.309-40.0897 160.309-35.2413Q160.309-30.3874 157.272-27.4548Q154.236-24.5221 149.756-24.5221Q147.134-24.5221 144.962-25.6242Q142.789-26.7263 140.74-28.3186Q138.95-29.7049 136.898-30.5882Q134.846-31.4715 132.219-31.4715Q127.75-31.4715 124.728-28.3096Q121.707-25.1477 121.707-20.1912L121.707 6.58892Q121.707 9.45262 120.133 11.0281Q118.559 12.6036 115.814 12.6036L37.7228 12.6036Q34.9774 12.6036 33.3885 11.0281Q31.7995 9.45262 31.7995 6.58892Z"/>
  </g>
  <g id="Bold-L" transform="matrix(1 0 0 1 2247.63 1556)">
   <path d="M16.084 7.1363Q16.084 16.5345 21.425 21.8162Q26.7661 27.098 36.4055 27.098L114.85 27.098Q124.451 27.098 129.792 21.8162Q135.133 16.5345 135.133 7.1363L135.133-13.0238Q135.133-13.8739 135.686-14.1411Q136.239-14.4082 137.157-13.8377Q139.679-12.2405 142.725-11.1834Q145.77-10.1262 149.417-10.1262Q155.701-10.1262 161.171-13.1918Q166.641-16.2574 170.039-21.8849Q173.437-27.5124 173.437-35.1269Q173.437-42.7794 170.039-48.3959Q166.641-54.0124 161.171-57.0699Q155.701-60.1275 149.417-60.1275Q145.77-60.1275 142.725-59.0829Q139.679-58.0382 137.157-56.4029Q136.239-55.8703 135.686-56.1587Q135.133-56.4471 135.133-57.2547L135.133-77.8365Q135.133-87.2639 129.792-92.5311Q124.451-97.7983 114.85-97.7983L36.4055-97.7983Q26.7661-97.7983 21.425-92.5311Q16.084-87.2639 16.084-77.8365L16.084-50.0094Q16.084-45.4965 18.775-42.759Q21.466-40.0215 25.4514-40.0215Q27.7323-40.0215 29.6438-40.8434Q31.5552-41.6654 33.3211-43.12Q35.5079-44.9047 37.8533-46.0719Q40.1987-47.2392 42.996-47.2392Q47.9277-47.2392 51.3066-43.9724Q54.6855-40.7057 54.6855-35.2989Q54.6855-29.8921 51.3066-26.6254Q47.9277-23.3586 42.996-23.3586Q40.1987-23.3586 37.8533-24.5259Q35.5079-25.6931 33.3211-27.4778Q31.5552-28.9324 29.6438-29.7544Q27.7323-30.5763 25.4514-30.5763Q21.466-30.5763 18.775-27.8388Q16.084-25.1013 16.084-20.5885ZM29.3576 6.58563L29.3576-12.7336Q29.3576-14.4061 30.151-14.3289Q30.9444-14.2516 31.8997-13.7189Q34.3596-12.2358 37.2276-11.267Q40.0957-10.2983 43.6417-10.2983Q49.9255-10.2983 55.389-13.3639Q60.8526-16.4295 64.238-22.0379Q67.6233-27.6463 67.6233-35.2989Q67.6233-42.9515 64.238-48.5745Q60.8526-54.1975 55.389-57.2485Q49.9255-60.2995 43.6417-60.2995Q40.0957-60.2995 37.2276-59.3308Q34.3596-58.362 31.8997-56.8789Q30.9444-56.3462 30.151-56.2836Q29.3576-56.2209 29.3576-57.8643L29.3576-77.2859Q29.3576-80.7353 31.289-82.6301Q33.2204-84.5248 36.5663-84.5248L114.689-84.5248Q118.035-84.5248 119.947-82.6301Q121.859-80.7353 121.859-77.2859L121.859-50.0077Q121.859-45.4949 124.551-42.6721Q127.242-39.8494 131.227-39.8494Q133.508-39.8494 135.426-40.6904Q137.344-41.5315 139.097-42.9482Q141.284-44.7326 143.629-45.8999Q145.974-47.0672 148.772-47.0672Q153.703-47.0672 157.082-43.7938Q160.461-40.5205 160.461-35.1269Q160.461-29.7201 157.082-26.4534Q153.703-23.1868 148.772-23.1868Q145.974-23.1868 143.629-24.3539Q141.284-25.5211 139.097-27.3058Q137.344-28.747 135.426-29.5691Q133.508-30.3912 131.227-30.3912Q127.242-30.3912 124.551-27.5751Q121.859-24.7591 121.859-20.2708L121.859 6.58563Q121.859 10.0351 119.947 11.9298Q118.035 13.8246 114.689 13.8246L36.5663 13.8246Q33.2204 13.8246 31.289 11.9298Q29.3576 10.0351 29.3576 6.58563Z"/>
  </g>
  <g id="Semibold-L" transform="matrix(1 0 0 1 1951.69 1556)">
   <path d="M16.084 7.09724Q16.084 16.2009 21.1736 21.2286Q26.2632 26.2563 35.6082 26.2563L114.074 26.2563Q123.375 26.2563 128.465 21.2286Q133.555 16.2009 133.555 7.09724L133.555-14.2377Q133.555-15.1032 134.123-15.3967Q134.692-15.6901 135.619-15.0721Q138.286-13.3153 141.496-12.073Q144.706-10.8306 148.638-10.8306Q154.8-10.8306 160.09-13.8223Q165.38-16.8139 168.635-22.2774Q171.89-27.7409 171.89-35.0479Q171.89-42.3985 168.635-47.8404Q165.38-53.2822 160.09-56.2737Q154.8-59.2652 148.638-59.2652Q144.706-59.2652 141.496-58.0355Q138.286-56.8058 135.619-55.0055Q134.692-54.4307 134.123-54.7427Q133.555-55.0547 133.555-55.883L133.555-77.7975Q133.555-86.9198 128.465-91.9381Q123.375-96.9565 114.074-96.9565L35.6082-96.9565Q26.2632-96.9565 21.1736-91.9381Q16.084-86.9198 16.084-77.7975L16.084-49.8071Q16.084-45.6171 18.5473-43.1443Q21.0106-40.6715 24.6623-40.6715Q26.7048-40.6715 28.5214-41.4512Q30.338-42.231 32.0831-43.7287Q34.3649-45.646 36.8295-46.8582Q39.2941-48.0703 42.2122-48.0703Q47.4556-48.0703 51.0706-44.5732Q54.6855-41.0762 54.6855-35.2883Q54.6855-29.5004 51.0706-26.0033Q47.4556-22.5062 42.2122-22.5062Q39.2941-22.5062 36.8295-23.7184Q34.3649-24.9306 32.0831-26.8478Q30.338-28.3456 28.5214-29.1253Q26.7048-29.9051 24.6623-29.9051Q21.0106-29.9051 18.5473-27.4323Q16.084-24.9595 16.084-20.7694ZM27.6742 6.58336L27.6742-13.9875Q27.6742-15.7886 28.5155-15.6736Q29.3567-15.5586 30.3275-14.9838Q32.9257-13.3572 35.9317-12.2141Q38.9376-11.071 42.7574-11.071Q48.9191-11.071 54.2001-14.0626Q59.4811-17.0542 62.7236-22.496Q65.9662-27.9377 65.9662-35.2883Q65.9662-42.6388 62.7236-48.0899Q59.4811-53.5409 54.2001-56.5232Q48.9191-59.5056 42.7574-59.5056Q38.9376-59.5056 35.9317-58.3624Q32.9257-57.2193 30.3275-55.5928Q29.3567-55.018 28.5155-54.9123Q27.6742-54.8066 27.6742-56.589L27.6742-77.2836Q27.6742-81.1369 29.8416-83.2517Q32.0091-85.3666 35.7691-85.3666L113.913-85.3666Q117.673-85.3666 119.819-83.2517Q121.964-81.1369 121.964-77.2836L121.964-49.7951Q121.964-45.605 124.428-43.0181Q126.891-40.4311 130.543-40.4311Q132.585-40.4311 134.411-41.2326Q136.237-42.0341 137.964-43.4887Q140.246-45.4057 142.71-46.6178Q145.175-47.83 148.093-47.83Q153.336-47.83 156.951-44.3237Q160.566-40.8175 160.566-35.0479Q160.566-29.2601 156.951-25.7631Q153.336-22.2662 148.093-22.2662Q145.175-22.2662 142.71-23.4782Q140.246-24.6902 137.964-26.6075Q136.237-28.0866 134.411-28.8665Q132.585-29.6464 130.543-29.6464Q126.891-29.6464 124.428-27.0688Q121.964-24.4912 121.964-20.3257L121.964 6.58336Q121.964 10.4366 119.819 12.5515Q117.673 14.6663 113.913 14.6663L35.7691 14.6663Q32.0091 14.6663 29.8416 12.5515Q27.6742 10.4366 27.6742 6.58336Z"/>
  </g>
  <g id="Medium-L" transform="matrix(1 0 0 1 1655.57 1556)">
   <path d="M16.084 7.06762Q16.084 15.9481 20.983 20.783Q25.882 25.618 35.0037 25.618L113.486 25.618Q122.56 25.618 127.459 20.783Q132.358 15.9481 132.358 7.06762L132.358-15.1582Q132.358-16.0354 132.938-16.3487Q133.519-16.6621 134.454-16.0081Q137.229-14.1303 140.564-12.7475Q143.9-11.3647 148.047-11.3647Q154.116-11.3647 159.27-14.3003Q164.424-17.2359 167.57-22.575Q170.717-27.9142 170.717-34.9881Q170.717-42.1096 167.57-47.4191Q164.424-52.7286 159.27-55.67Q154.116-58.6115 148.047-58.6115Q143.9-58.6115 140.564-57.2414Q137.229-55.8713 134.454-53.9459Q133.519-53.3391 132.938-53.669Q132.358-53.999 132.358-54.843L132.358-77.7679Q132.358-86.6588 127.459-91.4885Q122.56-96.3183 113.486-96.3183L35.0037-96.3183Q25.882-96.3183 20.983-91.4885Q16.084-86.6588 16.084-77.7679L16.084-49.6538Q16.084-45.7085 18.3747-43.4364Q20.6653-41.1644 24.0641-41.1644Q25.9257-41.1644 27.6703-41.9121Q29.415-42.6598 31.1444-44.1903Q33.4982-46.2081 36.0532-47.4543Q38.6082-48.7005 41.6179-48.7005Q47.0976-48.7005 50.8916-45.0288Q54.6855-41.3571 54.6855-35.2802Q54.6855-29.2034 50.8916-25.5316Q47.0976-21.8599 41.6179-21.8599Q38.6082-21.8599 36.0532-23.1061Q33.4982-24.3523 31.1444-26.3702Q29.415-27.9007 27.6703-28.6484Q25.9257-29.3961 24.0641-29.3961Q20.6653-29.3961 18.3747-27.124Q16.084-24.852 16.084-20.9066ZM26.3978 6.58164L26.3978-14.9383Q26.3978-16.8368 27.2753-16.6932Q28.1528-16.5496 29.1354-15.9428Q31.8385-14.2076 34.949-12.9322Q38.0596-11.6568 42.0869-11.6568Q48.156-11.6568 53.2985-14.5924Q58.4411-17.528 61.5754-22.8433Q64.7097-28.1587 64.7097-35.2802Q64.7097-42.4018 61.5754-47.7224Q58.4411-53.043 53.2985-55.9733Q48.156-58.9036 42.0869-58.9036Q38.0596-58.9036 34.949-57.6282Q31.8385-56.3529 29.1354-54.6176Q28.1528-54.0109 27.2753-53.8725Q26.3978-53.7342 26.3978-55.6221L26.3978-77.2819Q26.3978-81.4413 28.7442-83.7231Q31.0906-86.0048 35.1645-86.0048L113.325-86.0048Q117.399-86.0048 119.721-83.7231Q122.044-81.4413 122.044-77.2819L122.044-49.6339Q122.044-45.6885 124.335-43.2804Q126.626-40.8722 130.024-40.8722Q131.886-40.8722 133.642-41.6438Q135.398-42.4153 137.105-43.8985Q139.459-45.916 142.014-47.1622Q144.569-48.4084 147.578-48.4084Q153.058-48.4084 156.852-44.7255Q160.646-41.0427 160.646-34.9881Q160.646-28.9112 156.852-25.2397Q153.058-21.5682 147.578-21.5682Q144.569-21.5682 142.014-22.8142Q139.459-24.0602 137.105-26.0781Q135.398-27.5859 133.642-28.3338Q131.886-29.0817 130.024-29.0817Q126.626-29.0817 124.335-26.6849Q122.044-24.288 122.044-20.3673L122.044 6.58164Q122.044 10.7411 119.721 13.0228Q117.399 15.3046 113.325 15.3046L35.1645 15.3046Q31.0906 15.3046 28.7442 13.0228Q26.3978 10.7411 26.3978 6.58164Z"/>
  </g>
  <g id="Regular-L" transform="matrix(1 0 0 1 1359.62 1556)">
   <path d="M16.084 7.02899Q16.084 15.6182 20.7343 20.2019Q25.3847 24.7855 34.2152 24.7855L112.719 24.7855Q121.496 24.7855 126.146 20.2019Q130.797 15.6182 130.797 7.02899L130.797-16.3588Q130.797-17.2513 131.393-17.5906Q131.988-17.9298 132.933-17.2289Q135.851-15.1933 139.349-13.6273Q142.847-12.0614 147.276-12.0614Q153.225-12.0614 158.2-14.9238Q163.176-17.7862 166.182-22.9632Q169.187-28.1402 169.187-34.9101Q169.187-41.7329 166.182-46.8697Q163.176-52.0065 158.2-54.8826Q153.225-57.7587 147.276-57.7587Q142.847-57.7587 139.349-56.2056Q135.851-54.6524 132.933-52.5638Q131.988-51.9154 131.393-52.2686Q130.797-52.6218 130.797-53.4864L130.797-77.7292Q130.797-86.3185 126.146-90.9021Q121.496-95.4858 112.719-95.4858L34.2152-95.4858Q25.3847-95.4858 20.7343-90.9021Q16.084-86.3185 16.084-77.7292L16.084-49.4538Q16.084-45.8276 18.1495-43.8174Q20.215-41.8072 23.2837-41.8072Q24.9094-41.8072 26.5603-42.5132Q28.2111-43.2191 29.92-44.7923Q32.3678-46.9413 35.0407-48.2319Q37.7135-49.5225 40.8427-49.5225Q46.6307-49.5225 50.6581-45.623Q54.6855-41.7235 54.6855-35.2697Q54.6855-28.8159 50.6581-24.9164Q46.6307-21.0169 40.8427-21.0169Q37.7135-21.0169 35.0407-22.3075Q32.3678-23.5982 29.92-25.7471Q28.2111-27.3203 26.5603-28.0262Q24.9094-28.7322 23.2837-28.7322Q20.215-28.7322 18.1495-26.722Q16.084-24.7118 16.084-21.0856ZM24.7329 6.5794L24.7329-16.1785Q24.7329-18.204 25.6577-18.0231Q26.5825-17.8422 27.5805-17.1938Q30.4203-15.3167 33.6673-13.8689Q36.9143-12.421 41.2123-12.421Q47.1606-12.421 52.1226-15.2834Q57.0846-18.1459 60.0777-23.2964Q63.0708-28.4469 63.0708-35.2697Q63.0708-42.0925 60.0777-47.243Q57.0846-52.3935 52.1226-55.256Q47.1606-58.1184 41.2123-58.1184Q36.9143-58.1184 33.6673-56.6705Q30.4203-55.2227 27.5805-53.3456Q26.5825-52.6972 25.6577-52.5163Q24.7329-52.3354 24.7329-54.3609L24.7329-77.2796Q24.7329-81.8385 27.3127-84.3379Q29.8926-86.8373 34.376-86.8373L112.558-86.8373Q117.041-86.8373 119.595-84.3379Q122.148-81.8385 122.148-77.2796L122.148-49.4236Q122.148-45.7975 124.214-43.6225Q126.279-41.4476 129.348-41.4476Q130.973-41.4476 132.638-42.18Q134.303-42.9125 135.984-44.4331Q138.432-46.5816 141.105-47.8722Q143.778-49.1628 146.907-49.1628Q152.695-49.1628 156.722-45.2496Q160.749-41.3364 160.749-34.9101Q160.749-28.4563 156.722-24.557Q152.695-20.6577 146.907-20.6577Q143.778-20.6577 141.105-21.9481Q138.432-23.2385 135.984-25.3875Q134.303-26.9328 132.638-27.6389Q130.973-28.3451 129.348-28.3451Q126.279-28.3451 124.214-26.1841Q122.148-24.0231 122.148-20.4216L122.148 6.5794Q122.148 11.1382 119.595 13.6376Q117.041 16.1371 112.558 16.1371L34.376 16.1371Q29.8926 16.1371 27.3127 13.6376Q24.7329 11.1382 24.7329 6.5794Z"/>
  </g>
  <g id="Light-L" transform="matrix(1 0 0 1 1063.69 1556)">
   <path d="M16.084 7.58244Q16.084 15.2174 20.4195 19.4956Q24.7549 23.7738 32.6312 23.7738L112.642 23.7738Q120.484 23.7738 124.82 19.4956Q129.155 15.2174 129.155 7.58244L129.155-17.2939Q129.155-18.3582 129.885-18.7929Q130.614-19.2275 131.712-18.4314Q134.534-16.4339 138.032-14.6198Q141.531-12.8056 146.685-12.8056Q152.576-12.8056 157.322-15.5345Q162.069-18.2634 164.846-23.2114Q167.622-28.1594 167.622-34.6619Q167.622-41.1984 164.846-46.1062Q162.069-51.014 157.322-53.7661Q152.576-56.5181 146.685-56.5181Q141.531-56.5181 138.032-54.6978Q134.534-52.8776 131.712-50.846Q130.614-50.0832 129.885-50.5414Q129.155-50.9996 129.155-52.0168L129.155-78.2827Q129.155-85.9176 124.82-90.1959Q120.484-94.4741 112.642-94.4741L32.6312-94.4741Q24.7549-94.4741 20.4195-90.1959Q16.084-85.9176 16.084-78.2827L16.084-49.5301Q16.084-46.3429 17.8822-44.6382Q19.6805-42.9334 22.425-42.9334Q23.8407-42.9334 25.2433-43.5437Q26.646-44.1541 28.2023-45.5365Q30.8409-47.781 33.6378-49.1576Q36.4347-50.5342 40.0029-50.5342Q46.3444-50.5342 50.515-46.3578Q54.6855-42.1814 54.6855-35.2697Q54.6855-28.358 50.515-24.1816Q46.3444-20.0052 40.0029-20.0052Q36.4347-20.0052 33.6378-21.3818Q30.8409-22.7584 28.2023-25.0029Q26.646-26.3853 25.2433-26.9957Q23.8407-27.606 22.425-27.606Q19.6805-27.606 17.8822-25.9012Q16.084-24.1965 16.084-21.0093ZM22.7099 7.26656L22.7099-17.877Q22.7099-19.6354 23.6347-19.6071Q24.5595-19.5789 25.6912-18.816Q28.4929-16.92 31.8161-15.1667Q35.1394-13.4135 40.2391-13.4135Q46.13-13.4135 50.8535-16.1423Q55.5769-18.8712 58.3601-23.8022Q61.1434-28.7332 61.1434-35.2697Q61.1434-41.8062 58.3601-46.7372Q55.5769-51.6682 50.8535-54.3971Q46.13-57.1259 40.2391-57.1259Q35.1394-57.1259 31.8161-55.3727Q28.4929-53.6194 25.6912-51.7234Q24.5595-50.9605 23.6347-50.9323Q22.7099-50.904 22.7099-52.6624L22.7099-77.9668Q22.7099-82.5638 25.4329-85.2064Q28.1559-87.849 32.792-87.849L112.481-87.849Q117.117-87.849 119.823-85.2064Q122.529-82.5638 122.529-77.9668L122.529-49.4236Q122.529-46.2365 124.328-44.281Q126.127-42.3255 128.87-42.3255Q130.286-42.3255 131.712-42.953Q133.139-43.5804 134.649-44.9295Q137.287-47.1732 140.084-48.5498Q142.881-49.9263 146.449-49.9263Q152.791-49.9263 156.961-45.7268Q161.131-41.5272 161.131-34.6619Q161.131-27.7502 156.961-23.5742Q152.791-19.3982 146.449-19.3982Q142.881-19.3982 140.084-20.7744Q137.287-22.1505 134.649-24.395Q133.139-25.7303 131.712-26.3411Q130.286-26.9519 128.87-26.9519Q126.127-26.9519 124.328-25.02Q122.529-23.0881 122.529-19.8871L122.529 7.26656Q122.529 11.8635 119.823 14.5061Q117.117 17.1488 112.481 17.1488L32.792 17.1488Q28.1559 17.1488 25.4329 14.5061Q22.7099 11.8635 22.7099 7.26656Z"/>
  </g>
  <g id="Thin-L" transform="matrix(1 0 0 1 768.017 1556)">
   <path d="M16.084 8.31443Q16.084 14.6873 20.003 18.5616Q23.922 22.4358 30.5361 22.4358L112.541 22.4358Q119.146 22.4358 123.065 18.5616Q126.984 14.6873 126.984 8.31443L126.984-18.5305Q126.984-19.8221 127.891-20.383Q128.797-20.9438 130.097-20.0217Q132.792-18.0747 136.291-15.9323Q139.789-13.7899 145.902-13.7899Q151.717-13.7899 156.161-16.3422Q160.606-18.8944 163.079-23.5397Q165.552-28.1849 165.552-34.3336Q165.552-40.4914 163.079-45.0964Q160.606-49.7015 156.161-52.2894Q151.717-54.8773 145.902-54.8773Q139.789-54.8773 136.291-52.7038Q132.792-50.5302 130.097-48.5742Q128.797-47.6599 127.891-48.257Q126.984-48.8542 126.984-50.0732L126.984-79.0147Q126.984-85.3875 123.065-89.2618Q119.146-93.1361 112.541-93.1361L30.5361-93.1361Q23.922-93.1361 20.003-89.2618Q16.084-85.3875 16.084-79.0147L16.084-49.631Q16.084-47.0245 17.5287-45.7236Q18.9735-44.4228 21.2893-44.4228Q22.4272-44.4228 23.5016-44.9068Q24.576-45.3908 25.9304-46.5208Q28.8213-48.8917 31.7824-50.382Q34.7435-51.8722 38.8922-51.8722Q45.9656-51.8722 50.3256-47.3296Q54.6855-42.787 54.6855-35.2697Q54.6855-27.7524 50.3256-23.2098Q45.9656-18.6672 38.8922-18.6672Q34.7435-18.6672 31.7824-20.1574Q28.8213-21.6477 25.9304-24.0186Q24.576-25.1486 23.5016-25.6326Q22.4272-26.1166 21.2893-26.1166Q18.9735-26.1166 17.5287-24.8158Q16.084-23.5149 16.084-20.9084ZM20.0343 8.17539L20.0343-20.1234Q20.0343-21.5286 20.9591-21.7022Q21.8839-21.8757 23.1924-20.9615Q25.9436-19.0405 29.3679-16.8832Q32.7921-14.726 38.952-14.726Q44.767-14.726 49.1749-17.2783Q53.5828-19.8305 56.0885-24.4712Q58.5941-29.1119 58.5941-35.2697Q58.5941-41.4275 56.0885-46.0682Q53.5828-50.7089 49.1749-53.2611Q44.767-55.8134 38.952-55.8134Q32.7921-55.8134 29.3679-53.6562Q25.9436-51.4989 23.1924-49.5779Q21.8839-48.6637 20.9591-48.8372Q20.0343-49.0108 20.0343-50.416L20.0343-78.8756Q20.0343-83.5231 22.9467-86.355Q25.859-89.187 30.697-89.187L112.38-89.187Q117.218-89.187 120.126-86.355Q123.034-83.5231 123.034-78.8756L123.034-49.4236Q123.034-46.817 124.479-45.1519Q125.925-43.4867 128.239-43.4867Q129.377-43.4867 130.488-43.9752Q131.599-44.4638 132.882-45.586Q135.773-47.9557 138.734-49.4459Q141.695-50.9361 145.844-50.9361Q152.917-50.9361 157.276-46.3578Q161.636-41.7795 161.636-34.3336Q161.636-26.8163 157.276-22.2743Q152.917-17.7324 145.844-17.7324Q141.695-17.7324 138.734-19.222Q135.773-20.7116 132.882-23.0825Q131.599-24.14 130.488-24.6246Q129.377-25.1092 128.239-25.1092Q125.925-25.1092 124.479-23.4803Q123.034-21.8514 123.034-19.1801L123.034 8.17539Q123.034 12.8228 120.126 15.6548Q117.218 18.4868 112.38 18.4868L30.697 18.4868Q25.859 18.4868 22.9467 15.6548Q20.0343 12.8228 20.0343 8.17539Z"/>
  </g>
  <g id="Ultralight-L" transform="matrix(1 0 0 1 471.835 1556)">
   <path d="M16.084 8.68935Q16.084 14.4158 19.7897 18.0831Q23.4954 21.7505 29.4631 21.7505L112.49 21.7505Q118.461 21.7505 122.167 18.0831Q125.872 14.4158 125.872 8.68935L125.872-19.1639Q125.872-20.572 126.869-21.1974Q127.866-21.8229 129.269-20.8363Q131.9-18.9151 135.398-16.6046Q138.897-14.2941 145.501-14.2941Q151.277-14.2941 155.567-16.7559Q159.856-19.2176 162.174-23.7078Q164.492-28.1979 164.492-34.1655Q164.492-40.1293 162.174-44.5792Q159.856-49.0292 155.567-51.533Q151.277-54.0369 145.501-54.0369Q138.897-54.0369 135.398-51.6824Q131.9-49.3279 129.269-47.4105Q127.866-46.4187 126.869-47.087Q125.872-47.7552 125.872-49.0777L125.872-79.3896Q125.872-85.116 122.167-88.7834Q118.461-92.4508 112.49-92.4508L29.4631-92.4508Q23.4954-92.4508 19.7897-88.7834Q16.084-85.116 16.084-79.3896L16.084-49.6827Q16.084-47.3735 17.3477-46.2796Q18.6114-45.1857 20.7076-45.1857Q21.7032-45.1857 22.6095-45.6049Q23.5158-46.0242 24.7668-47.025Q27.7869-49.4606 30.8321-51.0091Q33.8772-52.5575 38.3233-52.5575Q45.7717-52.5575 50.2286-47.8273Q54.6855-43.0972 54.6855-35.2697Q54.6855-27.4422 50.2286-22.7121Q45.7717-17.9819 38.3233-17.9819Q33.8772-17.9819 30.8321-19.5303Q27.7869-21.0788 24.7668-23.5144Q23.5158-24.5152 22.6095-24.9345Q21.7032-25.3538 20.7076-25.3538Q18.6114-25.3538 17.3477-24.2598Q16.084-23.1659 16.084-20.8567ZM18.6638 8.64089L18.6638-21.274Q18.6638-22.4982 19.5887-22.7752Q20.5135-23.0522 21.9126-22.0604Q24.6379-20.1265 28.1139-17.7624Q31.5898-15.3983 38.2927-15.3983Q44.0689-15.3983 48.3152-17.8601Q52.5615-20.3218 54.9249-24.8139Q57.2884-29.3059 57.2884-35.2697Q57.2884-41.2335 54.9249-45.7255Q52.5615-50.2176 48.3152-52.6793Q44.0689-55.1411 38.2927-55.1411Q31.5898-55.1411 28.1139-52.777Q24.6379-50.4129 21.9126-48.479Q20.5135-47.4872 19.5887-47.7642Q18.6638-48.0412 18.6638-49.2654L18.6638-79.3411Q18.6638-84.0144 21.6732-86.9434Q24.6826-89.8723 29.6239-89.8723L112.329-89.8723Q117.27-89.8723 120.281-86.9434Q123.293-84.0144 123.293-79.3411L123.293-49.4236Q123.293-47.1144 124.557-45.5979Q125.821-44.0814 127.916-44.0814Q128.912-44.0814 129.861-44.4988Q130.81-44.9162 131.977-45.9222Q134.997-48.3564 138.042-49.9049Q141.087-51.4533 145.533-51.4533Q152.982-51.4533 157.438-46.681Q161.894-41.9088 161.894-34.1655Q161.894-26.338 157.438-21.6086Q152.982-16.8791 145.533-16.8791Q141.087-16.8791 138.042-18.4268Q134.997-19.9745 131.977-22.4102Q130.81-23.3254 129.861-23.7454Q128.912-24.1654 127.916-24.1654Q125.821-24.1654 124.557-22.6917Q123.293-21.218 123.293-18.818L123.293 8.64089Q123.293 13.3142 120.281 16.2431Q117.27 19.1721 112.329 19.1721L29.6239 19.1721Q24.6826 19.1721 21.6732 16.2431Q18.6638 13.3142 18.6638 8.64089Z"/>
  </g>
  <g id="Black-M" transform="matrix(1 0 0 1 2859.61 1126)">
   <path d="M12.4609-2.0919Q12.4609 5.81932 17.3069 10.6314Q22.153 15.4436 30.2511 15.4436L91.4684 15.4436Q99.5611 15.4436 104.407 10.6314Q109.253 5.81932 109.253-2.0919L109.253-14.4073Q109.253-15.0745 109.677-15.2288Q110.101-15.3832 110.83-15.0627Q112.286-14.3557 114.111-14.0529Q115.936-13.7501 118.086-13.7501Q123.33-13.7501 128.074-16.3195Q132.817-18.8889 135.835-23.7025Q138.852-28.5162 138.852-35.3214Q138.852-42.1321 135.835-46.9717Q132.817-51.8114 128.074-54.3521Q123.33-56.8928 118.086-56.8928Q115.936-56.8928 114.111-56.5928Q112.286-56.2929 110.83-55.5805Q110.101-55.2654 109.677-55.4482Q109.253-55.6309 109.253-56.2413L109.253-68.554Q109.253-76.5223 104.407-81.3059Q99.5611-86.0895 91.4684-86.0895L30.2511-86.0895Q22.153-86.0895 17.3069-81.3059Q12.4609-76.5223 12.4609-68.554L12.4609-47.3619Q12.4609-42.9684 15.1931-40.0929Q17.9252-37.2174 21.9847-37.2174Q24.4537-37.2174 26.1578-37.9587Q27.8618-38.7 29.2452-39.6219Q30.6962-40.6072 32.169-41.3951Q33.6419-42.1831 35.5668-42.1831Q38.5651-42.1831 40.4661-40.3048Q42.3672-38.4266 42.3672-35.3177Q42.3672-32.2089 40.4661-30.3307Q38.5651-28.4524 35.5668-28.4524Q33.6419-28.4524 32.169-29.2404Q30.6962-30.0283 29.2452-31.0135Q27.8618-31.9355 26.1578-32.6768Q24.4537-33.418 21.9847-33.418Q17.9252-33.418 15.1931-30.5426Q12.4609-27.6671 12.4609-23.2736ZM27.515-2.59232L27.515-14.3127Q27.515-15.1009 27.9746-15.2154Q28.4342-15.3298 29.1694-15.0148Q30.6136-14.3243 32.4143-14.0353Q34.215-13.7464 36.3475-13.7464Q41.5922-13.7464 46.3359-16.3158Q51.0796-18.8852 54.094-23.6961Q57.1083-28.507 57.1083-35.3177Q57.1083-42.1284 54.094-46.9679Q51.0796-51.8074 46.3359-54.3483Q41.5922-56.8891 36.3475-56.8891Q34.215-56.8891 32.4143-56.6001Q30.6136-56.3112 29.1694-55.6207Q28.4342-55.3057 27.9746-55.4487Q27.515-55.5916 27.515-56.3228L27.515-68.0536Q27.515-69.4295 28.2946-70.2324Q29.0742-71.0354 30.3757-71.0354L91.3438-71.0354Q92.6454-71.0354 93.4222-70.2324Q94.199-69.4295 94.199-68.0536L94.199-47.3682Q94.199-42.9747 96.9312-40.0979Q99.6633-37.2211 103.723-37.2211Q106.192-37.2211 107.896-37.9651Q109.6-38.7091 110.983-39.6256Q112.434-40.6109 113.907-41.3988Q115.38-42.1868 117.305-42.1868Q120.303-42.1868 122.204-40.3086Q124.105-38.4305 124.105-35.3214Q124.105-32.2126 122.204-30.3343Q120.303-28.4561 117.305-28.4561Q115.38-28.4561 113.907-29.244Q112.434-30.032 110.983-31.0172Q109.6-31.9395 107.896-32.6807Q106.192-33.422 103.723-33.422Q99.6633-33.422 96.9312-30.5451Q94.199-27.6681 94.199-23.2804L94.199-2.59232Q94.199-1.21639 93.4222-0.413467Q92.6454 0.389455 91.3438 0.389455L30.3757 0.389455Q29.0742 0.389455 28.2946-0.413467Q27.515-1.21639 27.515-2.59232Z"/>
  </g>
  <g id="Heavy-M" transform="matrix(1 0 0 1 2563.71 1126)">
   <path d="M12.4609-2.2603Q12.4609 5.48266 17.0559 10.0383Q21.6509 14.5939 29.5807 14.5939L90.5015 14.5939Q98.415 14.5939 103.01 10.0383Q107.605 5.48266 107.605-2.2603L107.605-15.7453Q107.605-16.3951 108.02-16.5622Q108.434-16.7293 109.144-16.3691Q110.802-15.4517 112.836-14.9674Q114.871-14.4831 117.225-14.4831Q122.327-14.4831 126.892-16.9874Q131.456-19.4918 134.342-24.1468Q137.227-28.8018 137.227-35.2747Q137.227-41.7641 134.342-46.4315Q131.456-51.099 126.892-53.5827Q122.327-56.0663 117.225-56.0663Q114.871-56.0663 112.836-55.5891Q110.802-55.1119 109.144-54.178Q108.434-53.8342 108.02-54.0243Q107.605-54.2144 107.605-54.8182L107.605-68.3856Q107.605-76.1722 103.01-80.706Q98.415-85.2398 90.5015-85.2398L29.5807-85.2398Q21.6509-85.2398 17.0559-80.706Q12.4609-76.1722 12.4609-68.3856L12.4609-47.0891Q12.4609-43.0105 14.9619-40.405Q17.4629-37.7995 21.1689-37.7995Q23.3808-37.7995 25.0179-38.5078Q26.655-39.216 28.0449-40.2337Q29.5754-41.3665 31.1726-42.1929Q32.7699-43.0193 34.7536-43.0193Q38.0281-43.0193 40.1977-40.9086Q42.3672-38.7978 42.3672-35.3043Q42.3672-31.8107 40.1977-29.7Q38.0281-27.5892 34.7536-27.5892Q32.7699-27.5892 31.1726-28.4157Q29.5754-29.2421 28.0449-30.3748Q26.655-31.3925 25.0179-32.1008Q23.3808-32.809 21.1689-32.809Q17.4629-32.809 14.9619-30.2036Q12.4609-27.5981 12.4609-23.5194ZM25.8157-2.74281L25.8157-15.5373Q25.8157-16.5459 26.3359-16.5797Q26.8561-16.6135 27.5823-16.2697Q29.21-15.4015 31.1692-14.9571Q33.1283-14.5126 35.4356-14.5126Q40.5378-14.5126 45.1013-17.017Q49.6649-19.5213 52.5433-24.1681Q55.4218-28.8149 55.4218-35.3043Q55.4218-41.7936 52.5433-46.4622Q49.6649-51.1308 45.1013-53.6134Q40.5378-56.0959 35.4356-56.0959Q33.1283-56.0959 31.1692-55.6515Q29.21-55.2071 27.5823-54.3389Q26.8561-53.995 26.3359-54.0507Q25.8157-54.1063 25.8157-55.0712L25.8157-67.9031Q25.8157-69.7827 26.8637-70.8339Q27.9118-71.885 29.7054-71.885L90.3769-71.885Q92.1705-71.885 93.2103-70.8339Q94.2501-69.7827 94.2501-67.9031L94.2501-47.0987Q94.2501-43.02 96.7511-40.395Q99.2521-37.7699 102.958-37.7699Q105.17-37.7699 106.808-38.4864Q108.447-39.2029 109.834-40.2042Q111.365-41.3369 112.962-42.1633Q114.559-42.9897 116.543-42.9897Q119.817-42.9897 121.987-40.8779Q124.156-38.766 124.156-35.2747Q124.156-31.7811 121.987-29.6704Q119.817-27.5597 116.543-27.5597Q114.559-27.5597 112.962-28.3861Q111.365-29.2125 109.834-30.3453Q108.447-31.3607 106.808-32.0689Q105.17-32.7772 102.958-32.7772Q99.2521-32.7772 96.7511-30.1533Q94.2501-27.5294 94.2501-23.4648L94.2501-2.74281Q94.2501-0.863198 93.2103 0.187976Q92.1705 1.23915 90.3769 1.23915L29.7054 1.23915Q27.9118 1.23915 26.8637 0.187976Q25.8157-0.863198 25.8157-2.74281Z"/>
  </g>
  <g id="Bold-M" transform="matrix(1 0 0 1 2267.91 1126)">
   <path d="M12.4609-2.44868Q12.4609 5.10605 16.7751 9.3747Q21.0892 13.6434 28.8309 13.6434L89.4199 13.6434Q97.1328 13.6434 101.447 9.3747Q105.761 5.10605 105.761-2.44868L105.761-17.2421Q105.761-17.8724 106.166-18.0538Q106.57-18.2352 107.258-17.8306Q109.143-16.6777 111.411-15.9904Q113.678-15.3031 116.262-15.3031Q121.205-15.3031 125.569-17.7346Q129.934-20.1662 132.672-24.6437Q135.41-29.1212 135.41-35.2224Q135.41-41.3523 132.672-45.8272Q129.934-50.3021 125.569-52.722Q121.205-55.1418 116.262-55.1418Q113.678-55.1418 111.411-54.4663Q109.143-53.7908 107.258-52.6092Q106.57-52.2331 106.166-52.4314Q105.761-52.6297 105.761-53.2263L105.761-68.1972Q105.761-75.7805 101.447-80.0349Q97.1328-84.2893 89.4199-84.2893L28.8309-84.2893Q21.0892-84.2893 16.7751-80.0349Q12.4609-75.7805 12.4609-68.1972L12.4609-46.784Q12.4609-43.0575 14.7033-40.7541Q16.9456-38.4506 20.2564-38.4506Q22.1806-38.4506 23.7428-39.1219Q25.305-39.7933 26.7022-40.918Q28.3215-42.2158 30.058-43.0853Q31.7944-43.9547 33.8439-43.9547Q37.4275-43.9547 39.8973-41.5839Q42.3672-39.2131 42.3672-35.2892Q42.3672-31.3652 39.8973-28.9944Q37.4275-26.6237 33.8439-26.6237Q31.7944-26.6237 30.058-27.4931Q28.3215-28.3625 26.7022-29.6604Q25.305-30.7851 23.7428-31.4564Q22.1806-32.1278 20.2564-32.1278Q16.9456-32.1278 14.7033-29.8243Q12.4609-27.5209 12.4609-23.7944ZM23.9147-2.91115L23.9147-16.9073Q23.9147-18.1622 24.5028-18.1058Q25.0908-18.0495 25.8069-17.6734Q27.6399-16.6064 29.7763-15.9881Q31.9127-15.3698 34.4155-15.3698Q39.3584-15.3698 43.7203-17.8014Q48.0823-20.233 50.8087-24.6961Q53.5352-29.1593 53.5352-35.2892Q53.5352-41.4191 50.8087-45.8965Q48.0823-50.374 43.7203-52.7913Q39.3584-55.2086 34.4155-55.2086Q31.9127-55.2086 29.7763-54.5902Q27.6399-53.9719 25.8069-52.905Q25.0908-52.5289 24.5028-52.4868Q23.9147-52.4447 23.9147-53.6711L23.9147-67.7348Q23.9147-70.1778 25.2631-71.5067Q26.6114-72.8356 28.9555-72.8356L89.2953-72.8356Q91.6393-72.8356 92.9733-71.5067Q94.3073-70.1778 94.3073-67.7348L94.3073-46.7972Q94.3073-43.0708 96.5497-40.7273Q98.7921-38.3839 102.103-38.3839Q104.027-38.3839 105.592-39.0695Q107.157-39.7552 108.549-40.8513Q110.168-42.1491 111.904-43.0185Q113.641-43.888 115.69-43.888Q119.274-43.888 121.744-41.5146Q124.214-39.1413 124.214-35.2224Q124.214-31.2985 121.744-28.9277Q119.274-26.557 115.69-26.557Q113.641-26.557 111.904-27.4264Q110.168-28.2958 108.549-29.5936Q107.157-30.7132 105.592-31.3845Q104.027-32.0559 102.103-32.0559Q98.7921-32.0559 96.5497-29.715Q94.3073-27.3742 94.3073-23.6711L94.3073-2.91115Q94.3073-0.468102 92.9733 0.860776Q91.6393 2.18965 89.2953 2.18965L28.9555 2.18965Q26.6114 2.18965 25.2631 0.860776Q23.9147-0.468102 23.9147-2.91115Z"/>
  </g>
  <g id="Semibold-M" transform="matrix(1 0 0 1 1971.83 1126)">
   <path d="M12.4609-2.57855Q12.4609 4.84641 16.5815 8.91725Q20.702 12.9881 28.3139 12.9881L88.6742 12.9881Q96.249 12.9881 100.369 8.91725Q104.49 4.84641 104.49-2.57855L104.49-18.2739Q104.49-18.8908 104.888-19.0821Q105.285-19.2734 105.957-18.8381Q107.999-17.5229 110.428-16.6956Q112.856-15.8684 115.598-15.8684Q120.431-15.8684 124.658-18.2498Q128.884-20.6312 131.521-24.9863Q134.157-29.3414 134.157-35.1864Q134.157-41.0685 131.521-45.4106Q128.884-49.7527 124.658-52.1286Q120.431-54.5044 115.598-54.5044Q112.856-54.5044 110.428-53.6922Q107.999-52.88 105.957-51.5277Q105.285-51.1294 104.888-51.3333Q104.49-51.5373 104.49-52.1288L104.49-68.0674Q104.49-75.5105 100.369-79.5722Q96.249-83.634 88.6742-83.634L28.3139-83.634Q20.702-83.634 16.5815-79.5722Q12.4609-75.5105 12.4609-68.0674L12.4609-46.5737Q12.4609-43.09 14.525-40.9947Q16.589-38.8995 19.6274-38.8995Q21.3531-38.8995 22.8637-39.5454Q24.3743-40.1912 25.7765-41.3898Q27.4572-42.8014 29.2895-43.7005Q31.1219-44.5996 33.2168-44.5996Q37.0134-44.5996 39.6903-42.0495Q42.3672-39.4995 42.3672-35.2788Q42.3672-31.0581 39.6903-28.5081Q37.0134-25.958 33.2168-25.958Q31.1219-25.958 29.2895-26.8571Q27.4572-27.7562 25.7765-29.1678Q24.3743-30.3664 22.8637-31.0122Q21.3531-31.6581 19.6274-31.6581Q16.589-31.6581 14.525-29.5629Q12.4609-27.4676 12.4609-23.9839ZM22.6042-3.0272L22.6042-17.8518Q22.6042-19.2765 23.239-19.158Q23.8738-19.0395 24.583-18.6412Q26.5575-17.4372 28.8161-16.699Q31.0747-15.9608 33.7122-15.9608Q38.5453-15.9608 42.7683-18.3422Q46.9913-20.7236 49.6129-25.0601Q52.2345-29.3967 52.2345-35.2788Q52.2345-41.1609 49.6129-45.5065Q46.9913-49.8522 42.7683-52.2245Q38.5453-54.5968 33.7122-54.5968Q31.0747-54.5968 28.8161-53.8586Q26.5575-53.1205 24.583-51.9164Q23.8738-51.5181 23.239-51.4087Q22.6042-51.2993 22.6042-52.7058L22.6042-67.6187Q22.6042-70.4502 24.1596-71.9705Q25.715-73.4908 28.4385-73.4908L88.5496-73.4908Q91.2731-73.4908 92.8099-71.9705Q94.3468-70.4502 94.3468-67.6187L94.3468-46.5894Q94.3468-43.1057 96.4109-40.9564Q98.475-38.8071 101.513-38.8071Q103.239-38.8071 104.753-39.4715Q106.267-40.1359 107.662-41.2975Q109.343-42.709 111.175-43.6081Q113.008-44.5072 115.103-44.5072Q118.899-44.5072 121.576-41.9536Q124.253-39.4 124.253-35.1864Q124.253-30.9657 121.576-28.4157Q118.899-25.8657 115.103-25.8657Q113.008-25.8657 111.175-26.7648Q109.343-27.6638 107.662-29.0754Q106.267-30.2668 104.753-30.9127Q103.239-31.5587 101.513-31.5587Q98.475-31.5587 96.4109-29.4129Q94.3468-27.2672 94.3468-23.8133L94.3468-3.0272Q94.3468-0.195726 92.8099 1.3246Q91.2731 2.84493 88.5496 2.84493L28.4385 2.84493Q25.715 2.84493 24.1596 1.3246Q22.6042-0.195726 22.6042-3.0272Z"/>
  </g>
  <g id="Medium-M" transform="matrix(1 0 0 1 1675.59 1126)">
   <path d="M12.4609-2.67702Q12.4609 4.64955 16.4347 8.57039Q20.4084 12.4912 27.9219 12.4912L88.1088 12.4912Q95.5788 12.4912 99.5525 8.57039Q103.526 4.64955 103.526-2.67702L103.526-19.0563Q103.526-19.663 103.919-19.8618Q104.311-20.0605 104.971-19.602Q107.131-18.1637 109.682-17.2304Q112.233-16.297 115.095-16.297Q119.844-16.297 123.966-18.6404Q128.088-20.9837 130.648-25.246Q133.207-29.5084 133.207-35.1591Q133.207-40.8533 130.648-45.0947Q128.088-49.3362 123.966-51.6787Q119.844-54.0212 115.095-54.0212Q112.233-54.0212 109.682-53.1053Q107.131-52.1894 104.971-50.7076Q104.311-50.2925 103.919-50.5007Q103.526-50.7089 103.526-51.2967L103.526-67.9689Q103.526-75.3057 99.5525-79.2214Q95.5788-83.1371 88.1088-83.1371L27.9219-83.1371Q20.4084-83.1371 16.4347-79.2214Q12.4609-75.3057 12.4609-67.9689L12.4609-46.4142Q12.4609-43.1146 14.3898-41.1772Q16.3187-39.2399 19.1504-39.2399Q20.7257-39.2399 22.1972-39.8664Q23.6687-40.493 25.0746-41.7475Q26.8017-43.2454 28.7069-44.167Q30.612-45.0886 32.7413-45.0886Q36.6995-45.0886 39.5333-42.4026Q42.3672-39.7166 42.3672-35.2709Q42.3672-30.8253 39.5333-28.1393Q36.6995-25.4533 32.7413-25.4533Q30.612-25.4533 28.7069-26.3749Q26.8017-27.2964 25.0746-28.7943Q23.6687-30.0489 22.1972-30.6754Q20.7257-31.302 19.1504-31.302Q16.3187-31.302 14.3898-29.3646Q12.4609-27.4273 12.4609-24.1277ZM21.6105-3.1152L21.6105-18.5679Q21.6105-20.1214 22.2808-19.9557Q22.951-19.7901 23.6549-19.375Q25.7368-18.067 28.088-17.2379Q30.4392-16.4088 33.179-16.4088Q37.9288-16.4088 42.0464-18.7522Q46.1641-21.0956 48.7062-25.3361Q51.2483-29.5767 51.2483-35.2709Q51.2483-40.9651 48.7062-45.2108Q46.1641-49.4566 42.0464-51.7948Q37.9288-54.133 33.179-54.133Q30.4392-54.133 28.088-53.3039Q25.7368-52.4748 23.6549-51.1669Q22.951-50.7518 22.2808-50.5912Q21.6105-50.4307 21.6105-51.9739L21.6105-67.5307Q21.6105-70.6567 23.3229-72.3222Q25.0353-73.9877 28.0465-73.9877L87.9842-73.9877Q90.9954-73.9877 92.686-72.3222Q94.3766-70.6567 94.3766-67.5307L94.3766-46.4318Q94.3766-43.1322 96.3056-41.1301Q98.2345-39.128 101.066-39.128Q102.641-39.128 104.117-39.7763Q105.593-40.4246 106.99-41.6358Q108.718-43.1336 110.623-44.0551Q112.528-44.9767 114.657-44.9767Q118.615-44.9767 121.449-42.2865Q124.283-39.5962 124.283-35.1591Q124.283-30.7134 121.449-28.0275Q118.615-25.3416 114.657-25.3416Q112.528-25.3416 110.623-26.2631Q108.718-27.1846 106.99-28.6825Q105.593-29.9284 104.117-30.555Q102.641-31.1816 101.066-31.1816Q98.2345-31.1816 96.3056-29.1838Q94.3766-27.1861 94.3766-23.9212L94.3766-3.1152Q94.3766 0.0108011 92.686 1.67629Q90.9954 3.34178 87.9842 3.34178L28.0465 3.34178Q25.0353 3.34178 23.3229 1.67629Q21.6105 0.0108011 21.6105-3.1152Z"/>
  </g>
  <g id="Regular-M" transform="matrix(1 0 0 1 1379.5 1126)">
   <path d="M12.4609-2.80546Q12.4609 4.39277 16.2432 8.11796Q20.0255 11.8432 27.4106 11.8432L87.3713 11.8432Q94.7046 11.8432 98.4868 8.11796Q102.269 4.39277 102.269-2.80546L102.269-20.0768Q102.269-20.6702 102.655-20.8787Q103.04-21.0872 103.685-20.5985Q106-18.9996 108.71-17.9279Q111.42-16.8561 114.438-16.8561Q119.079-16.8561 123.065-19.1498Q127.05-21.4436 129.509-25.5849Q131.968-29.7262 131.968-35.1234Q131.968-40.5726 129.509-44.6827Q127.05-48.7929 123.065-51.0918Q119.079-53.3908 114.438-53.3908Q111.42-53.3908 108.71-52.3397Q106-51.2886 103.685-49.638Q103.04-49.2008 102.655-49.4147Q102.269-49.6285 102.269-50.2113L102.269-67.8404Q102.269-75.0387 98.4868-78.7639Q94.7046-82.4891 87.3713-82.4891L27.4106-82.4891Q20.0255-82.4891 16.2432-78.7639Q12.4609-75.0387 12.4609-67.8404L12.4609-46.2062Q12.4609-43.1467 14.2135-41.4152Q15.966-39.6838 18.5282-39.6838Q19.9074-39.6838 21.3278-40.2852Q22.7482-40.8865 24.1592-42.2141Q25.9469-43.8245 27.9469-44.7755Q29.947-45.7264 32.1211-45.7264Q36.2899-45.7264 39.3286-42.8631Q42.3672-39.9997 42.3672-35.2606Q42.3672-30.5216 39.3286-27.6582Q36.2899-24.7949 32.1211-24.7949Q29.947-24.7949 27.9469-25.7458Q25.9469-26.6968 24.1592-28.3072Q22.7482-29.6347 21.3278-30.2361Q19.9074-30.8375 18.5282-30.8375Q15.966-30.8375 14.2135-29.106Q12.4609-27.3746 12.4609-24.3151ZM20.3144-3.22997L20.3144-19.502Q20.3144-21.2235 21.0309-20.9963Q21.7474-20.7692 22.4444-20.3321Q24.6663-18.8886 27.1383-17.9409Q29.6104-16.9933 32.4835-16.9933Q37.1246-16.9933 41.1048-19.287Q45.085-21.5808 47.5235-25.6961Q49.962-29.8115 49.962-35.2606Q49.962-40.7098 47.5235-44.8251Q45.085-48.9405 41.1048-51.2343Q37.1246-53.528 32.4835-53.528Q29.6104-53.528 27.1383-52.5804Q24.6663-51.6327 22.4444-50.1892Q21.7474-49.7521 21.0309-49.525Q20.3144-49.2978 20.3144-51.0193L20.3144-67.4159Q20.3144-70.9261 22.2316-72.7809Q24.1487-74.6358 27.5352-74.6358L87.2467-74.6358Q90.6332-74.6358 92.5244-72.7809Q94.4156-70.9261 94.4156-67.4159L94.4156-46.2263Q94.4156-43.1668 96.1683-41.3567Q97.9209-39.5466 100.483-39.5466Q101.862-39.5466 103.288-40.1739Q104.714-40.8012 106.114-42.0771Q107.902-43.6873 109.902-44.6382Q111.902-45.5892 114.076-45.5892Q118.245-45.5892 121.283-42.7206Q124.322-39.8521 124.322-35.1234Q124.322-30.3844 121.283-27.5211Q118.245-24.6579 114.076-24.6579Q111.902-24.6579 109.902-25.6087Q107.902-26.5596 106.114-28.17Q104.714-29.4869 103.288-30.0884Q101.862-30.6898 100.483-30.6898Q97.9209-30.6898 96.1683-28.885Q94.4156-27.0802 94.4156-24.0618L94.4156-3.22997Q94.4156 0.280184 92.5244 2.13502Q90.6332 3.98985 87.2467 3.98985L27.5352 3.98985Q24.1487 3.98985 22.2316 2.13502Q20.3144 0.280184 20.3144-3.22997Z"/>
  </g>
  <g id="Light-M" transform="matrix(1 0 0 1 1083.49 1126)">
   <path d="M12.4609-2.30926Q12.4609 4.03341 15.9609 7.48478Q19.4609 10.9361 25.9904 10.9361L87.3029 10.9361Q93.7976 10.9361 97.2975 7.48478Q100.797 4.03341 100.797-2.30926L100.797-20.9151Q100.797-21.6626 101.303-21.9567Q101.808-22.2507 102.59-21.6765Q104.819-20.1119 107.529-18.8176Q110.24-17.5233 113.908-17.5233Q118.497-17.5233 122.278-19.6973Q126.058-21.8713 128.312-25.8074Q130.565-29.7434 130.565-34.9009Q130.565-40.0933 128.312-43.9982Q126.058-47.9031 122.278-50.0908Q118.497-52.2785 113.908-52.2785Q110.24-52.2785 107.529-50.988Q104.819-49.6974 102.59-48.0979Q101.808-47.5582 101.303-47.8661Q100.797-48.1741 100.797-48.8938L100.797-68.3366Q100.797-74.6793 97.2975-78.1307Q93.7976-81.582 87.3029-81.582L25.9904-81.582Q19.4609-81.582 15.9609-78.1307Q12.4609-74.6793 12.4609-68.3366L12.4609-46.2746Q12.4609-43.6087 13.9739-42.1511Q15.4868-40.6934 17.7583-40.6934Q18.9492-40.6934 20.1471-41.2092Q21.345-41.7249 22.6191-42.8813Q24.5779-44.5774 26.6892-45.6054Q28.8005-46.6334 31.3682-46.6334Q36.0332-46.6334 39.2002-43.5218Q42.3672-40.4103 42.3672-35.2606Q42.3672-30.111 39.2002-26.9995Q36.0332-23.8879 31.3682-23.8879Q28.8005-23.8879 26.6892-24.9159Q24.5779-25.9438 22.6191-27.64Q21.345-28.7964 20.1471-29.3121Q18.9492-29.8278 17.7583-29.8278Q15.4868-29.8278 13.9739-28.3702Q12.4609-26.9126 12.4609-24.2467ZM18.5007-2.61389L18.5007-21.0248Q18.5007-22.5068 19.2172-22.4165Q19.9337-22.3262 20.7505-21.7864Q22.9382-20.326 25.4787-19.1045Q28.0192-17.883 31.611-17.883Q36.2006-17.883 39.9669-20.0571Q43.7333-22.2311 45.9836-26.1497Q48.2339-30.0682 48.2339-35.2606Q48.2339-40.453 45.9836-44.3716Q43.7333-48.2902 39.9669-50.4642Q36.2006-52.6382 31.611-52.6382Q28.0192-52.6382 25.4787-51.4168Q22.9382-50.1953 20.7505-48.7348Q19.9337-48.1951 19.2172-48.1048Q18.5007-48.0145 18.5007-49.4965L18.5007-68.032Q18.5007-71.5764 20.5462-73.5596Q22.5917-75.5428 26.115-75.5428L87.1783-75.5428Q90.7016-75.5428 92.7297-73.5596Q94.7577-71.5764 94.7577-68.032L94.7577-46.2263Q94.7577-43.5604 96.2709-41.947Q97.7841-40.3337 100.055-40.3337Q101.246-40.3337 102.458-40.8669Q103.67-41.4 104.916-42.5221Q106.875-44.2177 108.986-45.2457Q111.098-46.2737 113.665-46.2737Q118.33-46.2737 121.497-43.1484Q124.664-40.0231 124.664-34.9009Q124.664-29.7513 121.497-26.64Q118.33-23.5286 113.665-23.5286Q111.098-23.5286 108.986-24.5564Q106.875-25.5841 104.916-27.2802Q103.67-28.4088 102.458-28.9248Q101.246-29.4407 100.055-29.4407Q97.7841-29.4407 96.2709-27.8413Q94.7577-26.2419 94.7577-23.5826L94.7577-2.61389Q94.7577 0.930474 92.7297 2.91367Q90.7016 4.89687 87.1783 4.89687L26.115 4.89687Q22.5917 4.89687 20.5462 2.91367Q18.5007 0.930474 18.5007-2.61389Z"/>
  </g>
  <g id="Thin-M" transform="matrix(1 0 0 1 787.706 1126)">
   <path d="M12.4609-1.653Q12.4609 3.55814 15.5875 6.64734Q18.7141 9.73654 24.1121 9.73654L87.2124 9.73654Q92.598 9.73654 95.7245 6.64734Q98.8511 3.55814 98.8511-1.653L98.8511-22.0238Q98.8511-22.9752 99.515-23.3823Q100.179-23.7894 101.142-23.1024Q103.258-21.583 105.968-19.9944Q108.678-18.4058 113.206-18.4058Q117.728-18.4058 121.237-20.4215Q124.745-22.4371 126.727-26.1017Q128.709-29.7662 128.709-34.6066Q128.709-39.4595 126.727-43.0929Q124.745-46.7263 121.237-48.7669Q117.728-50.8074 113.206-50.8074Q108.678-50.8074 105.968-49.2002Q103.258-47.5929 101.142-46.0611Q100.179-45.3856 99.515-45.8181Q98.8511-46.2506 98.8511-47.1512L98.8511-68.9929Q98.8511-74.204 95.7245-77.2932Q92.598-80.3824 87.2124-80.3824L24.1121-80.3824Q18.7141-80.3824 15.5875-77.2932Q12.4609-74.204 12.4609-68.9929L12.4609-46.3651Q12.4609-44.2197 13.6569-43.1242Q14.8529-42.0288 16.7401-42.0288Q17.6819-42.0288 18.5855-42.4312Q19.4891-42.8336 20.5823-43.7638Q22.7672-45.5732 25.0257-46.7031Q27.2841-47.833 30.3724-47.833Q35.6937-47.833 39.0304-44.3931Q42.3672-40.9532 42.3672-35.2606Q42.3672-29.5681 39.0304-26.1282Q35.6937-22.6883 30.3724-22.6883Q27.2841-22.6883 25.0257-23.8182Q22.7672-24.948 20.5823-26.7575Q19.4891-27.6877 18.5855-28.0901Q17.6819-28.4925 16.7401-28.4925Q14.8529-28.4925 13.6569-27.397Q12.4609-26.3016 12.4609-24.1562ZM16.1019-1.79908L16.1019-23.0388Q16.1019-24.2041 16.8184-24.2948Q17.5349-24.3855 18.5103-23.71Q20.6527-22.2271 23.2837-20.6435Q25.9147-19.0598 30.457-19.0598Q34.9786-19.0598 38.462-21.0755Q41.9455-23.0911 43.9469-26.7495Q45.9484-30.4078 45.9484-35.2606Q45.9484-40.1135 43.9469-43.7718Q41.9455-47.4302 38.462-49.4458Q34.9786-51.4615 30.457-51.4615Q25.9147-51.4615 23.2837-49.8778Q20.6527-48.2942 18.5103-46.8113Q17.5349-46.1358 16.8184-46.2265Q16.1019-46.3172 16.1019-47.4825L16.1019-68.8468Q16.1019-72.4364 18.3171-74.5894Q20.5324-76.7424 24.2368-76.7424L87.0878-76.7424Q90.7921-76.7424 93.0012-74.5894Q95.2102-72.4364 95.2102-68.8468L95.2102-46.2263Q95.2102-44.0809 96.4066-42.7278Q97.6031-41.3748 99.4894-41.3748Q100.431-41.3748 101.36-41.7834Q102.289-42.192 103.332-43.1107Q105.517-44.9192 107.776-46.0491Q110.034-47.179 113.122-47.179Q118.444-47.179 121.78-43.7142Q125.116-40.2493 125.116-34.6066Q125.116-28.9141 121.78-25.4746Q118.444-22.0351 113.122-22.0351Q110.034-22.0351 107.776-23.1646Q105.517-24.294 103.332-26.1035Q102.289-26.983 101.36-27.3858Q100.431-27.7886 99.4894-27.7886Q97.6031-27.7886 96.4066-26.4609Q95.2102-25.1332 95.2102-22.9487L95.2102-1.79908Q95.2102 1.79053 93.0012 3.9435Q90.7921 6.09647 87.0878 6.09647L24.2368 6.09647Q20.5324 6.09647 18.3171 3.9435Q16.1019 1.79053 16.1019-1.79908Z"/>
  </g>
  <g id="Ultralight-M" transform="matrix(1 0 0 1 491.47 1126)">
   <path d="M12.4609-1.31686Q12.4609 3.3147 15.3963 6.21841Q18.3316 9.12211 23.1501 9.12211L87.166 9.12211Q91.9835 9.12211 94.9189 6.21841Q97.8542 3.3147 97.8542-1.31686L97.8542-22.5917Q97.8542-23.6474 98.5993-24.1125Q99.3444-24.5776 100.4-23.8327Q102.458-22.3365 105.168-20.5971Q107.878-18.8578 112.847-18.8578Q117.334-18.8578 120.703-20.7924Q124.073-22.7269 125.916-26.2524Q127.759-29.7779 127.759-34.4559Q127.759-39.1348 125.916-42.6292Q124.073-46.1236 120.703-48.0888Q117.334-50.054 112.847-50.054Q107.878-50.054 105.168-48.2845Q102.458-46.515 100.4-45.0178Q99.3444-44.2728 98.5993-44.7691Q97.8542-45.2653 97.8542-46.2587L97.8542-69.329Q97.8542-73.9606 94.9189-76.8643Q91.9835-79.768 87.166-79.768L23.1501-79.768Q18.3316-79.768 15.3963-76.8643Q12.4609-73.9606 12.4609-69.329L12.4609-46.4114Q12.4609-44.5327 13.4946-43.6227Q14.5283-42.7127 16.2186-42.7127Q17.0328-42.7127 17.7857-43.0571Q18.5386-43.4015 19.539-44.2158Q21.8399-46.0833 24.1737-47.2654Q26.5075-48.4474 29.8623-48.4474Q35.5198-48.4474 38.9435-44.8394Q42.3672-41.2313 42.3672-35.2606Q42.3672-29.29 38.9435-25.6819Q35.5198-22.0739 29.8623-22.0739Q26.5075-22.0739 24.1737-23.2559Q21.8399-24.438 19.539-26.3055Q18.5386-27.1198 17.7857-27.4642Q17.0328-27.8085 16.2186-27.8085Q14.5283-27.8085 13.4946-26.8986Q12.4609-25.9886 12.4609-24.1099ZM14.8732-1.38174L14.8732-24.0704Q14.8732-25.0735 15.5897-25.2568Q16.3062-25.4402 17.3628-24.6952Q19.4821-23.2009 22.1594-21.4317Q24.8367-19.6626 29.8659-19.6626Q34.3527-19.6626 37.6912-21.5971Q41.0298-23.5316 42.9038-27.0567Q44.7778-30.5817 44.7778-35.2606Q44.7778-39.9396 42.9038-43.4646Q41.0298-46.9896 37.6912-48.9242Q34.3527-50.8587 29.8659-50.8587Q24.8367-50.8587 22.1594-49.0896Q19.4821-47.3204 17.3628-45.8261Q16.3062-45.0811 15.5897-45.2644Q14.8732-45.4478 14.8732-46.4509L14.8732-69.2642Q14.8732-72.877 17.1754-75.1169Q19.4776-77.3568 23.2747-77.3568L87.0414-77.3568Q90.8385-77.3568 93.1402-75.1169Q95.442-72.877 95.442-69.2642L95.442-46.2263Q95.442-44.3475 96.4762-43.1277Q97.5104-41.908 99.1996-41.908Q100.014-41.908 100.798-42.2528Q101.582-42.5977 102.521-43.4121Q104.822-45.2785 107.156-46.4606Q109.49-47.6427 112.844-47.6427Q118.502-47.6427 121.925-44.0039Q125.348-40.3652 125.348-34.4559Q125.348-28.4852 121.925-24.8777Q118.502-21.2702 112.844-21.2702Q109.49-21.2702 107.156-22.4517Q104.822-23.6333 102.521-25.5007Q101.582-26.2527 100.798-26.5976Q100.014-26.9425 99.1996-26.9425Q97.5104-26.9425 96.4762-25.7539Q95.442-24.5653 95.442-22.6241L95.442-1.38174Q95.442 2.23105 93.1402 4.47097Q90.8385 6.71089 87.0414 6.71089L23.2747 6.71089Q19.4776 6.71089 17.1754 4.47097Q14.8732 2.23105 14.8732-1.38174Z"/>
  </g>
  <g id="Black-S" transform="matrix(1 0 0 1 2875.37 696)">
   <path d="M9.76562-9.17969Q9.76562-2.97852 13.623 0.854492Q17.4805 4.6875 23.8281 4.6875L71.9727 4.6875Q78.3203 4.6875 82.1777 0.854492Q86.0352-2.97852 86.0352-9.17969L86.0352-18.5547Q86.0352-19.0918 86.377-19.2139Q86.7188-19.3359 87.3047-19.0918Q88.3789-18.6035 89.7461-18.4082Q91.1133-18.2129 92.7734-18.2129Q96.9238-18.2129 100.684-20.2393Q104.443-22.2656 106.836-26.0742Q109.229-29.8828 109.229-35.3027Q109.229-40.7227 106.836-44.5557Q104.443-48.3887 100.684-50.3906Q96.9238-52.3926 92.7734-52.3926Q91.1133-52.3926 89.7461-52.1973Q88.3789-52.002 87.3047-51.5137Q86.7188-51.2695 86.377-51.416Q86.0352-51.5625 86.0352-52.0508L86.0352-61.4258Q86.0352-67.6758 82.1777-71.4844Q78.3203-75.293 71.9727-75.293L23.8281-75.293Q17.4805-75.293 13.623-71.4844Q9.76562-67.6758 9.76562-61.4258L9.76562-44.8242Q9.76562-41.3086 11.9629-38.9893Q14.1602-36.6699 17.4316-36.6699Q19.4336-36.6699 20.7764-37.2559Q22.1191-37.8418 23.1934-38.5254Q24.3164-39.2578 25.4395-39.8682Q26.5625-40.4785 28.0762-40.4785Q30.3711-40.4785 31.7871-39.0625Q33.2031-37.6465 33.2031-35.3027Q33.2031-32.959 31.7871-31.543Q30.3711-30.127 28.0762-30.127Q26.5625-30.127 25.4395-30.7373Q24.3164-31.3477 23.1934-32.0801Q22.1191-32.7637 20.7764-33.3496Q19.4336-33.9355 17.4316-33.9355Q14.1602-33.9355 11.9629-31.6162Q9.76562-29.2969 9.76562-25.7812ZM21.9727-9.57031L21.9727-18.5547Q21.9727-19.0918 22.3145-19.2139Q22.6562-19.3359 23.2422-19.0918Q24.3164-18.6035 25.6836-18.4082Q27.0508-18.2129 28.7109-18.2129Q32.8613-18.2129 36.6211-20.2393Q40.3809-22.2656 42.7734-26.0742Q45.166-29.8828 45.166-35.3027Q45.166-40.7227 42.7734-44.5557Q40.3809-48.3887 36.6211-50.3906Q32.8613-52.3926 28.7109-52.3926Q27.0508-52.3926 25.6836-52.1973Q24.3164-52.002 23.2422-51.5137Q22.6562-51.2695 22.3145-51.416Q21.9727-51.5625 21.9727-52.0508L21.9727-61.0352Q21.9727-61.9629 22.5098-62.5244Q23.0469-63.0859 23.9258-63.0859L71.875-63.0859Q72.7539-63.0859 73.291-62.5244Q73.8281-61.9629 73.8281-61.0352L73.8281-44.8242Q73.8281-41.3086 76.0254-38.9893Q78.2227-36.6699 81.4941-36.6699Q83.4961-36.6699 84.8389-37.2559Q86.1816-37.8418 87.2559-38.5254Q88.3789-39.2578 89.502-39.8682Q90.625-40.4785 92.1387-40.4785Q94.4336-40.4785 95.8496-39.0625Q97.2656-37.6465 97.2656-35.3027Q97.2656-32.959 95.8496-31.543Q94.4336-30.127 92.1387-30.127Q90.625-30.127 89.502-30.7373Q88.3789-31.3477 87.2559-32.0801Q86.1816-32.7637 84.8389-33.3496Q83.4961-33.9355 81.4941-33.9355Q78.2227-33.9355 76.0254-31.6162Q73.8281-29.2969 73.8281-25.7812L73.8281-9.57031Q73.8281-8.64258 73.291-8.08105Q72.7539-7.51953 71.875-7.51953L23.9258-7.51953Q23.0469-7.51953 22.5098-8.08105Q21.9727-8.64258 21.9727-9.57031Z"/>
  </g>
  <g id="Heavy-S" transform="matrix(1 0 0 1 2579.26 696)">
   <path d="M9.76562-9.38713Q9.76562-3.22053 13.4444 0.428087Q17.1232 4.0767 23.4363 4.0767L71.1544 4.0767Q77.456 4.0767 81.1348 0.428087Q84.8136-3.22053 84.8136-9.38713L84.8136-19.5919Q84.8136-20.0944 85.1323-20.2165Q85.4511-20.3386 86.0024-20.0714Q87.261-19.3987 88.8068-19.0766Q90.3527-18.7545 92.105-18.7545Q96.1402-18.7545 99.7732-20.7406Q103.406-22.7266 105.712-26.4257Q108.018-30.1248 108.018-35.2912Q108.018-40.4691 105.712-44.1811Q103.406-47.8931 99.7732-49.8605Q96.1402-51.8279 92.105-51.8279Q90.3527-51.8279 88.8068-51.5116Q87.261-51.1952 86.0024-50.511Q85.4511-50.2554 85.1323-50.3961Q84.8136-50.5368 84.8136-51.0021L84.8136-61.2183Q84.8136-67.4222 81.1348-71.0522Q77.456-74.6822 71.1544-74.6822L23.4363-74.6822Q17.1232-74.6822 13.4444-71.0522Q9.76562-67.4222 9.76562-61.2183L9.76562-44.5822Q9.76562-41.2855 11.7958-39.1621Q13.8259-37.0387 16.8324-37.0387Q18.6384-37.0387 19.9524-37.6074Q21.2663-38.176 22.3636-38.9633Q23.5327-39.811 24.748-40.4444Q25.9632-41.0778 27.4769-41.0778Q29.9447-41.0778 31.5739-39.4947Q33.2031-37.9115 33.2031-35.2912Q33.2031-32.6709 31.5739-31.0878Q29.9447-29.5046 27.4769-29.5046Q25.9632-29.5046 24.748-30.138Q23.5327-30.7714 22.3636-31.6191Q21.2663-32.4064 19.9524-32.9751Q18.6384-33.5437 16.8324-33.5437Q13.8259-33.5437 11.7958-31.4203Q9.76562-29.2969 9.76562-26.0002ZM20.7511-9.77775L20.7511-19.4075Q20.7511-20.1636 21.1447-20.1992Q21.5384-20.2348 22.1013-19.9792Q23.3368-19.3411 24.8308-19.0478Q26.3247-18.7545 28.0425-18.7545Q32.0777-18.7545 35.7107-20.7406Q39.3437-22.7266 41.644-26.42Q43.9444-30.1133 43.9444-35.2912Q43.9444-40.4691 41.644-44.1811Q39.3437-47.8931 35.7107-49.8605Q32.0777-51.8279 28.0425-51.8279Q26.3247-51.8279 24.8308-51.5346Q23.3368-51.2413 22.1013-50.6032Q21.5384-50.3476 21.1447-50.4019Q20.7511-50.4562 20.7511-51.1749L20.7511-60.8277Q20.7511-62.1819 21.5014-62.9393Q22.2517-63.6967 23.5339-63.6967L71.0568-63.6967Q72.339-63.6967 73.0836-62.9393Q73.8281-62.1819 73.8281-60.8277L73.8281-44.5937Q73.8281-41.2971 75.8583-39.1679Q77.8884-37.0387 80.8949-37.0387Q82.7009-37.0387 84.0149-37.6131Q85.3288-38.1875 86.4261-38.9633Q87.5952-39.811 88.8105-40.4444Q90.0257-41.0778 91.5394-41.0778Q94.0072-41.0778 95.6364-39.4947Q97.2656-37.9115 97.2656-35.2912Q97.2656-32.6709 95.6364-31.0878Q94.0072-29.5046 91.5394-29.5046Q90.0257-29.5046 88.8105-30.138Q87.5952-30.7714 86.4261-31.6191Q85.3288-32.4064 84.0149-32.9751Q82.7009-33.5437 80.8949-33.5437Q77.8884-33.5437 75.8583-31.4145Q73.8281-29.2854 73.8281-26.0002L73.8281-9.77775Q73.8281-8.42361 73.0836-7.66617Q72.339-6.90873 71.0568-6.90873L23.5339-6.90873Q22.2517-6.90873 21.5014-7.66617Q20.7511-8.42361 20.7511-9.77775Z"/>
  </g>
  <g id="Bold-S" transform="matrix(1 0 0 1 2283.23 696)">
   <path d="M9.76562-9.61914Q9.76562-3.49121 13.2446-0.0488281Q16.7236 3.39355 22.998 3.39355L70.2393 3.39355Q76.4893 3.39355 79.9683-0.0488281Q83.4473-3.49121 83.4473-9.61914L83.4473-20.752Q83.4473-21.2158 83.7402-21.3379Q84.0332-21.46 84.5459-21.167Q86.0107-20.2881 87.7563-19.8242Q89.502-19.3604 91.3574-19.3604Q95.2637-19.3604 98.7549-21.3013Q102.246-23.2422 104.456-26.8188Q106.665-30.3955 106.665-35.2783Q106.665-40.1855 104.456-43.7622Q102.246-47.3389 98.7549-49.2676Q95.2637-51.1963 91.3574-51.1963Q89.502-51.1963 87.7563-50.7446Q86.0107-50.293 84.5459-49.3896Q84.0332-49.1211 83.7402-49.2554Q83.4473-49.3896 83.4473-49.8291L83.4473-60.9863Q83.4473-67.1387 79.9683-70.5688Q76.4893-73.999 70.2393-73.999L22.998-73.999Q16.7236-73.999 13.2446-70.5688Q9.76562-67.1387 9.76562-60.9863L9.76562-44.3115Q9.76562-41.2598 11.6089-39.3555Q13.4521-37.4512 16.1621-37.4512Q17.749-37.4512 19.0308-38.0005Q20.3125-38.5498 21.4355-39.4531Q22.6562-40.4297 23.9746-41.0889Q25.293-41.748 26.8066-41.748Q29.4678-41.748 31.3354-39.978Q33.2031-38.208 33.2031-35.2783Q33.2031-32.3486 31.3354-30.5786Q29.4678-28.8086 26.8066-28.8086Q25.293-28.8086 23.9746-29.4678Q22.6562-30.127 21.4355-31.1035Q20.3125-32.0068 19.0308-32.5562Q17.749-33.1055 16.1621-33.1055Q13.4521-33.1055 11.6089-31.2012Q9.76562-29.2969 9.76562-26.2451ZM19.3848-10.0098L19.3848-20.3613Q19.3848-21.3623 19.8364-21.3013Q20.2881-21.2402 20.8252-20.9717Q22.2412-20.166 23.877-19.7632Q25.5127-19.3604 27.2949-19.3604Q31.2012-19.3604 34.6924-21.3013Q38.1836-23.2422 40.3809-26.8066Q42.5781-30.3711 42.5781-35.2783Q42.5781-40.1855 40.3809-43.7622Q38.1836-47.3389 34.6924-49.2676Q31.2012-51.1963 27.2949-51.1963Q25.5127-51.1963 23.877-50.7935Q22.2412-50.3906 20.8252-49.585Q20.2881-49.3164 19.8364-49.2676Q19.3848-49.2188 19.3848-50.1953L19.3848-60.5957Q19.3848-62.4268 20.3735-63.4033Q21.3623-64.3799 23.0957-64.3799L70.1416-64.3799Q71.875-64.3799 72.8516-63.4033Q73.8281-62.4268 73.8281-60.5957L73.8281-44.3359Q73.8281-41.2842 75.6714-39.3677Q77.5146-37.4512 80.2246-37.4512Q81.8115-37.4512 83.0933-38.0127Q84.375-38.5742 85.498-39.4531Q86.7188-40.4297 88.0371-41.0889Q89.3555-41.748 90.8691-41.748Q93.5303-41.748 95.3979-39.978Q97.2656-38.208 97.2656-35.2783Q97.2656-32.3486 95.3979-30.5786Q93.5303-28.8086 90.8691-28.8086Q89.3555-28.8086 88.0371-29.4678Q86.7188-30.127 85.498-31.1035Q84.375-32.0068 83.0933-32.5562Q81.8115-33.1055 80.2246-33.1055Q77.5146-33.1055 75.6714-31.189Q73.8281-29.2725 73.8281-26.2451L73.8281-10.0098Q73.8281-8.17871 72.8516-7.20215Q71.875-6.22559 70.1416-6.22559L23.0957-6.22559Q21.3623-6.22559 20.3735-7.20215Q19.3848-8.17871 19.3848-10.0098Z"/>
  </g>
  <g id="Semibold-S" transform="matrix(1 0 0 1 1986.98 696)">
   <path d="M9.76562-9.7791Q9.76562-3.67783 13.1069-0.377637Q16.4481 2.92256 22.6959 2.92256L69.6083 2.92256Q75.8228 2.92256 79.164-0.377637Q82.5053-3.67783 82.5053-9.7791L82.5053-21.5518Q82.5053-21.989 82.7805-22.111Q83.0557-22.2331 83.5417-21.9224Q85.1487-20.9013 87.0321-20.3396Q88.9154-19.778 90.842-19.778Q94.6594-19.778 98.0528-21.6878Q101.446-23.5977 103.589-27.0899Q105.732-30.5821 105.732-35.2694Q105.732-39.99 103.589-43.4734Q101.446-46.9567 98.0528-48.8588Q94.6594-50.7608 90.842-50.7608Q88.9154-50.7608 87.0321-50.2159Q85.1487-49.6709 83.5417-48.6165Q83.0557-48.3391 82.7805-48.4689Q82.5053-48.5987 82.5053-49.0204L82.5053-60.8264Q82.5053-66.9432 79.164-70.2356Q75.8228-73.528 69.6083-73.528L22.6959-73.528Q16.4481-73.528 13.1069-70.2356Q9.76562-66.9432 9.76562-60.8264L9.76562-44.1249Q9.76562-41.242 11.48-39.4888Q13.1944-37.7355 15.7-37.7355Q17.1358-37.7355 18.3954-38.2715Q19.6549-38.8075 20.7957-39.7908Q22.052-40.8563 23.4414-41.5332Q24.8309-42.2102 26.3445-42.2102Q29.139-42.2102 31.171-40.3113Q33.2031-38.4124 33.2031-35.2694Q33.2031-32.1265 31.171-30.2276Q29.139-28.3287 26.3445-28.3287Q24.8309-28.3287 23.4414-29.0057Q22.052-29.6826 20.7957-30.748Q19.6549-31.7313 18.3954-32.2673Q17.1358-32.8033 15.7-32.8033Q13.1944-32.8033 11.48-31.0501Q9.76562-29.2969 9.76562-26.414ZM18.4428-10.1697L18.4428-21.0189Q18.4428-22.1888 18.9344-22.0611Q19.4261-21.9334 19.9454-21.656Q21.4858-20.7348 23.2193-20.2564Q24.9528-19.778 26.7795-19.778Q30.5969-19.778 33.9903-21.6878Q37.3838-23.5977 39.51-27.0732Q41.6361-30.5488 41.6361-35.2694Q41.6361-39.99 39.51-43.4734Q37.3838-46.9567 33.9903-48.8588Q30.5969-50.7608 26.7795-50.7608Q24.9528-50.7608 23.2193-50.2825Q21.4858-49.8041 19.9454-48.8829Q19.4261-48.6055 18.9344-48.4855Q18.4428-48.3656 18.4428-49.5199L18.4428-60.4357Q18.4428-62.5956 19.5959-63.7232Q20.7491-64.8509 22.7936-64.8509L69.5106-64.8509Q71.5551-64.8509 72.6916-63.7232Q73.8281-62.5956 73.8281-60.4357L73.8281-44.1582Q73.8281-41.2753 75.5425-39.5054Q77.2569-37.7355 79.7625-37.7355Q81.1983-37.7355 82.4579-38.2882Q83.7174-38.8408 84.8582-39.7908Q86.1145-40.8563 87.5039-41.5332Q88.8934-42.2102 90.407-42.2102Q93.2015-42.2102 95.2335-40.3113Q97.2656-38.4124 97.2656-35.2694Q97.2656-32.1265 95.2335-30.2276Q93.2015-28.3287 90.407-28.3287Q88.8934-28.3287 87.5039-29.0057Q86.1145-29.6826 84.8582-30.748Q83.7174-31.7313 82.4579-32.2673Q81.1983-32.8033 79.7625-32.8033Q77.2569-32.8033 75.5425-31.0334Q73.8281-29.2636 73.8281-26.414L73.8281-10.1697Q73.8281-8.00986 72.6916-6.88223Q71.5551-5.75459 69.5106-5.75459L22.7936-5.75459Q20.7491-5.75459 19.5959-6.88223Q18.4428-8.00986 18.4428-10.1697Z"/>
  </g>
  <g id="Medium-S" transform="matrix(1 0 0 1 1690.63 696)">
   <path d="M9.76562-9.90039Q9.76562-3.81934 13.0024-0.626953Q16.2393 2.56543 22.4668 2.56543L69.1299 2.56543Q75.3174 2.56543 78.5542-0.626953Q81.791-3.81934 81.791-9.90039L81.791-22.1582Q81.791-22.5752 82.0527-22.6973Q82.3145-22.8193 82.7803-22.4951Q84.4951-21.3662 86.4829-20.7305Q88.4707-20.0947 90.4512-20.0947Q94.2012-20.0947 97.5205-21.981Q100.84-23.8672 102.932-27.2954Q105.024-30.7236 105.024-35.2627Q105.024-39.8418 102.932-43.2544Q100.84-46.667 97.5205-48.5488Q94.2012-50.4307 90.4512-50.4307Q88.4707-50.4307 86.4829-49.8149Q84.4951-49.1992 82.7803-48.0303Q82.3145-47.7461 82.0527-47.8726Q81.791-47.999 81.791-48.4072L81.791-60.7051Q81.791-66.7949 78.5542-69.9829Q75.3174-73.1709 69.1299-73.1709L22.4668-73.1709Q16.2393-73.1709 13.0024-69.9829Q9.76562-66.7949 9.76562-60.7051L9.76562-43.9834Q9.76562-41.2285 11.3823-39.5898Q12.999-37.9512 15.3496-37.9512Q16.6709-37.9512 17.9136-38.4771Q19.1562-39.0029 20.3105-40.0469Q21.5938-41.1797 23.0371-41.8701Q24.4805-42.5605 25.9941-42.5605Q28.8896-42.5605 31.0464-40.564Q33.2031-38.5674 33.2031-35.2627Q33.2031-31.958 31.0464-29.9614Q28.8896-27.9648 25.9941-27.9648Q24.4805-27.9648 23.0371-28.6553Q21.5938-29.3457 20.3105-30.4785Q19.1562-31.5225 17.9136-32.0483Q16.6709-32.5742 15.3496-32.5742Q12.999-32.5742 11.3823-30.9355Q9.76562-29.2969 9.76562-26.542ZM17.7285-10.291L17.7285-21.5176Q17.7285-22.8154 18.2505-22.6372Q18.7725-22.459 19.2783-22.1748Q20.9131-21.166 22.7207-20.6304Q24.5283-20.0947 26.3887-20.0947Q30.1387-20.0947 33.458-21.981Q36.7773-23.8672 38.8496-27.2754Q40.9219-30.6836 40.9219-35.2627Q40.9219-39.8418 38.8496-43.2544Q36.7773-46.667 33.458-48.5488Q30.1387-50.4307 26.3887-50.4307Q24.5283-50.4307 22.7207-49.895Q20.9131-49.3594 19.2783-48.3506Q18.7725-48.0664 18.2505-47.8926Q17.7285-47.7188 17.7285-49.0078L17.7285-60.3145Q17.7285-62.7236 19.0063-63.9658Q20.2842-65.208 22.5645-65.208L69.0322-65.208Q71.3125-65.208 72.5703-63.9658Q73.8281-62.7236 73.8281-60.3145L73.8281-44.0234Q73.8281-41.2686 75.4448-39.6099Q77.0615-37.9512 79.4121-37.9512Q80.7334-37.9512 81.9761-38.4971Q83.2188-39.043 84.373-40.0469Q85.6562-41.1797 87.0996-41.8701Q88.543-42.5605 90.0566-42.5605Q92.9521-42.5605 95.1089-40.564Q97.2656-38.5674 97.2656-35.2627Q97.2656-31.958 95.1089-29.9614Q92.9521-27.9648 90.0566-27.9648Q88.543-27.9648 87.0996-28.6553Q85.6562-29.3457 84.373-30.4785Q83.2188-31.5225 81.9761-32.0483Q80.7334-32.5742 79.4121-32.5742Q77.0615-32.5742 75.4448-30.9155Q73.8281-29.2568 73.8281-26.542L73.8281-10.291Q73.8281-7.88184 72.5703-6.63965Q71.3125-5.39746 69.0322-5.39746L22.5645-5.39746Q20.2842-5.39746 19.0063-6.63965Q17.7285-7.88184 17.7285-10.291Z"/>
  </g>
  <g id="Regular-S" transform="matrix(1 0 0 1 1394.38 696)">
   <path d="M9.76562-10.0586Q9.76562-4.00391 12.8662-0.952148Q15.9668 2.09961 22.168 2.09961L68.5059 2.09961Q74.6582 2.09961 77.7588-0.952148Q80.8594-4.00391 80.8594-10.0586L80.8594-22.9492Q80.8594-23.3398 81.1035-23.4619Q81.3477-23.584 81.7871-23.2422Q83.6426-21.9727 85.7666-21.2402Q87.8906-20.5078 89.9414-20.5078Q93.6035-20.5078 96.8262-22.3633Q100.049-24.2188 102.075-27.5635Q104.102-30.9082 104.102-35.2539Q104.102-39.6484 102.075-42.9688Q100.049-46.2891 96.8262-48.1445Q93.6035-50 89.9414-50Q87.8906-50 85.7666-49.292Q83.6426-48.584 81.7871-47.2656Q81.3477-46.9727 81.1035-47.0947Q80.8594-47.2168 80.8594-47.6074L80.8594-60.5469Q80.8594-66.6016 77.7588-69.6533Q74.6582-72.7051 68.5059-72.7051L22.168-72.7051Q15.9668-72.7051 12.8662-69.6533Q9.76562-66.6016 9.76562-60.5469L9.76562-43.7988Q9.76562-41.2109 11.2549-39.7217Q12.7441-38.2324 14.8926-38.2324Q16.0645-38.2324 17.2852-38.7451Q18.5059-39.2578 19.6777-40.3809Q20.9961-41.6016 22.5098-42.3096Q24.0234-43.0176 25.5371-43.0176Q28.5645-43.0176 30.8838-40.8936Q33.2031-38.7695 33.2031-35.2539Q33.2031-31.7383 30.8838-29.6143Q28.5645-27.4902 25.5371-27.4902Q24.0234-27.4902 22.5098-28.1982Q20.9961-28.9062 19.6777-30.127Q18.5059-31.25 17.2852-31.7627Q16.0645-32.2754 14.8926-32.2754Q12.7441-32.2754 11.2549-30.7861Q9.76562-29.2969 9.76562-26.709ZM16.7969-10.4492L16.7969-22.168Q16.7969-23.6328 17.3584-23.3887Q17.9199-23.1445 18.4082-22.8516Q20.166-21.7285 22.0703-21.1182Q23.9746-20.5078 25.8789-20.5078Q29.541-20.5078 32.7637-22.3633Q35.9863-24.2188 37.9883-27.5391Q39.9902-30.8594 39.9902-35.2539Q39.9902-39.6484 37.9883-42.9688Q35.9863-46.2891 32.7637-48.1445Q29.541-50 25.8789-50Q23.9746-50 22.0703-49.3896Q20.166-48.7793 18.4082-47.6562Q17.9199-47.3633 17.3584-47.1191Q16.7969-46.875 16.7969-48.3398L16.7969-60.1562Q16.7969-62.8906 18.2373-64.2822Q19.6777-65.6738 22.2656-65.6738L68.4082-65.6738Q70.9961-65.6738 72.4121-64.2822Q73.8281-62.8906 73.8281-60.1562L73.8281-43.8477Q73.8281-41.2598 75.3174-39.7461Q76.8066-38.2324 78.9551-38.2324Q80.127-38.2324 81.3477-38.7695Q82.5684-39.3066 83.7402-40.3809Q85.0586-41.6016 86.5723-42.3096Q88.0859-43.0176 89.5996-43.0176Q92.627-43.0176 94.9463-40.8936Q97.2656-38.7695 97.2656-35.2539Q97.2656-31.7383 94.9463-29.6143Q92.627-27.4902 89.5996-27.4902Q88.0859-27.4902 86.5723-28.1982Q85.0586-28.9062 83.7402-30.127Q82.5684-31.25 81.3477-31.7627Q80.127-32.2754 78.9551-32.2754Q76.8066-32.2754 75.3174-30.7617Q73.8281-29.248 73.8281-26.709L73.8281-10.4492Q73.8281-7.71484 72.4121-6.32324Q70.9961-4.93164 68.4082-4.93164L22.2656-4.93164Q19.6777-4.93164 18.2373-6.32324Q16.7969-7.71484 16.7969-10.4492Z"/>
  </g>
  <g id="Light-S" transform="matrix(1 0 0 1 1098.29 696)">
   <path d="M9.76562-9.61965Q9.76562-4.3218 12.6165-1.51227Q15.4673 1.29725 20.9117 1.29725L68.4453 1.29725Q73.8558 1.29725 76.7067-1.51227Q79.5575-4.3218 79.5575-9.61965L79.5575-23.6908Q79.5575-24.2177 79.9077-24.4155Q80.2579-24.6132 80.8184-24.1959Q82.5981-22.9566 84.7221-22.0273Q86.8462-21.0981 89.4722-21.0981Q93.0888-21.0981 96.1299-22.8476Q99.1709-24.5972 101.016-27.7603Q102.86-30.9235 102.86-35.0571Q102.86-39.2245 101.016-42.3632Q99.1709-45.502 96.1299-47.259Q93.0888-49.0161 89.4722-49.0161Q86.8462-49.0161 84.7221-48.0962Q82.5981-47.1764 80.8184-45.9033Q80.2579-45.5195 79.9077-45.7249Q79.5575-45.9302 79.5575-46.4419L79.5575-60.9858Q79.5575-66.2837 76.7067-69.0932Q73.8558-71.9027 68.4453-71.9027L20.9117-71.9027Q15.4673-71.9027 12.6165-69.0932Q9.76562-66.2837 9.76562-60.9858L9.76562-43.8594Q9.76562-41.6196 11.0429-40.3726Q12.3202-39.1256 14.2115-39.1256Q15.2168-39.1256 16.2407-39.5625Q17.2646-39.9994 18.3154-40.9711Q19.7851-42.2676 21.3971-43.0438Q23.0092-43.8199 24.8711-43.8199Q28.3374-43.8199 30.7702-41.4763Q33.2031-39.1327 33.2031-35.2539Q33.2031-31.3751 30.7702-29.0315Q28.3374-26.6879 24.8711-26.6879Q23.0092-26.6879 21.3971-27.464Q19.7851-28.2402 18.3154-29.5367Q17.2646-30.5084 16.2407-30.9453Q15.2168-31.3822 14.2115-31.3822Q12.3202-31.3822 11.0429-30.1352Q9.76562-28.8882 9.76562-26.6485ZM15.1924-9.90423L15.1924-23.5151Q15.1924-24.7681 15.7539-24.645Q16.3155-24.5219 16.9098-24.1381Q18.6373-23.0001 20.6022-22.1475Q22.567-21.2949 25.1071-21.2949Q28.7237-21.2949 31.7571-23.0445Q34.7905-24.794 36.6261-27.9402Q38.4616-31.0865 38.4616-35.2539Q38.4616-39.4213 36.6261-42.5676Q34.7905-45.7138 31.7571-47.4634Q28.7237-49.2129 25.1071-49.2129Q22.567-49.2129 20.6022-48.3603Q18.6373-47.5077 16.9098-46.3697Q16.3155-45.9859 15.7539-45.8628Q15.1924-45.7397 15.1924-46.9927L15.1924-60.7012Q15.1924-63.4659 16.7464-64.971Q18.3004-66.4762 21.0093-66.4762L68.3477-66.4762Q71.0566-66.4762 72.5937-64.971Q74.1308-63.4659 74.1308-60.7012L74.1308-43.8477Q74.1308-41.6079 75.4082-40.2683Q76.6856-38.9287 78.5767-38.9287Q79.582-38.9287 80.6135-39.3826Q81.6449-39.8364 82.6808-40.7745Q84.1504-42.0708 85.7625-42.8469Q87.3746-43.6231 89.2365-43.6231Q92.7027-43.6231 95.1355-41.272Q97.5683-38.9208 97.5683-35.0571Q97.5683-31.1783 95.1355-28.8348Q92.7027-26.4913 89.2365-26.4913Q87.3746-26.4913 85.7625-27.2673Q84.1504-28.0434 82.6808-29.3399Q81.6449-30.2963 80.6135-30.7334Q79.582-31.1704 78.5767-31.1704Q76.6856-31.1704 75.4082-29.8384Q74.1308-28.5065 74.1308-26.285L74.1308-9.90423Q74.1308-7.13959 72.5937-5.63444Q71.0566-4.12928 68.3477-4.12928L21.0093-4.12928Q18.3004-4.12928 16.7464-5.63444Q15.1924-7.13959 15.1924-9.90423Z"/>
  </g>
  <g id="Thin-S" transform="matrix(1 0 0 1 802.395 696)">
   <path d="M9.76562-9.03911Q9.76562-4.74223 12.2862-2.25308Q14.8067 0.236068 19.2501 0.236068L68.3653 0.236068Q72.7947 0.236068 75.3152-2.25308Q77.8358-4.74223 77.8358-9.03911L77.8358-24.6716Q77.8358-25.3788 78.3262-25.6766Q78.8167-25.9744 79.5373-25.4572Q81.2167-24.2579 83.3407-23.0683Q85.4648-21.8787 88.8516-21.8787Q92.408-21.8787 95.2089-23.4882Q98.0099-25.0977 99.6142-28.0206Q101.219-30.9436 101.219-34.7967Q101.219-38.6638 99.6142-41.5624Q98.0099-44.461 95.2089-46.0878Q92.408-47.7147 88.8516-47.7147Q85.4648-47.7147 83.3407-46.5147Q81.2167-45.3147 79.5373-44.1014Q78.8167-43.5976 78.3262-43.9131Q77.8358-44.2286 77.8358-44.9004L77.8358-61.5664Q77.8358-65.8632 75.3152-68.3524Q72.7947-70.8415 68.3653-70.8415L19.2501-70.8415Q14.8067-70.8415 12.2862-68.3524Q9.76562-65.8632 9.76562-61.5664L9.76562-43.9394Q9.76562-42.1601 10.7626-41.2335Q11.7595-40.3068 13.3108-40.3068Q14.0958-40.3068 14.8593-40.6435Q15.6228-40.9802 16.5136-41.7518Q18.1834-43.1485 19.9256-44.0148Q21.6679-44.8811 23.9902-44.8811Q28.037-44.8811 30.6201-42.2471Q33.2031-39.613 33.2031-35.2539Q33.2031-30.8948 30.6201-28.2608Q28.037-25.6267 23.9902-25.6267Q21.6679-25.6267 19.9256-26.493Q18.1834-27.3593 16.5136-28.756Q15.6228-29.5276 14.8593-29.8643Q14.0958-30.201 13.3108-30.201Q11.7595-30.201 10.7626-29.2743Q9.76562-28.3477 9.76562-26.5684ZM13.0704-9.18343L13.0704-25.2967Q13.0704-26.2695 13.6319-26.3065Q14.1934-26.3436 14.928-25.8397Q16.6155-24.6818 18.6604-23.5089Q20.7053-22.3359 24.0862-22.3359Q27.6426-22.3359 30.4258-23.9454Q33.209-25.5548 34.8244-28.4708Q36.4398-31.3868 36.4398-35.2539Q36.4398-39.121 34.8244-42.037Q33.209-44.953 30.4258-46.5624Q27.6426-48.1719 24.0862-48.1719Q20.7053-48.1719 18.6604-46.9989Q16.6155-45.826 14.928-44.6681Q14.1934-44.1643 13.6319-44.2013Q13.0704-44.2383 13.0704-45.2111L13.0704-61.422Q13.0704-64.2267 14.7745-65.882Q16.4787-67.5374 19.3478-67.5374L68.2676-67.5374Q71.1367-67.5374 72.8338-65.882Q74.531-64.2267 74.531-61.422L74.531-43.8477Q74.531-42.0684 75.5282-40.959Q76.5255-39.8497 78.0762-39.8497Q78.8612-39.8497 79.6424-40.1933Q80.4237-40.537 81.2795-41.2952Q82.9493-42.6913 84.6916-43.5576Q86.4339-44.4239 88.7561-44.4239Q92.803-44.4239 95.3857-41.7725Q97.9685-39.121 97.9685-34.7967Q97.9685-30.4376 95.3857-27.8039Q92.803-25.1701 88.7561-25.1701Q86.4339-25.1701 84.6916-26.0361Q82.9493-26.9021 81.2795-28.2989Q80.4237-29.035 79.6424-29.372Q78.8612-29.709 78.0762-29.709Q76.5255-29.709 75.5282-28.6173Q74.531-27.5257 74.531-25.7243L74.531-9.18343Q74.531-6.37876 72.8338-4.72343Q71.1367-3.0681 68.2676-3.0681L19.3478-3.0681Q16.4787-3.0681 14.7745-4.72343Q13.0704-6.37876 13.0704-9.18343Z"/>
  </g>
  <g id="Ultralight-S" transform="matrix(1 0 0 1 506.104 696)">
   <path d="M9.76562-8.74176Q9.76562-4.95758 12.117-2.63252Q14.4684-0.307465 18.399-0.307465L68.3243-0.307465Q72.2511-0.307465 74.6025-2.63252Q76.9539-4.95758 76.9539-8.74176L76.9539-25.174Q76.9539-25.9735 77.5162-26.3226Q78.0785-26.6716 78.8811-26.1032Q80.5092-24.9245 82.6332-23.6015Q84.7572-22.2786 88.5338-22.2786Q92.0593-22.2786 94.7372-23.8163Q97.4152-25.354 98.8964-28.154Q100.378-30.954 100.378-34.6634Q100.378-38.3766 98.8964-41.1522Q97.4152-43.9278 94.7372-45.488Q92.0593-47.0482 88.5338-47.0482Q84.7572-47.0482 82.6332-45.7047Q80.5092-44.3611 78.8811-43.1786Q78.0785-42.6132 77.5162-42.9852Q76.9539-43.3571 76.9539-44.1109L76.9539-61.8637Q76.9539-65.6479 74.6025-67.9729Q72.2511-70.298 68.3243-70.298L18.399-70.298Q14.4684-70.298 12.117-67.9729Q9.76562-65.6479 9.76562-61.8637L9.76562-43.9804Q9.76562-42.437 10.619-41.6744Q11.4723-40.9119 12.8494-40.9119Q13.5216-40.9119 14.1518-41.1972Q14.782-41.4825 15.5907-42.1516Q17.363-43.5997 19.1719-44.5122Q20.9808-45.4247 23.539-45.4247Q27.8831-45.4247 30.5431-42.6418Q33.2031-39.859 33.2031-35.2539Q33.2031-30.6488 30.5431-27.866Q27.8831-25.0832 23.539-25.0832Q20.9808-25.0832 19.1719-25.9956Q17.363-26.9081 15.5907-28.3562Q14.782-29.0253 14.1518-29.3106Q13.5216-29.5959 12.8494-29.5959Q11.4723-29.5959 10.619-28.8334Q9.76562-28.0708 9.76562-26.5274ZM11.9835-8.81424L11.9835-26.2093Q11.9835-27.0386 12.545-27.1576Q13.1065-27.2766 13.913-26.7113Q15.58-25.5432 17.6659-24.2062Q19.7517-22.8691 23.5634-22.8691Q27.0889-22.8691 29.744-24.4068Q32.399-25.9445 33.9016-28.7426Q35.4042-31.5407 35.4042-35.2539Q35.4042-38.9671 33.9016-41.7652Q32.399-44.5633 29.744-46.101Q27.0889-47.6387 23.5634-47.6387Q19.7517-47.6387 17.6659-46.3017Q15.58-44.9646 13.913-43.7965Q13.1065-43.2312 12.545-43.3502Q11.9835-43.4692 11.9835-44.2986L11.9835-61.7912Q11.9835-64.6164 13.7646-66.3486Q15.5457-68.0809 18.4967-68.0809L68.2266-68.0809Q71.1777-68.0809 72.9568-66.3486Q74.736-64.6164 74.736-61.7912L74.736-43.8477Q74.736-42.3042 75.5898-41.3128Q76.4435-40.3214 77.8198-40.3214Q78.492-40.3214 79.1451-40.6086Q79.7981-40.8958 80.5618-41.5619Q82.3341-43.0092 84.1431-43.9217Q85.952-44.8341 88.5101-44.8341Q92.8543-44.8341 95.5139-42.0288Q98.1735-39.2235 98.1735-34.6634Q98.1735-30.0583 95.5139-27.2758Q92.8543-24.4934 88.5101-24.4934Q85.952-24.4934 84.1431-25.4055Q82.3341-26.3176 80.5618-27.7657Q79.7981-28.389 79.1451-28.6747Q78.492-28.9604 77.8198-28.9604Q76.4435-28.9604 75.5898-27.9919Q74.736-27.0233 74.736-25.4372L74.736-8.81424Q74.736-5.98907 72.9568-4.25682Q71.1777-2.52457 68.2266-2.52457L18.4967-2.52457Q15.5457-2.52457 13.7646-4.25682Q11.9835-5.98907 11.9835-8.81424Z"/>
  </g>
 </g>
</svg>
