<?xml version="1.0" encoding="UTF-8"?>
<!--Generator: Apple Native CoreSVG 175-->
<!DOCTYPE svg
PUBLIC "-//W3C//DTD SVG 1.1//EN"
       "http://www.w3.org/Graphics/SVG/1.1/DTD/svg11.dtd">
<svg version="1.1" xmlns="http://www.w3.org/2000/svg" xmlns:xlink="http://www.w3.org/1999/xlink" width="3300" height="2200">
 <!--glyph: "uni10096D.medium", point size: 100.0, font version: "17.3d3e1", template writer version: "65.1"-->
 <g id="Notes">
  <rect height="2200" id="artboard" style="fill:white;opacity:1" width="3300" x="0" y="0"/>
  <line style="fill:none;stroke:black;opacity:1;stroke-width:0.5;" x1="263" x2="3036" y1="292" y2="292"/>
  <text style="stroke:none;fill:black;font-family:sans-serif;font-size:13;font-weight:bold;" transform="matrix(1 0 0 1 263 322)">Weight/Scale Variations</text>
  <text style="stroke:none;fill:black;font-family:sans-serif;font-size:13;text-anchor:middle;" transform="matrix(1 0 0 1 559.711 322)">Ultralight</text>
  <text style="stroke:none;fill:black;font-family:sans-serif;font-size:13;text-anchor:middle;" transform="matrix(1 0 0 1 856.422 322)">Thin</text>
  <text style="stroke:none;fill:black;font-family:sans-serif;font-size:13;text-anchor:middle;" transform="matrix(1 0 0 1 1153.13 322)">Light</text>
  <text style="stroke:none;fill:black;font-family:sans-serif;font-size:13;text-anchor:middle;" transform="matrix(1 0 0 1 1449.84 322)">Regular</text>
  <text style="stroke:none;fill:black;font-family:sans-serif;font-size:13;text-anchor:middle;" transform="matrix(1 0 0 1 1746.56 322)">Medium</text>
  <text style="stroke:none;fill:black;font-family:sans-serif;font-size:13;text-anchor:middle;" transform="matrix(1 0 0 1 2043.27 322)">Semibold</text>
  <text style="stroke:none;fill:black;font-family:sans-serif;font-size:13;text-anchor:middle;" transform="matrix(1 0 0 1 2339.98 322)">Bold</text>
  <text style="stroke:none;fill:black;font-family:sans-serif;font-size:13;text-anchor:middle;" transform="matrix(1 0 0 1 2636.69 322)">Heavy</text>
  <text style="stroke:none;fill:black;font-family:sans-serif;font-size:13;text-anchor:middle;" transform="matrix(1 0 0 1 2933.4 322)">Black</text>
  <line style="fill:none;stroke:black;opacity:1;stroke-width:0.5;" x1="263" x2="3036" y1="1903" y2="1903"/>
  <g transform="matrix(1 0 0 1 263 1933)">
   <path d="M9.24805 0.830078Q10.8691 0.830078 12.2949 0.214844Q13.7207-0.400391 14.8096-1.49414Q15.8984-2.58789 16.5186-4.01367Q17.1387-5.43945 17.1387-7.05078Q17.1387-8.66211 16.5186-10.0879Q15.8984-11.5137 14.8047-12.6074Q13.7109-13.7012 12.2852-14.3164Q10.8594-14.9316 9.23828-14.9316Q7.62695-14.9316 6.20117-14.3164Q4.77539-13.7012 3.69141-12.6074Q2.60742-11.5137 1.9873-10.0879Q1.36719-8.66211 1.36719-7.05078Q1.36719-5.43945 1.9873-4.01367Q2.60742-2.58789 3.69629-1.49414Q4.78516-0.400391 6.21094 0.214844Q7.63672 0.830078 9.24805 0.830078ZM9.24805-0.654297Q7.91992-0.654297 6.7627-1.14746Q5.60547-1.64062 4.73145-2.51953Q3.85742-3.39844 3.36426-4.56055Q2.87109-5.72266 2.87109-7.05078Q2.87109-8.37891 3.35938-9.54102Q3.84766-10.7031 4.72168-11.582Q5.5957-12.4609 6.75293-12.9541Q7.91016-13.4473 9.23828-13.4473Q10.5762-13.4473 11.7334-12.9541Q12.8906-12.4609 13.7695-11.582Q14.6484-10.7031 15.1465-9.54102Q15.6445-8.37891 15.6445-7.05078Q15.6445-5.72266 15.1514-4.56055Q14.6582-3.39844 13.7842-2.51953Q12.9102-1.64062 11.748-1.14746Q10.5859-0.654297 9.24805-0.654297ZM5.6543-7.05078Q5.6543-6.72852 5.85938-6.52832Q6.06445-6.32812 6.40625-6.32812L8.51562-6.32812L8.51562-4.20898Q8.51562-3.88672 8.71094-3.67676Q8.90625-3.4668 9.23828-3.4668Q9.56055-3.4668 9.77051-3.67676Q9.98047-3.88672 9.98047-4.20898L9.98047-6.32812L12.0898-6.32812Q12.4219-6.32812 12.627-6.52832Q12.832-6.72852 12.832-7.05078Q12.832-7.38281 12.627-7.58789Q12.4219-7.79297 12.0898-7.79297L9.98047-7.79297L9.98047-9.90234Q9.98047-10.2344 9.77051-10.4443Q9.56055-10.6543 9.23828-10.6543Q8.90625-10.6543 8.71094-10.4443Q8.51562-10.2344 8.51562-9.90234L8.51562-7.79297L6.40625-7.79297Q6.06445-7.79297 5.85938-7.58789Q5.6543-7.38281 5.6543-7.05078Z"/>
  </g>
  <g transform="matrix(1 0 0 1 281.867 1933)">
   <path d="M11.709 2.91016Q13.75 2.91016 15.5518 2.12891Q17.3535 1.34766 18.7305-0.0292969Q20.1074-1.40625 20.8887-3.20801Q21.6699-5.00977 21.6699-7.05078Q21.6699-9.0918 20.8887-10.8936Q20.1074-12.6953 18.7305-14.0723Q17.3535-15.4492 15.5469-16.2305Q13.7402-17.0117 11.6992-17.0117Q9.6582-17.0117 7.85645-16.2305Q6.05469-15.4492 4.68262-14.0723Q3.31055-12.6953 2.5293-10.8936Q1.74805-9.0918 1.74805-7.05078Q1.74805-5.00977 2.5293-3.20801Q3.31055-1.40625 4.6875-0.0292969Q6.06445 1.34766 7.86621 2.12891Q9.66797 2.91016 11.709 2.91016ZM11.709 1.25Q9.98047 1.25 8.47656 0.605469Q6.97266-0.0390625 5.83496-1.17676Q4.69727-2.31445 4.05762-3.81836Q3.41797-5.32227 3.41797-7.05078Q3.41797-8.7793 4.05762-10.2832Q4.69727-11.7871 5.83008-12.9297Q6.96289-14.0723 8.4668-14.7119Q9.9707-15.3516 11.6992-15.3516Q13.4277-15.3516 14.9316-14.7119Q16.4355-14.0723 17.5781-12.9297Q18.7207-11.7871 19.3652-10.2832Q20.0098-8.7793 20.0098-7.05078Q20.0098-5.32227 19.3701-3.81836Q18.7305-2.31445 17.5928-1.17676Q16.4551-0.0390625 14.9463 0.605469Q13.4375 1.25 11.709 1.25ZM7.17773-7.05078Q7.17773-6.69922 7.41211-6.47461Q7.64648-6.25 8.01758-6.25L10.8887-6.25L10.8887-3.36914Q10.8887-2.99805 11.1133-2.76855Q11.3379-2.53906 11.6895-2.53906Q12.0605-2.53906 12.29-2.76855Q12.5195-2.99805 12.5195-3.36914L12.5195-6.25L15.4004-6.25Q15.7715-6.25 16.001-6.47461Q16.2305-6.69922 16.2305-7.05078Q16.2305-7.42188 16.001-7.65137Q15.7715-7.88086 15.4004-7.88086L12.5195-7.88086L12.5195-10.752Q12.5195-11.1328 12.29-11.3623Q12.0605-11.5918 11.6895-11.5918Q11.3379-11.5918 11.1133-11.3574Q10.8887-11.123 10.8887-10.752L10.8887-7.88086L8.01758-7.88086Q7.63672-7.88086 7.40723-7.65137Q7.17773-7.42188 7.17773-7.05078Z"/>
  </g>
  <g transform="matrix(1 0 0 1 305.646 1933)">
   <path d="M14.9707 5.66406Q17.0605 5.66406 18.96 5.01465Q20.8594 4.36523 22.4512 3.19336Q24.043 2.02148 25.2197 0.429688Q26.3965-1.16211 27.0459-3.06641Q27.6953-4.9707 27.6953-7.05078Q27.6953-9.14062 27.0459-11.04Q26.3965-12.9395 25.2197-14.5312Q24.043-16.123 22.4512-17.2998Q20.8594-18.4766 18.9551-19.126Q17.0508-19.7754 14.9609-19.7754Q12.8711-19.7754 10.9717-19.126Q9.07227-18.4766 7.48535-17.2998Q5.89844-16.123 4.72168-14.5312Q3.54492-12.9395 2.90039-11.04Q2.25586-9.14062 2.25586-7.05078Q2.25586-4.9707 2.90527-3.06641Q3.55469-1.16211 4.72656 0.429688Q5.89844 2.02148 7.49023 3.19336Q9.08203 4.36523 10.9814 5.01465Q12.8809 5.66406 14.9707 5.66406ZM14.9707 3.84766Q13.1641 3.84766 11.5283 3.2959Q9.89258 2.74414 8.53516 1.74805Q7.17773 0.751953 6.17676-0.610352Q5.17578-1.97266 4.62891-3.6084Q4.08203-5.24414 4.08203-7.05078Q4.08203-8.86719 4.62891-10.5029Q5.17578-12.1387 6.17188-13.501Q7.16797-14.8633 8.52539-15.8594Q9.88281-16.8555 11.5186-17.4023Q13.1543-17.9492 14.9609-17.9492Q16.7773-17.9492 18.4131-17.4023Q20.0488-16.8555 21.4111-15.8594Q22.7734-14.8633 23.7695-13.501Q24.7656-12.1387 25.3174-10.5029Q25.8691-8.86719 25.8691-7.05078Q25.8789-5.24414 25.332-3.6084Q24.7852-1.97266 23.7842-0.610352Q22.7832 0.751953 21.4209 1.74805Q20.0586 2.74414 18.4229 3.2959Q16.7871 3.84766 14.9707 3.84766ZM9.19922-7.05078Q9.19922-6.66992 9.45801-6.4209Q9.7168-6.17188 10.1172-6.17188L14.0625-6.17188L14.0625-2.2168Q14.0625-1.81641 14.3115-1.55762Q14.5605-1.29883 14.9512-1.29883Q15.3516-1.29883 15.6104-1.55273Q15.8691-1.80664 15.8691-2.2168L15.8691-6.17188L19.8242-6.17188Q20.2246-6.17188 20.4785-6.4209Q20.7324-6.66992 20.7324-7.05078Q20.7324-7.46094 20.4785-7.71484Q20.2246-7.96875 19.8242-7.96875L15.8691-7.96875L15.8691-11.9141Q15.8691-12.3242 15.6104-12.583Q15.3516-12.8418 14.9512-12.8418Q14.5605-12.8418 14.3115-12.583Q14.0625-12.3242 14.0625-11.9141L14.0625-7.96875L10.1172-7.96875Q9.70703-7.96875 9.45312-7.71484Q9.19922-7.46094 9.19922-7.05078Z"/>
  </g>
  <text style="stroke:none;fill:black;font-family:sans-serif;font-size:13;font-weight:bold;" transform="matrix(1 0 0 1 263 1953)">Design Variations</text>
  <text style="stroke:none;fill:black;font-family:sans-serif;font-size:13;" transform="matrix(1 0 0 1 263 1971)">Symbols are supported in up to nine weights and three scales.</text>
  <text style="stroke:none;fill:black;font-family:sans-serif;font-size:13;" transform="matrix(1 0 0 1 263 1989)">For optimal layout with text and other symbols, vertically align</text>
  <text style="stroke:none;fill:black;font-family:sans-serif;font-size:13;" transform="matrix(1 0 0 1 263 2007)">symbols with the adjacent text.</text>
  <line style="fill:none;stroke:#00AEEF;stroke-width:0.5;opacity:1.0;" x1="776" x2="776" y1="1919" y2="1933"/>
  <g transform="matrix(1 0 0 1 776 1933)">
   <path d="M3.31055 0.15625Q3.70117 0.15625 3.91602-0.00976562Q4.13086-0.175781 4.26758-0.585938L5.52734-4.0332L11.2891-4.0332L12.5488-0.585938Q12.6855-0.175781 12.9004-0.00976562Q13.1152 0.15625 13.4961 0.15625Q13.8867 0.15625 14.1162-0.0585938Q14.3457-0.273438 14.3457-0.644531Q14.3457-0.869141 14.2383-1.17188L9.6582-13.3691Q9.48242-13.8184 9.17969-14.043Q8.87695-14.2676 8.4082-14.2676Q7.5-14.2676 7.17773-13.3789L2.59766-1.16211Q2.49023-0.859375 2.49023-0.634766Q2.49023-0.263672 2.70996-0.0537109Q2.92969 0.15625 3.31055 0.15625ZM6.00586-5.51758L8.37891-12.0898L8.42773-12.0898L10.8008-5.51758Z"/>
  </g>
  <line style="fill:none;stroke:#00AEEF;stroke-width:0.5;opacity:1.0;" x1="793.197" x2="793.197" y1="1919" y2="1933"/>
  <text style="stroke:none;fill:black;font-family:sans-serif;font-size:13;font-weight:bold;" transform="matrix(1 0 0 1 776 1953)">Margins</text>
  <text style="stroke:none;fill:black;font-family:sans-serif;font-size:13;" transform="matrix(1 0 0 1 776 1971)">Leading and trailing margins on the left and right side of each symbol</text>
  <text style="stroke:none;fill:black;font-family:sans-serif;font-size:13;" transform="matrix(1 0 0 1 776 1989)">can be adjusted by modifying the x-location of the margin guidelines.</text>
  <text style="stroke:none;fill:black;font-family:sans-serif;font-size:13;" transform="matrix(1 0 0 1 776 2007)">Modifications are automatically applied proportionally to all</text>
  <text style="stroke:none;fill:black;font-family:sans-serif;font-size:13;" transform="matrix(1 0 0 1 776 2025)">scales and weights.</text>
  <g transform="matrix(1 0 0 1 1289 1933)">
   <path d="M2.8418 1.86523L4.54102 3.57422Q5.18555 4.22852 5.90332 4.17969Q6.62109 4.13086 7.31445 3.35938L18.0078-8.42773L17.041-9.4043L6.42578 2.27539Q6.16211 2.57812 5.89355 2.61719Q5.625 2.65625 5.27344 2.30469L4.10156 1.14258Q3.75 0.791016 3.79395 0.522461Q3.83789 0.253906 4.14062-0.0195312L15.6152-10.8203L14.6387-11.7871L3.04688-0.898438Q2.30469-0.214844 2.25098 0.498047Q2.19727 1.21094 2.8418 1.86523ZM9.25781-16.3281Q8.94531-16.0254 8.90625-15.6348Q8.86719-15.2441 9.04297-14.9512Q9.21875-14.6777 9.55566-14.541Q9.89258-14.4043 10.3809-14.5215Q11.4746-14.7754 12.5977-14.7314Q13.7207-14.6875 14.7949-13.9844L14.209-12.5293Q13.9551-11.9043 14.0674-11.4404Q14.1797-10.9766 14.5801-10.5664L16.875-8.25195Q17.2363-7.88086 17.5781-7.82227Q17.9199-7.76367 18.3398-7.8418L19.4043-8.03711L20.0684-7.36328L20.0293-6.80664Q20-6.43555 20.1221-6.12305Q20.2441-5.81055 20.6055-5.44922L21.3672-4.70703Q21.7285-4.3457 22.1533-4.33105Q22.5781-4.31641 22.9297-4.66797L25.8398-7.58789Q26.1914-7.93945 26.1816-8.35449Q26.1719-8.76953 25.8105-9.13086L25.0391-9.89258Q24.6875-10.2539 24.3799-10.3857Q24.0723-10.5176 23.7109-10.4883L23.1348-10.4395L22.4902-11.0742L22.7344-12.1973Q22.832-12.6172 22.6953-12.9834Q22.5586-13.3496 22.1191-13.7891L19.9219-15.9766Q18.6719-17.2168 17.2607-17.8369Q15.8496-18.457 14.4189-18.4814Q12.9883-18.5059 11.665-17.959Q10.3418-17.4121 9.25781-16.3281ZM10.752-15.957Q11.6602-16.6211 12.7002-16.9043Q13.7402-17.1875 14.8047-17.085Q15.8691-16.9824 16.8701-16.5137Q17.8711-16.0449 18.7012-15.2051L21.1328-12.793Q21.3086-12.6172 21.3525-12.4512Q21.3965-12.2852 21.3379-12.0312L21.0156-10.5469L22.5195-9.0625L23.5059-9.12109Q23.6914-9.13086 23.7891-9.09668Q23.8867-9.0625 24.0332-8.91602L24.6094-8.33984L22.168-5.89844L21.5918-6.47461Q21.4453-6.62109 21.4062-6.71875Q21.3672-6.81641 21.377-7.01172L21.4453-7.98828L19.9512-9.47266L18.4277-9.21875Q18.1836-9.16992 18.042-9.2041Q17.9004-9.23828 17.7148-9.41406L15.7129-11.416Q15.5176-11.5918 15.4932-11.7529Q15.4688-11.9141 15.5859-12.1875L16.4648-14.2773Q15.293-15.3711 13.8281-15.791Q12.3633-16.2109 10.8398-15.7617Q10.7227-15.7324 10.6885-15.8057Q10.6543-15.8789 10.752-15.957Z"/>
  </g>
  <text style="stroke:none;fill:black;font-family:sans-serif;font-size:13;font-weight:bold;" transform="matrix(1 0 0 1 1289 1953)">Exporting</text>
  <text style="stroke:none;fill:black;font-family:sans-serif;font-size:13;" transform="matrix(1 0 0 1 1289 1971)">Symbols should be outlined when exporting to ensure the</text>
  <text style="stroke:none;fill:black;font-family:sans-serif;font-size:13;" transform="matrix(1 0 0 1 1289 1989)">design is preserved when submitting to Xcode.</text>
  <text id="template-version" style="stroke:none;fill:black;font-family:sans-serif;font-size:13;text-anchor:end;" transform="matrix(1 0 0 1 3036 1933)">Template v.3.0</text>
  <text style="stroke:none;fill:black;font-family:sans-serif;font-size:13;text-anchor:end;" transform="matrix(1 0 0 1 3036 1951)">Requires Xcode 13 or greater</text>
  <text id="descriptive-name" style="stroke:none;fill:black;font-family:sans-serif;font-size:13;text-anchor:end;" transform="matrix(1 0 0 1 3036 1969)">Generated from puzzlepiece.extension</text>
  <text style="stroke:none;fill:black;font-family:sans-serif;font-size:13;text-anchor:end;" transform="matrix(1 0 0 1 3036 1987)">Typeset at 100 points</text>
  <text style="stroke:none;fill:black;font-family:sans-serif;font-size:13;" transform="matrix(1 0 0 1 263 726)">Small</text>
  <text style="stroke:none;fill:black;font-family:sans-serif;font-size:13;" transform="matrix(1 0 0 1 263 1156)">Medium</text>
  <text style="stroke:none;fill:black;font-family:sans-serif;font-size:13;" transform="matrix(1 0 0 1 263 1586)">Large</text>
 </g>
 <g id="Guides">
  <g id="H-reference" style="fill:#27AAE1;stroke:none;" transform="matrix(1 0 0 1 339 696)">
   <path d="M0.993347 0L3.6377 0L29.3282-67.1326L30.0301-67.1326L30.0301-70.459L28.1227-70.459ZM11.6882-24.4797L46.9818-24.4797L46.2311-26.7288L12.4382-26.7288ZM55.1193 0L57.7637 0L30.6381-70.459L29.4327-70.459L29.4327-67.1326Z"/>
  </g>
  <line id="Baseline-S" style="fill:none;stroke:#27AAE1;opacity:1;stroke-width:0.5;" x1="263" x2="3036" y1="696" y2="696"/>
  <line id="Capline-S" style="fill:none;stroke:#27AAE1;opacity:1;stroke-width:0.5;" x1="263" x2="3036" y1="625.541" y2="625.541"/>
  <g id="H-reference" style="fill:#27AAE1;stroke:none;" transform="matrix(1 0 0 1 339 1126)">
   <path d="M0.993347 0L3.6377 0L29.3282-67.1326L30.0301-67.1326L30.0301-70.459L28.1227-70.459ZM11.6882-24.4797L46.9818-24.4797L46.2311-26.7288L12.4382-26.7288ZM55.1193 0L57.7637 0L30.6381-70.459L29.4327-70.459L29.4327-67.1326Z"/>
  </g>
  <line id="Baseline-M" style="fill:none;stroke:#27AAE1;opacity:1;stroke-width:0.5;" x1="263" x2="3036" y1="1126" y2="1126"/>
  <line id="Capline-M" style="fill:none;stroke:#27AAE1;opacity:1;stroke-width:0.5;" x1="263" x2="3036" y1="1055.54" y2="1055.54"/>
  <g id="H-reference" style="fill:#27AAE1;stroke:none;" transform="matrix(1 0 0 1 339 1556)">
   <path d="M0.993347 0L3.6377 0L29.3282-67.1326L30.0301-67.1326L30.0301-70.459L28.1227-70.459ZM11.6882-24.4797L46.9818-24.4797L46.2311-26.7288L12.4382-26.7288ZM55.1193 0L57.7637 0L30.6381-70.459L29.4327-70.459L29.4327-67.1326Z"/>
  </g>
  <line id="Baseline-L" style="fill:none;stroke:#27AAE1;opacity:1;stroke-width:0.5;" x1="263" x2="3036" y1="1556" y2="1556"/>
  <line id="Capline-L" style="fill:none;stroke:#27AAE1;opacity:1;stroke-width:0.5;" x1="263" x2="3036" y1="1485.54" y2="1485.54"/>
  <line id="left-margin-Ultralight-S" style="fill:none;stroke:#00AEEF;stroke-width:0.5;opacity:1.0;" x1="506.104" x2="506.104" y1="600.785" y2="720.121"/>
  <line id="right-margin-Ultralight-S" style="fill:none;stroke:#00AEEF;stroke-width:0.5;opacity:1.0;" x1="613.318" x2="613.318" y1="600.785" y2="720.121"/>
  <line id="left-margin-Regular-S" style="fill:none;stroke:#00AEEF;stroke-width:0.5;opacity:1.0;" x1="1394.38" x2="1394.38" y1="600.785" y2="720.121"/>
  <line id="right-margin-Regular-S" style="fill:none;stroke:#00AEEF;stroke-width:0.5;opacity:1.0;" x1="1505.31" x2="1505.31" y1="600.785" y2="720.121"/>
  <line id="left-margin-Black-S" style="fill:none;stroke:#00AEEF;stroke-width:0.5;opacity:1.0;" x1="2875.37" x2="2875.37" y1="600.785" y2="720.121"/>
  <line id="right-margin-Black-S" style="fill:none;stroke:#00AEEF;stroke-width:0.5;opacity:1.0;" x1="2991.43" x2="2991.43" y1="600.785" y2="720.121"/>
 </g>
 <g id="Symbols">
  <g id="Black-S" transform="matrix(1 0 0 1 2875.37 696)">
   <path d="M9.76562-9.17969Q9.76562-2.97852 13.623 0.854492Q17.4805 4.6875 23.8281 4.6875L71.9727 4.6875Q78.3203 4.6875 82.1777 0.854492Q86.0352-2.97852 86.0352-9.17969L86.0352-18.5547Q86.0352-19.0918 86.377-19.2139Q86.7188-19.3359 87.3047-19.0918Q88.3789-18.6035 89.7461-18.4082Q91.1133-18.2129 92.7734-18.2129Q96.9238-18.2129 100.684-20.2393Q104.443-22.2656 106.836-26.0742Q109.229-29.8828 109.229-35.3027Q109.229-40.7227 106.836-44.5557Q104.443-48.3887 100.684-50.3906Q96.9238-52.3926 92.7734-52.3926Q91.1133-52.3926 89.7461-52.1973Q88.3789-52.002 87.3047-51.5137Q86.7188-51.2695 86.377-51.416Q86.0352-51.5625 86.0352-52.0508L86.0352-61.4258Q86.0352-67.6758 82.1777-71.4844Q78.3203-75.293 71.9727-75.293L23.8281-75.293Q17.4805-75.293 13.623-71.4844Q9.76562-67.6758 9.76562-61.4258L9.76562-44.8242Q9.76562-41.3086 11.9629-38.9893Q14.1602-36.6699 17.4316-36.6699Q19.4336-36.6699 20.7764-37.2559Q22.1191-37.8418 23.1934-38.5254Q24.3164-39.2578 25.4395-39.8682Q26.5625-40.4785 28.0762-40.4785Q30.3711-40.4785 31.7871-39.0625Q33.2031-37.6465 33.2031-35.3027Q33.2031-32.959 31.7871-31.543Q30.3711-30.127 28.0762-30.127Q26.5625-30.127 25.4395-30.7373Q24.3164-31.3477 23.1934-32.0801Q22.1191-32.7637 20.7764-33.3496Q19.4336-33.9355 17.4316-33.9355Q14.1602-33.9355 11.9629-31.6162Q9.76562-29.2969 9.76562-25.7812ZM21.9727-9.57031L21.9727-18.5547Q21.9727-19.0918 22.3145-19.2139Q22.6562-19.3359 23.2422-19.0918Q24.3164-18.6035 25.6836-18.4082Q27.0508-18.2129 28.7109-18.2129Q32.8613-18.2129 36.6211-20.2393Q40.3809-22.2656 42.7734-26.0742Q45.166-29.8828 45.166-35.3027Q45.166-40.7227 42.7734-44.5557Q40.3809-48.3887 36.6211-50.3906Q32.8613-52.3926 28.7109-52.3926Q27.0508-52.3926 25.6836-52.1973Q24.3164-52.002 23.2422-51.5137Q22.6562-51.2695 22.3145-51.416Q21.9727-51.5625 21.9727-52.0508L21.9727-61.0352Q21.9727-61.9629 22.5098-62.5244Q23.0469-63.0859 23.9258-63.0859L71.875-63.0859Q72.7539-63.0859 73.291-62.5244Q73.8281-61.9629 73.8281-61.0352L73.8281-44.8242Q73.8281-41.3086 76.0254-38.9893Q78.2227-36.6699 81.4941-36.6699Q83.4961-36.6699 84.8389-37.2559Q86.1816-37.8418 87.2559-38.5254Q88.3789-39.2578 89.502-39.8682Q90.625-40.4785 92.1387-40.4785Q94.4336-40.4785 95.8496-39.0625Q97.2656-37.6465 97.2656-35.3027Q97.2656-32.959 95.8496-31.543Q94.4336-30.127 92.1387-30.127Q90.625-30.127 89.502-30.7373Q88.3789-31.3477 87.2559-32.0801Q86.1816-32.7637 84.8389-33.3496Q83.4961-33.9355 81.4941-33.9355Q78.2227-33.9355 76.0254-31.6162Q73.8281-29.2969 73.8281-25.7812L73.8281-9.57031Q73.8281-8.64258 73.291-8.08105Q72.7539-7.51953 71.875-7.51953L23.9258-7.51953Q23.0469-7.51953 22.5098-8.08105Q21.9727-8.64258 21.9727-9.57031Z"/>
  </g>
  <g id="Regular-S" transform="matrix(1 0 0 1 1394.38 696)">
   <path d="M9.76562-10.0586Q9.76562-4.00391 12.8662-0.952148Q15.9668 2.09961 22.168 2.09961L68.5059 2.09961Q74.6582 2.09961 77.7588-0.952148Q80.8594-4.00391 80.8594-10.0586L80.8594-22.9492Q80.8594-23.3398 81.1035-23.4619Q81.3477-23.584 81.7871-23.2422Q83.6426-21.9727 85.7666-21.2402Q87.8906-20.5078 89.9414-20.5078Q93.6035-20.5078 96.8262-22.3633Q100.049-24.2188 102.075-27.5635Q104.102-30.9082 104.102-35.2539Q104.102-39.6484 102.075-42.9688Q100.049-46.2891 96.8262-48.1445Q93.6035-50 89.9414-50Q87.8906-50 85.7666-49.292Q83.6426-48.584 81.7871-47.2656Q81.3477-46.9727 81.1035-47.0947Q80.8594-47.2168 80.8594-47.6074L80.8594-60.5469Q80.8594-66.6016 77.7588-69.6533Q74.6582-72.7051 68.5059-72.7051L22.168-72.7051Q15.9668-72.7051 12.8662-69.6533Q9.76562-66.6016 9.76562-60.5469L9.76562-43.7988Q9.76562-41.2109 11.2549-39.7217Q12.7441-38.2324 14.8926-38.2324Q16.0645-38.2324 17.2852-38.7451Q18.5059-39.2578 19.6777-40.3809Q20.9961-41.6016 22.5098-42.3096Q24.0234-43.0176 25.5371-43.0176Q28.5645-43.0176 30.8838-40.8936Q33.2031-38.7695 33.2031-35.2539Q33.2031-31.7383 30.8838-29.6143Q28.5645-27.4902 25.5371-27.4902Q24.0234-27.4902 22.5098-28.1982Q20.9961-28.9062 19.6777-30.127Q18.5059-31.25 17.2852-31.7627Q16.0645-32.2754 14.8926-32.2754Q12.7441-32.2754 11.2549-30.7861Q9.76562-29.2969 9.76562-26.709ZM16.7969-10.4492L16.7969-22.168Q16.7969-23.6328 17.3584-23.3887Q17.9199-23.1445 18.4082-22.8516Q20.166-21.7285 22.0703-21.1182Q23.9746-20.5078 25.8789-20.5078Q29.541-20.5078 32.7637-22.3633Q35.9863-24.2188 37.9883-27.5391Q39.9902-30.8594 39.9902-35.2539Q39.9902-39.6484 37.9883-42.9688Q35.9863-46.2891 32.7637-48.1445Q29.541-50 25.8789-50Q23.9746-50 22.0703-49.3896Q20.166-48.7793 18.4082-47.6562Q17.9199-47.3633 17.3584-47.1191Q16.7969-46.875 16.7969-48.3398L16.7969-60.1562Q16.7969-62.8906 18.2373-64.2822Q19.6777-65.6738 22.2656-65.6738L68.4082-65.6738Q70.9961-65.6738 72.4121-64.2822Q73.8281-62.8906 73.8281-60.1562L73.8281-43.8477Q73.8281-41.2598 75.3174-39.7461Q76.8066-38.2324 78.9551-38.2324Q80.127-38.2324 81.3477-38.7695Q82.5684-39.3066 83.7402-40.3809Q85.0586-41.6016 86.5723-42.3096Q88.0859-43.0176 89.5996-43.0176Q92.627-43.0176 94.9463-40.8936Q97.2656-38.7695 97.2656-35.2539Q97.2656-31.7383 94.9463-29.6143Q92.627-27.4902 89.5996-27.4902Q88.0859-27.4902 86.5723-28.1982Q85.0586-28.9062 83.7402-30.127Q82.5684-31.25 81.3477-31.7627Q80.127-32.2754 78.9551-32.2754Q76.8066-32.2754 75.3174-30.7617Q73.8281-29.248 73.8281-26.709L73.8281-10.4492Q73.8281-7.71484 72.4121-6.32324Q70.9961-4.93164 68.4082-4.93164L22.2656-4.93164Q19.6777-4.93164 18.2373-6.32324Q16.7969-7.71484 16.7969-10.4492Z"/>
  </g>
  <g id="Ultralight-S" transform="matrix(1 0 0 1 506.104 696)">
   <path d="M9.76562-8.74176Q9.76562-4.95758 12.117-2.63252Q14.4684-0.307465 18.399-0.307465L68.3243-0.307465Q72.2511-0.307465 74.6025-2.63252Q76.9539-4.95758 76.9539-8.74176L76.9539-25.174Q76.9539-25.9735 77.5162-26.3226Q78.0785-26.6716 78.8811-26.1032Q80.5092-24.9245 82.6332-23.6015Q84.7572-22.2786 88.5338-22.2786Q92.0593-22.2786 94.7372-23.8163Q97.4152-25.354 98.8964-28.154Q100.378-30.954 100.378-34.6634Q100.378-38.3766 98.8964-41.1522Q97.4152-43.9278 94.7372-45.488Q92.0593-47.0482 88.5338-47.0482Q84.7572-47.0482 82.6332-45.7047Q80.5092-44.3611 78.8811-43.1786Q78.0785-42.6132 77.5162-42.9852Q76.9539-43.3571 76.9539-44.1109L76.9539-61.8637Q76.9539-65.6479 74.6025-67.9729Q72.2511-70.298 68.3243-70.298L18.399-70.298Q14.4684-70.298 12.117-67.9729Q9.76562-65.6479 9.76562-61.8637L9.76562-43.9804Q9.76562-42.437 10.619-41.6744Q11.4723-40.9119 12.8494-40.9119Q13.5216-40.9119 14.1518-41.1972Q14.782-41.4825 15.5907-42.1516Q17.363-43.5997 19.1719-44.5122Q20.9808-45.4247 23.539-45.4247Q27.8831-45.4247 30.5431-42.6418Q33.2031-39.859 33.2031-35.2539Q33.2031-30.6488 30.5431-27.866Q27.8831-25.0832 23.539-25.0832Q20.9808-25.0832 19.1719-25.9956Q17.363-26.9081 15.5907-28.3562Q14.782-29.0253 14.1518-29.3106Q13.5216-29.5959 12.8494-29.5959Q11.4723-29.5959 10.619-28.8334Q9.76562-28.0708 9.76562-26.5274ZM11.9835-8.81424L11.9835-26.2093Q11.9835-27.0386 12.545-27.1576Q13.1065-27.2766 13.913-26.7113Q15.58-25.5432 17.6659-24.2062Q19.7517-22.8691 23.5634-22.8691Q27.0889-22.8691 29.744-24.4068Q32.399-25.9445 33.9016-28.7426Q35.4042-31.5407 35.4042-35.2539Q35.4042-38.9671 33.9016-41.7652Q32.399-44.5633 29.744-46.101Q27.0889-47.6387 23.5634-47.6387Q19.7517-47.6387 17.6659-46.3017Q15.58-44.9646 13.913-43.7965Q13.1065-43.2312 12.545-43.3502Q11.9835-43.4692 11.9835-44.2986L11.9835-61.7912Q11.9835-64.6164 13.7646-66.3486Q15.5457-68.0809 18.4967-68.0809L68.2266-68.0809Q71.1777-68.0809 72.9568-66.3486Q74.736-64.6164 74.736-61.7912L74.736-43.8477Q74.736-42.3042 75.5898-41.3128Q76.4435-40.3214 77.8198-40.3214Q78.492-40.3214 79.1451-40.6086Q79.7981-40.8958 80.5618-41.5619Q82.3341-43.0092 84.1431-43.9217Q85.952-44.8341 88.5101-44.8341Q92.8543-44.8341 95.5139-42.0288Q98.1735-39.2235 98.1735-34.6634Q98.1735-30.0583 95.5139-27.2758Q92.8543-24.4934 88.5101-24.4934Q85.952-24.4934 84.1431-25.4055Q82.3341-26.3176 80.5618-27.7657Q79.7981-28.389 79.1451-28.6747Q78.492-28.9604 77.8198-28.9604Q76.4435-28.9604 75.5898-27.9919Q74.736-27.0233 74.736-25.4372L74.736-8.81424Q74.736-5.98907 72.9568-4.25682Q71.1777-2.52457 68.2266-2.52457L18.4967-2.52457Q15.5457-2.52457 13.7646-4.25682Q11.9835-5.98907 11.9835-8.81424Z"/>
  </g>
 </g>
</svg>
