<?xml version="1.0" encoding="UTF-8"?>
<!--Generator: Apple Native CoreSVG 175-->
<!DOCTYPE svg
PUBLIC "-//W3C//DTD SVG 1.1//EN"
       "http://www.w3.org/Graphics/SVG/1.1/DTD/svg11.dtd">
<svg version="1.1" xmlns="http://www.w3.org/2000/svg" xmlns:xlink="http://www.w3.org/1999/xlink" width="3300" height="2200">
 <!--glyph: "uni100174.medium", point size: 100.0, font version: "17.1d1e1", template writer version: "65.1"-->
 <g id="Notes">
  <rect height="2200" id="artboard" style="fill:white;opacity:1" width="3300" x="0" y="0"/>
  <line style="fill:none;stroke:black;opacity:1;stroke-width:0.5;" x1="263" x2="3036" y1="292" y2="292"/>
  <text style="stroke:none;fill:black;font-family:sans-serif;font-size:13;font-weight:bold;" transform="matrix(1 0 0 1 263 322)">Weight/Scale Variations</text>
  <text style="stroke:none;fill:black;font-family:sans-serif;font-size:13;text-anchor:middle;" transform="matrix(1 0 0 1 559.711 322)">Ultralight</text>
  <text style="stroke:none;fill:black;font-family:sans-serif;font-size:13;text-anchor:middle;" transform="matrix(1 0 0 1 856.422 322)">Thin</text>
  <text style="stroke:none;fill:black;font-family:sans-serif;font-size:13;text-anchor:middle;" transform="matrix(1 0 0 1 1153.13 322)">Light</text>
  <text style="stroke:none;fill:black;font-family:sans-serif;font-size:13;text-anchor:middle;" transform="matrix(1 0 0 1 1449.84 322)">Regular</text>
  <text style="stroke:none;fill:black;font-family:sans-serif;font-size:13;text-anchor:middle;" transform="matrix(1 0 0 1 1746.56 322)">Medium</text>
  <text style="stroke:none;fill:black;font-family:sans-serif;font-size:13;text-anchor:middle;" transform="matrix(1 0 0 1 2043.27 322)">Semibold</text>
  <text style="stroke:none;fill:black;font-family:sans-serif;font-size:13;text-anchor:middle;" transform="matrix(1 0 0 1 2339.98 322)">Bold</text>
  <text style="stroke:none;fill:black;font-family:sans-serif;font-size:13;text-anchor:middle;" transform="matrix(1 0 0 1 2636.69 322)">Heavy</text>
  <text style="stroke:none;fill:black;font-family:sans-serif;font-size:13;text-anchor:middle;" transform="matrix(1 0 0 1 2933.4 322)">Black</text>
  <line style="fill:none;stroke:black;opacity:1;stroke-width:0.5;" x1="263" x2="3036" y1="1903" y2="1903"/>
  <g transform="matrix(1 0 0 1 263 1933)">
   <path d="M9.24805 0.830078Q10.8691 0.830078 12.2949 0.214844Q13.7207-0.400391 14.8096-1.49414Q15.8984-2.58789 16.5186-4.01367Q17.1387-5.43945 17.1387-7.05078Q17.1387-8.66211 16.5186-10.0879Q15.8984-11.5137 14.8047-12.6074Q13.7109-13.7012 12.2852-14.3164Q10.8594-14.9316 9.23828-14.9316Q7.62695-14.9316 6.20117-14.3164Q4.77539-13.7012 3.69141-12.6074Q2.60742-11.5137 1.9873-10.0879Q1.36719-8.66211 1.36719-7.05078Q1.36719-5.43945 1.9873-4.01367Q2.60742-2.58789 3.69629-1.49414Q4.78516-0.400391 6.21094 0.214844Q7.63672 0.830078 9.24805 0.830078ZM9.24805-0.654297Q7.91992-0.654297 6.7627-1.14746Q5.60547-1.64062 4.73145-2.51953Q3.85742-3.39844 3.36426-4.56055Q2.87109-5.72266 2.87109-7.05078Q2.87109-8.37891 3.35938-9.54102Q3.84766-10.7031 4.72168-11.582Q5.5957-12.4609 6.75293-12.9541Q7.91016-13.4473 9.23828-13.4473Q10.5762-13.4473 11.7334-12.9541Q12.8906-12.4609 13.7695-11.582Q14.6484-10.7031 15.1465-9.54102Q15.6445-8.37891 15.6445-7.05078Q15.6445-5.72266 15.1514-4.56055Q14.6582-3.39844 13.7842-2.51953Q12.9102-1.64062 11.748-1.14746Q10.5859-0.654297 9.24805-0.654297ZM5.6543-7.05078Q5.6543-6.72852 5.85938-6.52832Q6.06445-6.32812 6.40625-6.32812L8.51562-6.32812L8.51562-4.20898Q8.51562-3.88672 8.71094-3.67676Q8.90625-3.4668 9.23828-3.4668Q9.56055-3.4668 9.77051-3.67676Q9.98047-3.88672 9.98047-4.20898L9.98047-6.32812L12.0898-6.32812Q12.4219-6.32812 12.627-6.52832Q12.832-6.72852 12.832-7.05078Q12.832-7.38281 12.627-7.58789Q12.4219-7.79297 12.0898-7.79297L9.98047-7.79297L9.98047-9.90234Q9.98047-10.2344 9.77051-10.4443Q9.56055-10.6543 9.23828-10.6543Q8.90625-10.6543 8.71094-10.4443Q8.51562-10.2344 8.51562-9.90234L8.51562-7.79297L6.40625-7.79297Q6.06445-7.79297 5.85938-7.58789Q5.6543-7.38281 5.6543-7.05078Z"/>
  </g>
  <g transform="matrix(1 0 0 1 281.867 1933)">
   <path d="M11.709 2.91016Q13.75 2.91016 15.5518 2.12891Q17.3535 1.34766 18.7305-0.0292969Q20.1074-1.40625 20.8887-3.20801Q21.6699-5.00977 21.6699-7.05078Q21.6699-9.0918 20.8887-10.8936Q20.1074-12.6953 18.7305-14.0723Q17.3535-15.4492 15.5469-16.2305Q13.7402-17.0117 11.6992-17.0117Q9.6582-17.0117 7.85645-16.2305Q6.05469-15.4492 4.68262-14.0723Q3.31055-12.6953 2.5293-10.8936Q1.74805-9.0918 1.74805-7.05078Q1.74805-5.00977 2.5293-3.20801Q3.31055-1.40625 4.6875-0.0292969Q6.06445 1.34766 7.86621 2.12891Q9.66797 2.91016 11.709 2.91016ZM11.709 1.25Q9.98047 1.25 8.47656 0.605469Q6.97266-0.0390625 5.83496-1.17676Q4.69727-2.31445 4.05762-3.81836Q3.41797-5.32227 3.41797-7.05078Q3.41797-8.7793 4.05762-10.2832Q4.69727-11.7871 5.83008-12.9297Q6.96289-14.0723 8.4668-14.7119Q9.9707-15.3516 11.6992-15.3516Q13.4277-15.3516 14.9316-14.7119Q16.4355-14.0723 17.5781-12.9297Q18.7207-11.7871 19.3652-10.2832Q20.0098-8.7793 20.0098-7.05078Q20.0098-5.32227 19.3701-3.81836Q18.7305-2.31445 17.5928-1.17676Q16.4551-0.0390625 14.9463 0.605469Q13.4375 1.25 11.709 1.25ZM7.17773-7.05078Q7.17773-6.69922 7.41211-6.47461Q7.64648-6.25 8.01758-6.25L10.8887-6.25L10.8887-3.36914Q10.8887-2.99805 11.1133-2.76855Q11.3379-2.53906 11.6895-2.53906Q12.0605-2.53906 12.29-2.76855Q12.5195-2.99805 12.5195-3.36914L12.5195-6.25L15.4004-6.25Q15.7715-6.25 16.001-6.47461Q16.2305-6.69922 16.2305-7.05078Q16.2305-7.42188 16.001-7.65137Q15.7715-7.88086 15.4004-7.88086L12.5195-7.88086L12.5195-10.752Q12.5195-11.1328 12.29-11.3623Q12.0605-11.5918 11.6895-11.5918Q11.3379-11.5918 11.1133-11.3574Q10.8887-11.123 10.8887-10.752L10.8887-7.88086L8.01758-7.88086Q7.63672-7.88086 7.40723-7.65137Q7.17773-7.42188 7.17773-7.05078Z"/>
  </g>
  <g transform="matrix(1 0 0 1 305.646 1933)">
   <path d="M14.9707 5.66406Q17.0605 5.66406 18.96 5.01465Q20.8594 4.36523 22.4512 3.19336Q24.043 2.02148 25.2197 0.429688Q26.3965-1.16211 27.0459-3.06641Q27.6953-4.9707 27.6953-7.05078Q27.6953-9.14062 27.0459-11.04Q26.3965-12.9395 25.2197-14.5312Q24.043-16.123 22.4512-17.2998Q20.8594-18.4766 18.9551-19.126Q17.0508-19.7754 14.9609-19.7754Q12.8711-19.7754 10.9717-19.126Q9.07227-18.4766 7.48535-17.2998Q5.89844-16.123 4.72168-14.5312Q3.54492-12.9395 2.90039-11.04Q2.25586-9.14062 2.25586-7.05078Q2.25586-4.9707 2.90527-3.06641Q3.55469-1.16211 4.72656 0.429688Q5.89844 2.02148 7.49023 3.19336Q9.08203 4.36523 10.9814 5.01465Q12.8809 5.66406 14.9707 5.66406ZM14.9707 3.84766Q13.1641 3.84766 11.5283 3.2959Q9.89258 2.74414 8.53516 1.74805Q7.17773 0.751953 6.17676-0.610352Q5.17578-1.97266 4.62891-3.6084Q4.08203-5.24414 4.08203-7.05078Q4.08203-8.86719 4.62891-10.5029Q5.17578-12.1387 6.17188-13.501Q7.16797-14.8633 8.52539-15.8594Q9.88281-16.8555 11.5186-17.4023Q13.1543-17.9492 14.9609-17.9492Q16.7773-17.9492 18.4131-17.4023Q20.0488-16.8555 21.4111-15.8594Q22.7734-14.8633 23.7695-13.501Q24.7656-12.1387 25.3174-10.5029Q25.8691-8.86719 25.8691-7.05078Q25.8789-5.24414 25.332-3.6084Q24.7852-1.97266 23.7842-0.610352Q22.7832 0.751953 21.4209 1.74805Q20.0586 2.74414 18.4229 3.2959Q16.7871 3.84766 14.9707 3.84766ZM9.19922-7.05078Q9.19922-6.66992 9.45801-6.4209Q9.7168-6.17188 10.1172-6.17188L14.0625-6.17188L14.0625-2.2168Q14.0625-1.81641 14.3115-1.55762Q14.5605-1.29883 14.9512-1.29883Q15.3516-1.29883 15.6104-1.55273Q15.8691-1.80664 15.8691-2.2168L15.8691-6.17188L19.8242-6.17188Q20.2246-6.17188 20.4785-6.4209Q20.7324-6.66992 20.7324-7.05078Q20.7324-7.46094 20.4785-7.71484Q20.2246-7.96875 19.8242-7.96875L15.8691-7.96875L15.8691-11.9141Q15.8691-12.3242 15.6104-12.583Q15.3516-12.8418 14.9512-12.8418Q14.5605-12.8418 14.3115-12.583Q14.0625-12.3242 14.0625-11.9141L14.0625-7.96875L10.1172-7.96875Q9.70703-7.96875 9.45312-7.71484Q9.19922-7.46094 9.19922-7.05078Z"/>
  </g>
  <text style="stroke:none;fill:black;font-family:sans-serif;font-size:13;font-weight:bold;" transform="matrix(1 0 0 1 263 1953)">Design Variations</text>
  <text style="stroke:none;fill:black;font-family:sans-serif;font-size:13;" transform="matrix(1 0 0 1 263 1971)">Symbols are supported in up to nine weights and three scales.</text>
  <text style="stroke:none;fill:black;font-family:sans-serif;font-size:13;" transform="matrix(1 0 0 1 263 1989)">For optimal layout with text and other symbols, vertically align</text>
  <text style="stroke:none;fill:black;font-family:sans-serif;font-size:13;" transform="matrix(1 0 0 1 263 2007)">symbols with the adjacent text.</text>
  <line style="fill:none;stroke:#00AEEF;stroke-width:0.5;opacity:1.0;" x1="776" x2="776" y1="1919" y2="1933"/>
  <g transform="matrix(1 0 0 1 776 1933)">
   <path d="M3.31055 0.15625Q3.70117 0.15625 3.91602-0.00976562Q4.13086-0.175781 4.26758-0.585938L5.52734-4.0332L11.2891-4.0332L12.5488-0.585938Q12.6855-0.175781 12.9004-0.00976562Q13.1152 0.15625 13.4961 0.15625Q13.8867 0.15625 14.1162-0.0585938Q14.3457-0.273438 14.3457-0.644531Q14.3457-0.869141 14.2383-1.17188L9.6582-13.3691Q9.48242-13.8184 9.17969-14.043Q8.87695-14.2676 8.4082-14.2676Q7.5-14.2676 7.17773-13.3789L2.59766-1.16211Q2.49023-0.859375 2.49023-0.634766Q2.49023-0.263672 2.70996-0.0537109Q2.92969 0.15625 3.31055 0.15625ZM6.00586-5.51758L8.37891-12.0898L8.42773-12.0898L10.8008-5.51758Z"/>
  </g>
  <line style="fill:none;stroke:#00AEEF;stroke-width:0.5;opacity:1.0;" x1="793.197" x2="793.197" y1="1919" y2="1933"/>
  <text style="stroke:none;fill:black;font-family:sans-serif;font-size:13;font-weight:bold;" transform="matrix(1 0 0 1 776 1953)">Margins</text>
  <text style="stroke:none;fill:black;font-family:sans-serif;font-size:13;" transform="matrix(1 0 0 1 776 1971)">Leading and trailing margins on the left and right side of each symbol</text>
  <text style="stroke:none;fill:black;font-family:sans-serif;font-size:13;" transform="matrix(1 0 0 1 776 1989)">can be adjusted by modifying the x-location of the margin guidelines.</text>
  <text style="stroke:none;fill:black;font-family:sans-serif;font-size:13;" transform="matrix(1 0 0 1 776 2007)">Modifications are automatically applied proportionally to all</text>
  <text style="stroke:none;fill:black;font-family:sans-serif;font-size:13;" transform="matrix(1 0 0 1 776 2025)">scales and weights.</text>
  <g transform="matrix(1 0 0 1 1289 1933)">
   <path d="M2.8418 1.86523L4.54102 3.57422Q5.18555 4.22852 5.90332 4.17969Q6.62109 4.13086 7.31445 3.35938L18.0078-8.42773L17.041-9.4043L6.42578 2.27539Q6.16211 2.57812 5.89355 2.61719Q5.625 2.65625 5.27344 2.30469L4.10156 1.14258Q3.75 0.791016 3.79395 0.522461Q3.83789 0.253906 4.14062-0.0195312L15.6152-10.8203L14.6387-11.7871L3.04688-0.898438Q2.30469-0.214844 2.25098 0.498047Q2.19727 1.21094 2.8418 1.86523ZM9.25781-16.3281Q8.94531-16.0254 8.90625-15.6348Q8.86719-15.2441 9.04297-14.9512Q9.21875-14.6777 9.55566-14.541Q9.89258-14.4043 10.3809-14.5215Q11.4746-14.7754 12.5977-14.7314Q13.7207-14.6875 14.7949-13.9844L14.209-12.5293Q13.9551-11.9043 14.0674-11.4404Q14.1797-10.9766 14.5801-10.5664L16.875-8.25195Q17.2363-7.88086 17.5781-7.82227Q17.9199-7.76367 18.3398-7.8418L19.4043-8.03711L20.0684-7.36328L20.0293-6.80664Q20-6.43555 20.1221-6.12305Q20.2441-5.81055 20.6055-5.44922L21.3672-4.70703Q21.7285-4.3457 22.1533-4.33105Q22.5781-4.31641 22.9297-4.66797L25.8398-7.58789Q26.1914-7.93945 26.1816-8.35449Q26.1719-8.76953 25.8105-9.13086L25.0391-9.89258Q24.6875-10.2539 24.3799-10.3857Q24.0723-10.5176 23.7109-10.4883L23.1348-10.4395L22.4902-11.0742L22.7344-12.1973Q22.832-12.6172 22.6953-12.9834Q22.5586-13.3496 22.1191-13.7891L19.9219-15.9766Q18.6719-17.2168 17.2607-17.8369Q15.8496-18.457 14.4189-18.4814Q12.9883-18.5059 11.665-17.959Q10.3418-17.4121 9.25781-16.3281ZM10.752-15.957Q11.6602-16.6211 12.7002-16.9043Q13.7402-17.1875 14.8047-17.085Q15.8691-16.9824 16.8701-16.5137Q17.8711-16.0449 18.7012-15.2051L21.1328-12.793Q21.3086-12.6172 21.3525-12.4512Q21.3965-12.2852 21.3379-12.0312L21.0156-10.5469L22.5195-9.0625L23.5059-9.12109Q23.6914-9.13086 23.7891-9.09668Q23.8867-9.0625 24.0332-8.91602L24.6094-8.33984L22.168-5.89844L21.5918-6.47461Q21.4453-6.62109 21.4062-6.71875Q21.3672-6.81641 21.377-7.01172L21.4453-7.98828L19.9512-9.47266L18.4277-9.21875Q18.1836-9.16992 18.042-9.2041Q17.9004-9.23828 17.7148-9.41406L15.7129-11.416Q15.5176-11.5918 15.4932-11.7529Q15.4688-11.9141 15.5859-12.1875L16.4648-14.2773Q15.293-15.3711 13.8281-15.791Q12.3633-16.2109 10.8398-15.7617Q10.7227-15.7324 10.6885-15.8057Q10.6543-15.8789 10.752-15.957Z"/>
  </g>
  <text style="stroke:none;fill:black;font-family:sans-serif;font-size:13;font-weight:bold;" transform="matrix(1 0 0 1 1289 1953)">Exporting</text>
  <text style="stroke:none;fill:black;font-family:sans-serif;font-size:13;" transform="matrix(1 0 0 1 1289 1971)">Symbols should be outlined when exporting to ensure the</text>
  <text style="stroke:none;fill:black;font-family:sans-serif;font-size:13;" transform="matrix(1 0 0 1 1289 1989)">design is preserved when submitting to Xcode.</text>
  <text id="template-version" style="stroke:none;fill:black;font-family:sans-serif;font-size:13;text-anchor:end;" transform="matrix(1 0 0 1 3036 1933)">Template v.3.0</text>
  <text style="stroke:none;fill:black;font-family:sans-serif;font-size:13;text-anchor:end;" transform="matrix(1 0 0 1 3036 1951)">Requires Xcode 13 or greater</text>
  <text id="descriptive-name" style="stroke:none;fill:black;font-family:sans-serif;font-size:13;text-anchor:end;" transform="matrix(1 0 0 1 3036 1969)">Generated from info.circle</text>
  <text style="stroke:none;fill:black;font-family:sans-serif;font-size:13;text-anchor:end;" transform="matrix(1 0 0 1 3036 1987)">Typeset at 100 points</text>
  <text style="stroke:none;fill:black;font-family:sans-serif;font-size:13;" transform="matrix(1 0 0 1 263 726)">Small</text>
  <text style="stroke:none;fill:black;font-family:sans-serif;font-size:13;" transform="matrix(1 0 0 1 263 1156)">Medium</text>
  <text style="stroke:none;fill:black;font-family:sans-serif;font-size:13;" transform="matrix(1 0 0 1 263 1586)">Large</text>
 </g>
 <g id="Guides">
  <g id="H-reference" style="fill:#27AAE1;stroke:none;" transform="matrix(1 0 0 1 339 696)">
   <path d="M0.993347 0L3.6377 0L29.3282-67.1326L30.0301-67.1326L30.0301-70.459L28.1227-70.459ZM11.6882-24.4797L46.9818-24.4797L46.2311-26.7288L12.4382-26.7288ZM55.1193 0L57.7637 0L30.6381-70.459L29.4327-70.459L29.4327-67.1326Z"/>
  </g>
  <line id="Baseline-S" style="fill:none;stroke:#27AAE1;opacity:1;stroke-width:0.5;" x1="263" x2="3036" y1="696" y2="696"/>
  <line id="Capline-S" style="fill:none;stroke:#27AAE1;opacity:1;stroke-width:0.5;" x1="263" x2="3036" y1="625.541" y2="625.541"/>
  <g id="H-reference" style="fill:#27AAE1;stroke:none;" transform="matrix(1 0 0 1 339 1126)">
   <path d="M0.993347 0L3.6377 0L29.3282-67.1326L30.0301-67.1326L30.0301-70.459L28.1227-70.459ZM11.6882-24.4797L46.9818-24.4797L46.2311-26.7288L12.4382-26.7288ZM55.1193 0L57.7637 0L30.6381-70.459L29.4327-70.459L29.4327-67.1326Z"/>
  </g>
  <line id="Baseline-M" style="fill:none;stroke:#27AAE1;opacity:1;stroke-width:0.5;" x1="263" x2="3036" y1="1126" y2="1126"/>
  <line id="Capline-M" style="fill:none;stroke:#27AAE1;opacity:1;stroke-width:0.5;" x1="263" x2="3036" y1="1055.54" y2="1055.54"/>
  <g id="H-reference" style="fill:#27AAE1;stroke:none;" transform="matrix(1 0 0 1 339 1556)">
   <path d="M0.993347 0L3.6377 0L29.3282-67.1326L30.0301-67.1326L30.0301-70.459L28.1227-70.459ZM11.6882-24.4797L46.9818-24.4797L46.2311-26.7288L12.4382-26.7288ZM55.1193 0L57.7637 0L30.6381-70.459L29.4327-70.459L29.4327-67.1326Z"/>
  </g>
  <line id="Baseline-L" style="fill:none;stroke:#27AAE1;opacity:1;stroke-width:0.5;" x1="263" x2="3036" y1="1556" y2="1556"/>
  <line id="Capline-L" style="fill:none;stroke:#27AAE1;opacity:1;stroke-width:0.5;" x1="263" x2="3036" y1="1485.54" y2="1485.54"/>
  <line id="left-margin-Regular-M" style="fill:none;stroke:#00AEEF;stroke-width:0.5;opacity:1.0;" x1="1391.32" x2="1391.32" y1="1030.79" y2="1150.12"/>
  <line id="right-margin-Regular-M" style="fill:none;stroke:#00AEEF;stroke-width:0.5;opacity:1.0;" x1="1508.37" x2="1508.37" y1="1030.79" y2="1150.12"/>
 </g>
 <g id="Symbols">
  <g id="Black-L" transform="matrix(1 0 0 1 2854.19 1556)">
   <path d="M79.1953 32.7252Q93.2356 32.7252 105.521 27.4303Q117.806 22.1354 127.174 12.7571Q136.542 3.37874 141.848-8.90649Q147.154-21.1917 147.154-35.2113Q147.154-49.2309 141.848-61.5161Q136.542-73.8013 127.164-83.1796Q117.785-92.558 105.5-97.8529Q93.2149-103.148 79.1746-103.148Q65.1563-103.148 52.8704-97.8529Q40.5846-92.558 31.2276-83.1796Q21.8707-73.8013 16.5647-61.5161Q11.2588-49.2309 11.2588-35.2113Q11.2588-21.1917 16.5647-8.90649Q21.8707 3.37874 31.238 12.7571Q40.6053 22.1354 52.8912 27.4303Q65.177 32.7252 79.1953 32.7252ZM79.1953 12.5777Q69.2941 12.5777 60.6256 8.86047Q51.9572 5.14327 45.4197-1.40458Q38.8822-7.95243 35.1644-16.6312Q31.4465-25.3101 31.4465-35.2113Q31.4465-45.1125 35.154-53.7913Q38.8615-62.4702 45.399-69.018Q51.9365-75.5659 60.6049-79.2831Q69.2734-83.0003 79.1746-83.0003Q89.0966-83.0003 97.7657-79.2831Q106.435-75.5659 112.982-69.018Q119.529-62.4702 123.257-53.7913Q126.986-45.1125 126.986-35.2113Q126.986-25.3101 123.268-16.6312Q119.551-7.95243 113.014-1.40458Q106.476 5.14327 97.7974 8.86047Q89.1186 12.5777 79.1953 12.5777ZM67.8001-2.21551L93.0309-2.21551Q95.8242-2.21551 97.7047-3.98964Q99.5852-5.76376 99.5852-8.61154Q99.5852-11.2647 97.7047-13.1069Q95.8242-14.9492 93.0309-14.9492L88.6919-14.9492L88.6919-37.3189Q88.6919-41.1345 86.8503-43.3809Q85.0087-45.6273 81.4486-45.6273L69.052-45.6273Q66.3171-45.6273 64.397-43.785Q62.4769-41.9428 62.4769-39.2896Q62.4769-36.4406 64.397-34.6567Q66.3171-32.8729 69.052-32.8729L74.2418-32.8729L74.2418-14.9492L67.8001-14.9492Q65.0666-14.9492 63.1458-13.1069Q61.2251-11.2647 61.2251-8.61154Q61.2251-5.76376 63.1458-3.98964Q65.0666-2.21551 67.8001-2.21551ZM79.3799-53.1004Q83.4805-53.1004 86.4143-56.0537Q89.3481-59.0069 89.3481-63.0491Q89.3481-67.3249 86.4143-70.2502Q83.4805-73.1755 79.3799-73.1755Q75.3378-73.1755 72.3651-70.2502Q69.3924-67.3249 69.3924-63.0491Q69.3924-59.0069 72.3651-56.0537Q75.3378-53.1004 79.3799-53.1004Z"/>
  </g>
  <g id="Heavy-L" transform="matrix(1 0 0 1 2558.42 1556)">
   <path d="M78.2511 31.7672Q92.088 31.7672 104.202 26.5464Q116.316 21.3256 125.559 12.0677Q134.802 2.8099 140.04-9.30402Q145.279-21.4179 145.279-35.2251Q145.279-49.0322 140.04-61.1461Q134.802-73.2601 125.544-82.5179Q116.286-91.7758 104.172-96.9966Q92.0582-102.217 78.2213-102.217Q64.4202-102.217 52.3033-96.9966Q40.1863-91.7758 30.9613-82.5179Q21.7362-73.2601 16.4975-61.1461Q11.2588-49.0322 11.2588-35.2251Q11.2588-21.4179 16.4975-9.30402Q21.7362 2.8099 30.9761 12.0677Q40.2161 21.3256 52.333 26.5464Q64.45 31.7672 78.2511 31.7672ZM78.2511 14.0252Q68.0447 14.0252 59.1149 10.2016Q50.1851 6.37791 43.4463-0.375708Q36.7076-7.12933 32.8809-16.074Q29.0543-25.0188 29.0543-35.2251Q29.0543-45.4314 32.8661-54.3761Q36.6778-63.3208 43.4166-70.0745Q50.1553-76.8281 59.0851-80.6517Q68.015-84.4754 78.2213-84.4754Q88.4574-84.4754 97.3902-80.6517Q106.323-76.8281 113.074-70.0745Q119.824-63.3208 123.666-54.3761Q127.507-45.4314 127.507-35.2251Q127.507-25.0188 123.684-16.074Q119.86-7.12933 113.121-0.375708Q106.383 6.37791 97.4379 10.2016Q88.4932 14.0252 78.2511 14.0252ZM66.9324-1.85898L92.2744-1.85898Q94.8401-1.85898 96.5647-3.49602Q98.2894-5.13306 98.2894-7.7252Q98.2894-10.1597 96.5647-11.8533Q94.8401-13.5468 92.2744-13.5468L87.0316-13.5468L87.0316-38.4327Q87.0316-41.9086 85.341-43.9666Q83.6505-46.0246 80.4155-46.0246L68.123-46.0246Q65.602-46.0246 63.8401-44.331Q62.0782-42.6375 62.0782-40.203Q62.0782-37.6048 63.8401-35.9559Q65.602-34.307 68.123-34.307L73.7817-34.307L73.7817-13.5468L66.9324-13.5468Q64.4175-13.5468 62.6526-11.8533Q60.8877-10.1597 60.8877-7.7252Q60.8877-5.13306 62.6526-3.49602Q64.4175-1.85898 66.9324-1.85898ZM78.2807-54.2718Q82.1894-54.2718 84.9623-57.0685Q87.7353-59.8652 87.7353-63.7292Q87.7353-67.7717 84.9623-70.5521Q82.1894-73.3325 78.2807-73.3325Q74.4167-73.3325 71.6095-70.5521Q68.8024-67.7717 68.8024-63.7292Q68.8024-59.8652 71.6095-57.0685Q74.4167-54.2718 78.2807-54.2718Z"/>
  </g>
  <g id="Bold-L" transform="matrix(1 0 0 1 2262.89 1556)">
   <path d="M77.0653 30.566Q90.6516 30.566 102.549 25.4396Q114.447 20.3133 123.533 11.2089Q132.619 2.10448 137.771-9.79333Q142.923-21.6912 142.923-35.2405Q142.923-48.7898 137.771-60.6877Q132.619-72.5855 123.515-81.6899Q114.41-90.7942 102.512-95.9206Q90.6146-101.047 77.0283-101.047Q63.4932-101.047 51.5882-95.9206Q39.6833-90.7942 30.623-81.6899Q21.5627-72.5855 16.4108-60.6877Q11.2588-48.7898 11.2588-35.2405Q11.2588-21.6912 16.4108-9.79333Q21.5627 2.10448 30.6415 11.2089Q39.7203 20.3133 51.6252 25.4396Q63.5301 30.566 77.0653 30.566ZM77.0653 15.8201Q66.4831 15.8201 57.2278 11.8629Q47.9725 7.90583 40.9827 0.897553Q33.9929-6.11072 30.0287-15.3845Q26.0645-24.6583 26.0645-35.2405Q26.0645-45.8227 30.0102-55.0965Q33.9559-64.3703 40.9457-71.3786Q47.9355-78.3868 57.1908-82.3439Q66.4461-86.3011 77.0283-86.3011Q87.6474-86.3011 96.9099-82.3439Q106.172-78.3868 113.173-71.3786Q120.175-64.3703 124.157-55.0965Q128.14-45.8227 128.14-35.2405Q128.14-24.6583 124.183-15.3845Q120.226-6.11072 113.236 0.897553Q106.246 7.90583 96.9725 11.8629Q87.6986 15.8201 77.0653 15.8201ZM65.8035-1.49469L91.2872-1.49469Q93.5521-1.49469 95.0665-2.9496Q96.5808-4.40451 96.5808-6.65599Q96.5808-8.7971 95.0665-10.2926Q93.5521-11.7881 91.2872-11.7881L84.8864-11.7881L84.8864-39.8859Q84.8864-42.9011 83.3981-44.7052Q81.9097-46.5093 79.1015-46.5093L66.8967-46.5093Q64.661-46.5093 63.1135-45.0138Q61.566-43.5183 61.566-41.3772Q61.566-39.1115 63.1135-37.6452Q64.661-36.1789 66.8967-36.1789L73.2555-36.1789L73.2555-11.7881L65.8035-11.7881Q63.582-11.7881 62.0274-10.2926Q60.4728-8.7971 60.4728-6.65599Q60.4728-4.40451 62.0274-2.9496Q63.582-1.49469 65.8035-1.49469ZM76.9446-55.7491Q80.5723-55.7491 83.1222-58.3218Q85.6721-60.8944 85.6721-64.493Q85.6721-68.2083 83.1222-70.7806Q80.5723-73.3528 76.9446-73.3528Q73.346-73.3528 70.7702-70.7806Q68.1943-68.2083 68.1943-64.493Q68.1943-60.8944 70.7702-58.3218Q73.346-55.7491 76.9446-55.7491Z"/>
  </g>
  <g id="Semibold-L" transform="matrix(1 0 0 1 1966.99 1556)">
   <path d="M76.2478 29.7379Q89.6614 29.7379 101.41 24.6766Q113.159 19.6153 122.137 10.6168Q131.114 1.61818 136.206-10.1307Q141.299-21.8795 141.299-35.2511Q141.299-48.6228 136.206-60.3716Q131.114-72.1204 122.116-81.119Q113.117-90.1176 101.368-95.1789Q89.6194-100.24 76.2058-100.24Q62.854-100.24 51.0953-95.1789Q39.3365-90.1176 30.3898-81.119Q21.4432-72.1204 16.351-60.3716Q11.2588-48.6228 11.2588-35.2511Q11.2588-21.8795 16.351-10.1307Q21.4432 1.61818 30.4108 10.6168Q39.3785 19.6153 51.1372 24.6766Q62.896 29.7379 76.2478 29.7379ZM76.2478 17.0574Q65.4065 17.0574 55.9268 13.0083Q46.4471 8.95916 39.2843 1.77533Q32.1214-5.4085 28.0624-14.9092Q24.0033-24.4099 24.0033-35.2511Q24.0033-46.0924 28.0414-55.5931Q32.0795-65.0938 39.2423-72.2776Q46.4052-79.4614 55.8848-83.5105Q65.3645-87.5597 76.2058-87.5597Q87.089-87.5597 96.5787-83.5105Q106.068-79.4614 113.242-72.2776Q120.416-65.0938 124.496-55.5931Q128.576-46.0924 128.576-35.2511Q128.576-24.4099 124.527-14.9092Q120.478-5.4085 113.315 1.77533Q106.152 8.95916 96.6516 13.0083Q87.1509 17.0574 76.2478 17.0574ZM65.0252-1.24355L90.6065-1.24355Q92.6642-1.24355 94.0336-2.5729Q95.403-3.90224 95.403-5.91888Q95.403-7.8577 94.0336-9.21667Q92.6642-10.5756 90.6065-10.5756L83.4076-10.5756L83.4076-40.8877Q83.4076-43.5854 82.0586-45.2144Q80.7095-46.8435 78.1957-46.8435L66.0514-46.8435Q64.0122-46.8435 62.6126-45.4845Q61.2129-44.1255 61.2129-42.1867Q61.2129-40.1502 62.6126-38.8098Q64.0122-37.4694 66.0514-37.4694L72.8928-37.4694L72.8928-10.5756L65.0252-10.5756Q63.006-10.5756 61.5964-9.21667Q60.1868-7.8577 60.1868-5.91888Q60.1868-3.90224 61.5964-2.5729Q63.006-1.24355 65.0252-1.24355ZM76.0234-56.7676Q79.4575-56.7676 81.8536-59.1858Q84.2497-61.6039 84.2497-65.0195Q84.2497-68.5093 81.8536-70.9381Q79.4575-73.3668 76.0234-73.3668Q72.6079-73.3668 70.1915-70.9381Q67.7751-68.5093 67.7751-65.0195Q67.7751-61.6039 70.1915-59.1858Q72.6079-56.7676 76.0234-56.7676Z"/>
  </g>
  <g id="Medium-L" transform="matrix(1 0 0 1 1670.9 1556)">
   <path d="M75.6279 29.11Q88.9106 29.11 100.546 24.0981Q112.182 19.0862 121.078 10.1678Q129.973 1.24944 135.02-10.3864Q140.067-22.0223 140.067-35.2592Q140.067-48.4961 135.02-60.1319Q129.973-71.7678 121.055-80.6862Q112.137-89.6045 100.501-94.6164Q88.8648-99.6283 75.5822-99.6283Q62.3695-99.6283 50.7215-94.6164Q39.0736-89.6045 30.213-80.6862Q21.3525-71.7678 16.3056-60.1319Q11.2588-48.4961 11.2588-35.2592Q11.2588-22.0223 16.3056-10.3864Q21.3525 1.24944 30.2359 10.1678Q39.1193 19.0862 50.7673 24.0981Q62.4152 29.11 75.6279 29.11ZM75.6279 17.9956Q64.5902 17.9956 54.9404 13.8767Q45.2905 9.75784 37.9965 2.4409Q30.7024-4.87605 26.5714-14.5488Q22.4405-24.2215 22.4405-35.2592Q22.4405-46.2969 26.5486-55.9696Q30.6567-65.6423 37.9507-72.9593Q45.2448-80.2762 54.8946-84.3951Q64.5445-88.514 75.5822-88.514Q86.6657-88.514 96.3276-84.3951Q105.989-80.2762 113.294-72.9593Q120.599-65.6423 124.753-55.9696Q128.907-46.2969 128.907-35.2592Q128.907-24.2215 124.788-14.5488Q120.669-4.87605 113.375 2.4409Q106.081 9.75784 96.4083 13.8767Q86.7356 17.9956 75.6279 17.9956ZM64.4351-1.05312L90.0905-1.05312Q91.991-1.05312 93.2504-2.28726Q94.5098-3.52141 94.5098-5.35998Q94.5098-7.14541 93.2504-8.40086Q91.991-9.65632 90.0905-9.65632L82.2863-9.65632L82.2863-41.6474Q82.2863-44.1043 81.0429-45.6006Q79.7995-47.0969 77.5088-47.0969L65.4104-47.0969Q63.5203-47.0969 62.2328-45.8414Q60.9452-44.5859 60.9452-42.8005Q60.9452-40.9378 62.2328-39.6928Q63.5203-38.4479 65.4104-38.4479L72.6177-38.4479L72.6177-9.65632L64.4351-9.65632Q62.5692-9.65632 61.2696-8.40086Q59.9699-7.14541 59.9699-5.35998Q59.9699-3.52141 61.2696-2.28726Q62.5692-1.05312 64.4351-1.05312ZM75.325-57.5398Q78.6123-57.5398 80.8917-59.8409Q83.1712-62.1419 83.1712-65.4187Q83.1712-68.7375 80.8917-71.0575Q78.6123-73.3774 75.325-73.3774Q72.0482-73.3774 69.7527-71.0575Q67.4572-68.7375 67.4572-65.4187Q67.4572-62.1419 69.7527-59.8409Q72.0482-57.5398 75.325-57.5398Z"/>
  </g>
  <g id="Regular-L" transform="matrix(1 0 0 1 1374.99 1556)">
   <path d="M74.8194 28.2909Q87.9312 28.2909 99.4198 23.3434Q110.908 18.3959 119.697 9.58221Q128.485 0.768476 133.473-10.7201Q138.46-22.2086 138.46-35.2697Q138.46-48.3308 133.473-59.8193Q128.485-71.3079 119.671-80.1216Q110.858-88.9353 99.3691-93.8828Q87.8805-98.8303 74.7687-98.8303Q61.7374-98.8303 50.234-93.8828Q38.7306-88.9353 29.9824-80.1216Q21.2342-71.3079 16.2465-59.8193Q11.2588-48.3308 11.2588-35.2697Q11.2588-22.2086 16.2465-10.7201Q21.2342 0.768476 30.0077 9.58221Q38.7813 18.3959 50.2847 23.3434Q61.7881 28.2909 74.8194 28.2909ZM74.8194 19.2194Q63.5255 19.2194 53.6537 15.0095Q43.7819 10.7996 36.3167 3.30903Q28.8515-4.18154 24.6267-14.0786Q20.402-23.9757 20.402-35.2697Q20.402-46.5637 24.6014-56.4608Q28.8008-66.3579 36.266-73.8484Q43.7313-81.339 53.603-85.5489Q63.4748-89.7588 74.7687-89.7588Q86.1134-89.7588 96-85.5489Q105.887-81.339 113.362-73.8484Q120.838-66.3579 125.088-56.4608Q129.338-46.5637 129.338-35.2697Q129.338-23.9757 125.128-14.0786Q120.918-4.18154 113.453 3.30903Q105.988 10.7996 96.0909 15.0095Q86.1938 19.2194 74.8194 19.2194ZM63.6654-0.804739L89.4173-0.804739Q91.1128-0.804739 92.2289-1.9147Q93.3449-3.02466 93.3449-4.63097Q93.3449-6.21633 92.2289-7.33677Q91.1128-8.4572 89.4173-8.4572L80.8237-8.4572L80.8237-42.6382Q80.8237-44.781 79.7181-46.1042Q78.6126-47.4274 76.613-47.4274L64.5743-47.4274Q62.8787-47.4274 61.7374-46.3069Q60.596-45.1865 60.596-43.6011Q60.596-41.9651 61.7374-40.8446Q62.8787-39.7242 64.5743-39.7242L72.259-39.7242L72.259-8.4572L63.6654-8.4572Q61.9996-8.4572 60.8433-7.33677Q59.6871-6.21633 59.6871-4.63097Q59.6871-3.02466 60.8433-1.9147Q61.9996-0.804739 63.6654-0.804739ZM74.414-58.5471Q77.5097-58.5471 79.6371-60.6954Q81.7644-62.8437 81.7644-65.9394Q81.7644-69.0352 79.6371-71.2132Q77.5097-73.3913 74.414-73.3913Q71.3182-73.3913 69.1804-71.2132Q67.0426-69.0352 67.0426-65.9394Q67.0426-62.8437 69.1804-60.6954Q71.3182-58.5471 74.414-58.5471Z"/>
  </g>
  <g id="Light-L" transform="matrix(1 0 0 1 1079.2 1556)">
   <path d="M73.8959 27.3674Q86.8436 27.3674 98.1577 22.502Q109.472 17.6366 118.137 8.95629Q126.802 0.275949 131.708-11.0381Q136.614-22.3522 136.614-35.2697Q136.614-48.1872 131.708-59.5013Q126.802-70.8154 118.122-79.4957Q109.442-88.176 98.1275-93.0414Q86.8134-97.9069 73.8658-97.9069Q60.9986-97.9069 49.6594-93.0414Q38.3201-88.176 29.6951-79.4957Q21.07-70.8154 16.1644-59.5013Q11.2588-48.1872 11.2588-35.2697Q11.2588-22.3522 16.1644-11.0381Q21.07 0.275949 29.7102 8.95629Q38.3503 17.6366 49.6895 22.502Q61.0287 27.3674 73.8959 27.3674ZM73.8959 20.4712Q62.3557 20.4712 52.2479 16.1587Q42.1402 11.8462 34.4903 4.18122Q26.8403-3.48379 22.5027-13.6066Q18.1651-23.7295 18.1651-35.2697Q18.1651-46.8099 22.4876-56.9328Q26.8102-67.0556 34.4601-74.7206Q42.11-82.3856 52.2178-86.6981Q62.3255-91.0106 73.8658-91.0106Q85.4362-91.0106 95.5691-86.6981Q105.702-82.3856 113.342-74.7206Q120.982-67.0556 125.334-56.9328Q129.687-46.8099 129.687-35.2697Q129.687-23.7295 125.375-13.6066Q121.062-3.48379 113.412 4.18122Q105.762 11.8462 95.6394 16.1587Q85.5166 20.4712 73.8959 20.4712ZM62.5366-1.051L88.4117-1.051Q89.7789-1.051 90.6384-1.95575Q91.4979-2.86049 91.4979-4.07688Q91.4979-5.31336 90.6384-6.20806Q89.7789-7.10275 88.4117-7.10275L78.7715-7.10275L78.7715-44.1158Q78.7715-45.684 77.9019-46.6993Q77.0324-47.7147 75.4843-47.7147L63.2403-47.7147Q61.8732-47.7147 60.9986-46.82Q60.124-45.9253 60.124-44.6888Q60.124-43.4221 60.9986-42.5274Q61.8732-41.6328 63.2403-41.6328L72.1769-41.6328L72.1769-7.10275L62.5366-7.10275Q61.2197-7.10275 60.32-6.20806Q59.4203-5.31336 59.4203-4.07688Q59.4203-2.86049 60.32-1.95575Q61.2197-1.051 62.5366-1.051ZM73.6547-59.7374Q76.2784-59.7374 78.0979-61.5368Q79.9175-63.3362 79.9175-65.96Q79.9175-68.5837 78.0979-70.4334Q76.2784-72.2831 73.6547-72.2831Q71.0309-72.2831 69.2214-70.4334Q67.412-68.5837 67.412-65.96Q67.412-63.3362 69.2214-61.5368Q71.0309-59.7374 73.6547-59.7374Z"/>
  </g>
  <g id="Thin-L" transform="matrix(1 0 0 1 783.716 1556)">
   <path d="M72.6746 26.1461Q85.405 26.1461 96.4884 21.3892Q107.572 16.6324 116.074 8.12846Q124.577-0.375458 129.374-11.4588Q134.171-22.5422 134.171-35.2697Q134.171-47.9972 129.374-59.0806Q124.577-70.1639 116.073-78.6679Q107.569-87.1718 96.4854-91.9286Q85.402-96.6855 72.6715-96.6855Q60.0215-96.6855 48.8994-91.9286Q37.7773-87.1718 29.3151-78.6679Q20.8529-70.1639 16.0558-59.0806Q11.2588-47.9972 11.2588-35.2697Q11.2588-22.5422 16.0558-11.4588Q20.8529-0.375458 29.3166 8.12846Q37.7803 16.6324 48.9024 21.3892Q60.0245 26.1461 72.6746 26.1461ZM72.6746 22.1269Q60.8086 22.1269 50.3887 17.6787Q39.9688 13.2305 32.0746 5.33475Q24.1804-2.56097 19.6935-12.9824Q15.2066-23.4038 15.2066-35.2697Q15.2066-47.1356 19.692-57.557Q24.1774-67.9784 32.0716-75.8742Q39.9658-83.7699 50.3857-88.2181Q60.8056-92.6663 72.6715-92.6663Q84.5405-92.6663 94.9991-88.2181Q105.458-83.7699 113.315-75.8742Q121.172-67.9784 125.66-57.557Q130.149-47.1356 130.149-35.2697Q130.149-23.4038 125.7-12.9824Q121.252-2.56097 113.358 5.33475Q105.464 13.2305 95.0423 17.6787Q84.6209 22.1269 72.6746 22.1269ZM61.0438-1.37671L87.0818-1.37671Q88.0147-1.37671 88.5349-2.01003Q89.0552-2.64335 89.0552-3.34404Q89.0552-4.11912 88.5349-4.71525Q88.0147-5.31138 87.0818-5.31138L76.0573-5.31138L76.0573-46.07Q76.0573-46.8782 75.4999-47.4864Q74.9424-48.0946 73.9914-48.0946L61.4761-48.0946Q60.5432-48.0946 60.0215-47.4985Q59.4997-46.9024 59.4997-46.1273Q59.4997-45.3492 60.0215-44.7531Q60.5432-44.157 61.4761-44.157L72.0683-44.157L72.0683-5.31138L61.0438-5.31138Q60.1883-5.31138 59.6279-4.71525Q59.0674-4.11912 59.0674-3.34404Q59.0674-2.64335 59.6279-2.01003Q60.1883-1.37671 61.0438-1.37671ZM72.6504-61.3116Q74.6499-61.3116 76.0623-62.6496Q77.4747-63.9876 77.4747-65.9871Q77.4747-67.9866 76.0623-69.402Q74.6499-70.8174 72.6504-70.8174Q70.6509-70.8174 69.2757-69.402Q67.9005-67.9866 67.9005-65.9871Q67.9005-63.9876 69.2757-62.6496Q70.6509-61.3116 72.6504-61.3116Z"/>
  </g>
  <g id="Ultralight-L" transform="matrix(1 0 0 1 487.631 1556)">
   <path d="M72.049 25.5205Q84.6682 25.5205 95.6335 20.8192Q106.599 16.118 115.018 7.70445Q123.437-0.709105 128.178-11.6743Q132.92-22.6395 132.92-35.2697Q132.92-47.8999 128.178-58.8651Q123.437-69.8303 115.023-78.2439Q106.61-86.6574 95.6443-91.3586Q84.6791-96.0599 72.0598-96.0599Q59.521-96.0599 48.5101-91.3586Q37.4993-86.6574 29.1205-78.2439Q20.7417-69.8303 16.0002-58.8651Q11.2588-47.8999 11.2588-35.2697Q11.2588-22.6395 16.0002-11.6743Q20.7417-0.709105 29.115 7.70445Q37.4884 16.118 48.4992 20.8192Q59.5101 25.5205 72.049 25.5205ZM72.049 22.9749Q60.0162 22.9749 49.4364 18.4572Q38.8567 13.9395 30.8374 5.92558Q22.818-2.0883 18.2546-12.6626Q13.6913-23.2369 13.6913-35.2697Q13.6913-47.3025 18.2601-57.8768Q22.8289-68.4511 30.8482-76.465Q38.8676-84.4789 49.4473-88.9966Q60.0271-93.5143 72.0598-93.5143Q84.0817-93.5143 94.7071-88.9966Q105.333-84.4789 113.301-76.465Q121.269-68.4511 125.827-57.8768Q130.385-47.3025 130.385-35.2697Q130.385-23.2369 125.867-12.6626Q121.349-2.0883 113.33 5.92558Q105.311 13.9395 94.7365 18.4572Q84.1621 22.9749 72.049 22.9749ZM60.2792-1.54353L86.4006-1.54353Q87.1111-1.54353 87.4575-2.03783Q87.804-2.53214 87.804-2.96869Q87.804-3.50743 87.4575-3.95064Q87.1111-4.39385 86.4006-4.39385L74.6671-4.39385L74.6671-47.0709Q74.6671-47.4899 74.2696-47.8896Q73.872-48.2893 73.2268-48.2893L60.5725-48.2893Q59.862-48.2893 59.521-47.8461Q59.18-47.4029 59.18-46.8641Q59.18-46.3363 59.521-45.893Q59.862-45.4498 60.5725-45.4498L72.0127-45.4498L72.0127-4.39385L60.2792-4.39385Q59.6601-4.39385 59.2734-3.95064Q58.8867-3.50743 58.8867-2.96869Q58.8867-2.53214 59.2734-2.03783Q59.6601-1.54353 60.2792-1.54353ZM72.136-62.1179Q73.8158-62.1179 75.0196-63.2196Q76.2235-64.3213 76.2235-66.001Q76.2235-67.6807 75.0196-68.8737Q73.8158-70.0667 72.136-70.0667Q70.4563-70.0667 69.3035-68.8737Q68.1508-67.6807 68.1508-66.001Q68.1508-64.3213 69.3035-63.2196Q70.4563-62.1179 72.136-62.1179Z"/>
  </g>
  <g id="Black-M" transform="matrix(1 0 0 1 2871.36 1126)">
   <path d="M62.0423 18.1161Q73.0725 18.1161 82.714 13.9613Q92.3555 9.80654 99.704 2.45531Q107.052-4.89592 111.21-14.5374Q115.367-24.1789 115.367-35.2035Q115.367-46.2282 111.21-55.8697Q107.052-65.5112 99.7012-72.8624Q92.35-80.2136 82.7085-84.3684Q73.067-88.5232 62.0368-88.5232Q51.0119-88.5232 41.3705-84.3684Q31.7292-80.2136 24.3833-72.8624Q17.0375-65.5112 12.8801-55.8697Q8.72266-46.2282 8.72266-35.2035Q8.72266-24.1789 12.8801-14.5374Q17.0375-4.89592 24.3861 2.45531Q31.7347 9.80654 41.376 13.9613Q51.0174 18.1161 62.0423 18.1161ZM62.0423 0.734266Q54.6003 0.734266 48.0771-2.06802Q41.554-4.87031 36.637-9.78999Q31.7201-14.7097 28.918-21.2356Q26.1159-27.7615 26.1159-35.2035Q26.1159-42.6456 28.9152-49.1715Q31.7146-55.6974 36.6315-60.6171Q41.5485-65.5368 48.0716-68.3391Q54.5948-71.1414 62.0368-71.1414Q69.4844-71.1414 76.0074-68.3391Q82.5304-65.5368 87.4502-60.6171Q92.3701-55.6974 95.175-49.1715Q97.9799-42.6456 97.9799-35.2035Q97.9799-27.7615 95.1776-21.2356Q92.3753-14.7097 87.4584-9.78999Q82.5414-4.87031 76.0155-2.06802Q69.4896 0.734266 62.0423 0.734266ZM53.1204-9.99195L72.5889-9.99195Q74.904-9.99195 76.4601-11.4565Q78.0163-12.921 78.0163-15.2941Q78.0163-17.4902 76.4601-19.0147Q74.904-20.5392 72.5889-20.5392L69.8622-20.5392L69.8622-36.0911Q69.8622-39.2614 68.3375-41.122Q66.8129-42.9826 63.8366-42.9826L54.1151-42.9826Q51.857-42.9826 50.2696-41.458Q48.6822-39.9335 48.6822-37.7375Q48.6822-35.3646 50.2696-33.8972Q51.857-32.4298 54.1151-32.4298L57.9025-32.4298L57.9025-20.5392L53.1204-20.5392Q50.862-20.5392 49.2748-19.0147Q47.6875-17.4902 47.6875-15.2941Q47.6875-12.921 49.2748-11.4565Q50.862-9.99195 53.1204-9.99195ZM62.3408-48.2294Q65.6187-48.2294 67.9882-50.6046Q70.3576-52.9799 70.3576-56.2007Q70.3576-59.6499 67.9882-61.9963Q65.6187-64.3427 62.3408-64.3427Q59.12-64.3427 56.7191-61.9963Q54.3182-59.6499 54.3182-56.2007Q54.3182-52.9799 56.7191-50.6046Q59.12-48.2294 62.3408-48.2294Z"/>
  </g>
  <g id="Heavy-M" transform="matrix(1 0 0 1 2575.48 1126)">
   <path d="M61.2045 17.2648Q72.0509 17.2648 81.541 13.1749Q91.0312 9.08498 98.2688 1.83921Q105.506-5.40657 109.606-14.8967Q113.705-24.3868 113.705-35.217Q113.705-46.0473 109.606-55.5374Q105.506-65.0275 98.2607-72.2733Q91.0149-79.519 81.5248-83.6089Q72.0347-87.6988 61.1882-87.6988Q50.3604-87.6988 40.8691-83.6089Q31.3778-79.519 24.1495-72.2733Q16.9211-65.0275 12.8219-55.5374Q8.72266-46.0473 8.72266-35.217Q8.72266-24.3868 12.8219-14.8967Q16.9211-5.40657 24.1576 1.83921Q31.394 9.08498 40.8853 13.1749Q50.3767 17.2648 61.2045 17.2648ZM61.2045 2.03385Q53.4869 2.03385 46.73-0.86303Q39.9731-3.75991 34.8765-8.86466Q29.7798-13.9694 26.8817-20.7344Q23.9836-27.4994 23.9836-35.217Q23.9836-42.9346 26.8736-49.6996Q29.7636-56.4646 34.8602-61.5694Q39.9568-66.6741 46.7137-69.571Q53.4706-72.4679 61.1882-72.4679Q68.922-72.4679 75.6802-69.571Q82.4383-66.6741 87.5418-61.5694Q92.6453-56.4646 95.5516-49.6996Q98.4578-42.9346 98.4578-35.217Q98.4578-27.4994 95.5609-20.7344Q92.664-13.9694 87.5674-8.86466Q82.4708-3.75991 75.7057-0.86303Q68.9407 2.03385 61.2045 2.03385ZM52.3763-9.6207L71.9421-9.6207Q74.0651-9.6207 75.4925-10.9701Q76.9199-12.3195 76.9199-14.4788Q76.9199-16.4934 75.4925-17.8933Q74.0651-19.2932 71.9421-19.2932L68.4284-19.2932L68.4284-37.0437Q68.4284-39.9348 67.0297-41.6396Q65.631-43.3444 62.9308-43.3444L53.33-43.3444Q51.2507-43.3444 49.7933-41.9445Q48.336-40.5446 48.336-38.53Q48.336-36.3683 49.7933-35.012Q51.2507-33.6557 53.33-33.6557L57.4603-33.6557L57.4603-19.2932L52.3763-19.2932Q50.2994-19.2932 48.8408-17.8933Q47.3822-16.4934 47.3822-14.4788Q47.3822-12.3195 48.8408-10.9701Q50.2994-9.6207 52.3763-9.6207ZM61.3363-49.2647Q64.4701-49.2647 66.7107-51.5191Q68.9513-53.7735 68.9513-56.8637Q68.9513-60.1284 66.7107-62.3634Q64.4701-64.5985 61.3363-64.5985Q58.2461-64.5985 55.9768-62.3634Q53.7074-60.1284 53.7074-56.8637Q53.7074-53.7735 55.9768-51.5191Q58.2461-49.2647 61.3363-49.2647Z"/>
  </g>
  <g id="Bold-M" transform="matrix(1 0 0 1 2279.69 1126)">
   <path d="M60.2672 16.3124Q70.9082 16.3124 80.2289 12.2951Q89.5497 8.27781 96.6634 1.15Q103.777-5.9778 107.811-15.2986Q111.845-24.6193 111.845-35.2321Q111.845-45.8449 107.811-55.1656Q103.777-64.4864 96.6493-71.6142Q89.5215-78.742 80.2007-82.7593Q70.8799-86.7766 60.2389-86.7766Q49.6317-86.7766 40.3082-82.7593Q30.9846-78.742 23.8878-71.6142Q16.791-64.4864 12.7568-55.1656Q8.72266-45.8449 8.72266-35.2321Q8.72266-24.6193 12.7568-15.2986Q16.791-5.9778 23.902 1.15Q31.0129 8.27781 40.3364 12.2951Q49.6599 16.3124 60.2672 16.3124ZM60.2672 3.48763Q52.2414 3.48763 45.223 0.484927Q38.2046-2.51777 32.907-7.82954Q27.6093-13.1413 24.6039-20.1738Q21.5984-27.2063 21.5984-35.2321Q21.5984-43.2579 24.5897-50.2904Q27.5811-57.3229 32.8787-62.6347Q38.1764-67.9464 45.1948-70.9491Q52.2131-73.9518 60.2389-73.9518Q68.293-73.9518 75.3141-70.9491Q82.3352-67.9464 87.6443-62.6347Q92.9533-57.3229 95.9728-50.2904Q98.9924-43.2579 98.9924-35.2321Q98.9924-27.2063 95.9897-20.1738Q92.987-13.1413 87.6894-7.82954Q82.3917-2.51777 75.3592 0.484927Q68.3267 3.48763 60.2672 3.48763ZM51.5439-9.20541L71.2186-9.20541Q73.1266-9.20541 74.41-10.4261Q75.6935-11.6468 75.6935-13.5667Q75.6935-15.3783 74.41-16.6389Q73.1266-17.8995 71.2186-17.8995L66.8246-17.8995L66.8246-38.1092Q66.8246-40.6881 65.5667-42.2187Q64.3089-43.7493 61.9175-43.7493L52.4518-43.7493Q50.5724-43.7493 49.2606-42.4887Q47.9487-41.2281 47.9487-39.4165Q47.9487-37.4911 49.2606-36.259Q50.5724-35.027 52.4518-35.027L56.9657-35.027L56.9657-17.8995L51.5439-17.8995Q49.67-17.8995 48.3554-16.6389Q47.0408-15.3783 47.0408-13.5667Q47.0408-11.6468 48.3554-10.4261Q49.67-9.20541 51.5439-9.20541ZM60.2126-50.4229Q63.1852-50.4229 65.2817-52.5421Q67.3782-54.6613 67.3782-57.6054Q67.3782-60.6637 65.2817-62.7741Q63.1852-64.8846 60.2126-64.8846Q57.2685-64.8846 55.1463-62.7741Q53.0242-60.6637 53.0242-57.6054Q53.0242-54.6613 55.1463-52.5421Q57.2685-50.4229 60.2126-50.4229Z"/>
  </g>
  <g id="Semibold-M" transform="matrix(1 0 0 1 1983.62 1126)">
   <path d="M59.621 15.6559Q70.1203 15.6559 79.3244 11.6886Q88.5284 7.72135 95.5566 0.674869Q102.585-6.37161 106.574-15.5756Q110.564-24.7797 110.564-35.2425Q110.564-45.7053 106.574-54.9093Q102.585-64.1134 95.5384-71.1598Q88.4919-78.2063 79.2879-82.1736Q70.0838-86.1408 59.5845-86.1408Q49.1293-86.1408 39.9215-82.1736Q30.7136-78.2063 23.7075-71.1598Q16.7013-64.1134 12.712-54.9093Q8.72266-45.7053 8.72266-35.2425Q8.72266-24.7797 12.712-15.5756Q16.7013-6.37161 23.7257 0.674869Q30.7501 7.72135 39.958 11.6886Q49.1658 15.6559 59.621 15.6559ZM59.621 4.48985Q51.3827 4.48985 44.1841 1.4142Q36.9855-1.66145 31.5492-7.11594Q26.113-12.5704 23.0335-19.7873Q19.954-27.0042 19.954-35.2425Q19.954-43.4808 23.0153-50.6977Q26.0765-57.9145 31.5127-63.369Q36.9489-68.8235 44.1476-71.8992Q51.3462-74.9748 59.5845-74.9748Q67.8593-74.9748 75.0618-71.8992Q82.2642-68.8235 87.7149-63.369Q93.1655-57.9145 96.2633-50.6977Q99.361-43.4808 99.361-35.2425Q99.361-27.0042 96.2853-19.7873Q93.2097-12.5704 87.7735-7.11594Q82.3372-1.66145 75.1203 1.4142Q67.9035 4.48985 59.621 4.48985ZM50.9701-8.9191L70.7199-8.9191Q72.4796-8.9191 73.6638-10.051Q74.848-11.183 74.848-12.9379Q74.848-14.6095 73.6638-15.7741Q72.4796-16.9386 70.7199-16.9386L65.7189-16.9386L65.7189-38.8438Q65.7189-41.2075 64.5582-42.6179Q63.3975-44.0283 61.219-44.0283L51.8464-44.0283Q50.1048-44.0283 48.8933-42.8638Q47.6817-41.6993 47.6817-40.0277Q47.6817-38.2651 48.8933-37.1187Q50.1048-35.9723 51.8464-35.9723L56.6247-35.9723L56.6247-16.9386L50.9701-16.9386Q49.2362-16.9386 48.0208-15.7741Q46.8054-14.6095 46.8054-12.9379Q46.8054-11.183 48.0208-10.051Q49.2362-8.9191 50.9701-8.9191ZM59.4379-51.2213Q62.2994-51.2213 64.2966-53.2473Q66.2937-55.2733 66.2937-58.1167Q66.2937-61.0327 64.2966-63.0573Q62.2994-65.0819 59.4379-65.0819Q56.5945-65.0819 54.5739-63.0573Q52.5532-61.0327 52.5532-58.1167Q52.5532-55.2733 54.5739-53.2473Q56.5945-51.2213 59.4379-51.2213Z"/>
  </g>
  <g id="Medium-M" transform="matrix(1 0 0 1 1687.4 1126)">
   <path d="M59.1311 15.158Q69.523 15.158 78.6385 11.2287Q87.754 7.29942 94.7174 0.314603Q101.681-6.67021 105.636-15.7857Q109.591-24.9012 109.591-35.2504Q109.591-45.5995 105.636-54.715Q101.681-63.8305 94.696-70.8153Q87.7112-77.8002 78.5957-81.7295Q69.4802-85.6588 59.0883-85.6588Q48.7484-85.6588 39.6283-81.7295Q30.5081-77.8002 23.5707-70.8153Q16.6333-63.8305 12.678-54.715Q8.72266-45.5995 8.72266-35.2504Q8.72266-24.9012 12.678-15.7857Q16.6333-6.67021 23.5921 0.314603Q30.5509 7.29942 39.671 11.2287Q48.7912 15.158 59.1311 15.158ZM59.1311 5.24978Q50.7316 5.24978 43.3963 2.11881Q36.061-1.01215 30.5197-6.57486Q24.9784-12.1376 21.8428-19.4943Q18.7072-26.8509 18.7072-35.2504Q18.7072-43.6498 21.8214-51.0065Q24.9356-58.3632 30.4769-63.9259Q36.0183-69.4886 43.3536-72.6195Q50.6889-75.7505 59.0883-75.7505Q67.5305-75.7505 74.8704-72.6195Q82.2103-69.4886 87.7684-63.9259Q93.3265-58.3632 96.4835-51.0065Q99.6405-43.6498 99.6405-35.2504Q99.6405-26.8509 96.5095-19.4943Q93.3785-12.1376 87.8372-6.57486Q82.2959-1.01215 74.9392 2.11881Q67.5825 5.24978 59.1311 5.24978ZM50.5349-8.70202L70.3417-8.70202Q71.989-8.70202 73.0979-9.76667Q74.2069-10.8313 74.2069-12.4612Q74.2069-14.0266 73.0979-15.1183Q71.989-16.21 70.3417-16.21L64.8805-16.21L64.8805-39.4008Q64.8805-41.6013 63.7934-42.9206Q62.7064-44.2399 60.6893-44.2399L51.3873-44.2399Q49.7503-44.2399 48.6148-43.1483Q47.4793-42.0566 47.4793-40.4911Q47.4793-38.852 48.6148-37.7706Q49.7503-36.6892 51.3873-36.6892L56.3661-36.6892L56.3661-16.21L50.5349-16.21Q48.9072-16.21 47.767-15.1183Q46.6269-14.0266 46.6269-12.4612Q46.6269-10.8313 47.767-9.76667Q48.9072-8.70202 50.5349-8.70202ZM58.8505-51.8267Q61.6278-51.8267 63.5496-53.782Q65.4714-55.7374 65.4714-58.5044Q65.4714-61.3125 63.5496-63.272Q61.6278-65.2314 58.8505-65.2314Q56.0835-65.2314 54.1398-63.272Q52.196-61.3125 52.196-58.5044Q52.196-55.7374 54.1398-53.782Q56.0835-51.8267 58.8505-51.8267Z"/>
  </g>
  <g id="Regular-M" transform="matrix(1 0 0 1 1391.32 1126)">
   <path d="M58.492 14.5087Q68.7438 14.5087 77.7439 10.6289Q86.7439 6.74907 93.6228-0.155309Q100.502-7.05969 104.413-16.0597Q108.324-25.0598 108.324-35.2606Q108.324-45.4615 104.413-54.4616Q100.502-63.4616 93.5973-70.366Q86.693-77.2704 77.6929-81.1502Q68.6929-85.03 58.441-85.03Q48.2515-85.03 39.2458-81.1502Q30.2401-77.2704 23.3923-70.366Q16.5446-63.4616 12.6336-54.4616Q8.72266-45.4615 8.72266-35.2606Q8.72266-25.0598 12.6336-16.0597Q16.5446-7.05969 23.4178-0.155309Q30.291 6.74907 39.2968 10.6289Q48.3025 14.5087 58.492 14.5087ZM58.492 6.24099Q49.8824 6.24099 42.3688 3.03788Q34.8553-0.165238 29.1769-5.86909Q23.4985-11.573 20.2897-19.112Q17.0809-26.6511 17.0809-35.2606Q17.0809-43.8702 20.2642-51.4093Q23.4476-58.9483 29.1259-64.6522Q34.8043-70.3561 42.3179-73.5592Q49.8315-76.7623 58.441-76.7623Q67.1016-76.7623 74.6208-73.5592Q82.1401-70.3561 87.8383-64.6522Q93.5364-58.9483 96.7707-51.4093Q100.005-43.8702 100.005-35.2606Q100.005-26.6511 96.8019-19.112Q93.5988-11.573 87.9204-5.86909Q82.242-0.165238 74.7029 3.03788Q67.1639 6.24099 58.492 6.24099ZM49.9674-8.41886L69.8484-8.41886Q71.3491-8.41886 72.3599-9.39574Q73.3707-10.3726 73.3707-11.8393Q73.3707-13.2663 72.3599-14.263Q71.3491-15.2597 69.8484-15.2597L63.787-15.2597L63.787-40.1273Q63.787-42.1149 62.7959-43.3154Q61.8049-44.516 59.9985-44.516L50.7885-44.516Q49.2878-44.516 48.2515-43.5193Q47.2152-42.5226 47.2152-41.0955Q47.2152-39.6175 48.2515-38.6208Q49.2878-37.6242 50.7885-37.6242L56.0288-37.6242L56.0288-15.2597L49.9674-15.2597Q48.4781-15.2597 47.4361-14.263Q46.3941-13.2663 46.3941-11.8393Q46.3941-10.3726 47.4361-9.39574Q48.4781-8.41886 49.9674-8.41886ZM58.0843-52.6163Q60.7517-52.6163 62.5753-54.4795Q64.3988-56.3427 64.3988-59.0101Q64.3988-61.6775 62.5753-63.552Q60.7517-65.4265 58.0843-65.4265Q55.4169-65.4265 53.5736-63.552Q51.7302-61.6775 51.7302-59.0101Q51.7302-56.3427 53.5736-54.4795Q55.4169-52.6163 58.0843-52.6163Z"/>
  </g>
  <g id="Light-M" transform="matrix(1 0 0 1 1095.44 1126)">
   <path d="M57.664 13.6807Q67.7687 13.6807 76.6123 9.87453Q85.456 6.06831 92.2245-0.716478Q98.993-7.50127 102.83-16.3449Q106.668-25.1886 106.668-35.2606Q106.668-45.3327 102.83-54.1764Q98.993-63.02 92.2082-69.8048Q85.4234-76.5896 76.5798-80.3958Q67.7361-84.202 57.6315-84.202Q47.5892-84.202 38.7306-80.3958Q29.8721-76.5896 23.1348-69.8048Q16.3974-63.02 12.56-54.1764Q8.72266-45.3327 8.72266-35.2606Q8.72266-25.1886 12.56-16.3449Q16.3974-7.50127 23.151-0.716478Q29.9047 6.06831 38.7632 9.87453Q47.6217 13.6807 57.664 13.6807ZM57.664 7.36333Q48.8337 7.36333 41.1085 4.06822Q33.3833 0.773111 27.5394-5.08714Q21.6954-10.9474 18.3854-18.6888Q15.0755-26.4303 15.0755-35.2606Q15.0755-44.091 18.3692-51.8325Q21.6629-59.5739 27.5068-65.4342Q33.3508-71.2944 41.076-74.5895Q48.8011-77.8846 57.6315-77.8846Q66.4944-77.8846 74.2345-74.5895Q81.9745-71.2944 87.8199-65.4342Q93.6652-59.5739 96.9915-51.8325Q100.318-44.091 100.318-35.2606Q100.318-26.4303 97.0227-18.6888Q93.7275-10.9474 87.8836-5.08714Q82.0396 0.773111 74.2982 4.06822Q66.5567 7.36333 57.664 7.36333ZM48.9555-8.63965L68.9468-8.63965Q70.1531-8.63965 70.934-9.43254Q71.7148-10.2254 71.7148-11.3425Q71.7148-12.4568 70.934-13.2511Q70.1531-14.0454 68.9468-14.0454L61.9471-14.0454L61.9471-41.452Q61.9471-42.9245 61.1676-43.849Q60.3882-44.7735 58.9865-44.7735L49.5926-44.7735Q48.3863-44.7735 47.5892-43.9793Q46.7921-43.185 46.7921-42.0707Q46.7921-40.9239 47.5892-40.1296Q48.3863-39.3353 49.5926-39.3353L55.9552-39.3353L55.9552-14.0454L48.9555-14.0454Q47.7789-14.0454 46.9669-13.2511Q46.1549-12.4568 46.1549-11.3425Q46.1549-10.2254 46.9669-9.43254Q47.7789-8.63965 48.9555-8.63965ZM57.4036-53.6835Q59.6478-53.6835 61.1953-55.2339Q62.7429-56.7843 62.7429-59.0285Q62.7429-61.2727 61.1953-62.8528Q59.6478-64.433 57.4036-64.433Q55.1594-64.433 53.6104-62.8528Q52.0614-61.2727 52.0614-59.0285Q52.0614-56.7843 53.6104-55.2339Q55.1594-53.6835 57.4036-53.6835Z"/>
  </g>
  <g id="Thin-M" transform="matrix(1 0 0 1 799.828 1126)">
   <path d="M56.569 12.5857Q66.479 12.5857 75.1158 8.87683Q83.7526 5.16794 90.3751-1.45867Q96.9976-8.08529 100.738-16.7221Q104.478-25.3589 104.478-35.2606Q104.478-45.1624 100.738-53.7992Q96.9976-62.436 90.371-69.0626Q83.7444-75.6892 75.1076-79.3981Q66.4707-83.107 56.5608-83.107Q46.7131-83.107 38.0493-79.3981Q29.3854-75.6892 22.7941-69.0626Q16.2027-62.436 12.4627-53.7992Q8.72266-45.1624 8.72266-35.2606Q8.72266-25.3589 12.4627-16.7221Q16.2027-8.08529 22.7982-1.45867Q29.3936 5.16794 38.0575 8.87683Q46.7214 12.5857 56.569 12.5857ZM56.569 8.84771Q47.4466 8.84771 39.4416 5.43093Q31.4366 2.01415 25.3736-4.05293Q19.3107-10.12 15.8668-18.1291Q12.423-26.1383 12.423-35.2606Q12.423-44.383 15.8627-52.3921Q19.3024-60.4013 25.3654-66.4684Q31.4284-72.5354 39.4334-75.9522Q47.4384-79.369 56.5608-79.369Q65.6914-79.369 73.7234-75.9522Q81.7555-72.5354 87.7955-66.4684Q93.8356-60.4013 97.2835-52.3921Q100.731-44.383 100.731-35.2606Q100.731-26.1383 97.3147-18.1291Q93.8979-10.12 87.8349-4.05293Q81.7719 2.01415 73.7628 5.43093Q65.7537 8.84771 56.569 8.84771ZM47.6171-8.93166L67.7545-8.93166Q68.5714-8.93166 69.0481-9.4812Q69.5247-10.0308 69.5247-10.6855Q69.5247-11.3861 69.0481-11.9127Q68.5714-12.4393 67.7545-12.4393L59.5136-12.4393L59.5136-43.2041Q59.5136-43.9952 59.0141-44.5547Q58.5145-45.1142 57.6481-45.1142L48.0109-45.1142Q47.1939-45.1142 46.7131-44.5876Q46.2324-44.061 46.2324-43.3604Q46.2324-42.6516 46.7131-42.125Q47.1939-41.5983 48.0109-41.5983L55.8579-41.5983L55.8579-12.4393L47.6171-12.4393Q46.8542-12.4393 46.3464-11.9127Q45.8386-11.3861 45.8386-10.6855Q45.8386-10.0308 46.3464-9.4812Q46.8542-8.93166 47.6171-8.93166ZM56.5032-55.0949Q58.1877-55.0949 59.3703-56.2316Q60.5529-57.3683 60.5529-59.0528Q60.5529-60.7373 59.3703-61.9281Q58.1877-63.1189 56.5032-63.1189Q54.8187-63.1189 53.659-61.9281Q52.4994-60.7373 52.4994-59.0528Q52.4994-57.3683 53.659-56.2316Q54.8187-55.0949 56.5032-55.0949Z"/>
  </g>
  <g id="Ultralight-M" transform="matrix(1 0 0 1 503.679 1126)">
   <path d="M56.0081 12.0248Q65.8184 12.0248 74.3492 8.36581Q82.8801 4.70678 89.4278-1.83882Q95.9756-8.38442 99.6657-16.9153Q103.356-25.4462 103.356-35.2606Q103.356-45.0751 99.6657-53.606Q95.9756-62.1369 89.43-68.6825Q82.8844-75.2281 74.3535-78.8871Q65.8226-82.5461 56.0124-82.5461Q46.2644-82.5461 37.7003-78.8871Q29.1361-75.2281 22.6196-68.6825Q16.103-62.1369 12.4128-53.606Q8.72266-45.0751 8.72266-35.2606Q8.72266-25.4462 12.4128-16.9153Q16.103-8.38442 22.6175-1.83882Q29.1319 4.70678 37.6961 8.36581Q46.2602 12.0248 56.0081 12.0248ZM56.0081 9.60801Q46.7362 9.60801 38.5878 6.12891Q30.4395 2.64981 24.2644-3.52322Q18.0892-9.69625 14.5768-17.8425Q11.0645-25.9887 11.0645-35.2606Q11.0645-44.5326 14.579-52.6788Q18.0934-60.825 24.2686-66.9981Q30.4437-73.1711 38.5921-76.6502Q46.7404-80.1293 56.0124-80.1293Q65.2801-80.1293 73.4617-76.6502Q81.6433-73.1711 87.7831-66.9981Q93.9228-60.825 97.4331-52.6788Q100.943-44.5326 100.943-35.2606Q100.943-25.9887 97.4642-17.8425Q93.9851-9.69625 87.81-3.52322Q81.6348 2.64981 73.4886 6.12891Q65.3424 9.60801 56.0081 9.60801ZM46.9316-9.08122L67.1437-9.08122Q67.7613-9.08122 68.0821-9.50613Q68.403-9.93104 68.403-10.349Q68.403-10.8377 68.0821-11.2272Q67.7613-11.6167 67.1437-11.6167L58.2673-11.6167L58.2673-44.1015Q58.2673-44.5436 57.911-44.9162Q57.5548-45.2887 56.9626-45.2887L47.2007-45.2887Q46.5832-45.2887 46.2644-44.8992Q45.9457-44.5097 45.9457-44.021Q45.9457-43.5365 46.2644-43.147Q46.5832-42.7575 47.2007-42.7575L55.808-42.7575L55.808-11.6167L46.9316-11.6167Q46.3806-11.6167 46.0286-11.2272Q45.6766-10.8377 45.6766-10.349Q45.6766-9.93104 46.0286-9.50613Q46.3806-9.08122 46.9316-9.08122ZM56.042-55.8178Q57.4399-55.8178 58.4355-56.7426Q59.4311-57.6674 59.4311-59.0653Q59.4311-60.4631 58.4355-61.4545Q57.4399-62.4459 56.042-62.4459Q54.6442-62.4459 53.684-61.4545Q52.7237-60.4631 52.7237-59.0653Q52.7237-57.6674 53.684-56.7426Q54.6442-55.8178 56.042-55.8178Z"/>
  </g>
  <g id="Black-S" transform="matrix(1 0 0 1 2884.57 696)">
   <path d="M48.8281 6.78711Q57.5195 6.78711 65.1123 3.51562Q72.7051 0.244141 78.4912-5.54199Q84.2773-11.3281 87.5488-18.9209Q90.8203-26.5137 90.8203-35.2051Q90.8203-43.8965 87.5488-51.4893Q84.2773-59.082 78.4912-64.8682Q72.7051-70.6543 65.1123-73.9258Q57.5195-77.1973 48.8281-77.1973Q40.1367-77.1973 32.5439-73.9258Q24.9512-70.6543 19.165-64.8682Q13.3789-59.082 10.1074-51.4893Q6.83594-43.8965 6.83594-35.2051Q6.83594-26.5137 10.1074-18.9209Q13.3789-11.3281 19.165-5.54199Q24.9512 0.244141 32.5439 3.51562Q40.1367 6.78711 48.8281 6.78711ZM48.8281-7.37305Q43.0664-7.37305 38.0127-9.5459Q32.959-11.7188 29.1504-15.5273Q25.3418-19.3359 23.1689-24.3896Q20.9961-29.4434 20.9961-35.2051Q20.9961-40.9668 23.1689-46.0205Q25.3418-51.0742 29.1504-54.8828Q32.959-58.6914 38.0127-60.8643Q43.0664-63.0371 48.8281-63.0371Q54.5898-63.0371 59.6436-60.8643Q64.6973-58.6914 68.5059-54.8828Q72.3145-51.0742 74.4873-46.0205Q76.6602-40.9668 76.6602-35.2051Q76.6602-29.4434 74.4873-24.3896Q72.3145-19.3359 68.5059-15.5273Q64.6973-11.7188 59.6436-9.5459Q54.5898-7.37305 48.8281-7.37305ZM41.7969-15.5762L57.0312-15.5762Q58.8867-15.5762 60.1318-16.748Q61.377-17.9199 61.377-19.8242Q61.377-21.582 60.1318-22.8027Q58.8867-24.0234 57.0312-24.0234L55.0781-24.0234L55.0781-35.6934Q55.0781-38.2324 53.8574-39.7217Q52.6367-41.2109 50.2441-41.2109L42.5781-41.2109Q40.7715-41.2109 39.502-39.9902Q38.2324-38.7695 38.2324-37.0117Q38.2324-35.1074 39.502-33.9355Q40.7715-32.7637 42.5781-32.7637L45.5078-32.7637L45.5078-24.0234L41.7969-24.0234Q39.9902-24.0234 38.7207-22.8027Q37.4512-21.582 37.4512-19.8242Q37.4512-17.9199 38.7207-16.748Q39.9902-15.5762 41.7969-15.5762ZM49.1211-45.166Q51.709-45.166 53.5889-47.0459Q55.4688-48.9258 55.4688-51.4648Q55.4688-54.1992 53.5889-56.0547Q51.709-57.9102 49.1211-57.9102Q46.582-57.9102 44.6777-56.0547Q42.7734-54.1992 42.7734-51.4648Q42.7734-48.9258 44.6777-47.0459Q46.582-45.166 49.1211-45.166Z"/>
  </g>
  <g id="Heavy-S" transform="matrix(1 0 0 1 2588.47 696)">
   <path d="M48.2173 6.16479Q56.7704 6.16479 64.2537 2.9394Q71.737-0.285985 77.4425-5.99721Q83.1479-11.7084 86.3791-19.1917Q89.6102-26.675 89.6102-35.2166Q89.6102-43.7582 86.3791-51.2415Q83.1479-58.7248 77.4367-64.436Q71.7255-70.1472 64.2422-73.3726Q56.7589-76.598 48.2058-76.598Q39.6642-76.598 32.1809-73.3726Q24.6976-70.1472 18.9979-64.436Q13.2982-58.7248 10.0671-51.2415Q6.83594-43.7582 6.83594-35.2166Q6.83594-26.675 10.0671-19.1917Q13.2982-11.7084 19.0037-5.99721Q24.7092-0.285985 32.1924 2.9394Q39.6757 6.16479 48.2173 6.16479ZM48.2173-6.40499Q42.2482-6.40499 37.0216-8.64699Q31.795-10.889 27.8539-14.8359Q23.9128-18.7828 21.6708-24.0151Q19.4288-29.2474 19.4288-35.2166Q19.4288-41.1858 21.665-46.4181Q23.9012-51.6504 27.8424-55.5973Q31.7835-59.5442 37.0101-61.7862Q42.2366-64.0282 48.2058-64.0282Q54.1865-64.0282 59.4131-61.7862Q64.6396-59.5442 68.5865-55.5973Q72.5334-51.6504 74.7812-46.4181Q77.0289-41.1858 77.0289-35.2166Q77.0289-29.2474 74.7869-24.0151Q72.5449-18.7828 68.6038-14.8359Q64.6627-10.889 59.4304-8.64699Q54.198-6.40499 48.2173-6.40499ZM41.2898-15.2304L56.5933-15.2304Q58.322-15.2304 59.4865-16.3274Q60.6509-17.4244 60.6509-19.1904Q60.6509-20.8329 59.4865-21.973Q58.322-23.113 56.5933-23.113L54.087-23.113L54.087-36.3387Q54.087-38.7049 52.947-40.0962Q51.807-41.4875 49.5988-41.4875L42.0595-41.4875Q40.3681-41.4875 39.1793-40.3475Q37.9904-39.2075 37.9904-37.5649Q37.9904-35.7989 39.1793-34.6962Q40.3681-33.5934 42.0595-33.5934L45.139-33.5934L45.139-23.113L41.2898-23.113Q39.5984-23.113 38.4095-21.973Q37.2207-20.8329 37.2207-19.1904Q37.2207-17.4244 38.4095-16.3274Q39.5984-15.2304 41.2898-15.2304ZM48.349-45.9151Q50.8677-45.9151 52.6727-47.7316Q54.4776-49.5481 54.4776-52.0295Q54.4776-54.6602 52.6727-56.458Q50.8677-58.2559 48.349-58.2559Q45.8675-58.2559 44.0381-56.458Q42.2087-54.6602 42.2087-52.0295Q42.2087-49.5481 44.0381-47.7316Q45.8675-45.9151 48.349-45.9151Z"/>
  </g>
  <g id="Bold-S" transform="matrix(1 0 0 1 2292.43 696)">
   <path d="M47.5342 5.46875Q55.9326 5.46875 63.2935 2.29492Q70.6543-0.878906 76.2695-6.50635Q81.8848-12.1338 85.0708-19.4946Q88.2568-26.8555 88.2568-35.2295Q88.2568-43.6035 85.0708-50.9644Q81.8848-58.3252 76.2573-63.9526Q70.6299-69.5801 63.269-72.7539Q55.9082-75.9277 47.5098-75.9277Q39.1357-75.9277 31.7749-72.7539Q24.4141-69.5801 18.811-63.9526Q13.208-58.3252 10.022-50.9644Q6.83594-43.6035 6.83594-35.2295Q6.83594-26.8555 10.022-19.4946Q13.208-12.1338 18.8232-6.50635Q24.4385-0.878906 31.7993 2.29492Q39.1602 5.46875 47.5342 5.46875ZM47.5342-5.32227Q41.333-5.32227 35.9131-7.6416Q30.4932-9.96094 26.4038-14.0625Q22.3145-18.1641 19.9951-23.5962Q17.6758-29.0283 17.6758-35.2295Q17.6758-41.4307 19.9829-46.8628Q22.29-52.2949 26.3794-56.3965Q30.4688-60.498 35.8887-62.8174Q41.3086-65.1367 47.5098-65.1367Q53.7354-65.1367 59.1553-62.8174Q64.5752-60.498 68.6768-56.3965Q72.7783-52.2949 75.1099-46.8628Q77.4414-41.4307 77.4414-35.2295Q77.4414-29.0283 75.1221-23.5962Q72.8027-18.1641 68.7134-14.0625Q64.624-9.96094 59.1919-7.6416Q53.7598-5.32227 47.5342-5.32227ZM40.7227-14.8438L56.1035-14.8438Q57.6904-14.8438 58.7646-15.8569Q59.8389-16.8701 59.8389-18.4814Q59.8389-19.9951 58.7646-21.0449Q57.6904-22.0947 56.1035-22.0947L52.9785-22.0947L52.9785-37.0605Q52.9785-39.2334 51.9287-40.5151Q50.8789-41.7969 48.877-41.7969L41.4795-41.7969Q39.917-41.7969 38.8184-40.7471Q37.7197-39.6973 37.7197-38.1836Q37.7197-36.5723 38.8184-35.5469Q39.917-34.5215 41.4795-34.5215L44.7266-34.5215L44.7266-22.0947L40.7227-22.0947Q39.1602-22.0947 38.0615-21.0449Q36.9629-19.9951 36.9629-18.4814Q36.9629-16.8701 38.0615-15.8569Q39.1602-14.8438 40.7227-14.8438ZM47.4854-46.7529Q49.9268-46.7529 51.6479-48.4985Q53.3691-50.2441 53.3691-52.6611Q53.3691-55.1758 51.6479-56.9092Q49.9268-58.6426 47.4854-58.6426Q45.0684-58.6426 43.3228-56.9092Q41.5771-55.1758 41.5771-52.6611Q41.5771-50.2441 43.3228-48.4985Q45.0684-46.7529 47.4854-46.7529Z"/>
  </g>
  <g id="Semibold-S" transform="matrix(1 0 0 1 1996.19 696)">
   <path d="M47.0632 4.98887Q55.355 4.98887 62.6314 1.85059Q69.9078-1.2877 75.4608-6.85737Q81.0139-12.4271 84.1688-19.7035Q87.3237-26.9799 87.3237-35.2384Q87.3237-43.4969 84.1688-50.7733Q81.0139-58.0497 75.4442-63.6194Q69.8745-69.1891 62.5981-72.3273Q55.3217-75.4656 47.0299-75.4656Q38.7714-75.4656 31.495-72.3273Q24.2186-69.1891 18.6822-63.6194Q13.1458-58.0497 9.99087-50.7733Q6.83594-43.4969 6.83594-35.2384Q6.83594-26.9799 9.99087-19.7035Q13.1458-12.4271 18.6988-6.85737Q24.2519-1.2877 31.5283 1.85059Q38.8047 4.98887 47.0632 4.98887ZM47.0632-4.57578Q40.7021-4.57578 35.1488-6.94844Q29.5956-9.32109 25.4041-13.5293Q21.2125-17.7375 18.8398-23.3074Q16.4672-28.8772 16.4672-35.2384Q16.4672-41.5995 18.8232-47.1694Q21.1792-52.7393 25.3708-56.9475Q29.5623-61.1557 35.1155-63.5283Q40.6688-65.901 47.0299-65.901Q53.4243-65.901 58.9775-63.5283Q64.5308-61.1557 68.739-56.9475Q72.9472-52.7393 75.3365-47.1694Q77.7258-41.5995 77.7258-35.2384Q77.7258-28.8772 75.3531-23.3074Q72.9805-17.7375 68.7889-13.5293Q64.5974-9.32109 59.0275-6.94844Q53.4576-4.57578 47.0632-4.57578ZM40.3316-14.5771L55.7658-14.5771Q57.255-14.5771 58.267-15.5326Q59.279-16.488 59.279-17.9927Q59.279-19.4175 58.267-20.4051Q57.255-21.3927 55.7658-21.3927L52.2143-21.3927L52.2143-37.5582Q52.2143-39.5978 51.2267-40.804Q50.2391-42.0102 48.3793-42.0102L41.0796-42.0102Q39.606-42.0102 38.5695-41.0226Q37.5331-40.035 37.5331-38.6102Q37.5331-37.1055 38.5695-36.1334Q39.606-35.1613 41.0796-35.1613L44.4422-35.1613L44.4422-21.3927L40.3316-21.3927Q38.858-21.3927 37.8216-20.4051Q36.7852-19.4175 36.7852-17.9927Q36.7852-16.488 37.8216-15.5326Q38.858-14.5771 40.3316-14.5771ZM46.8899-47.3306Q49.278-47.3306 50.9415-49.0273Q52.6049-50.724 52.6049-53.0966Q52.6049-55.5312 50.9415-57.2202Q49.278-58.9092 46.8899-58.9092Q44.5174-58.9092 42.8295-57.2202Q41.1417-55.5312 41.1417-53.0966Q41.1417-50.724 42.8295-49.0273Q44.5174-47.3306 46.8899-47.3306Z"/>
  </g>
  <g id="Medium-S" transform="matrix(1 0 0 1 1699.83 696)">
   <path d="M46.7061 4.625Q54.917 4.625 62.1294 1.51367Q69.3418-1.59766 74.8477-7.12354Q80.3535-12.6494 83.4849-19.8618Q86.6162-27.0742 86.6162-35.2451Q86.6162-43.416 83.4849-50.6284Q80.3535-57.8408 74.8276-63.3667Q69.3018-68.8926 62.0894-72.0039Q54.877-75.1152 46.666-75.1152Q38.4951-75.1152 31.2827-72.0039Q24.0703-68.8926 18.5845-63.3667Q13.0986-57.8408 9.96729-50.6284Q6.83594-43.416 6.83594-35.2451Q6.83594-27.0742 9.96729-19.8618Q13.0986-12.6494 18.6045-7.12354Q24.1104-1.59766 31.3228 1.51367Q38.5352 4.625 46.7061 4.625ZM46.7061-4.00977Q40.2236-4.00977 34.5693-6.42285Q28.915-8.83594 24.646-13.125Q20.377-17.4141 17.9639-23.0884Q15.5508-28.7627 15.5508-35.2451Q15.5508-41.7275 17.9438-47.4019Q20.3369-53.0762 24.606-57.3652Q28.875-61.6543 34.5293-64.0674Q40.1836-66.4805 46.666-66.4805Q53.1885-66.4805 58.8428-64.0674Q64.4971-61.6543 68.7861-57.3652Q73.0752-53.0762 75.5083-47.4019Q77.9414-41.7275 77.9414-35.2451Q77.9414-28.7627 75.5283-23.0884Q73.1152-17.4141 68.8462-13.125Q64.5771-8.83594 58.9028-6.42285Q53.2285-4.00977 46.7061-4.00977ZM40.0352-14.375L55.5098-14.375Q56.9248-14.375 57.8896-15.2866Q58.8545-16.1982 58.8545-17.6221Q58.8545-18.9795 57.8896-19.9199Q56.9248-20.8604 55.5098-20.8604L51.6348-20.8604L51.6348-37.9355Q51.6348-39.874 50.6943-41.0229Q49.7539-42.1719 48.002-42.1719L40.7764-42.1719Q39.3701-42.1719 38.3809-41.2314Q37.3916-40.291 37.3916-38.9336Q37.3916-37.5098 38.3809-36.5781Q39.3701-35.6465 40.7764-35.6465L44.2266-35.6465L44.2266-20.8604L40.0352-20.8604Q38.6289-20.8604 37.6396-19.9199Q36.6504-18.9795 36.6504-17.6221Q36.6504-16.1982 37.6396-15.2866Q38.6289-14.375 40.0352-14.375ZM46.4385-47.7686Q48.7861-47.7686 50.4058-49.4282Q52.0254-51.0879 52.0254-53.4268Q52.0254-55.8008 50.4058-57.4561Q48.7861-59.1113 46.4385-59.1113Q44.0996-59.1113 42.4556-57.4561Q40.8115-55.8008 40.8115-53.4268Q40.8115-51.0879 42.4556-49.4282Q44.0996-47.7686 46.4385-47.7686Z"/>
  </g>
  <g id="Regular-S" transform="matrix(1 0 0 1 1403.58 696)">
   <path d="M46.2402 4.15039Q54.3457 4.15039 61.4746 1.07422Q68.6035-2.00195 74.0479-7.4707Q79.4922-12.9395 82.5928-20.0684Q85.6934-27.1973 85.6934-35.2539Q85.6934-43.3105 82.5928-50.4395Q79.4922-57.5684 74.0234-63.0371Q68.5547-68.5059 61.4258-71.582Q54.2969-74.6582 46.1914-74.6582Q38.1348-74.6582 31.0059-71.582Q23.877-68.5059 18.457-63.0371Q13.0371-57.5684 9.93652-50.4395Q6.83594-43.3105 6.83594-35.2539Q6.83594-27.1973 9.93652-20.0684Q13.0371-12.9395 18.4814-7.4707Q23.9258-2.00195 31.0547 1.07422Q38.1836 4.15039 46.2402 4.15039ZM46.2402-3.27148Q39.5996-3.27148 33.8135-5.7373Q28.0273-8.20312 23.6572-12.5977Q19.2871-16.9922 16.8213-22.8027Q14.3555-28.6133 14.3555-35.2539Q14.3555-41.8945 16.7969-47.7051Q19.2383-53.5156 23.6084-57.9102Q27.9785-62.3047 33.7646-64.7705Q39.5508-67.2363 46.1914-67.2363Q52.8809-67.2363 58.667-64.7705Q64.4531-62.3047 68.8477-57.9102Q73.2422-53.5156 75.7324-47.7051Q78.2227-41.8945 78.2227-35.2539Q78.2227-28.6133 75.7568-22.8027Q73.291-16.9922 68.9209-12.5977Q64.5508-8.20312 58.7402-5.7373Q52.9297-3.27148 46.2402-3.27148ZM39.6484-14.1113L55.1758-14.1113Q56.4941-14.1113 57.3975-14.9658Q58.3008-15.8203 58.3008-17.1387Q58.3008-18.4082 57.3975-19.2871Q56.4941-20.166 55.1758-20.166L50.8789-20.166L50.8789-38.4277Q50.8789-40.2344 50-41.3086Q49.1211-42.3828 47.5098-42.3828L40.3809-42.3828Q39.0625-42.3828 38.1348-41.5039Q37.207-40.625 37.207-39.3555Q37.207-38.0371 38.1348-37.1582Q39.0625-36.2793 40.3809-36.2793L43.9453-36.2793L43.9453-20.166L39.6484-20.166Q38.3301-20.166 37.4023-19.2871Q36.4746-18.4082 36.4746-17.1387Q36.4746-15.8203 37.4023-14.9658Q38.3301-14.1113 39.6484-14.1113ZM45.8496-48.3398Q48.1445-48.3398 49.707-49.9512Q51.2695-51.5625 51.2695-53.8574Q51.2695-56.1523 49.707-57.7637Q48.1445-59.375 45.8496-59.375Q43.5547-59.375 41.9678-57.7637Q40.3809-56.1523 40.3809-53.8574Q40.3809-51.5625 41.9678-49.9512Q43.5547-48.3398 45.8496-48.3398Z"/>
  </g>
  <g id="Light-S" transform="matrix(1 0 0 1 1107.6 696)">
   <path d="M45.5078 3.41797Q53.4831 3.41797 60.4736 0.406901Q67.4642-2.60417 72.8109-7.96712Q78.1576-13.3301 81.193-20.3206Q84.2285-27.3112 84.2285-35.2539Q84.2285-43.1966 81.193-50.1872Q78.1576-57.1777 72.7946-62.5407Q67.4316-67.9036 60.4411-70.9147Q53.4505-73.9258 45.4753-73.9258Q37.5488-73.9258 30.5501-70.9147Q23.5514-67.9036 18.2292-62.5407Q12.9069-57.1777 9.87142-50.1872Q6.83594-43.1966 6.83594-35.2539Q6.83594-27.3112 9.87142-20.3206Q12.9069-13.3301 18.2454-7.96712Q23.584-2.60417 30.5827 0.406901Q37.5814 3.41797 45.5078 3.41797ZM45.5078-2.27865Q38.6719-2.27865 32.6986-4.82585Q26.7253-7.37305 22.2087-11.9059Q17.6921-16.4388 15.1367-22.4284Q12.5814-28.418 12.5814-35.2539Q12.5814-42.0898 15.1204-48.0794Q17.6595-54.069 22.1761-58.6019Q26.6927-63.1348 32.666-65.682Q38.6393-68.2292 45.4753-68.2292Q52.3438-68.2292 58.3252-65.682Q64.3066-63.1348 68.8314-58.6019Q73.3561-54.069 75.9277-48.0794Q78.4993-42.0898 78.4993-35.2539Q78.4993-28.418 75.9521-22.4284Q73.4049-16.4388 68.8883-11.9059Q64.3717-7.37305 58.3822-4.82585Q52.3926-2.27865 45.5078-2.27865ZM38.7533-14.3066L54.3783-14.3066Q55.4362-14.3066 56.1361-14.9984Q56.8359-15.6901 56.8359-16.6992Q56.8359-17.6921 56.1361-18.3919Q55.4362-19.0918 54.3783-19.0918L49.2513-19.0918L49.2513-39.5996Q49.2513-40.9505 48.5596-41.7806Q47.8678-42.6107 46.6146-42.6107L39.3229-42.6107Q38.265-42.6107 37.5488-41.9108Q36.8327-41.2109 36.8327-40.2181Q36.8327-39.1927 37.5488-38.4928Q38.265-37.793 39.3229-37.793L43.8802-37.793L43.8802-19.0918L38.7533-19.0918Q37.7116-19.0918 36.9873-18.3919Q36.263-17.6921 36.263-16.6992Q36.263-15.6901 36.9873-14.9984Q37.7116-14.3066 38.7533-14.3066ZM45.2474-49.2839Q47.168-49.2839 48.4863-50.6185Q49.8047-51.9531 49.8047-53.8737Q49.8047-55.7943 48.4863-57.1452Q47.168-58.4961 45.2474-58.4961Q43.3268-58.4961 42.0003-57.1452Q40.6738-55.7943 40.6738-53.8737Q40.6738-51.9531 42.0003-50.6185Q43.3268-49.2839 45.2474-49.2839Z"/>
  </g>
  <g id="Thin-S" transform="matrix(1 0 0 1 811.863 696)">
   <path d="M44.5391 2.44928Q52.3422 2.44928 59.1498-0.47568Q65.9573-3.40064 71.1749-8.62368Q76.3924-13.8467 79.3418-20.6543Q82.2911-27.4619 82.2911-35.2539Q82.2911-43.0459 79.3418-49.8535Q76.3924-56.6611 71.1694-61.8841Q65.9463-67.1072 59.1387-70.0321Q52.3311-72.9571 44.5281-72.9571Q36.7739-72.9571 29.9474-70.0321Q23.1209-67.1072 17.9278-61.8841Q12.7347-56.6611 9.78531-49.8535Q6.83594-43.0459 6.83594-35.2539Q6.83594-27.4619 9.78531-20.6543Q12.7347-13.8467 17.9333-8.62368Q23.1319-3.40064 29.9584-0.47568Q36.7849 2.44928 44.5391 2.44928ZM44.5391-0.965537Q37.4449-0.965537 31.224-3.62037Q25.0032-6.2752 20.2928-10.9911Q15.5825-15.7069 12.9087-21.9333Q10.235-28.1597 10.235-35.2539Q10.235-42.3482 12.9032-48.5745Q15.5714-54.8009 20.2818-59.5168Q24.9921-64.2326 31.213-66.8874Q37.4338-69.5423 44.5281-69.5423Q51.6334-69.5423 57.8731-66.8874Q64.1129-64.2326 68.8099-59.5168Q73.5068-54.8009 76.1861-48.5745Q78.8653-42.3482 78.8653-35.2539Q78.8653-28.1597 76.2105-21.9333Q73.5556-15.7069 68.8453-10.9911Q64.135-6.2752 57.9086-3.62037Q51.6822-0.965537 44.5391-0.965537ZM37.5693-14.565L53.3235-14.565Q54.037-14.565 54.4678-15.0414Q54.8986-15.5179 54.8986-16.118Q54.8986-16.7449 54.4678-17.208Q54.037-17.6711 53.3235-17.6711L47.0987-17.6711L47.0987-41.1495Q47.0987-41.8977 46.6545-42.4049Q46.2103-42.912 45.4306-42.912L37.9237-42.912Q37.2102-42.912 36.7739-42.449Q36.3376-41.9859 36.3376-41.359Q36.3376-40.7211 36.7739-40.258Q37.2102-39.7949 37.9237-39.7949L43.7941-39.7949L43.7941-17.6711L37.5693-17.6711Q36.8936-17.6711 36.4384-17.208Q35.9832-16.7449 35.9832-16.118Q35.9832-15.5179 36.4384-15.0414Q36.8936-14.565 37.5693-14.565ZM44.4509-50.5324Q45.8764-50.5324 46.8718-51.5011Q47.8673-52.4698 47.8673-53.8952Q47.8673-55.3207 46.8718-56.3272Q45.8764-57.3337 44.4509-57.3337Q43.0255-57.3337 42.0434-56.3272Q41.0613-55.3207 41.0613-53.8952Q41.0613-52.4698 42.0434-51.5011Q43.0255-50.5324 44.4509-50.5324Z"/>
  </g>
  <g id="Ultralight-S" transform="matrix(1 0 0 1 515.649 696)">
   <path d="M44.043 1.95312Q51.7578 1.95312 58.4717-0.927734Q65.1855-3.80859 70.3369-8.95996Q75.4883-14.1113 78.3936-20.8252Q81.2988-27.5391 81.2988-35.2539Q81.2988-42.9688 78.3936-49.6826Q75.4883-56.3965 70.3369-61.5479Q65.1855-66.6992 58.4717-69.5801Q51.7578-72.4609 44.043-72.4609Q36.377-72.4609 29.6387-69.5801Q22.9004-66.6992 17.7734-61.5479Q12.6465-56.3965 9.74121-49.6826Q6.83594-42.9688 6.83594-35.2539Q6.83594-27.5391 9.74121-20.8252Q12.6465-14.1113 17.7734-8.95996Q22.9004-3.80859 29.6387-0.927734Q36.377 1.95312 44.043 1.95312ZM44.043-0.292969Q36.8164-0.292969 30.4688-3.00293Q24.1211-5.71289 19.3115-10.5225Q14.502-15.332 11.7676-21.6797Q9.0332-28.0273 9.0332-35.2539Q9.0332-42.4805 11.7676-48.8281Q14.502-55.1758 19.3115-59.9854Q24.1211-64.7949 30.4688-67.5049Q36.8164-70.2148 44.043-70.2148Q51.2695-70.2148 57.6416-67.5049Q64.0137-64.7949 68.7988-59.9854Q73.584-55.1758 76.3184-48.8281Q79.0527-42.4805 79.0527-35.2539Q79.0527-28.0273 76.3428-21.6797Q73.6328-15.332 68.8232-10.5225Q64.0137-5.71289 57.666-3.00293Q51.3184-0.292969 44.043-0.292969ZM36.9629-14.6973L52.7832-14.6973Q53.3203-14.6973 53.6133-15.0635Q53.9062-15.4297 53.9062-15.8203Q53.9062-16.2598 53.6133-16.6016Q53.3203-16.9434 52.7832-16.9434L45.9961-16.9434L45.9961-41.9434Q45.9961-42.3828 45.6787-42.7246Q45.3613-43.0664 44.8242-43.0664L37.207-43.0664Q36.6699-43.0664 36.377-42.7246Q36.084-42.3828 36.084-41.9434Q36.084-41.5039 36.377-41.1621Q36.6699-40.8203 37.207-40.8203L43.75-40.8203L43.75-16.9434L36.9629-16.9434Q36.4746-16.9434 36.1572-16.6016Q35.8398-16.2598 35.8398-15.8203Q35.8398-15.4297 36.1572-15.0635Q36.4746-14.6973 36.9629-14.6973ZM44.043-51.1719Q45.2148-51.1719 46.0449-51.9531Q46.875-52.7344 46.875-53.9062Q46.875-55.0781 46.0449-55.9082Q45.2148-56.7383 44.043-56.7383Q42.8711-56.7383 42.0654-55.9082Q41.2598-55.0781 41.2598-53.9062Q41.2598-52.7344 42.0654-51.9531Q42.8711-51.1719 44.043-51.1719Z"/>
  </g>
 </g>
</svg>
