<?xml version="1.0" encoding="UTF-8"?>
<!--Generator: Apple Native CoreSVG 175-->
<!DOCTYPE svg
PUBLIC "-//W3C//DTD SVG 1.1//EN"
       "http://www.w3.org/Graphics/SVG/1.1/DTD/svg11.dtd">
<svg version="1.1" xmlns="http://www.w3.org/2000/svg" xmlns:xlink="http://www.w3.org/1999/xlink" width="3300" height="2200">
 <!--glyph: "uni10048A.medium", point size: 100.0, font version: "17.1d1e1", template writer version: "65.1"-->
 <g id="Notes">
  <rect height="2200" id="artboard" style="fill:white;opacity:1" width="3300" x="0" y="0"/>
  <line style="fill:none;stroke:black;opacity:1;stroke-width:0.5;" x1="263" x2="3036" y1="292" y2="292"/>
  <text style="stroke:none;fill:black;font-family:sans-serif;font-size:13;font-weight:bold;" transform="matrix(1 0 0 1 263 322)">Weight/Scale Variations</text>
  <text style="stroke:none;fill:black;font-family:sans-serif;font-size:13;text-anchor:middle;" transform="matrix(1 0 0 1 559.711 322)">Ultralight</text>
  <text style="stroke:none;fill:black;font-family:sans-serif;font-size:13;text-anchor:middle;" transform="matrix(1 0 0 1 856.422 322)">Thin</text>
  <text style="stroke:none;fill:black;font-family:sans-serif;font-size:13;text-anchor:middle;" transform="matrix(1 0 0 1 1153.13 322)">Light</text>
  <text style="stroke:none;fill:black;font-family:sans-serif;font-size:13;text-anchor:middle;" transform="matrix(1 0 0 1 1449.84 322)">Regular</text>
  <text style="stroke:none;fill:black;font-family:sans-serif;font-size:13;text-anchor:middle;" transform="matrix(1 0 0 1 1746.56 322)">Medium</text>
  <text style="stroke:none;fill:black;font-family:sans-serif;font-size:13;text-anchor:middle;" transform="matrix(1 0 0 1 2043.27 322)">Semibold</text>
  <text style="stroke:none;fill:black;font-family:sans-serif;font-size:13;text-anchor:middle;" transform="matrix(1 0 0 1 2339.98 322)">Bold</text>
  <text style="stroke:none;fill:black;font-family:sans-serif;font-size:13;text-anchor:middle;" transform="matrix(1 0 0 1 2636.69 322)">Heavy</text>
  <text style="stroke:none;fill:black;font-family:sans-serif;font-size:13;text-anchor:middle;" transform="matrix(1 0 0 1 2933.4 322)">Black</text>
  <line style="fill:none;stroke:black;opacity:1;stroke-width:0.5;" x1="263" x2="3036" y1="1903" y2="1903"/>
  <g transform="matrix(1 0 0 1 263 1933)">
   <path d="M9.24805 0.830078Q10.8691 0.830078 12.2949 0.214844Q13.7207-0.400391 14.8096-1.49414Q15.8984-2.58789 16.5186-4.01367Q17.1387-5.43945 17.1387-7.05078Q17.1387-8.66211 16.5186-10.0879Q15.8984-11.5137 14.8047-12.6074Q13.7109-13.7012 12.2852-14.3164Q10.8594-14.9316 9.23828-14.9316Q7.62695-14.9316 6.20117-14.3164Q4.77539-13.7012 3.69141-12.6074Q2.60742-11.5137 1.9873-10.0879Q1.36719-8.66211 1.36719-7.05078Q1.36719-5.43945 1.9873-4.01367Q2.60742-2.58789 3.69629-1.49414Q4.78516-0.400391 6.21094 0.214844Q7.63672 0.830078 9.24805 0.830078ZM9.24805-0.654297Q7.91992-0.654297 6.7627-1.14746Q5.60547-1.64062 4.73145-2.51953Q3.85742-3.39844 3.36426-4.56055Q2.87109-5.72266 2.87109-7.05078Q2.87109-8.37891 3.35938-9.54102Q3.84766-10.7031 4.72168-11.582Q5.5957-12.4609 6.75293-12.9541Q7.91016-13.4473 9.23828-13.4473Q10.5762-13.4473 11.7334-12.9541Q12.8906-12.4609 13.7695-11.582Q14.6484-10.7031 15.1465-9.54102Q15.6445-8.37891 15.6445-7.05078Q15.6445-5.72266 15.1514-4.56055Q14.6582-3.39844 13.7842-2.51953Q12.9102-1.64062 11.748-1.14746Q10.5859-0.654297 9.24805-0.654297ZM5.6543-7.05078Q5.6543-6.72852 5.85938-6.52832Q6.06445-6.32812 6.40625-6.32812L8.51562-6.32812L8.51562-4.20898Q8.51562-3.88672 8.71094-3.67676Q8.90625-3.4668 9.23828-3.4668Q9.56055-3.4668 9.77051-3.67676Q9.98047-3.88672 9.98047-4.20898L9.98047-6.32812L12.0898-6.32812Q12.4219-6.32812 12.627-6.52832Q12.832-6.72852 12.832-7.05078Q12.832-7.38281 12.627-7.58789Q12.4219-7.79297 12.0898-7.79297L9.98047-7.79297L9.98047-9.90234Q9.98047-10.2344 9.77051-10.4443Q9.56055-10.6543 9.23828-10.6543Q8.90625-10.6543 8.71094-10.4443Q8.51562-10.2344 8.51562-9.90234L8.51562-7.79297L6.40625-7.79297Q6.06445-7.79297 5.85938-7.58789Q5.6543-7.38281 5.6543-7.05078Z"/>
  </g>
  <g transform="matrix(1 0 0 1 281.867 1933)">
   <path d="M11.709 2.91016Q13.75 2.91016 15.5518 2.12891Q17.3535 1.34766 18.7305-0.0292969Q20.1074-1.40625 20.8887-3.20801Q21.6699-5.00977 21.6699-7.05078Q21.6699-9.0918 20.8887-10.8936Q20.1074-12.6953 18.7305-14.0723Q17.3535-15.4492 15.5469-16.2305Q13.7402-17.0117 11.6992-17.0117Q9.6582-17.0117 7.85645-16.2305Q6.05469-15.4492 4.68262-14.0723Q3.31055-12.6953 2.5293-10.8936Q1.74805-9.0918 1.74805-7.05078Q1.74805-5.00977 2.5293-3.20801Q3.31055-1.40625 4.6875-0.0292969Q6.06445 1.34766 7.86621 2.12891Q9.66797 2.91016 11.709 2.91016ZM11.709 1.25Q9.98047 1.25 8.47656 0.605469Q6.97266-0.0390625 5.83496-1.17676Q4.69727-2.31445 4.05762-3.81836Q3.41797-5.32227 3.41797-7.05078Q3.41797-8.7793 4.05762-10.2832Q4.69727-11.7871 5.83008-12.9297Q6.96289-14.0723 8.4668-14.7119Q9.9707-15.3516 11.6992-15.3516Q13.4277-15.3516 14.9316-14.7119Q16.4355-14.0723 17.5781-12.9297Q18.7207-11.7871 19.3652-10.2832Q20.0098-8.7793 20.0098-7.05078Q20.0098-5.32227 19.3701-3.81836Q18.7305-2.31445 17.5928-1.17676Q16.4551-0.0390625 14.9463 0.605469Q13.4375 1.25 11.709 1.25ZM7.17773-7.05078Q7.17773-6.69922 7.41211-6.47461Q7.64648-6.25 8.01758-6.25L10.8887-6.25L10.8887-3.36914Q10.8887-2.99805 11.1133-2.76855Q11.3379-2.53906 11.6895-2.53906Q12.0605-2.53906 12.29-2.76855Q12.5195-2.99805 12.5195-3.36914L12.5195-6.25L15.4004-6.25Q15.7715-6.25 16.001-6.47461Q16.2305-6.69922 16.2305-7.05078Q16.2305-7.42188 16.001-7.65137Q15.7715-7.88086 15.4004-7.88086L12.5195-7.88086L12.5195-10.752Q12.5195-11.1328 12.29-11.3623Q12.0605-11.5918 11.6895-11.5918Q11.3379-11.5918 11.1133-11.3574Q10.8887-11.123 10.8887-10.752L10.8887-7.88086L8.01758-7.88086Q7.63672-7.88086 7.40723-7.65137Q7.17773-7.42188 7.17773-7.05078Z"/>
  </g>
  <g transform="matrix(1 0 0 1 305.646 1933)">
   <path d="M14.9707 5.66406Q17.0605 5.66406 18.96 5.01465Q20.8594 4.36523 22.4512 3.19336Q24.043 2.02148 25.2197 0.429688Q26.3965-1.16211 27.0459-3.06641Q27.6953-4.9707 27.6953-7.05078Q27.6953-9.14062 27.0459-11.04Q26.3965-12.9395 25.2197-14.5312Q24.043-16.123 22.4512-17.2998Q20.8594-18.4766 18.9551-19.126Q17.0508-19.7754 14.9609-19.7754Q12.8711-19.7754 10.9717-19.126Q9.07227-18.4766 7.48535-17.2998Q5.89844-16.123 4.72168-14.5312Q3.54492-12.9395 2.90039-11.04Q2.25586-9.14062 2.25586-7.05078Q2.25586-4.9707 2.90527-3.06641Q3.55469-1.16211 4.72656 0.429688Q5.89844 2.02148 7.49023 3.19336Q9.08203 4.36523 10.9814 5.01465Q12.8809 5.66406 14.9707 5.66406ZM14.9707 3.84766Q13.1641 3.84766 11.5283 3.2959Q9.89258 2.74414 8.53516 1.74805Q7.17773 0.751953 6.17676-0.610352Q5.17578-1.97266 4.62891-3.6084Q4.08203-5.24414 4.08203-7.05078Q4.08203-8.86719 4.62891-10.5029Q5.17578-12.1387 6.17188-13.501Q7.16797-14.8633 8.52539-15.8594Q9.88281-16.8555 11.5186-17.4023Q13.1543-17.9492 14.9609-17.9492Q16.7773-17.9492 18.4131-17.4023Q20.0488-16.8555 21.4111-15.8594Q22.7734-14.8633 23.7695-13.501Q24.7656-12.1387 25.3174-10.5029Q25.8691-8.86719 25.8691-7.05078Q25.8789-5.24414 25.332-3.6084Q24.7852-1.97266 23.7842-0.610352Q22.7832 0.751953 21.4209 1.74805Q20.0586 2.74414 18.4229 3.2959Q16.7871 3.84766 14.9707 3.84766ZM9.19922-7.05078Q9.19922-6.66992 9.45801-6.4209Q9.7168-6.17188 10.1172-6.17188L14.0625-6.17188L14.0625-2.2168Q14.0625-1.81641 14.3115-1.55762Q14.5605-1.29883 14.9512-1.29883Q15.3516-1.29883 15.6104-1.55273Q15.8691-1.80664 15.8691-2.2168L15.8691-6.17188L19.8242-6.17188Q20.2246-6.17188 20.4785-6.4209Q20.7324-6.66992 20.7324-7.05078Q20.7324-7.46094 20.4785-7.71484Q20.2246-7.96875 19.8242-7.96875L15.8691-7.96875L15.8691-11.9141Q15.8691-12.3242 15.6104-12.583Q15.3516-12.8418 14.9512-12.8418Q14.5605-12.8418 14.3115-12.583Q14.0625-12.3242 14.0625-11.9141L14.0625-7.96875L10.1172-7.96875Q9.70703-7.96875 9.45312-7.71484Q9.19922-7.46094 9.19922-7.05078Z"/>
  </g>
  <text style="stroke:none;fill:black;font-family:sans-serif;font-size:13;font-weight:bold;" transform="matrix(1 0 0 1 263 1953)">Design Variations</text>
  <text style="stroke:none;fill:black;font-family:sans-serif;font-size:13;" transform="matrix(1 0 0 1 263 1971)">Symbols are supported in up to nine weights and three scales.</text>
  <text style="stroke:none;fill:black;font-family:sans-serif;font-size:13;" transform="matrix(1 0 0 1 263 1989)">For optimal layout with text and other symbols, vertically align</text>
  <text style="stroke:none;fill:black;font-family:sans-serif;font-size:13;" transform="matrix(1 0 0 1 263 2007)">symbols with the adjacent text.</text>
  <line style="fill:none;stroke:#00AEEF;stroke-width:0.5;opacity:1.0;" x1="776" x2="776" y1="1919" y2="1933"/>
  <g transform="matrix(1 0 0 1 776 1933)">
   <path d="M3.31055 0.15625Q3.70117 0.15625 3.91602-0.00976562Q4.13086-0.175781 4.26758-0.585938L5.52734-4.0332L11.2891-4.0332L12.5488-0.585938Q12.6855-0.175781 12.9004-0.00976562Q13.1152 0.15625 13.4961 0.15625Q13.8867 0.15625 14.1162-0.0585938Q14.3457-0.273438 14.3457-0.644531Q14.3457-0.869141 14.2383-1.17188L9.6582-13.3691Q9.48242-13.8184 9.17969-14.043Q8.87695-14.2676 8.4082-14.2676Q7.5-14.2676 7.17773-13.3789L2.59766-1.16211Q2.49023-0.859375 2.49023-0.634766Q2.49023-0.263672 2.70996-0.0537109Q2.92969 0.15625 3.31055 0.15625ZM6.00586-5.51758L8.37891-12.0898L8.42773-12.0898L10.8008-5.51758Z"/>
  </g>
  <line style="fill:none;stroke:#00AEEF;stroke-width:0.5;opacity:1.0;" x1="793.197" x2="793.197" y1="1919" y2="1933"/>
  <text style="stroke:none;fill:black;font-family:sans-serif;font-size:13;font-weight:bold;" transform="matrix(1 0 0 1 776 1953)">Margins</text>
  <text style="stroke:none;fill:black;font-family:sans-serif;font-size:13;" transform="matrix(1 0 0 1 776 1971)">Leading and trailing margins on the left and right side of each symbol</text>
  <text style="stroke:none;fill:black;font-family:sans-serif;font-size:13;" transform="matrix(1 0 0 1 776 1989)">can be adjusted by modifying the x-location of the margin guidelines.</text>
  <text style="stroke:none;fill:black;font-family:sans-serif;font-size:13;" transform="matrix(1 0 0 1 776 2007)">Modifications are automatically applied proportionally to all</text>
  <text style="stroke:none;fill:black;font-family:sans-serif;font-size:13;" transform="matrix(1 0 0 1 776 2025)">scales and weights.</text>
  <g transform="matrix(1 0 0 1 1289 1933)">
   <path d="M2.8418 1.86523L4.54102 3.57422Q5.18555 4.22852 5.90332 4.17969Q6.62109 4.13086 7.31445 3.35938L18.0078-8.42773L17.041-9.4043L6.42578 2.27539Q6.16211 2.57812 5.89355 2.61719Q5.625 2.65625 5.27344 2.30469L4.10156 1.14258Q3.75 0.791016 3.79395 0.522461Q3.83789 0.253906 4.14062-0.0195312L15.6152-10.8203L14.6387-11.7871L3.04688-0.898438Q2.30469-0.214844 2.25098 0.498047Q2.19727 1.21094 2.8418 1.86523ZM9.25781-16.3281Q8.94531-16.0254 8.90625-15.6348Q8.86719-15.2441 9.04297-14.9512Q9.21875-14.6777 9.55566-14.541Q9.89258-14.4043 10.3809-14.5215Q11.4746-14.7754 12.5977-14.7314Q13.7207-14.6875 14.7949-13.9844L14.209-12.5293Q13.9551-11.9043 14.0674-11.4404Q14.1797-10.9766 14.5801-10.5664L16.875-8.25195Q17.2363-7.88086 17.5781-7.82227Q17.9199-7.76367 18.3398-7.8418L19.4043-8.03711L20.0684-7.36328L20.0293-6.80664Q20-6.43555 20.1221-6.12305Q20.2441-5.81055 20.6055-5.44922L21.3672-4.70703Q21.7285-4.3457 22.1533-4.33105Q22.5781-4.31641 22.9297-4.66797L25.8398-7.58789Q26.1914-7.93945 26.1816-8.35449Q26.1719-8.76953 25.8105-9.13086L25.0391-9.89258Q24.6875-10.2539 24.3799-10.3857Q24.0723-10.5176 23.7109-10.4883L23.1348-10.4395L22.4902-11.0742L22.7344-12.1973Q22.832-12.6172 22.6953-12.9834Q22.5586-13.3496 22.1191-13.7891L19.9219-15.9766Q18.6719-17.2168 17.2607-17.8369Q15.8496-18.457 14.4189-18.4814Q12.9883-18.5059 11.665-17.959Q10.3418-17.4121 9.25781-16.3281ZM10.752-15.957Q11.6602-16.6211 12.7002-16.9043Q13.7402-17.1875 14.8047-17.085Q15.8691-16.9824 16.8701-16.5137Q17.8711-16.0449 18.7012-15.2051L21.1328-12.793Q21.3086-12.6172 21.3525-12.4512Q21.3965-12.2852 21.3379-12.0312L21.0156-10.5469L22.5195-9.0625L23.5059-9.12109Q23.6914-9.13086 23.7891-9.09668Q23.8867-9.0625 24.0332-8.91602L24.6094-8.33984L22.168-5.89844L21.5918-6.47461Q21.4453-6.62109 21.4062-6.71875Q21.3672-6.81641 21.377-7.01172L21.4453-7.98828L19.9512-9.47266L18.4277-9.21875Q18.1836-9.16992 18.042-9.2041Q17.9004-9.23828 17.7148-9.41406L15.7129-11.416Q15.5176-11.5918 15.4932-11.7529Q15.4688-11.9141 15.5859-12.1875L16.4648-14.2773Q15.293-15.3711 13.8281-15.791Q12.3633-16.2109 10.8398-15.7617Q10.7227-15.7324 10.6885-15.8057Q10.6543-15.8789 10.752-15.957Z"/>
  </g>
  <text style="stroke:none;fill:black;font-family:sans-serif;font-size:13;font-weight:bold;" transform="matrix(1 0 0 1 1289 1953)">Exporting</text>
  <text style="stroke:none;fill:black;font-family:sans-serif;font-size:13;" transform="matrix(1 0 0 1 1289 1971)">Symbols should be outlined when exporting to ensure the</text>
  <text style="stroke:none;fill:black;font-family:sans-serif;font-size:13;" transform="matrix(1 0 0 1 1289 1989)">design is preserved when submitting to Xcode.</text>
  <text id="template-version" style="stroke:none;fill:black;font-family:sans-serif;font-size:13;text-anchor:end;" transform="matrix(1 0 0 1 3036 1933)">Template v.3.0</text>
  <text style="stroke:none;fill:black;font-family:sans-serif;font-size:13;text-anchor:end;" transform="matrix(1 0 0 1 3036 1951)">Requires Xcode 13 or greater</text>
  <text id="descriptive-name" style="stroke:none;fill:black;font-family:sans-serif;font-size:13;text-anchor:end;" transform="matrix(1 0 0 1 3036 1969)">Generated from xmark.octagon.fill</text>
  <text style="stroke:none;fill:black;font-family:sans-serif;font-size:13;text-anchor:end;" transform="matrix(1 0 0 1 3036 1987)">Typeset at 100 points</text>
  <text style="stroke:none;fill:black;font-family:sans-serif;font-size:13;" transform="matrix(1 0 0 1 263 726)">Small</text>
  <text style="stroke:none;fill:black;font-family:sans-serif;font-size:13;" transform="matrix(1 0 0 1 263 1156)">Medium</text>
  <text style="stroke:none;fill:black;font-family:sans-serif;font-size:13;" transform="matrix(1 0 0 1 263 1586)">Large</text>
 </g>
 <g id="Guides">
  <g id="H-reference" style="fill:#27AAE1;stroke:none;" transform="matrix(1 0 0 1 339 696)">
   <path d="M0.993347 0L3.6377 0L29.3282-67.1326L30.0301-67.1326L30.0301-70.459L28.1227-70.459ZM11.6882-24.4797L46.9818-24.4797L46.2311-26.7288L12.4382-26.7288ZM55.1193 0L57.7637 0L30.6381-70.459L29.4327-70.459L29.4327-67.1326Z"/>
  </g>
  <line id="Baseline-S" style="fill:none;stroke:#27AAE1;opacity:1;stroke-width:0.5;" x1="263" x2="3036" y1="696" y2="696"/>
  <line id="Capline-S" style="fill:none;stroke:#27AAE1;opacity:1;stroke-width:0.5;" x1="263" x2="3036" y1="625.541" y2="625.541"/>
  <g id="H-reference" style="fill:#27AAE1;stroke:none;" transform="matrix(1 0 0 1 339 1126)">
   <path d="M0.993347 0L3.6377 0L29.3282-67.1326L30.0301-67.1326L30.0301-70.459L28.1227-70.459ZM11.6882-24.4797L46.9818-24.4797L46.2311-26.7288L12.4382-26.7288ZM55.1193 0L57.7637 0L30.6381-70.459L29.4327-70.459L29.4327-67.1326Z"/>
  </g>
  <line id="Baseline-M" style="fill:none;stroke:#27AAE1;opacity:1;stroke-width:0.5;" x1="263" x2="3036" y1="1126" y2="1126"/>
  <line id="Capline-M" style="fill:none;stroke:#27AAE1;opacity:1;stroke-width:0.5;" x1="263" x2="3036" y1="1055.54" y2="1055.54"/>
  <g id="H-reference" style="fill:#27AAE1;stroke:none;" transform="matrix(1 0 0 1 339 1556)">
   <path d="M0.993347 0L3.6377 0L29.3282-67.1326L30.0301-67.1326L30.0301-70.459L28.1227-70.459ZM11.6882-24.4797L46.9818-24.4797L46.2311-26.7288L12.4382-26.7288ZM55.1193 0L57.7637 0L30.6381-70.459L29.4327-70.459L29.4327-67.1326Z"/>
  </g>
  <line id="Baseline-L" style="fill:none;stroke:#27AAE1;opacity:1;stroke-width:0.5;" x1="263" x2="3036" y1="1556" y2="1556"/>
  <line id="Capline-L" style="fill:none;stroke:#27AAE1;opacity:1;stroke-width:0.5;" x1="263" x2="3036" y1="1485.54" y2="1485.54"/>
  <line id="left-margin-Regular-M" style="fill:none;stroke:#00AEEF;stroke-width:0.5;opacity:1.0;" x1="1388.21" x2="1388.21" y1="1030.79" y2="1150.12"/>
  <line id="right-margin-Regular-M" style="fill:none;stroke:#00AEEF;stroke-width:0.5;opacity:1.0;" x1="1511.48" x2="1511.48" y1="1030.79" y2="1150.12"/>
 </g>
 <g id="Symbols">
  <g id="Black-L" transform="matrix(1 0 0 1 2848.77 1556)">
   <path d="M64.7616 30.3078L104.476 30.3078Q108.788 30.3078 112.396 29.2751Q116.004 28.2425 119.013 26.2201Q122.021 24.1977 124.487 21.2593L146.729-4.70493Q150.541-9.18706 151.857-12.7857Q153.174-16.3843 153.174-22.2934L153.174-48.0595Q153.174-54.0256 151.857-57.6061Q150.541-61.1865 146.729-65.6674L124.487-91.6329Q122.021-94.5713 119.013-96.5931Q116.004-98.6148 112.396-99.6481Q108.788-100.681 104.476-100.681L64.7616-100.681Q60.4693-100.681 56.8609-99.6481Q53.2526-98.6148 50.2739-96.5931Q47.2952-94.5713 44.7708-91.6329L22.508-65.6674Q18.7161-61.1865 17.4001-57.6061Q16.084-54.0256 16.084-48.0595L16.084-22.2934Q16.084-16.3843 17.4001-12.7857Q18.7161-9.18706 22.508-4.70493L44.7708 21.2593Q47.2952 24.1977 50.2739 26.2201Q53.2526 28.2425 56.8609 29.2751Q60.4693 30.3078 64.7616 30.3078ZM65.569-7.71488Q62.0127-7.71488 59.5716-10.1657Q57.1305-12.6165 57.1305-16.2507Q57.1305-19.6317 59.68-22.0644L72.6051-35.048L59.68-48.0315Q57.1305-50.4642 57.1305-53.8453Q57.1305-57.4794 59.5716-59.9089Q62.0127-62.3383 65.569-62.3383Q69.3369-62.3383 71.8292-59.868L84.6181-47.0986L97.5081-59.8887Q99.9991-62.3811 103.768-62.3811Q107.345-62.3811 109.786-59.9406Q112.228-57.5001 112.228-53.8867Q112.228-50.4849 109.657-48.0523L96.7698-35.048L109.637-22.0851Q112.207-19.6732 112.207-16.2507Q112.207-12.6165 109.755-10.1657Q107.304-7.71488 103.727-7.71488Q99.8955-7.71488 97.4251-10.2072L84.6181-22.9182L71.8914-10.2072Q69.3991-7.71488 65.569-7.71488Z"/>
  </g>
  <g id="Heavy-L" transform="matrix(1 0 0 1 2553.33 1556)">
   <path d="M63.7425 29.2508L102.95 29.2508Q107.228 29.2508 110.656 28.2588Q114.084 27.2669 116.89 25.3353Q119.697 23.4036 122.077 20.616L144.489-5.19826Q148.134-9.42614 149.386-12.8354Q150.638-16.2447 150.638-21.8638L150.638-48.4078Q150.638-54.0655 149.386-57.4703Q148.134-60.8752 144.489-65.097L122.077-90.9173Q119.697-93.705 116.89-95.6336Q114.084-97.5622 110.656-98.5571Q107.228-99.5521 102.95-99.5521L63.7425-99.5521Q59.4879-99.5521 56.0599-98.5571Q52.6319-97.5622 49.8508-95.6336Q47.0696-93.705 44.645-90.9173L22.2029-65.097Q18.5821-60.8752 17.3331-57.4703Q16.084-54.0655 16.084-48.4078L16.084-21.8638Q16.084-16.2447 17.3331-12.8354Q18.5821-9.42614 22.2029-5.19826L44.645 20.616Q47.0696 23.4036 49.8508 25.3353Q52.6319 27.2669 56.0599 28.2588Q59.4879 29.2508 63.7425 29.2508ZM63.7929-7.98465Q60.6026-7.98465 58.4003-10.1988Q56.1979-12.413 56.1979-15.6717Q56.1979-18.7282 58.4837-20.9247L72.5399-35.0256L58.4837-49.1265Q56.1979-51.323 56.1979-54.3795Q56.1979-57.6382 58.4003-59.8196Q60.6026-62.001 63.7929-62.001Q67.126-62.001 69.3732-59.7897L83.343-45.8435L97.423-59.8194Q99.6641-62.0666 103.003-62.0666Q106.223-62.0666 108.426-59.8673Q110.628-57.668 110.628-54.439Q110.628-51.3527 108.313-49.1563L94.2711-35.0256L108.283-20.9545Q110.598-18.7878 110.598-15.6717Q110.598-12.413 108.381-10.1988Q106.164-7.98465 102.944-7.98465Q99.5153-7.98465 97.304-10.2318L83.343-24.1333L69.4624-10.2318Q67.2153-7.98465 63.7929-7.98465Z"/>
  </g>
  <g id="Bold-L" transform="matrix(1 0 0 1 2258.17 1556)">
   <path d="M62.6197 27.9792L100.969 27.9792Q105.273 27.9792 108.519 27.0198Q111.766 26.0604 114.349 24.2102Q116.932 22.36 119.239 19.7237L141.761-5.78177Q145.193-9.69646 146.367-12.8752Q147.542-16.0538 147.542-21.34L147.542-48.8665Q147.542-54.1676 146.367-57.3573Q145.193-60.547 141.761-64.4475L119.239-89.9671Q116.932-92.6035 114.349-94.4465Q111.766-96.2896 108.519-97.2562Q105.273-98.2227 100.969-98.2227L62.6197-98.2227Q58.3382-98.2227 55.0919-97.2562Q51.8456-96.2896 49.2839-94.4465Q46.7222-92.6035 44.3863-89.9671L21.8271-64.4475Q18.4178-60.547 17.2509-57.3573Q16.084-54.1676 16.084-48.8665L16.084-21.34Q16.084-16.0538 17.2509-12.8752Q18.4178-9.69646 21.8271-5.78177L44.3863 19.7237Q46.7222 22.36 49.2839 24.2102Q51.8456 26.0604 55.0919 27.0198Q58.3382 27.9792 62.6197 27.9792ZM61.6738-8.43321Q58.9474-8.43321 57.0525-10.3395Q55.1576-12.2458 55.1576-15.0241Q55.1576-17.6629 57.1138-19.5606L72.5361-35.0121L57.1138-50.4636Q55.1576-52.3614 55.1576-55.0001Q55.1576-57.7784 57.0525-59.6406Q58.9474-61.5028 61.6738-61.5028Q64.4658-61.5028 66.4069-59.6129L81.7871-44.2554L97.2848-59.6498Q99.2117-61.591 102.018-61.591Q104.781-61.591 106.676-59.7032Q108.571-57.8154 108.571-55.0741Q108.571-52.3983 106.578-50.5006L91.1478-35.0121L106.541-19.5976Q108.534-17.7369 108.534-15.0241Q108.534-12.2458 106.621-10.3395Q104.707-8.43321 101.944-8.43321Q99.0268-8.43321 97.1368-10.3744L81.7871-25.7026L66.5179-10.3744Q64.5767-8.43321 61.6738-8.43321Z"/>
  </g>
  <g id="Semibold-L" transform="matrix(1 0 0 1 1962.52 1556)">
   <path d="M61.8457 27.1026L99.6032 27.1026Q103.925 27.1026 107.047 26.1656Q110.168 25.2286 112.597 23.4346Q115.027 21.6405 117.283 19.1085L139.881-6.18404Q143.167-9.88281 144.287-12.9026Q145.407-15.9223 145.407-20.9789L145.407-49.1827Q145.407-54.238 144.287-57.2794Q143.167-60.3208 139.881-63.9997L117.283-89.3121Q115.027-91.8441 112.597-93.6282Q110.168-95.4123 107.047-96.3593Q103.925-97.3062 99.6032-97.3062L61.8457-97.3062Q57.5456-97.3062 54.4245-96.3593Q51.3035-95.4123 48.8931-93.6282Q46.4827-91.8441 44.2079-89.3121L21.568-63.9997Q18.3045-60.3208 17.1943-57.2794Q16.084-54.238 16.084-49.1827L16.084-20.9789Q16.084-15.9223 17.1943-12.9026Q18.3045-9.88281 21.568-6.18404L44.2079 19.1085Q46.4827 21.6405 48.8931 23.4346Q51.3035 25.2286 54.4245 26.1656Q57.5456 27.1026 61.8457 27.1026ZM60.2129-8.74245Q57.8064-8.74245 56.1234-10.4365Q54.4404-12.1305 54.4404-14.5777Q54.4404-16.9284 56.1694-18.6202L72.5334-35.0028L56.1694-51.3854Q54.4404-53.0772 54.4404-55.428Q54.4404-57.8751 56.1234-59.5172Q57.8064-61.1594 60.2129-61.1594Q62.6318-61.1594 64.362-59.491L80.7145-43.1606L97.1894-59.5329Q98.8998-61.2632 101.339-61.2632Q103.787-61.2632 105.47-59.5901Q107.153-57.9171 107.153-55.5119Q107.153-53.1192 105.382-51.4274L88.9947-35.0028L105.34-18.6622Q107.111-17.0124 107.111-14.5777Q107.111-12.1305 105.407-10.4365Q103.703-8.74245 101.255-8.74245Q98.6899-8.74245 97.0215-10.4727L80.7145-26.7845L64.488-10.4727Q62.7577-8.74245 60.2129-8.74245Z"/>
  </g>
  <g id="Medium-L" transform="matrix(1 0 0 1 1666.62 1556)">
   <path d="M61.2589 26.4379L98.5678 26.4379Q102.904 26.4379 105.93 25.5179Q108.956 24.5979 111.269 22.8464Q113.582 21.095 115.8 18.642L138.455-6.48906Q141.63-10.0241 142.709-12.9233Q143.788-15.8226 143.788-20.7051L143.788-49.4225Q143.788-54.2914 142.709-57.2203Q141.63-60.1493 138.455-63.6602L115.8-88.8154Q113.582-91.2684 111.269-93.0077Q108.956-94.7471 105.93-95.6792Q102.904-96.6113 98.5678-96.6113L61.2589-96.6113Q56.9446-96.6113 53.9185-95.6792Q50.8924-94.7471 48.5968-93.0077Q46.3011-91.2684 44.0727-88.8154L21.3715-63.6602Q18.2187-60.1493 17.1513-57.2203Q16.084-54.2914 16.084-49.4225L16.084-20.7051Q16.084-15.8226 17.1513-12.9233Q18.2187-10.0241 21.3715-6.48906L44.0727 18.642Q46.3011 21.095 48.5968 22.8464Q50.8924 24.5979 53.9185 25.5179Q56.9446 26.4379 61.2589 26.4379ZM59.1051-8.97692Q56.9412-8.97692 55.4189-10.51Q53.8966-12.0431 53.8966-14.2391Q53.8966-16.3715 55.4533-17.9072L72.5314-34.9958L55.4533-52.0843Q53.8966-53.62 53.8966-55.7524Q53.8966-57.9484 55.4189-59.4237Q56.9412-60.8989 59.1051-60.8989Q61.2412-60.8989 62.8115-59.3985L79.9012-42.3304L97.1171-59.4443Q98.6633-61.0146 100.824-61.0146Q103.033-61.0146 104.556-59.5044Q106.078-57.9942 106.078-55.8439Q106.078-53.6657 104.475-52.1301L87.3621-34.9958L104.43-17.9529Q106.032-16.463 106.032-14.2391Q106.032-12.0431 104.487-10.51Q102.942-8.97692 100.732-8.97692Q98.4345-8.97692 96.9341-10.5472L79.9012-27.6048L62.9488-10.5472Q61.3785-8.97692 59.1051-8.97692Z"/>
  </g>
  <g id="Regular-L" transform="matrix(1 0 0 1 1370.97 1556)">
   <path d="M60.4934 25.5709L97.2172 25.5709Q101.571 25.5709 104.473 24.6731Q107.375 23.7753 109.536 22.0793Q111.697 20.3834 113.865 18.0336L136.595-6.88691Q139.625-10.2084 140.651-12.9505Q141.677-15.6925 141.677-20.348L141.677-49.7352Q141.677-54.3611 140.651-57.1433Q139.625-59.9255 136.595-63.2173L113.865-88.1676Q111.697-90.5174 109.536-92.1984Q107.375-93.8795 104.473-94.7922Q101.571-95.7049 97.2172-95.7049L60.4934-95.7049Q56.1608-95.7049 53.2585-94.7922Q50.3563-93.8795 48.2103-92.1984Q46.0643-90.5174 43.8963-88.1676L21.1153-63.2173Q18.1066-59.9255 17.0953-57.1433Q16.084-54.3611 16.084-49.7352L16.084-20.348Q16.084-15.6925 17.0953-12.9505Q18.1066-10.2084 21.1153-6.88691L43.8963 18.0336Q46.0643 20.3834 48.2103 22.0793Q50.3563 23.7753 53.2585 24.6731Q56.1608 25.5709 60.4934 25.5709ZM57.6602-9.28276Q55.8127-9.28276 54.5-10.6059Q53.1873-11.9291 53.1873-13.7976Q53.1873-15.6451 54.5193-16.9771L72.5287-34.9866L54.5193-52.996Q53.1873-54.328 53.1873-56.1755Q53.1873-58.044 54.5-59.3016Q55.8127-60.5593 57.6602-60.5593Q59.4274-60.5593 60.7891-59.278L78.8404-41.2476L97.0229-59.3287Q98.3548-60.6904 100.152-60.6904Q102.05-60.6904 103.363-59.3925Q104.675-58.0947 104.675-56.2769Q104.675-54.3786 103.293-53.0467L85.2326-34.9866L103.242-17.0278Q104.625-15.7465 104.625-13.7976Q104.625-11.9291 103.287-10.6059Q101.949-9.28276 100.05-9.28276Q98.1014-9.28276 96.8201-10.6445L78.8404-28.6748L60.9411-10.6445Q59.5794-9.28276 57.6602-9.28276Z"/>
  </g>
  <g id="Light-L" transform="matrix(1 0 0 1 1075.18 1556)">
   <path d="M60.6165 24.9347L95.2676 24.9347Q100.073 24.9347 103.119 23.9446Q106.164 22.9544 108.346 21.1148Q110.527 19.2752 112.859 16.8023L135.015-7.11266Q137.86-10.2289 138.845-12.8376Q139.83-15.4462 139.83-20.0402L139.83-50.2278Q139.83-54.7715 138.845-57.4203Q137.86-60.0692 135.015-63.1352L112.859-87.1004Q110.527-89.5733 108.346-91.3878Q106.164-93.2023 103.119-94.2176Q100.073-95.2329 95.2676-95.2329L60.6165-95.2329Q55.7914-95.2329 52.7455-94.2176Q49.6996-93.2023 47.5433-91.3878Q45.3871-89.5733 43.0549-87.1004L20.869-63.1352Q18.004-60.0692 17.044-57.4203Q16.084-54.7715 16.084-50.2278L16.084-20.0402Q16.084-15.4462 17.044-12.8376Q18.004-10.2289 20.869-7.11266L43.0549 16.8023Q45.3871 19.2752 47.5433 21.1148Q49.6996 22.9544 52.7455 23.9446Q55.7914 24.9347 60.6165 24.9347ZM56.7162-10.3294Q55.2586-10.3294 54.2332-11.3447Q53.2078-12.36 53.2078-13.7976Q53.2078-15.2552 54.2935-16.3409L73.0212-35.0686L54.2935-53.7964Q53.2078-54.8821 53.2078-56.3397Q53.2078-57.7773 54.2332-58.7373Q55.2586-59.6973 56.7162-59.6973Q58.0935-59.6973 59.2294-58.6418L77.9169-39.9342L96.715-58.672Q97.8007-59.8079 99.2282-59.8079Q100.716-59.8079 101.741-58.8077Q102.767-57.8074 102.767-56.4Q102.767-54.9122 101.651-53.8265L82.8931-35.0686L101.621-16.3711Q102.737-15.3155 102.737-13.7976Q102.737-12.36 101.696-11.3447Q100.656-10.3294 99.1679-10.3294Q97.6499-10.3294 96.5944-11.4653L77.9169-30.173L59.3199-11.4653Q58.1839-10.3294 56.7162-10.3294Z"/>
  </g>
  <g id="Thin-L" transform="matrix(1 0 0 1 779.695 1556)">
   <path d="M60.7794 24.0933L92.6891 24.0933Q98.0913 24.0933 101.327 22.981Q104.563 21.8687 106.772 19.8391Q108.98 17.8095 111.529 15.1738L132.925-7.41122Q135.526-10.2561 136.457-12.6883Q137.388-15.1205 137.388-19.6331L137.388-50.8792Q137.388-55.3143 136.457-57.7868Q135.526-60.2592 132.925-63.0266L111.529-85.6891Q108.98-88.3248 106.772-90.3157Q104.563-92.3066 101.327-93.4576Q98.0913-94.6086 92.6891-94.6086L60.7794-94.6086Q55.3028-94.6086 52.0669-93.4576Q48.831-92.3066 46.6612-90.3157Q44.4914-88.3248 41.9421-85.6891L20.5433-63.0266Q17.8683-60.2592 16.9761-57.7868Q16.084-55.3143 16.084-50.8792L16.084-19.6331Q16.084-15.1205 16.9761-12.6883Q17.8683-10.2561 20.5433-7.41122L41.9421 15.1738Q44.4914 17.8095 46.6612 19.8391Q48.831 21.8687 52.0669 22.981Q55.3028 24.0933 60.7794 24.0933ZM55.4677-11.7136Q54.5258-11.7136 53.8804-12.3218Q53.235-12.93 53.235-13.7976Q53.235-14.7395 53.995-15.4995L73.6727-35.1772L53.995-54.8549Q53.235-55.6149 53.235-56.5568Q53.235-57.4244 53.8804-57.9909Q54.5258-58.5574 55.4677-58.5574Q56.3292-58.5574 57.1666-57.8004L76.6955-38.1971L96.3079-57.8034Q97.0679-58.6408 98.0068-58.6408Q98.9518-58.6408 99.5972-58.0341Q100.243-57.4274 100.243-56.5629Q100.243-55.6179 99.4796-54.8579L79.7989-35.1772L99.4766-15.5025Q100.24-14.7456 100.24-13.7976Q100.24-12.93 99.5927-12.3218Q98.9458-11.7136 98.0008-11.7136Q97.0528-11.7136 96.2958-12.551L76.6955-32.1543L57.1757-12.551Q56.3383-11.7136 55.4677-11.7136Z"/>
  </g>
  <g id="Ultralight-L" transform="matrix(1 0 0 1 483.61 1556)">
   <path d="M60.8628 23.6624L91.3685 23.6624Q97.0765 23.6624 100.41 22.4875Q103.743 21.3126 105.965 19.1857Q108.188 17.0588 110.848 14.3397L131.855-7.56414Q134.33-10.27 135.233-12.6118Q136.136-14.9537 136.136-19.4245L136.136-51.2128Q136.136-55.5924 135.233-57.9744Q134.33-60.3565 131.855-62.971L110.848-84.9662Q108.188-87.6853 105.965-89.7666Q103.743-91.8478 100.41-93.0683Q97.0765-94.2888 91.3685-94.2888L60.8628-94.2888Q55.0526-94.2888 51.7194-93.0683Q48.3862-91.8478 46.2094-89.7666Q44.0326-87.6853 41.3721-84.9662L20.3765-62.971Q17.7988-60.3565 16.9414-57.9744Q16.084-55.5924 16.084-51.2128L16.084-19.4245Q16.084-14.9537 16.9414-12.6118Q17.7988-10.27 20.3765-7.56414L41.3721 14.3397Q44.0326 17.0588 46.2094 19.1857Q48.3862 21.3126 51.7194 22.4875Q55.0526 23.6624 60.8628 23.6624ZM54.8282-12.4226Q54.1504-12.4226 53.6996-12.8223Q53.2489-13.222 53.2489-13.7976Q53.2489-14.4754 53.842-15.0686L74.0063-35.2328L53.842-55.3971Q53.2489-55.9902 53.2489-56.6681Q53.2489-57.2437 53.6996-57.6086Q54.1504-57.9735 54.8282-57.9735Q55.4256-57.9735 56.1101-57.3694L76.07-37.3074L96.0994-57.3586Q96.6925-58.043 97.3812-58.043Q98.0482-58.043 98.4989-57.6379Q98.9497-57.2328 98.9497-56.6463Q98.9497-55.9794 98.3674-55.3862L78.214-35.2328L98.3783-15.0577Q98.9606-14.4536 98.9606-13.7976Q98.9606-13.222 98.5153-12.8223Q98.0699-12.4226 97.403-12.4226Q96.747-12.4226 96.1429-13.1071L76.07-33.1692L56.0774-13.1071Q55.393-12.4226 54.8282-12.4226Z"/>
  </g>
  <g id="Black-M" transform="matrix(1 0 0 1 2866.87 1126)">
   <path d="M51.066 16.3672L81.9895 16.3672Q85.4197 16.3672 88.3898 15.5197Q91.3599 14.6722 93.8671 13.0079Q96.3743 11.3435 98.3811 8.92083L115.389-11.1874Q118.46-14.8506 119.53-17.7833Q120.6-20.7161 120.6-25.5349L120.6-44.9368Q120.6-49.813 119.53-52.7198Q118.46-55.6265 115.389-59.2901L98.3811-79.398Q96.3743-81.8207 93.8671-83.4852Q91.3599-85.1497 88.3898-85.997Q85.4197-86.8443 81.9895-86.8443L51.066-86.8443Q47.6415-86.8443 44.6715-85.997Q41.7014-85.1497 39.2226-83.4852Q36.7438-81.8207 34.6799-79.398L17.6667-59.2901Q14.6015-55.6265 13.5312-52.7198Q12.4609-49.813 12.4609-44.9368L12.4609-25.5349Q12.4609-20.7161 13.5312-17.7833Q14.6015-14.8506 17.6667-11.1874L34.6799 8.92083Q36.7438 11.3435 39.2226 13.0079Q41.7014 14.6722 44.6715 15.5197Q47.6415 16.3672 51.066 16.3672ZM52.1975-13.8227Q49.1807-13.8227 47.1232-15.8832Q45.0656-17.9436 45.0656-21.0233Q45.0656-23.8689 47.2341-25.9232L56.373-35.1192L47.2341-44.3152Q45.0656-46.3695 45.0656-49.215Q45.0656-52.2948 47.1232-54.3499Q49.1807-56.4049 52.1975-56.4049Q55.4376-56.4049 57.5487-54.2991L66.5279-45.3256L75.5749-54.3046Q77.6863-56.4157 80.9261-56.4157Q83.9484-56.4157 86.0059-54.358Q88.0635-52.3003 88.0635-49.2261Q88.0635-46.375 85.8895-44.3207L76.8021-35.1192L85.8839-25.9287Q88.0579-23.8799 88.0579-21.0233Q88.0579-17.9436 85.9977-15.8832Q83.9374-13.8227 80.915-13.8227Q77.6588-13.8227 75.5529-15.9338L66.5279-24.8501L57.5652-15.9338Q55.4541-13.8227 52.1975-13.8227Z"/>
  </g>
  <g id="Heavy-M" transform="matrix(1 0 0 1 2571.31 1126)">
   <path d="M50.0584 15.3926L80.6772 15.3926Q84.0333 15.3926 86.8137 14.5934Q89.5942 13.7942 91.902 12.2319Q94.2099 10.6695 96.1173 8.40553L113.344-11.6489Q116.27-15.0825 117.28-17.8423Q118.291-20.6022 118.291-25.1433L118.291-45.2319Q118.291-49.8141 117.28-52.5615Q116.27-55.3089 113.344-58.7401L96.1173-78.7969Q94.2099-81.0609 91.902-82.622Q89.5942-84.1831 86.8137-84.9836Q84.0333-85.784 80.6772-85.784L50.0584-85.784Q46.7162-85.784 43.9357-84.9836Q41.1553-84.1831 38.8705-82.622Q36.5857-81.0609 34.6346-78.7969L17.3912-58.7401Q14.4799-55.3089 13.4704-52.5615Q12.4609-49.8141 12.4609-45.2319L12.4609-25.1433Q12.4609-20.6022 13.4704-17.8423Q14.4799-15.0825 17.3912-11.6489L34.6346 8.40553Q36.5857 10.6695 38.8705 12.2319Q41.1553 13.7942 43.9357 14.5934Q46.7162 15.3926 50.0584 15.3926ZM50.5484-13.9899Q47.8533-13.9899 46.0027-15.8474Q44.1521-17.7049 44.1521-20.4574Q44.1521-23.0217 46.0855-24.8678L56.2638-35.0898L46.0855-45.3117Q44.1521-47.1579 44.1521-49.7221Q44.1521-52.4747 46.0027-54.3147Q47.8533-56.1547 50.5484-56.1547Q53.3993-56.1547 55.2915-54.2812L65.3666-44.2199L75.5202-54.2974Q77.41-56.1896 80.2634-56.1896Q82.9747-56.1896 84.8253-54.3403Q86.6759-52.4909 86.6759-49.7546Q86.6759-47.1741 84.7263-45.328L74.5753-35.0898L84.71-24.884Q86.6597-23.0541 86.6597-20.4574Q86.6597-17.7049 84.8009-15.8474Q82.9422-13.9899 80.2309-13.9899Q77.3288-13.9899 75.4553-15.8821L65.3666-25.8998L55.3403-15.8821Q53.4481-13.9899 50.5484-13.9899Z"/>
  </g>
  <g id="Bold-M" transform="matrix(1 0 0 1 2275.89 1126)">
   <path d="M48.9313 14.3024L79.2093 14.3024Q82.4823 14.3024 85.0506 13.5572Q87.619 12.812 89.7038 11.3638Q91.7886 9.91557 93.585 7.82909L111.058-12.1651Q113.819-15.3418 114.764-17.9083Q115.708-20.4749 115.708-24.7052L115.708-45.5619Q115.708-49.8153 114.764-52.3845Q113.819-54.9536 111.058-58.1248L93.585-78.1245Q91.7886-80.211 89.7038-81.6564Q87.619-83.1019 85.0506-83.8498Q82.4823-84.5978 79.2093-84.5978L48.9313-84.5978Q45.6811-84.5978 43.1127-83.8498Q40.5444-83.1019 38.4766-81.6564Q36.4088-80.211 34.5838-78.1245L17.083-58.1248Q14.3439-54.9536 13.4024-52.3845Q12.4609-49.8153 12.4609-45.5619L12.4609-24.7052Q12.4609-20.4749 13.4024-17.9083Q14.3439-15.3418 17.083-12.1651L34.5838 7.82909Q36.4088 9.91557 38.4766 11.3638Q40.5444 12.812 43.1127 13.5572Q45.6811 14.3024 48.9313 14.3024ZM48.7036-14.1769Q46.3684-14.1769 44.7493-15.8074Q43.1302-17.4378 43.1302-19.8243Q43.1302-22.0739 44.8006-23.6872L56.1417-35.0568L44.8006-46.4265Q43.1302-48.0398 43.1302-50.2894Q43.1302-52.6759 44.7493-54.2753Q46.3684-55.8748 48.7036-55.8748Q51.1193-55.8748 52.7666-54.2612L64.0676-42.983L75.459-54.2895Q77.1008-55.9368 79.522-55.9368Q81.8855-55.9368 83.5046-54.3205Q85.1237-52.7041 85.1237-50.3459Q85.1237-48.068 83.4251-46.4548L72.0843-35.0568L83.3969-23.7154Q85.0955-22.1304 85.0955-19.8243Q85.0955-17.4378 83.4622-15.8074Q81.829-14.1769 79.4655-14.1769Q76.9597-14.1769 75.3461-15.8242L64.0676-27.0739L52.8514-15.8242Q51.204-14.1769 48.7036-14.1769Z"/>
  </g>
  <g id="Semibold-M" transform="matrix(1 0 0 1 1980.07 1126)">
   <path d="M48.1543 13.5508L78.1974 13.5508Q81.4131 13.5508 83.8352 12.8428Q86.2573 12.1349 88.1884 10.7653Q90.1194 9.3958 91.8393 7.4317L109.481-12.5209Q112.13-15.5206 113.029-17.9538Q113.927-20.3871 113.927-24.4033L113.927-45.7895Q113.927-49.8162 113.029-52.2624Q112.13-54.7087 109.481-57.7007L91.8393-77.6609Q90.1194-79.625 88.1884-80.9907Q86.2573-82.3565 83.8352-83.0683Q81.4131-83.7801 78.1974-83.7801L48.1543-83.7801Q44.9675-83.7801 42.5453-83.0683Q40.1232-82.3565 38.205-80.9907Q36.2869-79.625 34.5489-77.6609L16.8705-57.7007Q14.2502-54.7087 13.3556-52.2624Q12.4609-49.8162 12.4609-45.7895L12.4609-24.4033Q12.4609-20.3871 13.3556-17.9538Q14.2502-15.5206 16.8705-12.5209L34.5489 7.4317Q36.2869 9.3958 38.205 10.7653Q40.1232 12.1349 42.5453 12.8428Q44.9675 13.5508 48.1543 13.5508ZM47.4319-14.3058Q45.3448-14.3058 43.8852-15.7798Q42.4257-17.2537 42.4257-19.3879Q42.4257-21.4205 43.9148-22.8732L56.0575-35.0342L43.9148-47.1951Q42.4257-48.6478 42.4257-50.6804Q42.4257-52.8146 43.8852-54.2482Q45.3448-55.6818 47.4319-55.6818Q49.5474-55.6818 51.026-54.2475L63.172-42.1303L75.4168-54.284Q76.8877-55.7625 79.0109-55.7625Q81.1346-55.7625 82.5941-54.3068Q84.0536-52.8511 84.0536-50.7535Q84.0536-48.6843 82.5281-47.2316L70.367-35.0342L82.4916-22.9098Q84.0171-21.4935 84.0171-19.3879Q84.0171-17.2537 82.5393-15.7798Q81.0615-14.3058 78.9379-14.3058Q76.7052-14.3058 75.2708-15.7843L63.172-27.8833L51.1355-15.7843Q49.657-14.3058 47.4319-14.3058Z"/>
  </g>
  <g id="Medium-M" transform="matrix(1 0 0 1 1684.04 1126)">
   <path d="M47.5651 12.981L77.4301 12.981Q80.6023 12.981 82.9136 12.3012Q85.2248 11.6214 87.0393 10.3116Q88.8538 9.0017 90.5156 7.13038L108.286-12.7907Q110.85-15.6561 111.713-17.9883Q112.577-20.3205 112.577-24.1743L112.577-45.962Q112.577-49.8168 111.713-52.1699Q110.85-54.5229 108.286-57.3791L90.5156-77.3094Q88.8538-79.1808 87.0393-80.486Q85.2248-81.7912 82.9136-82.4756Q80.6023-83.16 77.4301-83.16L47.5651-83.16Q44.4264-83.16 42.1151-82.4756Q39.8039-81.7912 37.9992-80.486Q36.1944-79.1808 34.5224-77.3094L16.7094-57.3791Q14.1791-54.5229 13.32-52.1699Q12.4609-49.8168 12.4609-45.962L12.4609-24.1743Q12.4609-20.3205 13.32-17.9883Q14.1791-15.6561 16.7094-12.7907L34.5224 7.13038Q36.1944 9.0017 37.9992 10.3116Q39.8039 11.6214 42.1151 12.3012Q44.4264 12.981 47.5651 12.981ZM46.4676-14.4036Q44.5686-14.4036 43.23-15.7589Q41.8915-17.1142 41.8915-19.0569Q41.8915-20.9251 43.2431-22.2561L55.9937-35.0169L43.2431-47.7778Q41.8915-49.1088 41.8915-50.977Q41.8915-52.9197 43.23-54.2276Q44.5686-55.5355 46.4676-55.5355Q48.3556-55.5355 49.7062-54.237L62.493-41.4837L75.3848-54.2798Q76.7261-55.6303 78.6234-55.6303Q80.5652-55.6303 81.9037-54.2964Q83.2423-52.9625 83.2423-51.0625Q83.2423-49.1516 81.8479-47.8206L69.0648-35.0169L81.8051-22.2989Q83.1995-21.0106 83.1995-19.0569Q83.1995-17.1142 81.8396-15.7589Q80.4796-14.4036 78.5379-14.4036Q76.5122-14.4036 75.2137-15.7541L62.493-28.4971L49.8345-15.7541Q48.4839-14.4036 46.4676-14.4036Z"/>
  </g>
  <g id="Regular-M" transform="matrix(1 0 0 1 1388.21 1126)">
   <path d="M46.7966 12.2377L76.4292 12.2377Q79.5448 12.2377 81.7115 11.5947Q83.8781 10.9518 85.5405 9.7197Q87.2029 8.48765 88.789 6.73735L106.727-13.1427Q109.179-15.8329 109.997-18.0333Q110.816-20.2337 110.816-23.8756L110.816-46.187Q110.816-49.8176 109.997-52.0492Q109.179-54.2807 106.727-56.9596L88.789-76.851Q87.2029-78.6013 85.5405-79.8276Q83.8781-81.054 81.7115-81.7026Q79.5448-82.3513 76.4292-82.3513L46.7966-82.3513Q43.7206-82.3513 41.554-81.7026Q39.3873-81.054 37.7306-79.8276Q36.0738-78.6013 34.4878-76.851L16.4992-56.9596Q14.0864-54.2807 13.2737-52.0492Q12.4609-49.8176 12.4609-46.187L12.4609-23.8756Q12.4609-20.2337 13.2737-18.0333Q14.0864-15.8329 16.4992-13.1427L34.4878 6.73735Q36.0738 8.48765 37.7306 9.7197Q39.3873 10.9518 41.554 11.5947Q43.7206 12.2377 46.7966 12.2377ZM45.2098-14.5311Q43.5562-14.5311 42.3755-15.7316Q41.1947-16.9321 41.1947-18.6253Q41.1947-20.2789 42.367-21.4511L55.9104-34.9945L42.367-48.5379Q41.1947-49.7101 41.1947-51.3637Q41.1947-53.0569 42.3755-54.2008Q43.5562-55.3447 45.2098-55.3447Q46.801-55.3447 47.9846-54.2234L61.6072-40.6404L75.3431-54.2744Q76.5154-55.458 78.118-55.458Q79.8225-55.458 81.0032-54.2829Q82.184-53.1079 82.184-51.4656Q82.184-49.7611 80.9607-48.5888L67.3664-34.9945L80.9098-21.5021Q82.133-20.3808 82.133-18.6253Q82.133-16.9321 80.9268-15.7316Q79.7206-14.5311 78.0161-14.5311Q76.2606-14.5311 75.1393-15.7147L61.6072-29.2976L48.1375-15.7147Q46.9539-14.5311 45.2098-14.5311Z"/>
  </g>
  <g id="Light-M" transform="matrix(1 0 0 1 1092.33 1126)">
   <path d="M46.907 11.6673L74.6813 11.6673Q78.2017 11.6673 80.4971 10.9415Q82.7925 10.2158 84.4734 8.85495Q86.1542 7.4941 87.8875 5.63341L105.31-13.3451Q107.597-15.8513 108.378-17.9321Q109.16-20.0129 109.16-23.5996L109.16-46.6286Q109.16-50.1856 108.378-52.2975Q107.597-54.4095 105.31-56.886L87.8875-75.8942Q86.1542-77.7549 84.4734-79.1009Q82.7925-80.4469 80.4971-81.1875Q78.2017-81.9281 74.6813-81.9281L46.907-81.9281Q43.3894-81.9281 41.094-81.1875Q38.7986-80.4469 37.1326-79.1009Q35.4667-77.7549 33.7334-75.8942L16.2784-56.886Q13.9944-54.4095 13.2277-52.2975Q12.4609-50.1856 12.4609-46.6286L12.4609-23.5996Q12.4609-20.0129 13.2277-17.9321Q13.9944-15.8513 16.2784-13.3451L33.7334 5.63341Q35.4667 7.4941 37.1326 8.85495Q38.7986 10.2158 41.094 10.9415Q43.3894 11.6673 46.907 11.6673ZM44.3634-15.4694Q43.0594-15.4694 42.1363-16.3939Q41.2131-17.3185 41.2131-18.6253Q41.2131-19.9293 42.1646-20.8808L56.3519-35.0681L42.1646-49.2554Q41.2131-50.2069 41.2131-51.5109Q41.2131-52.8177 42.1363-53.6948Q43.0594-54.5719 44.3634-54.5719Q45.6051-54.5719 46.5863-53.653L60.7793-39.4629L75.0671-53.6856Q76.0186-54.6668 77.29-54.6668Q78.6266-54.6668 79.5497-53.7585Q80.4728-52.8503 80.4728-51.576Q80.4728-50.2395 79.4888-49.288L65.2689-35.0681L79.4563-20.9133Q80.4403-19.9944 80.4403-18.6253Q80.4403-17.3185 79.5009-16.3939Q78.5615-15.4694 77.2249-15.4694Q75.8558-15.4694 74.9369-16.4506L60.7793-30.6408L46.684-16.4506Q45.7028-15.4694 44.3634-15.4694Z"/>
  </g>
  <g id="Thin-M" transform="matrix(1 0 0 1 796.712 1126)">
   <path d="M47.053 10.9129L72.3696 10.9129Q76.4253 10.9129 78.8911 10.0777Q81.3568 9.24243 83.062 7.71124Q84.7671 6.18006 86.6951 4.17336L103.436-13.6127Q105.504-15.8757 106.237-17.7983Q106.97-19.7209 106.97-23.2346L106.97-47.2126Q106.97-50.6723 106.237-52.6261Q105.504-54.5798 103.436-56.7887L86.6951-74.6288Q84.7671-76.6355 83.062-78.1397Q81.3568-79.6438 78.8911-80.5061Q76.4253-81.3684 72.3696-81.3684L47.053-81.3684Q42.9514-81.3684 40.4856-80.5061Q38.0199-79.6438 36.3418-78.1397Q34.6637-76.6355 32.7357-74.6288L15.9864-56.7887Q13.8728-54.5798 13.1669-52.6261Q12.4609-50.6723 12.4609-47.2126L12.4609-23.2346Q12.4609-19.7209 13.1669-17.7983Q13.8728-15.8757 15.9864-13.6127L32.7357 4.17336Q34.6637 6.18006 36.3418 7.71124Q38.0199 9.24243 40.4856 10.0777Q42.9514 10.9129 47.053 10.9129ZM43.244-16.7104Q42.4024-16.7104 41.8199-17.27Q41.2375-17.8295 41.2375-18.6253Q41.2375-19.4669 41.8969-20.1264L56.936-35.1654L41.8969-50.2045Q41.2375-50.8639 41.2375-51.7056Q41.2375-52.5014 41.8199-53.0256Q42.4024-53.5499 43.244-53.5499Q44.0234-53.5499 44.7369-52.8987L59.6842-37.9055L74.7021-52.9069Q75.3616-53.6204 76.195-53.6204Q77.0449-53.6204 77.6273-53.065Q78.2098-52.5096 78.2098-51.722Q78.2098-50.8722 77.5421-50.2127L62.4948-35.1654L77.5339-20.1346Q78.2015-19.4834 78.2015-18.6253Q78.2015-17.8295 77.615-17.27Q77.0284-16.7104 76.1785-16.7104Q75.3204-16.7104 74.6692-17.424L59.6842-32.4172L44.7616-17.424Q44.0481-16.7104 43.244-16.7104Z"/>
  </g>
  <g id="Ultralight-M" transform="matrix(1 0 0 1 500.564 1126)">
   <path d="M47.1278 10.5265L71.1855 10.5265Q75.5155 10.5265 78.0685 9.63521Q80.6215 8.74387 82.3391 7.12544Q84.0567 5.50701 86.0843 3.42553L102.476-13.7498Q104.432-15.8881 105.14-17.7297Q105.848-19.5713 105.848-23.0477L105.848-47.5118Q105.848-50.9216 105.14-52.7943Q104.432-54.6671 102.476-56.7388L86.0843-73.9807Q84.0567-76.0622 82.3391-77.6474Q80.6215-79.2325 78.0685-80.1571Q75.5155-81.0817 71.1855-81.0817L47.1278-81.0817Q42.727-81.0817 40.174-80.1571Q37.621-79.2325 35.9367-77.6474Q34.2523-76.0622 32.2247-73.9807L15.8368-56.7388Q13.8105-54.6671 13.1357-52.7943Q12.4609-50.9216 12.4609-47.5118L12.4609-23.0477Q12.4609-19.5713 13.1357-17.7297Q13.8105-15.8881 15.8368-13.7498L32.2247 3.42553Q34.2523 5.50701 35.9367 7.12544Q37.621 8.74387 40.174 9.63521Q42.727 10.5265 47.1278 10.5265ZM42.6707-17.3461Q42.0659-17.3461 41.6579-17.7187Q41.2499-18.0912 41.2499-18.6253Q41.2499-19.2301 41.7598-19.74L57.2351-35.2153L41.7598-50.6906Q41.2499-51.2005 41.2499-51.8053Q41.2499-52.3393 41.6579-52.6829Q42.0659-53.0264 42.6707-53.0264Q43.2132-53.0264 43.7897-52.5123L59.1234-37.1078L74.5151-52.508Q75.025-53.0845 75.6341-53.0845Q76.2347-53.0845 76.6427-52.7098Q77.0506-52.3351 77.0506-51.7968Q77.0506-51.1962 76.545-50.6863L61.0739-35.2153L76.5492-19.7358Q77.0549-19.2217 77.0549-18.6253Q77.0549-18.0912 76.649-17.7187Q76.2432-17.3461 75.6426-17.3461Q75.0462-17.3461 74.5321-17.9225L59.1234-33.327L43.7769-17.9225Q43.2005-17.3461 42.6707-17.3461Z"/>
  </g>
  <g id="Black-S" transform="matrix(1 0 0 1 2880.96 696)">
   <path d="M40.332 5.46875L64.5508 5.46875Q67.2852 5.46875 69.6777 4.78516Q72.0703 4.10156 74.0967 2.75879Q76.123 1.41602 77.7344-0.537109L90.9668-16.2598Q93.4082-19.1895 94.2627-21.5332Q95.1172-23.877 95.1172-27.7344L95.1172-42.7734Q95.1172-46.6797 94.2627-48.999Q93.4082-51.3184 90.9668-54.248L77.7344-69.9707Q76.123-71.9238 74.0967-73.2666Q72.0703-74.6094 69.6777-75.293Q67.2852-75.9766 64.5508-75.9766L40.332-75.9766Q37.5977-75.9766 35.2051-75.293Q32.8125-74.6094 30.8105-73.2666Q28.8086-71.9238 27.1484-69.9707L13.916-54.248Q11.4746-51.3184 10.6201-48.999Q9.76562-46.6797 9.76562-42.7734L9.76562-27.7344Q9.76562-23.877 10.6201-21.5332Q11.4746-19.1895 13.916-16.2598L27.1484-0.537109Q28.8086 1.41602 30.8105 2.75879Q32.8125 4.10156 35.2051 4.78516Q37.5977 5.46875 40.332 5.46875ZM41.3574-18.457Q38.916-18.457 37.2559-20.1172Q35.5957-21.7773 35.5957-24.2676Q35.5957-26.5625 37.3535-28.2227L44.2383-35.1562L37.3535-42.0898Q35.5957-43.75 35.5957-46.0449Q35.5957-48.5352 37.2559-50.1953Q38.916-51.8555 41.3574-51.8555Q43.9941-51.8555 45.7031-50.1465L52.4414-43.4082L59.2285-50.1465Q60.9375-51.8555 63.5742-51.8555Q66.0156-51.8555 67.6758-50.1953Q69.3359-48.5352 69.3359-46.0449Q69.3359-43.75 67.5781-42.0898L60.7422-35.1562L67.5781-28.2227Q69.3359-26.5625 69.3359-24.2676Q69.3359-21.7773 67.6758-20.1172Q66.0156-18.457 63.5742-18.457Q60.9375-18.457 59.2285-20.166L52.4414-26.8555L45.7031-20.166Q43.9941-18.457 41.3574-18.457Z"/>
  </g>
  <g id="Heavy-S" transform="matrix(1 0 0 1 2585.13 696)">
   <path d="M39.4562 4.70814L63.6519 4.70814Q66.271 4.70814 68.485 4.0764Q70.6989 3.44467 72.5524 2.20561Q74.4059 0.966561 75.9135-0.836745L89.3995-16.6285Q91.7372-19.3854 92.5455-21.5966Q93.3539-23.8078 93.3539-27.4347L93.3539-42.9694Q93.3539-46.6336 92.5455-48.8319Q91.7372-51.0302 89.3995-53.7871L75.9135-69.5789Q74.4059-71.3822 72.5524-72.6212Q70.6989-73.8603 68.485-74.492Q66.271-75.1238 63.6519-75.1238L39.4562-75.1238Q36.8486-75.1238 34.6346-74.492Q32.4207-73.8603 30.5858-72.6212Q28.751-71.3822 27.2061-69.5789L13.7086-53.7871Q11.3824-51.0302 10.574-48.8319Q9.76562-46.6336 9.76562-42.9694L9.76562-27.4347Q9.76562-23.8078 10.574-21.5966Q11.3824-19.3854 13.7086-16.6285L27.2061-0.836745Q28.751 0.966561 30.5858 2.20561Q32.4207 3.44467 34.6346 4.0764Q36.8486 4.70814 39.4562 4.70814ZM40.0552-18.4801Q37.8442-18.4801 36.3281-20.0019Q34.812-21.5238 34.812-23.7836Q34.812-25.8826 36.397-27.3929L44.0885-35.1217L36.397-42.8505Q34.812-44.3608 34.812-46.4598Q34.812-48.7195 36.3281-50.2299Q37.8442-51.7402 40.0552-51.7402Q42.4038-51.7402 43.9514-50.2041L51.554-42.613L59.217-50.2156Q60.7646-51.7633 63.1132-51.7633Q65.3357-51.7633 66.8518-50.2472Q68.3679-48.7311 68.3679-46.4829Q68.3679-44.3723 66.7714-42.862L59.1057-35.1217L66.7599-27.4044Q68.3564-25.9056 68.3564-23.7836Q68.3564-21.5238 66.8345-20.0019Q65.3126-18.4801 63.0902-18.4801Q60.707-18.4801 59.1709-20.0277L51.554-27.5815L43.986-20.0277Q42.4383-18.4801 40.0552-18.4801Z"/>
  </g>
  <g id="Bold-S" transform="matrix(1 0 0 1 2289.4 696)">
   <path d="M38.4766 3.85742L62.6465 3.85742Q65.1367 3.85742 67.1509 3.28369Q69.165 2.70996 70.8252 1.58691Q72.4854 0.463867 73.877-1.17188L87.6465-17.041Q89.8682-19.6045 90.625-21.6675Q91.3818-23.7305 91.3818-27.0996L91.3818-43.1885Q91.3818-46.582 90.625-48.645Q89.8682-50.708 87.6465-53.2715L73.877-69.1406Q72.4854-70.7764 70.8252-71.8994Q69.165-73.0225 67.1509-73.5962Q65.1367-74.1699 62.6465-74.1699L38.4766-74.1699Q36.0107-74.1699 33.9966-73.5962Q31.9824-73.0225 30.3345-71.8994Q28.6865-70.7764 27.2705-69.1406L13.4766-53.2715Q11.2793-50.708 10.5225-48.645Q9.76562-46.582 9.76562-43.1885L9.76562-27.0996Q9.76562-23.7305 10.5225-21.6675Q11.2793-19.6045 13.4766-17.041L27.2705-1.17188Q28.6865 0.463867 30.3345 1.58691Q31.9824 2.70996 33.9966 3.28369Q36.0107 3.85742 38.4766 3.85742ZM38.5986-18.5059Q36.6455-18.5059 35.2905-19.873Q33.9355-21.2402 33.9355-23.2422Q33.9355-25.1221 35.3271-26.4648L43.9209-35.083L35.3271-43.7012Q33.9355-45.0439 33.9355-46.9238Q33.9355-48.9258 35.2905-50.2686Q36.6455-51.6113 38.5986-51.6113Q40.625-51.6113 41.9922-50.2686L50.5615-41.7236L59.2041-50.293Q60.5713-51.6602 62.5977-51.6602Q64.5752-51.6602 65.9302-50.3052Q67.2852-48.9502 67.2852-46.9727Q67.2852-45.0684 65.8691-43.7256L57.2754-35.083L65.8447-26.4893Q67.2607-25.1709 67.2607-23.2422Q67.2607-21.2402 65.8936-19.873Q64.5264-18.5059 62.5488-18.5059Q60.4492-18.5059 59.1064-19.873L50.5615-28.3936L42.0654-19.873Q40.6982-18.5059 38.5986-18.5059Z"/>
  </g>
  <g id="Semibold-S" transform="matrix(1 0 0 1 1993.37 696)">
   <path d="M37.8012 3.2709L61.9533 3.2709Q64.3547 3.2709 66.2311 2.73716Q68.1075 2.20342 69.6344 1.16035Q71.1612 0.117285 72.4729-1.40293L86.4379-17.3254Q88.5796-19.7556 89.3009-21.7164Q90.0222-23.6771 90.0222-26.8686L90.0222-43.3396Q90.0222-46.5465 89.3009-48.5162Q88.5796-50.4858 86.4379-52.916L72.4729-68.8385Q71.1612-70.3587 69.6344-71.4018Q68.1075-72.4448 66.2311-72.9786Q64.3547-73.5123 61.9533-73.5123L37.8012-73.5123Q35.4331-73.5123 33.5567-72.9786Q31.6803-72.4448 30.1612-71.4018Q28.6421-70.3587 27.3149-68.8385L13.3166-52.916Q11.2082-50.4858 10.4869-48.5162Q9.76562-46.5465 9.76562-43.3396L9.76562-26.8686Q9.76562-23.6771 10.4869-21.7164Q11.2082-19.7556 13.3166-17.3254L27.3149-1.40293Q28.6421 0.117285 30.1612 1.16035Q31.6803 2.20342 33.5567 2.73716Q35.4331 3.2709 37.8012 3.2709ZM37.5944-18.5236Q35.819-18.5236 34.5751-19.7842Q33.3312-21.0447 33.3312-22.8689Q33.3312-24.5978 34.5896-25.825L43.8054-35.0563L34.5896-44.2877Q33.3312-45.5149 33.3312-47.2437Q33.3312-49.068 34.5751-50.2952Q35.819-51.5225 37.5944-51.5225Q39.3986-51.5225 40.6414-50.313L49.8772-41.1104L59.1952-50.3463Q60.438-51.5891 62.2422-51.5891Q64.0509-51.5891 65.2948-50.3452Q66.5387-49.1013 66.5387-47.3104Q66.5387-45.5482 65.2471-44.321L56.0135-35.0563L65.2138-25.8583Q66.5054-24.6644 66.5054-22.8689Q66.5054-21.0447 65.2448-19.7842Q63.9843-18.5236 62.1756-18.5236Q60.2715-18.5236 59.062-19.7664L49.8772-28.9534L40.7413-19.7664Q39.4985-18.5236 37.5944-18.5236Z"/>
  </g>
  <g id="Medium-S" transform="matrix(1 0 0 1 1697.18 696)">
   <path d="M37.2891 2.82617L61.4277 2.82617Q63.7617 2.82617 65.5337 2.32275Q67.3057 1.81934 68.7314 0.836914Q70.1572-0.145508 71.4082-1.57812L85.5215-17.541Q87.6025-19.8701 88.2969-21.7534Q88.9912-23.6367 88.9912-26.6934L88.9912-43.4541Q88.9912-46.5195 88.2969-48.4185Q87.6025-50.3174 85.5215-52.6465L71.4082-68.6094Q70.1572-70.042 68.7314-71.0244Q67.3057-72.0068 65.5337-72.5103Q63.7617-73.0137 61.4277-73.0137L37.2891-73.0137Q34.9951-73.0137 33.2231-72.5103Q31.4512-72.0068 30.0298-71.0244Q28.6084-70.042 27.3486-68.6094L13.1953-52.6465Q11.1543-50.3174 10.46-48.4185Q9.76562-46.5195 9.76562-43.4541L9.76562-26.6934Q9.76562-23.6367 10.46-21.7534Q11.1543-19.8701 13.1953-17.541L27.3486-1.57812Q28.6084-0.145508 30.0298 0.836914Q31.4512 1.81934 33.2231 2.32275Q34.9951 2.82617 37.2891 2.82617ZM36.833-18.5371Q35.1924-18.5371 34.0327-19.7168Q32.873-20.8965 32.873-22.5859Q32.873-24.2002 34.0303-25.3398L43.7178-35.0361L34.0303-44.7324Q32.873-45.8721 32.873-47.4863Q32.873-49.1758 34.0327-50.3154Q35.1924-51.4551 36.833-51.4551Q38.4688-51.4551 39.6172-50.3467L49.3584-40.6455L59.1885-50.3867Q60.3369-51.5352 61.9727-51.5352Q63.6533-51.5352 64.813-50.3755Q65.9727-49.2158 65.9727-47.5664Q65.9727-45.9121 64.7754-44.7725L55.0566-35.0361L64.7354-25.3799Q65.9326-24.2803 65.9326-22.5859Q65.9326-20.8965 64.7529-19.7168Q63.5732-18.5371 61.8926-18.5371Q60.1367-18.5371 59.0283-19.6855L49.3584-29.3779L39.7373-19.6855Q38.5889-18.5371 36.833-18.5371Z"/>
  </g>
  <g id="Regular-S" transform="matrix(1 0 0 1 1401.14 696)">
   <path d="M36.6211 2.24609L60.7422 2.24609Q62.9883 2.24609 64.624 1.78223Q66.2598 1.31836 67.5537 0.415039Q68.8477-0.488281 70.0195-1.80664L84.3262-17.8223Q86.3281-20.0195 86.9873-21.8018Q87.6465-23.584 87.6465-26.4648L87.6465-43.6035Q87.6465-46.4844 86.9873-48.291Q86.3281-50.0977 84.3262-52.2949L70.0195-68.3105Q68.8477-69.6289 67.5537-70.5322Q66.2598-71.4355 64.624-71.8994Q62.9883-72.3633 60.7422-72.3633L36.6211-72.3633Q34.4238-72.3633 32.7881-71.8994Q31.1523-71.4355 29.8584-70.5322Q28.5645-69.6289 27.3926-68.3105L13.0371-52.2949Q11.084-50.0977 10.4248-48.291Q9.76562-46.4844 9.76562-43.6035L9.76562-26.4648Q9.76562-23.584 10.4248-21.8018Q11.084-20.0195 13.0371-17.8223L27.3926-1.80664Q28.5645-0.488281 29.8584 0.415039Q31.1523 1.31836 32.7881 1.78223Q34.4238 2.24609 36.6211 2.24609ZM35.8398-18.5547Q34.375-18.5547 33.3252-19.6289Q32.2754-20.7031 32.2754-22.2168Q32.2754-23.6816 33.3008-24.707L43.6035-35.0098L33.3008-45.3125Q32.2754-46.3379 32.2754-47.8027Q32.2754-49.3164 33.3252-50.3418Q34.375-51.3672 35.8398-51.3672Q37.2559-51.3672 38.2812-50.3906L48.6816-40.0391L59.1797-50.4395Q60.2051-51.4648 61.6211-51.4648Q63.1348-51.4648 64.1846-50.415Q65.2344-49.3652 65.2344-47.9004Q65.2344-46.3867 64.1602-45.3613L53.8086-35.0098L64.1113-24.7559Q65.1855-23.7793 65.1855-22.2168Q65.1855-20.7031 64.1113-19.6289Q63.0371-18.5547 61.5234-18.5547Q59.9609-18.5547 58.9844-19.5801L48.6816-29.9316L38.4277-19.5801Q37.4023-18.5547 35.8398-18.5547Z"/>
  </g>
  <g id="Light-S" transform="matrix(1 0 0 1 1105.16 696)">
   <path d="M36.7188 1.74154L59.196 1.74154Q61.8001 1.74154 63.5498 1.20443Q65.2995 0.667318 66.6097-0.349935Q67.9199-1.36719 69.222-2.7832L83.0729-18.0013Q84.9284-20.0358 85.555-21.7122Q86.1816-23.3887 86.1816-26.2207L86.1816-43.9941Q86.1816-46.8099 85.555-48.5107Q84.9284-50.2116 83.0729-52.2298L69.222-67.4642Q67.9199-68.8802 66.6097-69.8893Q65.2995-70.8984 63.5498-71.4437Q61.8001-71.9889 59.196-71.9889L36.7188-71.9889Q34.1309-71.9889 32.3812-71.4437Q30.6315-70.8984 29.3294-69.8893Q28.0273-68.8802 26.7253-67.4642L12.8418-52.2298Q11.0026-50.2116 10.3841-48.5107Q9.76562-46.8099 9.76562-43.9941L9.76562-26.2207Q9.76562-23.3887 10.3841-21.7122Q11.0026-20.0358 12.8418-18.0013L26.7253-2.7832Q28.0273-1.36719 29.3294-0.349935Q30.6315 0.667318 32.3812 1.20443Q34.1309 1.74154 36.7188 1.74154ZM35.0911-19.3848Q33.9355-19.3848 33.1136-20.2148Q32.2917-21.0449 32.2917-22.2168Q32.2917-23.3724 33.1217-24.2025L43.9941-35.0749L33.1217-45.9473Q32.2917-46.7773 32.2917-47.9329Q32.2917-49.1048 33.1136-49.8942Q33.9355-50.6836 35.0911-50.6836Q36.1979-50.6836 37.0443-49.8861L47.9492-38.9974L58.9355-49.9186Q59.7656-50.765 60.8887-50.765Q62.0768-50.765 62.8988-49.9512Q63.7207-49.1374 63.7207-47.998Q63.7207-46.8099 62.8581-45.9798L51.9531-35.0749L62.8255-24.235Q63.6882-23.4375 63.6882-22.2168Q63.6882-21.0449 62.8499-20.2148Q62.0117-19.3848 60.8236-19.3848Q59.6029-19.3848 58.8053-20.2311L47.9492-31.1198L37.1419-20.2311Q36.2956-19.3848 35.0911-19.3848Z"/>
  </g>
  <g id="Thin-S" transform="matrix(1 0 0 1 809.421 696)">
   <path d="M36.8479 1.07422L57.151 1.07422Q60.2287 1.07422 62.1291 0.440241Q64.0294-0.193737 65.3612-1.36167Q66.6929-2.52961 68.1672-4.07479L81.4154-18.2381Q83.0771-20.0573 83.6607-21.5938Q84.2443-23.1304 84.2443-25.8978L84.2443-44.5108Q84.2443-47.2404 83.6607-48.8013Q83.0771-50.3623 81.4154-52.1437L68.1672-66.3448Q66.6929-67.89 65.3612-69.039Q64.0294-70.1881 62.1291-70.8409Q60.2287-71.4938 57.151-71.4938L36.8479-71.4938Q33.7434-71.4938 31.843-70.8409Q29.9427-70.1881 28.6298-69.039Q27.317-67.89 25.8427-66.3448L12.5835-52.1437Q10.895-50.3623 10.3303-48.8013Q9.76562-47.2404 9.76562-44.5108L9.76562-25.8978Q9.76562-23.1304 10.3303-21.5938Q10.895-20.0573 12.5835-18.2381L25.8427-4.07479Q27.317-2.52961 28.6298-1.36167Q29.9427-0.193737 31.843 0.440241Q33.7434 1.07422 36.8479 1.07422ZM34.1009-20.4826Q33.3543-20.4826 32.8338-20.9898Q32.3132-21.497 32.3132-22.2168Q32.3132-22.9634 32.885-23.5352L44.5108-35.161L32.885-46.7868Q32.3132-47.3586 32.3132-48.1052Q32.3132-48.825 32.8338-49.3022Q33.3543-49.7795 34.1009-49.7795Q34.7987-49.7795 35.4083-49.2188L46.9805-37.6197L58.6127-49.2298Q59.1844-49.8393 59.92-49.8393Q60.6776-49.8393 61.1982-49.3377Q61.7188-48.836 61.7188-48.1272Q61.7188-47.3696 61.136-46.7978L49.4991-35.161L61.1249-23.5462Q61.7077-22.9854 61.7077-22.2168Q61.7077-21.497 61.1816-20.9898Q60.6556-20.4826 59.8979-20.4826Q59.1293-20.4826 58.5685-21.0922L46.9805-32.6912L35.4413-21.0922Q34.8318-20.4826 34.1009-20.4826Z"/>
  </g>
  <g id="Ultralight-S" transform="matrix(1 0 0 1 513.207 696)">
   <path d="M36.9141 0.732422L56.1035 0.732422Q59.4238 0.732422 61.4014 0.0488281Q63.3789-0.634766 64.7217-1.87988Q66.0645-3.125 67.627-4.73633L80.5664-18.3594Q82.1289-20.0684 82.6904-21.5332Q83.252-22.998 83.252-25.7324L83.252-44.7754Q83.252-47.4609 82.6904-48.9502Q82.1289-50.4395 80.5664-52.0996L67.627-65.7715Q66.0645-67.3828 64.7217-68.6035Q63.3789-69.8242 61.4014-70.5322Q59.4238-71.2402 56.1035-71.2402L36.9141-71.2402Q33.5449-71.2402 31.5674-70.5322Q29.5898-69.8242 28.2715-68.6035Q26.9531-67.3828 25.3906-65.7715L12.4512-52.0996Q10.8398-50.4395 10.3027-48.9502Q9.76562-47.4609 9.76562-44.7754L9.76562-25.7324Q9.76562-22.998 10.3027-21.5332Q10.8398-20.0684 12.4512-18.3594L25.3906-4.73633Q26.9531-3.125 28.2715-1.87988Q29.5898-0.634766 31.5674 0.0488281Q33.5449 0.732422 36.9141 0.732422ZM33.5938-21.0449Q33.0566-21.0449 32.6904-21.3867Q32.3242-21.7285 32.3242-22.2168Q32.3242-22.7539 32.7637-23.1934L44.7754-35.2051L32.7637-47.2168Q32.3242-47.6562 32.3242-48.1934Q32.3242-48.6816 32.6904-48.999Q33.0566-49.3164 33.5938-49.3164Q34.082-49.3164 34.5703-48.877L46.4844-36.9141L58.4473-48.877Q58.8867-49.3652 59.4238-49.3652Q59.9609-49.3652 60.3271-49.0234Q60.6934-48.6816 60.6934-48.1934Q60.6934-47.6562 60.2539-47.2168L48.2422-35.2051L60.2539-23.1934Q60.6934-22.7539 60.6934-22.2168Q60.6934-21.7285 60.3271-21.3867Q59.9609-21.0449 59.4238-21.0449Q58.8867-21.0449 58.4473-21.5332L46.4844-33.4961L34.5703-21.5332Q34.082-21.0449 33.5938-21.0449Z"/>
  </g>
 </g>
</svg>
