<?xml version="1.0" encoding="UTF-8" standalone="no"?>
<!--Generator: Apple Native CoreSVG 175.5-->

<svg
   version="1.1"
   width="100"
   height="100"
   id="svg398"
   sodipodi:docname="image-wait.svg"
   inkscape:version="1.2.2 (b0a84865, 2022-12-01)"
   xmlns:inkscape="http://www.inkscape.org/namespaces/inkscape"
   xmlns:sodipodi="http://sodipodi.sourceforge.net/DTD/sodipodi-0.dtd"
   xmlns="http://www.w3.org/2000/svg"
   xmlns:svg="http://www.w3.org/2000/svg">
  <defs
     id="defs402" />
  <sodipodi:namedview
     id="namedview400"
     pagecolor="#ffffff"
     bordercolor="#666666"
     borderopacity="1.0"
     inkscape:showpageshadow="2"
     inkscape:pageopacity="0.0"
     inkscape:pagecheckerboard="0"
     inkscape:deskcolor="#d1d1d1"
     showgrid="false"
     inkscape:zoom="10.506883"
     inkscape:cx="52.91769"
     inkscape:cy="49.967243"
     inkscape:window-width="1679"
     inkscape:window-height="968"
     inkscape:window-x="0"
     inkscape:window-y="38"
     inkscape:window-maximized="0"
     inkscape:current-layer="Regular-S" />
  <!--glyph: "uni1003C5.medium", point size: 100.0, font version: "18.0d12e2", template writer version: "101"-->
  <style
     id="style276">.monochrome-0 {fill:#000000}

.SFSymbolsPreview000000 {fill:#000000;opacity:1.0}
</style>
  <g
     id="Symbols">
    <g
       id="Black-S"
       transform="translate(2877.35,696)" />
    <g
       id="Regular-S"
       transform="translate(-5.05381,85.205087)">
      <path
         id="path391"
         style="opacity:1"
         class="monochrome-0 SFSymbolsPreview000000"
         d="M 22.215919 -70.80079 C 13.915155 -70.80079 9.7647475 -66.699167 9.7647475 -58.496103 L 9.7647475 -11.914071 C 9.7647475 -3.7109449 13.915155 0.39061612 22.215919 0.39061612 L 87.889747 0.39061612 C 96.239315 0.39061612 100.34287 -3.7109449 100.34287 -11.914071 L 100.34287 -58.496103 C 100.34287 -66.699167 96.239315 -70.80079 87.889747 -70.80079 L 22.215919 -70.80079 z M 22.313576 -63.720712 L 87.792091 -63.720712 C 91.307679 -63.720712 93.309669 -61.86519 93.309669 -58.154306 L 93.309669 -12.255868 C 93.309669 -8.5937331 91.307679 -6.689462 87.792091 -6.689462 L 22.313576 -6.689462 C 18.797888 -6.689462 16.795998 -8.5937331 16.795997 -12.255868 L 16.795997 -58.154306 C 16.795997 -61.86519 18.797888 -63.720712 22.313576 -63.720712 z M 43.299904 -60.281259 C 40.6811 -60.281259 39.05381 -58.769526 39.05381 -56.035165 L 39.05381 -55.455087 C 39.05381 -48.961148 46.098204 -41.752426 50.200294 -37.685556 C 51.738074 -36.147819 51.853632 -34.448269 50.200294 -32.794931 C 46.098204 -28.728061 39.05381 -21.484075 39.05381 -15.0254 L 39.05381 -14.375009 C 39.05381 -11.640648 40.6811 -10.128915 43.299904 -10.128915 L 66.807716 -10.128915 C 69.426564 -10.128915 71.05381 -11.640648 71.05381 -14.375009 L 71.05381 -15.0254 C 71.05381 -21.484075 64.00946 -28.728061 59.907326 -32.794931 C 58.254032 -34.448269 58.346505 -36.147819 59.907326 -37.685556 C 64.00946 -41.752426 71.05381 -48.961148 71.05381 -55.455087 L 71.05381 -56.035165 C 71.05381 -58.769526 69.426564 -60.281259 66.807716 -60.281259 L 43.299904 -60.281259 z M 36.838966 -52.86915 C 32.638067 -52.087768 29.442482 -48.371782 29.442482 -43.99415 C 29.442482 -39.013766 33.495205 -34.960946 38.475685 -34.960946 C 41.370209 -34.960946 43.953977 -36.361785 45.598732 -38.523446 C 41.865542 -42.419868 37.408573 -47.782994 36.838966 -52.86915 z M 47.14756 -46.935556 L 62.96006 -46.935556 C 63.742683 -46.935556 64.079596 -46.166393 63.426857 -45.48829 C 61.659845 -43.529675 58.991482 -41.135143 56.950294 -39.351571 C 56.146776 -38.652617 55.948341 -38.119212 55.948341 -37.001962 L 55.948341 -25.140634 C 55.948341 -24.693646 56.052367 -24.552956 56.393654 -24.222665 L 65.438576 -15.474618 C 66.176123 -14.760178 65.892705 -13.523446 64.819435 -13.523446 L 45.264747 -13.523446 C 44.191478 -13.523446 43.908368 -14.760178 44.669044 -15.474618 L 53.713966 -24.222665 C 54.055252 -24.552956 54.159279 -24.693646 54.159279 -25.140634 L 54.159279 -37.001962 C 54.159279 -38.119212 53.962488 -38.652617 53.135841 -39.351571 C 51.117781 -41.135143 48.435333 -43.529675 46.657326 -45.48829 C 46.015581 -46.166393 46.364894 -46.935556 47.14756 -46.935556 z " />
      <path
         id="path776"
         style="color:#000000;fill:#000000;stroke-linecap:round;stroke-linejoin:round;-inkscape-stroke:none"
         d="m 67.100685,-35.880868 c -1.758186,-0.04478 -3.453649,0.231309 -4.806641,0.980468 -0.384684,0.213003 -0.708538,0.428876 -1.009765,0.648438 0.01512,0.0155 0.02119,0.02705 0.03711,0.04297 1.433033,1.420776 3.246373,3.25287 5.021484,5.335937 0.166142,-0.0053 0.24881,-0.0182 0.580079,-0.0098 0.912994,0.02326 0.759809,0.03096 0.982421,0.177734 0.222613,0.146779 0.905321,0.800625 2.109375,1.921875 6.066957,5.649725 22.31836,20.6699218 22.31836,20.6699219 1.419629,1.3114461 3.633533,1.2240091 4.945312,-0.1953125 1.311955,-1.419101 1.225394,-3.6329806 -0.193359,-4.9453124 0,0 -16.267973,-15.034419 -22.300781,-20.652344 -1.054421,-0.981908 -1.767406,-1.815085 -3.025391,-2.644531 -1.257985,-0.829447 -2.9775,-1.287265 -4.658203,-1.330078 z m -34.716797,8.660156 c -1.74878,0.04015 -3.5782,0.713485 -4.775391,1.611328 -1.19719,0.897843 -1.947928,1.765324 -3.177734,2.871094 -5.690443,5.116513 -11.423828,11.050781 -11.423828,11.050781 -1.344096,1.389318 -1.307369,3.6052075 0.08203,4.9492189 1.389852,1.3435698 3.605753,1.3059677 4.949219,-0.083984 0,0 5.646827,-5.8327019 11.072266,-10.7109379 1.443791,-1.298173 2.32395,-2.196591 2.697265,-2.476563 0.373316,-0.27997 0.05436,-0.197231 0.736328,-0.21289 0.526319,-0.01208 0.313842,-0.05462 0.666016,0.201172 0.352175,0.25579 1.095028,1.020106 2.267578,2.017578 0.558019,0.474699 1.118265,0.988537 1.667969,1.505859 0.303576,-2.460423 1.33572,-4.813038 2.673828,-7.015625 -0.739842,-0.656757 -1.406981,-1.380829 -2.496094,-2.171875 -1.183611,-0.85968 -3.039067,-1.578791 -4.939453,-1.535156 z"
         sodipodi:nodetypes="cscccssscccssscccccsssssccssccc" />
      <g
         id="Symbols-0"
         transform="translate(-22.464699,-221.50522)"
         style="stroke:none;stroke-width:0;stroke-dasharray:none;stroke-opacity:1">
        <g
           id="Regular-L"
           transform="translate(73.511186,194.98305)"
           style="stroke:none;stroke-width:0;stroke-dasharray:none;stroke-opacity:1" />
      </g>
      <g
         id="g5645"
         transform="translate(-52.349869,-221.88592)"
         style="stroke:#000000;stroke-width:4">
        <g
           id="g5643"
           transform="translate(73.511186,194.98305)">
          <g
             id="path5641" />
        </g>
      </g>
      <g
         id="g7371"
         transform="translate(-52.349869,-221.88592)"
         style="stroke:#000000;stroke-width:4">
        <g
           id="g7369"
           transform="translate(73.511186,194.98305)">
          <g
             id="g7367" />
        </g>
      </g>
      <g
         id="g7384"
         transform="translate(-54.634086,-220.36311)"
         style="fill:#782121;stroke:#000000;stroke-width:0;stroke-dasharray:none;stroke-opacity:1">
        <g
           id="g7382"
           transform="translate(73.511186,194.98305)"
           style="fill:#782121;stroke:#000000;stroke-width:0;stroke-dasharray:none;stroke-opacity:1" />
      </g>
    </g>
  </g>
</svg>
