<?xml version="1.0" encoding="UTF-8"?>
<!--Generator: Apple Native CoreSVG 175-->
<!DOCTYPE svg
PUBLIC "-//W3C//DTD SVG 1.1//EN"
       "http://www.w3.org/Graphics/SVG/1.1/DTD/svg11.dtd">
<svg version="1.1" xmlns="http://www.w3.org/2000/svg" xmlns:xlink="http://www.w3.org/1999/xlink" width="3300" height="2200">
 <!--glyph: "uni100237.medium", point size: 100.0, font version: "17.1d1e1", template writer version: "65.1"-->
 <g id="Notes">
  <rect height="2200" id="artboard" style="fill:white;opacity:1" width="3300" x="0" y="0"/>
  <line style="fill:none;stroke:black;opacity:1;stroke-width:0.5;" x1="263" x2="3036" y1="292" y2="292"/>
  <text style="stroke:none;fill:black;font-family:sans-serif;font-size:13;font-weight:bold;" transform="matrix(1 0 0 1 263 322)">Weight/Scale Variations</text>
  <text style="stroke:none;fill:black;font-family:sans-serif;font-size:13;text-anchor:middle;" transform="matrix(1 0 0 1 559.711 322)">Ultralight</text>
  <text style="stroke:none;fill:black;font-family:sans-serif;font-size:13;text-anchor:middle;" transform="matrix(1 0 0 1 856.422 322)">Thin</text>
  <text style="stroke:none;fill:black;font-family:sans-serif;font-size:13;text-anchor:middle;" transform="matrix(1 0 0 1 1153.13 322)">Light</text>
  <text style="stroke:none;fill:black;font-family:sans-serif;font-size:13;text-anchor:middle;" transform="matrix(1 0 0 1 1449.84 322)">Regular</text>
  <text style="stroke:none;fill:black;font-family:sans-serif;font-size:13;text-anchor:middle;" transform="matrix(1 0 0 1 1746.56 322)">Medium</text>
  <text style="stroke:none;fill:black;font-family:sans-serif;font-size:13;text-anchor:middle;" transform="matrix(1 0 0 1 2043.27 322)">Semibold</text>
  <text style="stroke:none;fill:black;font-family:sans-serif;font-size:13;text-anchor:middle;" transform="matrix(1 0 0 1 2339.98 322)">Bold</text>
  <text style="stroke:none;fill:black;font-family:sans-serif;font-size:13;text-anchor:middle;" transform="matrix(1 0 0 1 2636.69 322)">Heavy</text>
  <text style="stroke:none;fill:black;font-family:sans-serif;font-size:13;text-anchor:middle;" transform="matrix(1 0 0 1 2933.4 322)">Black</text>
  <line style="fill:none;stroke:black;opacity:1;stroke-width:0.5;" x1="263" x2="3036" y1="1903" y2="1903"/>
  <g transform="matrix(1 0 0 1 263 1933)">
   <path d="M9.24805 0.830078Q10.8691 0.830078 12.2949 0.214844Q13.7207-0.400391 14.8096-1.49414Q15.8984-2.58789 16.5186-4.01367Q17.1387-5.43945 17.1387-7.05078Q17.1387-8.66211 16.5186-10.0879Q15.8984-11.5137 14.8047-12.6074Q13.7109-13.7012 12.2852-14.3164Q10.8594-14.9316 9.23828-14.9316Q7.62695-14.9316 6.20117-14.3164Q4.77539-13.7012 3.69141-12.6074Q2.60742-11.5137 1.9873-10.0879Q1.36719-8.66211 1.36719-7.05078Q1.36719-5.43945 1.9873-4.01367Q2.60742-2.58789 3.69629-1.49414Q4.78516-0.400391 6.21094 0.214844Q7.63672 0.830078 9.24805 0.830078ZM9.24805-0.654297Q7.91992-0.654297 6.7627-1.14746Q5.60547-1.64062 4.73145-2.51953Q3.85742-3.39844 3.36426-4.56055Q2.87109-5.72266 2.87109-7.05078Q2.87109-8.37891 3.35938-9.54102Q3.84766-10.7031 4.72168-11.582Q5.5957-12.4609 6.75293-12.9541Q7.91016-13.4473 9.23828-13.4473Q10.5762-13.4473 11.7334-12.9541Q12.8906-12.4609 13.7695-11.582Q14.6484-10.7031 15.1465-9.54102Q15.6445-8.37891 15.6445-7.05078Q15.6445-5.72266 15.1514-4.56055Q14.6582-3.39844 13.7842-2.51953Q12.9102-1.64062 11.748-1.14746Q10.5859-0.654297 9.24805-0.654297ZM5.6543-7.05078Q5.6543-6.72852 5.85938-6.52832Q6.06445-6.32812 6.40625-6.32812L8.51562-6.32812L8.51562-4.20898Q8.51562-3.88672 8.71094-3.67676Q8.90625-3.4668 9.23828-3.4668Q9.56055-3.4668 9.77051-3.67676Q9.98047-3.88672 9.98047-4.20898L9.98047-6.32812L12.0898-6.32812Q12.4219-6.32812 12.627-6.52832Q12.832-6.72852 12.832-7.05078Q12.832-7.38281 12.627-7.58789Q12.4219-7.79297 12.0898-7.79297L9.98047-7.79297L9.98047-9.90234Q9.98047-10.2344 9.77051-10.4443Q9.56055-10.6543 9.23828-10.6543Q8.90625-10.6543 8.71094-10.4443Q8.51562-10.2344 8.51562-9.90234L8.51562-7.79297L6.40625-7.79297Q6.06445-7.79297 5.85938-7.58789Q5.6543-7.38281 5.6543-7.05078Z"/>
  </g>
  <g transform="matrix(1 0 0 1 281.867 1933)">
   <path d="M11.709 2.91016Q13.75 2.91016 15.5518 2.12891Q17.3535 1.34766 18.7305-0.0292969Q20.1074-1.40625 20.8887-3.20801Q21.6699-5.00977 21.6699-7.05078Q21.6699-9.0918 20.8887-10.8936Q20.1074-12.6953 18.7305-14.0723Q17.3535-15.4492 15.5469-16.2305Q13.7402-17.0117 11.6992-17.0117Q9.6582-17.0117 7.85645-16.2305Q6.05469-15.4492 4.68262-14.0723Q3.31055-12.6953 2.5293-10.8936Q1.74805-9.0918 1.74805-7.05078Q1.74805-5.00977 2.5293-3.20801Q3.31055-1.40625 4.6875-0.0292969Q6.06445 1.34766 7.86621 2.12891Q9.66797 2.91016 11.709 2.91016ZM11.709 1.25Q9.98047 1.25 8.47656 0.605469Q6.97266-0.0390625 5.83496-1.17676Q4.69727-2.31445 4.05762-3.81836Q3.41797-5.32227 3.41797-7.05078Q3.41797-8.7793 4.05762-10.2832Q4.69727-11.7871 5.83008-12.9297Q6.96289-14.0723 8.4668-14.7119Q9.9707-15.3516 11.6992-15.3516Q13.4277-15.3516 14.9316-14.7119Q16.4355-14.0723 17.5781-12.9297Q18.7207-11.7871 19.3652-10.2832Q20.0098-8.7793 20.0098-7.05078Q20.0098-5.32227 19.3701-3.81836Q18.7305-2.31445 17.5928-1.17676Q16.4551-0.0390625 14.9463 0.605469Q13.4375 1.25 11.709 1.25ZM7.17773-7.05078Q7.17773-6.69922 7.41211-6.47461Q7.64648-6.25 8.01758-6.25L10.8887-6.25L10.8887-3.36914Q10.8887-2.99805 11.1133-2.76855Q11.3379-2.53906 11.6895-2.53906Q12.0605-2.53906 12.29-2.76855Q12.5195-2.99805 12.5195-3.36914L12.5195-6.25L15.4004-6.25Q15.7715-6.25 16.001-6.47461Q16.2305-6.69922 16.2305-7.05078Q16.2305-7.42188 16.001-7.65137Q15.7715-7.88086 15.4004-7.88086L12.5195-7.88086L12.5195-10.752Q12.5195-11.1328 12.29-11.3623Q12.0605-11.5918 11.6895-11.5918Q11.3379-11.5918 11.1133-11.3574Q10.8887-11.123 10.8887-10.752L10.8887-7.88086L8.01758-7.88086Q7.63672-7.88086 7.40723-7.65137Q7.17773-7.42188 7.17773-7.05078Z"/>
  </g>
  <g transform="matrix(1 0 0 1 305.646 1933)">
   <path d="M14.9707 5.66406Q17.0605 5.66406 18.96 5.01465Q20.8594 4.36523 22.4512 3.19336Q24.043 2.02148 25.2197 0.429688Q26.3965-1.16211 27.0459-3.06641Q27.6953-4.9707 27.6953-7.05078Q27.6953-9.14062 27.0459-11.04Q26.3965-12.9395 25.2197-14.5312Q24.043-16.123 22.4512-17.2998Q20.8594-18.4766 18.9551-19.126Q17.0508-19.7754 14.9609-19.7754Q12.8711-19.7754 10.9717-19.126Q9.07227-18.4766 7.48535-17.2998Q5.89844-16.123 4.72168-14.5312Q3.54492-12.9395 2.90039-11.04Q2.25586-9.14062 2.25586-7.05078Q2.25586-4.9707 2.90527-3.06641Q3.55469-1.16211 4.72656 0.429688Q5.89844 2.02148 7.49023 3.19336Q9.08203 4.36523 10.9814 5.01465Q12.8809 5.66406 14.9707 5.66406ZM14.9707 3.84766Q13.1641 3.84766 11.5283 3.2959Q9.89258 2.74414 8.53516 1.74805Q7.17773 0.751953 6.17676-0.610352Q5.17578-1.97266 4.62891-3.6084Q4.08203-5.24414 4.08203-7.05078Q4.08203-8.86719 4.62891-10.5029Q5.17578-12.1387 6.17188-13.501Q7.16797-14.8633 8.52539-15.8594Q9.88281-16.8555 11.5186-17.4023Q13.1543-17.9492 14.9609-17.9492Q16.7773-17.9492 18.4131-17.4023Q20.0488-16.8555 21.4111-15.8594Q22.7734-14.8633 23.7695-13.501Q24.7656-12.1387 25.3174-10.5029Q25.8691-8.86719 25.8691-7.05078Q25.8789-5.24414 25.332-3.6084Q24.7852-1.97266 23.7842-0.610352Q22.7832 0.751953 21.4209 1.74805Q20.0586 2.74414 18.4229 3.2959Q16.7871 3.84766 14.9707 3.84766ZM9.19922-7.05078Q9.19922-6.66992 9.45801-6.4209Q9.7168-6.17188 10.1172-6.17188L14.0625-6.17188L14.0625-2.2168Q14.0625-1.81641 14.3115-1.55762Q14.5605-1.29883 14.9512-1.29883Q15.3516-1.29883 15.6104-1.55273Q15.8691-1.80664 15.8691-2.2168L15.8691-6.17188L19.8242-6.17188Q20.2246-6.17188 20.4785-6.4209Q20.7324-6.66992 20.7324-7.05078Q20.7324-7.46094 20.4785-7.71484Q20.2246-7.96875 19.8242-7.96875L15.8691-7.96875L15.8691-11.9141Q15.8691-12.3242 15.6104-12.583Q15.3516-12.8418 14.9512-12.8418Q14.5605-12.8418 14.3115-12.583Q14.0625-12.3242 14.0625-11.9141L14.0625-7.96875L10.1172-7.96875Q9.70703-7.96875 9.45312-7.71484Q9.19922-7.46094 9.19922-7.05078Z"/>
  </g>
  <text style="stroke:none;fill:black;font-family:sans-serif;font-size:13;font-weight:bold;" transform="matrix(1 0 0 1 263 1953)">Design Variations</text>
  <text style="stroke:none;fill:black;font-family:sans-serif;font-size:13;" transform="matrix(1 0 0 1 263 1971)">Symbols are supported in up to nine weights and three scales.</text>
  <text style="stroke:none;fill:black;font-family:sans-serif;font-size:13;" transform="matrix(1 0 0 1 263 1989)">For optimal layout with text and other symbols, vertically align</text>
  <text style="stroke:none;fill:black;font-family:sans-serif;font-size:13;" transform="matrix(1 0 0 1 263 2007)">symbols with the adjacent text.</text>
  <line style="fill:none;stroke:#00AEEF;stroke-width:0.5;opacity:1.0;" x1="776" x2="776" y1="1919" y2="1933"/>
  <g transform="matrix(1 0 0 1 776 1933)">
   <path d="M3.31055 0.15625Q3.70117 0.15625 3.91602-0.00976562Q4.13086-0.175781 4.26758-0.585938L5.52734-4.0332L11.2891-4.0332L12.5488-0.585938Q12.6855-0.175781 12.9004-0.00976562Q13.1152 0.15625 13.4961 0.15625Q13.8867 0.15625 14.1162-0.0585938Q14.3457-0.273438 14.3457-0.644531Q14.3457-0.869141 14.2383-1.17188L9.6582-13.3691Q9.48242-13.8184 9.17969-14.043Q8.87695-14.2676 8.4082-14.2676Q7.5-14.2676 7.17773-13.3789L2.59766-1.16211Q2.49023-0.859375 2.49023-0.634766Q2.49023-0.263672 2.70996-0.0537109Q2.92969 0.15625 3.31055 0.15625ZM6.00586-5.51758L8.37891-12.0898L8.42773-12.0898L10.8008-5.51758Z"/>
  </g>
  <line style="fill:none;stroke:#00AEEF;stroke-width:0.5;opacity:1.0;" x1="793.197" x2="793.197" y1="1919" y2="1933"/>
  <text style="stroke:none;fill:black;font-family:sans-serif;font-size:13;font-weight:bold;" transform="matrix(1 0 0 1 776 1953)">Margins</text>
  <text style="stroke:none;fill:black;font-family:sans-serif;font-size:13;" transform="matrix(1 0 0 1 776 1971)">Leading and trailing margins on the left and right side of each symbol</text>
  <text style="stroke:none;fill:black;font-family:sans-serif;font-size:13;" transform="matrix(1 0 0 1 776 1989)">can be adjusted by modifying the x-location of the margin guidelines.</text>
  <text style="stroke:none;fill:black;font-family:sans-serif;font-size:13;" transform="matrix(1 0 0 1 776 2007)">Modifications are automatically applied proportionally to all</text>
  <text style="stroke:none;fill:black;font-family:sans-serif;font-size:13;" transform="matrix(1 0 0 1 776 2025)">scales and weights.</text>
  <g transform="matrix(1 0 0 1 1289 1933)">
   <path d="M2.8418 1.86523L4.54102 3.57422Q5.18555 4.22852 5.90332 4.17969Q6.62109 4.13086 7.31445 3.35938L18.0078-8.42773L17.041-9.4043L6.42578 2.27539Q6.16211 2.57812 5.89355 2.61719Q5.625 2.65625 5.27344 2.30469L4.10156 1.14258Q3.75 0.791016 3.79395 0.522461Q3.83789 0.253906 4.14062-0.0195312L15.6152-10.8203L14.6387-11.7871L3.04688-0.898438Q2.30469-0.214844 2.25098 0.498047Q2.19727 1.21094 2.8418 1.86523ZM9.25781-16.3281Q8.94531-16.0254 8.90625-15.6348Q8.86719-15.2441 9.04297-14.9512Q9.21875-14.6777 9.55566-14.541Q9.89258-14.4043 10.3809-14.5215Q11.4746-14.7754 12.5977-14.7314Q13.7207-14.6875 14.7949-13.9844L14.209-12.5293Q13.9551-11.9043 14.0674-11.4404Q14.1797-10.9766 14.5801-10.5664L16.875-8.25195Q17.2363-7.88086 17.5781-7.82227Q17.9199-7.76367 18.3398-7.8418L19.4043-8.03711L20.0684-7.36328L20.0293-6.80664Q20-6.43555 20.1221-6.12305Q20.2441-5.81055 20.6055-5.44922L21.3672-4.70703Q21.7285-4.3457 22.1533-4.33105Q22.5781-4.31641 22.9297-4.66797L25.8398-7.58789Q26.1914-7.93945 26.1816-8.35449Q26.1719-8.76953 25.8105-9.13086L25.0391-9.89258Q24.6875-10.2539 24.3799-10.3857Q24.0723-10.5176 23.7109-10.4883L23.1348-10.4395L22.4902-11.0742L22.7344-12.1973Q22.832-12.6172 22.6953-12.9834Q22.5586-13.3496 22.1191-13.7891L19.9219-15.9766Q18.6719-17.2168 17.2607-17.8369Q15.8496-18.457 14.4189-18.4814Q12.9883-18.5059 11.665-17.959Q10.3418-17.4121 9.25781-16.3281ZM10.752-15.957Q11.6602-16.6211 12.7002-16.9043Q13.7402-17.1875 14.8047-17.085Q15.8691-16.9824 16.8701-16.5137Q17.8711-16.0449 18.7012-15.2051L21.1328-12.793Q21.3086-12.6172 21.3525-12.4512Q21.3965-12.2852 21.3379-12.0312L21.0156-10.5469L22.5195-9.0625L23.5059-9.12109Q23.6914-9.13086 23.7891-9.09668Q23.8867-9.0625 24.0332-8.91602L24.6094-8.33984L22.168-5.89844L21.5918-6.47461Q21.4453-6.62109 21.4062-6.71875Q21.3672-6.81641 21.377-7.01172L21.4453-7.98828L19.9512-9.47266L18.4277-9.21875Q18.1836-9.16992 18.042-9.2041Q17.9004-9.23828 17.7148-9.41406L15.7129-11.416Q15.5176-11.5918 15.4932-11.7529Q15.4688-11.9141 15.5859-12.1875L16.4648-14.2773Q15.293-15.3711 13.8281-15.791Q12.3633-16.2109 10.8398-15.7617Q10.7227-15.7324 10.6885-15.8057Q10.6543-15.8789 10.752-15.957Z"/>
  </g>
  <text style="stroke:none;fill:black;font-family:sans-serif;font-size:13;font-weight:bold;" transform="matrix(1 0 0 1 1289 1953)">Exporting</text>
  <text style="stroke:none;fill:black;font-family:sans-serif;font-size:13;" transform="matrix(1 0 0 1 1289 1971)">Symbols should be outlined when exporting to ensure the</text>
  <text style="stroke:none;fill:black;font-family:sans-serif;font-size:13;" transform="matrix(1 0 0 1 1289 1989)">design is preserved when submitting to Xcode.</text>
  <text id="template-version" style="stroke:none;fill:black;font-family:sans-serif;font-size:13;text-anchor:end;" transform="matrix(1 0 0 1 3036 1933)">Template v.3.0</text>
  <text style="stroke:none;fill:black;font-family:sans-serif;font-size:13;text-anchor:end;" transform="matrix(1 0 0 1 3036 1951)">Requires Xcode 13 or greater</text>
  <text id="descriptive-name" style="stroke:none;fill:black;font-family:sans-serif;font-size:13;text-anchor:end;" transform="matrix(1 0 0 1 3036 1969)">Generated from doc</text>
  <text style="stroke:none;fill:black;font-family:sans-serif;font-size:13;text-anchor:end;" transform="matrix(1 0 0 1 3036 1987)">Typeset at 100 points</text>
  <text style="stroke:none;fill:black;font-family:sans-serif;font-size:13;" transform="matrix(1 0 0 1 263 726)">Small</text>
  <text style="stroke:none;fill:black;font-family:sans-serif;font-size:13;" transform="matrix(1 0 0 1 263 1156)">Medium</text>
  <text style="stroke:none;fill:black;font-family:sans-serif;font-size:13;" transform="matrix(1 0 0 1 263 1586)">Large</text>
 </g>
 <g id="Guides">
  <g id="H-reference" style="fill:#27AAE1;stroke:none;" transform="matrix(1 0 0 1 339 696)">
   <path d="M0.993347 0L3.6377 0L29.3282-67.1326L30.0301-67.1326L30.0301-70.459L28.1227-70.459ZM11.6882-24.4797L46.9818-24.4797L46.2311-26.7288L12.4382-26.7288ZM55.1193 0L57.7637 0L30.6381-70.459L29.4327-70.459L29.4327-67.1326Z"/>
  </g>
  <line id="Baseline-S" style="fill:none;stroke:#27AAE1;opacity:1;stroke-width:0.5;" x1="263" x2="3036" y1="696" y2="696"/>
  <line id="Capline-S" style="fill:none;stroke:#27AAE1;opacity:1;stroke-width:0.5;" x1="263" x2="3036" y1="625.541" y2="625.541"/>
  <g id="H-reference" style="fill:#27AAE1;stroke:none;" transform="matrix(1 0 0 1 339 1126)">
   <path d="M0.993347 0L3.6377 0L29.3282-67.1326L30.0301-67.1326L30.0301-70.459L28.1227-70.459ZM11.6882-24.4797L46.9818-24.4797L46.2311-26.7288L12.4382-26.7288ZM55.1193 0L57.7637 0L30.6381-70.459L29.4327-70.459L29.4327-67.1326Z"/>
  </g>
  <line id="Baseline-M" style="fill:none;stroke:#27AAE1;opacity:1;stroke-width:0.5;" x1="263" x2="3036" y1="1126" y2="1126"/>
  <line id="Capline-M" style="fill:none;stroke:#27AAE1;opacity:1;stroke-width:0.5;" x1="263" x2="3036" y1="1055.54" y2="1055.54"/>
  <g id="H-reference" style="fill:#27AAE1;stroke:none;" transform="matrix(1 0 0 1 339 1556)">
   <path d="M0.993347 0L3.6377 0L29.3282-67.1326L30.0301-67.1326L30.0301-70.459L28.1227-70.459ZM11.6882-24.4797L46.9818-24.4797L46.2311-26.7288L12.4382-26.7288ZM55.1193 0L57.7637 0L30.6381-70.459L29.4327-70.459L29.4327-67.1326Z"/>
  </g>
  <line id="Baseline-L" style="fill:none;stroke:#27AAE1;opacity:1;stroke-width:0.5;" x1="263" x2="3036" y1="1556" y2="1556"/>
  <line id="Capline-L" style="fill:none;stroke:#27AAE1;opacity:1;stroke-width:0.5;" x1="263" x2="3036" y1="1485.54" y2="1485.54"/>
  <line id="left-margin-Regular-M" style="fill:none;stroke:#00AEEF;stroke-width:0.5;opacity:1.0;" x1="1396.32" x2="1396.32" y1="1030.79" y2="1150.12"/>
  <line id="right-margin-Regular-M" style="fill:none;stroke:#00AEEF;stroke-width:0.5;opacity:1.0;" x1="1503.37" x2="1503.37" y1="1030.79" y2="1150.12"/>
 </g>
 <g id="Symbols">
  <g id="Black-L" transform="matrix(1 0 0 1 2859.72 1556)">
   <path d="M39.7724 35.1919L107.573 35.1919Q118.9 35.1919 125.091 28.9794Q131.282 22.767 131.282 11.4202L131.282-45.4947Q131.282-53.6938 129.499-58.8064Q127.716-63.919 122.48-69.1967L95.0577-96.806Q89.8621-102.022 84.7391-103.816Q79.6161-105.61 71.6459-105.61L39.7724-105.61Q28.4476-105.61 22.2658-99.3972Q16.084-93.1848 16.084-81.838L16.084 11.4202Q16.084 22.7878 22.2652 28.9898Q28.4464 35.1919 39.7724 35.1919ZM42.6072 15.2108Q39.1823 15.2108 37.6236 13.5536Q36.065 11.8963 36.065 8.68948L36.065-79.1073Q36.065-82.3689 37.6236-83.9988Q39.1823-85.6287 42.628-85.6287L65.3696-85.6287L65.3696-58.1806Q65.3696-48.6073 69.9318-44.0481Q74.494-39.4889 84.0612-39.4889L111.282-39.4889L111.282 8.68948Q111.282 11.8963 109.751 13.5536Q108.221 15.2108 104.738 15.2108ZM85.352-55.1941Q81.054-55.1941 81.054-59.491L81.054-84.703L110.356-55.1941Z"/>
  </g>
  <g id="Heavy-L" transform="matrix(1 0 0 1 2564.15 1556)">
   <path d="M38.7107 34.4872L106.333 34.4872Q117.252 34.4872 123.121 28.5849Q128.99 22.6827 128.99 11.7397L128.99-45.3758Q128.99-53.0085 127.371-57.6843Q125.753-62.36 120.916-67.2572L91.6098-96.8348Q86.8278-101.647 82.137-103.281Q77.4462-104.915 70.1455-104.915L38.7107-104.915Q27.8035-104.915 21.9437-99.0126Q16.084-93.1104 16.084-82.1674L16.084 11.7397Q16.084 22.7128 21.941 28.6Q27.7979 34.4872 38.7107 34.4872ZM40.9858 16.9867Q37.1843 16.9867 35.3843 15.102Q33.5844 13.2172 33.5844 9.61544L33.5844-80.0432Q33.5844-83.6727 35.3843-85.5436Q37.1843-87.4145 41.0161-87.4145L65.0967-87.4145L65.0967-57.7165Q65.0967-49.0349 69.2684-44.8772Q73.4402-40.7195 82.0937-40.7195L111.465-40.7195L111.465 9.61544Q111.465 13.2172 109.685 15.102Q107.904 16.9867 104.058 16.9867ZM83.332-54.8246Q79.1716-54.8246 79.1716-58.9794L79.1716-86.27L110.321-54.8246Z"/>
  </g>
  <g id="Bold-L" transform="matrix(1 0 0 1 2268.83 1556)">
   <path d="M37.3893 33.656L104.864 33.656Q115.253 33.656 120.73 28.1343Q126.207 22.6125 126.207 12.1988L126.207-45.3714Q126.207-52.2526 124.788-56.3755Q123.369-60.4983 119.054-64.8895L87.3673-96.9179Q83.115-101.208 78.9732-102.646Q74.8314-104.084 68.368-104.084L37.3893-104.084Q27.0268-104.084 21.5554-98.5624Q16.084-93.0406 16.084-82.6269L16.084 12.1988Q16.084 22.6504 21.5488 28.1532Q27.0136 33.656 37.3893 33.656ZM39.0249 19.2143Q34.7324 19.2143 32.6291 17.0415Q30.5258 14.8688 30.5258 10.753L30.5258-81.1811Q30.5258-85.2863 32.6291-87.4643Q34.7324-89.6424 39.063-89.6424L64.8182-89.6424L64.8182-57.267Q64.8182-49.6471 68.5171-45.9813Q72.2159-42.3156 79.7696-42.3156L111.741-42.3156L111.741 10.753Q111.741 14.8688 109.645 17.0415Q107.55 19.2143 103.228 19.2143ZM80.909-54.3711Q76.8358-54.3711 76.8358-58.4312L76.8358-88.2959L110.394-54.3711Z"/>
  </g>
  <g id="Semibold-L" transform="matrix(1 0 0 1 1973.08 1556)">
   <path d="M36.4783 33.0831L103.85 33.0831Q113.874 33.0831 119.081 27.8236Q124.288 22.5641 124.288 12.5153L124.288-45.3684Q124.288-51.7315 123.007-55.4732Q121.726-59.2149 117.77-63.2572L84.4426-96.9752Q80.5555-100.906 76.7921-102.208Q73.0288-103.511 67.1426-103.511L36.4783-103.511Q26.4913-103.511 21.2876-98.252Q16.084-92.9925 16.084-82.9436L16.084 12.5153Q16.084 22.6074 21.2785 27.8452Q26.4729 33.0831 36.4783 33.0831ZM37.673 20.7499Q33.0421 20.7499 30.7296 18.3787Q28.4171 16.0074 28.4171 11.5372L28.4171-81.9656Q28.4171-86.3988 30.7296-88.7885Q33.0421-91.1783 37.7166-91.1783L64.6262-91.1783L64.6262-56.9571Q64.6262-50.0691 67.999-46.7425Q71.3719-43.4159 78.1674-43.4159L111.93-43.4159L111.93 11.5372Q111.93 16.0074 109.618 18.3787Q107.305 20.7499 102.655 20.7499ZM79.2387-54.0585Q75.2255-54.0585 75.2255-58.0533L75.2255-89.6926L110.445-54.0585Z"/>
  </g>
  <g id="Medium-L" transform="matrix(1 0 0 1 1677.1 1556)">
   <path d="M35.7875 32.6486L103.082 32.6486Q112.829 32.6486 117.831 27.588Q122.833 22.5275 122.833 12.7553L122.833-45.366Q122.833-51.3363 121.657-54.789Q120.48-58.2418 116.797-62.0196L82.225-97.0186Q78.6147-100.676 75.1383-101.877Q71.662-103.077 66.2135-103.077L35.7875-103.077Q26.0852-103.077 21.0846-98.0166Q16.084-92.956 16.084-83.1838L16.084 12.7553Q16.084 22.5747 21.0735 27.6117Q26.063 32.6486 35.7875 32.6486ZM36.648 21.9143Q31.7604 21.9143 29.2894 19.3925Q26.8183 16.8707 26.8183 12.1318L26.8183-82.5604Q26.8183-87.2423 29.2894-89.7925Q31.7604-92.3428 36.6956-92.3428L64.4806-92.3428L64.4806-56.7221Q64.4806-50.3891 67.6063-47.3197Q70.7319-44.2502 76.9525-44.2502L112.074-44.2502L112.074 12.1318Q112.074 16.8707 109.597 19.3925Q107.12 21.9143 102.221 21.9143ZM77.9721-53.8214Q74.0045-53.8214 74.0045-57.7667L74.0045-90.7516L110.483-53.8214Z"/>
  </g>
  <g id="Regular-L" transform="matrix(1 0 0 1 1381.33 1556)">
   <path d="M34.8865 32.0819L102.08 32.0819Q111.466 32.0819 116.201 27.2808Q120.935 22.4796 120.935 13.0683L120.935-45.363Q120.935-50.8209 119.895-53.8967Q118.855-56.9724 115.528-60.4052L79.3324-97.0752Q76.0832-100.377 72.9812-101.444Q69.8792-102.511 65.0016-102.511L34.8865-102.511Q25.5556-102.511 20.8198-97.7096Q16.084-92.9084 16.084-83.4971L16.084 13.0683Q16.084 22.5321 20.8061 27.307Q25.5282 32.0819 34.8865 32.0819ZM35.311 23.433Q30.0887 23.433 27.4108 20.7149Q24.7329 17.9968 24.7329 12.9074L24.7329-83.3363Q24.7329-88.3425 27.4108-91.1022Q30.0887-93.8618 35.364-93.8618L64.2907-93.8618L64.2907-56.4157Q64.2907-50.8065 67.094-48.0725Q69.8972-45.3385 75.3679-45.3385L112.262-45.3385L112.262 12.9074Q112.262 17.9968 109.57 20.7149Q106.878 23.433 101.655 23.433ZM76.3201-53.5122Q72.4119-53.5122 72.4119-57.393L72.4119-92.1329L110.533-53.5122Z"/>
  </g>
  <g id="Light-L" transform="matrix(1 0 0 1 1085.41 1556)">
   <path d="M33.9323 31.7767L101.489 31.7767Q110.359 31.7767 114.865 27.2141Q119.37 22.6515 119.37 13.7936L119.37-46.2791Q119.37-50.8972 118.445-53.5149Q117.519-56.1326 114.726-58.9931L76.5841-97.4379Q73.812-100.243 71.1777-101.186Q68.5433-102.129 64.2955-102.129L33.9323-102.129Q25.1548-102.129 20.6194-97.5666Q16.084-93.004 16.084-84.1461L16.084 13.7936Q16.084 22.6848 20.5962 27.2307Q25.1085 31.7767 33.9323 31.7767ZM34.2612 25.1508Q28.5428 25.1508 25.6263 22.1941Q22.7099 19.2375 22.7099 13.6328L22.7099-83.9853Q22.7099-89.4494 25.6263-92.4763Q28.5428-95.5033 34.2953-95.5033L64.4815-95.5033L64.4815-56.912Q64.4815-51.7607 67.0271-49.3322Q69.5727-46.9036 74.49-46.9036L112.758-46.9036L112.758 13.6328Q112.758 19.2375 109.818 22.1941Q106.878 25.1508 101.159 25.1508ZM75.1558-53.2258Q70.7705-53.2258 70.7705-57.5649L70.7705-94.0796L111.334-53.2258Z"/>
  </g>
  <g id="Thin-L" transform="matrix(1 0 0 1 789.73 1556)">
   <path d="M32.6702 31.3729L100.706 31.3729Q108.896 31.3729 113.098 27.1259Q117.3 22.8788 117.3 14.7529L117.3-47.4908Q117.3-50.9982 116.526-53.01Q115.752-55.0219 113.666-57.1254L72.9492-97.9175Q70.8082-100.066 68.7924-100.845Q66.7766-101.624 63.3616-101.624L32.6702-101.624Q24.6247-101.624 20.3543-97.3774Q16.084-93.1304 16.084-85.0045L16.084 14.7529Q16.084 22.8866 20.3187 27.1298Q24.5534 31.3729 32.6702 31.3729ZM32.8727 27.4227Q26.4982 27.4227 23.2662 24.1505Q20.0343 20.8783 20.0343 14.5921L20.0343-84.8436Q20.0343-90.9133 23.2662-94.2938Q26.4982-97.6742 32.8818-97.6742L64.7339-97.6742L64.7339-57.5685Q64.7339-53.0228 66.9387-50.9982Q69.1435-48.9736 73.3288-48.9736L113.415-48.9736L113.415 14.5921Q113.415 20.8783 110.146 24.1505Q106.878 27.4227 100.502 27.4227ZM73.6159-52.8471Q68.5995-52.8471 68.5995-57.7922L68.5995-96.6542L112.395-52.8471Z"/>
  </g>
  <g id="Ultralight-L" transform="matrix(1 0 0 1 493.549 1556)">
   <path d="M32.0237 31.1661L100.305 31.1661Q108.146 31.1661 112.193 27.0807Q116.24 22.9952 116.24 15.2443L116.24-48.1114Q116.24-51.0499 115.544-52.7514Q114.847-54.453 113.123-56.1687L71.0874-98.1632Q69.2696-99.9758 67.5706-100.671Q65.8716-101.366 62.8833-101.366L32.0237-101.366Q24.3532-101.366 20.2186-97.2805Q16.084-93.1951 16.084-85.4441L16.084 15.2443Q16.084 22.99 20.1765 27.0781Q24.269 31.1661 32.0237 31.1661ZM32.1615 28.5863Q25.451 28.5863 22.0574 25.1525Q18.6638 21.7187 18.6638 15.0834L18.6638-85.2833Q18.6638-91.6632 22.0574-95.2247Q25.451-98.7862 32.1578-98.7862L64.8631-98.7862L64.8631-57.9048Q64.8631-53.6693 66.8934-51.8515Q68.9237-50.0338 72.7341-50.0338L113.751-50.0338L113.751 15.0834Q113.751 21.7187 110.314 25.1525Q106.878 28.5863 100.166 28.5863ZM72.8272-52.6531Q67.4876-52.6531 67.4876-57.9086L67.4876-97.973L112.938-52.6531Z"/>
  </g>
  <g id="Black-M" transform="matrix(1 0 0 1 2875.44 1126)">
   <path d="M31.5964 19.8932L84.3265 19.8932Q93.3835 19.8932 98.4255 14.8458Q103.467 9.79853 103.467 0.735694L103.467-43.4086Q103.467-50.1339 101.96-54.4082Q100.453-58.6825 96.1256-63.0208L76.2361-82.9598Q71.9199-87.2814 67.6429-88.7914Q63.3659-90.3014 56.701-90.3014L31.5964-90.3014Q22.5388-90.3014 17.4999-85.2541Q12.4609-80.2068 12.4609-71.1439L12.4609 0.735694Q12.4609 9.80402 17.5 14.8486Q22.5391 19.8932 31.5964 19.8932ZM34.2608 2.55522Q31.8639 2.55522 30.8314 1.43447Q29.7989 0.313729 29.7989-1.90115L29.7989-68.5071Q29.7989-70.7799 30.8314-71.8717Q31.8639-72.9634 34.2662-72.9634L50.9049-72.9634L50.9049-53.4767Q50.9049-45.3557 54.7401-41.5198Q58.5753-37.6839 66.6977-37.6839L86.1238-37.6839L86.1238-1.90115Q86.1238 0.313729 85.12 1.43447Q84.1161 2.55522 81.6622 2.55522ZM67.7041-50.9757Q64.1912-50.9757 64.1912-54.4888L64.1912-72.4757L85.636-50.9757Z"/>
  </g>
  <g id="Heavy-M" transform="matrix(1 0 0 1 2579.77 1126)">
   <path d="M30.6466 19.2324L83.1692 19.2324Q91.8743 19.2324 96.6228 14.4664Q101.371 9.70028 101.371 0.981088L101.371-43.2079Q101.371-49.4569 100.014-53.3465Q98.6571-57.236 94.6708-61.2551L73.119-82.9545Q69.1633-86.9267 65.2656-88.292Q61.3679-89.6574 55.2993-89.6574L30.6466-89.6574Q21.9461-89.6574 17.2035-84.8913Q12.4609-80.1252 12.4609-71.406L12.4609 0.981088Q12.4609 9.71667 17.2024 14.4746Q21.9439 19.2324 30.6466 19.2324ZM32.7726 4.13282Q30.0533 4.13282 28.8069 2.81168Q27.5605 1.49054 27.5605-1.06287L27.5605-69.3621Q27.5605-71.9523 28.8069-73.255Q30.0533-74.5578 32.7891-74.5578L50.6206-74.5578L50.6206-52.9773Q50.6206-45.6856 54.0978-42.2141Q57.5751-38.7425 64.8553-38.7425L86.2576-38.7425L86.2576-1.06287Q86.2576 1.49054 85.0319 2.81168Q83.8062 4.13282 81.0432 4.13282ZM65.8368-50.6409Q62.5026-50.6409 62.5026-53.9729L62.5026-73.828L85.5278-50.6409Z"/>
  </g>
  <g id="Bold-M" transform="matrix(1 0 0 1 2284.23 1126)">
   <path d="M29.5842 18.4933L81.8747 18.4933Q90.186 18.4933 94.6063 14.0418Q99.0265 9.59037 99.0265 1.2556L99.0265-42.9834Q99.0265-48.6996 97.8373-52.1587Q96.6481-55.6178 93.0433-59.2799L69.6322-82.9486Q66.0795-86.5298 62.6061-87.7334Q59.1327-88.937 53.7314-88.937L29.5842-88.937Q21.2831-88.937 16.872-84.4855Q12.4609-80.034 12.4609-71.6993L12.4609 1.2556Q12.4609 9.61896 16.8695 14.0561Q21.278 18.4933 29.5842 18.4933ZM31.108 5.89759Q28.0279 5.89759 26.5423 4.35228Q25.0566 2.80697 25.0566-0.125134L25.0566-70.3185Q25.0566-73.2637 26.5423-74.8025Q28.0279-76.3413 31.1366-76.3413L50.3025-76.3413L50.3025-52.4186Q50.3025-46.0547 53.3793-42.9907Q56.4562-39.9267 62.7944-39.9267L86.4074-39.9267L86.4074-0.125134Q86.4074 2.80697 84.9335 4.35228Q83.4595 5.89759 80.3508 5.89759ZM63.748-50.2664Q60.6136-50.2664 60.6136-53.3957L60.6136-75.3407L85.4068-50.2664Z"/>
  </g>
  <g id="Semibold-M" transform="matrix(1 0 0 1 1988.33 1126)">
   <path d="M28.8517 17.9838L80.9823 17.9838Q89.0221 17.9838 93.216 13.7492Q97.41 9.51461 97.41 1.44484L97.41-42.8287Q97.41-48.1775 96.3365-51.3399Q95.2631-54.5023 91.9213-57.9182L67.2284-82.9445Q63.9536-86.2562 60.7727-87.3483Q57.5919-88.4403 52.6505-88.4403L28.8517-88.4403Q20.8261-88.4403 16.6435-84.2057Q12.4609-79.9712 12.4609-71.9014L12.4609 1.44484Q12.4609 9.55159 16.64 13.7677Q20.819 17.9838 28.8517 17.9838ZM29.9603 7.11422Q26.6316 7.11422 24.981 5.41437Q23.3305 3.71451 23.3305 0.521338L23.3305-70.9779Q23.3305-74.1679 24.981-75.8693Q26.6316-77.5708 29.9974-77.5708L50.0832-77.5708L50.0832-52.0334Q50.0832-46.3092 52.884-43.5261Q55.6849-40.7431 61.3735-40.7431L86.5106-40.7431L86.5106 0.521338Q86.5106 3.71451 84.8656 5.41437Q83.2205 7.11422 79.8735 7.11422ZM62.3079-50.0082Q59.3113-50.0082 59.3113-52.9978L59.3113-76.3835L85.3233-50.0082Z"/>
  </g>
  <g id="Medium-M" transform="matrix(1 0 0 1 1692.23 1126)">
   <path d="M28.2963 17.5974L80.3056 17.5974Q88.1396 17.5974 92.1619 13.5273Q96.1843 9.45716 96.1843 1.58833L96.1843-42.7114Q96.1843-47.7817 95.1986-50.7191Q94.2129-53.6565 91.0706-56.8857L65.4057-82.9414Q62.3417-86.0487 59.3826-87.0562Q56.4235-88.0637 51.8308-88.0637L28.2963-88.0637Q20.4795-88.0637 16.4702-83.9936Q12.4609-79.9235 12.4609-72.0547L12.4609 1.58833Q12.4609 9.50052 16.4659 13.549Q20.471 17.5974 28.2963 17.5974ZM29.0902 8.03671Q25.5728 8.03671 23.7972 6.21968Q22.0216 4.40265 22.0216 1.01152L22.0216-71.4779Q22.0216-74.8534 23.7972-76.6782Q25.5728-78.5031 29.1337-78.5031L49.9169-78.5031L49.9169-51.7414Q49.9169-46.5022 52.5085-43.9321Q55.1001-41.3621 60.2962-41.3621L86.5889-41.3621L86.5889 1.01152Q86.5889 4.40265 84.8141 6.21968Q83.0393 8.03671 79.5115 8.03671ZM61.2161-49.8124Q58.3239-49.8124 58.3239-52.6961L58.3239-77.1742L85.2601-49.8124Z"/>
  </g>
  <g id="Regular-M" transform="matrix(1 0 0 1 1396.32 1126)">
   <path d="M27.5719 17.0934L79.4229 17.0934Q86.9885 17.0934 90.787 13.2378Q94.5855 9.38222 94.5855 1.7755L94.5855-42.5583Q94.5855-47.2653 93.7143-49.9093Q92.8431-52.5532 89.9609-55.5389L63.0283-82.9373Q60.2391-85.7781 57.5694-86.6753Q54.8996-87.5725 50.7618-87.5725L27.5719-87.5725Q20.0274-87.5725 16.2442-83.7169Q12.4609-79.8613 12.4609-72.2546L12.4609 1.7755Q12.4609 9.43389 16.239 13.2637Q20.017 17.0934 27.5719 17.0934ZM27.9552 9.23997Q24.1919 9.23997 22.2531 7.27009Q20.3144 5.30021 20.3144 1.65089L20.3144-72.13Q20.3144-75.7476 22.2531-77.7333Q24.1919-79.7191 28.007-79.7191L49.7-79.7191L49.7-51.3604Q49.7-46.7538 52.0186-44.4616Q54.3372-42.1695 58.891-42.1695L86.691-42.1695L86.691 1.65089Q86.691 5.30021 84.747 7.27009Q82.8029 9.23997 79.0395 9.23997ZM59.7919-49.557Q57.0359-49.557 57.0359-52.3025L57.0359-78.2056L85.1776-49.557Z"/>
  </g>
  <g id="Light-M" transform="matrix(1 0 0 1 1100.31 1126)">
   <path d="M26.7163 16.8198L78.8925 16.8198Q85.9961 16.8198 89.5892 13.178Q93.1823 9.53632 93.1823 2.42579L93.1823-43.3797Q93.1823-47.3338 92.4139-49.567Q91.6455-51.8003 89.2422-54.2728L60.5642-83.2625Q58.2029-85.6582 55.9524-86.4443Q53.7019-87.2304 50.1288-87.2304L26.7163-87.2304Q19.6681-87.2304 16.0645-83.5887Q12.4609-79.947 12.4609-72.8365L12.4609 2.42579Q12.4609 9.57073 16.0508 13.1952Q19.6407 16.8198 26.7163 16.8198ZM27.0139 10.78Q22.8059 10.78 20.6533 8.59626Q18.5007 6.41249 18.5007 2.30118L18.5007-72.7119Q18.5007-76.74 20.6533-78.9653Q22.8059-81.1907 27.0488-81.1907L49.8711-81.1907L49.8711-51.8055Q49.8711-47.6094 51.9587-45.591Q54.0463-43.5727 58.1039-43.5727L87.136-43.5727L87.136 2.30118Q87.136 6.41249 84.9695 8.59626Q82.8029 10.78 78.5944 10.78ZM58.748-49.3003Q55.5643-49.3003 55.5643-52.4566L55.5643-79.9509L85.8963-49.3003Z"/>
  </g>
  <g id="Thin-M" transform="matrix(1 0 0 1 804.528 1126)">
   <path d="M25.5848 16.4578L78.191 16.4578Q84.6835 16.4578 88.005 13.099Q91.3265 9.74011 91.3265 3.28585L91.3265-44.466Q91.3265-47.4242 90.694-49.1144Q90.0615-50.8045 88.2917-52.5984L57.3054-83.6925Q55.5098-85.4997 53.8138-86.1388Q52.1179-86.778 49.2915-86.778L25.5848-86.778Q19.1928-86.778 15.8269-83.4191Q12.4609-80.0603 12.4609-73.606L12.4609 3.28585Q12.4609 9.75172 15.8019 13.1048Q19.1429 16.4578 25.5848 16.4578ZM25.7691 12.8169Q20.9729 12.8169 18.5374 10.3502Q16.1019 7.88357 16.1019 3.16124L16.1019-73.4814Q16.1019-78.0525 18.5374-80.5948Q20.9729-83.1371 25.7815-83.1371L50.0973-83.1371L50.0973-52.3941Q50.0973-48.7409 51.8794-47.0847Q53.6615-45.4285 57.0628-45.4285L87.7246-45.4285L87.7246 3.16124Q87.7246 7.88357 85.2638 10.3502Q82.8029 12.8169 78.0058 12.8169ZM57.3674-48.9608Q53.6179-48.9608 53.6179-52.6604L53.6179-82.2592L86.8468-48.9608Z"/>
  </g>
  <g id="Ultralight-M" transform="matrix(1 0 0 1 508.292 1126)">
   <path d="M25.0052 16.2724L77.8317 16.2724Q84.0113 16.2724 87.1936 13.0584Q90.3759 9.8445 90.3759 3.72637L90.3759-45.0223Q90.3759-47.4706 89.813-48.8825Q89.2502-50.2944 87.8048-51.7407L55.6362-83.9127Q54.1304-85.4185 52.7185-85.9824Q51.3066-86.5462 48.8627-86.5462L25.0052-86.5462Q18.9494-86.5462 15.7052-83.3323Q12.4609-80.1183 12.4609-74.0002L12.4609 3.72637Q12.4609 9.84442 15.6745 13.0584Q18.888 16.2724 25.0052 16.2724ZM25.1315 13.8601Q20.034 13.8601 17.4536 11.2486Q14.8732 8.63705 14.8732 3.60176L14.8732-73.8756Q14.8732-78.7248 17.4536-81.4294Q20.034-84.134 25.1325-84.134L50.2132-84.134L50.2132-52.6955Q50.2132-49.3205 51.8388-47.8498Q53.4644-46.3791 56.5296-46.3791L88.0261-46.3791L88.0261 3.60176Q88.0261 8.63705 85.4145 11.2486Q82.8029 13.8601 77.7044 13.8601ZM56.6603-48.7869Q52.621-48.7869 52.621-52.7648L52.621-83.4416L87.3337-48.7869Z"/>
  </g>
  <g id="Black-S" transform="matrix(1 0 0 1 2887.7 696)">
   <path d="M25 8.1543L66.4062 8.1543Q73.584 8.1543 77.6123 4.12598Q81.6406 0.0976562 81.6406-7.08008L81.6406-41.748Q81.6406-47.1191 80.4199-50.5615Q79.1992-54.0039 75.7324-57.4707L60.5469-72.6562Q57.0801-76.123 53.6377-77.3438Q50.1953-78.5645 44.8242-78.5645L25-78.5645Q17.8223-78.5645 13.7939-74.5361Q9.76562-70.5078 9.76562-63.3301L9.76562-7.08008Q9.76562 0.0976562 13.7939 4.12598Q17.8223 8.1543 25 8.1543ZM27.2461-6.00586Q25.4395-6.00586 24.6826-6.83594Q23.9258-7.66602 23.9258-9.32617L23.9258-61.084Q23.9258-62.793 24.6826-63.5986Q25.4395-64.4043 27.2461-64.4043L39.9902-64.4043L39.9902-49.707Q39.9902-43.1152 43.0908-40.0146Q46.1914-36.9141 52.7832-36.9141L67.4805-36.9141L67.4805-9.32617Q67.4805-7.66602 66.748-6.83594Q66.0156-6.00586 64.1602-6.00586ZM53.5645-47.6562Q50.7324-47.6562 50.7324-50.4883L50.7324-64.1113L67.1875-47.6562Z"/>
  </g>
  <g id="Heavy-S" transform="matrix(1 0 0 1 2591.79 696)">
   <path d="M24.297 7.62417L65.4843 7.62417Q72.42 7.62417 76.2236 3.80905Q80.0272-0.00606394 80.0272-6.95331L80.0272-41.4715Q80.0272-46.5314 78.9217-49.6972Q77.8163-52.863 74.58-56.1223L58.1959-72.6102Q54.9826-75.8349 51.8111-76.9462Q48.6395-78.0574 43.7063-78.0574L24.297-78.0574Q17.3613-78.0574 13.5635-74.2423Q9.76562-70.4271 9.76562-63.4799L9.76562-6.95331Q9.76562 0.00546053 13.5635 3.81482Q17.3613 7.62417 24.297 7.62417ZM26.0936-4.85341Q24.068-4.85341 23.1556-5.82755Q22.2432-6.80168 22.2432-8.69233L22.2432-61.7409Q22.2432-63.6688 23.1556-64.6243Q24.068-65.5798 26.1052-65.5798L39.7252-65.5798L39.7252-49.223Q39.7252-43.2881 42.5492-40.4641Q45.3732-37.6401 51.3081-37.6401L67.5381-37.6401L67.5381-8.69233Q67.5381-6.80168 66.6443-5.82755Q65.7506-4.85341 63.6877-4.85341ZM52.1008-47.4027Q49.4763-47.4027 49.4763-50.0273L49.4763-65.0448L67.0031-47.4027Z"/>
  </g>
  <g id="Bold-S" transform="matrix(1 0 0 1 2295.98 696)">
   <path d="M23.5107 7.03125L64.4531 7.03125Q71.1182 7.03125 74.6704 3.45459Q78.2227-0.12207 78.2227-6.81152L78.2227-41.1621Q78.2227-45.874 77.2461-48.7305Q76.2695-51.5869 73.291-54.6143L55.5664-72.5586Q52.6367-75.5127 49.7681-76.5015Q46.8994-77.4902 42.4561-77.4902L23.5107-77.4902Q16.8457-77.4902 13.3057-73.9136Q9.76562-70.3369 9.76562-63.6475L9.76562-6.81152Q9.76562-0.0976562 13.3057 3.4668Q16.8457 7.03125 23.5107 7.03125ZM24.8047-3.56445Q22.5342-3.56445 21.4478-4.69971Q20.3613-5.83496 20.3613-7.9834L20.3613-62.4756Q20.3613-64.6484 21.4478-65.7715Q22.5342-66.8945 24.8291-66.8945L39.4287-66.8945L39.4287-48.6816Q39.4287-43.4814 41.9434-40.9668Q44.458-38.4521 49.6582-38.4521L67.6025-38.4521L67.6025-7.9834Q67.6025-5.83496 66.5283-4.69971Q65.4541-3.56445 63.1592-3.56445ZM50.4639-47.1191Q48.0713-47.1191 48.0713-49.5117L48.0713-66.0889L66.7969-47.1191Z"/>
  </g>
  <g id="Semibold-S" transform="matrix(1 0 0 1 1999.89 696)">
   <path d="M22.9687 6.62246L63.7422 6.62246Q70.2206 6.62246 73.5996 3.21021Q76.9785-0.202051 76.9785-6.71377L76.9785-40.9488Q76.9785-45.4208 76.0908-48.064Q75.2031-50.7071 72.4023-53.5745L53.7535-72.523Q51.0193-75.2905 48.3595-76.1949Q45.6997-77.0992 41.594-77.0992L22.9687-77.0992Q16.4902-77.0992 13.1279-73.687Q9.76562-70.2747 9.76562-63.763L9.76562-6.71377Q9.76562-0.16875 13.1279 3.22686Q16.4902 6.62246 22.9687 6.62246ZM23.916-2.67578Q21.4767-2.67578 20.2703-3.92212Q19.0639-5.16846 19.0639-7.49463L19.0639-62.9821Q19.0639-65.3238 20.2703-66.5624Q21.4767-67.801 23.9493-67.801L39.2243-67.801L39.2243-48.3084Q39.2243-43.6147 41.5257-41.3134Q43.8271-39.012 48.5207-39.012L67.647-39.012L67.647-7.49463Q67.647-5.16846 66.4483-3.92212Q65.2497-2.67578 62.7948-2.67578ZM49.3353-46.9236Q47.1026-46.9236 47.1026-49.1562L47.1026-66.8087L66.6547-46.9236Z"/>
  </g>
  <g id="Medium-S" transform="matrix(1 0 0 1 1703.66 696)">
   <path d="M22.5576 6.3125L63.2031 6.3125Q69.54 6.3125 72.7876 3.0249Q76.0352-0.262695 76.0352-6.63965L76.0352-40.7871Q76.0352-45.0771 75.2148-47.5586Q74.3945-50.04 71.7285-52.7861L52.3789-72.4961Q49.793-75.1221 47.2915-75.9624Q44.79-76.8027 40.9404-76.8027L22.5576-76.8027Q16.2207-76.8027 12.9932-73.5151Q9.76562-70.2275 9.76562-63.8506L9.76562-6.63965Q9.76562-0.222656 12.9932 3.04492Q16.2207 6.3125 22.5576 6.3125ZM23.2422-2.00195Q20.6748-2.00195 19.3774-3.33252Q18.0801-4.66309 18.0801-7.12402L18.0801-63.3662Q18.0801-65.8359 19.3774-67.1621Q20.6748-68.4883 23.2822-68.4883L39.0693-68.4883L39.0693-48.0254Q39.0693-43.7158 41.209-41.5762Q43.3486-39.4365 47.6582-39.4365L67.6807-39.4365L67.6807-7.12402Q67.6807-4.66309 66.3877-3.33252Q65.0947-2.00195 62.5186-2.00195ZM48.4795-46.7754Q46.3682-46.7754 46.3682-48.8867L46.3682-67.3545L66.5469-46.7754Z"/>
  </g>
  <g id="Regular-S" transform="matrix(1 0 0 1 1407.56 696)">
   <path d="M22.0215 5.9082L62.5 5.9082Q68.6523 5.9082 71.7285 2.7832Q74.8047-0.341797 74.8047-6.54297L74.8047-40.5762Q74.8047-44.6289 74.0723-46.8994Q73.3398-49.1699 70.8496-51.7578L50.5859-72.4609Q48.1934-74.9023 45.8984-75.6592Q43.6035-76.416 40.0879-76.416L22.0215-76.416Q15.8691-76.416 12.8174-73.291Q9.76562-70.166 9.76562-63.9648L9.76562-6.54297Q9.76562-0.292969 12.8174 2.80762Q15.8691 5.9082 22.0215 5.9082ZM22.3633-1.12305Q19.6289-1.12305 18.2129-2.56348Q16.7969-4.00391 16.7969-6.64062L16.7969-63.8672Q16.7969-66.5039 18.2129-67.9443Q19.6289-69.3848 22.4121-69.3848L38.8672-69.3848L38.8672-47.6562Q38.8672-43.8477 40.7959-41.9189Q42.7246-39.9902 46.5332-39.9902L67.7246-39.9902L67.7246-6.64062Q67.7246-4.00391 66.3086-2.56348Q64.8926-1.12305 62.1582-1.12305ZM47.3633-46.582Q45.4102-46.582 45.4102-48.5352L45.4102-68.0664L66.4062-46.582Z"/>
  </g>
  <g id="Light-S" transform="matrix(1 0 0 1 1111.47 696)">
   <path d="M21.2646 5.6661L62.0308 5.6661Q67.7745 5.6661 70.6689 2.73031Q73.5634-0.205485 73.5634-5.96771L73.5634-41.3027Q73.5634-44.6894 72.9219-46.5967Q72.2804-48.5039 70.2138-50.6378L48.4062-72.7486Q46.3921-74.7963 44.4681-75.4548Q42.544-76.1134 39.5279-76.1134L21.2646-76.1134Q15.5512-76.1134 12.6584-73.1776Q9.76562-70.2418 9.76562-64.4796L9.76562-5.96771Q9.76562-0.171916 12.6509 2.74709Q15.5362 5.6661 21.2646 5.6661ZM21.5307 0.239309Q18.4029 0.239309 16.7976-1.39033Q15.1924-3.01997 15.1924-6.06537L15.1924-64.3819Q15.1924-67.3818 16.7976-69.0342Q18.4029-70.6866 21.5645-70.6866L39.0185-70.6866L39.0185-48.0499Q39.0185-44.6045 40.7429-42.918Q42.4672-41.2315 45.8369-41.2315L68.1183-41.2315L68.1183-6.06537Q68.1183-3.01997 66.5054-1.39033Q64.8926 0.239309 61.7645 0.239309ZM46.4399-46.3549Q44.1083-46.3549 44.1083-48.6715L44.1083-69.6103L67.042-46.3549Z"/>
  </g>
  <g id="Thin-S" transform="matrix(1 0 0 1 815.578 696)">
   <path d="M20.2637 5.34589L61.4102 5.34589Q66.6134 5.34589 69.2675 2.66035Q71.9217-0.0252016 71.9217-5.20689L71.9217-42.2637Q71.9217-44.7695 71.4004-46.1962Q70.8791-47.623 69.373-49.1565L45.5234-73.129Q44.0097-74.656 42.5763-75.1846Q41.1428-75.7131 38.7873-75.7131L20.2637-75.7131Q15.1308-75.7131 12.4482-73.0276Q9.76562-70.342 9.76562-65.1603L9.76562-5.20689Q9.76562-0.0118133 12.4308 2.66704Q15.096 5.34589 20.2637 5.34589ZM20.4295 2.04113Q16.7813 2.04113 14.9259 0.161251Q13.0704-1.71863 13.0704-5.30455L13.0704-65.0627Q13.0704-68.5429 14.9259-70.4756Q16.7813-72.4084 20.4434-72.4084L39.2186-72.4084L39.2186-48.5706Q39.2186-45.6055 40.6727-44.2394Q42.1269-42.8733 44.916-42.8733L68.639-42.8733L68.639-5.30455Q68.639-1.71863 66.7658 0.161251Q64.8926 2.04113 61.2439 2.04113ZM45.2186-46.0546Q42.3866-46.0546 42.3866-48.8518L42.3866-71.6523L67.8829-46.0546Z"/>
  </g>
  <g id="Ultralight-S" transform="matrix(1 0 0 1 519.288 696)">
   <path d="M19.751 5.18188L61.0924 5.18188Q66.0187 5.18188 68.5497 2.62451Q71.0808 0.0671387 71.0808-4.8172L71.0808-42.7559Q71.0808-44.8105 70.6211-45.9911Q70.1614-47.1718 68.9423-48.3978L44.0468-73.3238Q42.7895-74.5842 41.6073-75.0462Q40.4251-75.5081 38.4079-75.5081L19.751-75.5081Q14.9155-75.5081 12.3405-72.9507Q9.76562-70.3934 9.76562-65.509L9.76562-4.8172Q9.76562 0.0701904 12.318 2.62604Q14.8705 5.18188 19.751 5.18188ZM19.8654 2.96402Q15.9508 2.96402 13.9671 0.955963Q11.9835-1.05209 11.9835-4.91486L11.9835-65.4114Q11.9835-69.1376 13.9671-71.2139Q15.9508-73.2903 19.8692-73.2903L39.3211-73.2903L39.3211-48.8373Q39.3211-46.1182 40.6368-44.9162Q41.9525-43.7141 44.4443-43.7141L68.9056-43.7141L68.9056-4.91486Q68.9056-1.05209 66.8991 0.955963Q64.8926 2.96402 60.9772 2.96402ZM44.593-45.9007Q41.5047-45.9007 41.5047-48.9441L41.5047-72.6982L68.3136-45.9007Z"/>
  </g>
 </g>
</svg>
