<?xml version="1.0" encoding="UTF-8"?>
<!--Generator: Apple Native CoreSVG 175-->
<!DOCTYPE svg
PUBLIC "-//W3C//DTD SVG 1.1//EN"
       "http://www.w3.org/Graphics/SVG/1.1/DTD/svg11.dtd">
<svg version="1.1" xmlns="http://www.w3.org/2000/svg" xmlns:xlink="http://www.w3.org/1999/xlink" width="3300" height="2200">
 <!--glyph: "uni100231.medium", point size: 100.0, font version: "17.1d1e1", template writer version: "65.1"-->
 <g id="Notes">
  <rect height="2200" id="artboard" style="fill:white;opacity:1" width="3300" x="0" y="0"/>
  <line style="fill:none;stroke:black;opacity:1;stroke-width:0.5;" x1="263" x2="3036" y1="292" y2="292"/>
  <text style="stroke:none;fill:black;font-family:sans-serif;font-size:13;font-weight:bold;" transform="matrix(1 0 0 1 263 322)">Weight/Scale Variations</text>
  <text style="stroke:none;fill:black;font-family:sans-serif;font-size:13;text-anchor:middle;" transform="matrix(1 0 0 1 559.711 322)">Ultralight</text>
  <text style="stroke:none;fill:black;font-family:sans-serif;font-size:13;text-anchor:middle;" transform="matrix(1 0 0 1 856.422 322)">Thin</text>
  <text style="stroke:none;fill:black;font-family:sans-serif;font-size:13;text-anchor:middle;" transform="matrix(1 0 0 1 1153.13 322)">Light</text>
  <text style="stroke:none;fill:black;font-family:sans-serif;font-size:13;text-anchor:middle;" transform="matrix(1 0 0 1 1449.84 322)">Regular</text>
  <text style="stroke:none;fill:black;font-family:sans-serif;font-size:13;text-anchor:middle;" transform="matrix(1 0 0 1 1746.56 322)">Medium</text>
  <text style="stroke:none;fill:black;font-family:sans-serif;font-size:13;text-anchor:middle;" transform="matrix(1 0 0 1 2043.27 322)">Semibold</text>
  <text style="stroke:none;fill:black;font-family:sans-serif;font-size:13;text-anchor:middle;" transform="matrix(1 0 0 1 2339.98 322)">Bold</text>
  <text style="stroke:none;fill:black;font-family:sans-serif;font-size:13;text-anchor:middle;" transform="matrix(1 0 0 1 2636.69 322)">Heavy</text>
  <text style="stroke:none;fill:black;font-family:sans-serif;font-size:13;text-anchor:middle;" transform="matrix(1 0 0 1 2933.4 322)">Black</text>
  <line style="fill:none;stroke:black;opacity:1;stroke-width:0.5;" x1="263" x2="3036" y1="1903" y2="1903"/>
  <g transform="matrix(1 0 0 1 263 1933)">
   <path d="M9.24805 0.830078Q10.8691 0.830078 12.2949 0.214844Q13.7207-0.400391 14.8096-1.49414Q15.8984-2.58789 16.5186-4.01367Q17.1387-5.43945 17.1387-7.05078Q17.1387-8.66211 16.5186-10.0879Q15.8984-11.5137 14.8047-12.6074Q13.7109-13.7012 12.2852-14.3164Q10.8594-14.9316 9.23828-14.9316Q7.62695-14.9316 6.20117-14.3164Q4.77539-13.7012 3.69141-12.6074Q2.60742-11.5137 1.9873-10.0879Q1.36719-8.66211 1.36719-7.05078Q1.36719-5.43945 1.9873-4.01367Q2.60742-2.58789 3.69629-1.49414Q4.78516-0.400391 6.21094 0.214844Q7.63672 0.830078 9.24805 0.830078ZM9.24805-0.654297Q7.91992-0.654297 6.7627-1.14746Q5.60547-1.64062 4.73145-2.51953Q3.85742-3.39844 3.36426-4.56055Q2.87109-5.72266 2.87109-7.05078Q2.87109-8.37891 3.35938-9.54102Q3.84766-10.7031 4.72168-11.582Q5.5957-12.4609 6.75293-12.9541Q7.91016-13.4473 9.23828-13.4473Q10.5762-13.4473 11.7334-12.9541Q12.8906-12.4609 13.7695-11.582Q14.6484-10.7031 15.1465-9.54102Q15.6445-8.37891 15.6445-7.05078Q15.6445-5.72266 15.1514-4.56055Q14.6582-3.39844 13.7842-2.51953Q12.9102-1.64062 11.748-1.14746Q10.5859-0.654297 9.24805-0.654297ZM5.6543-7.05078Q5.6543-6.72852 5.85938-6.52832Q6.06445-6.32812 6.40625-6.32812L8.51562-6.32812L8.51562-4.20898Q8.51562-3.88672 8.71094-3.67676Q8.90625-3.4668 9.23828-3.4668Q9.56055-3.4668 9.77051-3.67676Q9.98047-3.88672 9.98047-4.20898L9.98047-6.32812L12.0898-6.32812Q12.4219-6.32812 12.627-6.52832Q12.832-6.72852 12.832-7.05078Q12.832-7.38281 12.627-7.58789Q12.4219-7.79297 12.0898-7.79297L9.98047-7.79297L9.98047-9.90234Q9.98047-10.2344 9.77051-10.4443Q9.56055-10.6543 9.23828-10.6543Q8.90625-10.6543 8.71094-10.4443Q8.51562-10.2344 8.51562-9.90234L8.51562-7.79297L6.40625-7.79297Q6.06445-7.79297 5.85938-7.58789Q5.6543-7.38281 5.6543-7.05078Z"/>
  </g>
  <g transform="matrix(1 0 0 1 281.867 1933)">
   <path d="M11.709 2.91016Q13.75 2.91016 15.5518 2.12891Q17.3535 1.34766 18.7305-0.0292969Q20.1074-1.40625 20.8887-3.20801Q21.6699-5.00977 21.6699-7.05078Q21.6699-9.0918 20.8887-10.8936Q20.1074-12.6953 18.7305-14.0723Q17.3535-15.4492 15.5469-16.2305Q13.7402-17.0117 11.6992-17.0117Q9.6582-17.0117 7.85645-16.2305Q6.05469-15.4492 4.68262-14.0723Q3.31055-12.6953 2.5293-10.8936Q1.74805-9.0918 1.74805-7.05078Q1.74805-5.00977 2.5293-3.20801Q3.31055-1.40625 4.6875-0.0292969Q6.06445 1.34766 7.86621 2.12891Q9.66797 2.91016 11.709 2.91016ZM11.709 1.25Q9.98047 1.25 8.47656 0.605469Q6.97266-0.0390625 5.83496-1.17676Q4.69727-2.31445 4.05762-3.81836Q3.41797-5.32227 3.41797-7.05078Q3.41797-8.7793 4.05762-10.2832Q4.69727-11.7871 5.83008-12.9297Q6.96289-14.0723 8.4668-14.7119Q9.9707-15.3516 11.6992-15.3516Q13.4277-15.3516 14.9316-14.7119Q16.4355-14.0723 17.5781-12.9297Q18.7207-11.7871 19.3652-10.2832Q20.0098-8.7793 20.0098-7.05078Q20.0098-5.32227 19.3701-3.81836Q18.7305-2.31445 17.5928-1.17676Q16.4551-0.0390625 14.9463 0.605469Q13.4375 1.25 11.709 1.25ZM7.17773-7.05078Q7.17773-6.69922 7.41211-6.47461Q7.64648-6.25 8.01758-6.25L10.8887-6.25L10.8887-3.36914Q10.8887-2.99805 11.1133-2.76855Q11.3379-2.53906 11.6895-2.53906Q12.0605-2.53906 12.29-2.76855Q12.5195-2.99805 12.5195-3.36914L12.5195-6.25L15.4004-6.25Q15.7715-6.25 16.001-6.47461Q16.2305-6.69922 16.2305-7.05078Q16.2305-7.42188 16.001-7.65137Q15.7715-7.88086 15.4004-7.88086L12.5195-7.88086L12.5195-10.752Q12.5195-11.1328 12.29-11.3623Q12.0605-11.5918 11.6895-11.5918Q11.3379-11.5918 11.1133-11.3574Q10.8887-11.123 10.8887-10.752L10.8887-7.88086L8.01758-7.88086Q7.63672-7.88086 7.40723-7.65137Q7.17773-7.42188 7.17773-7.05078Z"/>
  </g>
  <g transform="matrix(1 0 0 1 305.646 1933)">
   <path d="M14.9707 5.66406Q17.0605 5.66406 18.96 5.01465Q20.8594 4.36523 22.4512 3.19336Q24.043 2.02148 25.2197 0.429688Q26.3965-1.16211 27.0459-3.06641Q27.6953-4.9707 27.6953-7.05078Q27.6953-9.14062 27.0459-11.04Q26.3965-12.9395 25.2197-14.5312Q24.043-16.123 22.4512-17.2998Q20.8594-18.4766 18.9551-19.126Q17.0508-19.7754 14.9609-19.7754Q12.8711-19.7754 10.9717-19.126Q9.07227-18.4766 7.48535-17.2998Q5.89844-16.123 4.72168-14.5312Q3.54492-12.9395 2.90039-11.04Q2.25586-9.14062 2.25586-7.05078Q2.25586-4.9707 2.90527-3.06641Q3.55469-1.16211 4.72656 0.429688Q5.89844 2.02148 7.49023 3.19336Q9.08203 4.36523 10.9814 5.01465Q12.8809 5.66406 14.9707 5.66406ZM14.9707 3.84766Q13.1641 3.84766 11.5283 3.2959Q9.89258 2.74414 8.53516 1.74805Q7.17773 0.751953 6.17676-0.610352Q5.17578-1.97266 4.62891-3.6084Q4.08203-5.24414 4.08203-7.05078Q4.08203-8.86719 4.62891-10.5029Q5.17578-12.1387 6.17188-13.501Q7.16797-14.8633 8.52539-15.8594Q9.88281-16.8555 11.5186-17.4023Q13.1543-17.9492 14.9609-17.9492Q16.7773-17.9492 18.4131-17.4023Q20.0488-16.8555 21.4111-15.8594Q22.7734-14.8633 23.7695-13.501Q24.7656-12.1387 25.3174-10.5029Q25.8691-8.86719 25.8691-7.05078Q25.8789-5.24414 25.332-3.6084Q24.7852-1.97266 23.7842-0.610352Q22.7832 0.751953 21.4209 1.74805Q20.0586 2.74414 18.4229 3.2959Q16.7871 3.84766 14.9707 3.84766ZM9.19922-7.05078Q9.19922-6.66992 9.45801-6.4209Q9.7168-6.17188 10.1172-6.17188L14.0625-6.17188L14.0625-2.2168Q14.0625-1.81641 14.3115-1.55762Q14.5605-1.29883 14.9512-1.29883Q15.3516-1.29883 15.6104-1.55273Q15.8691-1.80664 15.8691-2.2168L15.8691-6.17188L19.8242-6.17188Q20.2246-6.17188 20.4785-6.4209Q20.7324-6.66992 20.7324-7.05078Q20.7324-7.46094 20.4785-7.71484Q20.2246-7.96875 19.8242-7.96875L15.8691-7.96875L15.8691-11.9141Q15.8691-12.3242 15.6104-12.583Q15.3516-12.8418 14.9512-12.8418Q14.5605-12.8418 14.3115-12.583Q14.0625-12.3242 14.0625-11.9141L14.0625-7.96875L10.1172-7.96875Q9.70703-7.96875 9.45312-7.71484Q9.19922-7.46094 9.19922-7.05078Z"/>
  </g>
  <text style="stroke:none;fill:black;font-family:sans-serif;font-size:13;font-weight:bold;" transform="matrix(1 0 0 1 263 1953)">Design Variations</text>
  <text style="stroke:none;fill:black;font-family:sans-serif;font-size:13;" transform="matrix(1 0 0 1 263 1971)">Symbols are supported in up to nine weights and three scales.</text>
  <text style="stroke:none;fill:black;font-family:sans-serif;font-size:13;" transform="matrix(1 0 0 1 263 1989)">For optimal layout with text and other symbols, vertically align</text>
  <text style="stroke:none;fill:black;font-family:sans-serif;font-size:13;" transform="matrix(1 0 0 1 263 2007)">symbols with the adjacent text.</text>
  <line style="fill:none;stroke:#00AEEF;stroke-width:0.5;opacity:1.0;" x1="776" x2="776" y1="1919" y2="1933"/>
  <g transform="matrix(1 0 0 1 776 1933)">
   <path d="M3.31055 0.15625Q3.70117 0.15625 3.91602-0.00976562Q4.13086-0.175781 4.26758-0.585938L5.52734-4.0332L11.2891-4.0332L12.5488-0.585938Q12.6855-0.175781 12.9004-0.00976562Q13.1152 0.15625 13.4961 0.15625Q13.8867 0.15625 14.1162-0.0585938Q14.3457-0.273438 14.3457-0.644531Q14.3457-0.869141 14.2383-1.17188L9.6582-13.3691Q9.48242-13.8184 9.17969-14.043Q8.87695-14.2676 8.4082-14.2676Q7.5-14.2676 7.17773-13.3789L2.59766-1.16211Q2.49023-0.859375 2.49023-0.634766Q2.49023-0.263672 2.70996-0.0537109Q2.92969 0.15625 3.31055 0.15625ZM6.00586-5.51758L8.37891-12.0898L8.42773-12.0898L10.8008-5.51758Z"/>
  </g>
  <line style="fill:none;stroke:#00AEEF;stroke-width:0.5;opacity:1.0;" x1="793.197" x2="793.197" y1="1919" y2="1933"/>
  <text style="stroke:none;fill:black;font-family:sans-serif;font-size:13;font-weight:bold;" transform="matrix(1 0 0 1 776 1953)">Margins</text>
  <text style="stroke:none;fill:black;font-family:sans-serif;font-size:13;" transform="matrix(1 0 0 1 776 1971)">Leading and trailing margins on the left and right side of each symbol</text>
  <text style="stroke:none;fill:black;font-family:sans-serif;font-size:13;" transform="matrix(1 0 0 1 776 1989)">can be adjusted by modifying the x-location of the margin guidelines.</text>
  <text style="stroke:none;fill:black;font-family:sans-serif;font-size:13;" transform="matrix(1 0 0 1 776 2007)">Modifications are automatically applied proportionally to all</text>
  <text style="stroke:none;fill:black;font-family:sans-serif;font-size:13;" transform="matrix(1 0 0 1 776 2025)">scales and weights.</text>
  <g transform="matrix(1 0 0 1 1289 1933)">
   <path d="M2.8418 1.86523L4.54102 3.57422Q5.18555 4.22852 5.90332 4.17969Q6.62109 4.13086 7.31445 3.35938L18.0078-8.42773L17.041-9.4043L6.42578 2.27539Q6.16211 2.57812 5.89355 2.61719Q5.625 2.65625 5.27344 2.30469L4.10156 1.14258Q3.75 0.791016 3.79395 0.522461Q3.83789 0.253906 4.14062-0.0195312L15.6152-10.8203L14.6387-11.7871L3.04688-0.898438Q2.30469-0.214844 2.25098 0.498047Q2.19727 1.21094 2.8418 1.86523ZM9.25781-16.3281Q8.94531-16.0254 8.90625-15.6348Q8.86719-15.2441 9.04297-14.9512Q9.21875-14.6777 9.55566-14.541Q9.89258-14.4043 10.3809-14.5215Q11.4746-14.7754 12.5977-14.7314Q13.7207-14.6875 14.7949-13.9844L14.209-12.5293Q13.9551-11.9043 14.0674-11.4404Q14.1797-10.9766 14.5801-10.5664L16.875-8.25195Q17.2363-7.88086 17.5781-7.82227Q17.9199-7.76367 18.3398-7.8418L19.4043-8.03711L20.0684-7.36328L20.0293-6.80664Q20-6.43555 20.1221-6.12305Q20.2441-5.81055 20.6055-5.44922L21.3672-4.70703Q21.7285-4.3457 22.1533-4.33105Q22.5781-4.31641 22.9297-4.66797L25.8398-7.58789Q26.1914-7.93945 26.1816-8.35449Q26.1719-8.76953 25.8105-9.13086L25.0391-9.89258Q24.6875-10.2539 24.3799-10.3857Q24.0723-10.5176 23.7109-10.4883L23.1348-10.4395L22.4902-11.0742L22.7344-12.1973Q22.832-12.6172 22.6953-12.9834Q22.5586-13.3496 22.1191-13.7891L19.9219-15.9766Q18.6719-17.2168 17.2607-17.8369Q15.8496-18.457 14.4189-18.4814Q12.9883-18.5059 11.665-17.959Q10.3418-17.4121 9.25781-16.3281ZM10.752-15.957Q11.6602-16.6211 12.7002-16.9043Q13.7402-17.1875 14.8047-17.085Q15.8691-16.9824 16.8701-16.5137Q17.8711-16.0449 18.7012-15.2051L21.1328-12.793Q21.3086-12.6172 21.3525-12.4512Q21.3965-12.2852 21.3379-12.0312L21.0156-10.5469L22.5195-9.0625L23.5059-9.12109Q23.6914-9.13086 23.7891-9.09668Q23.8867-9.0625 24.0332-8.91602L24.6094-8.33984L22.168-5.89844L21.5918-6.47461Q21.4453-6.62109 21.4062-6.71875Q21.3672-6.81641 21.377-7.01172L21.4453-7.98828L19.9512-9.47266L18.4277-9.21875Q18.1836-9.16992 18.042-9.2041Q17.9004-9.23828 17.7148-9.41406L15.7129-11.416Q15.5176-11.5918 15.4932-11.7529Q15.4688-11.9141 15.5859-12.1875L16.4648-14.2773Q15.293-15.3711 13.8281-15.791Q12.3633-16.2109 10.8398-15.7617Q10.7227-15.7324 10.6885-15.8057Q10.6543-15.8789 10.752-15.957Z"/>
  </g>
  <text style="stroke:none;fill:black;font-family:sans-serif;font-size:13;font-weight:bold;" transform="matrix(1 0 0 1 1289 1953)">Exporting</text>
  <text style="stroke:none;fill:black;font-family:sans-serif;font-size:13;" transform="matrix(1 0 0 1 1289 1971)">Symbols should be outlined when exporting to ensure the</text>
  <text style="stroke:none;fill:black;font-family:sans-serif;font-size:13;" transform="matrix(1 0 0 1 1289 1989)">design is preserved when submitting to Xcode.</text>
  <text id="template-version" style="stroke:none;fill:black;font-family:sans-serif;font-size:13;text-anchor:end;" transform="matrix(1 0 0 1 3036 1933)">Template v.3.0</text>
  <text style="stroke:none;fill:black;font-family:sans-serif;font-size:13;text-anchor:end;" transform="matrix(1 0 0 1 3036 1951)">Requires Xcode 13 or greater</text>
  <text id="descriptive-name" style="stroke:none;fill:black;font-family:sans-serif;font-size:13;text-anchor:end;" transform="matrix(1 0 0 1 3036 1969)">Generated from xmark.bin</text>
  <text style="stroke:none;fill:black;font-family:sans-serif;font-size:13;text-anchor:end;" transform="matrix(1 0 0 1 3036 1987)">Typeset at 100 points</text>
  <text style="stroke:none;fill:black;font-family:sans-serif;font-size:13;" transform="matrix(1 0 0 1 263 726)">Small</text>
  <text style="stroke:none;fill:black;font-family:sans-serif;font-size:13;" transform="matrix(1 0 0 1 263 1156)">Medium</text>
  <text style="stroke:none;fill:black;font-family:sans-serif;font-size:13;" transform="matrix(1 0 0 1 263 1586)">Large</text>
 </g>
 <g id="Guides">
  <g id="H-reference" style="fill:#27AAE1;stroke:none;" transform="matrix(1 0 0 1 339 696)">
   <path d="M0.993347 0L3.6377 0L29.3282-67.1326L30.0301-67.1326L30.0301-70.459L28.1227-70.459ZM11.6882-24.4797L46.9818-24.4797L46.2311-26.7288L12.4382-26.7288ZM55.1193 0L57.7637 0L30.6381-70.459L29.4327-70.459L29.4327-67.1326Z"/>
  </g>
  <line id="Baseline-S" style="fill:none;stroke:#27AAE1;opacity:1;stroke-width:0.5;" x1="263" x2="3036" y1="696" y2="696"/>
  <line id="Capline-S" style="fill:none;stroke:#27AAE1;opacity:1;stroke-width:0.5;" x1="263" x2="3036" y1="625.541" y2="625.541"/>
  <g id="H-reference" style="fill:#27AAE1;stroke:none;" transform="matrix(1 0 0 1 339 1126)">
   <path d="M0.993347 0L3.6377 0L29.3282-67.1326L30.0301-67.1326L30.0301-70.459L28.1227-70.459ZM11.6882-24.4797L46.9818-24.4797L46.2311-26.7288L12.4382-26.7288ZM55.1193 0L57.7637 0L30.6381-70.459L29.4327-70.459L29.4327-67.1326Z"/>
  </g>
  <line id="Baseline-M" style="fill:none;stroke:#27AAE1;opacity:1;stroke-width:0.5;" x1="263" x2="3036" y1="1126" y2="1126"/>
  <line id="Capline-M" style="fill:none;stroke:#27AAE1;opacity:1;stroke-width:0.5;" x1="263" x2="3036" y1="1055.54" y2="1055.54"/>
  <g id="H-reference" style="fill:#27AAE1;stroke:none;" transform="matrix(1 0 0 1 339 1556)">
   <path d="M0.993347 0L3.6377 0L29.3282-67.1326L30.0301-67.1326L30.0301-70.459L28.1227-70.459ZM11.6882-24.4797L46.9818-24.4797L46.2311-26.7288L12.4382-26.7288ZM55.1193 0L57.7637 0L30.6381-70.459L29.4327-70.459L29.4327-67.1326Z"/>
  </g>
  <line id="Baseline-L" style="fill:none;stroke:#27AAE1;opacity:1;stroke-width:0.5;" x1="263" x2="3036" y1="1556" y2="1556"/>
  <line id="Capline-L" style="fill:none;stroke:#27AAE1;opacity:1;stroke-width:0.5;" x1="263" x2="3036" y1="1485.54" y2="1485.54"/>
  <line id="left-margin-Regular-M" style="fill:none;stroke:#00AEEF;stroke-width:0.5;opacity:1.0;" x1="1378.83" x2="1378.83" y1="1030.79" y2="1150.12"/>
  <line id="right-margin-Regular-M" style="fill:none;stroke:#00AEEF;stroke-width:0.5;opacity:1.0;" x1="1520.85" x2="1520.85" y1="1030.79" y2="1150.12"/>
 </g>
 <g id="Symbols">
  <g id="Black-L" transform="matrix(1 0 0 1 2835.16 1556)">
   <path d="M63.4998 26.4225L132.98 26.4225Q144.162 26.4225 149.545 20.3264Q154.928 14.2303 156.722 3.15061L167.074-61.8771L147.676-61.6892L137.347 0.419882Q136.757 3.80181 135.354 5.2152Q133.95 6.6286 130.833 6.6286L65.6465 6.6286Q62.5849 6.6286 61.1542 5.2152Q59.7235 3.80181 59.1347 0.419882L48.8045-61.6892L29.4081-61.8771L39.7578 3.15061Q41.5532 14.2342 46.9367 20.3283Q52.3202 26.4225 63.4998 26.4225ZM34.8003-51.0478L161.74-51.0478Q170.234-51.0478 175.315-56.2738Q180.397-61.4997 180.397-69.9351L180.397-77.9112Q180.397-86.326 175.315-91.5622Q170.234-96.7985 161.74-96.7985L34.8003-96.7985Q26.4477-96.7985 21.2659-91.5622Q16.084-86.326 16.084-77.9112L16.084-69.9351Q16.084-61.4997 21.2244-56.2738Q26.3648-51.0478 34.8003-51.0478ZM36.7793-68.2512Q35.2623-68.2512 34.3784-69.1376Q33.4946-70.024 33.4946-71.5411L33.4946-76.2858Q33.4946-77.8029 34.3784-78.6887Q35.2623-79.5745 36.7793-79.5745L159.723-79.5745Q161.239-79.5745 162.113-78.6887Q162.986-77.8029 162.986-76.2858L162.986-71.5411Q162.986-70.024 162.113-69.1376Q161.239-68.2512 159.723-68.2512ZM83.363-0.346925Q86.3081-0.346925 88.4449-2.50443L98.2294-12.4447L108.015-2.50443Q109.14-1.37952 110.357-0.863223Q111.574-0.346925 113.118-0.346925Q116.047-0.346925 118.135-2.48434Q120.222-4.62176 120.222-7.54996Q120.222-10.5328 118.084-12.7123L108.341-22.3592L118.105-32.0476Q120.243-34.1687 120.243-37.1685Q120.243-40.1771 118.156-42.2743Q116.069-44.3715 113.118-44.3715Q110.214-44.3715 108.057-42.214L98.2294-32.2543L88.4242-42.1933Q86.2874-44.3301 83.363-44.3301Q80.4141-44.3301 78.3259-42.2426Q76.2378-40.1551 76.2378-37.1685Q76.2378-34.1065 78.3759-32.0269L88.1189-22.3592L78.3759-12.6916Q76.2378-10.5535 76.2378-7.54996Q76.2378-4.62176 78.3253-2.48434Q80.4128-0.346925 83.363-0.346925Z"/>
  </g>
  <g id="Heavy-L" transform="matrix(1 0 0 1 2540.02 1556)">
   <path d="M62.3571 25.5158L130.976 25.5158Q141.687 25.5158 146.855 19.8151Q152.023 14.1145 153.72 3.49336L164.032-62.3466L146.974-62.0728L136.704 1.36912Q136.081 5.1041 134.402 6.69495Q132.724 8.28579 129.298 8.28579L64.0352 8.28579Q60.6424 8.28579 58.9503 6.69495Q57.2583 5.1041 56.6415 1.36912L46.3654-62.0728L29.3138-62.3466L39.6136 3.49336Q41.3168 14.1326 46.4876 19.8242Q51.6585 25.5158 62.3571 25.5158ZM33.1293-52.9137L160.261-52.9137Q168.075-52.9137 172.665-57.6826Q177.256-62.4516 177.256-70.2212L177.256-78.5747Q177.256-86.3146 172.665-91.0985Q168.075-95.8823 160.261-95.8823L33.1293-95.8823Q25.4787-95.8823 20.7813-91.0985Q16.084-86.3146 16.084-78.5747L16.084-70.2212Q16.084-62.4516 20.7218-57.6826Q25.3597-52.9137 33.1293-52.9137ZM35.1945-68.1505Q33.475-68.1505 32.5467-69.0909Q31.6184-70.0312 31.6184-71.7507L31.6184-77.0215Q31.6184-78.741 32.5467-79.6783Q33.475-80.6157 35.1945-80.6157L158.181-80.6157Q159.894-80.6157 160.808-79.6783Q161.721-78.741 161.721-77.0215L161.721-71.7507Q161.721-70.0312 160.808-69.0909Q159.894-68.1505 158.181-68.1505ZM80.9505-0.298274Q83.6081-0.298274 85.5634-2.2833L96.6519-13.4819L107.746-2.2833Q108.746-1.28338 109.861-0.790826Q110.975-0.298274 112.389-0.298274Q115.068-0.298274 116.974-2.25656Q118.88-4.21484 118.88-6.8874Q118.88-9.55991 116.919-11.5807L105.89-22.5502L116.949-33.5793Q118.91-35.5555 118.91-38.2131Q118.91-40.966 117.007-42.8841Q115.103-44.8022 112.389-44.8022Q109.791-44.8022 107.806-42.8172L96.6519-31.5948L85.5336-42.7874Q83.5784-44.7427 80.9505-44.7427Q78.2481-44.7427 76.3389-42.8365Q74.4297-40.9303 74.4297-38.2131Q74.4297-35.4662 76.391-33.5495L87.42-22.5502L76.391-11.551Q74.4297-9.58968 74.4297-6.8874Q74.4297-4.21484 76.3359-2.25656Q78.2421-0.298274 80.9505-0.298274Z"/>
  </g>
  <g id="Bold-L" transform="matrix(1 0 0 1 2245.09 1556)">
   <path d="M61.1048 24.3864L128.649 24.3864Q138.781 24.3864 143.682 19.1338Q148.583 13.8813 150.163 3.84223L160.447-62.8892L146.289-62.5421L136.071 2.39645Q135.4 6.59832 133.376 8.44092Q131.351 10.2835 127.495 10.2835L62.2586 10.2835Q58.4032 10.2835 56.3857 8.44092Q54.3682 6.59832 53.7114 2.39645L43.4787-62.5421L29.335-62.8892L39.5904 3.84223Q41.1847 13.924 46.0932 19.1552Q51.0017 24.3864 61.1048 24.3864ZM31.1162-55.1793L158.695-55.1793Q165.672-55.1793 169.678-59.3982Q173.684-63.6171 173.684-70.5643L173.684-79.3515Q173.684-86.2616 169.678-90.4991Q165.672-94.7365 158.695-94.7365L31.1162-94.7365Q24.317-94.7365 20.2005-90.4991Q16.084-86.2616 16.084-79.3515L16.084-70.5643Q16.084-63.6171 20.1265-59.3982Q24.169-55.1793 31.1162-55.1793ZM33.1713-67.9602Q31.2195-67.9602 30.2272-68.981Q29.2348-70.0018 29.2348-71.9536L29.2348-77.9394Q29.2348-79.8912 30.2272-80.9049Q31.2195-81.9186 33.1713-81.9186L156.648-81.9186Q158.586-81.9186 159.559-80.9049Q160.533-79.8912 160.533-77.9394L160.533-71.9536Q160.533-70.0018 159.559-68.981Q158.586-67.9602 156.648-67.9602ZM78.1596-0.364732Q80.4467-0.364732 82.1558-2.11078L94.8584-14.8783L107.575-2.11078Q108.418-1.26793 109.394-0.816331Q110.369-0.364732 111.608-0.364732Q113.955-0.364732 115.619-2.0809Q117.284-3.79706 117.284-6.12897Q117.284-8.4083 115.56-10.2056L102.932-22.8128L115.597-35.4941Q117.321-37.2621 117.321-39.4967Q117.321-41.909 115.663-43.585Q114.006-45.2609 111.608-45.2609Q109.395-45.2609 107.649-43.5149L94.8584-30.7246L82.1188-43.4779Q80.4097-45.1869 78.1596-45.1869Q75.7907-45.1869 74.119-43.5224Q72.4473-41.8578 72.4473-39.4967Q72.4473-37.1512 74.1706-35.4571L86.7993-22.8128L74.1706-10.1686Q72.4473-8.44529 72.4473-6.12897Q72.4473-3.79706 74.1119-2.0809Q75.7765-0.364732 78.1596-0.364732Z"/>
  </g>
  <g id="Semibold-L" transform="matrix(1 0 0 1 1949.61 1556)">
   <path d="M60.2414 23.6077L127.045 23.6077Q136.777 23.6077 141.495 18.6641Q146.212 13.7205 147.712 4.08274L157.976-63.2632L145.817-62.8656L135.634 3.10468Q134.93 7.62842 132.668 9.64458Q130.405 11.6607 126.252 11.6607L61.0338 11.6607Q56.8596 11.6607 54.6177 9.64458Q52.3758 7.62842 51.6914 3.10468L41.4886-62.8656L29.3496-63.2632L39.5744 4.08274Q41.0937 13.7801 45.8213 18.6939Q50.5489 23.6077 60.2414 23.6077ZM29.7283-56.7412L157.616-56.7412Q164.015-56.7412 167.618-60.5809Q171.222-64.4207 171.222-70.8008L171.222-79.8869Q171.222-86.2251 167.618-90.0858Q164.015-93.9466 157.616-93.9466L29.7283-93.9466Q23.5161-93.9466 19.8-90.0858Q16.084-86.2251 16.084-79.8869L16.084-70.8008Q16.084-64.4207 19.7161-60.5809Q23.3482-56.7412 29.7283-56.7412ZM31.7765-67.829Q29.6646-67.829 28.6281-68.9053Q27.5915-69.9816 27.5915-72.0935L27.5915-78.5722Q27.5915-80.6841 28.6281-81.7504Q29.6646-82.8168 31.7765-82.8168L155.591-82.8168Q157.683-82.8168 158.699-81.7504Q159.714-80.6841 159.714-78.5722L159.714-72.0935Q159.714-69.9816 158.699-68.9053Q157.683-67.829 155.591-67.829ZM76.2356-0.410547Q78.2673-0.410547 79.8066-1.99184L93.622-15.8409L107.457-1.99184Q108.192-1.25728 109.072-0.833913Q109.951-0.410547 111.07-0.410547Q113.187-0.410547 114.685-1.9598Q116.183-3.50905 116.183-5.60611Q116.183-7.61439 114.624-9.25752L100.893-22.9939L114.666-36.8141Q116.225-38.4387 116.225-40.3816Q116.225-42.5591 114.737-44.0681Q113.249-45.5772 111.07-45.5772Q109.123-45.5772 107.541-43.9959L93.622-30.1247L79.7646-43.9539Q78.2253-45.4932 76.2356-45.4932Q74.0966-45.4932 72.5886-43.9952Q71.0807-42.4972 71.0807-40.3816Q71.0807-38.3128 72.6399-36.7722L86.3714-22.9939L72.6399-9.21555Q71.0807-7.65636 71.0807-5.60611Q71.0807-3.50905 72.5787-1.9598Q74.0767-0.410547 76.2356-0.410547Z"/>
  </g>
  <g id="Medium-L" transform="matrix(1 0 0 1 1653.83 1556)">
   <path d="M59.5868 23.0174L125.828 23.0174Q135.258 23.0174 139.836 18.308Q144.414 13.5986 145.853 4.26511L156.103-63.5469L145.459-63.1109L135.303 3.64169Q134.574 8.40949 132.131 10.5572Q129.688 12.705 125.31 12.705L60.1051 12.705Q55.6891 12.705 53.2771 10.5572Q50.865 8.40949 50.1597 3.64169L39.9796-63.1109L29.3606-63.5469L39.5623 4.26511Q41.0246 13.6711 45.6151 18.3442Q50.2055 23.0174 59.5868 23.0174ZM28.676-57.9255L156.798-57.9255Q162.758-57.9255 166.057-61.4777Q169.355-65.03 169.355-70.9801L169.355-80.293Q169.355-86.1974 166.057-89.7725Q162.758-93.3476 156.798-93.3476L28.676-93.3476Q22.9088-93.3476 19.4964-89.7725Q16.084-86.1974 16.084-80.293L16.084-70.9801Q16.084-65.03 19.4049-61.4777Q22.7258-57.9255 28.676-57.9255ZM30.7189-67.7295Q28.4856-67.7295 27.4156-68.8479Q26.3455-69.9662 26.3455-72.1995L26.3455-79.052Q26.3455-81.2853 27.4156-82.3916Q28.4856-83.4978 30.7189-83.4978L154.79-83.4978Q156.999-83.4978 158.046-82.3916Q159.093-81.2853 159.093-79.052L159.093-72.1995Q159.093-69.9662 158.046-68.8479Q156.999-67.7295 154.79-67.7295ZM74.7767-0.445286Q76.6147-0.445286 78.0253-1.90165L92.6846-16.5708L107.368-1.90165Q108.02-1.2492 108.827-0.847245Q109.634-0.445286 110.662-0.445286Q112.605-0.445286 113.977-1.86798Q115.349-3.29067 115.349-5.20965Q115.349-7.01241 113.914-8.53868L99.3463-23.1311L113.96-37.8151Q115.395-39.3308 115.395-41.0526Q115.395-43.052 114.035-44.4345Q112.675-45.817 110.662-45.817Q108.916-45.817 107.459-44.3606L92.6846-29.6698L77.9796-44.3149Q76.569-45.7255 74.7767-45.7255Q72.812-45.7255 71.4282-44.3538Q70.0445-42.9821 70.0445-41.0526Q70.0445-39.1936 71.4792-37.7693L86.047-23.1311L71.4792-8.49293Q70.0445-7.05816 70.0445-5.20965Q70.0445-3.29067 71.4161-1.86798Q72.7878-0.445286 74.7767-0.445286Z"/>
  </g>
  <g id="Regular-L" transform="matrix(1 0 0 1 1358.34 1556)">
   <path d="M58.7329 22.2473L124.241 22.2473Q133.276 22.2473 137.673 17.8435Q142.069 13.4396 143.428 4.50298L153.659-63.9168L144.993-63.4309L134.872 4.34214Q134.109 9.42828 131.431 11.7477Q128.752 14.0671 124.08 14.0671L58.8938 14.0671Q54.1624 14.0671 51.5284 11.7477Q48.8945 9.42828 48.1619 4.34214L38.0114-63.4309L29.3751-63.9168L39.5465 4.50298Q40.9346 13.5289 45.3462 17.8881Q49.7577 22.2473 58.7329 22.2473ZM27.3034-59.4702L155.73-59.4702Q161.12-59.4702 164.02-62.6474Q166.92-65.8247 166.92-71.2141L166.92-80.8226Q166.92-86.1613 164.02-89.3638Q161.12-92.5664 155.73-92.5664L27.3034-92.5664Q22.1167-92.5664 19.1004-89.3638Q16.084-86.1613 16.084-80.8226L16.084-71.2141Q16.084-65.8247 18.999-62.6474Q21.914-59.4702 27.3034-59.4702ZM29.3395-67.5998Q26.9478-67.5998 25.8341-68.773Q24.7203-69.9462 24.7203-72.3378L24.7203-79.6778Q24.7203-82.0695 25.8341-83.2278Q26.9478-84.3862 29.3395-84.3862L153.745-84.3862Q156.107-84.3862 157.195-83.2278Q158.284-82.0695 158.284-79.6778L158.284-72.3378Q158.284-69.9462 157.195-68.773Q156.107-67.5998 153.745-67.5998ZM72.8739-0.490598Q74.4592-0.490598 75.702-1.78402L91.4617-17.5229L107.251-1.78402Q107.797-1.23867 108.509-0.864634Q109.221-0.490598 110.13-0.490598Q111.847-0.490598 113.053-1.74821Q114.26-3.00582 114.26-4.69254Q114.26-6.22722 112.988-7.60106L97.3295-23.3102L113.039-39.1206Q114.311-40.4945 114.311-41.9278Q114.311-43.6949 113.119-44.9123Q111.927-46.1297 110.13-46.1297Q108.646-46.1297 107.353-44.8363L91.4617-29.0765L75.6513-44.7856Q74.4085-46.0284 72.8739-46.0284Q71.1364-46.0284 69.9147-44.8215Q68.6929-43.6145 68.6929-41.9278Q68.6929-40.3424 69.9653-39.07L85.6238-23.3102L69.9653-7.55038Q68.6929-6.2779 68.6929-4.69254Q68.6929-3.00582 69.8998-1.74821Q71.1067-0.490598 72.8739-0.490598Z"/>
  </g>
  <g id="Light-L" transform="matrix(1 0 0 1 1061.82 1556)">
   <path d="M58.9176 21.4264L123.626 21.4264Q132.291 21.4264 136.503 17.0636Q140.715 12.7008 142.012 4.25671L152.366-64.0399L145.711-63.7182L135.487 4.09587Q134.643 9.69506 131.698 12.3941Q128.752 15.0932 123.465 15.0932L59.0785 15.0932Q53.6904 15.0932 50.8204 12.3941Q47.9505 9.69506 47.1563 4.09587L36.8827-63.7182L30.278-64.0399L40.5315 4.25671Q41.8786 12.8516 46.1157 17.139Q50.3529 21.4264 58.9176 21.4264ZM26.2773-60.7426L156.366-60.7426Q161.202-60.7426 163.856-63.6428Q166.509-66.5429 166.509-71.3782L166.509-81.0688Q166.509-85.874 163.856-88.7892Q161.202-91.7045 156.366-91.7045L26.2773-91.7045Q21.5626-91.7045 18.8233-88.7892Q16.084-85.874 16.084-81.0688L16.084-71.3782Q16.084-66.5429 18.763-63.6428Q21.442-60.7426 26.2773-60.7426ZM27.554-67.0457Q25.1213-67.0457 23.905-68.3625Q22.6887-69.6794 22.6887-72.1121L22.6887-80.3551Q22.6887-82.7878 23.905-84.0795Q25.1213-85.3712 27.554-85.3712L155.12-85.3712Q157.502-85.3712 158.704-84.0795Q159.905-82.7878 159.905-80.3551L159.905-72.1121Q159.905-69.6794 158.704-68.3625Q157.502-67.0457 155.12-67.0457ZM72.2172-1.35252Q73.4536-1.35252 74.3885-2.31759L91.2565-19.2057L108.175-2.31759Q108.597-1.89537 109.135-1.62395Q109.673-1.35252 110.376-1.35252Q111.723-1.35252 112.653-2.31256Q113.583-3.2726 113.583-4.56941Q113.583-5.77574 112.598-6.82123L95.7903-23.659L112.628-40.5572Q113.613-41.6027 113.613-42.7487Q113.613-44.1259 112.709-45.0457Q111.804-45.9656 110.376-45.9656Q109.2-45.9656 108.235-45.0005L91.2565-28.1325L74.3584-44.9703Q73.4235-45.9052 72.2172-45.9052Q70.8902-45.9052 69.9352-44.9754Q68.9802-44.0455 68.9802-42.7487Q68.9802-41.5122 69.9653-40.527L86.773-23.659L69.9653-6.79107Q68.9802-5.8059 68.9802-4.56941Q68.9802-3.2726 69.91-2.31256Q70.8399-1.35252 72.2172-1.35252Z"/>
  </g>
  <g id="Thin-L" transform="matrix(1 0 0 1 765.379 1556)">
   <path d="M59.1619 20.3407L122.811 20.3407Q130.988 20.3407 134.956 16.0322Q138.924 11.7237 140.139 3.93101L150.656-64.2028L146.661-64.0982L136.302 3.77017Q135.349 10.0479 132.05 13.2491Q128.752 16.4503 122.65 16.4503L59.3227 16.4503Q53.0661 16.4503 49.884 13.2491Q46.7019 10.0479 45.8264 3.77017L35.3899-64.0982L31.4723-64.2028L41.8344 3.93101Q43.1271 11.9559 47.1336 16.1483Q51.14 20.3407 59.1619 20.3407ZM24.9202-62.4254L157.208-62.4254Q161.31-62.4254 163.638-64.9591Q165.967-67.4929 165.967-71.5954L165.967-81.3945Q165.967-85.494 163.638-88.0292Q161.31-90.5645 157.208-90.5645L24.9202-90.5645Q20.8298-90.5645 18.4569-88.0292Q16.084-85.494 16.084-81.3945L16.084-71.5954Q16.084-67.4929 18.4509-64.9591Q20.8177-62.4254 24.9202-62.4254ZM25.1927-66.3128Q22.7057-66.3128 21.3537-67.8197Q20.0016-69.3266 20.0016-71.8135L20.0016-81.2507Q20.0016-83.7377 21.3537-85.2059Q22.7057-86.674 25.1927-86.674L156.938-86.674Q159.348-86.674 160.698-85.2059Q162.049-83.7377 162.049-81.2507L162.049-71.8135Q162.049-69.3266 160.698-67.8197Q159.348-66.3128 156.938-66.3128ZM71.3486-2.49248Q72.1237-2.49248 72.6515-3.02328L90.9851-21.4313L109.396-3.02328Q109.656-2.76392 109.963-2.6282Q110.27-2.49248 110.702-2.49248Q111.561-2.49248 112.124-3.05896Q112.687-3.62545 112.687-4.40656Q112.687-5.17861 112.082-5.78983L93.7547-24.1205L112.085-42.4571Q112.69-43.0683 112.69-43.8344Q112.69-44.6959 112.166-45.2222Q111.641-45.7484 110.702-45.7484Q109.933-45.7484 109.402-45.2176L90.9851-26.884L72.6484-45.2146Q72.1207-45.7424 71.3486-45.7424Q70.5645-45.7424 69.9623-45.1789Q69.3601-44.6155 69.3601-43.8344Q69.3601-43.0593 69.9653-42.4541L88.2929-24.1205L69.9653-5.78682Q69.3601-5.18163 69.3601-4.40656Q69.3601-3.62545 69.9236-3.05896Q70.4871-2.49248 71.3486-2.49248Z"/>
  </g>
  <g id="Ultralight-L" transform="matrix(1 0 0 1 468.803 1556)">
   <path d="M59.287 19.7847L122.394 19.7847Q130.321 19.7847 134.163 15.504Q138.006 11.2233 139.18 3.76419L149.78-64.2862L147.147-64.2928L136.719 3.60335Q135.71 10.2286 132.231 13.687Q128.752 17.1454 122.233 17.1454L59.4479 17.1454Q52.7464 17.1454 49.4044 13.687Q46.0624 10.2286 45.1452 3.60335L34.6253-64.2928L32.084-64.2862L42.5017 3.76419Q43.7666 11.4972 47.6549 15.6409Q51.5431 19.7847 59.287 19.7847ZM24.2251-63.2873L157.639-63.2873Q161.366-63.2873 163.527-65.6334Q165.689-67.9795 165.689-71.7066L165.689-81.5614Q165.689-85.2993 163.527-87.64Q161.366-89.9806 157.639-89.9806L24.2251-89.9806Q20.4545-89.9806 18.2692-87.64Q16.084-85.2993 16.084-81.5614L16.084-71.7066Q16.084-67.9795 18.291-65.6334Q20.498-63.2873 24.2251-63.2873ZM23.9832-65.9375Q21.4684-65.9375 20.0469-67.5417Q18.6253-69.1458 18.6253-71.6606L18.6253-81.7095Q18.6253-84.2243 20.0469-85.7828Q21.4684-87.3413 23.9832-87.3413L157.87-87.3413Q160.293-87.3413 161.72-85.7828Q163.147-84.2243 163.147-81.7095L163.147-71.6606Q163.147-69.1458 161.72-67.5417Q160.293-65.9375 157.87-65.9375ZM70.9037-3.07637Q71.4425-3.07637 71.7617-3.38473L90.8461-22.5713L110.022-3.38473Q110.198-3.20878 110.387-3.14257Q110.576-3.07637 110.869-3.07637Q111.477-3.07637 111.853-3.44127Q112.229-3.80617 112.229-4.32314Q112.229-4.87277 111.818-5.26156L92.712-24.3568L111.807-43.4303Q112.218-43.819 112.218-44.3904Q112.218-44.9878 111.888-45.3125Q111.558-45.6372 110.869-45.6372Q110.308-45.6372 110-45.3288L90.8461-26.2445L71.7726-45.3397Q71.4534-45.659 70.9037-45.659Q70.3977-45.659 69.9762-45.2832Q69.5548-44.9074 69.5548-44.3904Q69.5548-43.8517 69.9653-43.4411L89.0714-24.3568L69.9653-5.27244Q69.5548-4.86189 69.5548-4.32314Q69.5548-3.80617 69.9306-3.44127Q70.3064-3.07637 70.9037-3.07637Z"/>
  </g>
  <g id="Black-M" transform="matrix(1 0 0 1 2855.97 1126)">
   <path d="M50.2031 13.203L104.663 13.203Q113.682 13.203 118.012 8.14575Q122.342 3.08853 123.807-5.82275L131.879-55.4876L115.112-55.4383L107.045-8.4596Q106.605-6.07339 105.718-5.07944Q104.831-4.0855 102.597-4.0855L52.2689-4.0855Q50.0926-4.0855 49.1769-5.07944Q48.2611-6.07339 47.8207-8.4596L39.7542-55.4383L22.9871-55.4876L31.0594-5.82275Q32.5241 3.08762 36.854 8.14529Q41.184 13.203 50.2031 13.203ZM28.2583-46.0535L126.664-46.0535Q133.754-46.0535 138.08-50.4574Q142.405-54.8613 142.405-61.8938L142.405-67.76Q142.405-74.7869 138.08-79.1936Q133.754-83.6003 126.664-83.6003L28.2583-83.6003Q21.2479-83.6003 16.8544-79.1936Q12.4609-74.7869 12.4609-67.76L12.4609-61.8938Q12.4609-54.8613 16.8434-50.4574Q21.2259-46.0535 28.2583-46.0535ZM29.6146-60.8242Q28.6078-60.8242 27.9473-61.4841Q27.2868-62.144 27.2868-63.1508L27.2868-66.4971Q27.2868-67.504 27.9473-68.164Q28.6078-68.824 29.6146-68.824L125.257-68.824Q126.264-68.824 126.921-68.164Q127.579-67.504 127.579-66.4971L127.579-63.1508Q127.579-62.144 126.921-61.4841Q126.264-60.8242 125.257-60.8242ZM66.5692-8.3631Q69.0508-8.3631 70.8205-10.1383L77.4304-16.9137L84.0399-10.1383Q85.0022-9.1761 86.0094-8.7696Q87.0165-8.3631 88.2967-8.3631Q90.7319-8.3631 92.4674-10.1327Q94.2029-11.9023 94.2029-14.3377Q94.2029-16.8709 92.4335-18.6513L85.8347-25.1415L92.439-31.6427Q94.2085-33.366 94.2085-35.9452Q94.2085-38.443 92.4728-40.1814Q90.7371-41.9199 88.2967-41.9199Q85.8262-41.9199 84.051-40.1446L77.4304-33.3634L70.815-40.1391Q69.0453-41.9088 66.5692-41.9088Q64.1283-41.9088 62.3929-40.1733Q60.6575-38.4378 60.6575-35.9452Q60.6575-33.3495 62.427-31.6371L69.0258-25.1415L62.427-18.6458Q60.6575-16.8764 60.6575-14.3377Q60.6575-11.9023 62.393-10.1327Q64.1286-8.3631 66.5692-8.3631Z"/>
  </g>
  <g id="Heavy-M" transform="matrix(1 0 0 1 2560.77 1126)">
   <path d="M49.069 12.3923L102.762 12.3923Q111.353 12.3923 115.49 7.71788Q119.627 3.04345 121.003-5.46497L129.024-55.9353L114.359-55.7867L106.359-7.50893Q105.895-4.82492 104.763-3.69253Q103.632-2.56013 101.154-2.56013L50.6767-2.56013Q48.2372-2.56013 47.0878-3.69253Q45.9383-4.82492 45.4761-7.50893L37.474-55.7867L22.8116-55.9353L30.8276-5.46497Q32.2059 3.05079 36.344 7.72155Q40.4822 12.3923 49.069 12.3923ZM26.7195-47.7601L125.16-47.7601Q131.636-47.7601 135.504-51.7428Q139.372-55.7256 139.372-62.1583L139.372-68.3859Q139.372-74.8023 135.504-78.7932Q131.636-82.7841 125.16-82.7841L26.7195-82.7841Q20.3517-82.7841 16.4063-78.7932Q12.4609-74.8023 12.4609-68.3859L12.4609-62.1583Q12.4609-55.7256 16.3739-51.7428Q20.2868-47.7601 26.7195-47.7601ZM28.2301-60.7769Q27.0291-60.7769 26.3346-61.4763Q25.6402-62.1756 25.6402-63.3766L25.6402-67.1538Q25.6402-68.3548 26.3346-69.0529Q27.0291-69.751 28.2301-69.751L123.622-69.751Q124.82-69.751 125.507-69.0529Q126.193-68.3548 126.193-67.1538L126.193-63.3766Q126.193-62.1756 125.507-61.4763Q124.82-60.7769 123.622-60.7769ZM64.2714-8.23602Q66.5041-8.23602 68.1248-9.87296L75.9072-17.7724L83.6921-9.87296Q84.5435-9.02153 85.4666-8.62878Q86.3898-8.23602 87.5617-8.23602Q89.7857-8.23602 91.3695-9.85794Q92.9534-11.4799 92.9534-13.7014Q92.9534-15.9615 91.3303-17.6171L83.5803-25.296L91.3465-33.0074Q92.9696-34.6194 92.9696-36.8906Q92.9696-39.1745 91.387-40.7652Q89.8043-42.356 87.5617-42.356Q85.3615-42.356 83.7245-40.7191L75.9072-32.8058L68.1086-40.7028Q66.4879-42.3235 64.2714-42.3235Q62.0336-42.3235 60.4485-40.7397Q58.8634-39.1558 58.8634-36.8906Q58.8634-34.5707 60.4866-32.9912L68.2365-25.296L60.4866-17.6008Q58.8634-15.9777 58.8634-13.7014Q58.8634-11.4799 60.4473-9.85794Q62.0312-8.23602 64.2714-8.23602Z"/>
  </g>
  <g id="Bold-M" transform="matrix(1 0 0 1 2265.76 1126)">
   <path d="M47.8003 11.4855L100.634 11.4855Q108.749 11.4855 112.67 7.23925Q116.59 2.99303 117.867-5.06475L125.831-56.4361L113.517-56.1764L105.592-6.44548Q105.1-3.42833 103.696-2.14106Q102.291-0.853795 99.5392-0.853795L48.8956-0.853795Q46.1617-0.853795 44.7508-2.14106Q43.3398-3.42833 42.8534-6.44548L34.9232-56.1764L22.6153-56.4361L30.5682-5.06475Q31.8499 3.00959 35.7735 7.24753Q39.6971 11.4855 47.8003 11.4855ZM24.9981-49.6691L123.476-49.6691Q129.267-49.6691 132.623-53.1808Q135.979-56.6924 135.979-62.4542L135.979-69.086Q135.979-74.8196 132.623-78.3453Q129.267-81.8711 123.476-81.8711L24.9981-81.8711Q19.3492-81.8711 15.9051-78.3453Q12.4609-74.8196 12.4609-69.086L12.4609-62.4542Q12.4609-56.6924 15.8486-53.1808Q19.2363-49.6691 24.9981-49.6691ZM26.6813-60.724Q25.2631-60.724 24.5306-61.4675Q23.7982-62.211 23.7982-63.6292L23.7982-67.8883Q23.7982-69.3065 24.5306-70.0472Q25.2631-70.788 26.6813-70.788L121.793-70.788Q123.206-70.788 123.924-70.0472Q124.642-69.3065 124.642-67.8883L124.642-63.6292Q124.642-62.211 123.924-61.4675Q123.206-60.724 121.793-60.724ZM61.7009-8.09387Q63.6552-8.09387 65.1092-9.57608L74.2033-18.7331L83.3029-9.57608Q84.0303-8.84863 84.8595-8.47125Q85.6887-8.09387 86.7394-8.09387Q88.7271-8.09387 90.1414-9.55061Q91.5556-11.0073 91.5556-12.9896Q91.5556-14.9442 90.0961-16.4601L81.0585-25.4689L90.1243-34.5341Q91.5838-36.0215 91.5838-37.9482Q91.5838-39.9927 90.1724-41.4183Q88.7609-42.8439 86.7394-42.8439Q84.8416-42.8439 83.3594-41.3617L74.2033-32.182L65.081-41.3334Q63.627-42.7874 61.7009-42.7874Q59.6905-42.7874 58.2735-41.3732Q56.8565-39.959 56.8565-37.9482Q56.8565-35.9368 58.316-34.5059L67.3536-25.4689L58.316-16.4319Q56.8565-14.9724 56.8565-12.9896Q56.8565-11.0073 58.2707-9.55061Q59.685-8.09387 61.7009-8.09387Z"/>
  </g>
  <g id="Semibold-M" transform="matrix(1 0 0 1 1970.21 1126)">
   <path d="M46.9257 10.8603L99.168 10.8603Q106.953 10.8603 110.725 6.90928Q114.497 2.95827 115.704-4.78884L123.629-56.7813L112.937-56.4451L105.064-5.71234Q104.553-2.46553 102.959-1.07149Q101.366 0.322546 98.4261 0.322546L47.6677 0.322546Q44.7309 0.322546 43.1397-1.07149Q41.5485-2.46553 41.0453-5.71234L33.1647-56.4451L22.48-56.7813L30.3894-4.78884Q31.6045 2.98119 35.3802 6.92074Q39.1559 10.8603 46.9257 10.8603ZM23.8113-50.9852L122.316-50.9852Q127.633-50.9852 130.637-54.1721Q133.64-57.359 133.64-62.6582L133.64-69.5687Q133.64-74.8314 130.637-78.0366Q127.633-81.2417 122.316-81.2417L23.8113-81.2417Q18.6581-81.2417 15.5595-78.0366Q12.4609-74.8314 12.4609-69.5687L12.4609-62.6582Q12.4609-57.359 15.4865-54.1721Q18.5121-50.9852 23.8113-50.9852ZM25.6135-60.6876Q24.0456-60.6876 23.287-61.4615Q22.5284-62.2354 22.5284-63.8033L22.5284-68.3947Q22.5284-69.9627 23.287-70.7328Q24.0456-71.5028 25.6135-71.5028L120.532-71.5028Q122.092-71.5028 122.833-70.7328Q123.573-69.9627 123.573-68.3947L123.573-63.8033Q123.573-62.2354 122.833-61.4615Q122.092-60.6876 120.532-60.6876ZM59.9289-7.99587Q61.6913-7.99587 63.0303-9.37142L73.0286-19.3953L83.0346-9.37142Q83.6766-8.72943 84.441-8.36265Q85.2054-7.99587 86.1725-7.99587Q87.9974-7.99587 89.2947-9.33873Q90.5919-10.6816 90.5919-12.4988Q90.5919-14.2429 89.2453-15.6626L79.32-25.5881L89.2818-35.5866Q90.6285-36.9881 90.6285-38.6773Q90.6285-40.5568 89.335-41.8685Q88.0415-43.1802 86.1725-43.1802Q84.4832-43.1802 83.1076-41.8047L73.0286-31.7519L62.9938-41.7682Q61.6548-43.1072 59.9289-43.1072Q58.0751-43.1072 56.774-41.8099Q55.473-40.5127 55.473-38.6773Q55.473-36.8786 56.8196-35.5501L66.7449-25.5881L56.8196-15.6261Q55.473-14.2794 55.473-12.4988Q55.473-10.6816 56.7702-9.33873Q58.0675-7.99587 59.9289-7.99587Z"/>
  </g>
  <g id="Medium-M" transform="matrix(1 0 0 1 1674.39 1126)">
   <path d="M46.2626 10.3863L98.0561 10.3863Q105.592 10.3863 109.251 6.65909Q112.909 2.93191 114.065-4.57963L121.96-57.0431L112.497-56.6489L104.663-5.15644Q104.138-1.73549 102.401-0.260499Q100.664 1.2145 97.582 1.2145L46.7366 1.2145Q43.646 1.2145 41.9181-0.260499Q40.1902-1.73549 39.6743-5.15644L31.8314-56.6489L22.3774-57.0431L30.2538-4.57963Q31.4185 2.95965 35.082 6.67296Q38.7455 10.3863 46.2626 10.3863ZM22.9115-51.9831L121.436-51.9831Q126.395-51.9831 129.131-54.9237Q131.867-57.8643 131.867-62.8129L131.867-69.9347Q131.867-74.8404 129.131-77.8024Q126.395-80.7644 121.436-80.7644L22.9115-80.7644Q18.134-80.7644 15.2975-77.8024Q12.4609-74.8404 12.4609-69.9347L12.4609-62.8129Q12.4609-57.8643 15.2119-54.9237Q17.9629-51.9831 22.9115-51.9831ZM24.8039-60.6599Q23.1225-60.6599 22.344-61.4569Q21.5655-62.2539 21.5655-63.9353L21.5655-68.7787Q21.5655-70.4602 22.344-71.2525Q23.1225-72.0449 24.8039-72.0449L119.576-72.0449Q121.248-72.0449 122.005-71.2525Q122.762-70.4602 122.762-68.7787L122.762-63.9353Q122.762-62.2539 122.005-61.4569Q121.248-60.6599 119.576-60.6599ZM58.5852-7.92157Q60.2021-7.92157 61.454-9.21624L72.138-19.8975L82.8312-9.21624Q83.4083-8.63904 84.1236-8.28031Q84.8389-7.92157 85.7427-7.92157Q87.4441-7.92157 88.6527-9.17808Q89.8613-10.4346 89.8613-12.1267Q89.8613-13.7111 88.6001-15.0578L78.0017-25.6784L88.6429-36.3846Q89.9041-37.721 89.9041-39.2301Q89.9041-40.9845 88.7001-42.2099Q87.4961-43.4353 85.7427-43.4353Q84.2114-43.4353 82.9167-42.1406L72.138-31.4258L61.4112-42.0978Q60.1593-43.3497 58.5852-43.3497Q56.8503-43.3497 55.6371-42.1411Q54.4239-40.9325 54.4239-39.2301Q54.4239-37.5927 55.685-36.3418L66.2834-25.6784L55.685-15.015Q54.4239-13.7539 54.4239-12.1267Q54.4239-10.4346 55.6325-9.17808Q56.8411-7.92157 58.5852-7.92157Z"/>
  </g>
  <g id="Regular-M" transform="matrix(1 0 0 1 1378.83 1126)">
   <path d="M45.3976 9.76797L96.6057 9.76797Q103.816 9.76797 107.327 6.33275Q110.839 2.89753 111.926-4.30675L119.783-57.3846L111.922-56.9146L104.14-4.43136Q103.596-0.783273 101.673 0.797318Q99.7498 2.37791 96.4811 2.37791L45.5222 2.37791Q42.2309 2.37791 40.3247 0.797318Q38.4185-0.783273 37.8861-4.43136L30.0922-56.9146L22.2435-57.3846L30.077-4.30675Q31.1758 2.93156 34.693 6.34976Q38.2103 9.76797 45.3976 9.76797ZM21.7378-53.2848L120.288-53.2848Q124.779-53.2848 127.167-55.9042Q129.554-58.5236 129.554-63.0147L129.554-70.412Q129.554-74.8522 127.167-77.4971Q124.779-80.142 120.288-80.142L21.7378-80.142Q17.4505-80.142 14.9557-77.4971Q12.4609-74.8522 12.4609-70.412L12.4609-63.0147Q12.4609-58.5236 14.8538-55.9042Q17.2467-53.2848 21.7378-53.2848ZM23.7479-60.6239Q21.9184-60.6239 21.114-61.4509Q20.3096-62.278 20.3096-64.1075L20.3096-69.2796Q20.3096-71.1091 21.114-71.9305Q21.9184-72.7519 23.7479-72.7519L118.329-72.7519Q120.147-72.7519 120.926-71.9305Q121.705-71.1091 121.705-69.2796L121.705-64.1075Q121.705-62.278 120.926-61.4509Q120.147-60.6239 118.329-60.6239ZM56.8327-7.82465Q58.2597-7.82465 59.3979-9.01383L70.9762-20.5525L82.5658-9.01383Q83.0585-8.52115 83.7097-8.1729Q84.3609-7.82465 85.182-7.82465Q86.7224-7.82465 87.8153-8.96854Q88.9082-10.1124 88.9082-11.6414Q88.9082-13.0175 87.7587-14.269L76.2823-25.7963L87.8096-37.4255Q88.9592-38.677 88.9592-39.9512Q88.9592-41.5425 87.8719-42.6552Q86.7847-43.7679 85.182-43.7679Q83.8569-43.7679 82.6677-42.5788L70.9762-31.0005L59.347-42.5278Q58.2087-43.666 56.8327-43.666Q55.2527-43.666 54.1541-42.5731Q53.0555-41.4801 53.0555-39.9512Q53.0555-38.5241 54.2051-37.3746L65.6814-25.7963L54.2051-14.218Q53.0555-13.0685 53.0555-11.6414Q53.0555-10.1124 54.1484-8.96854Q55.2414-7.82465 56.8327-7.82465Z"/>
  </g>
  <g id="Light-M" transform="matrix(1 0 0 1 1082.3 1126)">
   <path d="M45.5632 9.03201L96.0538 9.03201Q102.933 9.03201 106.279 5.63358Q109.625 2.23516 110.657-4.52754L118.623-57.495L112.566-57.1722L104.692-4.65215Q104.075-0.544086 101.912 1.37689Q99.7498 3.29786 95.9292 3.29786L45.6878 3.29786Q41.8077 3.29786 39.6899 1.37689Q37.5722-0.544086 36.9845-4.65215L29.0803-57.1722L23.0531-57.495L30.9601-4.52754Q32.0221 2.3244 35.383 5.6782Q38.7438 9.03201 45.5632 9.03201ZM20.8179-54.4255L120.859-54.4255Q124.853-54.4255 127.019-56.7965Q129.186-59.1675 129.186-63.1619L129.186-70.6328Q129.186-74.5946 127.019-76.9819Q124.853-79.3692 120.859-79.3692L20.8179-79.3692Q16.9537-79.3692 14.7073-76.9819Q12.4609-74.5946 12.4609-70.6328L12.4609-63.1619Q12.4609-59.1675 14.6422-56.7965Q16.8235-54.4255 20.8179-54.4255ZM22.1472-60.1271Q20.2809-60.1271 19.3845-61.0829Q18.4881-62.0388 18.4881-63.9051L18.4881-69.8867Q18.4881-71.7531 19.3845-72.6941Q20.2809-73.6351 22.1472-73.6351L119.562-73.6351Q121.398-73.6351 122.278-72.6941Q123.159-71.7531 123.159-69.8867L123.159-63.9051Q123.159-62.0388 122.278-61.0829Q121.398-60.1271 119.562-60.1271ZM56.2439-8.5974Q57.3582-8.5974 58.2204-9.4922L70.7922-22.0612L83.3938-9.4922Q83.776-9.10992 84.2709-8.85366Q84.7657-8.5974 85.4028-8.5974Q86.612-8.5974 87.4565-9.47451Q88.3011-10.3516 88.3011-11.531Q88.3011-12.6127 87.4091-13.5698L74.9024-26.1091L87.4416-38.7134Q88.3336-39.6705 88.3336-40.6871Q88.3336-41.9288 87.5039-42.7748Q86.6743-43.6207 85.4028-43.6207Q84.3537-43.6207 83.4589-42.7259L70.7922-30.1541L58.1878-42.6934Q57.3256-43.5556 56.2439-43.5556Q55.0319-43.5556 54.1725-42.7111Q53.3131-41.8665 53.3131-40.6871Q53.3131-39.5729 54.2051-38.6809L66.7118-26.1091L54.2051-13.5373Q53.3131-12.6453 53.3131-11.531Q53.3131-10.3516 54.1576-9.47451Q55.0022-8.5974 56.2439-8.5974Z"/>
  </g>
  <g id="Thin-M" transform="matrix(1 0 0 1 785.829 1126)">
   <path d="M45.7822 8.05864L95.3237 8.05864Q101.765 8.05864 104.892 4.70889Q108.019 1.35913 108.978-4.81955L117.09-57.641L113.418-57.5129L105.422-4.94416Q104.707-0.227742 102.229 2.14341Q99.7498 4.51457 95.1991 4.51457L45.9068 4.51457Q41.248 4.51457 38.8504 2.14341Q36.4528-0.227742 35.7921-4.94416L27.7419-57.5129L24.1238-57.641L32.1282-4.81955Q33.1415 1.52137 36.2955 4.79Q39.4495 8.05864 45.7822 8.05864ZM19.6012-55.9342L121.613-55.9342Q124.95-55.9342 126.825-57.9767Q128.699-60.0192 128.699-63.3566L128.699-70.9248Q128.699-74.2539 126.825-76.3005Q124.95-78.3472 121.613-78.3472L19.6012-78.3472Q16.2967-78.3472 14.3788-76.3005Q12.4609-74.2539 12.4609-70.9248L12.4609-63.3566Q12.4609-60.0192 14.3624-57.9767Q16.2638-55.9342 19.6012-55.9342ZM20.0301-59.4701Q18.1151-59.4701 17.0971-60.5963Q16.079-61.7225 16.079-63.6375L16.079-70.6898Q16.079-72.6048 17.0971-73.7039Q18.1151-74.8031 20.0301-74.8031L121.192-74.8031Q123.053-74.8031 124.067-73.7039Q125.081-72.6048 125.081-70.6898L125.081-63.6375Q125.081-61.7225 124.067-60.5963Q123.053-59.4701 121.192-59.4701ZM55.4652-9.61944Q56.1658-9.61944 56.663-10.1249L70.5489-24.0566L84.4888-10.1249Q84.7251-9.88862 85.0131-9.75403Q85.3011-9.61944 85.6948-9.61944Q86.466-9.61944 86.982-10.1437Q87.498-10.668 87.498-11.385Q87.498-12.0774 86.9467-12.6451L73.0773-26.5228L86.955-40.4168Q87.5063-40.9846 87.5063-41.6605Q87.5063-42.4398 87.0173-42.933Q86.5283-43.4261 85.6948-43.4261Q85.0107-43.4261 84.5053-42.9206L70.5489-29.0348L56.6548-42.9124Q56.1576-43.4096 55.4652-43.4096Q54.7399-43.4096 54.1969-42.8936Q53.6538-42.3775 53.6538-41.6605Q53.6538-40.9599 54.2051-40.4086L68.0745-26.5228L54.2051-12.6369Q53.6538-12.0856 53.6538-11.385Q53.6538-10.668 54.1698-10.1437Q54.6858-9.61944 55.4652-9.61944Z"/>
  </g>
  <g id="Ultralight-M" transform="matrix(1 0 0 1 489.24 1126)">
   <path d="M45.8944 7.56009L94.9498 7.56009Q101.166 7.56009 104.181 4.23526Q107.196 0.910434 108.118-4.96911L116.305-57.7158L113.854-57.6874L105.796-5.09372Q105.031-0.0657118 102.391 2.53602Q99.7498 5.13776 94.8252 5.13776L46.019 5.13776Q40.9613 5.13776 38.4204 2.53602Q35.8795-0.0657118 35.1814-5.09372L27.0564-57.6874L24.6722-57.7158L32.7265-4.96911Q33.7149 1.11006 36.7629 4.33507Q39.811 7.56009 45.8944 7.56009ZM18.978-56.707L121.999-56.707Q125-56.707 126.725-58.5812Q128.45-60.4554 128.45-63.4563L128.45-71.0744Q128.45-74.0794 126.725-75.9516Q125-77.8237 121.999-77.8237L18.978-77.8237Q15.9602-77.8237 14.2106-75.9516Q12.4609-74.0794 12.4609-71.0744L12.4609-63.4563Q12.4609-60.4554 14.219-58.5812Q15.9771-56.707 18.978-56.707ZM18.9458-59.1335Q17.0059-59.1335 15.9255-60.347Q14.8451-61.5604 14.8451-63.5004L14.8451-71.1011Q14.8451-73.041 15.9255-74.2212Q17.0059-75.4014 18.9458-75.4014L122.027-75.4014Q123.901-75.4014 124.983-74.2212Q126.066-73.041 126.066-71.1011L126.066-63.5004Q126.066-61.5604 124.983-60.347Q123.901-59.1335 122.027-59.1335ZM55.0663-10.1429Q55.5551-10.1429 55.8653-10.4489L70.4242-25.0786L85.0497-10.4489Q85.2112-10.2875 85.3932-10.2152Q85.5753-10.1429 85.8444-10.1429Q86.3912-10.1429 86.7389-10.4865Q87.0867-10.83 87.0867-11.3102Q87.0867-11.8032 86.7099-12.1715L72.1425-26.7346L86.7057-41.2893Q87.0825-41.6576 87.0825-42.1591Q87.0825-42.7016 86.768-43.014Q86.4535-43.3264 85.8444-43.3264Q85.3472-43.3264 85.0412-43.0203L70.4242-28.4614L55.8696-43.0246Q55.5593-43.3348 55.0663-43.3348Q54.5904-43.3348 54.2093-42.9871Q53.8283-42.6393 53.8283-42.1591Q53.8283-41.6704 54.2051-41.2935L68.7725-26.7346L54.2051-12.1757Q53.8283-11.7989 53.8283-11.3102Q53.8283-10.83 54.176-10.4865Q54.5238-10.1429 55.0663-10.1429Z"/>
  </g>
  <g id="Black-S" transform="matrix(1 0 0 1 2872.27 696)">
   <path d="M39.6973 2.92969L82.5684 2.92969Q89.7461 2.92969 93.1885-1.14746Q96.6309-5.22461 97.8027-12.3047L104.15-50.9766L90.4785-50.9766L84.1309-14.5508Q83.7891-12.7441 83.1543-11.9873Q82.5195-11.2305 80.8105-11.2305L41.4551-11.2305Q39.7949-11.2305 39.1357-11.9873Q38.4766-12.7441 38.1348-14.5508L31.7871-50.9766L18.1152-50.9766L24.4629-12.3047Q25.6348-5.22461 29.0771-1.14746Q32.5195 2.92969 39.6973 2.92969ZM22.5586-43.2617L99.7559-43.2617Q105.469-43.2617 108.984-46.8262Q112.5-50.3906 112.5-56.0547L112.5-60.5469Q112.5-66.2109 108.984-69.7754Q105.469-73.3398 99.7559-73.3398L22.5586-73.3398Q16.8945-73.3398 13.3301-69.7754Q9.76562-66.2109 9.76562-60.5469L9.76562-56.0547Q9.76562-50.3906 13.3301-46.8262Q16.8945-43.2617 22.5586-43.2617ZM23.5352-55.2734Q22.8027-55.2734 22.29-55.7861Q21.7773-56.2988 21.7773-57.0312L21.7773-59.5703Q21.7773-60.3027 22.29-60.8154Q22.8027-61.3281 23.5352-61.3281L98.7305-61.3281Q99.4629-61.3281 99.9756-60.8154Q100.488-60.3027 100.488-59.5703L100.488-57.0312Q100.488-56.2988 99.9756-55.7861Q99.4629-55.2734 98.7305-55.2734ZM52.832-14.2578Q54.834-14.2578 56.25-15.6738L61.1328-20.7031L66.0156-15.6738Q66.7969-14.8926 67.6025-14.5752Q68.4082-14.2578 69.4336-14.2578Q71.3867-14.2578 72.7783-15.6738Q74.1699-17.0898 74.1699-19.043Q74.1699-21.0938 72.7539-22.5098L67.8711-27.2949L72.7539-32.0801Q74.1699-33.4473 74.1699-35.5469Q74.1699-37.5488 72.7783-38.9404Q71.3867-40.332 69.4336-40.332Q67.4316-40.332 66.0156-38.916L61.1328-33.8867L56.25-38.916Q54.834-40.332 52.832-40.332Q50.8789-40.332 49.4873-38.9404Q48.0957-37.5488 48.0957-35.5469Q48.0957-33.4473 49.5117-32.0801L54.3945-27.2949L49.5117-22.5098Q48.0957-21.0938 48.0957-19.043Q48.0957-17.0898 49.4873-15.6738Q50.8789-14.2578 52.832-14.2578Z"/>
  </g>
  <g id="Heavy-S" transform="matrix(1 0 0 1 2576.83 696)">
   <path d="M38.7062 2.33042L81.0126 2.33042Q87.8676 2.33042 91.1659-1.42405Q94.4643-5.17851 95.567-11.9705L101.857-51.3453L89.7525-51.2416L83.474-13.7095Q83.1206-11.7069 82.3072-10.8752Q81.4939-10.0434 79.6466-10.0434L40.0721-10.0434Q38.2622-10.0434 37.4301-10.8752Q36.5981-11.7069 36.2448-13.7095L29.9662-51.2416L17.8617-51.3453L24.1517-11.9705Q25.2545-5.17851 28.5528-1.42405Q31.8511 2.33042 38.7062 2.33042ZM21.36-44.5755L98.396-44.5755Q103.648-44.5755 106.8-47.8115Q109.953-51.0475 109.953-56.2621L109.953-61.054Q109.953-66.257 106.8-69.4988Q103.648-72.7406 98.396-72.7406L21.36-72.7406Q16.1915-72.7406 12.9786-69.4988Q9.76562-66.257 9.76562-61.054L9.76562-56.2621Q9.76562-51.0475 12.9555-47.8115Q16.1454-44.5755 21.36-44.5755ZM22.5556-55.2965Q21.6618-55.2965 21.1318-55.8265Q20.6018-56.3565 20.6018-57.2502L20.6018-60.0543Q20.6018-60.9481 21.1318-61.4781Q21.6618-62.0081 22.5556-62.0081L97.1747-62.0081Q98.0684-62.0081 98.5927-61.4781Q99.1169-60.9481 99.1169-60.0543L99.1169-57.2502Q99.1169-56.3565 98.5927-55.8265Q98.0684-55.2965 97.1747-55.2965ZM50.942-14.0504Q52.7711-14.0504 54.0949-15.3857L59.8536-21.2448L65.6123-15.3857Q66.3128-14.6851 67.0667-14.3678Q67.8205-14.0504 68.7767-14.0504Q70.5915-14.0504 71.8852-15.3742Q73.1788-16.698 73.1788-18.5128Q73.1788-20.3677 71.855-21.7146L66.1194-27.3871L71.8665-33.0827Q73.1903-34.3923 73.1903-36.2614Q73.1903-38.1251 71.8967-39.4245Q70.6031-40.7239 68.7767-40.7239Q66.9707-40.7239 65.6353-39.3885L59.8536-33.5179L54.0834-39.377Q52.7596-40.7008 50.942-40.7008Q49.1157-40.7008 47.822-39.4072Q46.5284-38.1135 46.5284-36.2614Q46.5284-34.3577 47.8522-33.0712L53.5878-27.3871L47.8522-21.7031Q46.5284-20.3792 46.5284-18.5128Q46.5284-16.698 47.822-15.3742Q49.1157-14.0504 50.942-14.0504Z"/>
  </g>
  <g id="Bold-S" transform="matrix(1 0 0 1 2281.54 696)">
   <path d="M37.5977 1.66016L79.2725 1.66016Q85.7666 1.66016 88.9038-1.7334Q92.041-5.12695 93.0664-11.5967L99.292-51.7578L88.9404-51.5381L82.7393-12.7686Q82.373-10.5469 81.3599-9.63135Q80.3467-8.71582 78.3447-8.71582L38.5254-8.71582Q36.5479-8.71582 35.5225-9.63135Q34.4971-10.5469 34.1309-12.7686L27.9297-51.5381L17.5781-51.7578L23.8037-11.5967Q24.8291-5.12695 27.9663-1.7334Q31.1035 1.66016 37.5977 1.66016ZM20.0195-46.0449L96.875-46.0449Q101.611-46.0449 104.358-48.9136Q107.104-51.7822 107.104-56.4941L107.104-61.6211Q107.104-66.3086 104.358-69.1895Q101.611-72.0703 96.875-72.0703L20.0195-72.0703Q15.4053-72.0703 12.5854-69.1895Q9.76562-66.3086 9.76562-61.6211L9.76562-56.4941Q9.76562-51.7822 12.5366-48.9136Q15.3076-46.0449 20.0195-46.0449ZM21.46-55.3223Q20.3857-55.3223 19.8364-55.8716Q19.2871-56.4209 19.2871-57.4951L19.2871-60.5957Q19.2871-61.6699 19.8364-62.2192Q20.3857-62.7686 21.46-62.7686L95.4346-62.7686Q96.5088-62.7686 97.0459-62.2192Q97.583-61.6699 97.583-60.5957L97.583-57.4951Q97.583-56.4209 97.0459-55.8716Q96.5088-55.3223 95.4346-55.3223ZM48.8281-13.8184Q50.4639-13.8184 51.6846-15.0635L58.4229-21.8506L65.1611-15.0635Q65.7715-14.4531 66.4673-14.1357Q67.1631-13.8184 68.042-13.8184Q69.7021-13.8184 70.8862-15.0391Q72.0703-16.2598 72.0703-17.9199Q72.0703-19.5557 70.8496-20.8252L64.1602-27.4902L70.874-34.2041Q72.0947-35.4492 72.0947-37.0605Q72.0947-38.7695 70.9106-39.9658Q69.7266-41.1621 68.042-41.1621Q66.4551-41.1621 65.21-39.917L58.4229-33.1055L51.6602-39.8926Q50.4395-41.1133 48.8281-41.1133Q47.1436-41.1133 45.9595-39.9292Q44.7754-38.7451 44.7754-37.0605Q44.7754-35.376 45.9961-34.1797L52.6855-27.4902L45.9961-20.8008Q44.7754-19.5801 44.7754-17.9199Q44.7754-16.2598 45.9595-15.0391Q47.1436-13.8184 48.8281-13.8184Z"/>
  </g>
  <g id="Semibold-S" transform="matrix(1 0 0 1 1985.81 696)">
   <path d="M36.8334 1.19805L78.0728 1.19805Q84.3181 1.19805 87.3442-1.94668Q90.3703-5.09141 91.3424-11.339L97.5235-52.0422L88.3806-51.7425L82.2327-12.1198Q81.8576-9.74707 80.7067-8.77378Q79.5558-7.80049 77.4472-7.80049L37.459-7.80049Q35.3659-7.80049 34.2072-8.77378Q33.0485-9.74707 32.6734-12.1198L26.5256-51.7425L17.3826-52.0422L23.5638-11.339Q24.5358-5.09141 27.562-1.94668Q30.5881 1.19805 36.8334 1.19805ZM19.0953-47.058L95.8264-47.058Q100.207-47.058 102.674-49.6734Q105.141-52.2888 105.141-56.6541L105.141-62.0121Q105.141-66.3441 102.674-68.9762Q100.207-71.6082 95.8264-71.6082L19.0953-71.6082Q14.8632-71.6082 12.3144-68.9762Q9.76562-66.3441 9.76562-62.0121L9.76562-56.6541Q9.76562-52.2888 12.2478-49.6734Q14.73-47.058 19.0953-47.058ZM20.7046-55.34Q19.506-55.34 18.9433-55.9027Q18.3807-56.4653 18.3807-57.664L18.3807-60.9689Q18.3807-62.1676 18.9433-62.7302Q19.506-63.2929 20.7046-63.2929L94.2349-63.2929Q95.4335-63.2929 95.9795-62.7302Q96.5255-62.1676 96.5255-60.9689L96.5255-57.664Q96.5255-56.4653 95.9795-55.9027Q95.4335-55.34 94.2349-55.34ZM47.3707-13.6584Q48.8731-13.6584 50.0228-14.8413L57.4364-22.2683L64.8501-14.8413Q65.3982-14.2932 66.0541-13.9758Q66.7099-13.6584 67.5354-13.6584Q69.089-13.6584 70.1975-14.808Q71.3061-15.9576 71.3061-17.5111Q71.3061-18.9958 70.1564-20.212L62.8094-27.5613L70.1897-34.9772Q71.3394-36.1779 71.3394-37.6115Q71.3394-39.2139 70.2308-40.3391Q69.1223-41.4643 67.5354-41.4643Q66.0996-41.4643 64.9167-40.2813L57.4364-32.8211L49.9895-40.248Q48.8398-41.3977 47.3707-41.3977Q45.7839-41.3977 44.6753-40.2891Q43.5668-39.1806 43.5668-37.6115Q43.5668-36.078 44.7164-34.9439L52.0635-27.5613L44.7164-20.1787Q43.5668-19.0291 43.5668-17.5111Q43.5668-15.9576 44.6753-14.808Q45.7839-13.6584 47.3707-13.6584Z"/>
  </g>
  <g id="Medium-S" transform="matrix(1 0 0 1 1689.85 696)">
   <path d="M36.2539 0.847656L77.1631 0.847656Q83.2197 0.847656 86.1616-2.1084Q89.1035-5.06445 90.0352-11.1436L96.1826-52.2578L87.9561-51.8975L81.8486-11.6279Q81.4668-9.14062 80.2114-8.12354Q78.9561-7.10645 76.7666-7.10645L36.6504-7.10645Q34.4697-7.10645 33.21-8.12354Q31.9502-9.14062 31.5684-11.6279L25.4609-51.8975L17.2344-52.2578L23.3818-11.1436Q24.3135-5.06445 27.2554-2.1084Q30.1973 0.847656 36.2539 0.847656ZM18.3945-47.8262L95.0312-47.8262Q99.1426-47.8262 101.397-50.2495Q103.651-52.6729 103.651-56.7754L103.651-62.3086Q103.651-66.3711 101.397-68.8145Q99.1426-71.2578 95.0312-71.2578L18.3945-71.2578Q14.4521-71.2578 12.1089-68.8145Q9.76562-66.3711 9.76562-62.3086L9.76562-56.7754Q9.76562-52.6729 12.0288-50.2495Q14.292-47.8262 18.3945-47.8262ZM20.1318-55.3535Q18.8389-55.3535 18.2661-55.9263Q17.6934-56.499 17.6934-57.792L17.6934-61.252Q17.6934-62.5449 18.2661-63.1177Q18.8389-63.6904 20.1318-63.6904L93.3252-63.6904Q94.6182-63.6904 95.1709-63.1177Q95.7236-62.5449 95.7236-61.252L95.7236-57.792Q95.7236-56.499 95.1709-55.9263Q94.6182-55.3535 93.3252-55.3535ZM46.2656-13.5371Q47.667-13.5371 48.7627-14.6729L56.6885-22.585L64.6143-14.6729Q65.1152-14.1719 65.7407-13.8545Q66.3662-13.5371 67.1514-13.5371Q68.624-13.5371 69.6753-14.6328Q70.7266-15.7285 70.7266-17.2012Q70.7266-18.5713 69.6309-19.7471L61.7852-27.6152L69.6709-35.5635Q70.7666-36.7305 70.7666-38.0293Q70.7666-39.5508 69.7153-40.6221Q68.6641-41.6934 67.1514-41.6934Q65.8301-41.6934 64.6943-40.5576L56.6885-32.6055L48.7227-40.5176Q47.627-41.6133 46.2656-41.6133Q44.7529-41.6133 43.7017-40.562Q42.6504-39.5107 42.6504-38.0293Q42.6504-36.6104 43.7461-35.5234L51.5918-27.6152L43.7461-19.707Q42.6504-18.6113 42.6504-17.2012Q42.6504-15.7285 43.7017-14.6328Q44.7529-13.5371 46.2656-13.5371Z"/>
  </g>
  <g id="Regular-S" transform="matrix(1 0 0 1 1394.11 696)">
   <path d="M35.498 0.390625L75.9766 0.390625Q81.7871 0.390625 84.6191-2.31934Q87.4512-5.0293 88.3301-10.8887L94.4336-52.5391L87.4023-52.0996L81.3477-10.9863Q80.957-8.34961 79.5654-7.27539Q78.1738-6.20117 75.8789-6.20117L35.5957-6.20117Q33.3008-6.20117 31.9092-7.27539Q30.5176-8.34961 30.127-10.9863L24.0723-52.0996L17.041-52.5391L23.1445-10.8887Q24.0234-5.0293 26.8555-2.31934Q29.6875 0.390625 35.498 0.390625ZM17.4805-48.8281L93.9941-48.8281Q97.7539-48.8281 99.7314-51.001Q101.709-53.1738 101.709-56.9336L101.709-62.6953Q101.709-66.4062 99.7314-68.6035Q97.7539-70.8008 93.9941-70.8008L17.4805-70.8008Q13.916-70.8008 11.8408-68.6035Q9.76562-66.4062 9.76562-62.6953L9.76562-56.9336Q9.76562-53.1738 11.7432-51.001Q13.7207-48.8281 17.4805-48.8281ZM19.3848-55.3711Q17.9688-55.3711 17.3828-55.957Q16.7969-56.543 16.7969-57.959L16.7969-61.6211Q16.7969-63.0371 17.3828-63.623Q17.9688-64.209 19.3848-64.209L92.1387-64.209Q93.5547-64.209 94.1162-63.623Q94.6777-63.0371 94.6777-61.6211L94.6777-57.959Q94.6777-56.543 94.1162-55.957Q93.5547-55.3711 92.1387-55.3711ZM44.8242-13.3789Q46.0938-13.3789 47.1191-14.4531L55.7129-22.998L64.3066-14.4531Q64.7461-14.0137 65.332-13.6963Q65.918-13.3789 66.6504-13.3789Q68.0176-13.3789 68.9941-14.4043Q69.9707-15.4297 69.9707-16.7969Q69.9707-18.0176 68.9453-19.1406L60.4492-27.6855L68.9941-36.3281Q70.0195-37.4512 70.0195-38.5742Q70.0195-39.9902 69.043-40.9912Q68.0664-41.9922 66.6504-41.9922Q65.4785-41.9922 64.4043-40.918L55.7129-32.3242L47.0703-40.8691Q46.0449-41.8945 44.8242-41.8945Q43.4082-41.8945 42.4316-40.918Q41.4551-39.9414 41.4551-38.5742Q41.4551-37.3047 42.4805-36.2793L50.9766-27.6855L42.4805-19.0918Q41.4551-18.0664 41.4551-16.7969Q41.4551-15.4297 42.4316-14.4043Q43.4082-13.3789 44.8242-13.3789Z"/>
  </g>
  <g id="Light-S" transform="matrix(1 0 0 1 1097.55 696)">
   <path d="M35.6445-0.260417L75.4883-0.260417Q81.0059-0.260417 83.6914-2.93783Q86.377-5.61523 87.207-11.084L93.4082-52.6367L87.972-52.3275L81.8359-11.1816Q81.3802-8.13802 79.777-6.7627Q78.1738-5.38737 75.3906-5.38737L35.7422-5.38737Q32.9264-5.38737 31.3477-6.7627Q29.7689-8.13802 29.3294-11.1816L23.1771-52.3275L17.7572-52.6367L23.9258-11.084Q24.7721-5.56641 27.4658-2.91341Q30.1595-0.260417 35.6445-0.260417ZM16.6667-49.8372L94.4987-49.8372Q97.819-49.8372 99.6012-51.7904Q101.383-53.7435 101.383-57.0638L101.383-62.8906Q101.383-66.1784 99.6012-68.1478Q97.819-70.1172 94.4987-70.1172L16.6667-70.1172Q13.4766-70.1172 11.6211-68.1478Q9.76562-66.1784 9.76562-62.8906L9.76562-57.0638Q9.76562-53.7435 11.556-51.7904Q13.3464-49.8372 16.6667-49.8372ZM17.9688-54.9316Q16.5202-54.9316 15.8529-55.6315Q15.1855-56.3314 15.1855-57.7799L15.1855-62.1582Q15.1855-63.6068 15.8529-64.2985Q16.5202-64.9902 17.9688-64.9902L93.2292-64.9902Q94.6615-64.9902 95.3125-64.2985Q95.9635-63.6068 95.9635-62.1582L95.9635-57.7799Q95.9635-56.3314 95.3125-55.6315Q94.6615-54.9316 93.2292-54.9316ZM44.3034-14.0625Q45.2962-14.0625 46.0775-14.8763L55.5501-24.3327L65.0391-14.8763Q65.3809-14.5345 65.8285-14.2985Q66.276-14.0625 66.8457-14.0625Q67.9199-14.0625 68.6768-14.8519Q69.4336-15.6413 69.4336-16.6992Q69.4336-17.6595 68.6361-18.5221L59.2285-27.9622L68.6686-37.4674Q69.4661-38.3301 69.4661-39.2253Q69.4661-40.332 68.7174-41.097Q67.9688-41.862 66.8457-41.862Q65.918-41.862 65.1042-41.0482L55.5501-31.5755L46.0449-41.0156Q45.2637-41.7969 44.3034-41.7969Q43.2129-41.7969 42.4479-41.04Q41.6829-40.2832 41.6829-39.2253Q41.6829-38.2324 42.4805-37.4349L51.888-27.9622L42.4805-18.4896Q41.6829-17.6921 41.6829-16.6992Q41.6829-15.6413 42.4398-14.8519Q43.1966-14.0625 44.3034-14.0625Z"/>
  </g>
  <g id="Thin-S" transform="matrix(1 0 0 1 801.054 696)">
   <path d="M35.8383-1.12147L74.8425-1.12147Q79.9726-1.12147 82.4644-3.75583Q84.9562-6.39018 85.7217-11.3423L92.052-52.7659L88.7254-52.6288L82.4817-11.44Q81.9399-7.85818 80.0569-6.08461Q78.1738-4.31105 74.7448-4.31105L35.9359-4.31105Q32.4313-4.31105 30.605-6.08461Q28.7787-7.85818 28.2746-11.44L21.9931-52.6288L18.7043-52.7659L24.959-11.3423Q25.7623-6.27678 28.2731-3.69912Q30.7838-1.12147 35.8383-1.12147ZM15.5903-51.1719L95.166-51.1719Q97.9051-51.1719 99.429-52.8344Q100.953-54.4969 100.953-57.236L100.953-63.1489Q100.953-65.877 99.429-67.545Q97.9051-69.2131 95.166-69.2131L15.5903-69.2131Q12.8954-69.2131 11.3305-67.545Q9.76562-65.877 9.76562-63.1489L9.76562-57.236Q9.76562-54.4969 11.3084-52.8344Q12.8512-51.1719 15.5903-51.1719ZM16.096-54.3504Q14.6043-54.3504 13.8294-55.201Q13.0544-56.0515 13.0544-57.5432L13.0544-62.8686Q13.0544-64.3602 13.8294-65.1918Q14.6043-66.0235 16.096-66.0235L94.6714-66.0235Q96.1253-66.0235 96.8947-65.1918Q97.6641-64.3602 97.6641-62.8686L97.6641-57.5432Q97.6641-56.0515 96.8947-55.201Q96.1253-54.3504 94.6714-54.3504ZM43.6145-14.9666Q44.2414-14.9666 44.6998-15.436L55.3349-26.0978L66.0077-15.436Q66.2204-15.2233 66.485-15.095Q66.7496-14.9666 67.104-14.9666Q67.7908-14.9666 68.257-15.4439Q68.7232-15.9211 68.7232-16.5701Q68.7232-17.1859 68.2271-17.7041L57.614-28.3282L68.2381-38.9743Q68.7342-39.4925 68.7342-40.0863Q68.7342-40.7841 68.2869-41.2369Q67.8396-41.6898 67.104-41.6898Q66.4992-41.6898 66.0298-41.2204L55.3349-30.5853L44.6888-41.2094Q44.2304-41.6677 43.6145-41.6677Q42.9546-41.6677 42.4694-41.2015Q41.9843-40.7353 41.9843-40.0863Q41.9843-39.4594 42.4805-38.9633L53.0935-28.3282L42.4805-17.6931Q41.9843-17.197 41.9843-16.5701Q41.9843-15.9211 42.4505-15.4439Q42.9168-14.9666 43.6145-14.9666Z"/>
  </g>
  <g id="Ultralight-S" transform="matrix(1 0 0 1 504.451 696)">
   <path d="M35.9375-1.5625L74.5117-1.5625Q79.4434-1.5625 81.8359-4.1748Q84.2285-6.78711 84.9609-11.4746L91.3574-52.832L89.1113-52.7832L82.8125-11.5723Q82.2266-7.71484 80.2002-5.7373Q78.1738-3.75977 74.4141-3.75977L36.0352-3.75977Q32.1777-3.75977 30.2246-5.7373Q28.2715-7.71484 27.7344-11.5723L21.3867-52.7832L19.1895-52.832L25.4883-11.4746Q26.2695-6.64062 28.6865-4.10156Q31.1035-1.5625 35.9375-1.5625ZM15.0391-51.8555L95.5078-51.8555Q97.9492-51.8555 99.3408-53.3691Q100.732-54.8828 100.732-57.3242L100.732-63.2812Q100.732-65.7227 99.3408-67.2363Q97.9492-68.75 95.5078-68.75L15.0391-68.75Q12.5977-68.75 11.1816-67.2363Q9.76562-65.7227 9.76562-63.2812L9.76562-57.3242Q9.76562-54.8828 11.1816-53.3691Q12.5977-51.8555 15.0391-51.8555ZM15.1367-54.0527Q13.623-54.0527 12.793-54.9805Q11.9629-55.9082 11.9629-57.4219L11.9629-63.2324Q11.9629-64.7461 12.793-65.6494Q13.623-66.5527 15.1367-66.5527L95.4102-66.5527Q96.875-66.5527 97.7051-65.6494Q98.5352-64.7461 98.5352-63.2324L98.5352-57.4219Q98.5352-55.9082 97.7051-54.9805Q96.875-54.0527 95.4102-54.0527ZM43.2617-15.4297Q43.7012-15.4297 43.9941-15.7227L55.2246-27.002L66.5039-15.7227Q66.6504-15.5762 66.8213-15.5029Q66.9922-15.4297 67.2363-15.4297Q67.7246-15.4297 68.042-15.7471Q68.3594-16.0645 68.3594-16.5039Q68.3594-16.9434 68.0176-17.2852L56.7871-28.5156L68.0176-39.7461Q68.3594-40.0879 68.3594-40.5273Q68.3594-41.0156 68.0664-41.3086Q67.7734-41.6016 67.2363-41.6016Q66.7969-41.6016 66.5039-41.3086L55.2246-30.0781L43.9941-41.3086Q43.7012-41.6016 43.2617-41.6016Q42.8223-41.6016 42.4805-41.2842Q42.1387-40.9668 42.1387-40.5273Q42.1387-40.0879 42.4805-39.7461L53.7109-28.5156L42.4805-17.2852Q42.1387-16.9434 42.1387-16.5039Q42.1387-16.0645 42.4561-15.7471Q42.7734-15.4297 43.2617-15.4297Z"/>
  </g>
 </g>
</svg>
