<svg version="1.1" width="96" height="96" id="svg254" xmlns="http://www.w3.org/2000/svg"><style id="style132">.monochrome-0{fill:#000}.SFSymbolsPreview000000{fill:#000;opacity:1}</style><g id="Symbols"><g id="g1379" transform="matrix(1.03555 0 0 1.03605 -6.066 -4.36)" stroke-width=".965"><g id="g541" transform="matrix(.56757 0 0 .56808 48.975 69.968)" stroke-width="1.7"><path class="monochrome-0 SFSymbolsPreview000000" d="M19.824 1.123H67.09c6.836 0 10.058-2.002 10.058-6.396 0-10.059-12.695-24.756-33.691-24.756-20.947 0-33.691 14.697-33.691 24.756 0 4.394 3.271 6.396 10.058 6.396zM43.457-37.92c9.229 0 16.797-8.203 16.797-18.164 0-9.912-7.47-17.675-16.797-17.675-9.229 0-16.797 7.91-16.797 17.773S34.277-37.92 43.457-37.92zM17.627-5.47c-.537 0-.83-.146-.83-.683 0-5.713 9.375-17.286 26.66-17.286s26.66 11.573 26.66 17.286c0 .537-.293.683-.83.683zm25.83-38.994c-5.176 0-9.766-5.126-9.766-11.523 0-6.396 4.444-11.182 9.766-11.182 5.371 0 9.766 4.688 9.766 11.084 0 6.397-4.492 11.62-9.766 11.62z" id="path539" stroke-width="3.4" stroke-dasharray="none" stroke="#000" stroke-opacity="1"/></g><path d="M48.347 12.893v75.29" id="path610" fill="none" stroke="#000" stroke-width="5.793" stroke-linecap="round" stroke-linejoin="miter" stroke-dasharray="none" stroke-opacity="1"/><path d="M47.382 50.25l-32.834.104" id="path610-7" fill="none" stroke="#000" stroke-width="5.793" stroke-linecap="round" stroke-linejoin="miter" stroke-dasharray="none" stroke-opacity="1"/><g id="g1827" transform="matrix(.37263 0 0 .3739 10.908 40.476)" stroke-width="6.466" stroke="#000" stroke-opacity="1" stroke-dasharray="none"><path class="monochrome-0 SFSymbolsPreview000000" d="M19.824 1.123H67.09c6.836 0 10.058-2.002 10.058-6.396 0-10.059-12.695-24.756-33.691-24.756-20.947 0-33.691 14.697-33.691 24.756 0 4.394 3.271 6.396 10.058 6.396zM43.457-37.92c9.229 0 16.797-8.203 16.797-18.164 0-9.912-7.47-17.675-16.797-17.675-9.229 0-16.797 7.91-16.797 17.773S34.277-37.92 43.457-37.92zM17.627-5.47c-.537 0-.83-.146-.83-.683 0-5.713 9.375-17.286 26.66-17.286s26.66 11.573 26.66 17.286c0 .537-.293.683-.83.683zm25.83-38.994c-5.176 0-9.766-5.126-9.766-11.523 0-6.396 4.444-11.182 9.766-11.182 5.371 0 9.766 4.688 9.766 11.084 0 6.397-4.492 11.62-9.766 11.62z" id="path1825" stroke-width="6.466" stroke="#000" stroke-dasharray="none" stroke-opacity="1"/></g><g id="g1831" transform="matrix(.37263 0 0 .3739 10.908 86.806)" stroke-width="6.466" stroke-dasharray="none" stroke="#000" stroke-opacity="1"><path class="monochrome-0 SFSymbolsPreview000000" d="M19.824 1.123H67.09c6.836 0 10.058-2.002 10.058-6.396 0-10.059-12.695-24.756-33.691-24.756-20.947 0-33.691 14.697-33.691 24.756 0 4.394 3.271 6.396 10.058 6.396zM43.457-37.92c9.229 0 16.797-8.203 16.797-18.164 0-9.912-7.47-17.675-16.797-17.675-9.229 0-16.797 7.91-16.797 17.773S34.277-37.92 43.457-37.92zM17.627-5.47c-.537 0-.83-.146-.83-.683 0-5.713 9.375-17.286 26.66-17.286s26.66 11.573 26.66 17.286c0 .537-.293.683-.83.683zm25.83-38.994c-5.176 0-9.766-5.126-9.766-11.523 0-6.396 4.444-11.182 9.766-11.182 5.371 0 9.766 4.688 9.766 11.084 0 6.397-4.492 11.62-9.766 11.62z" id="path1829" stroke-width="6.466" stroke="#000" stroke-dasharray="none" stroke-opacity="1"/></g></g></g></svg>