<?xml version="1.0" encoding="UTF-8"?>
<!--Generator: Apple Native CoreSVG 175-->
<!DOCTYPE svg
PUBLIC "-//W3C//DTD SVG 1.1//EN"
       "http://www.w3.org/Graphics/SVG/1.1/DTD/svg11.dtd">
<svg version="1.1" xmlns="http://www.w3.org/2000/svg" xmlns:xlink="http://www.w3.org/1999/xlink" width="3300" height="2200">
 <!--glyph: "uni10020A.medium", point size: 100.0, font version: "17.1d1e1", template writer version: "65.1"-->
 <g id="Notes">
  <rect height="2200" id="artboard" style="fill:white;opacity:1" width="3300" x="0" y="0"/>
  <line style="fill:none;stroke:black;opacity:1;stroke-width:0.5;" x1="263" x2="3036" y1="292" y2="292"/>
  <text style="stroke:none;fill:black;font-family:sans-serif;font-size:13;font-weight:bold;" transform="matrix(1 0 0 1 263 322)">Weight/Scale Variations</text>
  <text style="stroke:none;fill:black;font-family:sans-serif;font-size:13;text-anchor:middle;" transform="matrix(1 0 0 1 559.711 322)">Ultralight</text>
  <text style="stroke:none;fill:black;font-family:sans-serif;font-size:13;text-anchor:middle;" transform="matrix(1 0 0 1 856.422 322)">Thin</text>
  <text style="stroke:none;fill:black;font-family:sans-serif;font-size:13;text-anchor:middle;" transform="matrix(1 0 0 1 1153.13 322)">Light</text>
  <text style="stroke:none;fill:black;font-family:sans-serif;font-size:13;text-anchor:middle;" transform="matrix(1 0 0 1 1449.84 322)">Regular</text>
  <text style="stroke:none;fill:black;font-family:sans-serif;font-size:13;text-anchor:middle;" transform="matrix(1 0 0 1 1746.56 322)">Medium</text>
  <text style="stroke:none;fill:black;font-family:sans-serif;font-size:13;text-anchor:middle;" transform="matrix(1 0 0 1 2043.27 322)">Semibold</text>
  <text style="stroke:none;fill:black;font-family:sans-serif;font-size:13;text-anchor:middle;" transform="matrix(1 0 0 1 2339.98 322)">Bold</text>
  <text style="stroke:none;fill:black;font-family:sans-serif;font-size:13;text-anchor:middle;" transform="matrix(1 0 0 1 2636.69 322)">Heavy</text>
  <text style="stroke:none;fill:black;font-family:sans-serif;font-size:13;text-anchor:middle;" transform="matrix(1 0 0 1 2933.4 322)">Black</text>
  <line style="fill:none;stroke:black;opacity:1;stroke-width:0.5;" x1="263" x2="3036" y1="1903" y2="1903"/>
  <g transform="matrix(1 0 0 1 263 1933)">
   <path d="M9.24805 0.830078Q10.8691 0.830078 12.2949 0.214844Q13.7207-0.400391 14.8096-1.49414Q15.8984-2.58789 16.5186-4.01367Q17.1387-5.43945 17.1387-7.05078Q17.1387-8.66211 16.5186-10.0879Q15.8984-11.5137 14.8047-12.6074Q13.7109-13.7012 12.2852-14.3164Q10.8594-14.9316 9.23828-14.9316Q7.62695-14.9316 6.20117-14.3164Q4.77539-13.7012 3.69141-12.6074Q2.60742-11.5137 1.9873-10.0879Q1.36719-8.66211 1.36719-7.05078Q1.36719-5.43945 1.9873-4.01367Q2.60742-2.58789 3.69629-1.49414Q4.78516-0.400391 6.21094 0.214844Q7.63672 0.830078 9.24805 0.830078ZM9.24805-0.654297Q7.91992-0.654297 6.7627-1.14746Q5.60547-1.64062 4.73145-2.51953Q3.85742-3.39844 3.36426-4.56055Q2.87109-5.72266 2.87109-7.05078Q2.87109-8.37891 3.35938-9.54102Q3.84766-10.7031 4.72168-11.582Q5.5957-12.4609 6.75293-12.9541Q7.91016-13.4473 9.23828-13.4473Q10.5762-13.4473 11.7334-12.9541Q12.8906-12.4609 13.7695-11.582Q14.6484-10.7031 15.1465-9.54102Q15.6445-8.37891 15.6445-7.05078Q15.6445-5.72266 15.1514-4.56055Q14.6582-3.39844 13.7842-2.51953Q12.9102-1.64062 11.748-1.14746Q10.5859-0.654297 9.24805-0.654297ZM5.6543-7.05078Q5.6543-6.72852 5.85938-6.52832Q6.06445-6.32812 6.40625-6.32812L8.51562-6.32812L8.51562-4.20898Q8.51562-3.88672 8.71094-3.67676Q8.90625-3.4668 9.23828-3.4668Q9.56055-3.4668 9.77051-3.67676Q9.98047-3.88672 9.98047-4.20898L9.98047-6.32812L12.0898-6.32812Q12.4219-6.32812 12.627-6.52832Q12.832-6.72852 12.832-7.05078Q12.832-7.38281 12.627-7.58789Q12.4219-7.79297 12.0898-7.79297L9.98047-7.79297L9.98047-9.90234Q9.98047-10.2344 9.77051-10.4443Q9.56055-10.6543 9.23828-10.6543Q8.90625-10.6543 8.71094-10.4443Q8.51562-10.2344 8.51562-9.90234L8.51562-7.79297L6.40625-7.79297Q6.06445-7.79297 5.85938-7.58789Q5.6543-7.38281 5.6543-7.05078Z"/>
  </g>
  <g transform="matrix(1 0 0 1 281.867 1933)">
   <path d="M11.709 2.91016Q13.75 2.91016 15.5518 2.12891Q17.3535 1.34766 18.7305-0.0292969Q20.1074-1.40625 20.8887-3.20801Q21.6699-5.00977 21.6699-7.05078Q21.6699-9.0918 20.8887-10.8936Q20.1074-12.6953 18.7305-14.0723Q17.3535-15.4492 15.5469-16.2305Q13.7402-17.0117 11.6992-17.0117Q9.6582-17.0117 7.85645-16.2305Q6.05469-15.4492 4.68262-14.0723Q3.31055-12.6953 2.5293-10.8936Q1.74805-9.0918 1.74805-7.05078Q1.74805-5.00977 2.5293-3.20801Q3.31055-1.40625 4.6875-0.0292969Q6.06445 1.34766 7.86621 2.12891Q9.66797 2.91016 11.709 2.91016ZM11.709 1.25Q9.98047 1.25 8.47656 0.605469Q6.97266-0.0390625 5.83496-1.17676Q4.69727-2.31445 4.05762-3.81836Q3.41797-5.32227 3.41797-7.05078Q3.41797-8.7793 4.05762-10.2832Q4.69727-11.7871 5.83008-12.9297Q6.96289-14.0723 8.4668-14.7119Q9.9707-15.3516 11.6992-15.3516Q13.4277-15.3516 14.9316-14.7119Q16.4355-14.0723 17.5781-12.9297Q18.7207-11.7871 19.3652-10.2832Q20.0098-8.7793 20.0098-7.05078Q20.0098-5.32227 19.3701-3.81836Q18.7305-2.31445 17.5928-1.17676Q16.4551-0.0390625 14.9463 0.605469Q13.4375 1.25 11.709 1.25ZM7.17773-7.05078Q7.17773-6.69922 7.41211-6.47461Q7.64648-6.25 8.01758-6.25L10.8887-6.25L10.8887-3.36914Q10.8887-2.99805 11.1133-2.76855Q11.3379-2.53906 11.6895-2.53906Q12.0605-2.53906 12.29-2.76855Q12.5195-2.99805 12.5195-3.36914L12.5195-6.25L15.4004-6.25Q15.7715-6.25 16.001-6.47461Q16.2305-6.69922 16.2305-7.05078Q16.2305-7.42188 16.001-7.65137Q15.7715-7.88086 15.4004-7.88086L12.5195-7.88086L12.5195-10.752Q12.5195-11.1328 12.29-11.3623Q12.0605-11.5918 11.6895-11.5918Q11.3379-11.5918 11.1133-11.3574Q10.8887-11.123 10.8887-10.752L10.8887-7.88086L8.01758-7.88086Q7.63672-7.88086 7.40723-7.65137Q7.17773-7.42188 7.17773-7.05078Z"/>
  </g>
  <g transform="matrix(1 0 0 1 305.646 1933)">
   <path d="M14.9707 5.66406Q17.0605 5.66406 18.96 5.01465Q20.8594 4.36523 22.4512 3.19336Q24.043 2.02148 25.2197 0.429688Q26.3965-1.16211 27.0459-3.06641Q27.6953-4.9707 27.6953-7.05078Q27.6953-9.14062 27.0459-11.04Q26.3965-12.9395 25.2197-14.5312Q24.043-16.123 22.4512-17.2998Q20.8594-18.4766 18.9551-19.126Q17.0508-19.7754 14.9609-19.7754Q12.8711-19.7754 10.9717-19.126Q9.07227-18.4766 7.48535-17.2998Q5.89844-16.123 4.72168-14.5312Q3.54492-12.9395 2.90039-11.04Q2.25586-9.14062 2.25586-7.05078Q2.25586-4.9707 2.90527-3.06641Q3.55469-1.16211 4.72656 0.429688Q5.89844 2.02148 7.49023 3.19336Q9.08203 4.36523 10.9814 5.01465Q12.8809 5.66406 14.9707 5.66406ZM14.9707 3.84766Q13.1641 3.84766 11.5283 3.2959Q9.89258 2.74414 8.53516 1.74805Q7.17773 0.751953 6.17676-0.610352Q5.17578-1.97266 4.62891-3.6084Q4.08203-5.24414 4.08203-7.05078Q4.08203-8.86719 4.62891-10.5029Q5.17578-12.1387 6.17188-13.501Q7.16797-14.8633 8.52539-15.8594Q9.88281-16.8555 11.5186-17.4023Q13.1543-17.9492 14.9609-17.9492Q16.7773-17.9492 18.4131-17.4023Q20.0488-16.8555 21.4111-15.8594Q22.7734-14.8633 23.7695-13.501Q24.7656-12.1387 25.3174-10.5029Q25.8691-8.86719 25.8691-7.05078Q25.8789-5.24414 25.332-3.6084Q24.7852-1.97266 23.7842-0.610352Q22.7832 0.751953 21.4209 1.74805Q20.0586 2.74414 18.4229 3.2959Q16.7871 3.84766 14.9707 3.84766ZM9.19922-7.05078Q9.19922-6.66992 9.45801-6.4209Q9.7168-6.17188 10.1172-6.17188L14.0625-6.17188L14.0625-2.2168Q14.0625-1.81641 14.3115-1.55762Q14.5605-1.29883 14.9512-1.29883Q15.3516-1.29883 15.6104-1.55273Q15.8691-1.80664 15.8691-2.2168L15.8691-6.17188L19.8242-6.17188Q20.2246-6.17188 20.4785-6.4209Q20.7324-6.66992 20.7324-7.05078Q20.7324-7.46094 20.4785-7.71484Q20.2246-7.96875 19.8242-7.96875L15.8691-7.96875L15.8691-11.9141Q15.8691-12.3242 15.6104-12.583Q15.3516-12.8418 14.9512-12.8418Q14.5605-12.8418 14.3115-12.583Q14.0625-12.3242 14.0625-11.9141L14.0625-7.96875L10.1172-7.96875Q9.70703-7.96875 9.45312-7.71484Q9.19922-7.46094 9.19922-7.05078Z"/>
  </g>
  <text style="stroke:none;fill:black;font-family:sans-serif;font-size:13;font-weight:bold;" transform="matrix(1 0 0 1 263 1953)">Design Variations</text>
  <text style="stroke:none;fill:black;font-family:sans-serif;font-size:13;" transform="matrix(1 0 0 1 263 1971)">Symbols are supported in up to nine weights and three scales.</text>
  <text style="stroke:none;fill:black;font-family:sans-serif;font-size:13;" transform="matrix(1 0 0 1 263 1989)">For optimal layout with text and other symbols, vertically align</text>
  <text style="stroke:none;fill:black;font-family:sans-serif;font-size:13;" transform="matrix(1 0 0 1 263 2007)">symbols with the adjacent text.</text>
  <line style="fill:none;stroke:#00AEEF;stroke-width:0.5;opacity:1.0;" x1="776" x2="776" y1="1919" y2="1933"/>
  <g transform="matrix(1 0 0 1 776 1933)">
   <path d="M3.31055 0.15625Q3.70117 0.15625 3.91602-0.00976562Q4.13086-0.175781 4.26758-0.585938L5.52734-4.0332L11.2891-4.0332L12.5488-0.585938Q12.6855-0.175781 12.9004-0.00976562Q13.1152 0.15625 13.4961 0.15625Q13.8867 0.15625 14.1162-0.0585938Q14.3457-0.273438 14.3457-0.644531Q14.3457-0.869141 14.2383-1.17188L9.6582-13.3691Q9.48242-13.8184 9.17969-14.043Q8.87695-14.2676 8.4082-14.2676Q7.5-14.2676 7.17773-13.3789L2.59766-1.16211Q2.49023-0.859375 2.49023-0.634766Q2.49023-0.263672 2.70996-0.0537109Q2.92969 0.15625 3.31055 0.15625ZM6.00586-5.51758L8.37891-12.0898L8.42773-12.0898L10.8008-5.51758Z"/>
  </g>
  <line style="fill:none;stroke:#00AEEF;stroke-width:0.5;opacity:1.0;" x1="793.197" x2="793.197" y1="1919" y2="1933"/>
  <text style="stroke:none;fill:black;font-family:sans-serif;font-size:13;font-weight:bold;" transform="matrix(1 0 0 1 776 1953)">Margins</text>
  <text style="stroke:none;fill:black;font-family:sans-serif;font-size:13;" transform="matrix(1 0 0 1 776 1971)">Leading and trailing margins on the left and right side of each symbol</text>
  <text style="stroke:none;fill:black;font-family:sans-serif;font-size:13;" transform="matrix(1 0 0 1 776 1989)">can be adjusted by modifying the x-location of the margin guidelines.</text>
  <text style="stroke:none;fill:black;font-family:sans-serif;font-size:13;" transform="matrix(1 0 0 1 776 2007)">Modifications are automatically applied proportionally to all</text>
  <text style="stroke:none;fill:black;font-family:sans-serif;font-size:13;" transform="matrix(1 0 0 1 776 2025)">scales and weights.</text>
  <g transform="matrix(1 0 0 1 1289 1933)">
   <path d="M2.8418 1.86523L4.54102 3.57422Q5.18555 4.22852 5.90332 4.17969Q6.62109 4.13086 7.31445 3.35938L18.0078-8.42773L17.041-9.4043L6.42578 2.27539Q6.16211 2.57812 5.89355 2.61719Q5.625 2.65625 5.27344 2.30469L4.10156 1.14258Q3.75 0.791016 3.79395 0.522461Q3.83789 0.253906 4.14062-0.0195312L15.6152-10.8203L14.6387-11.7871L3.04688-0.898438Q2.30469-0.214844 2.25098 0.498047Q2.19727 1.21094 2.8418 1.86523ZM9.25781-16.3281Q8.94531-16.0254 8.90625-15.6348Q8.86719-15.2441 9.04297-14.9512Q9.21875-14.6777 9.55566-14.541Q9.89258-14.4043 10.3809-14.5215Q11.4746-14.7754 12.5977-14.7314Q13.7207-14.6875 14.7949-13.9844L14.209-12.5293Q13.9551-11.9043 14.0674-11.4404Q14.1797-10.9766 14.5801-10.5664L16.875-8.25195Q17.2363-7.88086 17.5781-7.82227Q17.9199-7.76367 18.3398-7.8418L19.4043-8.03711L20.0684-7.36328L20.0293-6.80664Q20-6.43555 20.1221-6.12305Q20.2441-5.81055 20.6055-5.44922L21.3672-4.70703Q21.7285-4.3457 22.1533-4.33105Q22.5781-4.31641 22.9297-4.66797L25.8398-7.58789Q26.1914-7.93945 26.1816-8.35449Q26.1719-8.76953 25.8105-9.13086L25.0391-9.89258Q24.6875-10.2539 24.3799-10.3857Q24.0723-10.5176 23.7109-10.4883L23.1348-10.4395L22.4902-11.0742L22.7344-12.1973Q22.832-12.6172 22.6953-12.9834Q22.5586-13.3496 22.1191-13.7891L19.9219-15.9766Q18.6719-17.2168 17.2607-17.8369Q15.8496-18.457 14.4189-18.4814Q12.9883-18.5059 11.665-17.959Q10.3418-17.4121 9.25781-16.3281ZM10.752-15.957Q11.6602-16.6211 12.7002-16.9043Q13.7402-17.1875 14.8047-17.085Q15.8691-16.9824 16.8701-16.5137Q17.8711-16.0449 18.7012-15.2051L21.1328-12.793Q21.3086-12.6172 21.3525-12.4512Q21.3965-12.2852 21.3379-12.0312L21.0156-10.5469L22.5195-9.0625L23.5059-9.12109Q23.6914-9.13086 23.7891-9.09668Q23.8867-9.0625 24.0332-8.91602L24.6094-8.33984L22.168-5.89844L21.5918-6.47461Q21.4453-6.62109 21.4062-6.71875Q21.3672-6.81641 21.377-7.01172L21.4453-7.98828L19.9512-9.47266L18.4277-9.21875Q18.1836-9.16992 18.042-9.2041Q17.9004-9.23828 17.7148-9.41406L15.7129-11.416Q15.5176-11.5918 15.4932-11.7529Q15.4688-11.9141 15.5859-12.1875L16.4648-14.2773Q15.293-15.3711 13.8281-15.791Q12.3633-16.2109 10.8398-15.7617Q10.7227-15.7324 10.6885-15.8057Q10.6543-15.8789 10.752-15.957Z"/>
  </g>
  <text style="stroke:none;fill:black;font-family:sans-serif;font-size:13;font-weight:bold;" transform="matrix(1 0 0 1 1289 1953)">Exporting</text>
  <text style="stroke:none;fill:black;font-family:sans-serif;font-size:13;" transform="matrix(1 0 0 1 1289 1971)">Symbols should be outlined when exporting to ensure the</text>
  <text style="stroke:none;fill:black;font-family:sans-serif;font-size:13;" transform="matrix(1 0 0 1 1289 1989)">design is preserved when submitting to Xcode.</text>
  <text id="template-version" style="stroke:none;fill:black;font-family:sans-serif;font-size:13;text-anchor:end;" transform="matrix(1 0 0 1 3036 1933)">Template v.3.0</text>
  <text style="stroke:none;fill:black;font-family:sans-serif;font-size:13;text-anchor:end;" transform="matrix(1 0 0 1 3036 1951)">Requires Xcode 13 or greater</text>
  <text id="descriptive-name" style="stroke:none;fill:black;font-family:sans-serif;font-size:13;text-anchor:end;" transform="matrix(1 0 0 1 3036 1969)">Generated from pencil</text>
  <text style="stroke:none;fill:black;font-family:sans-serif;font-size:13;text-anchor:end;" transform="matrix(1 0 0 1 3036 1987)">Typeset at 100 points</text>
  <text style="stroke:none;fill:black;font-family:sans-serif;font-size:13;" transform="matrix(1 0 0 1 263 726)">Small</text>
  <text style="stroke:none;fill:black;font-family:sans-serif;font-size:13;" transform="matrix(1 0 0 1 263 1156)">Medium</text>
  <text style="stroke:none;fill:black;font-family:sans-serif;font-size:13;" transform="matrix(1 0 0 1 263 1586)">Large</text>
 </g>
 <g id="Guides">
  <g id="H-reference" style="fill:#27AAE1;stroke:none;" transform="matrix(1 0 0 1 339 696)">
   <path d="M0.993347 0L3.6377 0L29.3282-67.1326L30.0301-67.1326L30.0301-70.459L28.1227-70.459ZM11.6882-24.4797L46.9818-24.4797L46.2311-26.7288L12.4382-26.7288ZM55.1193 0L57.7637 0L30.6381-70.459L29.4327-70.459L29.4327-67.1326Z"/>
  </g>
  <line id="Baseline-S" style="fill:none;stroke:#27AAE1;opacity:1;stroke-width:0.5;" x1="263" x2="3036" y1="696" y2="696"/>
  <line id="Capline-S" style="fill:none;stroke:#27AAE1;opacity:1;stroke-width:0.5;" x1="263" x2="3036" y1="625.541" y2="625.541"/>
  <g id="H-reference" style="fill:#27AAE1;stroke:none;" transform="matrix(1 0 0 1 339 1126)">
   <path d="M0.993347 0L3.6377 0L29.3282-67.1326L30.0301-67.1326L30.0301-70.459L28.1227-70.459ZM11.6882-24.4797L46.9818-24.4797L46.2311-26.7288L12.4382-26.7288ZM55.1193 0L57.7637 0L30.6381-70.459L29.4327-70.459L29.4327-67.1326Z"/>
  </g>
  <line id="Baseline-M" style="fill:none;stroke:#27AAE1;opacity:1;stroke-width:0.5;" x1="263" x2="3036" y1="1126" y2="1126"/>
  <line id="Capline-M" style="fill:none;stroke:#27AAE1;opacity:1;stroke-width:0.5;" x1="263" x2="3036" y1="1055.54" y2="1055.54"/>
  <g id="H-reference" style="fill:#27AAE1;stroke:none;" transform="matrix(1 0 0 1 339 1556)">
   <path d="M0.993347 0L3.6377 0L29.3282-67.1326L30.0301-67.1326L30.0301-70.459L28.1227-70.459ZM11.6882-24.4797L46.9818-24.4797L46.2311-26.7288L12.4382-26.7288ZM55.1193 0L57.7637 0L30.6381-70.459L29.4327-70.459L29.4327-67.1326Z"/>
  </g>
  <line id="Baseline-L" style="fill:none;stroke:#27AAE1;opacity:1;stroke-width:0.5;" x1="263" x2="3036" y1="1556" y2="1556"/>
  <line id="Capline-L" style="fill:none;stroke:#27AAE1;opacity:1;stroke-width:0.5;" x1="263" x2="3036" y1="1485.54" y2="1485.54"/>
  <line id="left-margin-Regular-M" style="fill:none;stroke:#00AEEF;stroke-width:0.5;opacity:1.0;" x1="1399.74" x2="1399.74" y1="1030.79" y2="1150.12"/>
  <line id="right-margin-Regular-M" style="fill:none;stroke:#00AEEF;stroke-width:0.5;opacity:1.0;" x1="1499.95" x2="1499.95" y1="1030.79" y2="1150.12"/>
 </g>
 <g id="Symbols">
  <g id="Black-L" transform="matrix(1 0 0 1 2859.14 1556)">
   <path d="M37.1624 17.5163L114.791-60.2071L98.9629-76.0376L21.3332 1.68579L14.752 19.1155Q13.8643 21.4219 15.6788 23.1405Q17.4934 24.8591 19.587 24.1089ZM122.562-67.8764L130.915-76.2288Q133.885-79.2367 134.005-82.5759Q134.124-85.9151 131.299-88.8193L127.731-92.4666Q124.828-95.3489 121.43-95.1484Q118.032-94.948 115.064-92.0217L106.689-83.7277Z"/>
  </g>
  <g id="Heavy-L" transform="matrix(1 0 0 1 2564.7 1556)">
   <path d="M35.7638 15.7812L111.469-59.9777L96.8823-74.5761L21.1711 1.18289L14.72 17.7511Q13.942 19.7604 15.5327 21.292Q17.1234 22.8236 18.9843 22.165ZM118.683-67.0813L126.514-74.9063Q129.344-77.7505 129.459-80.8668Q129.574-83.9832 126.926-86.7054L123.748-89.9583Q121.032-92.6448 117.868-92.4466Q114.704-92.2483 111.886-89.4902L104.025-81.7098Z"/>
  </g>
  <g id="Bold-L" transform="matrix(1 0 0 1 2270.55 1556)">
   <path d="M34.0199 13.8831L107.887-59.9914L94.8893-73.0163L21.0086 0.85853L14.6815 16.3588Q14.0343 18.0141 15.3559 19.3152Q16.6774 20.6163 18.2538 20.0655ZM114.418-66.4032L121.58-73.5527Q124.226-76.1896 124.333-79.0219Q124.441-81.8541 122.016-84.3461L119.352-87.0774Q116.873-89.5181 114.005-89.3238Q111.137-89.1294 108.518-86.5862L101.317-79.4659Z"/>
  </g>
  <g id="Semibold-L" transform="matrix(1 0 0 1 1975.61 1556)">
   <path d="M32.8176 12.5746L105.418-60.0009L93.5154-71.9409L20.8966 0.634921L14.6549 15.3989Q14.098 16.8103 15.2339 17.9525Q16.3699 19.0946 17.7502 18.618ZM111.477-65.9358L118.179-72.6196Q120.698-75.1136 120.8-77.75Q120.902-80.3864 118.631-82.7196L116.321-85.0913Q114.006-87.3626 111.342-87.1709Q108.678-86.9792 106.196-84.5842L99.4502-77.9189Z"/>
  </g>
  <g id="Medium-L" transform="matrix(1 0 0 1 1680.24 1556)">
   <path d="M31.906 11.5824L103.546-60.0081L92.4736-71.1255L20.8116 0.465371L14.6348 14.6711Q14.1463 15.8975 15.1415 16.9191Q16.1367 17.9408 17.3684 17.5205ZM109.247-65.5813L115.6-71.912Q118.022-74.2977 118.121-76.7856Q118.219-79.2735 116.064-81.4863L114.022-83.5854Q111.832-85.7283 109.323-85.5385Q106.813-85.3488 104.435-83.0662L98.0348-76.746Z"/>
  </g>
  <g id="Regular-L" transform="matrix(1 0 0 1 1385.27 1556)">
   <path d="M30.717 10.2882L101.104-60.0174L91.1148-70.0619L20.7008 0.244219L14.6085 13.7217Q14.2092 14.7069 15.0209 15.5713Q15.8326 16.4358 16.8703 16.089ZM106.338-65.119L112.236-70.9891Q114.533-73.2335 114.626-75.5277Q114.719-77.8219 112.716-79.8776L111.025-81.6212Q108.997-83.5965 106.689-83.4094Q104.381-83.2222 102.139-81.0861L96.1885-75.216Z"/>
  </g>
  <g id="Light-L" transform="matrix(1 0 0 1 1088.71 1556)">
   <path d="M29.4382 10.5935L102.058-61.9449L93.5005-70.5965L20.8346 1.94273L14.5893 14.676Q14.2474 15.5085 14.9255 16.2203Q15.6037 16.9322 16.4695 16.6236ZM106.853-66.6267L112.16-71.886Q114.266-73.9588 114.34-76.0049Q114.414-78.0509 112.582-79.9158L111.445-81.0866Q109.627-82.8711 107.557-82.6936Q105.488-82.5162 103.475-80.5708L98.1352-75.3116Z"/>
  </g>
  <g id="Thin-L" transform="matrix(1 0 0 1 792.184 1556)">
   <path d="M27.7469 10.9972L103.32-64.4941L96.6558-71.3034L21.0114 4.18915L14.5639 15.9381Q14.2978 16.5687 14.7994 17.0787Q15.3009 17.5887 15.9394 17.3305ZM107.535-68.6208L112.059-73.0722Q113.913-74.9181 113.961-76.6359Q114.01-78.3537 112.405-79.9663L112-80.3797Q110.46-81.9118 108.706-81.7471Q106.952-81.5823 105.242-79.8893L100.71-75.438Z"/>
  </g>
  <g id="Ultralight-L" transform="matrix(1 0 0 1 495.57 1556)">
   <path d="M26.8807 11.204L103.966-65.7998L98.2719-71.6655L21.102 5.33976L14.5508 16.5846Q14.3237 17.1118 14.7347 17.5184Q15.1458 17.925 15.6678 17.6926ZM107.884-69.6422L112.007-73.6797Q113.732-75.4095 113.767-76.9591Q113.803-78.5088 112.315-79.9921L112.284-80.0176Q110.886-81.4205 109.294-81.2622Q107.701-81.104 106.147-79.5402L102.029-75.5027Z"/>
  </g>
  <g id="Black-M" transform="matrix(1 0 0 1 2873.93 1126)">
   <path d="M29.8201 7.16738L91.9174-55.039L78.7821-68.1737L16.6851-5.96735L11.4539 8.17566Q10.6796 10.1973 12.2597 11.6688Q13.8399 13.1402 15.6386 12.4855ZM98.3564-61.4101L105.197-68.2514Q107.594-70.6993 107.687-73.4442Q107.781-76.1891 105.463-78.5697L102.439-81.6568Q100.058-84.0322 97.2559-83.8763Q94.454-83.7204 92.0572-81.3346L85.2106-74.5503Z"/>
  </g>
  <g id="Heavy-M" transform="matrix(1 0 0 1 2579.43 1126)">
   <path d="M28.5708 5.44309L88.5823-54.6369L76.5281-66.6957L16.5143-6.61566L11.4244 6.75391Q10.7521 8.4991 12.1257 9.80187Q13.4993 11.1046 15.0864 10.5359ZM94.5177-60.4937L100.902-66.8759Q103.179-69.1795 103.27-71.7294Q103.361-74.2794 101.201-76.4997L98.5063-79.254Q96.2883-81.4557 93.6936-81.3011Q91.0989-81.1465 88.8271-78.9074L82.4262-72.5688Z"/>
  </g>
  <g id="Bold-M" transform="matrix(1 0 0 1 2285.19 1126)">
   <path d="M27.1733 3.51421L84.8514-54.1872L74.0066-65.0424L16.3233-7.34088L11.3914 5.16347Q10.8331 6.5994 11.9757 7.71348Q13.1183 8.82757 14.4686 8.35502ZM90.2236-59.4685L96.0974-65.3372Q98.2397-67.4794 98.328-69.8113Q98.4164-72.1431 96.4325-74.1841L94.1075-76.5662Q92.0717-78.5735 89.7087-78.4203Q87.3457-78.2671 85.2137-76.1924L79.3113-70.3523Z"/>
  </g>
  <g id="Semibold-M" transform="matrix(1 0 0 1 1990.18 1126)">
   <path d="M26.2098 2.18446L82.2794-53.8771L72.2683-63.9026L16.1917-7.84085L11.3686 4.06704Q10.889 5.28976 11.8723 6.27376Q12.8556 7.25777 14.0427 6.85152ZM87.2633-58.7618L92.785-64.2764Q94.8349-66.3073 94.9212-68.4889Q95.0076-70.6704 93.1453-72.5878L91.075-74.7133Q89.1648-76.5865 86.9615-76.4343Q84.7582-76.2821 82.7226-74.3206L77.1639-68.8242Z"/>
  </g>
  <g id="Medium-M" transform="matrix(1 0 0 1 1694.76 1126)">
   <path d="M25.4793 1.17619L80.3291-53.642L70.9502-63.0383L16.0918-8.21994L11.3513 3.23567Q10.9314 4.29673 11.7939 5.18211Q12.6564 6.06749 13.7197 5.7115ZM85.0187-58.2259L90.2735-63.472Q92.2532-65.4186 92.338-67.4862Q92.4229-69.5537 90.6529-71.3773L88.7756-73.3083Q86.9606-75.0799 84.8785-74.9285Q82.7963-74.777 80.8338-72.9014L75.5357-67.6656Z"/>
  </g>
  <g id="Regular-M" transform="matrix(1 0 0 1 1399.74 1126)">
   <path d="M24.5264-0.138954L77.7854-53.3354L69.231-61.911L15.9616-8.71442L11.3288 2.15129Q10.9867 3.00148 11.6917 3.75821Q12.3967 4.51494 13.2985 4.22451ZM82.0909-57.527L86.9975-62.4229Q88.8857-64.2595 88.9686-66.1783Q89.0516-68.0972 87.4019-69.7985L85.7764-71.4757Q84.0857-73.1147 82.1615-72.9643Q80.2373-72.8139 78.3701-71.0502L73.4119-66.1543Z"/>
  </g>
  <g id="Light-M" transform="matrix(1 0 0 1 1103.15 1126)">
   <path d="M23.38 0.134732L78.6409-55.0635L71.3699-62.3903L16.0815-7.19161L11.3116 3.00684Q11.0209 3.72019 11.6062 4.34008Q12.1914 4.95997 12.9392 4.70375ZM82.5529-58.8787L86.929-63.227Q88.6463-64.9098 88.7121-66.6061Q88.7779-68.3024 87.282-69.8327L86.1527-70.9964Q84.6503-72.4644 82.94-72.3226Q81.2297-72.1808 79.5678-70.5882L75.1573-66.24Z"/>
  </g>
  <g id="Thin-M" transform="matrix(1 0 0 1 806.613 1126)">
   <path d="M21.8636 0.496702L79.7725-57.349L74.1987-63.0241L16.2401-5.17758L11.2888 4.13838Q11.0662 4.67074 11.4931 5.10965Q11.9199 5.54855 12.4639 5.33758ZM83.1639-60.6665L86.8385-64.2904Q88.3295-65.7698 88.3727-67.1719Q88.4159-68.5739 87.1234-69.878L86.6504-70.3626Q85.397-71.6044 83.9696-71.474Q82.5422-71.3436 81.1518-69.9772L77.4656-66.3533Z"/>
  </g>
  <g id="Ultralight-M" transform="matrix(1 0 0 1 509.989 1126)">
   <path d="M21.087 0.682102L80.352-58.5196L75.6477-63.3487L16.3213-4.146L11.2771 4.71795Q11.0894 5.15761 11.4351 5.50381Q11.7809 5.85002 12.2205 5.66222ZM83.4769-61.5822L86.7922-64.8352Q88.1673-66.2104 88.1989-67.4617Q88.2305-68.713 87.0422-69.9012L86.9053-70.038Q85.7795-71.1639 84.497-71.0393Q83.2145-70.9147 81.9631-69.6642L78.6479-66.4113Z"/>
  </g>
  <g id="Black-S" transform="matrix(1 0 0 1 2886.13 696)">
   <path d="M23.6816-1.46484L73.0957-50.9766L62.5488-61.5234L13.1348-12.0117L8.98438-0.732422Q8.34961 0.927734 9.64355 2.12402Q10.9375 3.32031 12.4023 2.7832ZM78.2715-56.1035L83.7402-61.5723Q85.6445-63.5254 85.7178-65.7227Q85.791-67.9199 83.9355-69.8242L81.4941-72.3145Q79.5898-74.2188 77.3438-74.0967Q75.0977-73.9746 73.1934-72.0703L67.7246-66.6504Z"/>
  </g>
  <g id="Heavy-S" transform="matrix(1 0 0 1 2591.3 696)">
   <path d="M22.7597-2.97455L70.1339-50.4119L60.3477-60.1981L12.9734-12.7608L8.96133-2.05774Q8.40723-0.616544 9.53983 0.452976Q10.6724 1.5225 11.9759 1.05453ZM74.9294-55.147L80.0755-60.293Q81.8991-62.1425 81.9723-64.2014Q82.0456-66.2604 80.3053-68.0495L78.0829-70.3207Q76.2938-72.0982 74.1976-71.9762Q72.1013-71.8541 70.2777-70.0535L65.1201-64.9448Z"/>
  </g>
  <g id="Bold-S" transform="matrix(1 0 0 1 2296.68 696)">
   <path d="M21.7285-4.66309L66.8213-49.7803L57.8857-58.7158L12.793-13.5986L8.93555-3.54004Q8.47168-2.34375 9.42383-1.41602Q10.376-0.488281 11.499-0.878906ZM71.1914-54.0771L75.9766-58.8623Q77.71-60.5957 77.7832-62.5Q77.8564-64.4043 76.2451-66.0645L74.2676-68.0908Q72.6074-69.7266 70.6787-69.6045Q68.75-69.4824 67.0166-67.7979L62.207-63.0371Z"/>
  </g>
  <g id="Semibold-S" transform="matrix(1 0 0 1 2001.41 696)">
   <path d="M21.0176-5.82725L64.5374-49.3448L56.1884-57.6938L12.6686-14.1763L8.91777-4.56201Q8.51611-3.53457 9.34385-2.70459Q10.1716-1.87461 11.1702-2.21191ZM68.6143-53.3396L73.1506-57.8759Q74.8218-59.5293 74.895-61.327Q74.9683-63.1246 73.4458-64.6959L71.6371-66.5534Q70.0658-68.0914 68.2526-67.9693Q66.4395-67.8473 64.7683-66.2427L60.1986-61.7219Z"/>
  </g>
  <g id="Medium-S" transform="matrix(1 0 0 1 1705.8 696)">
   <path d="M20.4785-6.70996L62.8057-49.0146L54.9014-56.9189L12.5742-14.6143L8.9043-5.33691Q8.5498-4.4375 9.2832-3.68164Q10.0166-2.92578 10.9209-3.22266ZM66.6602-52.7803L71.0078-57.1279Q72.6318-58.7207 72.7051-60.4375Q72.7783-62.1543 71.3232-63.6582L69.6426-65.3877Q68.1387-66.8516 66.4131-66.7295Q64.6875-66.6074 63.0635-65.0635L58.6758-60.7246Z"/>
  </g>
  <g id="Regular-S" transform="matrix(1 0 0 1 1410.51 696)">
   <path d="M19.7754-7.86133L60.5469-48.584L53.2227-55.9082L12.4512-15.1855L8.88672-6.34766Q8.59375-5.61523 9.2041-4.95605Q9.81445-4.29688 10.5957-4.54102ZM64.1113-52.0508L68.2129-56.1523Q69.7754-57.666 69.8486-59.2773Q69.9219-60.8887 68.5547-62.3047L67.041-63.8672Q65.625-65.2344 64.0137-65.1123Q62.4023-64.9902 60.8398-63.5254L56.6895-59.4238Z"/>
  </g>
  <g id="Light-S" transform="matrix(1 0 0 1 1113.92 696)">
   <path d="M18.7612-7.61922L61.3037-50.1127L55.1147-56.3321L12.5572-13.8385L8.87146-5.59082Q8.62401-4.97945 9.12844-4.44132Q9.63287-3.9032 10.2778-4.11708ZM64.52-53.2466L68.1524-56.8637Q69.5635-58.2413 69.6217-59.6558Q69.6798-61.0703 68.4486-62.335L67.3739-63.4432Q66.1245-64.6591 64.7024-64.5447Q63.2802-64.4302 61.8993-63.1167L58.2334-59.4996Z"/>
  </g>
  <g id="Thin-S" transform="matrix(1 0 0 1 817.355 696)">
   <path d="M17.4198-7.29902L62.3047-52.1345L57.6172-56.8928L12.6975-12.0568L8.85128-4.58984Q8.66404-4.13858 9.02838-3.76055Q9.39272-3.38253 9.85737-3.55638ZM65.0605-54.8281L68.0723-57.8044Q69.2834-59.0021 69.3215-60.1562Q69.3596-61.3104 68.3084-62.375L67.8142-62.8826Q66.7851-63.8983 65.6132-63.7939Q64.4413-63.6896 63.3005-62.5762L60.2754-59.5998Z"/>
  </g>
  <g id="Ultralight-S" transform="matrix(1 0 0 1 520.721 696)">
   <path d="M16.7328-7.13501L62.8174-53.17L58.8989-57.18L12.7693-11.1443L8.84094-4.07715Q8.68454-3.70789 8.97713-3.41187Q9.26971-3.11584 9.64203-3.2692ZM65.3374-55.6381L68.0313-58.2863Q69.1399-59.3918 69.1677-60.4126Q69.1956-61.4334 68.2365-62.3955L68.0397-62.5954Q67.1234-63.5086 66.0797-63.4094Q65.036-63.3102 64.0182-62.2993L61.3213-59.6512Z"/>
  </g>
 </g>
</svg>
