<?xml version="1.0" encoding="UTF-8"?>
<!--Generator: Apple Native CoreSVG 175-->
<!DOCTYPE svg
PUBLIC "-//W3C//DTD SVG 1.1//EN"
       "http://www.w3.org/Graphics/SVG/1.1/DTD/svg11.dtd">
<svg version="1.1" xmlns="http://www.w3.org/2000/svg" xmlns:xlink="http://www.w3.org/1999/xlink" width="3300" height="2200">
 <!--glyph: "uni100356.medium", point size: 100.0, font version: "17.1d1e1", template writer version: "65.1"-->
 <g id="Notes">
  <rect height="2200" id="artboard" style="fill:white;opacity:1" width="3300" x="0" y="0"/>
  <line style="fill:none;stroke:black;opacity:1;stroke-width:0.5;" x1="263" x2="3036" y1="292" y2="292"/>
  <text style="stroke:none;fill:black;font-family:sans-serif;font-size:13;font-weight:bold;" transform="matrix(1 0 0 1 263 322)">Weight/Scale Variations</text>
  <text style="stroke:none;fill:black;font-family:sans-serif;font-size:13;text-anchor:middle;" transform="matrix(1 0 0 1 559.711 322)">Ultralight</text>
  <text style="stroke:none;fill:black;font-family:sans-serif;font-size:13;text-anchor:middle;" transform="matrix(1 0 0 1 856.422 322)">Thin</text>
  <text style="stroke:none;fill:black;font-family:sans-serif;font-size:13;text-anchor:middle;" transform="matrix(1 0 0 1 1153.13 322)">Light</text>
  <text style="stroke:none;fill:black;font-family:sans-serif;font-size:13;text-anchor:middle;" transform="matrix(1 0 0 1 1449.84 322)">Regular</text>
  <text style="stroke:none;fill:black;font-family:sans-serif;font-size:13;text-anchor:middle;" transform="matrix(1 0 0 1 1746.56 322)">Medium</text>
  <text style="stroke:none;fill:black;font-family:sans-serif;font-size:13;text-anchor:middle;" transform="matrix(1 0 0 1 2043.27 322)">Semibold</text>
  <text style="stroke:none;fill:black;font-family:sans-serif;font-size:13;text-anchor:middle;" transform="matrix(1 0 0 1 2339.98 322)">Bold</text>
  <text style="stroke:none;fill:black;font-family:sans-serif;font-size:13;text-anchor:middle;" transform="matrix(1 0 0 1 2636.69 322)">Heavy</text>
  <text style="stroke:none;fill:black;font-family:sans-serif;font-size:13;text-anchor:middle;" transform="matrix(1 0 0 1 2933.4 322)">Black</text>
  <line style="fill:none;stroke:black;opacity:1;stroke-width:0.5;" x1="263" x2="3036" y1="1903" y2="1903"/>
  <g transform="matrix(1 0 0 1 263 1933)">
   <path d="M9.24805 0.830078Q10.8691 0.830078 12.2949 0.214844Q13.7207-0.400391 14.8096-1.49414Q15.8984-2.58789 16.5186-4.01367Q17.1387-5.43945 17.1387-7.05078Q17.1387-8.66211 16.5186-10.0879Q15.8984-11.5137 14.8047-12.6074Q13.7109-13.7012 12.2852-14.3164Q10.8594-14.9316 9.23828-14.9316Q7.62695-14.9316 6.20117-14.3164Q4.77539-13.7012 3.69141-12.6074Q2.60742-11.5137 1.9873-10.0879Q1.36719-8.66211 1.36719-7.05078Q1.36719-5.43945 1.9873-4.01367Q2.60742-2.58789 3.69629-1.49414Q4.78516-0.400391 6.21094 0.214844Q7.63672 0.830078 9.24805 0.830078ZM9.24805-0.654297Q7.91992-0.654297 6.7627-1.14746Q5.60547-1.64062 4.73145-2.51953Q3.85742-3.39844 3.36426-4.56055Q2.87109-5.72266 2.87109-7.05078Q2.87109-8.37891 3.35938-9.54102Q3.84766-10.7031 4.72168-11.582Q5.5957-12.4609 6.75293-12.9541Q7.91016-13.4473 9.23828-13.4473Q10.5762-13.4473 11.7334-12.9541Q12.8906-12.4609 13.7695-11.582Q14.6484-10.7031 15.1465-9.54102Q15.6445-8.37891 15.6445-7.05078Q15.6445-5.72266 15.1514-4.56055Q14.6582-3.39844 13.7842-2.51953Q12.9102-1.64062 11.748-1.14746Q10.5859-0.654297 9.24805-0.654297ZM5.6543-7.05078Q5.6543-6.72852 5.85938-6.52832Q6.06445-6.32812 6.40625-6.32812L8.51562-6.32812L8.51562-4.20898Q8.51562-3.88672 8.71094-3.67676Q8.90625-3.4668 9.23828-3.4668Q9.56055-3.4668 9.77051-3.67676Q9.98047-3.88672 9.98047-4.20898L9.98047-6.32812L12.0898-6.32812Q12.4219-6.32812 12.627-6.52832Q12.832-6.72852 12.832-7.05078Q12.832-7.38281 12.627-7.58789Q12.4219-7.79297 12.0898-7.79297L9.98047-7.79297L9.98047-9.90234Q9.98047-10.2344 9.77051-10.4443Q9.56055-10.6543 9.23828-10.6543Q8.90625-10.6543 8.71094-10.4443Q8.51562-10.2344 8.51562-9.90234L8.51562-7.79297L6.40625-7.79297Q6.06445-7.79297 5.85938-7.58789Q5.6543-7.38281 5.6543-7.05078Z"/>
  </g>
  <g transform="matrix(1 0 0 1 281.867 1933)">
   <path d="M11.709 2.91016Q13.75 2.91016 15.5518 2.12891Q17.3535 1.34766 18.7305-0.0292969Q20.1074-1.40625 20.8887-3.20801Q21.6699-5.00977 21.6699-7.05078Q21.6699-9.0918 20.8887-10.8936Q20.1074-12.6953 18.7305-14.0723Q17.3535-15.4492 15.5469-16.2305Q13.7402-17.0117 11.6992-17.0117Q9.6582-17.0117 7.85645-16.2305Q6.05469-15.4492 4.68262-14.0723Q3.31055-12.6953 2.5293-10.8936Q1.74805-9.0918 1.74805-7.05078Q1.74805-5.00977 2.5293-3.20801Q3.31055-1.40625 4.6875-0.0292969Q6.06445 1.34766 7.86621 2.12891Q9.66797 2.91016 11.709 2.91016ZM11.709 1.25Q9.98047 1.25 8.47656 0.605469Q6.97266-0.0390625 5.83496-1.17676Q4.69727-2.31445 4.05762-3.81836Q3.41797-5.32227 3.41797-7.05078Q3.41797-8.7793 4.05762-10.2832Q4.69727-11.7871 5.83008-12.9297Q6.96289-14.0723 8.4668-14.7119Q9.9707-15.3516 11.6992-15.3516Q13.4277-15.3516 14.9316-14.7119Q16.4355-14.0723 17.5781-12.9297Q18.7207-11.7871 19.3652-10.2832Q20.0098-8.7793 20.0098-7.05078Q20.0098-5.32227 19.3701-3.81836Q18.7305-2.31445 17.5928-1.17676Q16.4551-0.0390625 14.9463 0.605469Q13.4375 1.25 11.709 1.25ZM7.17773-7.05078Q7.17773-6.69922 7.41211-6.47461Q7.64648-6.25 8.01758-6.25L10.8887-6.25L10.8887-3.36914Q10.8887-2.99805 11.1133-2.76855Q11.3379-2.53906 11.6895-2.53906Q12.0605-2.53906 12.29-2.76855Q12.5195-2.99805 12.5195-3.36914L12.5195-6.25L15.4004-6.25Q15.7715-6.25 16.001-6.47461Q16.2305-6.69922 16.2305-7.05078Q16.2305-7.42188 16.001-7.65137Q15.7715-7.88086 15.4004-7.88086L12.5195-7.88086L12.5195-10.752Q12.5195-11.1328 12.29-11.3623Q12.0605-11.5918 11.6895-11.5918Q11.3379-11.5918 11.1133-11.3574Q10.8887-11.123 10.8887-10.752L10.8887-7.88086L8.01758-7.88086Q7.63672-7.88086 7.40723-7.65137Q7.17773-7.42188 7.17773-7.05078Z"/>
  </g>
  <g transform="matrix(1 0 0 1 305.646 1933)">
   <path d="M14.9707 5.66406Q17.0605 5.66406 18.96 5.01465Q20.8594 4.36523 22.4512 3.19336Q24.043 2.02148 25.2197 0.429688Q26.3965-1.16211 27.0459-3.06641Q27.6953-4.9707 27.6953-7.05078Q27.6953-9.14062 27.0459-11.04Q26.3965-12.9395 25.2197-14.5312Q24.043-16.123 22.4512-17.2998Q20.8594-18.4766 18.9551-19.126Q17.0508-19.7754 14.9609-19.7754Q12.8711-19.7754 10.9717-19.126Q9.07227-18.4766 7.48535-17.2998Q5.89844-16.123 4.72168-14.5312Q3.54492-12.9395 2.90039-11.04Q2.25586-9.14062 2.25586-7.05078Q2.25586-4.9707 2.90527-3.06641Q3.55469-1.16211 4.72656 0.429688Q5.89844 2.02148 7.49023 3.19336Q9.08203 4.36523 10.9814 5.01465Q12.8809 5.66406 14.9707 5.66406ZM14.9707 3.84766Q13.1641 3.84766 11.5283 3.2959Q9.89258 2.74414 8.53516 1.74805Q7.17773 0.751953 6.17676-0.610352Q5.17578-1.97266 4.62891-3.6084Q4.08203-5.24414 4.08203-7.05078Q4.08203-8.86719 4.62891-10.5029Q5.17578-12.1387 6.17188-13.501Q7.16797-14.8633 8.52539-15.8594Q9.88281-16.8555 11.5186-17.4023Q13.1543-17.9492 14.9609-17.9492Q16.7773-17.9492 18.4131-17.4023Q20.0488-16.8555 21.4111-15.8594Q22.7734-14.8633 23.7695-13.501Q24.7656-12.1387 25.3174-10.5029Q25.8691-8.86719 25.8691-7.05078Q25.8789-5.24414 25.332-3.6084Q24.7852-1.97266 23.7842-0.610352Q22.7832 0.751953 21.4209 1.74805Q20.0586 2.74414 18.4229 3.2959Q16.7871 3.84766 14.9707 3.84766ZM9.19922-7.05078Q9.19922-6.66992 9.45801-6.4209Q9.7168-6.17188 10.1172-6.17188L14.0625-6.17188L14.0625-2.2168Q14.0625-1.81641 14.3115-1.55762Q14.5605-1.29883 14.9512-1.29883Q15.3516-1.29883 15.6104-1.55273Q15.8691-1.80664 15.8691-2.2168L15.8691-6.17188L19.8242-6.17188Q20.2246-6.17188 20.4785-6.4209Q20.7324-6.66992 20.7324-7.05078Q20.7324-7.46094 20.4785-7.71484Q20.2246-7.96875 19.8242-7.96875L15.8691-7.96875L15.8691-11.9141Q15.8691-12.3242 15.6104-12.583Q15.3516-12.8418 14.9512-12.8418Q14.5605-12.8418 14.3115-12.583Q14.0625-12.3242 14.0625-11.9141L14.0625-7.96875L10.1172-7.96875Q9.70703-7.96875 9.45312-7.71484Q9.19922-7.46094 9.19922-7.05078Z"/>
  </g>
  <text style="stroke:none;fill:black;font-family:sans-serif;font-size:13;font-weight:bold;" transform="matrix(1 0 0 1 263 1953)">Design Variations</text>
  <text style="stroke:none;fill:black;font-family:sans-serif;font-size:13;" transform="matrix(1 0 0 1 263 1971)">Symbols are supported in up to nine weights and three scales.</text>
  <text style="stroke:none;fill:black;font-family:sans-serif;font-size:13;" transform="matrix(1 0 0 1 263 1989)">For optimal layout with text and other symbols, vertically align</text>
  <text style="stroke:none;fill:black;font-family:sans-serif;font-size:13;" transform="matrix(1 0 0 1 263 2007)">symbols with the adjacent text.</text>
  <line style="fill:none;stroke:#00AEEF;stroke-width:0.5;opacity:1.0;" x1="776" x2="776" y1="1919" y2="1933"/>
  <g transform="matrix(1 0 0 1 776 1933)">
   <path d="M3.31055 0.15625Q3.70117 0.15625 3.91602-0.00976562Q4.13086-0.175781 4.26758-0.585938L5.52734-4.0332L11.2891-4.0332L12.5488-0.585938Q12.6855-0.175781 12.9004-0.00976562Q13.1152 0.15625 13.4961 0.15625Q13.8867 0.15625 14.1162-0.0585938Q14.3457-0.273438 14.3457-0.644531Q14.3457-0.869141 14.2383-1.17188L9.6582-13.3691Q9.48242-13.8184 9.17969-14.043Q8.87695-14.2676 8.4082-14.2676Q7.5-14.2676 7.17773-13.3789L2.59766-1.16211Q2.49023-0.859375 2.49023-0.634766Q2.49023-0.263672 2.70996-0.0537109Q2.92969 0.15625 3.31055 0.15625ZM6.00586-5.51758L8.37891-12.0898L8.42773-12.0898L10.8008-5.51758Z"/>
  </g>
  <line style="fill:none;stroke:#00AEEF;stroke-width:0.5;opacity:1.0;" x1="793.197" x2="793.197" y1="1919" y2="1933"/>
  <text style="stroke:none;fill:black;font-family:sans-serif;font-size:13;font-weight:bold;" transform="matrix(1 0 0 1 776 1953)">Margins</text>
  <text style="stroke:none;fill:black;font-family:sans-serif;font-size:13;" transform="matrix(1 0 0 1 776 1971)">Leading and trailing margins on the left and right side of each symbol</text>
  <text style="stroke:none;fill:black;font-family:sans-serif;font-size:13;" transform="matrix(1 0 0 1 776 1989)">can be adjusted by modifying the x-location of the margin guidelines.</text>
  <text style="stroke:none;fill:black;font-family:sans-serif;font-size:13;" transform="matrix(1 0 0 1 776 2007)">Modifications are automatically applied proportionally to all</text>
  <text style="stroke:none;fill:black;font-family:sans-serif;font-size:13;" transform="matrix(1 0 0 1 776 2025)">scales and weights.</text>
  <g transform="matrix(1 0 0 1 1289 1933)">
   <path d="M2.8418 1.86523L4.54102 3.57422Q5.18555 4.22852 5.90332 4.17969Q6.62109 4.13086 7.31445 3.35938L18.0078-8.42773L17.041-9.4043L6.42578 2.27539Q6.16211 2.57812 5.89355 2.61719Q5.625 2.65625 5.27344 2.30469L4.10156 1.14258Q3.75 0.791016 3.79395 0.522461Q3.83789 0.253906 4.14062-0.0195312L15.6152-10.8203L14.6387-11.7871L3.04688-0.898438Q2.30469-0.214844 2.25098 0.498047Q2.19727 1.21094 2.8418 1.86523ZM9.25781-16.3281Q8.94531-16.0254 8.90625-15.6348Q8.86719-15.2441 9.04297-14.9512Q9.21875-14.6777 9.55566-14.541Q9.89258-14.4043 10.3809-14.5215Q11.4746-14.7754 12.5977-14.7314Q13.7207-14.6875 14.7949-13.9844L14.209-12.5293Q13.9551-11.9043 14.0674-11.4404Q14.1797-10.9766 14.5801-10.5664L16.875-8.25195Q17.2363-7.88086 17.5781-7.82227Q17.9199-7.76367 18.3398-7.8418L19.4043-8.03711L20.0684-7.36328L20.0293-6.80664Q20-6.43555 20.1221-6.12305Q20.2441-5.81055 20.6055-5.44922L21.3672-4.70703Q21.7285-4.3457 22.1533-4.33105Q22.5781-4.31641 22.9297-4.66797L25.8398-7.58789Q26.1914-7.93945 26.1816-8.35449Q26.1719-8.76953 25.8105-9.13086L25.0391-9.89258Q24.6875-10.2539 24.3799-10.3857Q24.0723-10.5176 23.7109-10.4883L23.1348-10.4395L22.4902-11.0742L22.7344-12.1973Q22.832-12.6172 22.6953-12.9834Q22.5586-13.3496 22.1191-13.7891L19.9219-15.9766Q18.6719-17.2168 17.2607-17.8369Q15.8496-18.457 14.4189-18.4814Q12.9883-18.5059 11.665-17.959Q10.3418-17.4121 9.25781-16.3281ZM10.752-15.957Q11.6602-16.6211 12.7002-16.9043Q13.7402-17.1875 14.8047-17.085Q15.8691-16.9824 16.8701-16.5137Q17.8711-16.0449 18.7012-15.2051L21.1328-12.793Q21.3086-12.6172 21.3525-12.4512Q21.3965-12.2852 21.3379-12.0312L21.0156-10.5469L22.5195-9.0625L23.5059-9.12109Q23.6914-9.13086 23.7891-9.09668Q23.8867-9.0625 24.0332-8.91602L24.6094-8.33984L22.168-5.89844L21.5918-6.47461Q21.4453-6.62109 21.4062-6.71875Q21.3672-6.81641 21.377-7.01172L21.4453-7.98828L19.9512-9.47266L18.4277-9.21875Q18.1836-9.16992 18.042-9.2041Q17.9004-9.23828 17.7148-9.41406L15.7129-11.416Q15.5176-11.5918 15.4932-11.7529Q15.4688-11.9141 15.5859-12.1875L16.4648-14.2773Q15.293-15.3711 13.8281-15.791Q12.3633-16.2109 10.8398-15.7617Q10.7227-15.7324 10.6885-15.8057Q10.6543-15.8789 10.752-15.957Z"/>
  </g>
  <text style="stroke:none;fill:black;font-family:sans-serif;font-size:13;font-weight:bold;" transform="matrix(1 0 0 1 1289 1953)">Exporting</text>
  <text style="stroke:none;fill:black;font-family:sans-serif;font-size:13;" transform="matrix(1 0 0 1 1289 1971)">Symbols should be outlined when exporting to ensure the</text>
  <text style="stroke:none;fill:black;font-family:sans-serif;font-size:13;" transform="matrix(1 0 0 1 1289 1989)">design is preserved when submitting to Xcode.</text>
  <text id="template-version" style="stroke:none;fill:black;font-family:sans-serif;font-size:13;text-anchor:end;" transform="matrix(1 0 0 1 3036 1933)">Template v.3.0</text>
  <text style="stroke:none;fill:black;font-family:sans-serif;font-size:13;text-anchor:end;" transform="matrix(1 0 0 1 3036 1951)">Requires Xcode 13 or greater</text>
  <text id="descriptive-name" style="stroke:none;fill:black;font-family:sans-serif;font-size:13;text-anchor:end;" transform="matrix(1 0 0 1 3036 1969)">Generated from envelope.fill</text>
  <text style="stroke:none;fill:black;font-family:sans-serif;font-size:13;text-anchor:end;" transform="matrix(1 0 0 1 3036 1987)">Typeset at 100 points</text>
  <text style="stroke:none;fill:black;font-family:sans-serif;font-size:13;" transform="matrix(1 0 0 1 263 726)">Small</text>
  <text style="stroke:none;fill:black;font-family:sans-serif;font-size:13;" transform="matrix(1 0 0 1 263 1156)">Medium</text>
  <text style="stroke:none;fill:black;font-family:sans-serif;font-size:13;" transform="matrix(1 0 0 1 263 1586)">Large</text>
 </g>
 <g id="Guides">
  <g id="H-reference" style="fill:#27AAE1;stroke:none;" transform="matrix(1 0 0 1 339 696)">
   <path d="M0.993347 0L3.6377 0L29.3282-67.1326L30.0301-67.1326L30.0301-70.459L28.1227-70.459ZM11.6882-24.4797L46.9818-24.4797L46.2311-26.7288L12.4382-26.7288ZM55.1193 0L57.7637 0L30.6381-70.459L29.4327-70.459L29.4327-67.1326Z"/>
  </g>
  <line id="Baseline-S" style="fill:none;stroke:#27AAE1;opacity:1;stroke-width:0.5;" x1="263" x2="3036" y1="696" y2="696"/>
  <line id="Capline-S" style="fill:none;stroke:#27AAE1;opacity:1;stroke-width:0.5;" x1="263" x2="3036" y1="625.541" y2="625.541"/>
  <g id="H-reference" style="fill:#27AAE1;stroke:none;" transform="matrix(1 0 0 1 339 1126)">
   <path d="M0.993347 0L3.6377 0L29.3282-67.1326L30.0301-67.1326L30.0301-70.459L28.1227-70.459ZM11.6882-24.4797L46.9818-24.4797L46.2311-26.7288L12.4382-26.7288ZM55.1193 0L57.7637 0L30.6381-70.459L29.4327-70.459L29.4327-67.1326Z"/>
  </g>
  <line id="Baseline-M" style="fill:none;stroke:#27AAE1;opacity:1;stroke-width:0.5;" x1="263" x2="3036" y1="1126" y2="1126"/>
  <line id="Capline-M" style="fill:none;stroke:#27AAE1;opacity:1;stroke-width:0.5;" x1="263" x2="3036" y1="1055.54" y2="1055.54"/>
  <g id="H-reference" style="fill:#27AAE1;stroke:none;" transform="matrix(1 0 0 1 339 1556)">
   <path d="M0.993347 0L3.6377 0L29.3282-67.1326L30.0301-67.1326L30.0301-70.459L28.1227-70.459ZM11.6882-24.4797L46.9818-24.4797L46.2311-26.7288L12.4382-26.7288ZM55.1193 0L57.7637 0L30.6381-70.459L29.4327-70.459L29.4327-67.1326Z"/>
  </g>
  <line id="Baseline-L" style="fill:none;stroke:#27AAE1;opacity:1;stroke-width:0.5;" x1="263" x2="3036" y1="1556" y2="1556"/>
  <line id="Capline-L" style="fill:none;stroke:#27AAE1;opacity:1;stroke-width:0.5;" x1="263" x2="3036" y1="1485.54" y2="1485.54"/>
  <line id="left-margin-Regular-M" style="fill:none;stroke:#00AEEF;stroke-width:0.5;opacity:1.0;" x1="1383.48" x2="1383.48" y1="1030.79" y2="1150.12"/>
  <line id="right-margin-Regular-M" style="fill:none;stroke:#00AEEF;stroke-width:0.5;opacity:1.0;" x1="1516.21" x2="1516.21" y1="1030.79" y2="1150.12"/>
 </g>
 <g id="Symbols">
  <g id="Black-L" transform="matrix(1 0 0 1 2842.78 1556)">
   <path d="M90.6404-30.8244Q94.6562-30.8244 99.1933-35.3823L154.54-90.8576Q150.327-93.7955 141.39-93.7955L39.2728-93.7955Q30.6216-93.7955 26.6711-90.9272L82.0668-35.3823Q86.6247-30.8244 90.6404-30.8244ZM18.1252 11.0079L65.6269-36.4211L18.7993-82.7542Q16.084-78.6409 16.084-70.1071L16.084-0.269058Q16.084 7.28308 18.1252 11.0079ZM39.8556 23.4193L141.972 23.4193Q151.398 23.4193 155.896 19.8126L107.543-28.4895L104.614-25.5627Q97.8682-18.9414 90.6404-18.9414Q83.3334-18.9414 76.5877-25.5627L73.6793-28.4311L25.4194 19.7781Q30.0609 23.4193 39.8556 23.4193ZM163.125 10.9983Q165.162 7.25628 165.162-0.269058L165.162-70.1071Q165.162-78.6546 162.429-82.7226L115.633-36.4211Z"/>
  </g>
  <g id="Heavy-L" transform="matrix(1 0 0 1 2547.31 1556)">
   <path d="M89.4261-30.0815Q93.3955-30.0815 97.7732-34.4894L152.998-89.6415Q148.953-92.6969 139.923-92.6969L37.9862-92.6969Q29.4745-92.6969 25.7302-89.7657L81.0488-34.4894Q85.4566-30.0815 89.4261-30.0815ZM18.0227 10.5343L64.8468-36.0836L18.4999-81.8919Q16.084-78.0989 16.084-70.0702L16.084-0.297128Q16.084 7.05263 18.0227 10.5343ZM38.8315 22.3296L140.763 22.3296Q149.833 22.3296 154.015 18.8485L106.369-28.627L103.112-25.3809Q96.4956-18.9168 89.4261-18.9168Q82.2818-18.9168 75.6658-25.3809L72.4386-28.5824L24.864 18.8218Q29.2457 22.3296 38.8315 22.3296ZM160.754 10.4894Q162.671 6.99439 162.671-0.297128L162.671-70.0702Q162.671-78.0955 160.241-81.8112L113.975-36.0836Z"/>
  </g>
  <g id="Bold-L" transform="matrix(1 0 0 1 2252.13 1556)">
   <path d="M87.9499-29.1594Q91.8729-29.1594 96.0509-33.3756L151.114-88.1205Q147.285-91.3369 138.162-91.3369L36.4775-91.3369Q28.0978-91.3369 24.5921-88.3138L79.811-33.3756Q84.0269-29.1594 87.9499-29.1594ZM17.9294 10.0098L64.0277-35.6686L18.1757-80.9058Q16.084-77.4899 16.084-70.0316L16.084-0.320478Q16.084 6.80554 17.9294 10.0098ZM37.5412 20.9848L139.212 20.9848Q147.912 20.9848 151.731 17.6201L104.887-28.8558L101.222-25.2176Q94.8048-18.9829 87.9499-18.9829Q81.0278-18.9829 74.6103-25.2176L70.9838-28.8266L24.1651 17.6235Q28.2242 20.9848 37.5412 20.9848ZM157.826 9.90402Q159.619 6.70142 159.619-0.320478L159.619-70.0316Q159.619-77.4486 157.529-80.7488L111.834-35.6686Z"/>
  </g>
  <g id="Semibold-L" transform="matrix(1 0 0 1 1956.47 1556)">
   <path d="M86.9322-28.5238Q90.8232-28.5238 94.8635-32.6076L149.816-87.072Q146.134-90.3993 136.948-90.3993L35.4374-90.3993Q27.1486-90.3993 23.8075-87.3128L78.9576-32.6076Q83.0412-28.5238 86.9322-28.5238ZM17.8651 9.64827L63.463-35.3825L17.9522-80.226Q16.084-77.07 16.084-70.005L16.084-0.336575Q16.084 6.6352 17.8651 9.64827ZM36.6518 20.0577L138.143 20.0577Q146.587 20.0577 150.157 16.7733L103.865-29.0135L99.9196-25.105Q93.6392-19.0285 86.9322-19.0285Q80.1634-19.0285 73.8827-25.105L69.9808-28.9949L23.6833 16.7974Q27.5199 20.0577 36.6518 20.0577ZM155.808 9.50047Q157.515 6.49945 157.515-0.336575L157.515-70.005Q157.515-77.0027 155.659-80.0163L110.358-35.3825Z"/>
  </g>
  <g id="Medium-L" transform="matrix(1 0 0 1 1660.55 1556)">
   <path d="M86.1605-28.0418Q90.0272-28.0418 93.9632-32.0254L148.831-86.277Q145.262-89.6884 136.027-89.6884L34.6487-89.6884Q26.429-89.6884 23.2126-86.5539L78.3106-32.0254Q82.2938-28.0418 86.1605-28.0418ZM17.8163 9.37413L63.0348-35.1656L17.7827-79.7105Q16.084-76.7517 16.084-69.9849L16.084-0.34878Q16.084 6.50604 17.8163 9.37413ZM35.9773 19.3548L137.333 19.3548Q145.583 19.3548 148.963 16.1312L103.09-29.1331L98.9319-25.0197Q92.7554-19.0631 86.1605-19.0631Q79.5079-19.0631 73.331-25.0197L69.2204-29.1225L23.318 16.171Q26.9859 19.3548 35.9773 19.3548ZM154.277 9.19448Q155.92 6.34631 155.92-0.34878L155.92-69.9849Q155.92-76.6646 154.242-79.461L109.239-35.1656Z"/>
  </g>
  <g id="Regular-L" transform="matrix(1 0 0 1 1364.88 1556)">
   <path d="M85.154-27.4131Q88.9891-27.4131 92.7889-31.2659L147.547-85.24Q144.125-88.7611 134.826-88.7611L33.62-88.7611Q25.4903-88.7611 22.4366-85.5639L77.4667-31.2659Q81.319-27.4131 85.154-27.4131ZM17.7527 9.01655L62.4763-34.8826L17.5617-79.0382Q16.084-76.3364 16.084-69.9586L16.084-0.364701Q16.084 6.33757 17.7527 9.01655ZM35.0976 18.4379L136.276 18.4379Q144.273 18.4379 147.406 15.2937L102.08-29.289L97.6437-24.9084Q91.6027-19.1082 85.154-19.1082Q78.6529-19.1082 72.6114-24.9084L68.2285-29.289L22.8414 15.354Q26.2894 18.4379 35.0976 18.4379ZM152.281 8.79537Q153.84 6.14656 153.84-0.364701L153.84-69.9586Q153.84-76.2235 152.392-78.7366L107.779-34.8826Z"/>
  </g>
  <g id="Light-L" transform="matrix(1 0 0 1 1069.12 1556)">
   <path d="M84.3142-26.7641Q88.1874-26.7641 91.8346-30.4454L146.421-84.0949Q143.19-87.8261 133.967-87.8261L33.1236-87.8261Q24.8223-87.8261 21.8257-84.476L76.7606-30.4454Q80.4411-26.7641 84.3142-26.7641ZM17.9054 9.05471L62.8579-34.6155L17.638-78.8856Q16.084-76.3172 16.084-69.9778L16.084-0.307303Q16.084 6.41388 17.9054 9.05471ZM34.067 17.541L134.864 17.541Q143.051 17.541 146.128 14.2249L100.877-29.8236L96.1549-25.1947Q90.4958-19.7761 84.3142-19.7761Q78.0994-19.7761 72.4395-25.1947L67.7513-29.8236L22.288 14.4379Q25.507 17.541 34.067 17.541ZM150.315 8.6809Q151.95 6.14656 151.95-0.307303L151.95-69.9778Q151.95-76.0709 150.503-78.4314L105.737-34.6155Z"/>
  </g>
  <g id="Thin-L" transform="matrix(1 0 0 1 773.655 1556)">
   <path d="M83.2035-25.9057Q87.1272-25.9057 90.5725-29.3601L144.931-82.5805Q141.953-86.5894 132.832-86.5894L32.4671-86.5894Q23.9389-86.5894 21.0178-83.037L75.8267-29.3601Q79.2799-25.9057 83.2035-25.9057ZM18.1072 9.10518L63.3625-34.2623L17.739-78.6837Q16.084-76.2917 16.084-70.0033L16.084-0.231391Q16.084 6.51482 18.1072 9.10518ZM32.704 16.3548L132.996 16.3548Q141.436 16.3548 144.436 12.8114L99.2868-30.5305L94.1858-25.5734Q89.0318-20.6595 83.2035-20.6595Q77.3674-20.6595 72.2122-25.5734L67.1203-30.5305L21.556 13.2263Q24.4722 16.3548 32.704 16.3548ZM147.715 8.52949Q149.452 6.14656 149.452-0.231391L149.452-70.0033Q149.452-75.869 148.004-78.0276L103.035-34.2623Z"/>
  </g>
  <g id="Ultralight-L" transform="matrix(1 0 0 1 477.583 1556)">
   <path d="M82.6346-25.4661Q86.5842-25.4661 89.9261-28.8043L144.169-81.8048Q141.32-85.956 132.25-85.956L32.1309-85.956Q23.4865-85.956 20.604-82.3L75.3484-28.8043Q78.6851-25.4661 82.6346-25.4661ZM18.2106 9.13102L63.621-34.0813L17.7907-78.5803Q16.084-76.2787 16.084-70.0163L16.084-0.192509Q16.084 6.56652 18.2106 9.13102ZM32.0059 15.7472L132.039 15.7472Q140.609 15.7472 143.57 12.0874L98.4722-30.8926L93.1773-25.7674Q88.282-21.1119 82.6346-21.1119Q76.9925-21.1119 72.0958-25.7674L66.797-30.8926L21.1811 12.6057Q23.9422 15.7472 32.0059 15.7472ZM146.383 8.45195Q148.172 6.14656 148.172-0.192509L148.172-70.0163Q148.172-75.7656 146.724-77.8208L101.652-34.0813Z"/>
  </g>
  <g id="Black-M" transform="matrix(1 0 0 1 2862.25 1126)">
   <path d="M71.1528-32.3672Q74.309-32.3672 77.9403-36.0041L120.902-79.2169Q117.519-81.4205 110.685-81.4205L31.4647-81.4205Q24.6191-81.4205 21.389-79.2317L64.3598-36.0041Q67.9967-32.3672 71.1528-32.3672ZM14.1511 1.00474L51.566-36.4065L14.8322-72.7694Q12.4609-69.3254 12.4609-62.285L12.4609-8.11228Q12.4609-2.08482 14.1511 1.00474ZM31.6184 11.0232L110.839 11.0232Q118.473 11.0232 122.223 8.09765L84.1644-29.962L82.1383-27.9353Q76.8524-22.7221 71.1528-22.7221Q65.3907-22.7221 60.1048-27.9353L58.0841-29.9049L20.0958 8.08497Q23.8839 11.0232 31.6184 11.0232ZM128.151 1.007Q129.843-2.0889 129.843-8.11228L129.843-62.285Q129.843-69.3326 127.465-72.7664L90.7341-36.4065Z"/>
  </g>
  <g id="Heavy-M" transform="matrix(1 0 0 1 2566.67 1126)">
   <path d="M70.0432-31.7008Q73.1505-31.7008 76.6402-35.2069L119.498-78.1337Q116.262-80.4328 109.33-80.4328L30.2528-80.4328Q23.5594-80.4328 20.5256-78.1966L63.4298-35.2069Q66.9358-31.7008 70.0432-31.7008ZM14.0368 0.538236L50.7682-36.1013L14.5325-71.9404Q12.4609-68.7973 12.4609-62.2471L12.4609-8.14501Q12.4609-2.31714 14.0368 0.538236ZM30.7123 10.0407L109.788 10.0407Q117.057 10.0407 120.502 7.25379L83.1275-30.0471L80.807-27.7311Q75.6126-22.6364 70.0432-22.6364Q64.4137-22.6364 59.2194-27.7311L56.9152-30.0035L19.6039 7.23461Q23.1593 10.0407 30.7123 10.0407ZM126.015 0.520052Q127.582-2.34492 127.582-8.14501L127.582-62.2471Q127.582-68.8001 125.501-71.9036L89.3017-36.1013Z"/>
  </g>
  <g id="Bold-M" transform="matrix(1 0 0 1 2271.22 1126)">
   <path d="M68.8019-30.9554Q71.8547-30.9554 75.1858-34.3152L117.927-76.9221Q114.856-79.328 107.815-79.328L28.8972-79.328Q22.374-79.328 19.5598-77.0387L62.3894-34.3152Q65.7491-30.9554 68.8019-30.9554ZM13.909 0.0163844L49.8758-35.7598L14.1973-71.0131Q12.4609-68.2065 12.4609-62.2048L12.4609-8.18163Q12.4609-2.57703 13.909 0.0163844ZM29.6986 8.94158L108.611 8.94158Q115.472 8.94158 118.577 6.3098L81.9675-30.1423L79.3177-27.5027Q74.2258-22.5405 68.8019-22.5405Q63.3209-22.5405 58.2289-27.5027L55.6077-30.1137L19.0537 6.28335Q22.3486 8.94158 29.6986 8.94158ZM123.625-0.024674Q125.053-2.63132 125.053-8.18163L125.053-62.2048Q125.053-68.2044 123.303-70.9383L87.6993-35.7598Z"/>
  </g>
  <g id="Semibold-M" transform="matrix(1 0 0 1 1975.38 1126)">
   <path d="M67.9462-30.4415Q70.9613-30.4415 74.1831-33.7005L116.844-76.0867Q113.886-78.5663 106.77-78.5663L27.9626-78.5663Q21.5568-78.5663 18.894-76.2404L61.6722-33.7005Q64.931-30.4415 67.9462-30.4415ZM13.8208-0.343377L49.2605-35.5243L13.9661-70.3739Q12.4609-67.7993 12.4609-62.1756L12.4609-8.20687Q12.4609-2.75619 13.8208-0.343377ZM28.9999 8.18386L107.8 8.18386Q114.379 8.18386 117.249 5.65902L81.1678-30.2079L78.291-27.3452Q73.2697-22.4745 67.9462-22.4745Q62.5675-22.4745 57.5461-27.3452L54.7063-30.1898L18.6744 5.62756Q21.7898 8.18386 28.9999 8.18386ZM121.978-0.400205Q123.309-2.82875 123.309-8.20687L123.309-62.1756Q123.309-67.7938 121.788-70.2729L86.5947-35.5243Z"/>
  </g>
  <g id="Medium-M" transform="matrix(1 0 0 1 1679.33 1126)">
   <path d="M67.2973-30.0519Q70.2839-30.0519 73.4229-33.2343L116.023-75.4534Q113.151-77.9888 105.978-77.9888L27.254-77.9888Q20.9372-77.9888 18.3892-75.6352L61.1284-33.2343Q64.3107-30.0519 67.2973-30.0519ZM13.754-0.616163L48.794-35.3458L13.7909-69.8892Q12.4609-67.4905 12.4609-62.1535L12.4609-8.22602Q12.4609-2.89204 13.754-0.616163ZM28.47 7.60933L107.185 7.60933Q113.551 7.60933 116.243 5.16558L80.5615-30.2577L77.5125-27.2259Q72.5448-22.4244 67.2973-22.4244Q61.9962-22.4244 57.0283-27.2259L54.0228-30.2474L18.3868 5.13031Q21.3661 7.60933 28.47 7.60933ZM120.728-0.684948Q121.987-2.97846 121.987-8.22602L121.987-62.1535Q121.987-67.4824 120.64-69.7684L85.7571-35.3458Z"/>
  </g>
  <g id="Regular-M" transform="matrix(1 0 0 1 1383.48 1126)">
   <path d="M66.451-29.5436Q69.4004-29.5436 72.4312-32.6263L114.953-74.6272Q112.192-77.2355 104.945-77.2355L26.3297-77.2355Q20.129-77.2355 17.7307-74.8457L60.419-32.6263Q63.5015-29.5436 66.451-29.5436ZM13.6668-0.971971L48.1856-35.113L13.5623-69.2569Q12.4609-67.0877 12.4609-62.1246L12.4609-8.25098Q12.4609-3.06924 13.6668-0.971971ZM27.7789 6.85994L106.383 6.85994Q112.47 6.85994 114.931 4.52195L79.7706-30.3226L76.4971-27.0701Q71.5992-22.359 66.451-22.359Q61.2511-22.359 56.353-27.0701L53.1313-30.3226L18.0116 4.48172Q20.8134 6.85994 27.7789 6.85994ZM119.099-1.05635Q120.263-3.17373 120.263-8.25098L120.263-62.1246Q120.263-67.0763 119.141-69.1102L84.6645-35.113Z"/>
  </g>
  <g id="Light-M" transform="matrix(1 0 0 1 1087.62 1126)">
   <path d="M65.698-28.9618Q68.6817-28.9618 71.5757-31.8907L113.943-73.6006Q111.354-76.3972 104.175-76.3972L25.8847-76.3972Q19.5302-76.3972 17.183-73.8703L59.786-31.8907Q62.7144-28.9618 65.698-28.9618ZM13.8036-0.937761L48.5277-34.8735L13.6307-69.1201Q12.4609-67.0705 12.4609-62.1419L12.4609-8.19952Q12.4609-3.00081 13.8036-0.937761ZM26.8549 6.05584L105.117 6.05584Q111.375 6.05584 113.784 3.56377L78.6925-30.8018L75.1623-27.3268Q70.6068-22.9578 65.698-22.9578Q60.7549-22.9578 56.1989-27.3268L52.7036-30.8018L17.5154 3.66038Q20.1119 6.05584 26.8549 6.05584ZM117.336-1.15898Q118.569-3.17373 118.569-8.19952L118.569-62.1419Q118.569-66.9394 117.447-68.8366L82.8335-34.8735Z"/>
  </g>
  <g id="Thin-M" transform="matrix(1 0 0 1 792.028 1126)">
   <path d="M64.7022-28.1922Q67.7311-28.1922 70.4441-30.9177L112.608-72.2428Q110.245-75.2885 103.157-75.2885L25.2961-75.2885Q18.7382-75.2885 16.4587-72.5802L58.9487-30.9177Q61.6734-28.1922 64.7022-28.1922ZM13.9846-0.892514L48.9801-34.5568L13.7212-68.9391Q12.4609-67.0476 12.4609-62.1647L12.4609-8.13146Q12.4609-2.91032 13.9846-0.892514ZM25.6329 4.99236L103.443 4.99236Q109.927 4.99236 112.268 2.29649L77.2667-31.4356L73.3969-27.6664Q69.2943-23.7498 64.7022-23.7498Q60.0986-23.7498 55.9951-27.6664L52.1378-31.4356L16.8591 2.57409Q19.1842 4.99236 25.6329 4.99236ZM115.005-1.29472Q116.329-3.17373 116.329-8.13146L116.329-62.1647Q116.329-66.7584 115.207-68.4746L80.4119-34.5568Z"/>
  </g>
  <g id="Ultralight-M" transform="matrix(1 0 0 1 495.89 1126)">
   <path d="M64.1922-27.798Q67.2442-27.798 69.8646-30.4193L111.924-71.5474Q109.677-74.7206 102.635-74.7206L24.9946-74.7206Q18.3325-74.7206 16.0877-71.9194L58.5199-30.4193Q61.1402-27.798 64.1922-27.798ZM14.0773-0.869339L49.2119-34.3946L13.7676-68.8464Q12.4609-67.036 12.4609-62.1763L12.4609-8.0966Q12.4609-2.86397 14.0773-0.869339ZM25.007 4.44766L102.585 4.44766Q109.185 4.44766 111.491 1.64739L76.5364-31.7603L72.4927-27.8403Q68.622-24.1555 64.1922-24.1555Q59.7625-24.1555 55.8908-27.8403L51.848-31.7603L16.523 2.01769Q18.709 4.44766 25.007 4.44766ZM113.811-1.36425Q115.181-3.17373 115.181-8.0966L115.181-62.1763Q115.181-66.6657 114.06-68.2892L79.1716-34.3946Z"/>
  </g>
  <g id="Black-S" transform="matrix(1 0 0 1 2877.35 696)">
   <path d="M56.0547-33.1543Q58.5449-33.1543 61.4258-36.0352L95.1172-69.9707Q92.4316-71.6797 87.1094-71.6797L25-71.6797Q19.5801-71.6797 16.9922-69.9707L50.6836-36.0352Q53.5645-33.1543 56.0547-33.1543ZM11.1328-6.68945L40.6738-36.2305L11.7188-64.8926Q9.76562-62.1094 9.76562-56.4453L9.76562-13.9648Q9.76562-9.17969 11.1328-6.68945ZM25 1.26953L87.1094 1.26953Q93.2129 1.26953 96.2402-1.07422L66.2109-31.1035L64.6973-29.5898Q60.5469-25.4883 56.0547-25.4883Q51.5137-25.4883 47.3633-29.5898L45.8496-31.0547L15.8691-1.07422Q18.8965 1.26953 25 1.26953ZM100.977-6.68945Q102.344-9.17969 102.344-13.9648L102.344-56.4453Q102.344-62.1094 100.391-64.8926L71.4355-36.2305Z"/>
  </g>
  <g id="Heavy-S" transform="matrix(1 0 0 1 2581.49 696)">
   <path d="M55.2019-32.6587Q57.646-32.6587 60.4232-35.4474L94.0454-69.1755Q91.4636-70.9421 86.0491-70.9421L24.0204-70.9421Q18.7503-70.9421 16.3238-69.2101L49.9691-35.4474Q52.7577-32.6587 55.2019-32.6587ZM11.0176-7.09281L39.9478-36L11.4537-64.2011Q9.76562-61.6599 9.76562-56.4107L9.76562-13.9994Q9.76562-9.38713 11.0176-7.09281ZM24.3431 0.531965L86.3718 0.531965Q92.1411 0.531965 94.9149-1.67349L65.4618-31.115L63.7292-29.3824Q59.6134-25.3385 55.2019-25.3385Q50.7415-25.3385 46.6257-29.3824L44.9046-31.0777L15.5119-1.69654Q18.3664 0.531965 24.3431 0.531965ZM99.3747-7.09281Q100.627-9.39865 100.627-13.9994L100.627-56.4107Q100.627-61.6714 98.927-64.1896L70.4444-36Z"/>
  </g>
  <g id="Bold-S" transform="matrix(1 0 0 1 2285.74 696)">
   <path d="M54.248-32.1045Q56.6406-32.1045 59.3018-34.79L92.8467-68.2861Q90.3809-70.1172 84.8633-70.1172L22.9248-70.1172Q17.8223-70.1172 15.5762-68.3594L49.1699-34.79Q51.8555-32.1045 54.248-32.1045ZM10.8887-7.54395L39.1357-35.7422L11.1572-63.4277Q9.76562-61.1572 9.76562-56.3721L9.76562-14.0381Q9.76562-9.61914 10.8887-7.54395ZM23.6084-0.292969L85.5469-0.292969Q90.9424-0.292969 93.4326-2.34375L64.624-31.1279L62.6465-29.1504Q58.5693-25.1709 54.248-25.1709Q49.8779-25.1709 45.8008-29.1504L43.8477-31.1035L15.1123-2.39258Q17.7734-0.292969 23.6084-0.292969ZM97.583-7.54395Q98.7061-9.64355 98.7061-14.0381L98.7061-56.3721Q98.7061-61.1816 97.29-63.4033L69.3359-35.7422Z"/>
  </g>
  <g id="Semibold-S" transform="matrix(1 0 0 1 1989.69 696)">
   <path d="M53.5904-31.7224Q55.9475-31.7224 58.5286-34.3368L92.0202-67.6729Q89.6344-69.5484 84.0457-69.5484L22.1694-69.5484Q17.1824-69.5484 15.0607-67.7729L48.6189-34.3368Q51.2334-31.7224 53.5904-31.7224ZM10.7998-7.85498L38.5759-35.5645L10.9528-62.8945Q9.76562-60.8106 9.76562-56.3454L9.76562-14.0647Q9.76562-9.7791 10.7998-7.85498ZM23.1019-0.861719L84.9781-0.861719Q90.1159-0.861719 92.4106-2.80586L64.0464-31.1368L61.9-28.9904Q57.8495-25.0554 53.5904-25.0554Q49.2825-25.0554 45.232-28.9904L43.1189-31.1213L14.8368-2.87246Q17.3646-0.861719 23.1019-0.861719ZM96.3478-7.85498Q97.3819-9.8124 97.3819-14.0647L97.3819-56.3454Q97.3819-60.8439 96.1614-62.8612L68.5717-35.5645Z"/>
  </g>
  <g id="Medium-S" transform="matrix(1 0 0 1 1693.48 696)">
   <path d="M53.0918-31.4326Q55.4219-31.4326 57.9424-33.9932L91.3936-67.208Q89.0684-69.1172 83.4258-69.1172L21.5967-69.1172Q16.6973-69.1172 14.6699-67.3281L48.2012-33.9932Q50.7617-31.4326 53.0918-31.4326ZM10.7324-8.09082L38.1514-35.4297L10.7979-62.4902Q9.76562-60.5479 9.76562-56.3252L9.76562-14.085Q9.76562-9.90039 10.7324-8.09082ZM22.7178-1.29297L84.5469-1.29297Q89.4893-1.29297 91.6357-3.15625L63.6084-31.1436L61.334-28.8691Q57.3037-24.9678 53.0918-24.9678Q48.8311-24.9678 44.8008-28.8691L42.5664-31.1348L14.6279-3.23633Q17.0547-1.29297 22.7178-1.29297ZM95.4111-8.09082Q96.3779-9.94043 96.3779-14.085L96.3779-56.3252Q96.3779-60.5879 95.3057-62.4502L67.9922-35.4297Z"/>
  </g>
  <g id="Regular-S" transform="matrix(1 0 0 1 1397.43 696)">
   <path d="M52.4414-31.0547Q54.7363-31.0547 57.1777-33.5449L90.5762-66.6016Q88.3301-68.5547 82.6172-68.5547L20.8496-68.5547Q16.0645-68.5547 14.1602-66.748L47.6562-33.5449Q50.1465-31.0547 52.4414-31.0547ZM10.6445-8.39844L37.5977-35.2539L10.5957-61.9629Q9.76562-60.2051 9.76562-56.2988L9.76562-14.1113Q9.76562-10.0586 10.6445-8.39844ZM22.2168-1.85547L83.9844-1.85547Q88.6719-1.85547 90.625-3.61328L63.0371-31.1523L60.5957-28.7109Q56.5918-24.8535 52.4414-24.8535Q48.2422-24.8535 44.2383-28.7109L41.8457-31.1523L14.3555-3.71094Q16.6504-1.85547 22.2168-1.85547ZM94.1895-8.39844Q95.0684-10.1074 95.0684-14.1113L95.0684-56.2988Q95.0684-60.2539 94.1895-61.9141L67.2363-35.2539Z"/>
  </g>
  <g id="Light-S" transform="matrix(1 0 0 1 1101.47 696)">
   <path d="M51.7754-30.54Q54.1005-30.54 56.4209-32.8941L89.683-65.6934Q87.5885-67.8131 81.9361-67.8131L20.4559-67.8131Q15.5347-67.8131 13.6757-65.8852L47.0963-32.8941Q49.4502-30.54 51.7754-30.54ZM10.7656-8.36817L37.9003-35.0421L10.6562-61.8418Q9.76562-60.1898 9.76562-56.3141L9.76562-14.0658Q9.76562-9.99807 10.7656-8.36817ZM21.3994-2.56678L82.8644-2.56678Q87.7032-2.56678 89.6108-4.46091L62.0834-31.5763L59.4149-28.938Q55.7139-25.3832 51.7754-25.3832Q47.8032-25.3832 44.102-28.938L41.4673-31.5763L13.9165-4.43751Q16.0299-2.56678 21.3994-2.56678ZM92.6303-8.48923Q93.5699-10.1074 93.5699-14.0658L93.5699-56.3141Q93.5699-60.1329 92.691-61.672L65.6166-35.0421Z"/>
  </g>
  <g id="Thin-S" transform="matrix(1 0 0 1 805.745 696)">
   <path d="M50.8945-29.8592Q53.2597-29.8592 55.4199-32.0334L88.5018-64.4923Q86.6077-66.8323 81.0354-66.8323L19.9353-66.8323Q14.8341-66.8323 13.0349-64.7439L46.3556-32.0334Q48.5292-29.8592 50.8945-29.8592ZM10.9257-8.32815L38.3005-34.7619L10.7363-61.6817Q9.76562-60.1696 9.76562-56.3343L9.76562-14.0056Q9.76562-9.91802 10.9257-8.32815ZM20.3184-3.50755L81.3831-3.50755Q86.422-3.50755 88.2694-5.58196L60.8221-32.137L57.8533-29.2384Q54.5528-26.0839 50.8945-26.0839Q47.2227-26.0839 43.9217-29.2384L40.9668-32.137L13.336-5.39846Q15.2092-3.50755 20.3184-3.50755ZM90.5681-8.6093Q91.5882-10.1074 91.5882-14.0056L91.5882-56.3343Q91.5882-59.9728 90.7093-61.3518L63.4744-34.7619Z"/>
  </g>
  <g id="Ultralight-S" transform="matrix(1 0 0 1 509.542 696)">
   <path d="M50.4433-29.5105Q52.829-29.5105 54.9072-31.5926L87.8967-63.8771Q86.1053-66.33 80.574-66.33L19.6686-66.33Q14.4753-66.33 12.7068-64.1594L45.9763-31.5926Q48.0576-29.5105 50.4433-29.5105ZM11.0077-8.30765L38.5056-34.6184L10.7773-61.5997Q9.76562-60.1593 9.76562-56.3446L9.76562-13.9748Q9.76562-9.87701 11.0077-8.30765ZM19.7647-3.98941L80.6244-3.98941Q85.7658-3.98941 87.5824-6.15616L60.1761-32.4242L57.0534-29.3922Q53.9581-26.4427 50.4433-26.4427Q46.9254-26.4427 43.8293-29.3922L40.7104-32.4242L13.0386-5.89066Q14.7888-3.98941 19.7647-3.98941ZM89.5119-8.67081Q90.5731-10.1074 90.5731-13.9748L90.5731-56.3446Q90.5731-59.8907 89.6942-61.1877L62.3772-34.6184Z"/>
  </g>
 </g>
</svg>
