<?xml version="1.0" encoding="UTF-8"?>
<!--Generator: Apple Native CoreSVG 175-->
<!DOCTYPE svg
PUBLIC "-//W3C//DTD SVG 1.1//EN"
       "http://www.w3.org/Graphics/SVG/1.1/DTD/svg11.dtd">
<svg version="1.1" xmlns="http://www.w3.org/2000/svg" xmlns:xlink="http://www.w3.org/1999/xlink" width="3300" height="2200">
 <!--glyph: "uni1001FE.medium", point size: 100.0, font version: "17.1d1e1", template writer version: "65.1"-->
 <g id="Notes">
  <rect height="2200" id="artboard" style="fill:white;opacity:1" width="3300" x="0" y="0"/>
  <line style="fill:none;stroke:black;opacity:1;stroke-width:0.5;" x1="263" x2="3036" y1="292" y2="292"/>
  <text style="stroke:none;fill:black;font-family:sans-serif;font-size:13;font-weight:bold;" transform="matrix(1 0 0 1 263 322)">Weight/Scale Variations</text>
  <text style="stroke:none;fill:black;font-family:sans-serif;font-size:13;text-anchor:middle;" transform="matrix(1 0 0 1 559.711 322)">Ultralight</text>
  <text style="stroke:none;fill:black;font-family:sans-serif;font-size:13;text-anchor:middle;" transform="matrix(1 0 0 1 856.422 322)">Thin</text>
  <text style="stroke:none;fill:black;font-family:sans-serif;font-size:13;text-anchor:middle;" transform="matrix(1 0 0 1 1153.13 322)">Light</text>
  <text style="stroke:none;fill:black;font-family:sans-serif;font-size:13;text-anchor:middle;" transform="matrix(1 0 0 1 1449.84 322)">Regular</text>
  <text style="stroke:none;fill:black;font-family:sans-serif;font-size:13;text-anchor:middle;" transform="matrix(1 0 0 1 1746.56 322)">Medium</text>
  <text style="stroke:none;fill:black;font-family:sans-serif;font-size:13;text-anchor:middle;" transform="matrix(1 0 0 1 2043.27 322)">Semibold</text>
  <text style="stroke:none;fill:black;font-family:sans-serif;font-size:13;text-anchor:middle;" transform="matrix(1 0 0 1 2339.98 322)">Bold</text>
  <text style="stroke:none;fill:black;font-family:sans-serif;font-size:13;text-anchor:middle;" transform="matrix(1 0 0 1 2636.69 322)">Heavy</text>
  <text style="stroke:none;fill:black;font-family:sans-serif;font-size:13;text-anchor:middle;" transform="matrix(1 0 0 1 2933.4 322)">Black</text>
  <line style="fill:none;stroke:black;opacity:1;stroke-width:0.5;" x1="263" x2="3036" y1="1903" y2="1903"/>
  <g transform="matrix(1 0 0 1 263 1933)">
   <path d="M9.24805 0.830078Q10.8691 0.830078 12.2949 0.214844Q13.7207-0.400391 14.8096-1.49414Q15.8984-2.58789 16.5186-4.01367Q17.1387-5.43945 17.1387-7.05078Q17.1387-8.66211 16.5186-10.0879Q15.8984-11.5137 14.8047-12.6074Q13.7109-13.7012 12.2852-14.3164Q10.8594-14.9316 9.23828-14.9316Q7.62695-14.9316 6.20117-14.3164Q4.77539-13.7012 3.69141-12.6074Q2.60742-11.5137 1.9873-10.0879Q1.36719-8.66211 1.36719-7.05078Q1.36719-5.43945 1.9873-4.01367Q2.60742-2.58789 3.69629-1.49414Q4.78516-0.400391 6.21094 0.214844Q7.63672 0.830078 9.24805 0.830078ZM9.24805-0.654297Q7.91992-0.654297 6.7627-1.14746Q5.60547-1.64062 4.73145-2.51953Q3.85742-3.39844 3.36426-4.56055Q2.87109-5.72266 2.87109-7.05078Q2.87109-8.37891 3.35938-9.54102Q3.84766-10.7031 4.72168-11.582Q5.5957-12.4609 6.75293-12.9541Q7.91016-13.4473 9.23828-13.4473Q10.5762-13.4473 11.7334-12.9541Q12.8906-12.4609 13.7695-11.582Q14.6484-10.7031 15.1465-9.54102Q15.6445-8.37891 15.6445-7.05078Q15.6445-5.72266 15.1514-4.56055Q14.6582-3.39844 13.7842-2.51953Q12.9102-1.64062 11.748-1.14746Q10.5859-0.654297 9.24805-0.654297ZM5.6543-7.05078Q5.6543-6.72852 5.85938-6.52832Q6.06445-6.32812 6.40625-6.32812L8.51562-6.32812L8.51562-4.20898Q8.51562-3.88672 8.71094-3.67676Q8.90625-3.4668 9.23828-3.4668Q9.56055-3.4668 9.77051-3.67676Q9.98047-3.88672 9.98047-4.20898L9.98047-6.32812L12.0898-6.32812Q12.4219-6.32812 12.627-6.52832Q12.832-6.72852 12.832-7.05078Q12.832-7.38281 12.627-7.58789Q12.4219-7.79297 12.0898-7.79297L9.98047-7.79297L9.98047-9.90234Q9.98047-10.2344 9.77051-10.4443Q9.56055-10.6543 9.23828-10.6543Q8.90625-10.6543 8.71094-10.4443Q8.51562-10.2344 8.51562-9.90234L8.51562-7.79297L6.40625-7.79297Q6.06445-7.79297 5.85938-7.58789Q5.6543-7.38281 5.6543-7.05078Z"/>
  </g>
  <g transform="matrix(1 0 0 1 281.867 1933)">
   <path d="M11.709 2.91016Q13.75 2.91016 15.5518 2.12891Q17.3535 1.34766 18.7305-0.0292969Q20.1074-1.40625 20.8887-3.20801Q21.6699-5.00977 21.6699-7.05078Q21.6699-9.0918 20.8887-10.8936Q20.1074-12.6953 18.7305-14.0723Q17.3535-15.4492 15.5469-16.2305Q13.7402-17.0117 11.6992-17.0117Q9.6582-17.0117 7.85645-16.2305Q6.05469-15.4492 4.68262-14.0723Q3.31055-12.6953 2.5293-10.8936Q1.74805-9.0918 1.74805-7.05078Q1.74805-5.00977 2.5293-3.20801Q3.31055-1.40625 4.6875-0.0292969Q6.06445 1.34766 7.86621 2.12891Q9.66797 2.91016 11.709 2.91016ZM11.709 1.25Q9.98047 1.25 8.47656 0.605469Q6.97266-0.0390625 5.83496-1.17676Q4.69727-2.31445 4.05762-3.81836Q3.41797-5.32227 3.41797-7.05078Q3.41797-8.7793 4.05762-10.2832Q4.69727-11.7871 5.83008-12.9297Q6.96289-14.0723 8.4668-14.7119Q9.9707-15.3516 11.6992-15.3516Q13.4277-15.3516 14.9316-14.7119Q16.4355-14.0723 17.5781-12.9297Q18.7207-11.7871 19.3652-10.2832Q20.0098-8.7793 20.0098-7.05078Q20.0098-5.32227 19.3701-3.81836Q18.7305-2.31445 17.5928-1.17676Q16.4551-0.0390625 14.9463 0.605469Q13.4375 1.25 11.709 1.25ZM7.17773-7.05078Q7.17773-6.69922 7.41211-6.47461Q7.64648-6.25 8.01758-6.25L10.8887-6.25L10.8887-3.36914Q10.8887-2.99805 11.1133-2.76855Q11.3379-2.53906 11.6895-2.53906Q12.0605-2.53906 12.29-2.76855Q12.5195-2.99805 12.5195-3.36914L12.5195-6.25L15.4004-6.25Q15.7715-6.25 16.001-6.47461Q16.2305-6.69922 16.2305-7.05078Q16.2305-7.42188 16.001-7.65137Q15.7715-7.88086 15.4004-7.88086L12.5195-7.88086L12.5195-10.752Q12.5195-11.1328 12.29-11.3623Q12.0605-11.5918 11.6895-11.5918Q11.3379-11.5918 11.1133-11.3574Q10.8887-11.123 10.8887-10.752L10.8887-7.88086L8.01758-7.88086Q7.63672-7.88086 7.40723-7.65137Q7.17773-7.42188 7.17773-7.05078Z"/>
  </g>
  <g transform="matrix(1 0 0 1 305.646 1933)">
   <path d="M14.9707 5.66406Q17.0605 5.66406 18.96 5.01465Q20.8594 4.36523 22.4512 3.19336Q24.043 2.02148 25.2197 0.429688Q26.3965-1.16211 27.0459-3.06641Q27.6953-4.9707 27.6953-7.05078Q27.6953-9.14062 27.0459-11.04Q26.3965-12.9395 25.2197-14.5312Q24.043-16.123 22.4512-17.2998Q20.8594-18.4766 18.9551-19.126Q17.0508-19.7754 14.9609-19.7754Q12.8711-19.7754 10.9717-19.126Q9.07227-18.4766 7.48535-17.2998Q5.89844-16.123 4.72168-14.5312Q3.54492-12.9395 2.90039-11.04Q2.25586-9.14062 2.25586-7.05078Q2.25586-4.9707 2.90527-3.06641Q3.55469-1.16211 4.72656 0.429688Q5.89844 2.02148 7.49023 3.19336Q9.08203 4.36523 10.9814 5.01465Q12.8809 5.66406 14.9707 5.66406ZM14.9707 3.84766Q13.1641 3.84766 11.5283 3.2959Q9.89258 2.74414 8.53516 1.74805Q7.17773 0.751953 6.17676-0.610352Q5.17578-1.97266 4.62891-3.6084Q4.08203-5.24414 4.08203-7.05078Q4.08203-8.86719 4.62891-10.5029Q5.17578-12.1387 6.17188-13.501Q7.16797-14.8633 8.52539-15.8594Q9.88281-16.8555 11.5186-17.4023Q13.1543-17.9492 14.9609-17.9492Q16.7773-17.9492 18.4131-17.4023Q20.0488-16.8555 21.4111-15.8594Q22.7734-14.8633 23.7695-13.501Q24.7656-12.1387 25.3174-10.5029Q25.8691-8.86719 25.8691-7.05078Q25.8789-5.24414 25.332-3.6084Q24.7852-1.97266 23.7842-0.610352Q22.7832 0.751953 21.4209 1.74805Q20.0586 2.74414 18.4229 3.2959Q16.7871 3.84766 14.9707 3.84766ZM9.19922-7.05078Q9.19922-6.66992 9.45801-6.4209Q9.7168-6.17188 10.1172-6.17188L14.0625-6.17188L14.0625-2.2168Q14.0625-1.81641 14.3115-1.55762Q14.5605-1.29883 14.9512-1.29883Q15.3516-1.29883 15.6104-1.55273Q15.8691-1.80664 15.8691-2.2168L15.8691-6.17188L19.8242-6.17188Q20.2246-6.17188 20.4785-6.4209Q20.7324-6.66992 20.7324-7.05078Q20.7324-7.46094 20.4785-7.71484Q20.2246-7.96875 19.8242-7.96875L15.8691-7.96875L15.8691-11.9141Q15.8691-12.3242 15.6104-12.583Q15.3516-12.8418 14.9512-12.8418Q14.5605-12.8418 14.3115-12.583Q14.0625-12.3242 14.0625-11.9141L14.0625-7.96875L10.1172-7.96875Q9.70703-7.96875 9.45312-7.71484Q9.19922-7.46094 9.19922-7.05078Z"/>
  </g>
  <text style="stroke:none;fill:black;font-family:sans-serif;font-size:13;font-weight:bold;" transform="matrix(1 0 0 1 263 1953)">Design Variations</text>
  <text style="stroke:none;fill:black;font-family:sans-serif;font-size:13;" transform="matrix(1 0 0 1 263 1971)">Symbols are supported in up to nine weights and three scales.</text>
  <text style="stroke:none;fill:black;font-family:sans-serif;font-size:13;" transform="matrix(1 0 0 1 263 1989)">For optimal layout with text and other symbols, vertically align</text>
  <text style="stroke:none;fill:black;font-family:sans-serif;font-size:13;" transform="matrix(1 0 0 1 263 2007)">symbols with the adjacent text.</text>
  <line style="fill:none;stroke:#00AEEF;stroke-width:0.5;opacity:1.0;" x1="776" x2="776" y1="1919" y2="1933"/>
  <g transform="matrix(1 0 0 1 776 1933)">
   <path d="M3.31055 0.15625Q3.70117 0.15625 3.91602-0.00976562Q4.13086-0.175781 4.26758-0.585938L5.52734-4.0332L11.2891-4.0332L12.5488-0.585938Q12.6855-0.175781 12.9004-0.00976562Q13.1152 0.15625 13.4961 0.15625Q13.8867 0.15625 14.1162-0.0585938Q14.3457-0.273438 14.3457-0.644531Q14.3457-0.869141 14.2383-1.17188L9.6582-13.3691Q9.48242-13.8184 9.17969-14.043Q8.87695-14.2676 8.4082-14.2676Q7.5-14.2676 7.17773-13.3789L2.59766-1.16211Q2.49023-0.859375 2.49023-0.634766Q2.49023-0.263672 2.70996-0.0537109Q2.92969 0.15625 3.31055 0.15625ZM6.00586-5.51758L8.37891-12.0898L8.42773-12.0898L10.8008-5.51758Z"/>
  </g>
  <line style="fill:none;stroke:#00AEEF;stroke-width:0.5;opacity:1.0;" x1="793.197" x2="793.197" y1="1919" y2="1933"/>
  <text style="stroke:none;fill:black;font-family:sans-serif;font-size:13;font-weight:bold;" transform="matrix(1 0 0 1 776 1953)">Margins</text>
  <text style="stroke:none;fill:black;font-family:sans-serif;font-size:13;" transform="matrix(1 0 0 1 776 1971)">Leading and trailing margins on the left and right side of each symbol</text>
  <text style="stroke:none;fill:black;font-family:sans-serif;font-size:13;" transform="matrix(1 0 0 1 776 1989)">can be adjusted by modifying the x-location of the margin guidelines.</text>
  <text style="stroke:none;fill:black;font-family:sans-serif;font-size:13;" transform="matrix(1 0 0 1 776 2007)">Modifications are automatically applied proportionally to all</text>
  <text style="stroke:none;fill:black;font-family:sans-serif;font-size:13;" transform="matrix(1 0 0 1 776 2025)">scales and weights.</text>
  <g transform="matrix(1 0 0 1 1289 1933)">
   <path d="M2.8418 1.86523L4.54102 3.57422Q5.18555 4.22852 5.90332 4.17969Q6.62109 4.13086 7.31445 3.35938L18.0078-8.42773L17.041-9.4043L6.42578 2.27539Q6.16211 2.57812 5.89355 2.61719Q5.625 2.65625 5.27344 2.30469L4.10156 1.14258Q3.75 0.791016 3.79395 0.522461Q3.83789 0.253906 4.14062-0.0195312L15.6152-10.8203L14.6387-11.7871L3.04688-0.898438Q2.30469-0.214844 2.25098 0.498047Q2.19727 1.21094 2.8418 1.86523ZM9.25781-16.3281Q8.94531-16.0254 8.90625-15.6348Q8.86719-15.2441 9.04297-14.9512Q9.21875-14.6777 9.55566-14.541Q9.89258-14.4043 10.3809-14.5215Q11.4746-14.7754 12.5977-14.7314Q13.7207-14.6875 14.7949-13.9844L14.209-12.5293Q13.9551-11.9043 14.0674-11.4404Q14.1797-10.9766 14.5801-10.5664L16.875-8.25195Q17.2363-7.88086 17.5781-7.82227Q17.9199-7.76367 18.3398-7.8418L19.4043-8.03711L20.0684-7.36328L20.0293-6.80664Q20-6.43555 20.1221-6.12305Q20.2441-5.81055 20.6055-5.44922L21.3672-4.70703Q21.7285-4.3457 22.1533-4.33105Q22.5781-4.31641 22.9297-4.66797L25.8398-7.58789Q26.1914-7.93945 26.1816-8.35449Q26.1719-8.76953 25.8105-9.13086L25.0391-9.89258Q24.6875-10.2539 24.3799-10.3857Q24.0723-10.5176 23.7109-10.4883L23.1348-10.4395L22.4902-11.0742L22.7344-12.1973Q22.832-12.6172 22.6953-12.9834Q22.5586-13.3496 22.1191-13.7891L19.9219-15.9766Q18.6719-17.2168 17.2607-17.8369Q15.8496-18.457 14.4189-18.4814Q12.9883-18.5059 11.665-17.959Q10.3418-17.4121 9.25781-16.3281ZM10.752-15.957Q11.6602-16.6211 12.7002-16.9043Q13.7402-17.1875 14.8047-17.085Q15.8691-16.9824 16.8701-16.5137Q17.8711-16.0449 18.7012-15.2051L21.1328-12.793Q21.3086-12.6172 21.3525-12.4512Q21.3965-12.2852 21.3379-12.0312L21.0156-10.5469L22.5195-9.0625L23.5059-9.12109Q23.6914-9.13086 23.7891-9.09668Q23.8867-9.0625 24.0332-8.91602L24.6094-8.33984L22.168-5.89844L21.5918-6.47461Q21.4453-6.62109 21.4062-6.71875Q21.3672-6.81641 21.377-7.01172L21.4453-7.98828L19.9512-9.47266L18.4277-9.21875Q18.1836-9.16992 18.042-9.2041Q17.9004-9.23828 17.7148-9.41406L15.7129-11.416Q15.5176-11.5918 15.4932-11.7529Q15.4688-11.9141 15.5859-12.1875L16.4648-14.2773Q15.293-15.3711 13.8281-15.791Q12.3633-16.2109 10.8398-15.7617Q10.7227-15.7324 10.6885-15.8057Q10.6543-15.8789 10.752-15.957Z"/>
  </g>
  <text style="stroke:none;fill:black;font-family:sans-serif;font-size:13;font-weight:bold;" transform="matrix(1 0 0 1 1289 1953)">Exporting</text>
  <text style="stroke:none;fill:black;font-family:sans-serif;font-size:13;" transform="matrix(1 0 0 1 1289 1971)">Symbols should be outlined when exporting to ensure the</text>
  <text style="stroke:none;fill:black;font-family:sans-serif;font-size:13;" transform="matrix(1 0 0 1 1289 1989)">design is preserved when submitting to Xcode.</text>
  <text id="template-version" style="stroke:none;fill:black;font-family:sans-serif;font-size:13;text-anchor:end;" transform="matrix(1 0 0 1 3036 1933)">Template v.3.0</text>
  <text style="stroke:none;fill:black;font-family:sans-serif;font-size:13;text-anchor:end;" transform="matrix(1 0 0 1 3036 1951)">Requires Xcode 13 or greater</text>
  <text id="descriptive-name" style="stroke:none;fill:black;font-family:sans-serif;font-size:13;text-anchor:end;" transform="matrix(1 0 0 1 3036 1969)">Generated from exclamationmark.triangle</text>
  <text style="stroke:none;fill:black;font-family:sans-serif;font-size:13;text-anchor:end;" transform="matrix(1 0 0 1 3036 1987)">Typeset at 100 points</text>
  <text style="stroke:none;fill:black;font-family:sans-serif;font-size:13;" transform="matrix(1 0 0 1 263 726)">Small</text>
  <text style="stroke:none;fill:black;font-family:sans-serif;font-size:13;" transform="matrix(1 0 0 1 263 1156)">Medium</text>
  <text style="stroke:none;fill:black;font-family:sans-serif;font-size:13;" transform="matrix(1 0 0 1 263 1586)">Large</text>
 </g>
 <g id="Guides">
  <g id="H-reference" style="fill:#27AAE1;stroke:none;" transform="matrix(1 0 0 1 339 696)">
   <path d="M0.993347 0L3.6377 0L29.3282-67.1326L30.0301-67.1326L30.0301-70.459L28.1227-70.459ZM11.6882-24.4797L46.9818-24.4797L46.2311-26.7288L12.4382-26.7288ZM55.1193 0L57.7637 0L30.6381-70.459L29.4327-70.459L29.4327-67.1326Z"/>
  </g>
  <line id="Baseline-S" style="fill:none;stroke:#27AAE1;opacity:1;stroke-width:0.5;" x1="263" x2="3036" y1="696" y2="696"/>
  <line id="Capline-S" style="fill:none;stroke:#27AAE1;opacity:1;stroke-width:0.5;" x1="263" x2="3036" y1="625.541" y2="625.541"/>
  <g id="H-reference" style="fill:#27AAE1;stroke:none;" transform="matrix(1 0 0 1 339 1126)">
   <path d="M0.993347 0L3.6377 0L29.3282-67.1326L30.0301-67.1326L30.0301-70.459L28.1227-70.459ZM11.6882-24.4797L46.9818-24.4797L46.2311-26.7288L12.4382-26.7288ZM55.1193 0L57.7637 0L30.6381-70.459L29.4327-70.459L29.4327-67.1326Z"/>
  </g>
  <line id="Baseline-M" style="fill:none;stroke:#27AAE1;opacity:1;stroke-width:0.5;" x1="263" x2="3036" y1="1126" y2="1126"/>
  <line id="Capline-M" style="fill:none;stroke:#27AAE1;opacity:1;stroke-width:0.5;" x1="263" x2="3036" y1="1055.54" y2="1055.54"/>
  <g id="H-reference" style="fill:#27AAE1;stroke:none;" transform="matrix(1 0 0 1 339 1556)">
   <path d="M0.993347 0L3.6377 0L29.3282-67.1326L30.0301-67.1326L30.0301-70.459L28.1227-70.459ZM11.6882-24.4797L46.9818-24.4797L46.2311-26.7288L12.4382-26.7288ZM55.1193 0L57.7637 0L30.6381-70.459L29.4327-70.459L29.4327-67.1326Z"/>
  </g>
  <line id="Baseline-L" style="fill:none;stroke:#27AAE1;opacity:1;stroke-width:0.5;" x1="263" x2="3036" y1="1556" y2="1556"/>
  <line id="Capline-L" style="fill:none;stroke:#27AAE1;opacity:1;stroke-width:0.5;" x1="263" x2="3036" y1="1485.54" y2="1485.54"/>
  <line id="left-margin-Regular-M" style="fill:none;stroke:#00AEEF;stroke-width:0.5;opacity:1.0;" x1="1388.83" x2="1388.83" y1="1030.79" y2="1150.12"/>
  <line id="right-margin-Regular-M" style="fill:none;stroke:#00AEEF;stroke-width:0.5;opacity:1.0;" x1="1510.86" x2="1510.86" y1="1030.79" y2="1150.12"/>
 </g>
 <g id="Symbols">
  <g id="Black-L" transform="matrix(1 0 0 1 2852.04 1556)">
   <path d="M33.2193 28.2348L129.532 28.2348Q135.547 28.2348 140.111 25.3899Q144.676 22.545 147.26 17.912Q149.845 13.2789 149.845 7.80092Q149.845 5.28558 149.206 2.7093Q148.566 0.133014 147.187-2.24479L98.9498-86.535Q95.9766-91.7239 91.2819-94.2528Q86.5873-96.7817 81.375-96.7817Q76.2225-96.7817 71.4396-94.1944Q66.6567-91.6071 63.7613-86.535L15.5251-2.18381Q12.8672 2.52897 12.8672 7.80092Q12.8672 13.2789 15.4422 17.912Q18.0173 22.545 22.6205 25.3899Q27.2237 28.2348 33.2193 28.2348ZM37.7386 9.4846Q35.9821 9.4846 34.8548 8.23164Q33.7276 6.97869 33.7276 5.28944Q33.7276 4.85126 33.832 4.25096Q33.9363 3.65065 34.1891 3.18403L77.9072-74Q78.4504-74.9242 79.4207-75.3571Q80.3911-75.7901 81.375-75.7901Q82.381-75.7901 83.3293-75.3286Q84.2777-74.8671 84.7845-73.9416L128.56 3.32286Q129.024 4.22637 129.024 5.28944Q129.024 6.97869 127.925 8.23164Q126.826 9.4846 124.992 9.4846ZM81.4542-19.0955Q88.8715-19.0955 89.2426-26.6411L90.3362-48.3055Q90.5906-52.2212 88.0775-54.6265Q85.5645-57.0319 81.375-57.0319Q77.222-57.0319 74.7005-54.6369Q72.179-52.2419 72.4333-48.3263L73.4854-26.5243Q73.8786-19.0955 81.4542-19.0955ZM81.4542 3.20802Q85.4994 3.20802 88.1329 1.02416Q90.7664-1.1597 90.7664-4.99076Q90.7664-8.78413 88.1433-10.9862Q85.5201-13.1882 81.4542-13.1882Q77.4246-13.1882 74.7145-11.005Q72.0044-8.82181 72.0044-4.99076Q72.0044-1.18043 74.7255 1.01379Q77.4466 3.20802 81.4542 3.20802Z"/>
  </g>
  <g id="Heavy-L" transform="matrix(1 0 0 1 2555.99 1556)">
   <path d="M32.4452 27.2709L128.97 27.2709Q134.803 27.2709 139.194 24.5508Q143.584 21.8307 146.056 17.3806Q148.527 12.9305 148.527 7.60644Q148.527 5.19755 147.902 2.71868Q147.276 0.23981 145.948-2.05008L97.6026-86.4855Q94.7591-91.4521 90.236-93.9042Q85.7129-96.3563 80.7045-96.3563Q75.7468-96.3563 71.1537-93.8596Q66.5607-91.3628 63.7855-86.4855L15.4458-1.99339Q12.8672 2.54739 12.8672 7.60644Q12.8672 12.9305 15.3267 17.3806Q17.7863 21.8307 22.2111 24.5508Q26.6358 27.2709 32.4452 27.2709ZM35.917 10.7548Q33.7755 10.7548 32.414 9.23526Q31.0525 7.71572 31.0525 5.68767Q31.0525 5.15683 31.1778 4.45911Q31.303 3.76139 31.6252 3.16457L76.4992-75.8506Q77.1583-77.002 78.3304-77.5554Q79.5024-78.1088 80.7045-78.1088Q81.9423-78.1088 83.0786-77.5361Q84.2149-76.9634 84.8652-75.806L129.778 3.28961Q130.363 4.41124 130.363 5.68767Q130.363 7.71572 129.02 9.23526Q127.678 10.7548 125.468 10.7548ZM80.7789-18.884Q87.4962-18.884 87.7937-25.7714L88.8355-50.1955Q89.0438-53.7224 86.7536-55.9189Q84.4634-58.1154 80.7045-58.1154Q76.9544-58.1154 74.6717-55.9338Q72.389-53.7521 72.5972-50.2252L73.5795-25.6822Q73.9128-18.884 80.7789-18.884ZM80.7789 2.92632Q84.4819 2.92632 86.9527 0.824406Q89.4235-1.2775 89.4235-4.82581Q89.4235-8.35926 86.9676-10.4656Q84.5117-12.5719 80.7789-12.5719Q77.0549-12.5719 74.5351-10.473Q72.0152-8.37412 72.0152-4.82581Q72.0152-1.30727 74.553 0.809525Q77.0907 2.92632 80.7789 2.92632Z"/>
  </g>
  <g id="Bold-L" transform="matrix(1 0 0 1 2260.1 1556)">
   <path d="M31.4526 26.1265L128.309 26.1265Q133.887 26.1265 138.057 23.5589Q142.228 20.9913 144.558 16.7732Q146.888 12.5552 146.888 7.44645Q146.888 5.17102 146.288 2.81839Q145.687 0.465765 144.421-1.71426L95.9056-86.4503Q93.2273-91.1336 88.9249-93.4826Q84.6225-95.8316 79.8738-95.8316Q75.1685-95.8316 70.8152-93.4534Q66.4619-91.0752 63.8356-86.4503L15.334-1.65661Q12.8672 2.65433 12.8672 7.44645Q12.8672 12.5552 15.186 16.7732Q17.5049 20.9913 21.7013 23.5589Q25.8977 26.1265 31.4526 26.1265ZM33.7525 12.3858Q31.1143 12.3858 29.449 10.5234Q27.7837 8.66108 27.7837 6.19071Q27.7837 5.54181 27.9367 4.71785Q28.0896 3.89389 28.498 3.12265L74.714-78.0734Q75.5229-79.5163 76.9552-80.2231Q78.3875-80.93 79.8738-80.93Q81.4113-80.93 82.7924-80.2156Q84.1734-79.5013 85.0044-78.0442L131.235 3.23228Q131.978 4.63819 131.978 6.19071Q131.978 8.66108 130.32 10.5234Q128.663 12.3858 125.972 12.3858ZM79.94-18.6445Q85.7592-18.6445 85.9714-24.6892L86.9323-52.252Q87.0861-55.2923 85.0883-57.2163Q83.0906-59.1403 79.8738-59.1403Q76.635-59.1403 74.6596-57.2348Q72.6843-55.3293 72.8381-52.289L73.725-24.6308Q73.9884-18.6445 79.94-18.6445ZM79.94 2.49895Q83.22 2.49895 85.4728 0.517491Q87.7255-1.46396 87.7255-4.64993Q87.7255-7.84369 85.4913-9.81414Q83.257-11.7846 79.94-11.7846Q76.601-11.7846 74.33-9.81024Q72.0591-7.8359 72.0591-4.64993Q72.0591-1.50095 74.3556 0.498996Q76.6522 2.49895 79.94 2.49895Z"/>
  </g>
  <g id="Semibold-L" transform="matrix(1 0 0 1 1963.95 1556)">
   <path d="M30.7684 25.3376L127.854 25.3376Q133.255 25.3376 137.274 22.8751Q141.293 20.4127 143.526 16.3545Q145.758 12.2964 145.758 7.33615Q145.758 5.15273 145.175 2.88714Q144.591 0.621538 143.369-1.48276L94.7357-86.4261Q92.1713-90.914 88.021-93.1919Q83.8708-95.4699 79.3011-95.4699Q74.7699-95.4699 70.5819-93.1734Q66.3938-90.8768 63.8701-86.4261L15.2569-1.42444Q12.8672 2.72806 12.8672 7.33615Q12.8672 12.2964 15.089 16.3545Q17.3109 20.4127 21.3498 22.8751Q25.3888 25.3376 30.7684 25.3376ZM32.2603 13.5102Q29.2796 13.5102 27.4049 11.4115Q25.5302 9.31281 25.5302 6.5375Q25.5302 5.80722 25.7023 4.89623Q25.8743 3.98524 26.3422 3.09376L73.4832-79.6057Q74.3955-81.2496 76.0072-82.0622Q77.6188-82.8749 79.3011-82.8749Q81.0453-82.8749 82.5951-82.0629Q84.1449-81.2509 85.1004-79.5871L132.24 3.19275Q133.092 4.79464 133.092 6.5375Q133.092 9.31281 131.217 11.4115Q129.341 13.5102 126.32 13.5102ZM79.3617-18.4794Q84.5617-18.4794 84.7151-23.9432L85.6202-53.6698Q85.7364-56.3746 83.9403-58.1108Q82.1443-59.847 79.3011-59.847Q76.4147-59.847 74.6513-58.1318Q72.8879-56.4166 73.0042-53.7118L73.8253-23.906Q74.0406-18.4794 79.3617-18.4794ZM79.3617 2.20432Q82.35 2.20432 84.4525 0.305906Q86.5549-1.59251 86.5549-4.52868Q86.5549-7.48826 84.4735-9.36504Q82.392-11.2418 79.3617-11.2418Q76.2881-11.2418 74.1887-9.35334Q72.0893-7.46486 72.0893-4.52868Q72.0893-1.63448 74.2196 0.284919Q76.3499 2.20432 79.3617 2.20432Z"/>
  </g>
  <g id="Medium-L" transform="matrix(1 0 0 1 1667.67 1556)">
   <path d="M30.2495 24.7394L127.508 24.7394Q132.777 24.7394 136.68 22.3567Q140.584 19.9739 142.743 16.037Q144.902 12.1002 144.902 7.25252Q144.902 5.13887 144.331 2.93926Q143.76 0.739651 142.571-1.30722L93.8486-86.4077Q91.3706-90.7475 87.3357-92.9715Q83.3008-95.1956 78.8669-95.1956Q74.4677-95.1956 70.4049-92.961Q66.3422-90.7265 63.8963-86.4077L15.1985-1.2484Q12.8672 2.78396 12.8672 7.25252Q12.8672 12.1002 15.0155 16.037Q17.1638 19.9739 21.0834 22.3567Q25.0029 24.7394 30.2495 24.7394ZM31.1289 14.3628Q27.8885 14.3628 25.855 12.0849Q23.8215 9.80697 23.8215 6.80045Q23.8215 6.00847 24.008 5.03149Q24.1946 4.05451 24.7075 3.07185L72.5501-80.7676Q73.5407-82.5638 75.2883-83.4567Q77.036-84.3496 78.8669-84.3496Q80.7677-84.3496 82.4455-83.4635Q84.1232-82.5775 85.1732-80.7571L133.002 3.16278Q133.936 4.91327 133.936 6.80045Q133.936 9.80697 131.896 12.0849Q129.856 14.3628 126.583 14.3628ZM78.9232-18.3542Q83.6537-18.3542 83.7625-23.3775L84.6253-54.7448Q84.7131-57.1952 83.0699-58.789Q81.4267-60.3827 78.8669-60.3827Q76.2477-60.3827 74.645-58.8118Q73.0423-57.241 73.1301-54.7906L73.9014-23.3564Q74.0801-18.3542 78.9232-18.3542ZM78.9232 1.98092Q81.6904 1.98092 83.6789 0.145474Q85.6673-1.68998 85.6673-4.43675Q85.6673-7.21875 83.7017-9.02451Q81.7361-10.8303 78.9232-10.8303Q76.0508-10.8303 74.0815-9.00689Q72.1122-7.18352 72.1122-4.43675Q72.1122-1.73573 74.1165 0.122597Q76.1207 1.98092 78.9232 1.98092Z"/>
  </g>
  <g id="Regular-L" transform="matrix(1 0 0 1 1371.51 1556)">
   <path d="M29.5728 23.9592L127.058 23.9592Q132.152 23.9592 135.905 21.6804Q139.659 19.4016 141.722 15.6229Q143.785 11.8442 143.785 7.14343Q143.785 5.12078 143.23 3.00725Q142.676 0.893712 141.529-1.07825L92.6915-86.3837Q90.3262-90.5303 86.4418-92.6841Q82.5573-94.8378 78.3005-94.8378Q74.0735-94.8378 70.1741-92.6841Q66.2748-90.5303 63.9305-86.3837L15.1223-1.01877Q12.8672 2.85688 12.8672 7.14343Q12.8672 11.8442 14.9196 15.6229Q16.972 19.4016 20.7358 21.6804Q24.4996 23.9592 29.5728 23.9592ZM29.6532 15.4748Q26.0741 15.4748 23.8334 12.9632Q21.5928 10.4515 21.5928 7.14343Q21.5928 6.27096 21.7982 5.20791Q22.0036 4.14486 22.5754 3.04327L71.3329-82.2831Q72.4257-84.2781 74.3507-85.2756Q76.2758-86.2731 78.3005-86.2731Q80.4057-86.2731 82.2503-85.2905Q84.0949-84.3078 85.2682-82.2831L133.996 3.12369Q135.038 5.06801 135.038 7.14343Q135.038 10.4515 132.783 12.9632Q130.527 15.4748 126.927 15.4748ZM78.3512-18.1909Q82.4694-18.1909 82.5201-22.6396L83.3276-56.147Q83.3783-58.2656 81.9345-59.6736Q80.4907-61.0816 78.3005-61.0816Q76.0299-61.0816 74.6368-59.6989Q73.2437-58.3163 73.2944-56.1977L74.0006-22.6396Q74.1317-18.1909 78.3512-18.1909ZM78.3512 1.68954Q80.83 1.68954 82.6698-0.0637862Q84.5096-1.81711 84.5096-4.31683Q84.5096-6.86723 82.6951-8.58034Q80.8807-10.2935 78.3512-10.2935Q75.7413-10.2935 73.9417-8.555Q72.1421-6.81655 72.1421-4.31683Q72.1421-1.86779 73.9819-0.0891269Q75.8217 1.68954 78.3512 1.68954Z"/>
  </g>
  <g id="Light-L" transform="matrix(1 0 0 1 1075.39 1556)">
   <path d="M28.6698 23.4871L126.832 23.4871Q131.557 23.4871 135.126 21.3007Q138.694 19.1143 140.655 15.5306Q142.615 11.9468 142.615 7.55387Q142.615 5.63383 142.122 3.64343Q141.63 1.65302 140.524-0.236851L91.3371-86.5273Q89.1154-90.4277 85.4362-92.4583Q81.757-94.489 77.7259-94.489Q73.7451-94.489 70.0407-92.4583Q66.3364-90.4277 64.0947-86.5273L14.9581-0.13633Q12.8672 3.47254 12.8672 7.55387Q12.8672 11.9468 14.8375 15.5306Q16.8078 19.1143 20.3664 21.3007Q23.925 23.4871 28.6698 23.4871ZM28.7502 16.973Q24.6991 16.973 22.1609 14.1432Q19.6226 11.3135 19.6226 7.55387Q19.6226 6.57879 19.8589 5.3926Q20.0951 4.20642 20.7284 2.89962L69.8348-83.3708Q71.0712-85.6326 73.2425-86.7634Q75.4139-87.8943 77.7259-87.8943Q80.1184-87.8943 82.2093-86.7886Q84.3002-85.6828 85.617-83.3708L134.673 2.98004Q135.879 5.21166 135.879 7.55387Q135.879 11.3135 133.316 14.1432Q130.753 16.973 126.722 16.973ZM77.7561-18.1704Q81.0534-18.1704 81.0835-21.8598L81.7269-55.7366Q81.7571-57.4858 80.6211-58.6167Q79.4851-59.7476 77.7259-59.7476Q75.8863-59.7476 74.7805-58.6318Q73.6747-57.5159 73.7048-55.7668L74.2879-21.8598Q74.3985-18.1704 77.7561-18.1704ZM77.7561 0.889179Q79.9475 0.889179 81.5308-0.658923Q83.1141-2.20703 83.1141-4.37839Q83.1141-6.57992 81.5459-8.08781Q79.9777-9.59571 77.7561-9.59571Q75.454-9.59571 73.9109-8.07273Q72.3679-6.54976 72.3679-4.37839Q72.3679-2.23719 73.9511-0.674003Q75.5344 0.889179 77.7561 0.889179Z"/>
  </g>
  <g id="Thin-L" transform="matrix(1 0 0 1 779.444 1556)">
   <path d="M27.4755 22.8629L126.534 22.8629Q130.77 22.8629 134.094 20.7986Q137.419 18.7343 139.243 15.4084Q141.068 12.0825 141.068 8.09671Q141.068 6.31238 140.657 4.48483Q140.245 2.65728 139.194 0.875969L89.5457-86.7173Q87.5141-90.292 84.1063-92.1598Q80.6984-94.0275 76.9659-94.0275Q73.3108-94.0275 69.8643-92.1598Q66.4178-90.292 64.3118-86.7173L14.741 1.03077Q12.8672 4.2868 12.8672 8.09671Q12.8672 12.0825 14.7289 15.4084Q16.5906 18.7343 19.8778 20.7986Q23.165 22.8629 27.4755 22.8629ZM27.556 18.9543Q22.8806 18.9543 19.9488 15.7039Q17.017 12.4534 17.017 8.09671Q17.017 6.98592 17.294 5.63688Q17.5709 4.28785 18.2856 2.70962L67.8534-84.8093Q69.2799-87.4239 71.7769-88.7312Q74.2739-90.0386 76.9659-90.0386Q79.7384-90.0386 82.155-88.7699Q84.5716-87.5013 86.0784-84.8093L135.569 2.79004Q136.992 5.40166 136.992 8.09671Q136.992 12.4534 134.022 15.7039Q131.051 18.9543 126.45 18.9543ZM76.969-18.1433Q79.1806-18.1433 79.1836-20.8284L79.6098-55.1938Q79.6128-56.4544 78.884-57.2189Q78.1552-57.9834 76.9659-57.9834Q75.6963-57.9834 74.9705-57.2204Q74.2446-56.4574 74.2477-55.1968L74.6679-20.8284Q74.7513-18.1433 76.969-18.1433ZM76.969-0.169357Q78.7804-0.169357 80.0244-1.44604Q81.2685-2.72272 81.2685-4.45982Q81.2685-6.19993 80.026-7.43641Q78.7834-8.67288 76.969-8.67288Q75.074-8.67288 73.8702-7.4349Q72.6664-6.19692 72.6664-4.45982Q72.6664-2.72574 73.9104-1.44755Q75.1545-0.169357 76.969-0.169357Z"/>
  </g>
  <g id="Ultralight-L" transform="matrix(1 0 0 1 483.128 1556)">
   <path d="M26.8639 22.5431L126.381 22.5431Q130.367 22.5431 133.566 20.5414Q136.765 18.5397 138.52 15.3459Q140.275 12.1521 140.275 8.37475Q140.275 6.65993 139.906 4.91579Q139.536 3.17165 138.513 1.44595L88.6282-86.8146Q86.6938-90.2225 83.4251-92.0069Q80.1563-93.7912 76.5767-93.7912Q73.0884-93.7912 69.774-92.0069Q66.4595-90.2225 64.423-86.8146L14.6298 1.62856Q12.8672 4.70386 12.8672 8.37475Q12.8672 12.1521 14.6733 15.3459Q16.4794 18.5397 19.6276 20.5414Q22.7757 22.5431 26.8639 22.5431ZM26.9443 19.9692Q21.9492 19.9692 18.8158 16.5032Q15.6824 13.0373 15.6824 8.37475Q15.6824 7.19445 15.9802 5.762Q16.278 4.32955 17.0345 2.61231L66.8386-85.5461Q68.3623-88.3415 71.0262-89.7391Q73.69-91.1368 76.5767-91.1368Q79.5438-91.1368 82.1272-89.7848Q84.7106-88.4328 86.3148-85.5461L136.028 2.69273Q137.562 5.49897 137.562 8.37475Q137.562 13.0373 134.383 16.5032Q131.204 19.9692 126.311 19.9692ZM76.5658-18.1294Q78.2213-18.1294 78.2104-20.3001L78.5255-54.9157Q78.5146-55.9261 77.9943-56.5029Q77.474-57.0798 76.5767-57.0798Q75.599-57.0798 75.0678-56.4975Q74.5366-55.9152 74.5257-54.9048L74.8625-20.3001Q74.932-18.1294 76.5658-18.1294ZM76.5658-0.711534Q78.1826-0.711534 79.2529-1.8492Q80.3231-2.98686 80.3231-4.50153Q80.3231-6.00531 79.2474-7.10276Q78.1718-8.20021 76.5658-8.20021Q74.8794-8.20021 73.8494-7.1082Q72.8193-6.01619 72.8193-4.50153Q72.8193-2.97598 73.8896-1.84375Q74.9598-0.711534 76.5658-0.711534Z"/>
  </g>
  <g id="Black-M" transform="matrix(1 0 0 1 2869.88 1126)">
   <path d="M26.2793 14.7033L100.807 14.7033Q105.573 14.7033 109.233 12.4046Q112.894 10.1059 114.98 6.38561Q117.066 2.66537 117.066-1.66927Q117.066-3.6956 116.567-5.75859Q116.067-7.82158 114.961-9.7282L77.6349-75.04Q75.2394-79.2178 71.4826-81.2263Q67.7259-83.2348 63.5431-83.2348Q59.4171-83.2348 55.5749-81.1692Q51.7326-79.1036 49.4-75.04L12.0739-9.67171Q9.96875-5.90884 9.96875-1.66927Q9.96875 2.66537 12.0519 6.38561Q14.135 10.1059 17.8268 12.4046Q21.5187 14.7033 26.2793 14.7033ZM30.681-1.47629Q29.5869-1.47629 28.8746-2.26099Q28.1624-3.04569 28.1624-4.12441Q28.1624-4.39815 28.2294-4.7962Q28.2965-5.19424 28.441-5.47167L61.3651-63.8235Q61.7058-64.3805 62.3175-64.6304Q62.9293-64.8803 63.5431-64.8803Q64.1621-64.8803 64.7686-64.6017Q65.3752-64.3231 65.664-63.7664L98.6455-5.35226Q98.9235-4.8008 98.9235-4.12441Q98.9235-3.04569 98.2399-2.26099Q97.5564-1.47629 96.3994-1.47629ZM63.6057-22.9088Q69.8426-22.9088 70.1906-29.2175L71.0601-43.6802Q71.294-46.9979 69.1972-49.0033Q67.1005-51.0088 63.5431-51.0088Q60.0376-51.0088 57.9178-49.0061Q55.798-47.0034 56.0319-43.6857L56.8903-29.1033Q57.2436-22.9088 63.6057-22.9088ZM63.6057-5.31668Q66.9949-5.31668 69.1403-7.05123Q71.2857-8.78579 71.2857-11.9524Q71.2857-15.0674 69.143-16.8279Q67.0004-18.5884 63.6057-18.5884Q60.2629-18.5884 58.0345-16.8537Q55.806-15.119 55.806-11.9524Q55.806-8.7913 58.0371-7.05399Q60.2681-5.31668 63.6057-5.31668Z"/>
  </g>
  <g id="Heavy-M" transform="matrix(1 0 0 1 2573.76 1126)">
   <path d="M25.6059 13.8047L100.278 13.8047Q104.9 13.8047 108.408 11.6194Q111.916 9.43405 113.9 5.87468Q115.885 2.3153 115.885-1.89725Q115.885-3.82899 115.394-5.80811Q114.903-7.78723 113.842-9.61548L76.4429-74.9784Q74.1609-78.9615 70.5529-80.9064Q66.9449-82.8512 62.9406-82.8512Q58.9824-82.8512 55.3077-80.8628Q51.6331-78.8743 49.4085-74.9784L12.0115-9.56697Q9.96875-5.94763 9.96875-1.89725Q9.96875 2.3153 11.9465 5.87468Q13.9243 9.43405 17.4607 11.6194Q20.997 13.8047 25.6059 13.8047ZM28.9835-0.37278Q27.5567-0.37278 26.6428-1.38874Q25.729-2.40471 25.729-3.77298Q25.729-4.12784 25.8136-4.60976Q25.8983-5.09167 26.105-5.47744L60.1269-65.5323Q60.5676-66.2867 61.3539-66.6421Q62.1401-66.9975 62.9406-66.9975Q63.7598-66.9975 64.5273-66.6215Q65.2949-66.2455 65.7107-65.4886L99.7738-5.37151Q100.155-4.63333 100.155-3.77298Q100.155-2.40471 99.2614-1.38874Q98.3681-0.37278 96.8839-0.37278ZM63.0005-22.7039Q68.6288-22.7039 68.9067-28.4392L69.7408-45.5656Q69.9315-48.5373 68.0242-50.3642Q66.1168-52.1911 62.9406-52.1911Q59.7893-52.1911 57.8764-50.3723Q55.9635-48.5535 56.1542-45.5818L56.9558-28.352Q57.2524-22.7039 63.0005-22.7039ZM63.0005-5.51822Q66.0816-5.51822 68.0916-7.1916Q70.1016-8.86497 70.1016-11.7855Q70.1016-14.6785 68.0997-16.3644Q66.0979-18.0502 63.0005-18.0502Q59.928-18.0502 57.8619-16.3781Q55.7958-14.7059 55.7958-11.7855Q55.7958-8.88121 57.8713-7.19972Q59.9467-5.51822 63.0005-5.51822Z"/>
  </g>
  <g id="Bold-M" transform="matrix(1 0 0 1 2277.71 1126)">
   <path d="M24.8526 12.7994L99.6862 12.7994Q104.148 12.7994 107.485 10.741Q110.821 8.68254 112.693 5.30312Q114.564 1.9237 114.564-2.15229Q114.564-3.9782 114.082-5.8635Q113.6-7.7488 112.591-9.48938L75.1094-74.9094Q72.9544-78.6748 69.5129-80.5485Q66.0713-82.4221 62.2666-82.4221Q58.496-82.4221 55.0089-80.5199Q51.5217-78.6177 49.418-74.9094L11.9417-9.44979Q9.96875-5.99103 9.96875-2.15229Q9.96875 1.9237 11.8287 5.30312Q13.6887 8.68254 17.0511 10.741Q20.4135 12.7994 24.8526 12.7994ZM27.0845 0.861653Q25.2856 0.861653 24.1462-0.41301Q23.0069-1.68767 23.0069-3.37986Q23.0069-3.82546 23.1113-4.40119Q23.2156-4.97693 23.4918-5.48389L58.7417-67.4438Q59.2944-68.4191 60.2758-68.8924Q61.2573-69.3658 62.2666-69.3658Q63.3097-69.3658 64.2574-68.8809Q65.2051-68.396 65.763-67.4152L101.036-5.39304Q101.532-4.44599 101.532-3.37986Q101.532-1.68767 100.404-0.41301Q99.2762 0.861653 97.426 0.861653ZM62.3234-22.4748Q67.271-22.4748 67.4705-27.5687L68.2648-47.6746Q68.4073-50.2594 66.7119-51.8865Q65.0165-53.5136 62.2666-53.5136Q59.5115-53.5136 57.8301-51.9006Q56.1487-50.2876 56.2911-47.7029L57.029-27.5116Q57.2623-22.4748 62.3234-22.4748ZM62.3234-5.74368Q65.06-5.74368 66.9185-7.34862Q68.777-8.95355 68.777-11.5987Q68.777-14.2436 66.9327-15.8459Q65.0883-17.4482 62.3234-17.4482Q59.5533-17.4482 57.6689-15.8461Q55.7845-14.2439 55.7845-11.5987Q55.7845-8.98179 57.6858-7.36274Q59.5871-5.74368 62.3234-5.74368Z"/>
  </g>
  <g id="Semibold-M" transform="matrix(1 0 0 1 1981.45 1126)">
   <path d="M24.3332 12.1063L99.2784 12.1063Q103.629 12.1063 106.848 10.1354Q110.067 8.16446 111.86 4.90909Q113.654 1.65373 113.654-2.3281Q113.654-4.08107 113.178-5.90169Q112.703-7.72231 111.729-9.40245L74.1901-74.8619Q72.1227-78.4772 68.7959-80.3017Q65.469-82.1263 61.802-82.1263Q58.1607-82.1263 54.8028-80.2836Q51.4449-78.4409 49.4246-74.8619L11.8935-9.36902Q9.96875-6.02094 9.96875-2.3281Q9.96875 1.65373 11.7475 4.90909Q13.5263 8.16446 16.7687 10.1354Q20.0112 12.1063 24.3332 12.1063ZM25.7754 1.71266Q23.7199 1.71266 22.4251 0.259655Q21.1303-1.19335 21.1303-3.10884Q21.1303-3.617 21.2483-4.25741Q21.3662-4.89783 21.6903-5.48834L57.7868-68.7616Q58.4167-69.8891 59.5327-70.4438Q60.6486-70.9985 61.802-70.9985Q62.9995-70.9985 64.0713-70.4386Q65.1431-69.8786 65.799-68.7434L101.906-5.40788Q102.481-4.31684 102.481-3.10884Q102.481-1.19335 101.192 0.259655Q99.9023 1.71266 97.7997 1.71266ZM61.8566-22.3168Q66.3349-22.3168 66.4804-26.9686L67.2474-49.1286Q67.3565-51.4466 65.8072-52.9359Q64.258-54.4253 61.802-54.4253Q59.32-54.4253 57.7982-52.9542Q56.2763-51.4831 56.3855-49.1651L57.0794-26.9322Q57.269-22.3168 61.8566-22.3168ZM61.8566-5.89911Q64.3558-5.89911 66.1098-7.45687Q67.8639-9.01462 67.8639-11.47Q67.8639-13.9437 66.1281-15.4885Q64.3923-17.0332 61.8566-17.0332Q59.295-17.0332 57.5358-15.4793Q55.7766-13.9254 55.7766-11.47Q55.7766-9.05113 57.5579-7.47512Q59.3392-5.89911 61.8566-5.89911Z"/>
  </g>
  <g id="Medium-M" transform="matrix(1 0 0 1 1685.09 1126)">
   <path d="M23.9394 11.5808L98.9692 11.5808Q103.236 11.5808 106.366 9.67623Q109.495 7.77162 111.229 4.61032Q112.963 1.44902 112.963-2.46142Q112.963-4.15906 112.492-5.93064Q112.022-7.70223 111.075-9.33654L73.493-74.8259Q71.4921-78.3273 68.2522-80.1146Q65.0124-81.902 61.4497-81.902Q57.9065-81.902 54.6466-80.1044Q51.3867-78.3068 49.4296-74.8259L11.857-9.30777Q9.96875-6.04363 9.96875-2.46142Q9.96875 1.44902 11.6859 4.61032Q13.4031 7.77162 16.5546 9.67623Q19.7062 11.5808 23.9394 11.5808ZM24.7828 2.35793Q22.5327 2.35793 21.1201 0.769698Q19.7074-0.818538 19.7074-2.90334Q19.7074-3.45894 19.8356-4.14839Q19.9638-4.83785 20.3243-5.49172L57.0627-69.7608Q57.7511-71.0038 58.9691-71.6201Q60.1872-72.2365 61.4497-72.2365Q62.7642-72.2365 63.9302-71.6196Q65.0962-71.0027 65.8264-69.7505L102.566-5.41913Q103.201-4.21892 103.201-2.90334Q103.201-0.818538 101.789 0.769698Q100.377 2.35793 98.083 2.35793ZM61.5027-22.197Q65.6252-22.197 65.7296-26.5135L66.4759-50.2311Q66.5598-52.3468 65.1213-53.7317Q63.6828-55.1166 61.4497-55.1166Q59.1748-55.1166 57.774-53.7531Q56.3731-52.3896 56.457-50.2739L57.1177-26.4929Q57.2742-22.197 61.5027-22.197ZM61.5027-6.01697Q63.8218-6.01697 65.4966-7.53895Q67.1715-9.06093 67.1715-11.3724Q67.1715-13.7163 65.518-15.2175Q63.8645-16.7186 61.5027-16.7186Q59.0992-16.7186 57.4349-15.2012Q55.7706-13.6838 55.7706-11.3724Q55.7706-9.1037 57.4609-7.56034Q59.1512-6.01697 61.5027-6.01697Z"/>
  </g>
  <g id="Regular-M" transform="matrix(1 0 0 1 1388.83 1126)">
   <path d="M23.4258 10.8954L98.5658 10.8954Q102.723 10.8954 105.736 9.07732Q108.749 7.25923 110.406 4.22063Q112.062 1.18202 112.062-2.6353Q112.062-4.2608 111.598-5.96841Q111.134-7.67603 110.222-9.25057L72.5838-74.7789Q70.6695-78.1318 67.5431-79.8706Q64.4167-81.6094 60.9901-81.6094Q57.5749-81.6094 54.4429-79.8706Q51.3108-78.1318 49.4361-74.7789L11.8094-9.22788Q9.96875-6.07322 9.96875-2.6353Q9.96875 1.18202 11.6056 4.22063Q13.2424 7.25923 16.2754 9.07732Q19.3083 10.8954 23.4258 10.8954ZM23.4881 3.19959Q20.9842 3.19959 19.4178 1.43497Q17.8515-0.32965 17.8515-2.6353Q17.8515-3.25277 17.9931-4.00619Q18.1347-4.75962 18.5426-5.49612L56.1183-71.0641Q56.883-72.4577 58.2341-73.1545Q59.5852-73.8513 60.9901-73.8513Q62.4574-73.8513 63.7462-73.1601Q65.0349-72.469 65.862-71.0641L103.426-5.43381Q104.14-4.09119 104.14-2.6353Q104.14-0.32965 102.568 1.43497Q100.996 3.19959 98.4526 3.19959ZM61.0411-22.0407Q64.6994-22.0407 64.7504-25.92L65.4696-51.6691Q65.5205-53.5209 64.2265-54.7696Q62.9326-56.0183 60.9901-56.0183Q58.9854-56.0183 57.7424-54.7951Q56.4994-53.5719 56.5503-51.72L57.1676-25.92Q57.2809-22.0407 61.0411-22.0407ZM61.0411-6.17069Q63.1252-6.17069 64.6968-7.64601Q66.2684-9.12132 66.2684-11.2451Q66.2684-13.4198 64.7223-14.8639Q63.1762-16.3081 61.0411-16.3081Q58.8437-16.3081 57.3033-14.8385Q55.7629-13.3688 55.7629-11.2451Q55.7629-9.17228 57.3344-7.67149Q58.906-6.17069 61.0411-6.17069Z"/>
  </g>
  <g id="Light-M" transform="matrix(1 0 0 1 1092.64 1126)">
   <path d="M22.6163 10.4722L98.3634 10.4722Q102.189 10.4722 105.037 8.73694Q107.884 7.00165 109.449 4.13783Q111.014 1.27401 111.014-2.26732Q111.014-3.80083 110.605-5.39804Q110.195-6.99526 109.32-8.49621L71.3695-74.9077Q69.584-78.0399 66.6416-79.6682Q63.6992-81.2966 60.475-81.2966Q57.2805-81.2966 54.3233-79.6682Q51.366-78.0399 49.5833-74.9077L11.6622-8.43672Q9.96875-5.52125 9.96875-2.26732Q9.96875 1.27401 11.532 4.13783Q13.0952 7.00165 15.9442 8.73694Q18.7931 10.4722 22.6163 10.4722ZM22.6786 4.54272Q19.7515 4.54272 17.9183 2.49291Q16.0852 0.443108 16.0852-2.26732Q16.0852-2.97678 16.2544-3.8406Q16.4236-4.70442 16.8867-5.62491L54.7752-72.0392Q55.6687-73.672 57.2406-74.4884Q58.8125-75.3048 60.475-75.3048Q62.1998-75.3048 63.7094-74.5033Q65.2189-73.7018 66.1748-72.0392L104.034-5.5626Q104.895-3.9624 104.895-2.26732Q104.895 0.443108 103.046 2.49291Q101.198 4.54272 98.2686 4.54272ZM60.5075-22.0223Q63.4299-22.0223 63.4624-25.2208L64.0344-51.3011Q64.067-52.8218 63.049-53.8221Q62.031-54.8224 60.475-54.8224Q58.8566-54.8224 57.8712-53.8384Q56.8858-52.8543 56.9183-51.3337L57.4252-25.2208Q57.5201-22.0223 60.5075-22.0223ZM60.5075-6.88825Q62.3341-6.88825 63.6757-8.17958Q65.0172-9.4709 65.0172-11.3003Q65.0172-13.1622 63.6919-14.4224Q62.3666-15.6825 60.5075-15.6825Q58.5861-15.6825 57.2757-14.4061Q55.9653-13.1296 55.9653-11.3003Q55.9653-9.50346 57.3068-8.19586Q58.6484-6.88825 60.5075-6.88825Z"/>
  </g>
  <g id="Thin-M" transform="matrix(1 0 0 1 796.617 1126)">
   <path d="M21.5455 9.91254L98.0958 9.91254Q101.484 9.91254 104.112 8.28676Q106.741 6.66097 108.184 4.02833Q109.627 1.39569 109.627-1.78064Q109.627-3.19247 109.291-4.64368Q108.954-6.0949 108.128-7.49851L69.7634-75.0781Q68.1482-77.9182 65.4492-79.4005Q62.7501-80.8829 59.7936-80.8829Q56.8912-80.8829 54.1651-79.4005Q51.439-77.9182 49.7779-75.0781L11.4676-7.39035Q9.96875-4.79122 9.96875-1.78064Q9.96875 1.39569 11.4347 4.02833Q12.9006 6.66097 15.5062 8.28676Q18.1118 9.91254 21.5455 9.91254ZM21.6079 6.31911Q18.1211 6.31911 15.9351 3.89213Q13.7491 1.46514 13.7491-1.78064Q13.7491-2.61177 13.9548-3.62159Q14.1605-4.63142 14.6966-5.79525L52.9988-73.329Q54.0627-75.2781 55.9265-76.2526Q57.7904-77.2272 59.7936-77.2272Q61.8591-77.2272 63.6607-76.2797Q65.4623-75.3321 66.5885-73.329L104.837-5.73294Q105.892-3.79206 105.892-1.78064Q105.892 1.46514 103.679 3.89213Q101.466 6.31911 98.0252 6.31911ZM59.8018-21.998Q61.7508-21.998 61.759-24.2961L62.1364-50.8144Q62.1446-51.8971 61.4916-52.5689Q60.8386-53.2407 59.7936-53.2407Q58.6863-53.2407 58.0415-52.573Q57.3968-51.9053 57.405-50.8227L57.7659-24.2961Q57.8364-21.998 59.8018-21.998ZM59.8018-7.83728Q61.2877-7.83728 62.3251-8.88527Q63.3625-9.93325 63.3625-11.3733Q63.3625-12.8215 62.3292-13.8383Q61.2959-14.8552 59.8018-14.8552Q58.2454-14.8552 57.2392-13.8342Q56.2329-12.8133 56.2329-11.3733Q56.2329-9.94148 57.2703-8.88938Q58.3077-7.83728 59.8018-7.83728Z"/>
  </g>
  <g id="Ultralight-M" transform="matrix(1 0 0 1 500.26 1126)">
   <path d="M20.9971 9.62587L97.9587 9.62587Q101.122 9.62587 103.639 8.05617Q106.155 6.48647 107.536 3.97224Q108.916 1.458 108.916-1.53136Q108.916-2.88088 108.617-4.25731Q108.319-5.63374 107.517-6.98749L68.9408-75.1653Q67.4129-77.8559 64.8385-79.2634Q62.264-80.671 59.4446-80.671Q56.6918-80.671 54.0841-79.2634Q51.4764-77.8559 49.8777-75.1653L11.3679-6.8544Q9.96875-4.41731 9.96875-1.53136Q9.96875 1.458 11.3848 3.97224Q12.8009 6.48647 15.2818 8.05617Q17.7628 9.62587 20.9971 9.62587ZM21.0594 7.22897Q17.286 7.22897 14.9193 4.6088Q12.5526 1.98862 12.5526-1.53136Q12.5526-2.42481 12.777-3.50942Q13.0014-4.59403 13.5749-5.8825L52.0889-73.9895Q53.24-76.1007 55.2535-77.1563Q57.2669-78.2118 59.4446-78.2118Q61.6846-78.2118 63.6358-77.1895Q65.5869-76.1672 66.8004-73.9895L105.248-5.82019Q106.403-3.70481 106.403-1.53136Q106.403 1.98862 104.003 4.6088Q101.603 7.22897 97.9006 7.22897ZM59.4404-21.9855Q60.8908-21.9855 60.8866-23.8225L61.1642-50.5652Q61.16-51.4234 60.6939-51.927Q60.2279-52.4305 59.4446-52.4305Q58.599-52.4305 58.1288-51.9249Q57.6585-51.4192 57.6543-50.5609L57.9404-23.8225Q57.9984-21.9855 59.4404-21.9855ZM59.4404-8.32337Q60.7518-8.32337 61.6334-9.24672Q62.515-10.1701 62.515-11.4107Q62.515-12.647 61.6312-13.5392Q60.7475-14.4314 59.4404-14.4314Q58.0709-14.4314 57.2205-13.5413Q56.3701-12.6513 56.3701-11.4107Q56.3701-10.1658 57.2517-9.2446Q58.1333-8.32337 59.4404-8.32337Z"/>
  </g>
  <g id="Black-S" transform="matrix(1 0 0 1 2883.47 696)">
   <path d="M20.752 4.15039L79.1504 4.15039Q82.9102 4.15039 85.8154 2.31934Q88.7207 0.488281 90.3809-2.46582Q92.041-5.41992 92.041-8.83789Q92.041-10.4492 91.6504-12.085Q91.2598-13.7207 90.3809-15.2344L61.1328-66.4551Q59.2285-69.7754 56.25-71.3623Q53.2715-72.9492 49.9512-72.9492Q46.6797-72.9492 43.6279-71.3135Q40.5762-69.6777 38.7207-66.4551L9.47266-15.1855Q7.8125-12.207 7.8125-8.83789Q7.8125-5.41992 9.47266-2.46582Q11.1328 0.488281 14.0625 2.31934Q16.9922 4.15039 20.752 4.15039ZM24.5117-9.0332Q23.7305-9.0332 23.2178-9.59473Q22.7051-10.1562 22.7051-10.9375Q22.7051-11.1328 22.7539-11.4258Q22.8027-11.7188 22.9004-11.9141L48.3887-57.1777Q48.6328-57.5684 49.0723-57.7393Q49.5117-57.9102 49.9512-57.9102Q50.3906-57.9102 50.8301-57.7148Q51.2695-57.5195 51.4648-57.1289L77.002-11.8164Q77.1973-11.4258 77.1973-10.9375Q77.1973-10.1562 76.709-9.59473Q76.2207-9.0332 75.3906-9.0332ZM50-25.6348Q55.0293-25.6348 55.3223-30.7129L56.0059-41.2598Q56.2012-43.9453 54.5166-45.5566Q52.832-47.168 49.9512-47.168Q47.1191-47.168 45.4102-45.5566Q43.7012-43.9453 43.8965-41.2598L44.5801-30.6152Q44.873-25.6348 50-25.6348ZM50-11.7676Q52.7344-11.7676 54.4434-13.1348Q56.1523-14.502 56.1523-17.041Q56.1523-19.5312 54.4434-20.9229Q52.7344-22.3145 50-22.3145Q47.3145-22.3145 45.5322-20.9473Q43.75-19.5801 43.75-17.041Q43.75-14.502 45.5322-13.1348Q47.3145-11.7676 50-11.7676Z"/>
  </g>
  <g id="Heavy-S" transform="matrix(1 0 0 1 2587.2 696)">
   <path d="M20.2795 3.43587L78.724 3.43587Q82.4031 3.43587 85.1989 1.69125Q87.9947-0.0533686 89.5799-2.89223Q91.1652-5.73108 91.1652-9.0799Q91.1652-10.6221 90.7745-12.2002Q90.3839-13.7783 89.5396-15.2344L60.2685-66.3859Q58.4449-69.568 55.5701-71.1145Q52.6953-72.6611 49.5017-72.6611Q46.3455-72.6611 43.4147-71.0772Q40.484-69.4933 38.7092-66.3859L9.43808-15.1971Q7.8125-12.3108 7.8125-9.0799Q7.8125-5.73108 9.39198-2.89223Q10.9715-0.0533686 13.7917 1.69125Q16.6119 3.43587 20.2795 3.43587ZM23.1634-8.26106Q22.1516-8.26106 21.5006-8.98393Q20.8496-9.7068 20.8496-10.684Q20.8496-10.9369 20.91-11.2875Q20.9703-11.6381 21.1141-11.9025L47.5013-58.5146Q47.8146-59.0435 48.375-59.2893Q48.9355-59.5351 49.5017-59.5351Q50.0795-59.5351 50.6284-59.2706Q51.1773-59.0062 51.4648-58.4773L77.8893-11.8164Q78.1538-11.299 78.1538-10.684Q78.1538-9.7068 77.5215-8.98393Q76.8891-8.26106 75.8286-8.26106ZM49.5505-25.4619Q54.1534-25.4619 54.3888-30.1367L55.0609-42.9193Q55.2216-45.3513 53.6638-46.8416Q52.106-48.3319 49.5017-48.3319Q46.9232-48.3319 45.3583-46.8474Q43.7934-45.3628 43.9541-42.9308L44.6031-30.0621Q44.85-25.4619 49.5505-25.4619ZM49.5505-11.8482Q52.0544-11.8482 53.677-13.1866Q55.2995-14.525 55.2995-16.8912Q55.2995-19.2316 53.6827-20.5829Q52.066-21.9341 49.5505-21.9341Q47.0609-21.9341 45.3882-20.5958Q43.7154-19.2574 43.7154-16.8912Q43.7154-14.5365 45.3939-13.1924Q47.0724-11.8482 49.5505-11.8482Z"/>
  </g>
  <g id="Bold-S" transform="matrix(1 0 0 1 2290.98 696)">
   <path d="M19.751 2.63672L78.2471 2.63672Q81.8359 2.63672 84.5093 0.98877Q87.1826-0.65918 88.6841-3.36914Q90.1855-6.0791 90.1855-9.35059Q90.1855-10.8154 89.7949-12.3291Q89.4043-13.8428 88.5986-15.2344L59.3018-66.3086Q57.5684-69.3359 54.8096-70.8374Q52.0508-72.3389 48.999-72.3389Q45.9717-72.3389 43.1763-70.813Q40.3809-69.2871 38.6963-66.3086L9.39941-15.21Q7.8125-12.4268 7.8125-9.35059Q7.8125-6.0791 9.30176-3.36914Q10.791-0.65918 13.4888 0.98877Q16.1865 2.63672 19.751 2.63672ZM21.6553-7.39746Q20.3857-7.39746 19.5801-8.30078Q18.7744-9.2041 18.7744-10.4004Q18.7744-10.7178 18.8477-11.1328Q18.9209-11.5479 19.1162-11.8896L46.5088-60.0098Q46.8994-60.6934 47.5952-61.0229Q48.291-61.3525 48.999-61.3525Q49.7314-61.3525 50.4028-61.0107Q51.0742-60.6689 51.4648-59.9854L78.8818-11.8164Q79.2236-11.1572 79.2236-10.4004Q79.2236-9.2041 78.4302-8.30078Q77.6367-7.39746 76.3184-7.39746ZM49.0479-25.2686Q53.1738-25.2686 53.3447-29.4922L54.0039-44.7754Q54.126-46.9238 52.71-48.2788Q51.2939-49.6338 48.999-49.6338Q46.7041-49.6338 45.3003-48.291Q43.8965-46.9482 44.0186-44.7998L44.6289-29.4434Q44.8242-25.2686 49.0479-25.2686ZM49.0479-11.9385Q51.2939-11.9385 52.8198-13.2446Q54.3457-14.5508 54.3457-16.7236Q54.3457-18.8965 52.832-20.2026Q51.3184-21.5088 49.0479-21.5088Q46.7773-21.5088 45.2271-20.2026Q43.6768-18.8965 43.6768-16.7236Q43.6768-14.5752 45.2393-13.2568Q46.8018-11.9385 49.0479-11.9385Z"/>
  </g>
  <g id="Semibold-S" transform="matrix(1 0 0 1 1994.61 696)">
   <path d="M19.3866 2.08574L77.9183 2.08574Q81.4449 2.08574 84.0338 0.504443Q86.6228-1.07686 88.0665-3.69795Q89.5102-6.31904 89.5102-9.53721Q89.5102-10.9487 89.1195-12.418Q88.7289-13.8872 87.9499-15.2344L58.6353-66.2553Q56.9641-69.176 54.2853-70.6463Q51.6064-72.1167 48.6524-72.1167Q45.714-72.1167 43.0119-70.6308Q40.3098-69.1449 38.6874-66.2553L9.37275-15.2188Q7.8125-12.5067 7.8125-9.53721Q7.8125-6.31904 9.23955-3.69795Q10.6666-1.07686 13.2799 0.504443Q15.8933 2.08574 19.3866 2.08574ZM20.6155-6.80205Q19.1683-6.80205 18.256-7.82979Q17.3437-8.85752 17.3437-10.2049Q17.3437-10.5667 17.4258-11.0262Q17.5079-11.4856 17.7388-11.8808L45.8245-61.0406Q46.2685-61.8309 47.0576-62.2182Q47.8467-62.6056 48.6524-62.6056Q49.4915-62.6056 50.2473-62.2104Q51.0031-61.8153 51.4648-61.0251L79.5661-11.8164Q79.9612-11.0595 79.9612-10.2049Q79.9612-8.85752 79.0567-7.82979Q78.1521-6.80205 76.6561-6.80205ZM48.7013-25.1353Q52.4984-25.1353 52.6249-29.0479L53.2752-46.0551Q53.3706-48.008 52.0523-49.2697Q50.7341-50.5313 48.6524-50.5313Q46.553-50.5313 45.2603-49.2863Q43.9676-48.0413 44.063-46.0884L44.6467-29.0168Q44.8064-25.1353 48.7013-25.1353ZM48.7013-12.0007Q50.7696-12.0007 52.2289-13.2846Q53.6881-14.5686 53.6881-16.6081Q53.6881-18.6654 52.2455-19.9405Q50.8029-21.2155 48.7013-21.2155Q46.5818-21.2155 45.116-19.9316Q43.6501-18.6477 43.6501-16.6081Q43.6501-14.6019 45.1326-13.3013Q46.6151-12.0007 48.7013-12.0007Z"/>
  </g>
  <g id="Medium-S" transform="matrix(1 0 0 1 1698.15 696)">
   <path d="M19.1104 1.66797L77.6689 1.66797Q81.1484 1.66797 83.6733 0.137207Q86.1982-1.39355 87.5981-3.94727Q88.998-6.50098 88.998-9.67871Q88.998-11.0498 88.6074-12.4854Q88.2168-13.9209 87.458-15.2344L58.1299-66.2148Q56.5059-69.0547 53.8877-70.5015Q51.2695-71.9482 48.3896-71.9482Q45.5186-71.9482 42.8872-70.4927Q40.2559-69.0371 38.6807-66.2148L9.35254-15.2256Q7.8125-12.5674 7.8125-9.67871Q7.8125-6.50098 9.19238-3.94727Q10.5723-1.39355 13.1216 0.137207Q15.6709 1.66797 19.1104 1.66797ZM19.8271-6.35059Q18.2451-6.35059 17.252-7.47266Q16.2588-8.59473 16.2588-10.0566Q16.2588-10.4521 16.3477-10.9453Q16.4365-11.4385 16.6943-11.874L45.3057-61.8223Q45.79-62.6934 46.6499-63.1245Q47.5098-63.5557 48.3896-63.5557Q49.3096-63.5557 50.1294-63.1201Q50.9492-62.6846 51.4648-61.8135L80.085-11.8164Q80.5205-10.9854 80.5205-10.0566Q80.5205-8.59473 79.5317-7.47266Q78.543-6.35059 76.9121-6.35059ZM48.4385-25.0342Q51.9863-25.0342 52.0791-28.7109L52.7227-47.0254Q52.7979-48.8301 51.5537-50.021Q50.3096-51.2119 48.3896-51.2119Q46.4385-51.2119 45.23-50.041Q44.0215-48.8701 44.0967-47.0654L44.6602-28.6934Q44.793-25.0342 48.4385-25.0342ZM48.4385-12.0479Q50.3721-12.0479 51.7808-13.3149Q53.1895-14.582 53.1895-16.5205Q53.1895-18.4902 51.8008-19.7417Q50.4121-20.9932 48.4385-20.9932Q46.4336-20.9932 45.0317-19.7261Q43.6299-18.459 43.6299-16.5205Q43.6299-14.6221 45.0518-13.335Q46.4736-12.0479 48.4385-12.0479Z"/>
  </g>
  <g id="Regular-S" transform="matrix(1 0 0 1 1401.77 696)">
   <path d="M18.75 1.12305L77.3438 1.12305Q80.7617 1.12305 83.2031-0.341797Q85.6445-1.80664 86.9873-4.27246Q88.3301-6.73828 88.3301-9.86328Q88.3301-11.1816 87.9395-12.5732Q87.5488-13.9648 86.8164-15.2344L57.4707-66.1621Q55.9082-68.8965 53.3691-70.3125Q50.8301-71.7285 48.0469-71.7285Q45.2637-71.7285 42.7246-70.3125Q40.1855-68.8965 38.6719-66.1621L9.32617-15.2344Q7.8125-12.6465 7.8125-9.86328Q7.8125-6.73828 9.13086-4.27246Q10.4492-1.80664 12.915-0.341797Q15.3809 1.12305 18.75 1.12305ZM18.7988-5.76172Q17.041-5.76172 15.9424-7.00684Q14.8438-8.25195 14.8438-9.86328Q14.8438-10.3027 14.9414-10.8398Q15.0391-11.377 15.332-11.8652L44.6289-62.8418Q45.166-63.8184 46.1182-64.3066Q47.0703-64.7949 48.0469-64.7949Q49.0723-64.7949 49.9756-64.3066Q50.8789-63.8184 51.4648-62.8418L80.7617-11.8164Q81.25-10.8887 81.25-9.86328Q81.25-8.25195 80.1514-7.00684Q79.0527-5.76172 77.2461-5.76172ZM48.0957-24.9023Q51.3184-24.9023 51.3672-28.2715L52.002-48.291Q52.0508-49.9023 50.9033-51.001Q49.7559-52.0996 48.0469-52.0996Q46.2891-52.0996 45.1904-51.0254Q44.0918-49.9512 44.1406-48.3398L44.6777-28.2715Q44.7754-24.9023 48.0957-24.9023ZM48.0957-12.1094Q49.8535-12.1094 51.1963-13.3545Q52.5391-14.5996 52.5391-16.4062Q52.5391-18.2617 51.2207-19.4824Q49.9023-20.7031 48.0957-20.7031Q46.2402-20.7031 44.9219-19.458Q43.6035-18.2129 43.6035-16.4062Q43.6035-14.6484 44.9463-13.3789Q46.2891-12.1094 48.0957-12.1094Z"/>
  </g>
  <g id="Light-S" transform="matrix(1 0 0 1 1105.52 696)">
   <path d="M18.0339 0.748698L77.1647 0.748698Q80.2897 0.748698 82.5846-0.642904Q84.8796-2.03451 86.141-4.3457Q87.4023-6.6569 87.4023-9.53776Q87.4023-10.7747 87.0605-12.0687Q86.7188-13.3626 86.0189-14.5671L56.3965-66.276Q54.9479-68.8151 52.5716-70.1335Q50.1953-71.4518 47.5911-71.4518Q45.0033-71.4518 42.6188-70.1335Q40.2344-68.8151 38.8021-66.276L9.19596-14.5345Q7.8125-12.1582 7.8125-9.53776Q7.8125-6.6569 9.06576-4.3457Q10.319-2.03451 12.6221-0.642904Q14.9251 0.748698 18.0339 0.748698ZM18.0827-4.57357Q15.9505-4.57357 14.6159-6.07096Q13.2812-7.56836 13.2812-9.53776Q13.2812-10.0586 13.4033-10.6934Q13.5254-11.3281 13.8672-11.9792L43.4408-63.7044Q44.0918-64.8926 45.2393-65.4867Q46.3867-66.0807 47.5911-66.0807Q48.8444-66.0807 49.943-65.4948Q51.0417-64.9089 51.7415-63.7044L81.2988-11.9303Q81.9173-10.7747 81.9173-9.53776Q81.9173-7.56836 80.5745-6.07096Q79.2318-4.57357 77.0833-4.57357ZM47.6237-24.8861Q50.1953-24.8861 50.2279-27.653L50.7324-47.9655Q50.765-49.2839 49.8617-50.1628Q48.9583-51.0417 47.5911-51.0417Q46.1751-51.0417 45.3044-50.179Q44.4336-49.3164 44.4661-47.998L44.9056-27.653Q44.987-24.8861 47.6237-24.8861ZM47.6237-12.7441Q49.1536-12.7441 50.293-13.8265Q51.4323-14.9089 51.4323-16.4551Q51.4323-18.0339 50.3092-19.0918Q49.1862-20.1497 47.6237-20.1497Q46.0124-20.1497 44.8975-19.0755Q43.7826-18.0013 43.7826-16.4551Q43.7826-14.9414 44.9219-13.8428Q46.0612-12.7441 47.6237-12.7441Z"/>
  </g>
  <g id="Thin-S" transform="matrix(1 0 0 1 809.423 696)">
   <path d="M17.0867 0.253591L76.9279 0.253591Q79.6654 0.253591 81.7666-1.04114Q83.8678-2.33587 85.0216-4.44257Q86.1753-6.54927 86.1753-9.10723Q86.1753-10.2366 85.8981-11.4014Q85.6209-12.5662 84.9641-13.6845L54.9757-66.4267Q53.6779-68.7075 51.5168-69.8967Q49.3558-71.0859 46.9884-71.0859Q44.6588-71.0859 42.4789-69.8967Q40.299-68.7075 38.9743-66.4267L9.02375-13.6089Q7.8125-11.5124 7.8125-9.10723Q7.8125-6.54927 8.97965-4.44257Q10.1468-2.33587 12.2346-1.04114Q14.3224 0.253591 17.0867 0.253591ZM17.1355-3.00214Q14.5083-3.00214 12.8615-4.8332Q11.2147-6.66425 11.2147-9.10723Q11.2147-9.7357 11.3691-10.4996Q11.5234-11.2635 11.9298-12.1299L41.8693-64.8453Q42.6711-66.3133 44.0768-67.0473Q45.4826-67.7813 46.9884-67.7813Q48.543-67.7813 49.9-67.0662Q51.2569-66.3511 52.1075-64.8453L82.0092-12.081Q82.7999-10.6241 82.7999-9.10723Q82.7999-6.66425 81.1342-4.8332Q79.4686-3.00214 76.8681-3.00214ZM46.9994-24.8645Q48.71-24.8645 48.721-26.835L49.0534-47.535Q49.0644-48.4659 48.484-49.0542Q47.9035-49.6425 46.9884-49.6425Q46.0244-49.6425 45.455-49.0597Q44.8856-48.4769 44.8967-47.546L45.207-26.835Q45.2668-24.8645 46.9994-24.8645ZM46.9994-13.5837Q48.228-13.5837 49.0983-14.4508Q49.9685-15.3179 49.9685-16.5197Q49.9685-17.7325 49.1038-18.5752Q48.239-19.4178 46.9994-19.4178Q45.711-19.4178 44.8652-18.5697Q44.0193-17.7215 44.0193-16.5197Q44.0193-15.3289 44.8896-14.4563Q45.7598-13.5837 46.9994-13.5837Z"/>
  </g>
  <g id="Ultralight-S" transform="matrix(1 0 0 1 513.025 696)">
   <path d="M16.6016 0L76.8066 0Q79.3457 0 81.3477-1.24512Q83.3496-2.49023 84.4482-4.49219Q85.5469-6.49414 85.5469-8.88672Q85.5469-9.96094 85.3027-11.0596Q85.0586-12.1582 84.4238-13.2324L54.248-66.5039Q53.0273-68.6523 50.9766-69.7754Q48.9258-70.8984 46.6797-70.8984Q44.4824-70.8984 42.4072-69.7754Q40.332-68.6523 39.0625-66.5039L8.93555-13.1348Q7.8125-11.1816 7.8125-8.88672Q7.8125-6.49414 8.93555-4.49219Q10.0586-2.49023 12.0361-1.24512Q14.0137 0 16.6016 0ZM16.6504-2.19727Q13.7695-2.19727 11.9629-4.19922Q10.1562-6.20117 10.1562-8.88672Q10.1562-9.57031 10.3271-10.4004Q10.498-11.2305 10.9375-12.207L41.0645-65.4297Q41.9434-67.041 43.4814-67.8467Q45.0195-68.6523 46.6797-68.6523Q48.3887-68.6523 49.8779-67.8711Q51.3672-67.0898 52.2949-65.4297L82.373-12.1582Q83.252-10.5469 83.252-8.88672Q83.252-6.20117 81.4209-4.19922Q79.5898-2.19727 76.7578-2.19727ZM46.6797-24.8535Q47.9492-24.8535 47.9492-26.416L48.1934-47.3145Q48.1934-48.0469 47.7783-48.4863Q47.3633-48.9258 46.6797-48.9258Q45.9473-48.9258 45.5322-48.4863Q45.1172-48.0469 45.1172-47.3145L45.3613-26.416Q45.4102-24.8535 46.6797-24.8535ZM46.6797-14.0137Q47.7539-14.0137 48.4863-14.7705Q49.2188-15.5273 49.2188-16.5527Q49.2188-17.5781 48.4863-18.3105Q47.7539-19.043 46.6797-19.043Q45.5566-19.043 44.8486-18.3105Q44.1406-17.5781 44.1406-16.5527Q44.1406-15.5273 44.873-14.7705Q45.6055-14.0137 46.6797-14.0137Z"/>
  </g>
 </g>
</svg>
