<?xml version="1.0" encoding="UTF-8"?>
<!--Generator: Apple Native CoreSVG 175-->
<!DOCTYPE svg
PUBLIC "-//W3C//DTD SVG 1.1//EN"
       "http://www.w3.org/Graphics/SVG/1.1/DTD/svg11.dtd">
<svg version="1.1" xmlns="http://www.w3.org/2000/svg" xmlns:xlink="http://www.w3.org/1999/xlink" width="3300" height="2200">
 <!--glyph: "uni100262.medium", point size: 100.0, font version: "17.1d1e1", template writer version: "65.1"-->
 <g id="Notes">
  <rect height="2200" id="artboard" style="fill:white;opacity:1" width="3300" x="0" y="0"/>
  <line style="fill:none;stroke:black;opacity:1;stroke-width:0.5;" x1="263" x2="3036" y1="292" y2="292"/>
  <text style="stroke:none;fill:black;font-family:sans-serif;font-size:13;font-weight:bold;" transform="matrix(1 0 0 1 263 322)">Weight/Scale Variations</text>
  <text style="stroke:none;fill:black;font-family:sans-serif;font-size:13;text-anchor:middle;" transform="matrix(1 0 0 1 559.711 322)">Ultralight</text>
  <text style="stroke:none;fill:black;font-family:sans-serif;font-size:13;text-anchor:middle;" transform="matrix(1 0 0 1 856.422 322)">Thin</text>
  <text style="stroke:none;fill:black;font-family:sans-serif;font-size:13;text-anchor:middle;" transform="matrix(1 0 0 1 1153.13 322)">Light</text>
  <text style="stroke:none;fill:black;font-family:sans-serif;font-size:13;text-anchor:middle;" transform="matrix(1 0 0 1 1449.84 322)">Regular</text>
  <text style="stroke:none;fill:black;font-family:sans-serif;font-size:13;text-anchor:middle;" transform="matrix(1 0 0 1 1746.56 322)">Medium</text>
  <text style="stroke:none;fill:black;font-family:sans-serif;font-size:13;text-anchor:middle;" transform="matrix(1 0 0 1 2043.27 322)">Semibold</text>
  <text style="stroke:none;fill:black;font-family:sans-serif;font-size:13;text-anchor:middle;" transform="matrix(1 0 0 1 2339.98 322)">Bold</text>
  <text style="stroke:none;fill:black;font-family:sans-serif;font-size:13;text-anchor:middle;" transform="matrix(1 0 0 1 2636.69 322)">Heavy</text>
  <text style="stroke:none;fill:black;font-family:sans-serif;font-size:13;text-anchor:middle;" transform="matrix(1 0 0 1 2933.4 322)">Black</text>
  <line style="fill:none;stroke:black;opacity:1;stroke-width:0.5;" x1="263" x2="3036" y1="1903" y2="1903"/>
  <g transform="matrix(1 0 0 1 263 1933)">
   <path d="M9.24805 0.830078Q10.8691 0.830078 12.2949 0.214844Q13.7207-0.400391 14.8096-1.49414Q15.8984-2.58789 16.5186-4.01367Q17.1387-5.43945 17.1387-7.05078Q17.1387-8.66211 16.5186-10.0879Q15.8984-11.5137 14.8047-12.6074Q13.7109-13.7012 12.2852-14.3164Q10.8594-14.9316 9.23828-14.9316Q7.62695-14.9316 6.20117-14.3164Q4.77539-13.7012 3.69141-12.6074Q2.60742-11.5137 1.9873-10.0879Q1.36719-8.66211 1.36719-7.05078Q1.36719-5.43945 1.9873-4.01367Q2.60742-2.58789 3.69629-1.49414Q4.78516-0.400391 6.21094 0.214844Q7.63672 0.830078 9.24805 0.830078ZM9.24805-0.654297Q7.91992-0.654297 6.7627-1.14746Q5.60547-1.64062 4.73145-2.51953Q3.85742-3.39844 3.36426-4.56055Q2.87109-5.72266 2.87109-7.05078Q2.87109-8.37891 3.35938-9.54102Q3.84766-10.7031 4.72168-11.582Q5.5957-12.4609 6.75293-12.9541Q7.91016-13.4473 9.23828-13.4473Q10.5762-13.4473 11.7334-12.9541Q12.8906-12.4609 13.7695-11.582Q14.6484-10.7031 15.1465-9.54102Q15.6445-8.37891 15.6445-7.05078Q15.6445-5.72266 15.1514-4.56055Q14.6582-3.39844 13.7842-2.51953Q12.9102-1.64062 11.748-1.14746Q10.5859-0.654297 9.24805-0.654297ZM5.6543-7.05078Q5.6543-6.72852 5.85938-6.52832Q6.06445-6.32812 6.40625-6.32812L8.51562-6.32812L8.51562-4.20898Q8.51562-3.88672 8.71094-3.67676Q8.90625-3.4668 9.23828-3.4668Q9.56055-3.4668 9.77051-3.67676Q9.98047-3.88672 9.98047-4.20898L9.98047-6.32812L12.0898-6.32812Q12.4219-6.32812 12.627-6.52832Q12.832-6.72852 12.832-7.05078Q12.832-7.38281 12.627-7.58789Q12.4219-7.79297 12.0898-7.79297L9.98047-7.79297L9.98047-9.90234Q9.98047-10.2344 9.77051-10.4443Q9.56055-10.6543 9.23828-10.6543Q8.90625-10.6543 8.71094-10.4443Q8.51562-10.2344 8.51562-9.90234L8.51562-7.79297L6.40625-7.79297Q6.06445-7.79297 5.85938-7.58789Q5.6543-7.38281 5.6543-7.05078Z"/>
  </g>
  <g transform="matrix(1 0 0 1 281.867 1933)">
   <path d="M11.709 2.91016Q13.75 2.91016 15.5518 2.12891Q17.3535 1.34766 18.7305-0.0292969Q20.1074-1.40625 20.8887-3.20801Q21.6699-5.00977 21.6699-7.05078Q21.6699-9.0918 20.8887-10.8936Q20.1074-12.6953 18.7305-14.0723Q17.3535-15.4492 15.5469-16.2305Q13.7402-17.0117 11.6992-17.0117Q9.6582-17.0117 7.85645-16.2305Q6.05469-15.4492 4.68262-14.0723Q3.31055-12.6953 2.5293-10.8936Q1.74805-9.0918 1.74805-7.05078Q1.74805-5.00977 2.5293-3.20801Q3.31055-1.40625 4.6875-0.0292969Q6.06445 1.34766 7.86621 2.12891Q9.66797 2.91016 11.709 2.91016ZM11.709 1.25Q9.98047 1.25 8.47656 0.605469Q6.97266-0.0390625 5.83496-1.17676Q4.69727-2.31445 4.05762-3.81836Q3.41797-5.32227 3.41797-7.05078Q3.41797-8.7793 4.05762-10.2832Q4.69727-11.7871 5.83008-12.9297Q6.96289-14.0723 8.4668-14.7119Q9.9707-15.3516 11.6992-15.3516Q13.4277-15.3516 14.9316-14.7119Q16.4355-14.0723 17.5781-12.9297Q18.7207-11.7871 19.3652-10.2832Q20.0098-8.7793 20.0098-7.05078Q20.0098-5.32227 19.3701-3.81836Q18.7305-2.31445 17.5928-1.17676Q16.4551-0.0390625 14.9463 0.605469Q13.4375 1.25 11.709 1.25ZM7.17773-7.05078Q7.17773-6.69922 7.41211-6.47461Q7.64648-6.25 8.01758-6.25L10.8887-6.25L10.8887-3.36914Q10.8887-2.99805 11.1133-2.76855Q11.3379-2.53906 11.6895-2.53906Q12.0605-2.53906 12.29-2.76855Q12.5195-2.99805 12.5195-3.36914L12.5195-6.25L15.4004-6.25Q15.7715-6.25 16.001-6.47461Q16.2305-6.69922 16.2305-7.05078Q16.2305-7.42188 16.001-7.65137Q15.7715-7.88086 15.4004-7.88086L12.5195-7.88086L12.5195-10.752Q12.5195-11.1328 12.29-11.3623Q12.0605-11.5918 11.6895-11.5918Q11.3379-11.5918 11.1133-11.3574Q10.8887-11.123 10.8887-10.752L10.8887-7.88086L8.01758-7.88086Q7.63672-7.88086 7.40723-7.65137Q7.17773-7.42188 7.17773-7.05078Z"/>
  </g>
  <g transform="matrix(1 0 0 1 305.646 1933)">
   <path d="M14.9707 5.66406Q17.0605 5.66406 18.96 5.01465Q20.8594 4.36523 22.4512 3.19336Q24.043 2.02148 25.2197 0.429688Q26.3965-1.16211 27.0459-3.06641Q27.6953-4.9707 27.6953-7.05078Q27.6953-9.14062 27.0459-11.04Q26.3965-12.9395 25.2197-14.5312Q24.043-16.123 22.4512-17.2998Q20.8594-18.4766 18.9551-19.126Q17.0508-19.7754 14.9609-19.7754Q12.8711-19.7754 10.9717-19.126Q9.07227-18.4766 7.48535-17.2998Q5.89844-16.123 4.72168-14.5312Q3.54492-12.9395 2.90039-11.04Q2.25586-9.14062 2.25586-7.05078Q2.25586-4.9707 2.90527-3.06641Q3.55469-1.16211 4.72656 0.429688Q5.89844 2.02148 7.49023 3.19336Q9.08203 4.36523 10.9814 5.01465Q12.8809 5.66406 14.9707 5.66406ZM14.9707 3.84766Q13.1641 3.84766 11.5283 3.2959Q9.89258 2.74414 8.53516 1.74805Q7.17773 0.751953 6.17676-0.610352Q5.17578-1.97266 4.62891-3.6084Q4.08203-5.24414 4.08203-7.05078Q4.08203-8.86719 4.62891-10.5029Q5.17578-12.1387 6.17188-13.501Q7.16797-14.8633 8.52539-15.8594Q9.88281-16.8555 11.5186-17.4023Q13.1543-17.9492 14.9609-17.9492Q16.7773-17.9492 18.4131-17.4023Q20.0488-16.8555 21.4111-15.8594Q22.7734-14.8633 23.7695-13.501Q24.7656-12.1387 25.3174-10.5029Q25.8691-8.86719 25.8691-7.05078Q25.8789-5.24414 25.332-3.6084Q24.7852-1.97266 23.7842-0.610352Q22.7832 0.751953 21.4209 1.74805Q20.0586 2.74414 18.4229 3.2959Q16.7871 3.84766 14.9707 3.84766ZM9.19922-7.05078Q9.19922-6.66992 9.45801-6.4209Q9.7168-6.17188 10.1172-6.17188L14.0625-6.17188L14.0625-2.2168Q14.0625-1.81641 14.3115-1.55762Q14.5605-1.29883 14.9512-1.29883Q15.3516-1.29883 15.6104-1.55273Q15.8691-1.80664 15.8691-2.2168L15.8691-6.17188L19.8242-6.17188Q20.2246-6.17188 20.4785-6.4209Q20.7324-6.66992 20.7324-7.05078Q20.7324-7.46094 20.4785-7.71484Q20.2246-7.96875 19.8242-7.96875L15.8691-7.96875L15.8691-11.9141Q15.8691-12.3242 15.6104-12.583Q15.3516-12.8418 14.9512-12.8418Q14.5605-12.8418 14.3115-12.583Q14.0625-12.3242 14.0625-11.9141L14.0625-7.96875L10.1172-7.96875Q9.70703-7.96875 9.45312-7.71484Q9.19922-7.46094 9.19922-7.05078Z"/>
  </g>
  <text style="stroke:none;fill:black;font-family:sans-serif;font-size:13;font-weight:bold;" transform="matrix(1 0 0 1 263 1953)">Design Variations</text>
  <text style="stroke:none;fill:black;font-family:sans-serif;font-size:13;" transform="matrix(1 0 0 1 263 1971)">Symbols are supported in up to nine weights and three scales.</text>
  <text style="stroke:none;fill:black;font-family:sans-serif;font-size:13;" transform="matrix(1 0 0 1 263 1989)">For optimal layout with text and other symbols, vertically align</text>
  <text style="stroke:none;fill:black;font-family:sans-serif;font-size:13;" transform="matrix(1 0 0 1 263 2007)">symbols with the adjacent text.</text>
  <line style="fill:none;stroke:#00AEEF;stroke-width:0.5;opacity:1.0;" x1="776" x2="776" y1="1919" y2="1933"/>
  <g transform="matrix(1 0 0 1 776 1933)">
   <path d="M3.31055 0.15625Q3.70117 0.15625 3.91602-0.00976562Q4.13086-0.175781 4.26758-0.585938L5.52734-4.0332L11.2891-4.0332L12.5488-0.585938Q12.6855-0.175781 12.9004-0.00976562Q13.1152 0.15625 13.4961 0.15625Q13.8867 0.15625 14.1162-0.0585938Q14.3457-0.273438 14.3457-0.644531Q14.3457-0.869141 14.2383-1.17188L9.6582-13.3691Q9.48242-13.8184 9.17969-14.043Q8.87695-14.2676 8.4082-14.2676Q7.5-14.2676 7.17773-13.3789L2.59766-1.16211Q2.49023-0.859375 2.49023-0.634766Q2.49023-0.263672 2.70996-0.0537109Q2.92969 0.15625 3.31055 0.15625ZM6.00586-5.51758L8.37891-12.0898L8.42773-12.0898L10.8008-5.51758Z"/>
  </g>
  <line style="fill:none;stroke:#00AEEF;stroke-width:0.5;opacity:1.0;" x1="793.197" x2="793.197" y1="1919" y2="1933"/>
  <text style="stroke:none;fill:black;font-family:sans-serif;font-size:13;font-weight:bold;" transform="matrix(1 0 0 1 776 1953)">Margins</text>
  <text style="stroke:none;fill:black;font-family:sans-serif;font-size:13;" transform="matrix(1 0 0 1 776 1971)">Leading and trailing margins on the left and right side of each symbol</text>
  <text style="stroke:none;fill:black;font-family:sans-serif;font-size:13;" transform="matrix(1 0 0 1 776 1989)">can be adjusted by modifying the x-location of the margin guidelines.</text>
  <text style="stroke:none;fill:black;font-family:sans-serif;font-size:13;" transform="matrix(1 0 0 1 776 2007)">Modifications are automatically applied proportionally to all</text>
  <text style="stroke:none;fill:black;font-family:sans-serif;font-size:13;" transform="matrix(1 0 0 1 776 2025)">scales and weights.</text>
  <g transform="matrix(1 0 0 1 1289 1933)">
   <path d="M2.8418 1.86523L4.54102 3.57422Q5.18555 4.22852 5.90332 4.17969Q6.62109 4.13086 7.31445 3.35938L18.0078-8.42773L17.041-9.4043L6.42578 2.27539Q6.16211 2.57812 5.89355 2.61719Q5.625 2.65625 5.27344 2.30469L4.10156 1.14258Q3.75 0.791016 3.79395 0.522461Q3.83789 0.253906 4.14062-0.0195312L15.6152-10.8203L14.6387-11.7871L3.04688-0.898438Q2.30469-0.214844 2.25098 0.498047Q2.19727 1.21094 2.8418 1.86523ZM9.25781-16.3281Q8.94531-16.0254 8.90625-15.6348Q8.86719-15.2441 9.04297-14.9512Q9.21875-14.6777 9.55566-14.541Q9.89258-14.4043 10.3809-14.5215Q11.4746-14.7754 12.5977-14.7314Q13.7207-14.6875 14.7949-13.9844L14.209-12.5293Q13.9551-11.9043 14.0674-11.4404Q14.1797-10.9766 14.5801-10.5664L16.875-8.25195Q17.2363-7.88086 17.5781-7.82227Q17.9199-7.76367 18.3398-7.8418L19.4043-8.03711L20.0684-7.36328L20.0293-6.80664Q20-6.43555 20.1221-6.12305Q20.2441-5.81055 20.6055-5.44922L21.3672-4.70703Q21.7285-4.3457 22.1533-4.33105Q22.5781-4.31641 22.9297-4.66797L25.8398-7.58789Q26.1914-7.93945 26.1816-8.35449Q26.1719-8.76953 25.8105-9.13086L25.0391-9.89258Q24.6875-10.2539 24.3799-10.3857Q24.0723-10.5176 23.7109-10.4883L23.1348-10.4395L22.4902-11.0742L22.7344-12.1973Q22.832-12.6172 22.6953-12.9834Q22.5586-13.3496 22.1191-13.7891L19.9219-15.9766Q18.6719-17.2168 17.2607-17.8369Q15.8496-18.457 14.4189-18.4814Q12.9883-18.5059 11.665-17.959Q10.3418-17.4121 9.25781-16.3281ZM10.752-15.957Q11.6602-16.6211 12.7002-16.9043Q13.7402-17.1875 14.8047-17.085Q15.8691-16.9824 16.8701-16.5137Q17.8711-16.0449 18.7012-15.2051L21.1328-12.793Q21.3086-12.6172 21.3525-12.4512Q21.3965-12.2852 21.3379-12.0312L21.0156-10.5469L22.5195-9.0625L23.5059-9.12109Q23.6914-9.13086 23.7891-9.09668Q23.8867-9.0625 24.0332-8.91602L24.6094-8.33984L22.168-5.89844L21.5918-6.47461Q21.4453-6.62109 21.4062-6.71875Q21.3672-6.81641 21.377-7.01172L21.4453-7.98828L19.9512-9.47266L18.4277-9.21875Q18.1836-9.16992 18.042-9.2041Q17.9004-9.23828 17.7148-9.41406L15.7129-11.416Q15.5176-11.5918 15.4932-11.7529Q15.4688-11.9141 15.5859-12.1875L16.4648-14.2773Q15.293-15.3711 13.8281-15.791Q12.3633-16.2109 10.8398-15.7617Q10.7227-15.7324 10.6885-15.8057Q10.6543-15.8789 10.752-15.957Z"/>
  </g>
  <text style="stroke:none;fill:black;font-family:sans-serif;font-size:13;font-weight:bold;" transform="matrix(1 0 0 1 1289 1953)">Exporting</text>
  <text style="stroke:none;fill:black;font-family:sans-serif;font-size:13;" transform="matrix(1 0 0 1 1289 1971)">Symbols should be outlined when exporting to ensure the</text>
  <text style="stroke:none;fill:black;font-family:sans-serif;font-size:13;" transform="matrix(1 0 0 1 1289 1989)">design is preserved when submitting to Xcode.</text>
  <text id="template-version" style="stroke:none;fill:black;font-family:sans-serif;font-size:13;text-anchor:end;" transform="matrix(1 0 0 1 3036 1933)">Template v.3.0</text>
  <text style="stroke:none;fill:black;font-family:sans-serif;font-size:13;text-anchor:end;" transform="matrix(1 0 0 1 3036 1951)">Requires Xcode 13 or greater</text>
  <text id="descriptive-name" style="stroke:none;fill:black;font-family:sans-serif;font-size:13;text-anchor:end;" transform="matrix(1 0 0 1 3036 1969)">Generated from paperclip</text>
  <text style="stroke:none;fill:black;font-family:sans-serif;font-size:13;text-anchor:end;" transform="matrix(1 0 0 1 3036 1987)">Typeset at 100 points</text>
  <text style="stroke:none;fill:black;font-family:sans-serif;font-size:13;" transform="matrix(1 0 0 1 263 726)">Small</text>
  <text style="stroke:none;fill:black;font-family:sans-serif;font-size:13;" transform="matrix(1 0 0 1 263 1156)">Medium</text>
  <text style="stroke:none;fill:black;font-family:sans-serif;font-size:13;" transform="matrix(1 0 0 1 263 1586)">Large</text>
 </g>
 <g id="Guides">
  <g id="H-reference" style="fill:#27AAE1;stroke:none;" transform="matrix(1 0 0 1 339 696)">
   <path d="M0.993347 0L3.6377 0L29.3282-67.1326L30.0301-67.1326L30.0301-70.459L28.1227-70.459ZM11.6882-24.4797L46.9818-24.4797L46.2311-26.7288L12.4382-26.7288ZM55.1193 0L57.7637 0L30.6381-70.459L29.4327-70.459L29.4327-67.1326Z"/>
  </g>
  <line id="Baseline-S" style="fill:none;stroke:#27AAE1;opacity:1;stroke-width:0.5;" x1="263" x2="3036" y1="696" y2="696"/>
  <line id="Capline-S" style="fill:none;stroke:#27AAE1;opacity:1;stroke-width:0.5;" x1="263" x2="3036" y1="625.541" y2="625.541"/>
  <g id="H-reference" style="fill:#27AAE1;stroke:none;" transform="matrix(1 0 0 1 339 1126)">
   <path d="M0.993347 0L3.6377 0L29.3282-67.1326L30.0301-67.1326L30.0301-70.459L28.1227-70.459ZM11.6882-24.4797L46.9818-24.4797L46.2311-26.7288L12.4382-26.7288ZM55.1193 0L57.7637 0L30.6381-70.459L29.4327-70.459L29.4327-67.1326Z"/>
  </g>
  <line id="Baseline-M" style="fill:none;stroke:#27AAE1;opacity:1;stroke-width:0.5;" x1="263" x2="3036" y1="1126" y2="1126"/>
  <line id="Capline-M" style="fill:none;stroke:#27AAE1;opacity:1;stroke-width:0.5;" x1="263" x2="3036" y1="1055.54" y2="1055.54"/>
  <g id="H-reference" style="fill:#27AAE1;stroke:none;" transform="matrix(1 0 0 1 339 1556)">
   <path d="M0.993347 0L3.6377 0L29.3282-67.1326L30.0301-67.1326L30.0301-70.459L28.1227-70.459ZM11.6882-24.4797L46.9818-24.4797L46.2311-26.7288L12.4382-26.7288ZM55.1193 0L57.7637 0L30.6381-70.459L29.4327-70.459L29.4327-67.1326Z"/>
  </g>
  <line id="Baseline-L" style="fill:none;stroke:#27AAE1;opacity:1;stroke-width:0.5;" x1="263" x2="3036" y1="1556" y2="1556"/>
  <line id="Capline-L" style="fill:none;stroke:#27AAE1;opacity:1;stroke-width:0.5;" x1="263" x2="3036" y1="1485.54" y2="1485.54"/>
  <line id="left-margin-Regular-M" style="fill:none;stroke:#00AEEF;stroke-width:0.5;opacity:1.0;" x1="1392.09" x2="1392.09" y1="1030.79" y2="1150.12"/>
  <line id="right-margin-Regular-M" style="fill:none;stroke:#00AEEF;stroke-width:0.5;opacity:1.0;" x1="1507.59" x2="1507.59" y1="1030.79" y2="1150.12"/>
 </g>
 <g id="Symbols">
  <g id="Black-L" transform="matrix(1 0 0 1 2853.5 1556)">
   <path d="M121.19-33.1033L74.1523 13.8555Q68.5468 19.4818 62.092 21.2012Q55.6372 22.9207 49.4158 21.1616Q43.1944 19.4026 38.3944 14.5442Q33.536 9.68573 31.7769 3.49356Q30.0179-2.69861 31.7671-9.15346Q33.5164-15.6083 39.1206-21.2345L104.139-86.2308Q107.067-89.2395 110.895-90.7111Q114.723-92.1827 118.612-91.6398Q122.502-91.0969 125.684-87.9356Q128.866-84.734 129.398-80.8556Q129.93-76.9772 128.428-73.1786Q126.927-69.38 123.998-66.3921L59.3948-1.65083Q58.084-0.319224 56.6958-0.503502Q55.3076-0.68778 54.4273-1.50961Q53.6263-2.38985 53.4823-3.72803Q53.3382-5.06622 54.6478-6.39785L99.4412-51.19Q101.853-53.6602 101.902-56.8497Q101.951-60.0392 99.6216-62.3682Q97.2719-64.6387 94.035-64.6184Q90.7981-64.5982 88.4436-62.1865L43.4137-17.1566Q39.4812-13.2229 38.2245-8.22791Q36.9677-3.23293 38.2048 1.61222Q39.4419 6.45737 42.9907 10.0062Q48.6925 15.7444 56.4389 15.6083Q64.1854 15.4722 70.0952 9.58328L135.132-55.4749Q141.855-62.256 144.126-70.0327Q146.396-77.8094 144.392-85.39Q142.388-92.9706 136.326-99.0333Q130.341-104.96 122.732-106.993Q115.122-109.026 107.256-106.834Q99.3899-104.642 92.6879-97.939L27.1419-32.2357Q18.5086-23.6233 15.7921-13.06Q13.0757-2.4966 15.9119 7.85052Q18.7482 18.1976 26.7445 26.194Q34.7201 34.1696 45.0776 37.0058Q55.4351 39.8421 66.0173 37.136Q76.5994 34.4299 85.2327 25.8551L132.661-21.5731Q134.956-23.8473 134.886-27.4497Q134.817-31.0521 132.467-33.2642Q130.256-35.6347 126.889-35.5347Q123.522-35.4347 121.19-33.1033Z"/>
  </g>
  <g id="Heavy-L" transform="matrix(1 0 0 1 2558.16 1556)">
   <path d="M120.224-32.7036L73.2808 14.1645Q67.575 19.9006 60.9878 21.6318Q54.4006 23.3631 48.0654 21.5473Q41.7301 19.7314 36.8341 14.7908Q31.8935 9.8502 30.0776 3.53724Q28.2618-2.77572 30.0182-9.36291Q31.7746-15.9501 37.4748-21.686L102.057-86.2324Q105.162-89.4176 109.153-90.8768Q113.145-92.3359 117.163-91.6915Q121.18-91.0471 124.423-87.8346Q127.666-84.5674 128.292-80.5677Q128.919-76.568 127.434-72.5986Q125.95-68.6293 122.845-65.4743L58.9263-1.43603Q57.3514 0.169101 55.6629-0.0476987Q53.9744-0.264498 52.8944-1.29976Q51.8894-2.37965 51.7128-4.01567Q51.5362-5.65168 53.1056-7.2569L97.5601-51.7058Q99.7259-53.9162 99.7728-56.769Q99.8197-59.6218 97.7455-61.696Q95.6412-63.7254 92.7617-63.698Q89.8822-63.6707 87.7554-61.5049L43.0821-16.8315Q39.3277-13.0715 38.1278-8.32002Q36.9278-3.56856 38.1032 1.04001Q39.2785 5.64857 42.6497 9.01979Q48.0791 14.4579 55.443 14.3323Q62.8069 14.2068 68.4564 8.58746L132.764-55.75Q139.286-62.3166 141.45-69.8291Q143.615-77.3417 141.662-84.6429Q139.708-91.9442 133.908-97.7443Q128.177-103.431 120.857-105.406Q113.536-107.382 105.933-105.289Q98.331-103.197 91.8392-96.6991L26.7917-31.5076Q18.3641-23.1102 15.7403-12.8469Q13.1165-2.58361 15.8907 7.44113Q18.665 17.4659 26.412 25.2129Q34.1288 32.9298 44.1686 35.704Q54.2084 38.4783 64.479 35.8695Q74.7495 33.2608 83.1771 24.8779L130.466-22.411Q132.543-24.4574 132.48-27.6685Q132.418-30.8795 130.313-32.8644Q128.334-34.999 125.322-34.894Q122.309-34.789 120.224-32.7036Z"/>
  </g>
  <g id="Bold-L" transform="matrix(1 0 0 1 2263.18 1556)">
   <path d="M119.1-32.2564L72.1453 14.6306Q66.3166 20.4975 59.568 22.2367Q52.8193 23.9759 46.3419 22.087Q39.8645 20.1982 34.8531 15.1578Q29.8126 10.1172 27.9238 3.65435Q26.035-2.80846 27.7955-9.55707Q29.5559-16.3057 35.3714-22.1723L99.4603-86.21Q102.803-89.6329 107.002-91.0581Q111.201-92.4832 115.368-91.6971Q119.536-90.911 122.833-87.6519Q126.13-84.3301 126.891-80.188Q127.651-76.046 126.205-71.8616Q124.759-67.6772 121.416-64.2924L58.2604-1.04051Q56.3553 0.902709 54.2867 0.654881Q52.2181 0.407053 50.8772-0.904431Q49.6038-2.24512 49.3962-4.26113Q49.1886-6.27714 51.0806-8.22058L95.2765-52.4032Q97.135-54.2909 97.1744-56.7176Q97.2138-59.1442 95.4621-60.8959Q93.6726-62.6181 91.2423-62.5868Q88.8121-62.5555 86.9696-60.6969L42.5853-16.3127Q39.0462-12.7602 37.9192-8.31598Q36.7922-3.87173 37.8944 0.437388Q38.9967 4.74651 42.1451 7.89494Q47.2215 12.9491 54.1054 12.8501Q60.9892 12.751 66.3235 7.45474L129.806-56.0659Q136.082-62.371 138.098-69.5532Q140.113-76.7355 138.214-83.676Q136.314-90.6166 130.867-96.0642Q125.473-101.428 118.525-103.342Q111.576-105.256 104.308-103.301Q97.0395-101.347 90.8014-95.0953L26.3464-30.519Q18.165-22.3757 15.6676-12.4962Q13.1702-2.61673 15.8751 6.98985Q18.58 16.5964 25.9972 24.0137Q33.3764 31.393 43.0019 34.0979Q52.6274 36.8027 62.5025 34.3243Q72.3776 31.8459 80.5591 23.6937L127.783-23.5303Q129.583-25.2926 129.529-28.0083Q129.474-30.724 127.684-32.4173Q126.004-34.2449 123.441-34.1397Q120.878-34.0346 119.1-32.2564Z"/>
  </g>
  <g id="Semibold-L" transform="matrix(1 0 0 1 1967.65 1556)">
   <path d="M118.325-31.9482L71.3625 14.9519Q65.449 20.909 58.5891 22.6536Q51.7292 24.3983 45.1538 22.4592Q38.5784 20.5201 33.4874 15.4108Q28.3781 10.3012 26.439 3.73509Q24.4999-2.83103 26.2631-9.69093Q28.0264-16.5508 33.9213-22.5076L97.6702-86.1946Q101.177-89.7814 105.518-91.1831Q109.86-92.5847 114.131-91.701Q118.403-90.8172 121.737-87.5259Q125.072-84.1665 125.925-79.9263Q126.778-75.6861 125.357-71.3535Q123.937-67.0208 120.431-63.4776L57.8014-0.767835Q55.6686 1.40845 53.338 1.13924Q51.0073 0.870016 49.4865-0.631891Q48.0282-2.15237 47.7991-4.43035Q47.5701-6.70833 49.6846-8.88493L93.7022-52.8839Q95.3489-54.5492 95.3831-56.6821Q95.4173-58.8149 93.8879-60.3443Q92.3154-61.8548 90.1949-61.8207Q88.0743-61.7866 86.4279-60.1399L42.2429-15.9549Q38.8522-12.5456 37.7754-8.31319Q36.6986-4.08074 37.7505 0.021946Q38.8024 4.12464 41.7973 7.11947Q46.6304 11.909 53.1832 11.8282Q59.736 11.7474 64.8531 6.67385L127.767-56.2837Q133.874-62.4085 135.786-69.363Q137.699-76.3176 135.837-83.0094Q133.975-89.7013 128.77-94.9059Q123.609-100.048 116.917-101.919Q110.225-103.791 103.187-101.931Q96.1491-100.071 90.086-93.9896L26.0394-29.8375Q18.0277-21.8693 15.6175-12.2544Q13.2073-2.63956 15.8643 6.67873Q18.5213 15.997 25.7112 23.1869Q32.8576 30.3336 42.1975 32.9906Q51.5374 35.6477 61.14 33.2591Q70.7425 30.8705 78.7542 22.8773L125.934-24.3019Q127.543-25.8683 127.494-28.2425Q127.444-30.6168 125.871-32.109Q124.398-33.7251 122.144-33.6198Q119.891-33.5145 118.325-31.9482Z"/>
  </g>
  <g id="Medium-L" transform="matrix(1 0 0 1 1671.84 1556)">
   <path d="M117.737-31.7144L70.769 15.1956Q64.7912 21.221 57.8469 22.9698Q50.9026 24.7186 44.2529 22.7413Q37.6032 20.7641 32.4519 15.6026Q27.2904 10.4407 25.3132 3.7963Q23.3359-2.84814 25.1013-9.79243Q26.8666-16.7367 32.8218-22.7618L96.3128-86.1829Q99.9434-89.8939 104.394-91.2778Q108.844-92.6617 113.193-91.7039Q117.543-90.7461 120.906-87.4304Q124.269-84.0425 125.192-79.7279Q126.115-75.4133 124.715-70.9682Q123.314-66.5231 119.684-62.8598L57.4533-0.561084Q55.1479 1.79193 52.6186 1.50649Q50.0893 1.22105 48.4321-0.425239Q46.8334-2.08205 46.5882-4.55866Q46.343-7.03528 48.6261-9.38867L92.5085-53.2485Q93.9946-54.7451 94.0249-56.6552Q94.0551-58.5653 92.6943-59.9261Q91.2863-61.276 89.4006-61.2398Q87.515-61.2037 86.0171-59.7176L41.9832-15.6837Q38.7051-12.3829 37.6664-8.31108Q36.6277-4.23922 37.6414-0.29306Q38.6551 3.6531 41.5335 6.53148Q46.1821 11.1203 52.484 11.0534Q58.7859 10.9864 63.7382 6.08174L126.221-56.4488Q132.199-62.4369 134.034-69.2188Q135.868-76.0007 134.034-82.504Q132.2-89.0073 127.181-94.0276Q122.196-99.0015 115.698-100.84Q109.201-102.679 102.337-100.892Q95.4739-99.1043 89.5436-93.1513L25.8067-29.3207Q17.9236-21.4853 15.5795-12.0711Q13.2354-2.65687 15.8561 6.44283Q18.4769 15.5425 25.4944 22.5601Q32.4643 29.5303 41.5876 32.1511Q50.711 34.7718 60.1068 32.4513Q69.5026 30.1309 77.3857 22.2583L124.531-24.887Q125.997-26.3048 125.951-28.4202Q125.906-30.5355 124.497-31.8753Q123.18-33.331 121.161-33.2255Q119.142-33.1201 117.737-31.7144Z"/>
  </g>
  <g id="Regular-L" transform="matrix(1 0 0 1 1376.31 1556)">
   <path d="M116.971-31.4095L69.9948 15.5133Q63.9332 21.628 56.8788 23.3822Q49.8245 25.1363 43.0779 23.1094Q36.3312 21.0824 31.1012 15.8528Q25.8716 10.6228 23.8446 3.87615Q21.8177-2.87046 23.5858-9.92481Q25.3539-16.9792 31.3877-23.0934L94.5424-86.1677Q98.335-90.0407 102.927-91.4014Q107.518-92.7621 111.97-91.7077Q116.422-90.6533 119.822-87.3059Q123.223-83.8807 124.237-79.4691Q125.251-75.0574 123.876-70.4656Q122.502-65.8739 118.709-62.0539L56.9993-0.291409Q54.4687 2.29212 51.6803 1.98552Q48.8918 1.67893 47.0567-0.155694Q45.2751-1.99032 45.0087-4.72603Q44.7423-7.46173 47.2454-10.0457L90.9515-53.7239Q92.2281-55.0006 92.2533-56.6201Q92.2784-58.2396 91.1375-59.3805Q89.944-60.521 88.3647-60.4822Q86.7854-60.4433 85.4813-59.1667L41.6446-15.3299Q38.5132-12.1707 37.5242-8.30833Q36.5352-4.44593 37.4991-0.703937Q38.463 3.03806 41.1895 5.76454Q45.5974 10.0916 51.572 10.0427Q57.5465 9.99387 62.2839 5.30943L124.205-56.6642Q130.015-62.474 131.747-69.0307Q133.48-75.5874 131.683-81.8448Q129.886-88.1022 125.107-92.8821Q120.352-97.6363 114.108-99.4332Q107.865-101.23 101.229-99.5365Q94.5933-97.843 88.836-92.0578L25.5031-28.6467Q17.7878-20.9845 15.5299-11.832Q13.272-2.67945 15.8455 6.13514Q18.4189 14.9497 25.2116 21.7424Q31.9513 28.4825 40.7921 31.056Q49.633 33.6294 58.7592 31.3978Q67.8855 29.1662 75.6007 21.4509L122.702-25.6502Q123.979-26.8742 123.939-28.6519Q123.898-30.4295 122.705-31.5704Q121.591-32.8168 119.879-32.7113Q118.166-32.6058 116.971-31.4095Z"/>
  </g>
  <g id="Light-L" transform="matrix(1 0 0 1 1080.96 1556)">
   <path d="M116.665-31.4095L68.8498 16.3721Q62.7118 22.5441 55.562 24.2601Q48.4123 25.9761 41.5607 23.8823Q34.709 21.7885 29.4216 16.5018Q24.1349 11.2144 22.0411 4.36275Q19.9473-2.48888 21.6869-9.63863Q23.4264-16.7884 29.5173-22.9597L92.6339-85.9958Q96.7128-90.1552 101.476-91.3727Q106.239-92.5903 110.739-91.3355Q115.239-90.0806 118.543-86.8095Q121.849-83.5181 123.063-79.0588Q124.278-74.5995 123.037-69.8359Q121.796-65.0723 117.717-60.947L55.9876 0.815494Q53.2092 3.62797 50.1058 3.35953Q47.0025 3.0911 44.9 0.989367Q42.8323-1.11236 42.6041-4.18203Q42.3759-7.2517 45.1079-10.065L89.6727-54.5827Q90.7204-55.6303 90.7074-56.8968Q90.6943-58.1633 89.8205-59.0371Q88.9134-59.9101 87.6871-59.9Q86.4609-59.8899 85.3669-58.8422L40.7477-14.223Q37.7308-11.1591 36.8085-7.54485Q35.8862-3.93064 36.8215-0.43667Q37.7569 3.0573 40.3115 5.6119Q44.376 9.59524 49.9783 9.65138Q55.5806 9.70752 60.1464 5.17572L122.01-56.7216Q127.667-62.3784 129.18-68.6871Q130.694-74.9958 128.878-80.9096Q127.062-86.8234 122.702-91.1835Q118.329-95.5559 112.439-97.3719Q106.548-99.1879 100.189-97.6852Q93.8299-96.1826 88.2063-90.5119L25.1215-27.4061Q17.5207-19.8394 15.4251-11.0305Q13.3294-2.22155 15.9029 6.18276Q18.4763 14.5871 24.9063 21.0171Q31.3023 27.4138 39.7232 29.9872Q48.1442 32.5607 56.9365 30.4817Q65.7287 28.4027 73.3295 20.8019L121.08-26.9478Q122.128-27.9622 122.088-29.3294Q122.047-30.6966 121.139-31.5704Q120.313-32.5116 118.972-32.4442Q117.632-32.3768 116.665-31.4095Z"/>
  </g>
  <g id="Thin-L" transform="matrix(1 0 0 1 786.055 1556)">
   <path d="M116.262-31.4095L67.3353 17.5078Q61.0964 23.7558 53.8205 25.4213Q46.5446 27.0868 39.5541 24.9046Q32.5636 22.7223 27.2002 17.3602Q21.838 11.9968 19.6558 5.00631Q17.4736-1.98421 19.1754-9.26012Q20.8772-16.536 27.0435-22.7828L90.1097-85.7685Q94.5673-90.3066 99.5576-91.3348Q104.548-92.363 109.111-90.8431Q113.674-89.3232 116.852-86.153Q120.031-83.0384 121.511-78.5162Q122.991-73.9939 121.926-69.003Q120.862-64.012 116.404-59.483L54.6496 2.27946Q51.5434 5.39474 48.0235 5.17677Q44.5037 4.9588 42.0475 2.5038Q39.6016 0.0488028 39.4238-3.46256Q39.2461-6.97392 42.2809-10.0904L87.9814-55.7184Q88.7263-56.4633 88.6628-57.2628Q88.5993-58.0624 88.0788-58.5829Q87.5504-59.1022 86.791-59.1301Q86.0317-59.1579 85.2155-58.413L39.5615-12.7591Q36.6961-9.82104 35.8619-6.53508Q35.0278-3.24912 35.9254-0.0831886Q36.8231 3.08275 39.1503 5.41004Q42.7607 8.93874 47.8706 9.13377Q52.9804 9.32881 57.3194 4.99887L119.107-56.7975Q124.563-62.2521 125.785-68.2327Q127.008-74.2133 125.167-79.6727Q123.326-85.1321 119.522-88.9371Q115.654-92.8044 110.23-94.6456Q104.806-96.4868 98.8131-95.2367Q92.8201-93.9867 87.3733-88.4673L24.6169-25.7653Q17.1675-18.325 15.2864-9.97045Q13.4054-1.61595 15.9788 6.24574Q18.5522 14.1074 24.5026 20.0578Q30.4439 26.0003 38.3095 28.5737Q46.1751 31.1472 54.5257 29.27Q62.8763 27.3929 70.3257 19.9435L118.935-28.6642Q119.679-29.4012 119.639-30.2255Q119.599-31.0498 119.069-31.5704Q118.621-32.1078 117.773-32.0909Q116.925-32.074 116.262-31.4095Z"/>
  </g>
  <g id="Ultralight-L" transform="matrix(1 0 0 1 490.268 1556)">
   <path d="M116.055-31.4095L66.5596 18.0895Q60.269 24.3764 52.9285 26.016Q45.588 27.6557 38.5263 25.4282Q31.4646 23.2006 26.0624 17.7998Q20.6616 12.3976 18.4341 5.33594Q16.2065-1.72572 17.889-9.06626Q19.5715-16.4068 25.7765-22.6922L88.8168-85.6521Q93.4684-90.3841 98.575-91.3153Q103.682-92.2465 108.277-90.5909Q112.873-88.9353 115.986-85.8167Q119.101-82.7928 120.716-78.2382Q122.332-73.6837 121.358-68.5763Q120.384-63.469 115.732-58.7332L53.9643 3.0293Q50.6901 6.29967 46.957 6.10755Q43.2239 5.91543 40.5865 3.27949Q37.9468 0.643547 37.7949-3.09405Q37.643-6.83164 40.8329-10.1034L87.1152-56.3001Q87.705-56.8899 87.6156-57.4503Q87.5263-58.0107 87.1867-58.3503Q86.8523-58.6884 86.3321-58.7357Q85.8119-58.783 85.1379-58.1932L38.9539-12.0092Q36.166-9.13572 35.3771-6.01789Q34.5882-2.90005 35.4665 0.0978629Q36.3447 3.09578 38.5556 5.30664Q41.9333 8.60249 46.791 8.86866Q51.6487 9.13483 55.8715 4.90829L117.62-56.8363Q122.972-62.1873 124.046-68Q125.121-73.8126 123.267-79.0392Q121.412-84.2658 117.893-87.7865Q114.283-91.3951 109.099-93.2492Q103.914-95.1034 98.1085-93.9826Q92.3029-92.8619 86.9467-87.4201L24.3584-24.9249Q16.9865-17.5493 15.2154-9.42752Q13.4442-1.30576 16.0177 6.27799Q18.5911 13.8617 24.2958 19.5664Q30.0042 25.2763 37.5854 27.8497Q45.1666 30.4232 53.2909 28.6495Q61.4153 26.8757 68.7871 19.5039L117.836-29.5432Q118.425-30.1382 118.385-30.6845Q118.345-31.2308 118.009-31.5704Q117.755-31.901 117.159-31.91Q116.563-31.9189 116.055-31.4095Z"/>
  </g>
  <g id="Black-M" transform="matrix(1 0 0 1 2870.51 1126)">
   <path d="M94.6806-33.9258L58.0427 2.64954Q53.7759 6.92186 48.8758 8.23864Q43.9758 9.55542 39.2395 8.23238Q34.5032 6.90935 30.8592 3.20818Q27.158-0.492987 25.835-5.20074Q24.5119-9.90849 25.8571-14.8085Q27.2023-19.7085 31.4694-23.9809L82.2114-74.7177Q84.3672-76.9358 87.2153-78.0672Q90.0633-79.1986 92.9729-78.8381Q95.8825-78.4775 98.2827-76.0828Q100.683-73.6768 101.041-70.7698Q101.399-67.8628 100.239-65.0433Q99.0792-62.2238 96.9234-60.0112L46.2812-9.24933Q45.459-8.42173 44.599-8.53138Q43.7389-8.64103 43.1923-9.13049Q42.7084-9.67705 42.6299-10.5031Q42.5514-11.3291 43.3738-12.1567L78.4847-47.2679Q80.5335-49.3738 80.5678-52.0864Q80.6021-54.799 78.615-56.7861Q76.6224-58.7161 73.8554-58.7105Q71.0883-58.7049 69.0968-56.656L33.7979-21.3571Q30.6136-18.1731 29.6002-14.1276Q28.5868-10.0822 29.5945-6.15868Q30.6021-2.23521 33.4809 0.643572Q38.0859 5.30049 44.3657 5.20027Q50.6454 5.10005 55.4244 0.32656L106.431-50.6857Q111.791-56.1031 113.612-62.3214Q115.432-68.5397 113.833-74.6063Q112.235-80.6729 107.369-85.5387Q102.566-90.2845 96.4707-91.9119Q90.3754-93.5392 84.0917-91.7816Q77.8081-90.0239 72.4533-84.6694L21.2772-33.3678Q14.4274-26.5235 12.2652-18.1283Q10.1029-9.73313 12.3536-1.4953Q14.6043 6.74252 20.9646 13.1028Q27.3193 19.4576 35.5599 21.7082Q43.8005 23.9589 52.2215 21.7994Q60.6425 19.6399 67.4923 12.8472L104.445-24.1051Q106.379-26.0342 106.32-29.1059Q106.26-32.1775 104.267-34.0504Q102.394-36.0485 99.5306-35.9804Q96.6672-35.9123 94.6806-33.9258Z"/>
  </g>
  <g id="Heavy-M" transform="matrix(1 0 0 1 2575.01 1126)">
   <path d="M93.7639-33.535L57.2964 2.87238Q52.9385 7.24671 47.9179 8.57859Q42.8973 9.91047 38.0594 8.53806Q33.2214 7.16564 29.4888 3.38945Q25.7126-0.386779 24.3402-5.20292Q22.9678-10.0191 24.3226-15.0397Q25.6774-20.0603 30.0331-24.4346L80.3523-74.7351Q82.6542-77.0993 85.6465-78.2318Q88.6388-79.3642 91.6693-78.9229Q94.6999-78.4817 97.1682-76.0298Q99.6365-73.5473 100.068-70.5262Q100.5-67.505 99.345-64.5345Q98.1896-61.564 95.8876-59.2162L45.9165-9.14146Q44.8591-8.0676 43.7345-8.21256Q42.6099-8.35752 41.8928-9.03099Q41.2358-9.74808 41.1219-10.8345Q41.0081-11.9208 42.0633-12.9947L76.7637-47.6929Q78.5933-49.566 78.6292-51.982Q78.6652-54.398 76.9025-56.1607Q75.1234-57.8797 72.6731-57.8644Q70.2228-57.8492 68.4347-56.0197L33.5564-21.1414Q30.5358-18.1184 29.5717-14.2881Q28.6077-10.4578 29.5576-6.74272Q30.5075-3.02765 33.2285-0.306633Q37.5989 4.08864 43.5391 3.98901Q49.4792 3.88938 54.0196-0.634585L104.318-50.9494Q109.496-56.1711 111.233-62.1541Q112.97-68.1371 111.423-73.9623Q109.875-79.7874 105.228-84.4353Q100.638-88.9817 94.7917-90.551Q88.9458-92.1203 82.8946-90.4421Q76.8434-88.7639 71.6817-83.5999L20.9701-32.7704Q14.3108-26.1276 12.2242-17.994Q10.1376-9.86043 12.3276-1.8999Q14.5177 6.06062 20.6676 12.2106Q26.8012 18.3442 34.7699 20.5342Q42.7386 22.7243 50.8858 20.6459Q59.033 18.5675 65.6923 11.9518L102.449-24.8044Q104.191-26.5303 104.138-29.2573Q104.085-31.9842 102.306-33.6597Q100.633-35.4551 98.0819-35.3787Q95.5311-35.3023 93.7639-33.535Z"/>
  </g>
  <g id="Bold-M" transform="matrix(1 0 0 1 2279.66 1126)">
   <path d="M92.7384-33.0979L56.4616 3.12165Q52.0018 7.61011 46.8463 8.95888Q41.6908 10.3076 36.7392 8.87999Q31.7875 7.45234 27.9558 3.59223Q24.0957-0.267971 22.6681-5.20537Q21.2404-10.1428 22.606-15.2982Q23.9717-20.4537 28.4263-24.9421L78.2725-74.7545Q80.7379-77.2823 83.8917-78.4159Q87.0454-79.5495 90.2112-79.0179Q93.377-78.4863 95.9214-75.9704Q98.4659-73.4025 98.9806-70.2537Q99.4953-67.1048 98.3449-63.9653Q97.1944-60.8258 94.729-58.3268L45.5087-9.02079Q44.188-7.67145 42.7675-7.85591Q41.347-8.04037 40.4391-8.91968Q39.5884-9.82753 39.4351-11.2051Q39.2818-12.5827 40.5974-13.9322L74.8387-48.1682Q76.4228-49.781 76.4606-51.8652Q76.4984-53.9495 74.9868-55.4611Q73.4466-56.944 71.3506-56.918Q69.2547-56.892 67.694-55.3078L33.2864-20.9002Q30.4486-18.0573 29.5398-14.4676Q28.631-10.878 29.5163-7.39604Q30.4017-3.9141 32.9462-1.36957Q37.0541 2.73301 42.6144 2.63405Q48.1747 2.53508 52.4482-1.70976L101.954-51.2444Q106.929-56.2472 108.572-61.967Q110.216-67.6867 108.726-73.2418Q107.236-78.7969 102.832-83.201Q98.4803-87.5244 92.9135-89.0287Q87.3466-90.533 81.5555-88.9437Q75.7643-87.3544 70.8186-82.4035L20.6265-32.1022Q14.1803-25.6847 12.1783-17.8437Q10.1763-10.0028 12.2985-2.35251Q14.4207 5.29782 20.3355 11.2126Q26.2216 17.0987 33.8862 19.221Q41.5508 21.3432 49.3917 19.3555Q57.2326 17.3678 63.6788 10.9501L100.216-25.5868Q101.743-27.0853 101.697-29.4266Q101.652-31.768 100.112-33.2225Q98.6624-34.7914 96.4613-34.7056Q94.2601-34.6198 92.7384-33.0979Z"/>
  </g>
  <g id="Semibold-M" transform="matrix(1 0 0 1 1983.88 1126)">
   <path d="M92.0314-32.7966L55.886 3.29351Q51.356 7.86063 46.1076 9.22104Q40.8591 10.5815 35.829 9.11572Q30.799 7.64999 26.899 3.73202Q22.9811-0.186066 21.5153-5.20705Q20.0496-10.228 21.4227-15.4765Q22.7957-20.725 27.3186-25.292L76.8387-74.768Q79.4169-77.4084 82.6819-78.5428Q85.9468-79.6772 89.2059-79.0833Q92.465-78.4895 95.0618-75.9296Q97.6589-73.3027 98.2307-70.0658Q98.8025-66.8289 97.6554-63.5729Q96.5084-60.317 93.9302-57.7136L45.2275-8.93761Q43.7253-7.39834 42.1009-7.61004Q40.4764-7.82173 39.4369-8.84294Q38.4528-9.88231 38.2722-11.4607Q38.0917-13.039 39.5868-14.5784L73.5115-48.496Q74.9266-49.9292 74.9656-51.7847Q75.0046-53.6402 73.6661-54.9788Q72.2905-56.299 70.4389-56.2655Q68.5873-56.2321 67.1834-54.817L33.1002-20.7338Q30.3886-18.0151 29.5178-14.5914Q28.6471-11.1677 29.4879-7.84644Q30.3287-4.52521 32.7516-2.10236Q36.6785 1.79845 41.9769 1.69994Q47.2754 1.60143 51.3649-2.45099L100.325-51.4478Q105.158-56.2997 106.738-61.8379Q108.318-67.3761 106.867-72.7451Q105.417-78.114 101.181-82.35Q96.9931-86.5197 91.6186-87.9792Q86.2441-89.4387 80.6322-87.9107Q75.0203-86.3827 70.2235-81.5788L20.3896-31.6415Q14.0904-25.3793 12.1467-17.7402Q10.203-10.101 12.2785-2.66453Q14.3539 4.77195 20.1065 10.5245Q25.822 16.2401 33.277 18.3156Q40.7319 20.391 48.3617 18.4659Q55.9914 16.5407 62.2907 10.2596L98.6765-26.1261Q100.055-27.4679 100.015-29.5434Q99.9748-31.619 98.5991-32.9212Q97.3041-34.3338 95.344-34.2415Q93.384-34.1493 92.0314-32.7966Z"/>
  </g>
  <g id="Medium-M" transform="matrix(1 0 0 1 1687.88 1126)">
   <path d="M91.4953-32.5681L55.4497 3.42381Q50.8664 8.05059 45.5474 9.41983Q40.2284 10.7891 35.1389 9.29446Q30.0494 7.79985 26.0977 3.83802Q22.1359-0.123962 20.6413-5.20833Q19.1467-10.2927 20.5254-15.6117Q21.9041-20.9306 26.4787-25.5573L75.7516-74.7781Q78.4152-77.5041 81.7645-78.6391Q85.1139-79.7741 88.4437-79.133Q91.7734-78.4919 94.4101-75.8985Q97.0469-73.227 97.662-69.9233Q98.2771-66.6197 97.1326-63.2754Q95.9882-59.9311 93.3245-57.2487L45.0143-8.87453Q43.3745-7.19126 41.5954-7.42361Q39.8162-7.65595 38.677-8.78476Q37.5917-9.92384 37.3905-11.6544Q37.1893-13.385 38.8205-15.0684L72.5052-48.7445Q73.792-50.0415 73.832-51.7236Q73.872-53.4057 72.6647-54.613Q71.414-55.8099 69.7476-55.7708Q68.0813-55.7317 66.7962-54.4449L32.959-20.6077Q30.3431-17.9831 29.5012-14.6852Q28.6593-11.3873 29.4663-8.18795Q30.2734-4.98858 32.604-2.65799Q36.3937 1.08982 41.4936 0.991662Q46.5934 0.893503 50.5435-3.01301L99.0889-51.602Q103.816-56.3395 105.347-61.7401Q106.878-67.1407 105.458-72.3685Q104.037-77.5962 99.929-81.7048Q95.8655-85.7579 90.6369-87.1834Q85.4082-88.609 79.9322-87.1275Q74.4563-85.6459 69.7724-80.9534L20.21-31.2921Q14.0222-25.1478 12.1227-17.6616Q10.2233-10.1754 12.2633-2.90112Q14.3033 4.37321 19.9329 10.0028Q25.519 15.5891 32.815 17.6291Q40.111 19.6691 47.5807 17.7913Q55.0503 15.9136 61.2382 9.73598L97.5093-26.5351Q98.7756-27.758 98.7393-29.6319Q98.703-31.5059 97.4522-32.6927Q96.2741-33.9868 94.4969-33.8897Q92.7197-33.7926 91.4953-32.5681Z"/>
  </g>
  <g id="Regular-M" transform="matrix(1 0 0 1 1392.09 1126)">
   <path d="M90.7961-32.27L54.8804 3.59377Q50.2277 8.29836 44.8168 9.67912Q39.4058 11.0599 34.2388 9.5276Q29.0717 7.99533 25.0525 3.97628Q21.0335-0.0429561 19.5012-5.21Q17.9689-10.377 19.355-15.788Q20.7411-21.1989 25.3832-25.9033L74.3336-74.7914Q77.1087-77.6288 80.568-78.7646Q84.0274-79.9004 87.4494-79.1977Q90.8715-78.495 93.56-75.8581Q96.2488-73.1283 96.9203-69.7375Q97.5919-66.3468 96.4508-62.8873Q95.3097-59.4278 92.5346-56.6423L44.7362-8.79226Q42.917-6.92116 40.936-7.18044Q38.9551-7.43971 37.6858-8.70886Q36.4685-9.97801 36.2404-11.9072Q36.0123-13.8363 37.8211-15.7076L71.1927-49.0686Q72.3122-50.1881 72.3534-51.644Q72.3946-53.0999 71.3585-54.136Q70.2707-55.172 68.8459-55.1255Q67.4212-55.0791 66.2912-53.9596L32.7749-20.4432Q30.2837-17.9414 29.4794-14.8076Q28.6752-11.6738 29.4382-8.6334Q30.2013-5.59298 32.4115-3.38272Q36.0222 0.165527 40.8631 0.0678214Q45.704-0.0298843 49.472-3.74609L97.4772-51.8031Q102.066-56.3914 103.533-61.6125Q105.001-66.8336 103.619-71.8772Q102.238-76.9209 98.2958-80.8632Q94.3947-84.7642 89.3563-86.1455Q84.3178-87.5267 79.0192-86.1058Q73.7205-84.6849 69.1839-80.1377L19.9758-30.8365Q13.9332-24.8458 12.0914-17.5592Q10.2497-10.2725 12.2435-3.20971Q14.2372 3.85312 19.7064 9.32235Q25.1238 14.7399 32.2125 16.7337Q39.3012 18.7274 46.5619 16.9115Q53.8227 15.0956 59.8653 9.05302L95.987-27.0685Q97.1065-28.1363 97.0753-29.7474Q97.0442-31.3585 95.9562-32.3946Q94.9307-33.5343 93.3919-33.4308Q91.8531-33.3272 90.7961-32.27Z"/>
  </g>
  <g id="Light-M" transform="matrix(1 0 0 1 1096.61 1126)">
   <path d="M90.5224-32.27L53.8538 4.36366Q49.1327 9.1197 43.6362 10.4662Q38.1397 11.8128 32.8786 10.2206Q27.6174 8.62837 23.5467 4.55814Q19.4764 0.487453 17.8842-4.77374Q16.292-10.0349 17.6525-15.5314Q19.013-21.0279 23.7063-25.7834L72.6225-74.6373Q75.6543-77.7314 79.2676-78.7389Q82.8809-79.7463 86.3458-78.8639Q89.8106-77.9816 92.4136-75.4131Q95.0169-72.8032 95.8681-69.3697Q96.7194-65.9362 95.698-62.3227Q94.6766-58.7091 91.6448-55.6499L43.8292-7.79987Q41.7877-5.7235 39.5245-5.94857Q37.2613-6.17363 35.7522-7.68226Q34.2784-9.19088 34.0845-11.4195Q33.8906-13.648 35.9047-15.7249L70.0462-49.8385Q70.9604-50.7527 70.9674-51.8921Q70.9744-53.0315 70.1778-53.8281Q69.3467-54.6243 68.2385-54.6036Q67.1303-54.5829 66.1886-53.6686L31.9708-19.4508Q29.5822-17.0344 28.8378-14.1231Q28.0933-11.2118 28.8308-8.39378Q29.5682-5.57573 31.6244-3.51956Q34.9272-0.279499 39.4343-0.283053Q43.9414-0.286608 47.5557-3.86597L95.5094-51.8546Q99.961-56.3057 101.232-61.3045Q102.502-66.3032 101.104-71.0388Q99.7056-75.7744 96.14-79.3404Q92.5809-82.899 87.8591-84.2974Q83.1372-85.6957 78.0866-84.446Q73.036-83.1963 68.6193-78.7517L19.6337-29.7242Q13.6937-23.8192 11.9974-16.8406Q10.3012-9.86201 12.2949-3.16702Q14.2887 3.52798 19.4327 8.67206Q24.542 13.7817 31.2542 15.7755Q37.9664 17.7692 44.9277 16.0902Q51.8891 14.4111 57.829 8.47115L94.5326-28.2319Q95.4469-29.1118 95.4157-30.3549Q95.3845-31.598 94.553-32.3946Q93.7843-33.2606 92.5791-33.1913Q91.3739-33.122 90.5224-32.27Z"/>
  </g>
  <g id="Thin-M" transform="matrix(1 0 0 1 801.514 1126)">
   <path d="M90.1604-32.27L52.4961 5.38189Q47.6844 10.206 42.0748 11.5073Q36.4652 12.8086 31.0795 11.1371Q25.6938 9.46562 21.5551 5.32771Q17.4172 1.18896 15.7457-4.19675Q14.0742-9.58247 15.4008-15.1921Q16.7275-20.8016 21.4884-25.6249L70.3594-74.4335Q73.7307-77.8672 77.5477-78.7048Q81.3646-79.5425 84.8861-78.4225Q88.4076-77.3025 90.8972-74.8245Q93.3877-72.3731 94.4765-68.8832Q95.5654-65.3933 94.7024-61.5759Q93.8394-57.7586 90.468-54.3373L42.6296-6.48734Q40.2942-4.1395 37.6576-4.31932Q35.021-4.49914 33.1948-6.32449Q31.3819-8.14983 31.2333-10.7744Q31.0846-13.399 33.3701-15.7477L68.5298-50.8567Q69.1726-51.4995 69.1344-52.2202Q69.0961-52.941 68.6162-53.4209Q68.1247-53.9 67.4351-53.9133Q66.7455-53.9266 66.0528-53.2838L30.9073-18.1383Q28.6545-15.8348 27.9891-13.2178Q27.3238-10.6008 28.0274-8.07686Q28.731-5.55291 30.5833-3.70055Q33.4789-0.868081 37.5446-0.747113Q41.6103-0.626146 45.0211-4.02452L92.9068-51.9226Q97.1774-56.1924 98.1878-60.897Q99.1982-65.6017 97.7772-69.9299Q96.3562-74.2581 93.2887-77.3264Q90.1821-80.4322 85.8789-81.8531Q81.5756-83.2741 76.8531-82.2508Q72.1307-81.2275 67.8725-76.9187L19.1812-28.2532Q13.377-22.4614 11.8731-15.8902Q10.3692-9.31906 12.363-3.11056Q14.3567 3.09795 19.0708 7.812Q23.7724 12.5145 29.9867 14.5082Q36.201 16.502 42.7664 15.0039Q49.3317 13.5058 55.1359 7.70159L92.6091-29.7707Q93.2518-30.4019 93.2207-31.1583Q93.1895-31.9147 92.6972-32.3946Q92.2679-32.8986 91.504-32.8746Q90.7401-32.8505 90.1604-32.27Z"/>
  </g>
  <g id="Ultralight-M" transform="matrix(1 0 0 1 505.632 1126)">
   <path d="M89.975-32.27L51.8006 5.90342Q46.9426 10.7624 41.2751 12.0405Q35.6076 13.3186 30.1581 11.6065Q24.7086 9.89445 20.535 5.72188Q16.3624 1.54827 14.6503-3.90122Q12.9382-9.35072 14.2475-15.0182Q15.5569-20.6858 20.3525-25.5437L69.2002-74.3291Q72.7455-77.9367 76.6667-78.6874Q80.588-79.4381 84.1385-78.1964Q87.689-76.9547 90.1206-74.523Q92.5532-72.1529 93.7638-68.634Q94.9743-65.1152 94.1924-61.1934Q93.4105-57.2717 89.8653-53.6651L42.0152-5.81507Q39.5292-3.32818 36.7014-3.48482Q33.8736-3.64147 31.8849-5.62904Q29.8983-7.61662 29.7728-10.444Q29.6473-13.2714 32.0719-15.7594L67.7532-51.3782Q68.2569-51.882 68.1955-52.3883Q68.1341-52.8946 67.8164-53.2123Q67.4988-53.529 67.0236-53.5597Q66.5484-53.5905 65.9833-53.0868L30.3626-17.4661Q28.1793-15.2204 27.5544-12.7541Q26.9296-10.2879 27.6159-7.91454Q28.3021-5.54123 30.0501-3.79325Q32.7372-1.16955 36.5767-0.984803Q40.4163-0.800055 43.7229-4.10573L91.5737-51.9575Q95.7517-56.1344 96.6287-60.6884Q97.5058-65.2424 96.0733-69.3619Q94.6407-73.4814 91.8283-76.2948Q88.9535-79.1686 84.8646-80.6012Q80.7758-82.0338 76.2214-81.1265Q71.667-80.2191 67.49-75.9798L18.9494-27.4997Q13.2148-21.766 11.8094-15.4035Q10.4041-9.04096 12.3978-3.08164Q14.3916 2.87769 18.8854 7.37149Q23.3782 11.8654 29.3375 13.8591Q35.2968 15.8529 41.6593 14.4475Q48.0219 13.0421 53.7565 7.30742L91.6238-30.5588Q92.1276-31.0626 92.0964-31.5698Q92.0653-32.0769 91.7466-32.3946Q91.4913-32.7132 90.9533-32.7123Q90.4154-32.7114 89.975-32.27Z"/>
  </g>
  <g id="Black-S" transform="matrix(1 0 0 1 2883.82 696)">
   <path d="M74.4629-34.3262L45.6543-5.56641Q42.334-2.24609 38.5254-1.2207Q34.7168-0.195312 31.0303-1.2207Q27.3438-2.24609 24.5117-5.12695Q21.6309-8.00781 20.6055-11.6699Q19.5801-15.332 20.6299-19.1406Q21.6797-22.9492 25-26.2695L64.8926-66.1621Q66.5527-67.8711 68.75-68.75Q70.9473-69.6289 73.1934-69.3604Q75.4395-69.0918 77.2949-67.2363Q79.1504-65.3809 79.4189-63.1348Q79.6875-60.8887 78.7842-58.7158Q77.8809-56.543 76.2207-54.834L36.3281-14.8438Q35.7422-14.2578 35.1318-14.3311Q34.5215-14.4043 34.1309-14.7461Q33.7891-15.1367 33.7402-15.7227Q33.6914-16.3086 34.2773-16.8945L61.9629-44.5801Q63.623-46.2891 63.6475-48.4863Q63.6719-50.6836 62.0605-52.2949Q60.4492-53.8574 58.2031-53.8574Q55.957-53.8574 54.3457-52.1973L26.5137-24.3652Q23.9746-21.8262 23.1689-18.6035Q22.3633-15.3809 23.1689-12.2559Q23.9746-9.13086 26.2695-6.83594Q29.9316-3.125 34.9365-3.19824Q39.9414-3.27148 43.75-7.08008L83.9355-47.2656Q88.1836-51.5625 89.624-56.4941Q91.0645-61.4258 89.7949-66.2354Q88.5254-71.0449 84.668-74.9023Q80.8594-78.6621 76.0254-79.9561Q71.1914-81.25 66.2109-79.8584Q61.2305-78.4668 56.9824-74.2188L16.748-33.8867Q11.3281-28.4668 9.61914-21.8262Q7.91016-15.1855 9.69238-8.66699Q11.4746-2.14844 16.5039 2.88086Q21.5332 7.91016 28.0518 9.69238Q34.5703 11.4746 41.2354 9.76562Q47.9004 8.05664 53.3203 2.68555L82.373-26.3672Q83.9355-27.9297 83.8867-30.4199Q83.8379-32.9102 82.2266-34.4238Q80.7129-36.0352 78.3936-35.9863Q76.0742-35.9375 74.4629-34.3262Z"/>
  </g>
  <g id="Heavy-S" transform="matrix(1 0 0 1 2587.99 696)">
   <path d="M73.7138-33.992L45.1472-5.47421Q41.7578-2.07323 37.857-1.03055Q33.9562 0.0121279 30.1947-1.04784Q26.4333-2.1078 23.5321-5.04628Q20.5937-7.98476 19.5337-11.7275Q18.4737-15.4703 19.5351-19.3711Q20.5964-23.2719 23.9858-26.6729L63.5212-66.1967Q65.2735-67.9979 67.5745-68.8941Q69.8755-69.7902 72.2195-69.4756Q74.5636-69.1609 76.4882-67.2479Q78.4128-65.3117 78.7217-62.9734Q79.0306-60.6351 78.1158-58.3528Q77.2009-56.0705 75.4486-54.2808L36.1322-14.8783Q35.3734-14.108 34.5729-14.2158Q33.7724-14.3236 33.2665-14.7922Q32.8095-15.2981 32.7261-16.0684Q32.6427-16.8387 33.4015-17.609L60.6376-44.8451Q62.1364-46.3813 62.1666-48.3653Q62.1967-50.3494 60.7468-51.7994Q59.2852-53.2121 57.2696-53.2005Q55.254-53.189 53.7925-51.6902L26.41-24.3076Q23.9977-21.8953 23.2266-18.8282Q22.4555-15.7612 23.215-12.786Q23.9746-9.8108 26.1543-7.63113Q29.6551-4.10458 34.4122-4.18935Q39.1693-4.27411 42.7935-7.88679L82.3797-47.4846Q86.4895-51.6316 87.8838-56.3904Q89.2782-61.1492 88.0547-65.7917Q86.8313-70.4341 83.1122-74.1533Q79.4419-77.7862 74.7807-79.0283Q70.1196-80.2704 65.3063-78.9249Q60.4929-77.5794 56.3947-73.4812L16.5291-33.5179Q11.259-28.2594 9.59609-21.8031Q7.93321-15.3469 9.66357-9.01849Q11.3939-2.69009 16.2849 2.20092Q21.1644 7.08039 27.4986 8.81076Q33.8327 10.5411 40.3019 8.884Q46.771 7.22688 52.0411 1.99408L80.8518-26.8166Q82.276-28.2293 82.233-30.4718Q82.1899-32.7142 80.7284-34.0896Q79.353-35.5627 77.2584-35.5023Q75.1638-35.4419 73.7138-33.992Z"/>
  </g>
  <g id="Bold-S" transform="matrix(1 0 0 1 2292.26 696)">
   <path d="M72.876-33.6182L44.5801-5.37109Q41.1133-1.87988 37.1094-0.817871Q33.1055 0.244141 29.2603-0.854492Q25.415-1.95312 22.4365-4.95605Q19.4336-7.95898 18.335-11.792Q17.2363-15.625 18.3105-19.6289Q19.3848-23.6328 22.8516-27.124L61.9873-66.2354Q63.8428-68.1396 66.2598-69.0552Q68.6768-69.9707 71.1304-69.6045Q73.584-69.2383 75.5859-67.2607Q77.5879-65.2344 77.9419-62.793Q78.2959-60.3516 77.3682-57.9468Q76.4404-55.542 74.585-53.6621L35.9131-14.917Q34.9609-13.9404 33.9478-14.0869Q32.9346-14.2334 32.2998-14.8438Q31.7139-15.4785 31.5918-16.4551Q31.4697-17.4316 32.4219-18.4082L59.1553-45.1416Q60.4736-46.4844 60.5103-48.23Q60.5469-49.9756 59.2773-51.2451Q57.9834-52.4902 56.2256-52.4658Q54.4678-52.4414 53.1738-51.123L26.2939-24.2432Q24.0234-21.9727 23.291-19.0796Q22.5586-16.1865 23.2666-13.3789Q23.9746-10.5713 26.0254-8.52051Q29.3457-5.2002 33.8257-5.29785Q38.3057-5.39551 41.7236-8.78906L80.6396-47.7295Q84.5947-51.709 85.9375-56.2744Q87.2803-60.8398 86.1084-65.2954Q84.9365-69.751 81.3721-73.3154Q77.8564-76.8066 73.3887-77.9907Q68.9209-79.1748 64.2944-77.8809Q59.668-76.5869 55.7373-72.6562L16.2842-33.1055Q11.1816-28.0273 9.57031-21.7773Q7.95898-15.5273 9.63135-9.41162Q11.3037-3.2959 16.04 1.44043Q20.752 6.15234 26.8799 7.82471Q33.0078 9.49707 39.2578 7.89795Q45.5078 6.29883 50.6104 1.2207L79.1504-27.3193Q80.4199-28.5645 80.3833-30.5298Q80.3467-32.4951 79.0527-33.7158Q77.832-35.0342 75.9888-34.9609Q74.1455-34.8877 72.876-33.6182Z"/>
  </g>
  <g id="Semibold-S" transform="matrix(1 0 0 1 1996.23 696)">
   <path d="M72.2983-33.3604L44.1891-5.3Q40.6689-1.74658 36.5939-0.67124Q32.5189 0.404102 28.616-0.721191Q24.713-1.84648 21.6812-4.89385Q18.6338-7.94121 17.5085-11.8364Q16.3832-15.7316 17.4663-19.8066Q18.5494-23.8816 22.0695-27.4351L60.9298-66.262Q62.8563-68.2374 65.3533-69.1663Q67.8503-70.0951 70.3794-69.6934Q72.9086-69.2916 74.9639-67.2696Q77.0191-65.1811 77.4042-62.6686Q77.7894-60.1561 76.8527-57.6668Q75.9161-55.1776 73.9896-53.2355L35.762-14.9437Q34.6766-13.8249 33.5167-13.998Q32.3569-14.1712 31.6333-14.8793Q30.9585-15.6029 30.8098-16.7217Q30.661-17.8404 31.7465-18.9592L58.1333-45.346Q59.3272-46.5555 59.3683-48.1367Q59.4094-49.7179 58.2643-50.863Q57.0858-51.9926 55.5058-51.9593Q53.9257-51.926 52.7473-50.732L26.214-24.1987Q24.0412-22.026 23.3354-19.2529Q22.6297-16.4798 23.3021-13.7877Q23.9746-11.0956 25.9365-9.13369Q29.1324-5.95557 33.4213-6.06211Q37.7103-6.16865 40.986-9.41113L79.4399-47.8983Q83.2884-51.7623 84.5956-56.1944Q85.9028-60.6266 84.7665-64.9533Q83.6302-69.28 80.1724-72.7378Q76.7634-76.1312 72.4289-77.2753Q68.0944-78.4194 63.5968-77.161Q59.0992-75.9026 55.2841-72.0875L16.1153-32.8211Q11.1283-27.8674 9.55254-21.7596Q7.97676-15.6518 9.60913-9.68267Q11.2415-3.71357 15.8712 0.916113Q20.4676 5.5125 26.4533 7.14487Q32.4391 8.77725 38.538 7.21812Q44.6369 5.65898 49.6239 0.6875L77.9773-27.6659Q79.1402-28.7955 79.1081-30.5698Q79.0759-32.344 77.8975-33.4581Q76.7834-34.6698 75.1134-34.5877Q73.4435-34.5056 72.2983-33.3604Z"/>
  </g>
  <g id="Medium-S" transform="matrix(1 0 0 1 1700.03 696)">
   <path d="M71.8604-33.165L43.8926-5.24609Q40.332-1.64551 36.2031-0.560059Q32.0742 0.525391 28.1274-0.620117Q24.1807-1.76562 21.1084-4.84668Q18.0273-7.92773 16.8818-11.8701Q15.7363-15.8125 16.8262-19.9414Q17.916-24.0703 21.4766-27.6709L60.1279-66.2822Q62.1084-68.3115 64.666-69.2505Q67.2236-70.1895 69.8101-69.7607Q72.3965-69.332 74.4922-67.2764Q76.5879-65.1406 76.9966-62.5742Q77.4053-60.0078 76.4619-57.4546Q75.5186-54.9014 73.5381-52.9121L35.6475-14.9639Q34.4609-13.7373 33.1899-13.9307Q31.9189-14.124 31.1279-14.9062Q30.3857-15.6973 30.2168-16.9238Q30.0479-18.1504 31.2344-19.377L57.3584-45.501Q58.458-46.6094 58.5024-48.0659Q58.5469-49.5225 57.4961-50.5732Q56.4053-51.6152 54.96-51.5752Q53.5146-51.5352 52.4238-50.4355L26.1533-24.165Q24.0547-22.0664 23.3691-19.3843Q22.6836-16.7021 23.3291-14.0977Q23.9746-11.4932 25.8691-9.59863Q28.9707-6.52832 33.1147-6.6416Q37.2588-6.75488 40.4268-9.88281L78.5303-48.0264Q82.2979-51.8027 83.5781-56.1338Q84.8584-60.4648 83.749-64.6938Q82.6396-68.9229 79.2627-72.2998Q75.9346-75.6191 71.7012-76.7329Q67.4678-77.8467 63.0679-76.6152Q58.668-75.3838 54.9404-71.6562L15.9873-32.6055Q11.0879-27.7461 9.53906-21.7461Q7.99023-15.7461 9.59229-9.88818Q11.1943-4.03027 15.7432 0.518555Q20.252 5.02734 26.1299 6.62939Q32.0078 8.23145 37.9922 6.70264Q43.9766 5.17383 48.876 0.283203L77.0879-27.9287Q78.1699-28.9707 78.1411-30.6001Q78.1123-32.2295 77.0215-33.2627Q75.9883-34.3936 74.4497-34.3047Q72.9111-34.2158 71.8604-33.165Z"/>
  </g>
  <g id="Regular-S" transform="matrix(1 0 0 1 1403.99 696)">
   <path d="M71.2891-32.9102L43.5059-5.17578Q39.8926-1.51367 35.6934-0.415039Q31.4941 0.683594 27.4902-0.488281Q23.4863-1.66016 20.3613-4.78516Q17.2363-7.91016 16.0645-11.9141Q14.8926-15.918 15.9912-20.1172Q17.0898-24.3164 20.7031-27.9785L59.082-66.3086Q61.1328-68.4082 63.7695-69.3604Q66.4062-70.3125 69.0674-69.8486Q71.7285-69.3848 73.877-67.2852Q76.0254-65.0879 76.4648-62.4512Q76.9043-59.8145 75.9521-57.1777Q75-54.541 72.9492-52.4902L35.498-14.9902Q34.1797-13.623 32.7637-13.8428Q31.3477-14.0625 30.4688-14.9414Q29.6387-15.8203 29.4434-17.1875Q29.248-18.5547 30.5664-19.9219L56.3477-45.7031Q57.3242-46.6797 57.373-47.9736Q57.4219-49.2676 56.4941-50.1953Q55.5176-51.123 54.248-51.0742Q52.9785-51.0254 52.002-50.0488L26.0742-24.1211Q24.0723-22.1191 23.4131-19.5557Q22.7539-16.9922 23.3643-14.502Q23.9746-12.0117 25.7812-10.2051Q28.7598-7.27539 32.7148-7.39746Q36.6699-7.51953 39.6973-10.498L77.3438-48.1934Q81.0059-51.8555 82.251-56.0547Q83.4961-60.2539 82.4219-64.3555Q81.3477-68.457 78.0762-71.7285Q74.8535-74.9512 70.752-76.0254Q66.6504-77.0996 62.3779-75.9033Q58.1055-74.707 54.4922-71.0938L15.8203-32.3242Q11.0352-27.5879 9.52148-21.7285Q8.00781-15.8691 9.57031-10.1562Q11.1328-4.44336 15.5762 0Q19.9707 4.39453 25.708 5.95703Q31.4453 7.51953 37.2803 6.03027Q43.1152 4.54102 47.9004-0.244141L75.9277-28.2715Q76.9043-29.1992 76.8799-30.6396Q76.8555-32.0801 75.8789-33.0078Q74.9512-34.0332 73.584-33.9355Q72.2168-33.8379 71.2891-32.9102Z"/>
  </g>
  <g id="Light-S" transform="matrix(1 0 0 1 1108.37 696)">
   <path d="M71.047-32.9102L42.5977-4.49473Q38.9239-0.787099 34.649 0.28127Q30.3741 1.34964 26.287 0.124741Q22.1998-1.10016 19.0292-4.27043Q15.859-7.44095 14.6341-11.5281Q13.4092-15.6153 14.4852-19.8902Q15.5612-24.1651 19.2197-27.8725L57.5684-66.1723Q59.8462-68.499 62.6191-69.3376Q65.392-70.1762 68.0911-69.5534Q70.7901-68.9306 72.8628-66.8915Q74.9357-64.8003 75.5341-62.1258Q76.1325-59.4513 75.2862-56.6783Q74.44-53.9052 72.1621-51.6123L34.6957-14.1123Q33.1807-12.5636 31.515-12.753Q29.8492-12.9425 28.7582-14.0333Q27.7013-15.124 27.5363-16.7561Q27.3712-18.3881 28.8712-19.9371L55.3335-46.3842Q56.1284-47.1792 56.147-48.1931Q56.1656-49.2071 55.4497-49.9229Q54.7002-50.6386 53.7107-50.6125Q52.7212-50.5864 51.9112-49.7915L25.3629-23.2432Q23.4517-21.3168 22.8455-18.9501Q22.2392-16.5835 22.8269-14.29Q23.4146-11.9965 25.0849-10.3261Q27.7911-7.66907 31.4509-7.70785Q35.1107-7.74663 38.002-10.6041L75.603-48.2389Q79.144-51.7797 80.2151-55.7822Q81.2861-59.7847 80.1968-63.6138Q79.1074-67.4428 76.1691-70.3814Q73.2491-73.3012 69.4275-74.3905Q65.6059-75.4799 61.5529-74.435Q57.4999-73.3902 53.9927-69.8677L15.5177-31.3403Q10.8233-26.6797 9.43832-21.0929Q8.05333-15.506 9.61583-10.1185Q11.1783-4.73099 15.3341-0.575256Q19.456 3.54691 24.8603 5.10941Q30.2645 6.67191 35.8346 5.3037Q41.4047 3.9355 46.0991-0.75887L74.6412-29.3007Q75.4361-30.0621 75.4117-31.177Q75.3873-32.2919 74.6376-33.0078Q73.937-33.7911 72.8649-33.7237Q71.7929-33.6563 71.047-32.9102Z"/>
  </g>
  <g id="Thin-S" transform="matrix(1 0 0 1 813.086 696)">
   <path d="M70.7268-32.9102L41.3966-3.59399Q37.6427 0.173852 33.2678 1.2022Q28.8929 2.23054 24.6955 0.935511Q20.4982-0.359517 17.2674-3.58965Q14.0373-6.82038 12.7423-11.0177Q11.4472-15.2151 12.4933-19.59Q13.5394-23.965 17.2578-27.7322L55.5664-65.992Q58.1446-68.6191 61.0977-69.3075Q64.0507-69.9959 66.7998-69.1629Q69.549-68.3298 71.5214-66.3708Q73.4944-64.4199 74.303-61.6954Q75.1116-58.971 74.4055-56.0177Q73.6994-53.0644 71.1211-50.4513L33.6345-12.9513Q31.8596-11.1623 29.8635-11.3118Q27.8675-11.4612 26.496-12.8321Q25.139-14.2031 25.014-16.1854Q24.889-18.1678 26.629-19.9573L53.9921-47.2849Q54.5469-47.8397 54.5255-48.4834Q54.504-49.127 54.0683-49.5627Q53.6192-49.9978 53-50.0019Q52.3808-50.0059 51.7911-49.4511L24.4221-22.0821Q22.631-20.2556 22.0947-18.1493Q21.5584-16.043 22.1162-14.0096Q22.674-11.9763 24.164-10.4862Q26.5099-8.18974 29.7792-8.11836Q33.0486-8.04699 35.7599-10.7444L73.3007-48.2991Q76.6816-51.6795 77.5224-55.4218Q78.3632-59.1641 77.2539-62.6328Q76.1445-66.1015 73.6468-68.5998Q71.127-71.119 67.6758-72.2283Q64.2245-73.3377 60.4618-72.4931Q56.6991-71.6486 53.3321-68.2462L15.1174-30.0389Q10.5431-25.4786 9.32834-20.2522Q8.11354-15.0257 9.67604-10.0685Q11.2385-5.1114 15.0139-1.33608Q18.7752 2.42585 23.739 3.98835Q28.7029 5.55085 33.9227 4.34275Q39.1424 3.13465 43.7167-1.43964L72.9396-30.6619Q73.4944-31.2033 73.47-31.8877Q73.4456-32.5721 72.9959-33.0078Q72.5956-33.4709 71.9139-33.4435Q71.2322-33.4162 70.7268-32.9102Z"/>
  </g>
  <g id="Ultralight-S" transform="matrix(1 0 0 1 517.108 696)">
   <path d="M70.5627-32.9102L40.7814-3.13263Q36.9865 0.666046 32.5603 1.67389Q28.1342 2.68173 23.8804 1.35078Q19.6266 0.0198364 16.3651-3.24097Q13.1042-6.50253 11.7733-10.7563Q10.4424-15.0101 11.4731-19.4363Q12.5038-23.8625 16.2529-27.6604L54.541-65.8997Q57.2731-68.6806 60.3184-69.2921Q63.3636-69.9036 66.1385-68.9629Q68.9133-68.0222 70.8344-66.1041Q72.7562-64.225 73.6725-61.475Q74.5888-58.725 73.9544-55.6793Q73.32-52.6337 70.5879-49.8566L33.091-12.3566Q31.1829-10.4446 29.0176-10.5736Q26.8524-10.7025 25.3372-12.2169Q23.8266-13.7314 23.7221-15.8932Q23.6176-18.055 25.4807-19.9677L53.3051-47.7463Q53.7369-48.1781 53.6949-48.632Q53.653-49.086 53.3607-49.3782Q53.0655-49.6696 52.636-49.6891Q52.2064-49.7086 51.7296-49.2767L23.9403-21.4874Q22.2107-19.7121 21.7102-17.7391Q21.2097-15.7661 21.7522-13.866Q22.2946-11.9659 23.6923-10.5682Q25.8537-8.45642 28.923-8.32863Q31.9923-8.20084 34.6115-10.8162L72.1214-48.3299Q75.4204-51.6281 76.1433-55.2372Q76.8661-58.8463 75.7465-62.1304Q74.6269-65.4144 72.3549-67.6872Q70.0401-70.0012 66.7786-71.1208Q63.517-72.2404 59.903-71.4985Q56.2889-70.7565 52.9938-67.4156L14.9124-29.3724Q10.3996-24.8634 9.272-19.8215Q8.14438-14.7797 9.70688-10.043Q11.2694-5.30624 14.8499-1.72577Q18.4265 1.85165 23.1647 3.41415Q27.903 4.97665 32.9433 3.85056Q37.9837 2.72446 42.4965-1.78833L72.068-31.3591Q72.4998-31.7879 72.4754-32.2517Q72.451-32.7156 72.155-33.0078Q71.9086-33.3069 71.4268-33.3Q70.945-33.2932 70.5627-32.9102Z"/>
  </g>
 </g>
</svg>
