<svg width="100" height="100" xmlns="http://www.w3.org/2000/svg"><path d="M17.162 14.404c-8.3 0-12.451 4.102-12.451 12.305v46.582c0 8.203 4.15 12.305 12.451 12.305H66.63l-5.998-6.582c-5.246-5.95-10.855-12.007-16.274-17.953l11.934-21.866-14.486-17.71h.027l-5.727-7.08zm27.945 0l4.243 5.246c5.427 6.8 11.004 13.653 16.505 20.455L53.752 62.281l22.309 23.342.035-.033.004.006h6.736c8.35 0 12.453-4.102 12.453-12.305V26.709c0-8.203-4.103-12.305-12.453-12.305zm-27.847 7.08h15.502L47.889 39.98 35.822 62.086l3.623 3.977-.04.037c-1.242-1.28-2.788-2.82-4.446-4.23-.822-.7-1.506-1.49-2.69-2.35-1.183-.86-3.039-1.58-4.939-1.536-1.749.04-3.578.714-4.775 1.612-1.198.898-1.948 1.765-3.178 2.87-2.763 2.485-5.513 5.142-7.635 7.24V27.05c0-3.711 2.002-5.567 5.518-5.567zm42.54 0h22.938c3.516 0 5.518 1.856 5.518 5.567v43.404C84.31 66.81 74.742 57.965 69.73 53.3c-.748-.697-1.331-1.317-2.054-1.916l6.568-12.035zM33.423 32.178c-4.98 0-9.033 4.101-9.033 9.033 0 4.98 4.052 9.033 9.033 9.033 4.931 0 8.984-4.053 8.984-9.033 0-4.932-4.053-9.033-8.984-9.033zm30.789 25.55c.249.232.397.366.75.694a11348.13 11348.13 0 0020.914 19.371c-.844.472-1.89.723-3.137.723h-3.787L62.348 61.143zm-36.72 7.254c.526-.012.313-.054.665.202.352.255 1.095 1.02 2.268 2.017 2.982 2.537 6.162 6.115 6.162 6.115a3.5 3.5 0 005.03.229s1.726-1.605 2.513-2.342l6.662 7.313H17.26c-1.421 0-2.59-.317-3.485-.93 1.066-1.092 5.47-5.587 10.282-9.914 1.443-1.298 2.324-2.197 2.697-2.477.373-.28.054-.197.736-.213z"/></svg>