<?xml version="1.0" encoding="UTF-8"?>
<!--Generator: Apple Native CoreSVG 175-->
<!DOCTYPE svg
PUBLIC "-//W3C//DTD SVG 1.1//EN"
       "http://www.w3.org/Graphics/SVG/1.1/DTD/svg11.dtd">
<svg version="1.1" xmlns="http://www.w3.org/2000/svg" xmlns:xlink="http://www.w3.org/1999/xlink" width="3300" height="2200">
 <!--glyph: "uni100D54.medium", point size: 100.0, font version: "17.1d1e1", template writer version: "65.1"-->
 <g id="Notes">
  <rect height="2200" id="artboard" style="fill:white;opacity:1" width="3300" x="0" y="0"/>
  <line style="fill:none;stroke:black;opacity:1;stroke-width:0.5;" x1="263" x2="3036" y1="292" y2="292"/>
  <text style="stroke:none;fill:black;font-family:sans-serif;font-size:13;font-weight:bold;" transform="matrix(1 0 0 1 263 322)">Weight/Scale Variations</text>
  <text style="stroke:none;fill:black;font-family:sans-serif;font-size:13;text-anchor:middle;" transform="matrix(1 0 0 1 559.711 322)">Ultralight</text>
  <text style="stroke:none;fill:black;font-family:sans-serif;font-size:13;text-anchor:middle;" transform="matrix(1 0 0 1 856.422 322)">Thin</text>
  <text style="stroke:none;fill:black;font-family:sans-serif;font-size:13;text-anchor:middle;" transform="matrix(1 0 0 1 1153.13 322)">Light</text>
  <text style="stroke:none;fill:black;font-family:sans-serif;font-size:13;text-anchor:middle;" transform="matrix(1 0 0 1 1449.84 322)">Regular</text>
  <text style="stroke:none;fill:black;font-family:sans-serif;font-size:13;text-anchor:middle;" transform="matrix(1 0 0 1 1746.56 322)">Medium</text>
  <text style="stroke:none;fill:black;font-family:sans-serif;font-size:13;text-anchor:middle;" transform="matrix(1 0 0 1 2043.27 322)">Semibold</text>
  <text style="stroke:none;fill:black;font-family:sans-serif;font-size:13;text-anchor:middle;" transform="matrix(1 0 0 1 2339.98 322)">Bold</text>
  <text style="stroke:none;fill:black;font-family:sans-serif;font-size:13;text-anchor:middle;" transform="matrix(1 0 0 1 2636.69 322)">Heavy</text>
  <text style="stroke:none;fill:black;font-family:sans-serif;font-size:13;text-anchor:middle;" transform="matrix(1 0 0 1 2933.4 322)">Black</text>
  <line style="fill:none;stroke:black;opacity:1;stroke-width:0.5;" x1="263" x2="3036" y1="1903" y2="1903"/>
  <g transform="matrix(1 0 0 1 263 1933)">
   <path d="M9.24805 0.830078Q10.8691 0.830078 12.2949 0.214844Q13.7207-0.400391 14.8096-1.49414Q15.8984-2.58789 16.5186-4.01367Q17.1387-5.43945 17.1387-7.05078Q17.1387-8.66211 16.5186-10.0879Q15.8984-11.5137 14.8047-12.6074Q13.7109-13.7012 12.2852-14.3164Q10.8594-14.9316 9.23828-14.9316Q7.62695-14.9316 6.20117-14.3164Q4.77539-13.7012 3.69141-12.6074Q2.60742-11.5137 1.9873-10.0879Q1.36719-8.66211 1.36719-7.05078Q1.36719-5.43945 1.9873-4.01367Q2.60742-2.58789 3.69629-1.49414Q4.78516-0.400391 6.21094 0.214844Q7.63672 0.830078 9.24805 0.830078ZM9.24805-0.654297Q7.91992-0.654297 6.7627-1.14746Q5.60547-1.64062 4.73145-2.51953Q3.85742-3.39844 3.36426-4.56055Q2.87109-5.72266 2.87109-7.05078Q2.87109-8.37891 3.35938-9.54102Q3.84766-10.7031 4.72168-11.582Q5.5957-12.4609 6.75293-12.9541Q7.91016-13.4473 9.23828-13.4473Q10.5762-13.4473 11.7334-12.9541Q12.8906-12.4609 13.7695-11.582Q14.6484-10.7031 15.1465-9.54102Q15.6445-8.37891 15.6445-7.05078Q15.6445-5.72266 15.1514-4.56055Q14.6582-3.39844 13.7842-2.51953Q12.9102-1.64062 11.748-1.14746Q10.5859-0.654297 9.24805-0.654297ZM5.6543-7.05078Q5.6543-6.72852 5.85938-6.52832Q6.06445-6.32812 6.40625-6.32812L8.51562-6.32812L8.51562-4.20898Q8.51562-3.88672 8.71094-3.67676Q8.90625-3.4668 9.23828-3.4668Q9.56055-3.4668 9.77051-3.67676Q9.98047-3.88672 9.98047-4.20898L9.98047-6.32812L12.0898-6.32812Q12.4219-6.32812 12.627-6.52832Q12.832-6.72852 12.832-7.05078Q12.832-7.38281 12.627-7.58789Q12.4219-7.79297 12.0898-7.79297L9.98047-7.79297L9.98047-9.90234Q9.98047-10.2344 9.77051-10.4443Q9.56055-10.6543 9.23828-10.6543Q8.90625-10.6543 8.71094-10.4443Q8.51562-10.2344 8.51562-9.90234L8.51562-7.79297L6.40625-7.79297Q6.06445-7.79297 5.85938-7.58789Q5.6543-7.38281 5.6543-7.05078Z"/>
  </g>
  <g transform="matrix(1 0 0 1 281.867 1933)">
   <path d="M11.709 2.91016Q13.75 2.91016 15.5518 2.12891Q17.3535 1.34766 18.7305-0.0292969Q20.1074-1.40625 20.8887-3.20801Q21.6699-5.00977 21.6699-7.05078Q21.6699-9.0918 20.8887-10.8936Q20.1074-12.6953 18.7305-14.0723Q17.3535-15.4492 15.5469-16.2305Q13.7402-17.0117 11.6992-17.0117Q9.6582-17.0117 7.85645-16.2305Q6.05469-15.4492 4.68262-14.0723Q3.31055-12.6953 2.5293-10.8936Q1.74805-9.0918 1.74805-7.05078Q1.74805-5.00977 2.5293-3.20801Q3.31055-1.40625 4.6875-0.0292969Q6.06445 1.34766 7.86621 2.12891Q9.66797 2.91016 11.709 2.91016ZM11.709 1.25Q9.98047 1.25 8.47656 0.605469Q6.97266-0.0390625 5.83496-1.17676Q4.69727-2.31445 4.05762-3.81836Q3.41797-5.32227 3.41797-7.05078Q3.41797-8.7793 4.05762-10.2832Q4.69727-11.7871 5.83008-12.9297Q6.96289-14.0723 8.4668-14.7119Q9.9707-15.3516 11.6992-15.3516Q13.4277-15.3516 14.9316-14.7119Q16.4355-14.0723 17.5781-12.9297Q18.7207-11.7871 19.3652-10.2832Q20.0098-8.7793 20.0098-7.05078Q20.0098-5.32227 19.3701-3.81836Q18.7305-2.31445 17.5928-1.17676Q16.4551-0.0390625 14.9463 0.605469Q13.4375 1.25 11.709 1.25ZM7.17773-7.05078Q7.17773-6.69922 7.41211-6.47461Q7.64648-6.25 8.01758-6.25L10.8887-6.25L10.8887-3.36914Q10.8887-2.99805 11.1133-2.76855Q11.3379-2.53906 11.6895-2.53906Q12.0605-2.53906 12.29-2.76855Q12.5195-2.99805 12.5195-3.36914L12.5195-6.25L15.4004-6.25Q15.7715-6.25 16.001-6.47461Q16.2305-6.69922 16.2305-7.05078Q16.2305-7.42188 16.001-7.65137Q15.7715-7.88086 15.4004-7.88086L12.5195-7.88086L12.5195-10.752Q12.5195-11.1328 12.29-11.3623Q12.0605-11.5918 11.6895-11.5918Q11.3379-11.5918 11.1133-11.3574Q10.8887-11.123 10.8887-10.752L10.8887-7.88086L8.01758-7.88086Q7.63672-7.88086 7.40723-7.65137Q7.17773-7.42188 7.17773-7.05078Z"/>
  </g>
  <g transform="matrix(1 0 0 1 305.646 1933)">
   <path d="M14.9707 5.66406Q17.0605 5.66406 18.96 5.01465Q20.8594 4.36523 22.4512 3.19336Q24.043 2.02148 25.2197 0.429688Q26.3965-1.16211 27.0459-3.06641Q27.6953-4.9707 27.6953-7.05078Q27.6953-9.14062 27.0459-11.04Q26.3965-12.9395 25.2197-14.5312Q24.043-16.123 22.4512-17.2998Q20.8594-18.4766 18.9551-19.126Q17.0508-19.7754 14.9609-19.7754Q12.8711-19.7754 10.9717-19.126Q9.07227-18.4766 7.48535-17.2998Q5.89844-16.123 4.72168-14.5312Q3.54492-12.9395 2.90039-11.04Q2.25586-9.14062 2.25586-7.05078Q2.25586-4.9707 2.90527-3.06641Q3.55469-1.16211 4.72656 0.429688Q5.89844 2.02148 7.49023 3.19336Q9.08203 4.36523 10.9814 5.01465Q12.8809 5.66406 14.9707 5.66406ZM14.9707 3.84766Q13.1641 3.84766 11.5283 3.2959Q9.89258 2.74414 8.53516 1.74805Q7.17773 0.751953 6.17676-0.610352Q5.17578-1.97266 4.62891-3.6084Q4.08203-5.24414 4.08203-7.05078Q4.08203-8.86719 4.62891-10.5029Q5.17578-12.1387 6.17188-13.501Q7.16797-14.8633 8.52539-15.8594Q9.88281-16.8555 11.5186-17.4023Q13.1543-17.9492 14.9609-17.9492Q16.7773-17.9492 18.4131-17.4023Q20.0488-16.8555 21.4111-15.8594Q22.7734-14.8633 23.7695-13.501Q24.7656-12.1387 25.3174-10.5029Q25.8691-8.86719 25.8691-7.05078Q25.8789-5.24414 25.332-3.6084Q24.7852-1.97266 23.7842-0.610352Q22.7832 0.751953 21.4209 1.74805Q20.0586 2.74414 18.4229 3.2959Q16.7871 3.84766 14.9707 3.84766ZM9.19922-7.05078Q9.19922-6.66992 9.45801-6.4209Q9.7168-6.17188 10.1172-6.17188L14.0625-6.17188L14.0625-2.2168Q14.0625-1.81641 14.3115-1.55762Q14.5605-1.29883 14.9512-1.29883Q15.3516-1.29883 15.6104-1.55273Q15.8691-1.80664 15.8691-2.2168L15.8691-6.17188L19.8242-6.17188Q20.2246-6.17188 20.4785-6.4209Q20.7324-6.66992 20.7324-7.05078Q20.7324-7.46094 20.4785-7.71484Q20.2246-7.96875 19.8242-7.96875L15.8691-7.96875L15.8691-11.9141Q15.8691-12.3242 15.6104-12.583Q15.3516-12.8418 14.9512-12.8418Q14.5605-12.8418 14.3115-12.583Q14.0625-12.3242 14.0625-11.9141L14.0625-7.96875L10.1172-7.96875Q9.70703-7.96875 9.45312-7.71484Q9.19922-7.46094 9.19922-7.05078Z"/>
  </g>
  <text style="stroke:none;fill:black;font-family:sans-serif;font-size:13;font-weight:bold;" transform="matrix(1 0 0 1 263 1953)">Design Variations</text>
  <text style="stroke:none;fill:black;font-family:sans-serif;font-size:13;" transform="matrix(1 0 0 1 263 1971)">Symbols are supported in up to nine weights and three scales.</text>
  <text style="stroke:none;fill:black;font-family:sans-serif;font-size:13;" transform="matrix(1 0 0 1 263 1989)">For optimal layout with text and other symbols, vertically align</text>
  <text style="stroke:none;fill:black;font-family:sans-serif;font-size:13;" transform="matrix(1 0 0 1 263 2007)">symbols with the adjacent text.</text>
  <line style="fill:none;stroke:#00AEEF;stroke-width:0.5;opacity:1.0;" x1="776" x2="776" y1="1919" y2="1933"/>
  <g transform="matrix(1 0 0 1 776 1933)">
   <path d="M3.31055 0.15625Q3.70117 0.15625 3.91602-0.00976562Q4.13086-0.175781 4.26758-0.585938L5.52734-4.0332L11.2891-4.0332L12.5488-0.585938Q12.6855-0.175781 12.9004-0.00976562Q13.1152 0.15625 13.4961 0.15625Q13.8867 0.15625 14.1162-0.0585938Q14.3457-0.273438 14.3457-0.644531Q14.3457-0.869141 14.2383-1.17188L9.6582-13.3691Q9.48242-13.8184 9.17969-14.043Q8.87695-14.2676 8.4082-14.2676Q7.5-14.2676 7.17773-13.3789L2.59766-1.16211Q2.49023-0.859375 2.49023-0.634766Q2.49023-0.263672 2.70996-0.0537109Q2.92969 0.15625 3.31055 0.15625ZM6.00586-5.51758L8.37891-12.0898L8.42773-12.0898L10.8008-5.51758Z"/>
  </g>
  <line style="fill:none;stroke:#00AEEF;stroke-width:0.5;opacity:1.0;" x1="793.197" x2="793.197" y1="1919" y2="1933"/>
  <text style="stroke:none;fill:black;font-family:sans-serif;font-size:13;font-weight:bold;" transform="matrix(1 0 0 1 776 1953)">Margins</text>
  <text style="stroke:none;fill:black;font-family:sans-serif;font-size:13;" transform="matrix(1 0 0 1 776 1971)">Leading and trailing margins on the left and right side of each symbol</text>
  <text style="stroke:none;fill:black;font-family:sans-serif;font-size:13;" transform="matrix(1 0 0 1 776 1989)">can be adjusted by modifying the x-location of the margin guidelines.</text>
  <text style="stroke:none;fill:black;font-family:sans-serif;font-size:13;" transform="matrix(1 0 0 1 776 2007)">Modifications are automatically applied proportionally to all</text>
  <text style="stroke:none;fill:black;font-family:sans-serif;font-size:13;" transform="matrix(1 0 0 1 776 2025)">scales and weights.</text>
  <g transform="matrix(1 0 0 1 1289 1933)">
   <path d="M2.8418 1.86523L4.54102 3.57422Q5.18555 4.22852 5.90332 4.17969Q6.62109 4.13086 7.31445 3.35938L18.0078-8.42773L17.041-9.4043L6.42578 2.27539Q6.16211 2.57812 5.89355 2.61719Q5.625 2.65625 5.27344 2.30469L4.10156 1.14258Q3.75 0.791016 3.79395 0.522461Q3.83789 0.253906 4.14062-0.0195312L15.6152-10.8203L14.6387-11.7871L3.04688-0.898438Q2.30469-0.214844 2.25098 0.498047Q2.19727 1.21094 2.8418 1.86523ZM9.25781-16.3281Q8.94531-16.0254 8.90625-15.6348Q8.86719-15.2441 9.04297-14.9512Q9.21875-14.6777 9.55566-14.541Q9.89258-14.4043 10.3809-14.5215Q11.4746-14.7754 12.5977-14.7314Q13.7207-14.6875 14.7949-13.9844L14.209-12.5293Q13.9551-11.9043 14.0674-11.4404Q14.1797-10.9766 14.5801-10.5664L16.875-8.25195Q17.2363-7.88086 17.5781-7.82227Q17.9199-7.76367 18.3398-7.8418L19.4043-8.03711L20.0684-7.36328L20.0293-6.80664Q20-6.43555 20.1221-6.12305Q20.2441-5.81055 20.6055-5.44922L21.3672-4.70703Q21.7285-4.3457 22.1533-4.33105Q22.5781-4.31641 22.9297-4.66797L25.8398-7.58789Q26.1914-7.93945 26.1816-8.35449Q26.1719-8.76953 25.8105-9.13086L25.0391-9.89258Q24.6875-10.2539 24.3799-10.3857Q24.0723-10.5176 23.7109-10.4883L23.1348-10.4395L22.4902-11.0742L22.7344-12.1973Q22.832-12.6172 22.6953-12.9834Q22.5586-13.3496 22.1191-13.7891L19.9219-15.9766Q18.6719-17.2168 17.2607-17.8369Q15.8496-18.457 14.4189-18.4814Q12.9883-18.5059 11.665-17.959Q10.3418-17.4121 9.25781-16.3281ZM10.752-15.957Q11.6602-16.6211 12.7002-16.9043Q13.7402-17.1875 14.8047-17.085Q15.8691-16.9824 16.8701-16.5137Q17.8711-16.0449 18.7012-15.2051L21.1328-12.793Q21.3086-12.6172 21.3525-12.4512Q21.3965-12.2852 21.3379-12.0312L21.0156-10.5469L22.5195-9.0625L23.5059-9.12109Q23.6914-9.13086 23.7891-9.09668Q23.8867-9.0625 24.0332-8.91602L24.6094-8.33984L22.168-5.89844L21.5918-6.47461Q21.4453-6.62109 21.4062-6.71875Q21.3672-6.81641 21.377-7.01172L21.4453-7.98828L19.9512-9.47266L18.4277-9.21875Q18.1836-9.16992 18.042-9.2041Q17.9004-9.23828 17.7148-9.41406L15.7129-11.416Q15.5176-11.5918 15.4932-11.7529Q15.4688-11.9141 15.5859-12.1875L16.4648-14.2773Q15.293-15.3711 13.8281-15.791Q12.3633-16.2109 10.8398-15.7617Q10.7227-15.7324 10.6885-15.8057Q10.6543-15.8789 10.752-15.957Z"/>
  </g>
  <text style="stroke:none;fill:black;font-family:sans-serif;font-size:13;font-weight:bold;" transform="matrix(1 0 0 1 1289 1953)">Exporting</text>
  <text style="stroke:none;fill:black;font-family:sans-serif;font-size:13;" transform="matrix(1 0 0 1 1289 1971)">Symbols should be outlined when exporting to ensure the</text>
  <text style="stroke:none;fill:black;font-family:sans-serif;font-size:13;" transform="matrix(1 0 0 1 1289 1989)">design is preserved when submitting to Xcode.</text>
  <text id="template-version" style="stroke:none;fill:black;font-family:sans-serif;font-size:13;text-anchor:end;" transform="matrix(1 0 0 1 3036 1933)">Template v.3.0</text>
  <text style="stroke:none;fill:black;font-family:sans-serif;font-size:13;text-anchor:end;" transform="matrix(1 0 0 1 3036 1951)">Requires Xcode 13 or greater</text>
  <text id="descriptive-name" style="stroke:none;fill:black;font-family:sans-serif;font-size:13;text-anchor:end;" transform="matrix(1 0 0 1 3036 1969)">Generated from checkerboard.shield</text>
  <text style="stroke:none;fill:black;font-family:sans-serif;font-size:13;text-anchor:end;" transform="matrix(1 0 0 1 3036 1987)">Typeset at 100 points</text>
  <text style="stroke:none;fill:black;font-family:sans-serif;font-size:13;" transform="matrix(1 0 0 1 263 726)">Small</text>
  <text style="stroke:none;fill:black;font-family:sans-serif;font-size:13;" transform="matrix(1 0 0 1 263 1156)">Medium</text>
  <text style="stroke:none;fill:black;font-family:sans-serif;font-size:13;" transform="matrix(1 0 0 1 263 1586)">Large</text>
 </g>
 <g id="Guides">
  <g id="H-reference" style="fill:#27AAE1;stroke:none;" transform="matrix(1 0 0 1 339 696)">
   <path d="M0.993347 0L3.6377 0L29.3282-67.1326L30.0301-67.1326L30.0301-70.459L28.1227-70.459ZM11.6882-24.4797L46.9818-24.4797L46.2311-26.7288L12.4382-26.7288ZM55.1193 0L57.7637 0L30.6381-70.459L29.4327-70.459L29.4327-67.1326Z"/>
  </g>
  <line id="Baseline-S" style="fill:none;stroke:#27AAE1;opacity:1;stroke-width:0.5;" x1="263" x2="3036" y1="696" y2="696"/>
  <line id="Capline-S" style="fill:none;stroke:#27AAE1;opacity:1;stroke-width:0.5;" x1="263" x2="3036" y1="625.541" y2="625.541"/>
  <g id="H-reference" style="fill:#27AAE1;stroke:none;" transform="matrix(1 0 0 1 339 1126)">
   <path d="M0.993347 0L3.6377 0L29.3282-67.1326L30.0301-67.1326L30.0301-70.459L28.1227-70.459ZM11.6882-24.4797L46.9818-24.4797L46.2311-26.7288L12.4382-26.7288ZM55.1193 0L57.7637 0L30.6381-70.459L29.4327-70.459L29.4327-67.1326Z"/>
  </g>
  <line id="Baseline-M" style="fill:none;stroke:#27AAE1;opacity:1;stroke-width:0.5;" x1="263" x2="3036" y1="1126" y2="1126"/>
  <line id="Capline-M" style="fill:none;stroke:#27AAE1;opacity:1;stroke-width:0.5;" x1="263" x2="3036" y1="1055.54" y2="1055.54"/>
  <g id="H-reference" style="fill:#27AAE1;stroke:none;" transform="matrix(1 0 0 1 339 1556)">
   <path d="M0.993347 0L3.6377 0L29.3282-67.1326L30.0301-67.1326L30.0301-70.459L28.1227-70.459ZM11.6882-24.4797L46.9818-24.4797L46.2311-26.7288L12.4382-26.7288ZM55.1193 0L57.7637 0L30.6381-70.459L29.4327-70.459L29.4327-67.1326Z"/>
  </g>
  <line id="Baseline-L" style="fill:none;stroke:#27AAE1;opacity:1;stroke-width:0.5;" x1="263" x2="3036" y1="1556" y2="1556"/>
  <line id="Capline-L" style="fill:none;stroke:#27AAE1;opacity:1;stroke-width:0.5;" x1="263" x2="3036" y1="1485.54" y2="1485.54"/>
  <line id="left-margin-Regular-M" style="fill:none;stroke:#00AEEF;stroke-width:0.5;opacity:1.0;" x1="1391.46" x2="1391.46" y1="1030.79" y2="1150.12"/>
  <line id="right-margin-Regular-M" style="fill:none;stroke:#00AEEF;stroke-width:0.5;opacity:1.0;" x1="1508.23" x2="1508.23" y1="1030.79" y2="1150.12"/>
 </g>
 <g id="Symbols">
  <g id="Black-L" transform="matrix(1 0 0 1 2854.52 1556)">
   <path d="M22.693-22.4652Q22.693-13.8569 25.4362-7.10878Q28.1795-0.360653 34.1828 5.49842Q40.1861 11.3575 49.9415 17.2538Q59.6969 23.15 73.8003 30.1506Q75.0787 30.754 76.4382 31.1844Q77.7977 31.6149 78.8779 31.6149Q79.9361 31.6149 81.306 31.1844Q82.6759 30.754 83.9554 30.1506Q98.0393 23.1536 107.806 17.2573Q117.572 11.3611 123.575 5.5008Q129.577-0.359467 132.32-7.10819Q135.063-13.8569 135.063-22.4652L135.063-68.1745Q135.063-75.9468 132.333-80.0382Q129.604-84.1295 122.671-87.086Q120.615-87.9658 116.009-89.5451Q111.403-91.1244 106.032-92.9115Q100.662-94.6987 96.1718-96.1281Q91.6819-97.5575 89.8599-98.1609Q87.3687-98.9134 84.3599-99.3701Q81.3512-99.8268 78.8779-99.8268Q76.4046-99.8268 73.4251-99.3493Q70.4455-98.8718 67.8959-98.1609Q66.0738-97.6772 61.5845-96.2284Q57.0953-94.7795 51.7241-93.0014Q46.3529-91.2232 41.7358-89.5945Q37.1187-87.9658 35.0838-87.086Q28.1518-84.1307 25.4224-80.0388Q22.693-75.9468 22.693-68.1745ZM40.8217-24.9448L40.8217-35.2697L78.8195-35.2697L78.8195-81.986Q80.0637-81.986 81.3535-81.6976Q82.6433-81.4091 84.7564-80.7555Q86.608-80.1131 90.1914-78.886Q93.7749-77.6588 98.1958-76.1128Q102.617-74.5668 106.951-73.0094Q111.286-71.452 114.5-70.2296Q115.863-69.7 116.388-68.7582Q116.913-67.8165 116.913-65.9687L116.913-35.2697L78.8779-35.2697L78.8779 11.978Q78.4437 11.978 77.9096 11.7812Q77.3754 11.5843 76.133 10.8237Q65.7412 4.35733 58.8904 0.0264283Q52.0397-4.30447 48.0849-7.82025Q44.1302-11.336 42.476-15.2728Q40.8217-19.2095 40.8217-24.9448Z"/>
  </g>
  <g id="Heavy-L" transform="matrix(1 0 0 1 2558.75 1556)">
   <path d="M22.7331-22.4804Q22.7331-13.9004 25.4151-7.27311Q28.0972-0.645808 34.0031 5.10981Q39.909 10.8654 49.5191 16.7415Q59.1291 22.6176 73.06 29.7544Q74.3074 30.3722 75.6118 30.7792Q76.9162 31.1862 77.9358 31.1862Q78.9195 31.1862 80.239 30.7792Q81.5585 30.3722 82.8114 29.7544Q96.7178 22.6345 106.346 16.7584Q115.974 10.8822 121.877 5.12099Q127.78-0.640244 130.459-7.27033Q133.138-13.9004 133.138-22.4804L133.138-68.762Q133.138-75.8765 130.562-79.5194Q127.985-83.1622 121.73-85.8193Q119.454-86.7758 114.706-88.4499Q109.957-90.124 104.463-91.9974Q98.968-93.8708 94.3059-95.402Q89.6438-96.9331 87.5459-97.6451Q85.3579-98.315 82.7459-98.7303Q80.1339-99.1456 77.9358-99.1456Q75.7376-99.1456 73.1479-98.7001Q70.5582-98.2546 68.3256-97.6451Q66.2277-97.0627 61.5684-95.5215Q56.9091-93.9803 51.4118-92.1018Q45.9145-90.2234 41.1481-88.4996Q36.3816-86.7758 34.1354-85.8193Q27.8864-83.1678 25.3098-79.5222Q22.7331-75.8765 22.7331-68.762ZM38.7898-24.87L38.7898-35.2697L77.8912-35.2697L77.8912-83.266Q78.965-83.266 80.1043-83.0126Q81.2435-82.7592 83.0474-82.1888Q85.2838-81.375 89.1815-80.0034Q93.0792-78.6317 97.7351-76.9787Q102.391-75.3257 106.877-73.7137Q111.362-72.1017 114.65-70.8877Q116.036-70.3458 116.544-69.4158Q117.051-68.4859 117.051-66.6582L117.051-35.2697L77.9358-35.2697L77.9358 13.6679Q77.4238 13.6679 76.8069 13.4393Q76.19 13.2108 74.9224 12.4491Q64.4114 5.92913 57.4176 1.48656Q50.4238-2.95602 46.3424-6.66452Q42.261-10.373 40.5254-14.5788Q38.7898-18.7846 38.7898-24.87Z"/>
  </g>
  <g id="Bold-L" transform="matrix(1 0 0 1 2263.3 1556)">
   <path d="M22.7271-22.4064Q22.7271-13.917 25.3286-7.47299Q27.9301-1.02901 33.7057 4.57743Q39.4813 10.1839 48.9034 16.0293Q58.3254 21.8748 72.0338 29.1882Q73.2279 29.814 74.4706 30.2014Q75.7132 30.5889 76.6785 30.5889Q77.5923 30.5889 78.854 30.2014Q80.1158 29.814 81.3229 29.1882Q95.0066 21.9146 104.454 16.069Q113.902 10.2234 119.671 4.60377Q125.44-1.0159 128.035-7.46643Q130.63-13.917 130.63-22.4064L130.63-69.2907Q130.63-75.6801 128.241-78.8293Q125.853-81.9784 120.309-84.3113Q117.719-85.375 112.846-87.1458Q107.973-88.9167 102.407-90.8679Q96.8405-92.819 92.0192-94.4545Q87.1979-96.09 84.7245-96.9478Q82.8758-97.5251 80.7182-97.8942Q78.5607-98.2632 76.6785-98.2632Q74.7961-98.2632 72.6531-97.8562Q70.5102-97.4491 68.6322-96.9478Q66.1589-96.22 61.3442-94.5821Q56.5296-92.9443 50.9567-90.9764Q45.3839-89.0085 40.4852-87.1918Q35.5865-85.375 33.0343-84.3113Q27.5038-81.9917 25.1155-78.8359Q22.7271-75.6801 22.7271-69.2907ZM36.1876-24.5989L36.1876-35.2697L76.6493-35.2697L76.6493-84.8639Q77.5379-84.8639 78.5262-84.6416Q79.5145-84.4193 80.9937-83.934Q83.6098-82.9499 87.8657-81.4126Q92.1217-79.8753 97.0658-78.0878Q102.01-76.3004 106.669-74.6193Q111.328-72.9382 114.64-71.7469Q116.11-71.1673 116.62-70.2117Q117.131-69.2561 117.131-67.3546L117.131-35.2697L76.6785-35.2697L76.6785 15.7803Q76.074 15.7803 75.3647 15.5097Q74.6553 15.239 73.3941 14.4921Q62.7446 7.88817 55.5666 3.30729Q48.3886-1.27358 44.1348-5.20169Q39.881-9.12981 38.0343-13.6325Q36.1876-18.1352 36.1876-24.5989Z"/>
  </g>
  <g id="Semibold-L" transform="matrix(1 0 0 1 1967.46 1556)">
   <path d="M22.723-22.3554Q22.723-13.9284 25.269-7.61079Q27.8149-1.29319 33.5007 4.2104Q39.1865 9.71399 48.4789 15.5384Q57.7713 21.3627 71.3264 28.7978Q72.4836 29.4291 73.6838 29.8031Q74.884 30.1772 75.8117 30.1772Q76.6773 30.1772 77.8992 29.8031Q79.1212 29.4291 80.2967 28.7978Q93.8269 21.4183 103.15 15.5938Q112.474 9.76926 118.15 4.2472Q123.827-1.27487 126.363-7.60163Q128.9-13.9284 128.9-22.3554L128.9-69.6551Q128.9-75.5447 126.642-78.3535Q124.383-81.1623 119.329-83.2717Q116.523-84.4093 111.564-86.2468Q106.605-88.0844 100.989-90.0891Q95.3738-92.0939 90.4428-93.8014Q85.5117-95.5088 82.7795-96.467Q81.1646-96.9805 79.3204-97.3177Q77.4762-97.6549 75.8117-97.6549Q74.147-97.6549 72.312-97.2744Q70.4771-96.8938 68.8436-96.467Q66.1114-95.639 61.1897-93.9346Q56.2679-92.2301 50.643-90.2006Q45.0181-88.171 40.0283-86.2902Q35.0384-84.4093 32.2752-83.2717Q27.2401-81.1809 24.9816-78.3628Q22.723-75.5447 22.723-69.6551ZM34.3937-24.4121L34.3937-35.2697L75.7931-35.2697L75.7931-85.9654Q76.5541-85.9654 77.4383-85.7646Q78.3225-85.5637 79.5779-85.1372Q82.4557-84.0356 86.9586-82.3841Q91.4615-80.7326 96.6044-78.8525Q101.747-76.9724 106.526-75.2436Q111.304-73.5149 114.634-72.3393Q116.16-71.7336 116.673-70.7603Q117.186-69.7871 117.186-67.8347L117.186-35.2697L75.8117-35.2697L75.8117 17.2366Q75.1435 17.2366 74.3704 16.9369Q73.5972 16.6372 72.3406 15.9006Q61.5955 9.23871 54.2905 4.5625Q46.9855-0.113717 42.6129-4.19323Q38.2402-8.27275 36.317-12.9802Q34.3937-17.6876 34.3937-24.4121Z"/>
  </g>
  <g id="Medium-L" transform="matrix(1 0 0 1 1671.4 1556)">
   <path d="M22.7199-22.3167Q22.7199-13.937 25.2237-7.71527Q27.7276-1.4935 33.3452 3.93211Q38.9629 9.35772 48.1571 15.1661Q57.3512 20.9744 70.79 28.5018Q71.9193 29.1373 73.0872 29.5011Q74.2552 29.8649 75.1545 29.8649Q75.9835 29.8649 77.1753 29.5011Q78.367 29.1373 79.5186 28.5018Q92.9324 21.042 102.161 15.2334Q111.391 9.4249 116.997 3.97683Q122.603-1.47123 125.096-7.70414Q127.589-13.937 127.589-22.3167L127.589-69.9315Q127.589-75.4421 125.429-77.9928Q123.268-80.5434 118.586-82.4835Q115.616-83.677 110.592-85.5651Q105.568-87.4532 99.9148-89.4987Q94.2617-91.5441 89.2474-93.3061Q84.2331-95.0681 81.3047-96.1025Q79.8671-96.5676 78.2605-96.8807Q76.6538-97.1937 75.1545-97.1937Q73.6548-97.1937 72.0534-96.8332Q70.452-96.4727 69.0039-96.1025Q66.0755-95.1985 61.0725-93.4436Q56.0695-91.6886 50.4051-89.6123Q44.7407-87.536 39.6818-85.6065Q34.6228-83.677 31.6996-82.4835Q27.0401-80.5661 24.88-78.0041Q22.7199-75.4421 22.7199-69.9315ZM33.0334-24.2704L33.0334-35.2697L75.144-35.2697L75.144-86.8007Q75.8081-86.8007 76.6133-86.6161Q77.4186-86.4315 78.5045-86.0495Q81.5807-84.8589 86.2709-83.1208Q90.961-81.3827 96.2545-79.4323Q101.548-77.4819 106.417-75.717Q111.287-73.9522 114.629-72.7884Q116.199-72.163 116.713-71.1763Q117.228-70.1897 117.228-68.1988L117.228-35.2697L75.1545-35.2697L75.1545 18.3409Q74.438 18.3409 73.6164 18.0191Q72.7949 17.6974 71.5417 16.9685Q60.7242 10.2628 53.323 5.51425Q45.9217 0.765738 41.4589-3.42858Q36.9962-7.62289 35.0148-12.4855Q33.0334-17.3481 33.0334-24.2704Z"/>
  </g>
  <g id="Regular-L" transform="matrix(1 0 0 1 1375.55 1556)">
   <path d="M22.7158-22.2662Q22.7158-13.9483 25.1647-7.85155Q27.6136-1.75478 33.1425 3.56912Q38.6713 8.89301 47.7373 14.6805Q56.8032 20.468 70.0903 28.1157Q71.1832 28.7567 72.3091 29.1072Q73.435 29.4577 74.2972 29.4577Q75.0786 29.4577 76.231 29.1072Q77.3834 28.7567 78.5037 28.1157Q91.7657 20.5511 100.872 14.7634Q109.978 8.97572 115.493 3.62418Q121.008-1.72736 123.443-7.83785Q125.878-13.9483 125.878-22.2662L125.878-70.292Q125.878-75.3082 123.846-77.5222Q121.815-79.7363 117.617-81.4553Q114.433-82.7219 109.324-84.676Q104.215-86.63 98.5131-88.7285Q92.8111-90.8269 87.6883-92.6601Q82.5655-94.4933 79.381-95.627Q78.1747-96.0291 76.878-96.3106Q75.5812-96.592 74.2972-96.592Q73.0128-96.592 71.7161-96.2578Q70.4193-95.9235 69.213-95.627Q66.0286-94.624 60.9197-92.8031Q55.8108-90.9822 50.0949-88.845Q44.379-86.7077 39.2298-84.7148Q34.0807-82.7219 30.9488-81.4553Q26.7793-79.7642 24.7475-77.5362Q22.7158-75.3082 22.7158-70.292ZM31.2592-24.0856L31.2592-35.2697L74.2972-35.2697L74.2972-87.8901Q74.8351-87.8901 75.5374-87.7268Q76.2397-87.5634 77.1042-87.2394Q80.4393-85.9326 85.3737-84.0816Q90.3081-82.2306 95.7982-80.1885Q101.288-78.1465 106.276-76.3345Q111.263-74.5225 114.623-73.3743Q116.249-72.7231 116.765-71.719Q117.282-70.7148 117.282-68.6736L117.282-35.2697L74.2972-35.2697L74.2972 19.7812Q73.5177 19.7812 72.6331 19.4307Q71.7485 19.0803 70.4997 18.3615Q59.5877 11.5985 52.0609 6.75566Q44.5341 1.91285 39.9538-2.4312Q35.3734-6.77525 33.3163-11.8403Q31.2592-16.9054 31.2592-24.0856Z"/>
  </g>
  <g id="Light-L" transform="matrix(1 0 0 1 1080.29 1556)">
   <path d="M22.3532-21.6172Q22.3532-13.7194 24.7161-7.96603Q27.0791-2.21267 32.4553 2.87265Q37.8315 7.95798 46.7161 13.6881Q55.6007 19.4181 68.6781 27.2377Q69.6374 27.8217 70.7632 28.2198Q71.8891 28.6179 72.8469 28.6179Q73.7235 28.6179 74.8664 28.2198Q76.0094 27.8217 77.0149 27.2377Q90.1053 19.5587 99.0302 13.8282Q107.955 8.09776 113.308 2.96571Q118.66-2.16634 121-7.94286Q123.34-13.7194 123.34-21.6172L123.34-69.3758Q123.34-74.4684 121.432-76.7397Q119.525-79.011 114.983-80.8063Q111.322-82.2256 106.461-84.1129Q101.6-86.0003 96.3756-87.9652Q91.1508-89.93 86.2665-91.6964Q81.3822-93.4627 77.7207-94.7683Q76.5144-95.1704 75.2939-95.4518Q74.0735-95.7333 72.8469-95.7333Q71.6196-95.7333 70.3991-95.4181Q69.1787-95.103 67.9724-94.7683Q64.3108-93.5171 59.4501-91.7438Q54.5894-89.9706 49.341-87.9956Q44.0926-86.0205 39.1917-84.1231Q34.2908-82.2256 30.6625-80.8063Q26.1684-79.0581 24.2608-76.7632Q22.3532-74.4684 22.3532-69.3758ZM28.9117-22.7498L28.9117-35.2697L72.8469-35.2697L72.8469-89.0733Q73.4229-89.0733 74.2491-88.8527Q75.0754-88.6321 76.0926-88.2511Q79.0653-87.0969 84.0473-85.2172Q89.0294-83.3375 94.7008-81.1904Q100.372-79.0433 105.388-77.1741Q110.404-75.3049 113.363-74.2522Q115.39-73.4292 116.069-72.1483Q116.747-70.8674 116.747-68.139L116.747-35.2697L72.8469-35.2697L72.8469 21.3653Q72.0289 21.3653 71.1443 20.9672Q70.2597 20.5691 69.2591 19.9648Q58.309 13.0299 50.6104 8.09167Q42.9119 3.15347 38.1121-1.21928Q33.3123-5.59203 31.112-10.6284Q28.9117-15.6648 28.9117-22.7498Z"/>
  </g>
  <g id="Thin-L" transform="matrix(1 0 0 1 785.494 1556)">
   <path d="M21.8735-20.7589Q21.8735-13.4166 24.1228-8.11743Q26.3721-2.81828 31.5465 1.95152Q36.7208 6.72132 45.3656 12.3755Q54.0104 18.0297 66.8104 26.0765Q67.5928 26.585 68.7187 27.0461Q69.8446 27.5072 70.9287 27.5072Q71.9313 27.5072 73.0617 27.0461Q74.1921 26.585 75.0459 26.0765Q87.9094 18.2461 96.5944 12.5914Q105.279 6.9366 110.417 2.09484Q115.555-2.74692 117.769-8.08175Q119.983-13.4166 119.983-20.7589L119.983-68.1642Q119.983-73.3577 118.239-75.7047Q116.496-78.0517 111.5-79.9479Q107.207-81.5691 102.675-83.3682Q98.1424-85.1674 93.5486-86.9556Q88.9548-88.7439 84.3861-90.4218Q79.8173-92.0997 75.5247-93.6326Q74.3184-94.0347 73.1989-94.3161Q72.0794-94.5976 70.9287-94.5976Q69.7769-94.5976 68.6574-94.3077Q67.5379-94.0177 66.3316-93.6326Q62.0389-92.0531 57.5065-90.3428Q52.974-88.6326 48.3439-86.8721Q43.7139-85.1117 39.1412-83.3404Q34.5685-81.5691 30.2838-79.9479Q25.3605-78.1242 23.617-75.741Q21.8735-73.3577 21.8735-68.1642ZM25.8069-20.983L25.8069-35.2697L70.9287-35.2697L70.9287-90.6383Q71.5552-90.6383 72.5454-90.342Q73.5355-90.0457 74.7546-89.5891Q77.2481-88.6368 82.2931-86.7191Q87.3381-84.8014 93.2493-82.5155Q99.1605-80.2295 104.215-78.2846Q109.269-76.3397 111.697-75.4134Q114.255-74.3631 115.148-72.7162Q116.04-71.0693 116.04-67.4321L116.04-35.2697L70.9287-35.2697L70.9287 23.4603Q70.0598 23.4603 69.1752 22.9992Q68.2906 22.5381 67.6183 22.0853Q56.6177 14.923 48.692 9.85865Q40.7664 4.79429 35.6763 0.383579Q30.5862-4.02713 28.1965-9.02555Q25.8069-14.024 25.8069-20.983Z"/>
  </g>
  <g id="Ultralight-L" transform="matrix(1 0 0 1 489.766 1556)">
   <path d="M21.6278-20.3192Q21.6278-13.2615 23.8189-8.19498Q26.01-3.12847 31.081 1.47972Q36.1519 6.08791 44.6739 11.7032Q53.1958 17.3185 65.8538 25.4818Q66.5456 25.9516 67.6715 26.445Q68.7974 26.9383 69.9463 26.9383Q71.0133 26.9383 72.1373 26.445Q73.2613 25.9516 74.0373 25.4818Q86.7846 17.5739 95.3468 11.9579Q103.909 6.34185 108.937 1.64878Q113.965-3.0443 116.114-8.15289Q118.263-13.2615 118.263-20.3192L118.263-67.5436Q118.263-72.7888 116.604-75.1746Q114.944-77.5603 109.716-79.5083Q105.1-81.2328 100.736-82.9868Q96.3712-84.7407 92.1006-86.4385Q87.8301-88.1363 83.4229-89.7689Q79.0158-91.4015 74.4-93.0508Q73.1937-93.4529 72.1258-93.7344Q71.058-94.0159 69.9463-94.0159Q68.8331-94.0159 67.7653-93.7389Q66.6974-93.4619 65.4911-93.0508Q60.8753-91.3033 56.511-89.6253Q52.1466-87.9472 47.8333-86.2967Q43.5199-84.6462 39.1154-82.9395Q34.7108-81.2328 30.0898-79.5083Q24.9467-77.6459 23.2873-75.2174Q21.6278-72.7888 21.6278-67.5436ZM24.2166-20.0781L24.2166-35.2697L69.9463-35.2697L69.9463-91.4398Q70.5986-91.4398 71.6727-91.1047Q72.7468-90.7696 74.0692-90.2744Q76.3173-89.4255 81.3946-87.4884Q86.4718-85.5513 92.5059-83.1942Q98.5399-80.8371 103.613-78.8534Q108.687-76.8697 110.844-76.0081Q113.673-74.8414 114.676-73.007Q115.678-71.1727 115.678-67.07L115.678-35.2697L69.9463-35.2697L69.9463 24.5333Q69.0513 24.5333 68.1667 24.04Q67.2821 23.5467 66.7779 23.1714Q55.7514 15.8927 47.7094 10.7637Q39.6675 5.6347 34.4287 1.20456Q29.1899-3.22559 26.7033-8.20458Q24.2166-13.1836 24.2166-20.0781Z"/>
  </g>
  <g id="Black-M" transform="matrix(1 0 0 1 2871.68 1126)">
   <path d="M17.4976-25.2394Q17.4976-18.6028 19.6639-13.3175Q21.8302-8.03211 26.5442-3.43625Q31.2582 1.1596 38.9164 5.73725Q46.5747 10.3149 57.6211 15.6447Q58.62 16.0921 59.7206 16.4522Q60.8213 16.8123 61.7232 16.8123Q62.6199 16.8123 63.7233 16.4522Q64.8267 16.0921 65.8253 15.6447Q76.866 10.314 84.5268 5.7364Q92.1877 1.15876 96.9018-3.43682Q101.616-8.03239 103.782-13.3176Q105.949-18.6028 105.949-25.2394L105.949-60.1244Q105.949-66.7215 103.72-70.2845Q101.491-73.8474 95.4895-76.4056Q94.0219-77.042 90.6094-78.175Q87.1969-79.308 83.2072-80.6004Q79.2175-81.8927 75.9194-82.9037Q72.6212-83.9147 71.382-84.312Q69.1913-84.9661 66.5297-85.3554Q63.8681-85.7448 61.7232-85.7448Q59.5783-85.7448 56.9453-85.35Q54.3122-84.9551 52.0644-84.312Q50.8252-83.9885 47.5269-82.9519Q44.2286-81.9152 40.2391-80.6458Q36.2496-79.3764 32.8345-78.2092Q29.4193-77.042 27.9572-76.4056Q21.9557-73.8472 19.7267-70.2843Q17.4976-66.7215 17.4976-60.1244ZM33.0545-27.1448L33.0545-35.2606L61.6661-35.2606L61.6661-70.5139Q62.7816-70.5139 63.927-70.2526Q65.0724-69.9913 66.996-69.4056Q68.0507-69.076 70.5633-68.2455Q73.0759-67.4151 76.3237-66.295Q79.5715-65.175 82.8033-64.0076Q86.0351-62.8402 88.4088-61.899Q89.4983-61.4758 89.9423-60.6986Q90.3864-59.9214 90.3864-58.3794L90.3864-35.2606L61.7232-35.2606L61.7232 0.106487Q61.4485 0.106487 61.1057-0.0252285Q60.763-0.156944 59.8558-0.729801Q51.902-5.71684 46.6942-8.98912Q41.4864-12.2614 38.5015-14.8235Q35.5166-17.3855 34.2856-20.2004Q33.0545-23.0152 33.0545-27.1448Z"/>
  </g>
  <g id="Heavy-M" transform="matrix(1 0 0 1 2575.75 1126)">
   <path d="M17.5703-25.3142Q17.5703-18.6665 19.6846-13.4676Q21.799-8.26862 26.4319-3.75189Q31.0648 0.764843 38.5977 5.32806Q46.1306 9.89127 57.0277 15.3384Q58.0087 15.8051 59.0554 16.1379Q60.1022 16.4707 60.936 16.4707Q61.7511 16.4707 62.8061 16.1379Q63.8611 15.8051 64.8443 15.3384Q75.7272 9.89811 83.2695 5.33488Q90.8117 0.771643 95.4435-3.74736Q100.075-8.26637 102.188-13.4664Q104.302-18.6665 104.302-25.3142L104.302-60.7832Q104.302-66.7303 102.211-69.8495Q100.119-72.9687 94.8132-75.2272Q93.1739-75.9245 89.5992-77.1564Q86.0246-78.3882 81.8698-79.7772Q77.715-81.1662 74.2265-82.2827Q70.7379-83.3993 69.2731-83.887Q67.3788-84.4603 65.098-84.8092Q62.8172-85.1581 60.936-85.1581Q59.0548-85.1581 56.7958-84.7928Q54.5368-84.4275 52.5989-83.887Q51.1341-83.4899 47.6467-82.3586Q44.1593-81.2272 40.0033-79.8448Q35.8474-78.4624 32.2634-77.1934Q28.6794-75.9245 27.0565-75.2272Q21.7526-72.971 19.6614-69.8507Q17.5703-66.7303 17.5703-60.7832ZM31.2848-27.1949L31.2848-35.2606L60.8924-35.2606L60.8924-71.6561Q61.8378-71.6561 62.8247-71.4343Q63.8115-71.2125 65.4187-70.7134Q66.883-70.2022 69.6984-69.2331Q72.5138-68.264 75.9746-67.0491Q79.4353-65.8342 82.8124-64.6187Q86.1895-63.4031 88.6712-62.4613Q89.7471-62.042 90.1589-61.3019Q90.5708-60.5617 90.5708-59.1028L90.5708-35.2606L60.936-35.2606L60.936 1.61228Q60.5888 1.61228 60.1652 1.45397Q59.7416 1.29566 58.7868 0.711191Q50.7201-4.31234 45.3882-7.68499Q40.0563-11.0576 36.9679-13.8055Q33.8796-16.5533 32.5822-19.6338Q31.2848-22.7143 31.2848-27.1949Z"/>
  </g>
  <g id="Bold-M" transform="matrix(1 0 0 1 2279.92 1126)">
   <path d="M17.6516-25.3978Q17.6516-18.7377 19.7078-13.6354Q21.7641-8.5332 26.3063-4.10498Q30.8485 0.323246 38.2412 4.87032Q45.6339 9.4174 56.3639 14.9958Q57.3248 15.4841 58.3112 15.7864Q59.2977 16.0886 60.0554 16.0886Q60.7793 16.0886 61.7801 15.7864Q62.7809 15.4841 63.7469 14.9958Q74.4534 9.43284 81.863 4.88572Q89.2725 0.3386 93.8121-4.09476Q98.3517-8.52811 100.405-13.6329Q102.459-18.7377 102.459-25.3978L102.459-61.5201Q102.459-66.7401 100.522-69.3629Q98.5854-71.9858 94.0567-73.909Q92.2253-74.6744 88.4693-76.0168Q84.7133-77.3593 80.3737-78.8564Q76.0342-80.3535 72.3327-81.5881Q68.6312-82.8228 66.914-83.4116Q65.3513-83.8945 63.4965-84.1982Q61.6416-84.5019 60.0554-84.5019Q58.4692-84.5019 56.6286-84.1695Q54.788-83.8372 53.1968-83.4116Q51.4796-82.9321 47.7807-81.6949Q44.0818-80.4576 39.7396-78.9488Q35.3975-77.4399 31.6246-76.0571Q27.8517-74.6744 26.0489-73.909Q21.5254-71.991 19.5885-69.3655Q17.6516-66.7401 17.6516-61.5201ZM29.305-27.2509L29.305-35.2606L60.0269-35.2606L60.0269-72.9338Q60.7821-72.9338 61.5915-72.7562Q62.401-72.5785 63.6542-72.1764Q65.5767-71.4619 68.7309-70.3378Q71.8851-69.2137 75.584-67.8926Q79.2829-66.5715 82.8226-65.3022Q86.3623-64.0329 88.9648-63.0903Q90.0254-62.6754 90.4012-61.9767Q90.7771-61.2779 90.7771-59.912L90.7771-35.2606L60.0554-35.2606L60.0554 3.29672Q59.6271 3.29672 59.113 3.10866Q58.599 2.92061 57.5909 2.32315Q49.3979-2.74122 43.9272-6.22614Q38.4566-9.71106 35.2524-12.6667Q32.0482-15.6223 30.6766-19Q29.305-22.3776 29.305-27.2509Z"/>
  </g>
  <g id="Semibold-M" transform="matrix(1 0 0 1 1983.82 1126)">
   <path d="M17.7076-25.4554Q17.7076-18.7868 19.7238-13.7512Q21.7401-8.7156 26.2197-4.34839Q30.6994 0.018812 37.9954 4.55476Q45.2914 9.09071 55.9062 14.7596Q56.8533 15.2628 57.7982 15.544Q58.7431 15.8252 59.4484 15.8252Q60.1094 15.8252 61.0728 15.544Q62.0362 15.2628 62.9904 14.7596Q73.5753 9.11208 80.8933 4.57607Q88.2114 0.0400627 92.6875-4.33425Q97.1636-8.70856 99.1763-13.7477Q101.189-18.7868 101.189-25.4554L101.189-62.0282Q101.189-66.7469 99.3584-69.0275Q97.5278-71.3081 93.5352-73.0002Q91.5714-73.8126 87.6903-75.2312Q83.8093-76.6499 79.3424-78.2216Q74.8755-79.7932 71.0271-81.1093Q67.1788-82.4254 65.2876-83.0839Q63.9536-83.5044 62.3924-83.7769Q60.8311-84.0495 59.4484-84.0495Q58.0655-84.0495 56.5133-83.7399Q54.9612-83.4303 53.609-83.0839Q51.7178-82.5476 47.873-81.2373Q44.0283-79.927 39.5578-78.331Q35.0873-76.735 31.1842-75.2738Q27.2811-73.8126 25.3542-73.0002Q21.3688-71.3153 19.5382-69.0311Q17.7076-66.7469 17.7076-62.0282ZM27.9402-27.2896L27.9402-35.2606L59.4302-35.2606L59.4302-73.8146Q60.0543-73.8146 60.7414-73.6674Q61.4286-73.5203 62.4378-73.185Q64.6762-72.3304 68.0639-71.0994Q71.4516-69.8685 75.3147-68.4741Q79.1779-67.0798 82.8296-65.7734Q86.4814-64.467 89.1672-63.5239Q90.2172-63.1121 90.5682-62.4419Q90.9193-61.7717 90.9193-60.4699L90.9193-35.2606L59.4484-35.2606L59.4484 4.45796Q58.9641 4.45796 58.3877 4.2494Q57.8113 4.04084 56.7665 3.43442Q48.4864-1.65809 42.9201-5.22042Q37.3538-8.78274 34.0698-11.8816Q30.7857-14.9805 29.363-18.563Q27.9402-22.1455 27.9402-27.2896Z"/>
  </g>
  <g id="Medium-M" transform="matrix(1 0 0 1 1687.57 1126)">
   <path d="M17.7501-25.4991Q17.7501-18.824 19.736-13.839Q21.7218-8.8539 26.1541-4.53296Q30.5863-0.212023 37.809 4.31549Q45.0317 8.84301 55.5592 14.5806Q56.4958 15.095 57.4092 15.3602Q58.3226 15.6255 58.9881 15.6255Q59.6014 15.6255 60.5365 15.3602Q61.4716 15.095 62.4167 14.5806Q72.9094 8.86887 80.1581 4.34129Q87.4068-0.186301 91.8348-4.51584Q96.2627-8.84537 98.2443-13.8347Q100.226-18.824 100.226-25.4991L100.226-62.4134Q100.226-66.752 98.4759-68.7732Q96.7259-70.7943 93.1398-72.3112Q91.0755-73.1591 87.0997-74.6356Q83.1238-76.1121 78.5603-77.7402Q73.9968-79.3684 70.0372-80.7462Q66.0776-82.124 64.0544-82.8354Q62.8938-83.2086 61.5552-83.4575Q60.2166-83.7064 58.9881-83.7064Q57.7593-83.7064 56.4259-83.4141Q55.0925-83.1218 53.9215-82.8354Q51.8984-82.256 47.9431-80.8904Q43.9878-79.5247 39.42-77.8626Q34.8522-76.2005 30.8503-74.6798Q26.8484-73.1591 24.8275-72.3112Q21.25-70.803 19.5001-68.7775Q17.7501-66.752 17.7501-62.4134ZM26.9053-27.3189L26.9053-35.2606L58.9778-35.2606L58.9778-74.4825Q59.5024-74.4825 60.0968-74.3584Q60.6913-74.2344 61.5154-73.9498Q63.9933-72.9889 67.5581-71.6769Q71.1229-70.3649 75.1106-68.9151Q79.0982-67.4653 82.835-66.1307Q86.5717-64.7962 89.3207-63.8527Q90.3627-63.4432 90.6949-62.7946Q91.0271-62.1461 91.0271-60.8929L91.0271-35.2606L58.9881-35.2606L58.9881 5.33846Q58.4614 5.33846 57.8377 5.11435Q57.214 4.89024 56.1414 4.27704Q47.7953-0.836822 42.1564-4.45783Q36.5175-8.07885 33.173-11.2863Q29.8285-14.4938 28.3669-18.2317Q26.9053-21.9696 26.9053-27.3189Z"/>
  </g>
  <g id="Regular-M" transform="matrix(1 0 0 1 1391.46 1126)">
   <path d="M17.8056-25.5561Q17.8056-18.8726 19.7518-13.9534Q21.698-9.03429 26.0684-4.7737Q30.4389-0.513111 37.566 4.0034Q44.693 8.51991 55.1066 14.347Q56.0296 14.8761 56.9018 15.1205Q57.7741 15.3649 58.3877 15.3649Q58.9387 15.3649 59.8369 15.1205Q60.7351 14.8761 61.6685 14.347Q72.0409 8.55164 79.1991 4.03504Q86.3574-0.481557 90.7225-4.7527Q95.0876-9.02384 97.0286-13.9482Q98.9696-18.8726 98.9696-25.5561L98.9696-62.9159Q98.9696-66.7587 97.3248-68.4414Q95.68-70.1241 92.624-71.4124Q90.4288-72.3067 86.3292-73.8586Q82.2297-75.4105 77.5403-77.1124Q72.8508-78.8142 68.746-80.2726Q64.6412-81.7309 62.446-82.5113Q61.5114-82.8228 60.4633-83.0409Q59.4151-83.259 58.3877-83.259Q57.36-83.259 56.3119-82.9891Q55.2638-82.7193 54.3292-82.5113Q52.134-81.8757 48.0344-80.4378Q43.9349-79 39.2402-77.2517Q34.5454-75.5034 30.4147-73.9051Q26.2841-72.3067 24.1405-71.4124Q21.0951-70.1347 19.4503-68.4467Q17.8056-66.7587 17.8056-62.9159ZM25.5555-27.3571L25.5555-35.2606L58.3877-35.2606L58.3877-75.3536Q58.7826-75.3536 59.2561-75.2597Q59.7296-75.1657 60.3124-74.9473Q63.1027-73.8479 66.8985-72.4301Q70.6942-71.0124 74.8443-69.4902Q78.9943-67.968 82.8419-66.5968Q86.6895-65.2256 89.5209-64.2816Q90.5524-63.875 90.8601-63.2547Q91.1678-62.6345 91.1678-61.4446L91.1678-35.2606L58.3877-35.2606L58.3877 6.48695Q57.8056 6.48695 57.1203 6.24255Q56.4349 5.99816 55.3261 5.3761Q46.8938 0.2344 41.1603-3.46316Q35.4268-7.16072 32.0033-10.5099Q28.5798-13.8591 27.0677-17.7995Q25.5555-21.74 25.5555-27.3571Z"/>
  </g>
  <g id="Light-M" transform="matrix(1 0 0 1 1096.05 1126)">
   <path d="M17.4804-24.9743Q17.4804-18.6673 19.3496-14.0561Q21.2188-9.44482 25.4524-5.39812Q29.6859-1.35142 36.6505 3.11364Q43.615 7.57869 53.8405 13.5598Q54.6436 14.0378 55.5159 14.3249Q56.3881 14.612 57.0874 14.612Q57.7238 14.612 58.6135 14.3249Q59.5033 14.0378 60.3337 13.5598Q70.5523 7.66188 77.548 3.19659Q84.5436-1.26869 88.7633-5.34305Q92.9829-9.4174 94.8384-14.0423Q96.6939-18.6673 96.6939-24.9743L96.6939-62.0946Q96.6939-66.0058 95.1603-67.7398Q93.6268-69.4738 90.2626-70.8305Q87.6396-71.8617 83.7626-73.3538Q79.8856-74.8459 75.6239-76.428Q71.3623-78.0101 67.4713-79.4086Q63.5804-80.807 60.9574-81.7414Q60.0228-82.0529 59.0431-82.271Q58.0634-82.4891 57.0874-82.4891Q56.1109-82.4891 55.1312-82.2364Q54.1515-81.9836 53.2169-81.7414Q50.5939-80.8833 46.7169-79.4881Q42.8399-78.093 38.5643-76.4902Q34.2887-74.8873 30.3805-73.3745Q26.4724-71.8617 23.8838-70.8305Q20.5475-69.5017 19.0139-67.7537Q17.4804-66.0058 17.4804-62.0946ZM23.4509-26.1594L23.4509-35.2606L57.0874-35.2606L57.0874-76.4145Q57.5165-76.4145 58.1011-76.2692Q58.6857-76.1239 59.4054-75.8543Q61.8708-74.8917 65.7093-73.4483Q69.5477-72.0048 73.8604-70.3885Q78.173-68.7721 82.0463-67.3496Q85.9196-65.9271 88.3916-65.0687Q89.7825-64.5081 90.2355-63.6397Q90.6885-62.7713 90.6885-60.9654L90.6885-35.2606L57.0874-35.2606L57.0874 7.90712Q56.4709 7.90712 55.7855 7.62004Q55.1002 7.33295 54.2138 6.81352Q45.7473 1.51773 39.8599-2.26536Q33.9724-6.04845 30.3522-9.42334Q26.7319-12.7982 25.0914-16.713Q23.4509-20.6277 23.4509-26.1594Z"/>
  </g>
  <g id="Thin-M" transform="matrix(1 0 0 1 801.055 1126)">
   <path d="M17.0504-24.2047Q17.0504-18.3958 18.8177-14.1918Q20.585-9.98778 24.6376-6.22396Q28.6901-2.46014 35.4396 1.93685Q42.1892 6.33384 52.166 12.5188Q52.8106 12.9291 53.6828 13.2727Q54.5551 13.6162 55.3676 13.6162Q56.117 13.6162 56.9955 13.2727Q57.874 12.9291 58.5684 12.5188Q68.5835 6.48509 75.3642 2.08768Q82.1448-2.30974 86.1721-6.12383Q90.1993-9.93792 91.9417-14.1669Q93.684-18.3958 93.684-24.2047L93.684-61.0083Q93.684-65.01 92.2976-66.8119Q90.9113-68.6138 87.1394-70.061Q83.9507-71.2731 80.368-72.6861Q76.7853-74.0992 73.0894-75.5229Q69.3935-76.9467 65.7854-78.2658Q62.1774-79.5849 58.9886-80.7232Q58.054-81.0347 57.1648-81.2528Q56.2756-81.4708 55.3676-81.4708Q54.4589-81.4708 53.5696-81.2408Q52.6804-81.0107 51.7458-80.7232Q48.5571-79.5707 44.9744-78.2321Q41.3916-76.8934 37.6704-75.4829Q33.9491-74.0725 30.3353-72.6728Q26.7214-71.2731 23.5443-70.061Q19.8231-68.6645 18.4368-66.8372Q17.0504-65.01 17.0504-61.0083ZM20.6673-24.5754L20.6673-35.2606L55.3676-35.2606L55.3676-77.8175Q55.842-77.8175 56.5736-77.6043Q57.3051-77.3912 58.2058-77.0539Q60.2416-76.2723 64.1365-74.7948Q68.0314-73.3173 72.559-71.5765Q77.0867-69.8356 80.994-68.3452Q84.9014-66.8548 86.8981-66.1097Q88.7643-65.3453 89.4095-64.1488Q90.0547-62.9523 90.0547-60.3316L90.0547-35.2606L55.3676-35.2606L55.3676 9.78541Q54.7055 9.78541 54.0201 9.44187Q53.3348 9.09832 52.7427 8.71463Q44.231 3.21504 38.14-0.681166Q32.0489-4.57737 28.1684-7.9863Q24.2878-11.3952 22.4775-15.2759Q20.6673-19.1567 20.6673-24.5754Z"/>
  </g>
  <g id="Ultralight-M" transform="matrix(1 0 0 1 505.225 1126)">
   <path d="M16.8301-23.8105Q16.8301-18.2568 18.5452-14.2613Q20.2603-10.2659 24.2202-6.64695Q28.1801-3.02803 34.8195 1.33411Q41.4588 5.69624 51.3084 11.9856Q51.8717 12.3612 52.7439 12.7337Q53.6162 13.1062 54.4868 13.1062Q55.294 13.1062 56.1668 12.7337Q57.0395 12.3612 57.6642 11.9856Q67.5751 5.88235 74.2456 1.5197Q80.9162-2.84295 84.8449-6.52374Q88.7735-10.2045 90.458-14.2306Q92.1424-18.2568 92.1424-23.8105L92.1424-60.4519Q92.1424-64.4999 90.8314-66.3366Q89.5204-68.1732 85.5398-69.6668Q82.0612-70.9717 78.6293-72.3442Q75.1973-73.7167 71.7912-75.0593Q68.3851-76.402 64.9219-77.6805Q61.4587-78.959 57.9802-80.2017Q57.0456-80.5132 56.2027-80.7312Q55.3599-80.9493 54.4868-80.9493Q53.6127-80.9493 52.7698-80.7308Q51.9269-80.5123 50.9923-80.2017Q47.5138-78.8985 44.0818-77.5887Q40.6498-76.2789 37.2125-74.9671Q33.7752-73.6552 30.3121-72.3134Q26.849-70.9717 23.3704-69.6668Q19.4521-68.2356 18.1411-66.3678Q16.8301-64.4999 16.8301-60.4519ZM19.2415-23.7641L19.2415-35.2606L54.4868-35.2606L54.4868-78.5361Q54.9843-78.5361 55.7912-78.2882Q56.598-78.0403 57.5914-77.6683Q59.4071-76.9794 63.3309-75.4845Q67.2548-73.9896 71.8925-72.1849Q76.5303-70.3803 80.4551-68.8551Q84.3799-67.33 86.1332-66.643Q88.2428-65.7741 88.9864-64.4096Q89.7301-63.045 89.7301-60.0069L89.7301-35.2606L54.4868-35.2606L54.4868 10.7475Q53.8013 10.7475 53.1159 10.375Q52.4306 10.0025 51.9892 9.68836Q43.4544 4.08439 37.259 0.13025Q31.0637-3.82389 27.0498-7.25025Q23.036-10.6766 21.1387-14.5399Q19.2415-18.4032 19.2415-23.7641Z"/>
  </g>
  <g id="Black-S" transform="matrix(1 0 0 1 2884.86 696)">
   <path d="M13.6719-27.3438Q13.6719-22.168 15.3809-18.0176Q17.0898-13.8672 20.8008-10.2539Q24.5117-6.64062 30.542-3.05176Q36.5723 0.537109 45.2637 4.6875Q46.0449 5.0293 46.9238 5.32227Q47.8027 5.61523 48.5352 5.61523Q49.2676 5.61523 50.1465 5.32227Q51.0254 5.0293 51.8066 4.6875Q60.498 0.537109 66.5283-3.05176Q72.5586-6.64062 76.2695-10.2539Q79.9805-13.8672 81.6895-18.0176Q83.3984-22.168 83.3984-27.3438L83.3984-54.4922Q83.3984-59.8633 81.6162-62.793Q79.834-65.7227 74.9023-67.8223Q73.7793-68.3105 71.167-69.165Q68.5547-70.0195 65.5029-70.9961Q62.4512-71.9727 59.9365-72.7295Q57.4219-73.4863 56.4941-73.7793Q54.6875-74.3164 52.4902-74.6338Q50.293-74.9512 48.5352-74.9512Q46.7773-74.9512 44.6045-74.6338Q42.4316-74.3164 40.5762-73.7793Q39.6484-73.5352 37.1338-72.7539Q34.6191-71.9727 31.5674-71.0205Q28.5156-70.0684 25.9033-69.1895Q23.291-68.3105 22.168-67.8223Q17.2363-65.7227 15.4541-62.793Q13.6719-59.8633 13.6719-54.4922ZM26.3184-28.8086L26.3184-35.2539L48.4863-35.2539L48.4863-62.5977Q49.4141-62.5977 50.3662-62.3779Q51.3184-62.1582 52.9297-61.6699Q53.6133-61.4746 55.4932-60.8643Q57.373-60.2539 59.8633-59.3994Q62.3535-58.5449 64.8438-57.6416Q67.334-56.7383 69.1406-56.0059Q70.0195-55.6641 70.3857-55.0293Q70.752-54.3945 70.752-53.125L70.752-35.2539L48.5352-35.2539L48.5352-7.91016Q48.3398-7.91016 48.0957-8.00781Q47.8516-8.10547 47.168-8.54492Q40.9668-12.4512 36.9141-14.9902Q32.8613-17.5293 30.542-19.4824Q28.2227-21.4355 27.2705-23.5596Q26.3184-25.6836 26.3184-28.8086Z"/>
  </g>
  <g id="Heavy-S" transform="matrix(1 0 0 1 2588.66 696)">
   <path d="M13.7756-27.482Q13.7756-22.2486 15.45-18.1328Q17.1244-14.017 20.7835-10.4441Q24.4426-6.87111 30.3864-3.28801Q36.3303 0.295096 44.9179 4.52616Q45.6992 4.891 46.532 5.15516Q47.3648 5.41932 48.0281 5.41932Q48.6798 5.41932 49.5184 5.15516Q50.357 4.891 51.1382 4.52616Q59.7144 0.295096 65.664-3.28801Q71.6136-6.87111 75.2727-10.4441Q78.9317-14.017 80.6062-18.1328Q82.2806-22.2486 82.2806-27.482L82.2806-55.1606Q82.2806-59.967 80.6021-62.5106Q78.9236-65.0542 74.6258-66.8888Q73.4105-67.4116 70.6311-68.3583Q67.8517-69.305 64.604-70.3795Q61.3563-71.4541 58.6515-72.3088Q55.9467-73.1636 54.8807-73.5142Q53.3276-73.9822 51.4473-74.265Q49.5669-74.5478 48.0281-74.5478Q46.4892-74.5478 44.6275-74.2535Q42.7659-73.9591 41.1754-73.5142Q40.1094-73.2355 37.4046-72.3678Q34.6998-71.5002 31.4521-70.4328Q28.2045-69.3654 25.4193-68.3885Q22.6341-67.4116 21.4304-66.8888Q17.1326-65.0542 15.4541-62.5106Q13.7756-59.967 13.7756-55.1606ZM25.0737-29.0045L25.0737-35.2539L47.9908-35.2539L47.9908-63.4389Q48.7687-63.4389 49.571-63.2596Q50.3734-63.0802 51.6966-62.6726Q52.772-62.3044 54.9054-61.5788Q57.0388-60.8532 59.6904-59.9295Q62.342-59.0059 64.9532-58.068Q67.5645-57.1301 69.5094-56.3862Q70.3307-56.0674 70.6508-55.496Q70.9709-54.9247 70.9709-53.8049L70.9709-35.2539L48.0281-35.2539L48.0281-6.80381Q47.7751-6.80381 47.4619-6.91875Q47.1486-7.03369 46.3958-7.4962Q40.1025-11.414 35.9633-14.0279Q31.8241-16.6419 29.4414-18.7506Q27.0587-20.8593 26.0662-23.2138Q25.0737-25.5683 25.0737-29.0045Z"/>
  </g>
  <g id="Bold-S" transform="matrix(1 0 0 1 2292.52 696)">
   <path d="M13.8916-27.6367Q13.8916-22.3389 15.5273-18.2617Q17.1631-14.1846 20.7642-10.6567Q24.3652-7.12891 30.2124-3.55225Q36.0596 0.0244141 44.5312 4.3457Q45.3125 4.73633 46.0938 4.96826Q46.875 5.2002 47.4609 5.2002Q48.0225 5.2002 48.8159 4.96826Q49.6094 4.73633 50.3906 4.3457Q58.8379 0.0244141 64.6973-3.55225Q70.5566-7.12891 74.1577-10.6567Q77.7588-14.1846 79.3945-18.2617Q81.0303-22.3389 81.0303-27.6367L81.0303-55.9082Q81.0303-60.083 79.4678-62.1948Q77.9053-64.3066 74.3164-65.8447Q72.998-66.4062 70.0317-67.4561Q67.0654-68.5059 63.5986-69.6899Q60.1318-70.874 57.2144-71.8384Q54.2969-72.8027 53.0762-73.2178Q51.8066-73.6084 50.2808-73.8525Q48.7549-74.0967 47.4609-74.0967Q46.167-74.0967 44.6533-73.8281Q43.1396-73.5596 41.8457-73.2178Q40.625-72.9004 37.7075-71.936Q34.79-70.9717 31.3232-69.7754Q27.8564-68.5791 24.8779-67.4927Q21.8994-66.4062 20.6055-65.8447Q17.0166-64.3066 15.4541-62.1948Q13.8916-60.083 13.8916-55.9082ZM23.6816-29.2236L23.6816-35.2539L47.4365-35.2539L47.4365-64.3799Q48.0469-64.3799 48.6816-64.2456Q49.3164-64.1113 50.3174-63.7939Q51.8311-63.2324 54.248-62.3779Q56.665-61.5234 59.4971-60.5225Q62.3291-59.5215 65.0757-58.5449Q67.8223-57.5684 69.9219-56.8115Q70.6787-56.5186 70.9473-56.0181Q71.2158-55.5176 71.2158-54.5654L71.2158-35.2539L47.4609-35.2539L47.4609-5.56641Q47.1436-5.56641 46.7529-5.70068Q46.3623-5.83496 45.5322-6.32324Q39.1357-10.2539 34.8999-12.9517Q30.6641-15.6494 28.2104-17.9321Q25.7568-20.2148 24.7192-22.8271Q23.6816-25.4395 23.6816-29.2236Z"/>
  </g>
  <g id="Semibold-S" transform="matrix(1 0 0 1 1996.2 696)">
   <path d="M13.9716-27.7434Q13.9716-22.4011 15.5807-18.3506Q17.1897-14.3001 20.7508-10.8034Q24.3119-7.30664 30.0924-3.73442Q35.8729-0.162207 44.2646 4.22129Q45.0459 4.62969 45.7916 4.8394Q46.5373 5.04912 47.0699 5.04912Q47.5692 5.04912 48.3316 4.8394Q49.0939 4.62969 49.8752 4.22129Q58.2336-0.162207 64.0308-3.73442Q69.8279-7.30664 73.389-10.8034Q76.9501-14.3001 78.5592-18.3506Q80.1683-22.4011 80.1683-27.7434L80.1683-56.4236Q80.1683-60.163 78.6857-61.9771Q77.2032-63.7912 74.1031-65.1249Q72.7137-65.7131 69.6185-66.834Q66.5233-67.9549 62.9055-69.2145Q59.2876-70.4741 56.2235-71.514Q53.1594-72.5539 51.832-73.0134Q50.758-73.3507 49.4765-73.5682Q48.195-73.7856 47.0699-73.7856Q45.9448-73.7856 44.6711-73.5349Q43.3974-73.2841 42.3078-73.0134Q40.9805-72.6693 37.9164-71.6383Q34.8522-70.6073 31.2344-69.3222Q27.6165-68.037 24.5047-66.875Q21.3929-65.7131 20.0367-65.1249Q16.9366-63.7912 15.4541-61.9771Q13.9716-60.163 13.9716-56.4236ZM22.7219-29.3747L22.7219-35.2539L47.0544-35.2539L47.0544-65.0286Q47.5492-65.0286 48.0685-64.9254Q48.5877-64.8223 49.3665-64.5671Q51.1823-63.8723 53.7948-62.9289Q56.4073-61.9855 59.3638-60.9312Q62.3202-59.877 65.1601-58.8737Q68-57.8705 70.2062-57.1048Q70.9187-56.8296 71.1517-56.378Q71.3847-55.9264 71.3847-55.0897L71.3847-35.2539L47.0699-35.2539L47.0699-4.71328Q46.7081-4.71328 46.2642-4.86089Q45.8202-5.0085 44.9368-5.51455Q38.4692-9.4541 34.1667-12.2096Q29.8643-14.9651 27.3618-17.3678Q24.8593-19.7705 23.7906-22.5605Q22.7219-25.3506 22.7219-29.3747Z"/>
  </g>
  <g id="Medium-S" transform="matrix(1 0 0 1 1699.78 696)">
   <path d="M14.0322-27.8242Q14.0322-22.4482 15.6211-18.418Q17.21-14.3877 20.7407-10.9146Q24.2715-7.44141 30.0015-3.87256Q35.7314-0.303711 44.0625 4.12695Q44.8438 4.54883 45.5625 4.7417Q46.2812 4.93457 46.7734 4.93457Q47.2256 4.93457 47.9644 4.7417Q48.7031 4.54883 49.4844 4.12695Q57.7754-0.303711 63.5254-3.87256Q69.2754-7.44141 72.8062-10.9146Q76.3369-14.3877 77.9258-18.418Q79.5146-22.4482 79.5146-27.8242L79.5146-56.8145Q79.5146-60.2236 78.0928-61.812Q76.6709-63.4004 73.9414-64.5791Q72.498-65.1875 69.3052-66.3623Q66.1123-67.5371 62.3799-68.854Q58.6475-70.1709 55.4722-71.2681Q52.2969-72.3652 50.8887-72.8584Q49.9629-73.1553 48.8667-73.3525Q47.7705-73.5498 46.7734-73.5498Q45.7764-73.5498 44.6846-73.3125Q43.5928-73.0752 42.6582-72.8584Q41.25-72.4941 38.0747-71.4126Q34.8994-70.3311 31.167-68.9785Q27.4346-67.626 24.2217-66.4067Q21.0088-65.1875 19.6055-64.5791Q16.876-63.4004 15.4541-61.812Q14.0322-60.2236 14.0322-56.8145ZM21.9941-29.4893L21.9941-35.2539L46.7646-35.2539L46.7646-65.5205Q47.1719-65.5205 47.6035-65.4409Q48.0352-65.3613 48.6455-65.1533Q50.6904-64.3574 53.4512-63.3467Q56.2119-62.3359 59.2627-61.2412Q62.3135-60.1465 65.2241-59.123Q68.1348-58.0996 70.4219-57.3271Q71.1006-57.0654 71.3066-56.6509Q71.5127-56.2363 71.5127-55.4873L71.5127-35.2539L46.7734-35.2539L46.7734-4.06641Q46.3779-4.06641 45.8936-4.22412Q45.4092-4.38184 44.4854-4.90137Q37.9639-8.84766 33.6108-11.647Q29.2578-14.4463 26.7183-16.9399Q24.1787-19.4336 23.0864-22.3584Q21.9941-25.2832 21.9941-29.4893Z"/>
  </g>
  <g id="Regular-S" transform="matrix(1 0 0 1 1403.46 696)">
   <path d="M14.1113-27.9297Q14.1113-22.5098 15.6738-18.5059Q17.2363-14.502 20.7275-11.0596Q24.2188-7.61719 29.8828-4.05273Q35.5469-0.488281 43.7988 4.00391Q44.5801 4.44336 45.2637 4.61426Q45.9473 4.78516 46.3867 4.78516Q46.7773 4.78516 47.4854 4.61426Q48.1934 4.44336 48.9746 4.00391Q57.1777-0.488281 62.8662-4.05273Q68.5547-7.61719 72.0459-11.0596Q75.5371-14.502 77.0996-18.5059Q78.6621-22.5098 78.6621-27.9297L78.6621-57.3242Q78.6621-60.3027 77.3193-61.5967Q75.9766-62.8906 73.7305-63.8672Q72.2168-64.502 68.8965-65.7471Q65.5762-66.9922 61.6943-68.3838Q57.8125-69.7754 54.4922-70.9473Q51.1719-72.1191 49.6582-72.6562Q48.9258-72.9004 48.0713-73.0713Q47.2168-73.2422 46.3867-73.2422Q45.5566-73.2422 44.7021-73.0225Q43.8477-72.8027 43.1152-72.6562Q41.6016-72.2656 38.2812-71.1182Q34.9609-69.9707 31.0791-68.5303Q27.1973-67.0898 23.8525-65.7959Q20.5078-64.502 19.043-63.8672Q16.7969-62.8906 15.4541-61.5967Q14.1113-60.3027 14.1113-57.3242ZM21.0449-29.6387L21.0449-35.2539L46.3867-35.2539L46.3867-66.1621Q46.6797-66.1621 46.9971-66.1133Q47.3145-66.0645 47.7051-65.918Q50.0488-64.9902 53.0029-63.8916Q55.957-62.793 59.1309-61.6455Q62.3047-60.498 65.3076-59.4482Q68.3105-58.3984 70.7031-57.6172Q71.3379-57.373 71.5088-57.0068Q71.6797-56.6406 71.6797-56.0059L71.6797-35.2539L46.3867-35.2539L46.3867-3.22266Q45.9473-3.22266 45.4102-3.39355Q44.873-3.56445 43.8965-4.10156Q37.3047-8.05664 32.8857-10.9131Q28.4668-13.7695 25.8789-16.3818Q23.291-18.9941 22.168-22.0947Q21.0449-25.1953 21.0449-29.6387Z"/>
  </g>
  <g id="Light-S" transform="matrix(1 0 0 1 1107.9 696)">
   <path d="M13.8237-27.415Q13.8237-22.3282 15.318-18.5966Q16.8124-14.8651 20.1825-11.6119Q23.5527-8.35876 29.073-4.83983Q34.5932-1.3209 42.6788 3.3076Q43.354 3.70178 44.0376 3.91045Q44.7212 4.11911 45.2365 4.11911Q45.7026 4.11911 46.4031 3.91045Q47.1036 3.70178 47.7938 3.3076Q55.8609-1.27538 61.4056-4.79444Q66.9502-8.3135 70.3128-11.5818Q73.6753-14.8501 75.1621-18.5891Q76.649-22.3282 76.649-27.415L76.649-56.5976Q76.649-59.6367 75.4046-60.976Q74.1603-62.3154 71.6415-63.3525Q69.7495-64.1083 66.626-65.3005Q63.5025-66.4927 59.9991-67.7784Q56.4957-69.0641 53.3646-70.1829Q50.2335-71.3018 48.3414-71.9752Q47.6089-72.2193 46.815-72.3902Q46.021-72.5611 45.2365-72.5611Q44.4516-72.5611 43.6577-72.3565Q42.8637-72.1519 42.1313-71.9752Q40.2392-71.3877 37.1157-70.278Q33.9923-69.1683 30.4812-67.8566Q26.9702-66.5449 23.8223-65.3266Q20.6744-64.1083 18.8159-63.3525Q16.3124-62.3306 15.0681-60.9837Q13.8237-59.6367 13.8237-56.5976ZM19.1831-28.5792L19.1831-35.2539L45.2365-35.2539L45.2365-67.1005Q45.5597-67.1005 45.9754-67.0063Q46.391-66.9121 46.9027-66.7203Q48.9591-65.9136 51.951-64.7923Q54.9428-63.6709 58.2605-62.4401Q61.5781-61.2094 64.6038-60.1142Q67.6295-59.019 69.7042-58.3135Q70.6568-57.933 70.9563-57.3474Q71.2557-56.7617 71.2557-55.5819L71.2557-35.2539L45.2365-35.2539L45.2365-1.96635Q44.7665-1.96635 44.2294-2.17501Q43.6923-2.38368 42.9125-2.83Q36.2905-6.92139 31.7354-9.85349Q27.1802-12.7856 24.4183-15.4207Q21.6563-18.0557 20.4197-21.1336Q19.1831-24.2114 19.1831-28.5792Z"/>
  </g>
  <g id="Thin-S" transform="matrix(1 0 0 1 812.707 696)">
   <path d="M13.4433-26.7342Q13.4433-22.088 14.8475-18.7167Q16.2517-15.3454 19.4617-12.3425Q22.6718-9.33956 28.0018-5.88084Q33.3319-2.42211 41.1975 2.38667Q41.7325 2.72099 42.4161 2.9796Q43.0997 3.23821 43.7152 3.23821Q44.2812 3.23821 44.9718 2.9796Q45.6624 2.72099 46.2322 2.38667Q54.1193-2.31638 59.4737-5.7754Q64.8282-9.23442 68.0205-12.2725Q71.2129-15.3106 72.5996-18.6993Q73.9864-22.088 73.9864-26.7342L73.9864-55.6367Q73.9864-58.7558 72.8722-60.1552Q71.758-61.5545 68.8788-62.6717Q66.4862-63.5876 63.623-64.7099Q60.7599-65.8321 57.757-66.9777Q54.754-68.1233 51.8732-69.172Q48.9923-70.2208 46.5998-71.0745Q45.8673-71.3186 45.1534-71.4895Q44.4395-71.6604 43.7152-71.6604Q42.9902-71.6604 42.2763-71.4758Q41.5624-71.2912 40.83-71.0745Q38.4374-70.2267 35.5742-69.1669Q32.7111-68.1072 29.6905-66.9656Q26.6698-65.8241 23.7823-64.7058Q20.8947-63.5876 18.5155-62.6717Q15.6717-61.59 14.5575-60.1729Q13.4433-58.7558 13.4433-55.6367ZM16.7207-27.178L16.7207-35.2539L43.7152-35.2539L43.7152-68.3417Q44.0784-68.3417 44.6241-68.1874Q45.1698-68.0331 45.8415-67.7815Q47.5178-67.1349 50.5597-65.9834Q53.6015-64.8319 57.1093-63.491Q60.6172-62.1501 63.673-60.9949Q66.7288-59.8397 68.383-59.2344Q69.7561-58.6737 70.2256-57.7977Q70.6951-56.9218 70.6951-55.0212L70.6951-35.2539L43.7152-35.2539L43.7152-0.304782Q43.2048-0.304782 42.6677-0.563394Q42.1306-0.822006 41.6112-1.14825Q34.9491-5.41992 30.2139-8.45209Q25.4786-11.4843 22.4864-14.1494Q19.4942-16.8146 18.1075-19.8623Q16.7207-22.91 16.7207-27.178Z"/>
  </g>
  <g id="Ultralight-S" transform="matrix(1 0 0 1 516.776 696)">
   <path d="M13.2484-26.3855Q13.2484-21.965 14.6065-18.7782Q15.9645-15.5914 19.0926-12.7167Q22.2206-9.84192 27.4532-6.41403Q32.6859-2.98615 40.4388 1.91498Q40.9019 2.21863 41.5855 2.50282Q42.2691 2.78702 42.9359 2.78702Q43.5532 2.78702 44.2387 2.50282Q44.9242 2.21863 45.4323 1.91498Q53.2272-2.84958 58.4843-6.27785Q63.7413-9.70612 66.8465-12.6263Q69.9516-15.5464 71.2872-18.7557Q72.6227-21.965 72.6227-26.3855L72.6227-55.1445Q72.6227-58.3046 71.5752-59.7347Q70.5276-61.1649 67.4637-62.323Q64.8148-63.3209 62.085-64.4073Q59.3552-65.4938 56.6086-66.5676Q53.862-67.6414 51.1093-68.6543Q48.3566-69.6671 45.7077-70.6131Q44.9753-70.8572 44.3024-71.0281Q43.6295-71.199 42.9359-71.199Q42.2417-71.199 41.5688-71.0247Q40.8958-70.8504 40.1634-70.6131Q37.5145-69.632 34.7847-68.5978Q32.0549-67.5636 29.2854-66.5092Q26.516-65.4549 23.7617-64.3879Q21.0075-63.3209 18.3617-62.323Q15.3435-61.2106 14.296-59.7576Q13.2484-58.3046 13.2484-55.1445ZM15.4594-26.4603L15.4594-35.2539L42.9359-35.2539L42.9359-68.9774Q43.3197-68.9774 43.932-68.7923Q44.5442-68.6073 45.298-68.325Q46.7796-67.7605 49.847-66.5936Q52.9144-65.4266 56.5197-64.0293Q60.125-62.632 63.1962-61.446Q66.2674-60.26 67.7063-59.7061Q69.2947-59.053 69.8513-58.0284Q70.4079-57.0038 70.4079-54.734L70.4079-35.2539L42.9359-35.2539L42.9359 0.546265Q42.4049 0.546265 41.8678 0.26207Q41.3307-0.0221252 40.9447-0.286865Q34.2621-4.65088 29.4346-7.7343Q24.6071-10.8177 21.497-13.4983Q18.3868-16.1789 16.9231-19.2112Q15.4594-22.2435 15.4594-26.4603Z"/>
  </g>
 </g>
</svg>
