<?xml version="1.0" encoding="UTF-8"?>
<!--Generator: Apple Native CoreSVG 175-->
<!DOCTYPE svg
PUBLIC "-//W3C//DTD SVG 1.1//EN"
       "http://www.w3.org/Graphics/SVG/1.1/DTD/svg11.dtd">
<svg version="1.1" xmlns="http://www.w3.org/2000/svg" xmlns:xlink="http://www.w3.org/1999/xlink" width="3300" height="2200">
 <!--glyph: "uni100789.medium", point size: 100.0, font version: "17.3d3e1", template writer version: "65.1"-->
 <style>.multicolor-0:tintColor {fill:#007AFF;opacity:1.0}
.multicolor-1:white {fill:#FFFFFF;opacity:1.0}

.hierarchical-0:tertiary {fill:#8E8E8E}
.hierarchical-1:primary {fill:#212121}

.SFSymbolsPreview007AFF {fill:#007AFF;opacity:1.0}
.SFSymbolsPreviewFFFFFF {fill:#FFFFFF;opacity:1.0}
</style>
 <g id="Notes">
  <rect height="2200" id="artboard" style="fill:white;opacity:1" width="3300" x="0" y="0"/>
  <line style="fill:none;stroke:black;opacity:1;stroke-width:0.5;" x1="263" x2="3036" y1="292" y2="292"/>
  <text style="stroke:none;fill:black;font-family:sans-serif;font-size:13;font-weight:bold;" transform="matrix(1 0 0 1 263 322)">Weight/Scale Variations</text>
  <text style="stroke:none;fill:black;font-family:sans-serif;font-size:13;text-anchor:middle;" transform="matrix(1 0 0 1 559.711 322)">Ultralight</text>
  <text style="stroke:none;fill:black;font-family:sans-serif;font-size:13;text-anchor:middle;" transform="matrix(1 0 0 1 856.422 322)">Thin</text>
  <text style="stroke:none;fill:black;font-family:sans-serif;font-size:13;text-anchor:middle;" transform="matrix(1 0 0 1 1153.13 322)">Light</text>
  <text style="stroke:none;fill:black;font-family:sans-serif;font-size:13;text-anchor:middle;" transform="matrix(1 0 0 1 1449.84 322)">Regular</text>
  <text style="stroke:none;fill:black;font-family:sans-serif;font-size:13;text-anchor:middle;" transform="matrix(1 0 0 1 1746.56 322)">Medium</text>
  <text style="stroke:none;fill:black;font-family:sans-serif;font-size:13;text-anchor:middle;" transform="matrix(1 0 0 1 2043.27 322)">Semibold</text>
  <text style="stroke:none;fill:black;font-family:sans-serif;font-size:13;text-anchor:middle;" transform="matrix(1 0 0 1 2339.98 322)">Bold</text>
  <text style="stroke:none;fill:black;font-family:sans-serif;font-size:13;text-anchor:middle;" transform="matrix(1 0 0 1 2636.69 322)">Heavy</text>
  <text style="stroke:none;fill:black;font-family:sans-serif;font-size:13;text-anchor:middle;" transform="matrix(1 0 0 1 2933.4 322)">Black</text>
  <line style="fill:none;stroke:black;opacity:1;stroke-width:0.5;" x1="263" x2="3036" y1="1903" y2="1903"/>
  <g transform="matrix(1 0 0 1 263 1933)">
   <path d="M9.24805 0.830078Q10.8691 0.830078 12.2949 0.214844Q13.7207-0.400391 14.8096-1.49414Q15.8984-2.58789 16.5186-4.01367Q17.1387-5.43945 17.1387-7.05078Q17.1387-8.66211 16.5186-10.0879Q15.8984-11.5137 14.8047-12.6074Q13.7109-13.7012 12.2852-14.3164Q10.8594-14.9316 9.23828-14.9316Q7.62695-14.9316 6.20117-14.3164Q4.77539-13.7012 3.69141-12.6074Q2.60742-11.5137 1.9873-10.0879Q1.36719-8.66211 1.36719-7.05078Q1.36719-5.43945 1.9873-4.01367Q2.60742-2.58789 3.69629-1.49414Q4.78516-0.400391 6.21094 0.214844Q7.63672 0.830078 9.24805 0.830078ZM9.24805-0.654297Q7.91992-0.654297 6.7627-1.14746Q5.60547-1.64062 4.73145-2.51953Q3.85742-3.39844 3.36426-4.56055Q2.87109-5.72266 2.87109-7.05078Q2.87109-8.37891 3.35938-9.54102Q3.84766-10.7031 4.72168-11.582Q5.5957-12.4609 6.75293-12.9541Q7.91016-13.4473 9.23828-13.4473Q10.5762-13.4473 11.7334-12.9541Q12.8906-12.4609 13.7695-11.582Q14.6484-10.7031 15.1465-9.54102Q15.6445-8.37891 15.6445-7.05078Q15.6445-5.72266 15.1514-4.56055Q14.6582-3.39844 13.7842-2.51953Q12.9102-1.64062 11.748-1.14746Q10.5859-0.654297 9.24805-0.654297ZM5.6543-7.05078Q5.6543-6.72852 5.85938-6.52832Q6.06445-6.32812 6.40625-6.32812L8.51562-6.32812L8.51562-4.20898Q8.51562-3.88672 8.71094-3.67676Q8.90625-3.4668 9.23828-3.4668Q9.56055-3.4668 9.77051-3.67676Q9.98047-3.88672 9.98047-4.20898L9.98047-6.32812L12.0898-6.32812Q12.4219-6.32812 12.627-6.52832Q12.832-6.72852 12.832-7.05078Q12.832-7.38281 12.627-7.58789Q12.4219-7.79297 12.0898-7.79297L9.98047-7.79297L9.98047-9.90234Q9.98047-10.2344 9.77051-10.4443Q9.56055-10.6543 9.23828-10.6543Q8.90625-10.6543 8.71094-10.4443Q8.51562-10.2344 8.51562-9.90234L8.51562-7.79297L6.40625-7.79297Q6.06445-7.79297 5.85938-7.58789Q5.6543-7.38281 5.6543-7.05078Z"/>
  </g>
  <g transform="matrix(1 0 0 1 281.867 1933)">
   <path d="M11.709 2.91016Q13.75 2.91016 15.5518 2.12891Q17.3535 1.34766 18.7305-0.0292969Q20.1074-1.40625 20.8887-3.20801Q21.6699-5.00977 21.6699-7.05078Q21.6699-9.0918 20.8887-10.8936Q20.1074-12.6953 18.7305-14.0723Q17.3535-15.4492 15.5469-16.2305Q13.7402-17.0117 11.6992-17.0117Q9.6582-17.0117 7.85645-16.2305Q6.05469-15.4492 4.68262-14.0723Q3.31055-12.6953 2.5293-10.8936Q1.74805-9.0918 1.74805-7.05078Q1.74805-5.00977 2.5293-3.20801Q3.31055-1.40625 4.6875-0.0292969Q6.06445 1.34766 7.86621 2.12891Q9.66797 2.91016 11.709 2.91016ZM11.709 1.25Q9.98047 1.25 8.47656 0.605469Q6.97266-0.0390625 5.83496-1.17676Q4.69727-2.31445 4.05762-3.81836Q3.41797-5.32227 3.41797-7.05078Q3.41797-8.7793 4.05762-10.2832Q4.69727-11.7871 5.83008-12.9297Q6.96289-14.0723 8.4668-14.7119Q9.9707-15.3516 11.6992-15.3516Q13.4277-15.3516 14.9316-14.7119Q16.4355-14.0723 17.5781-12.9297Q18.7207-11.7871 19.3652-10.2832Q20.0098-8.7793 20.0098-7.05078Q20.0098-5.32227 19.3701-3.81836Q18.7305-2.31445 17.5928-1.17676Q16.4551-0.0390625 14.9463 0.605469Q13.4375 1.25 11.709 1.25ZM7.17773-7.05078Q7.17773-6.69922 7.41211-6.47461Q7.64648-6.25 8.01758-6.25L10.8887-6.25L10.8887-3.36914Q10.8887-2.99805 11.1133-2.76855Q11.3379-2.53906 11.6895-2.53906Q12.0605-2.53906 12.29-2.76855Q12.5195-2.99805 12.5195-3.36914L12.5195-6.25L15.4004-6.25Q15.7715-6.25 16.001-6.47461Q16.2305-6.69922 16.2305-7.05078Q16.2305-7.42188 16.001-7.65137Q15.7715-7.88086 15.4004-7.88086L12.5195-7.88086L12.5195-10.752Q12.5195-11.1328 12.29-11.3623Q12.0605-11.5918 11.6895-11.5918Q11.3379-11.5918 11.1133-11.3574Q10.8887-11.123 10.8887-10.752L10.8887-7.88086L8.01758-7.88086Q7.63672-7.88086 7.40723-7.65137Q7.17773-7.42188 7.17773-7.05078Z"/>
  </g>
  <g transform="matrix(1 0 0 1 305.646 1933)">
   <path d="M14.9707 5.66406Q17.0605 5.66406 18.96 5.01465Q20.8594 4.36523 22.4512 3.19336Q24.043 2.02148 25.2197 0.429688Q26.3965-1.16211 27.0459-3.06641Q27.6953-4.9707 27.6953-7.05078Q27.6953-9.14062 27.0459-11.04Q26.3965-12.9395 25.2197-14.5312Q24.043-16.123 22.4512-17.2998Q20.8594-18.4766 18.9551-19.126Q17.0508-19.7754 14.9609-19.7754Q12.8711-19.7754 10.9717-19.126Q9.07227-18.4766 7.48535-17.2998Q5.89844-16.123 4.72168-14.5312Q3.54492-12.9395 2.90039-11.04Q2.25586-9.14062 2.25586-7.05078Q2.25586-4.9707 2.90527-3.06641Q3.55469-1.16211 4.72656 0.429688Q5.89844 2.02148 7.49023 3.19336Q9.08203 4.36523 10.9814 5.01465Q12.8809 5.66406 14.9707 5.66406ZM14.9707 3.84766Q13.1641 3.84766 11.5283 3.2959Q9.89258 2.74414 8.53516 1.74805Q7.17773 0.751953 6.17676-0.610352Q5.17578-1.97266 4.62891-3.6084Q4.08203-5.24414 4.08203-7.05078Q4.08203-8.86719 4.62891-10.5029Q5.17578-12.1387 6.17188-13.501Q7.16797-14.8633 8.52539-15.8594Q9.88281-16.8555 11.5186-17.4023Q13.1543-17.9492 14.9609-17.9492Q16.7773-17.9492 18.4131-17.4023Q20.0488-16.8555 21.4111-15.8594Q22.7734-14.8633 23.7695-13.501Q24.7656-12.1387 25.3174-10.5029Q25.8691-8.86719 25.8691-7.05078Q25.8789-5.24414 25.332-3.6084Q24.7852-1.97266 23.7842-0.610352Q22.7832 0.751953 21.4209 1.74805Q20.0586 2.74414 18.4229 3.2959Q16.7871 3.84766 14.9707 3.84766ZM9.19922-7.05078Q9.19922-6.66992 9.45801-6.4209Q9.7168-6.17188 10.1172-6.17188L14.0625-6.17188L14.0625-2.2168Q14.0625-1.81641 14.3115-1.55762Q14.5605-1.29883 14.9512-1.29883Q15.3516-1.29883 15.6104-1.55273Q15.8691-1.80664 15.8691-2.2168L15.8691-6.17188L19.8242-6.17188Q20.2246-6.17188 20.4785-6.4209Q20.7324-6.66992 20.7324-7.05078Q20.7324-7.46094 20.4785-7.71484Q20.2246-7.96875 19.8242-7.96875L15.8691-7.96875L15.8691-11.9141Q15.8691-12.3242 15.6104-12.583Q15.3516-12.8418 14.9512-12.8418Q14.5605-12.8418 14.3115-12.583Q14.0625-12.3242 14.0625-11.9141L14.0625-7.96875L10.1172-7.96875Q9.70703-7.96875 9.45312-7.71484Q9.19922-7.46094 9.19922-7.05078Z"/>
  </g>
  <text style="stroke:none;fill:black;font-family:sans-serif;font-size:13;font-weight:bold;" transform="matrix(1 0 0 1 263 1953)">Design Variations</text>
  <text style="stroke:none;fill:black;font-family:sans-serif;font-size:13;" transform="matrix(1 0 0 1 263 1971)">Symbols are supported in up to nine weights and three scales.</text>
  <text style="stroke:none;fill:black;font-family:sans-serif;font-size:13;" transform="matrix(1 0 0 1 263 1989)">For optimal layout with text and other symbols, vertically align</text>
  <text style="stroke:none;fill:black;font-family:sans-serif;font-size:13;" transform="matrix(1 0 0 1 263 2007)">symbols with the adjacent text.</text>
  <line style="fill:none;stroke:#00AEEF;stroke-width:0.5;opacity:1.0;" x1="776" x2="776" y1="1919" y2="1933"/>
  <g transform="matrix(1 0 0 1 776 1933)">
   <path d="M3.31055 0.15625Q3.70117 0.15625 3.91602-0.00976562Q4.13086-0.175781 4.26758-0.585938L5.52734-4.0332L11.2891-4.0332L12.5488-0.585938Q12.6855-0.175781 12.9004-0.00976562Q13.1152 0.15625 13.4961 0.15625Q13.8867 0.15625 14.1162-0.0585938Q14.3457-0.273438 14.3457-0.644531Q14.3457-0.869141 14.2383-1.17188L9.6582-13.3691Q9.48242-13.8184 9.17969-14.043Q8.87695-14.2676 8.4082-14.2676Q7.5-14.2676 7.17773-13.3789L2.59766-1.16211Q2.49023-0.859375 2.49023-0.634766Q2.49023-0.263672 2.70996-0.0537109Q2.92969 0.15625 3.31055 0.15625ZM6.00586-5.51758L8.37891-12.0898L8.42773-12.0898L10.8008-5.51758Z"/>
  </g>
  <line style="fill:none;stroke:#00AEEF;stroke-width:0.5;opacity:1.0;" x1="793.197" x2="793.197" y1="1919" y2="1933"/>
  <text style="stroke:none;fill:black;font-family:sans-serif;font-size:13;font-weight:bold;" transform="matrix(1 0 0 1 776 1953)">Margins</text>
  <text style="stroke:none;fill:black;font-family:sans-serif;font-size:13;" transform="matrix(1 0 0 1 776 1971)">Leading and trailing margins on the left and right side of each symbol</text>
  <text style="stroke:none;fill:black;font-family:sans-serif;font-size:13;" transform="matrix(1 0 0 1 776 1989)">can be adjusted by modifying the x-location of the margin guidelines.</text>
  <text style="stroke:none;fill:black;font-family:sans-serif;font-size:13;" transform="matrix(1 0 0 1 776 2007)">Modifications are automatically applied proportionally to all</text>
  <text style="stroke:none;fill:black;font-family:sans-serif;font-size:13;" transform="matrix(1 0 0 1 776 2025)">scales and weights.</text>
  <g transform="matrix(1 0 0 1 1289 1933)">
   <path d="M2.8418 1.86523L4.54102 3.57422Q5.18555 4.22852 5.90332 4.17969Q6.62109 4.13086 7.31445 3.35938L18.0078-8.42773L17.041-9.4043L6.42578 2.27539Q6.16211 2.57812 5.89355 2.61719Q5.625 2.65625 5.27344 2.30469L4.10156 1.14258Q3.75 0.791016 3.79395 0.522461Q3.83789 0.253906 4.14062-0.0195312L15.6152-10.8203L14.6387-11.7871L3.04688-0.898438Q2.30469-0.214844 2.25098 0.498047Q2.19727 1.21094 2.8418 1.86523ZM9.25781-16.3281Q8.94531-16.0254 8.90625-15.6348Q8.86719-15.2441 9.04297-14.9512Q9.21875-14.6777 9.55566-14.541Q9.89258-14.4043 10.3809-14.5215Q11.4746-14.7754 12.5977-14.7314Q13.7207-14.6875 14.7949-13.9844L14.209-12.5293Q13.9551-11.9043 14.0674-11.4404Q14.1797-10.9766 14.5801-10.5664L16.875-8.25195Q17.2363-7.88086 17.5781-7.82227Q17.9199-7.76367 18.3398-7.8418L19.4043-8.03711L20.0684-7.36328L20.0293-6.80664Q20-6.43555 20.1221-6.12305Q20.2441-5.81055 20.6055-5.44922L21.3672-4.70703Q21.7285-4.3457 22.1533-4.33105Q22.5781-4.31641 22.9297-4.66797L25.8398-7.58789Q26.1914-7.93945 26.1816-8.35449Q26.1719-8.76953 25.8105-9.13086L25.0391-9.89258Q24.6875-10.2539 24.3799-10.3857Q24.0723-10.5176 23.7109-10.4883L23.1348-10.4395L22.4902-11.0742L22.7344-12.1973Q22.832-12.6172 22.6953-12.9834Q22.5586-13.3496 22.1191-13.7891L19.9219-15.9766Q18.6719-17.2168 17.2607-17.8369Q15.8496-18.457 14.4189-18.4814Q12.9883-18.5059 11.665-17.959Q10.3418-17.4121 9.25781-16.3281ZM10.752-15.957Q11.6602-16.6211 12.7002-16.9043Q13.7402-17.1875 14.8047-17.085Q15.8691-16.9824 16.8701-16.5137Q17.8711-16.0449 18.7012-15.2051L21.1328-12.793Q21.3086-12.6172 21.3525-12.4512Q21.3965-12.2852 21.3379-12.0312L21.0156-10.5469L22.5195-9.0625L23.5059-9.12109Q23.6914-9.13086 23.7891-9.09668Q23.8867-9.0625 24.0332-8.91602L24.6094-8.33984L22.168-5.89844L21.5918-6.47461Q21.4453-6.62109 21.4062-6.71875Q21.3672-6.81641 21.377-7.01172L21.4453-7.98828L19.9512-9.47266L18.4277-9.21875Q18.1836-9.16992 18.042-9.2041Q17.9004-9.23828 17.7148-9.41406L15.7129-11.416Q15.5176-11.5918 15.4932-11.7529Q15.4688-11.9141 15.5859-12.1875L16.4648-14.2773Q15.293-15.3711 13.8281-15.791Q12.3633-16.2109 10.8398-15.7617Q10.7227-15.7324 10.6885-15.8057Q10.6543-15.8789 10.752-15.957Z"/>
  </g>
  <text style="stroke:none;fill:black;font-family:sans-serif;font-size:13;font-weight:bold;" transform="matrix(1 0 0 1 1289 1953)">Exporting</text>
  <text style="stroke:none;fill:black;font-family:sans-serif;font-size:13;" transform="matrix(1 0 0 1 1289 1971)">Symbols should be outlined when exporting to ensure the</text>
  <text style="stroke:none;fill:black;font-family:sans-serif;font-size:13;" transform="matrix(1 0 0 1 1289 1989)">design is preserved when submitting to Xcode.</text>
  <text id="template-version" style="stroke:none;fill:black;font-family:sans-serif;font-size:13;text-anchor:end;" transform="matrix(1 0 0 1 3036 1933)">Template v.3.0</text>
  <text style="stroke:none;fill:black;font-family:sans-serif;font-size:13;text-anchor:end;" transform="matrix(1 0 0 1 3036 1951)">Requires Xcode 13 or greater</text>
  <text id="descriptive-name" style="stroke:none;fill:black;font-family:sans-serif;font-size:13;text-anchor:end;" transform="matrix(1 0 0 1 3036 1969)">Generated from waveform.circle.fill</text>
  <text style="stroke:none;fill:black;font-family:sans-serif;font-size:13;text-anchor:end;" transform="matrix(1 0 0 1 3036 1987)">Typeset at 100 points</text>
  <text style="stroke:none;fill:black;font-family:sans-serif;font-size:13;" transform="matrix(1 0 0 1 263 726)">Small</text>
  <text style="stroke:none;fill:black;font-family:sans-serif;font-size:13;" transform="matrix(1 0 0 1 263 1156)">Medium</text>
  <text style="stroke:none;fill:black;font-family:sans-serif;font-size:13;" transform="matrix(1 0 0 1 263 1586)">Large</text>
 </g>
 <g id="Guides">
  <g id="H-reference" style="fill:#27AAE1;stroke:none;" transform="matrix(1 0 0 1 339 696)">
   <path d="M0.993347 0L3.6377 0L29.3282-67.1326L30.0301-67.1326L30.0301-70.459L28.1227-70.459ZM11.6882-24.4797L46.9818-24.4797L46.2311-26.7288L12.4382-26.7288ZM55.1193 0L57.7637 0L30.6381-70.459L29.4327-70.459L29.4327-67.1326Z"/>
  </g>
  <line id="Baseline-S" style="fill:none;stroke:#27AAE1;opacity:1;stroke-width:0.5;" x1="263" x2="3036" y1="696" y2="696"/>
  <line id="Capline-S" style="fill:none;stroke:#27AAE1;opacity:1;stroke-width:0.5;" x1="263" x2="3036" y1="625.541" y2="625.541"/>
  <g id="H-reference" style="fill:#27AAE1;stroke:none;" transform="matrix(1 0 0 1 339 1126)">
   <path d="M0.993347 0L3.6377 0L29.3282-67.1326L30.0301-67.1326L30.0301-70.459L28.1227-70.459ZM11.6882-24.4797L46.9818-24.4797L46.2311-26.7288L12.4382-26.7288ZM55.1193 0L57.7637 0L30.6381-70.459L29.4327-70.459L29.4327-67.1326Z"/>
  </g>
  <line id="Baseline-M" style="fill:none;stroke:#27AAE1;opacity:1;stroke-width:0.5;" x1="263" x2="3036" y1="1126" y2="1126"/>
  <line id="Capline-M" style="fill:none;stroke:#27AAE1;opacity:1;stroke-width:0.5;" x1="263" x2="3036" y1="1055.54" y2="1055.54"/>
  <g id="H-reference" style="fill:#27AAE1;stroke:none;" transform="matrix(1 0 0 1 339 1556)">
   <path d="M0.993347 0L3.6377 0L29.3282-67.1326L30.0301-67.1326L30.0301-70.459L28.1227-70.459ZM11.6882-24.4797L46.9818-24.4797L46.2311-26.7288L12.4382-26.7288ZM55.1193 0L57.7637 0L30.6381-70.459L29.4327-70.459L29.4327-67.1326Z"/>
  </g>
  <line id="Baseline-L" style="fill:none;stroke:#27AAE1;opacity:1;stroke-width:0.5;" x1="263" x2="3036" y1="1556" y2="1556"/>
  <line id="Capline-L" style="fill:none;stroke:#27AAE1;opacity:1;stroke-width:0.5;" x1="263" x2="3036" y1="1485.54" y2="1485.54"/>
  <line id="left-margin-Ultralight-S" style="fill:none;stroke:#00AEEF;stroke-width:0.5;opacity:1.0;" x1="515.649" x2="515.649" y1="600.785" y2="720.121"/>
  <line id="right-margin-Ultralight-S" style="fill:none;stroke:#00AEEF;stroke-width:0.5;opacity:1.0;" x1="603.773" x2="603.773" y1="600.785" y2="720.121"/>
  <line id="left-margin-Regular-S" style="fill:none;stroke:#00AEEF;stroke-width:0.5;opacity:1.0;" x1="1403.58" x2="1403.58" y1="600.785" y2="720.121"/>
  <line id="right-margin-Regular-S" style="fill:none;stroke:#00AEEF;stroke-width:0.5;opacity:1.0;" x1="1496.11" x2="1496.11" y1="600.785" y2="720.121"/>
  <line id="left-margin-Black-S" style="fill:none;stroke:#00AEEF;stroke-width:0.5;opacity:1.0;" x1="2884.57" x2="2884.57" y1="600.785" y2="720.121"/>
  <line id="right-margin-Black-S" style="fill:none;stroke:#00AEEF;stroke-width:0.5;opacity:1.0;" x1="2982.23" x2="2982.23" y1="600.785" y2="720.121"/>
 </g>
 <g id="Symbols">
  <g id="Black-S" transform="matrix(1 0 0 1 2884.57 696)">
   <path class="multicolor-0:tintColor hierarchical-0:tertiary SFSymbolsPreview007AFF" d="M48.8281 6.83594Q57.5195 6.83594 65.1123 3.56445Q72.7051 0.292969 78.4912-5.49316Q84.2773-11.2793 87.5488-18.8721Q90.8203-26.4648 90.8203-35.1562Q90.8203-43.8477 87.5488-51.4404Q84.2773-59.0332 78.4912-64.8193Q72.7051-70.6055 65.1123-73.877Q57.5195-77.1484 48.8281-77.1484Q40.1367-77.1484 32.5439-73.877Q24.9512-70.6055 19.165-64.8193Q13.3789-59.0332 10.1074-51.4404Q6.83594-43.8477 6.83594-35.1562Q6.83594-26.4648 10.1074-18.8721Q13.3789-11.2793 19.165-5.49316Q24.9512 0.292969 32.5439 3.56445Q40.1367 6.83594 48.8281 6.83594Z"/>
   <path class="multicolor-1:white hierarchical-1:primary SFSymbolsPreviewFFFFFF" d="M44.873-13.1348Q43.6523-13.1348 42.8223-14.0137Q41.9922-14.8926 41.9922-16.1133L41.9922-54.1992Q41.9922-55.4688 42.8223-56.3232Q43.6523-57.1777 44.873-57.1777Q46.1426-57.1777 46.9971-56.3232Q47.8516-55.4688 47.8516-54.1992L47.8516-16.1133Q47.8516-14.8926 46.9971-14.0137Q46.1426-13.1348 44.873-13.1348ZM60.5469-17.3828Q59.3262-17.3828 58.4717-18.2129Q57.6172-19.043 57.6172-20.2637L57.6172-50.0488Q57.6172-51.3184 58.4717-52.124Q59.3262-52.9297 60.5469-52.9297Q61.8164-52.9297 62.6465-52.124Q63.4766-51.3184 63.4766-50.0488L63.4766-20.2637Q63.4766-19.043 62.6465-18.2129Q61.8164-17.3828 60.5469-17.3828ZM37.0117-18.75Q35.791-18.75 34.9365-19.5801Q34.082-20.4102 34.082-21.6309L34.082-48.6816Q34.082-49.8535 34.9365-50.708Q35.791-51.5625 37.0117-51.5625Q38.2812-51.5625 39.1357-50.708Q39.9902-49.8535 39.9902-48.6816L39.9902-21.6309Q39.9902-20.459 39.1357-19.6045Q38.2812-18.75 37.0117-18.75ZM52.7344-20.8496Q51.5137-20.8496 50.6592-21.7041Q49.8047-22.5586 49.8047-23.7793L49.8047-46.5332Q49.8047-47.7539 50.6592-48.6084Q51.5137-49.4629 52.7344-49.4629Q53.9551-49.4629 54.8096-48.6328Q55.6641-47.8027 55.6641-46.5332L55.6641-23.7793Q55.6641-22.5586 54.834-21.7041Q54.0039-20.8496 52.7344-20.8496ZM68.3594-26.0254Q67.1387-26.0254 66.2842-26.8799Q65.4297-27.7344 65.4297-28.9551L65.4297-41.3574Q65.4297-42.5781 66.2842-43.4326Q67.1387-44.2871 68.3594-44.2871Q69.5801-44.2871 70.4346-43.457Q71.2891-42.627 71.2891-41.3574L71.2891-28.9551Q71.2891-27.7344 70.459-26.8799Q69.6289-26.0254 68.3594-26.0254ZM29.1504-27.832Q27.9297-27.832 27.0752-28.6865Q26.2207-29.541 26.2207-30.7617L26.2207-39.5508Q26.2207-40.7715 27.0752-41.626Q27.9297-42.4805 29.1504-42.4805Q30.4199-42.4805 31.2744-41.626Q32.1289-40.7715 32.1289-39.5508L32.1289-30.7617Q32.1289-29.541 31.2744-28.6865Q30.4199-27.832 29.1504-27.832Z"/>
  </g>
  <g id="Regular-S" transform="matrix(1 0 0 1 1403.58 696)">
   <path class="multicolor-0:tintColor hierarchical-0:tertiary SFSymbolsPreview007AFF" d="M46.2402 4.19922Q54.3457 4.19922 61.4746 1.12305Q68.6035-1.95312 74.0479-7.42188Q79.4922-12.8906 82.5928-20.0195Q85.6934-27.1484 85.6934-35.2051Q85.6934-43.2617 82.5928-50.3906Q79.4922-57.5195 74.0234-62.9883Q68.5547-68.457 61.4258-71.5332Q54.2969-74.6094 46.1914-74.6094Q38.1348-74.6094 31.0059-71.5332Q23.877-68.457 18.457-62.9883Q13.0371-57.5195 9.93652-50.3906Q6.83594-43.2617 6.83594-35.2051Q6.83594-27.1484 9.93652-20.0195Q13.0371-12.8906 18.4814-7.42188Q23.9258-1.95312 31.0547 1.12305Q38.1836 4.19922 46.2402 4.19922Z"/>
   <path class="multicolor-1:white hierarchical-1:primary SFSymbolsPreviewFFFFFF" d="M42.2363-9.13086Q41.0645-9.13086 40.3076-9.91211Q39.5508-10.6934 39.5508-11.8652L39.5508-58.5449Q39.5508-59.7168 40.332-60.498Q41.1133-61.2793 42.2363-61.2793Q43.3594-61.2793 44.1162-60.498Q44.873-59.7168 44.873-58.5449L44.873-11.8652Q44.873-10.6934 44.1162-9.91211Q43.3594-9.13086 42.2363-9.13086ZM58.3496-14.3066Q57.1777-14.3066 56.4209-15.0879Q55.6641-15.8691 55.6641-16.9922L55.6641-53.4668Q55.6641-54.5898 56.4209-55.3711Q57.1777-56.1523 58.3496-56.1523Q59.4727-56.1523 60.2539-55.3711Q61.0352-54.5898 61.0352-53.4668L61.0352-16.9922Q61.0352-15.8691 60.2539-15.0879Q59.4727-14.3066 58.3496-14.3066ZM34.1797-19.6289Q33.0566-19.6289 32.2754-20.4102Q31.4941-21.1914 31.4941-22.3145L31.4941-48.1934Q31.4941-49.3164 32.2754-50.0732Q33.0566-50.8301 34.1797-50.8301Q35.3027-50.8301 36.084-50.0732Q36.8652-49.3164 36.8652-48.1934L36.8652-22.3145Q36.8652-21.1914 36.084-20.4102Q35.3027-19.6289 34.1797-19.6289ZM50.2441-23.0957Q49.1699-23.0957 48.3887-23.877Q47.6074-24.6582 47.6074-25.7812L47.6074-44.6777Q47.6074-45.8008 48.3887-46.582Q49.1699-47.3633 50.2441-47.3633Q51.3672-47.3633 52.1484-46.582Q52.9297-45.8008 52.9297-44.6777L52.9297-25.7812Q52.9297-24.6582 52.1484-23.877Q51.3672-23.0957 50.2441-23.0957ZM66.4062-27.6367Q65.2832-27.6367 64.502-28.3936Q63.7207-29.1504 63.7207-30.2734L63.7207-40.1855Q63.7207-41.3086 64.502-42.0654Q65.2832-42.8223 66.4062-42.8223Q67.5293-42.8223 68.2861-42.0654Q69.043-41.3086 69.043-40.1855L69.043-30.2734Q69.043-29.1504 68.2861-28.3936Q67.5293-27.6367 66.4062-27.6367ZM26.0742-29.2969Q25-29.2969 24.2188-30.0781Q23.4375-30.8594 23.4375-31.9824L23.4375-38.4766Q23.4375-39.5996 24.2188-40.3564Q25-41.1133 26.0742-41.1133Q27.1973-41.1133 27.9785-40.3564Q28.7598-39.5996 28.7598-38.4766L28.7598-31.9824Q28.7598-30.8594 27.9785-30.0781Q27.1973-29.2969 26.0742-29.2969Z"/>
  </g>
  <g id="Ultralight-S" transform="matrix(1 0 0 1 515.649 696)">
   <path class="multicolor-0:tintColor hierarchical-0:tertiary SFSymbolsPreview007AFF" d="M44.043 2.00195Q51.7578 2.00195 58.4717-0.878906Q65.1855-3.75977 70.3369-8.91113Q75.4883-14.0625 78.3936-20.7764Q81.2988-27.4902 81.2988-35.2051Q81.2988-42.9199 78.3936-49.6338Q75.4883-56.3477 70.3369-61.499Q65.1855-66.6504 58.4717-69.5312Q51.7578-72.4121 44.043-72.4121Q36.377-72.4121 29.6387-69.5312Q22.9004-66.6504 17.7734-61.499Q12.6465-56.3477 9.74121-49.6338Q6.83594-42.9199 6.83594-35.2051Q6.83594-27.4902 9.74121-20.7764Q12.6465-14.0625 17.7734-8.91113Q22.9004-3.75977 29.6387-0.878906Q36.377 2.00195 44.043 2.00195Z"/>
   <path class="multicolor-1:white hierarchical-1:primary SFSymbolsPreviewFFFFFF" d="M40.1367-10.4004Q39.6484-10.4004 39.3799-10.6934Q39.1113-10.9863 39.1113-11.4746L39.1113-59.1309Q39.1113-59.6191 39.3799-59.9121Q39.6484-60.2051 40.1367-60.2051Q40.625-60.2051 40.918-59.9121Q41.2109-59.6191 41.2109-59.1309L41.2109-11.4746Q41.2109-10.9863 40.918-10.6934Q40.625-10.4004 40.1367-10.4004ZM55.6641-17.5781Q55.1758-17.5781 54.8828-17.8711Q54.5898-18.1641 54.5898-18.6523L54.5898-51.9531Q54.5898-52.4414 54.8828-52.71Q55.1758-52.9785 55.6641-52.9785Q56.1035-52.9785 56.4209-52.71Q56.7383-52.4414 56.7383-51.9531L56.7383-18.6523Q56.7383-18.1641 56.4209-17.8711Q56.1035-17.5781 55.6641-17.5781ZM32.4219-21.2402Q31.9336-21.2402 31.6406-21.5088Q31.3477-21.7773 31.3477-22.2656L31.3477-48.291Q31.3477-48.7793 31.6406-49.0479Q31.9336-49.3164 32.4219-49.3164Q32.9102-49.3164 33.1787-49.0479Q33.4473-48.7793 33.4473-48.291L33.4473-22.2656Q33.4473-21.7773 33.1787-21.5088Q32.9102-21.2402 32.4219-21.2402ZM47.9492-22.9004Q47.4609-22.9004 47.168-23.1934Q46.875-23.4863 46.875-23.9746L46.875-46.582Q46.875-47.0703 47.168-47.3633Q47.4609-47.6562 47.9492-47.6562Q48.4375-47.6562 48.7061-47.3633Q48.9746-47.0703 48.9746-46.582L48.9746-23.9746Q48.9746-23.4863 48.7061-23.1934Q48.4375-22.9004 47.9492-22.9004ZM63.4766-26.6113Q62.9883-26.6113 62.6709-26.9043Q62.3535-27.1973 62.3535-27.6855L62.3535-42.8711Q62.3535-43.3594 62.6709-43.6279Q62.9883-43.8965 63.4766-43.8965Q63.916-43.8965 64.209-43.6279Q64.502-43.3594 64.502-42.8711L64.502-27.6855Q64.502-27.1973 64.209-26.9043Q63.916-26.6113 63.4766-26.6113ZM24.6094-29.7363Q24.1699-29.7363 23.877-30.0537Q23.584-30.3711 23.584-30.8105L23.584-39.7461Q23.584-40.1855 23.877-40.5029Q24.1699-40.8203 24.6094-40.8203Q25.0977-40.8203 25.3906-40.5029Q25.6836-40.1855 25.6836-39.7461L25.6836-30.8105Q25.6836-30.3711 25.3906-30.0537Q25.0977-29.7363 24.6094-29.7363Z"/>
  </g>
 </g>
</svg>
