<?xml version="1.0" encoding="UTF-8" standalone="no"?>
<!-- Created with Inkscape (http://www.inkscape.org/) -->

<svg
   width="162"
   height="130"
   viewBox="0 0 162 130"
   version="1.1"
   id="svg5975"
   inkscape:version="1.1.2 (b8e25be8, 2022-02-05)"
   sodipodi:docname="vc.fill.slash.svg"
   xmlns:inkscape="http://www.inkscape.org/namespaces/inkscape"
   xmlns:sodipodi="http://sodipodi.sourceforge.net/DTD/sodipodi-0.dtd"
   xmlns="http://www.w3.org/2000/svg"
   xmlns:svg="http://www.w3.org/2000/svg">
  <sodipodi:namedview
     id="namedview5977"
     pagecolor="#ffffff"
     bordercolor="#666666"
     borderopacity="1.0"
     inkscape:pageshadow="2"
     inkscape:pageopacity="0.0"
     inkscape:pagecheckerboard="0"
     inkscape:document-units="px"
     showgrid="false"
     units="px"
     inkscape:zoom="1"
     inkscape:cx="89.5"
     inkscape:cy="77.5"
     inkscape:window-width="1374"
     inkscape:window-height="761"
     inkscape:window-x="0"
     inkscape:window-y="38"
     inkscape:window-maximized="0"
     inkscape:current-layer="layer1" />
  <defs
     id="defs5972" />
  <g
     inkscape:label="Layer 1"
     inkscape:groupmode="layer"
     id="layer1">
    <path
       id="rect4391"
       style="stroke-width:8.00005;stroke-linecap:round;stroke-linejoin:round"
       d="M 11.333588,2.7828297 127.18622,118.63547 c 2.37714,2.37713 2.37714,6.20457 2e-5,8.58169 -2.37713,2.37713 -6.20456,2.37712 -8.5817,-1e-5 L 2.751911,11.364506 C 0.3748033,8.9873987 0.374798,5.1599677 2.751925,2.7828407 5.129049,0.40571675 8.95648,0.40572175 11.333588,2.7828297 Z M 39.487942,20.515221 c -1.497333,2.1e-5 -2.948783,0.183998 -4.337876,0.525406 L 65.17154,51.060149 a 17.999999,17.999999 0 0 1 4.316402,-0.544928 17.999999,17.999999 0 0 1 18.000021,18.000021 17.999999,17.999999 0 0 1 -0.533209,4.330072 l 30.007816,30.005876 c 0.34112,-1.38854 0.52538,-2.83927 0.52539,-4.335946 V 38.515242 c -2e-5,-9.971994 -8.02807,-18.000013 -18.000017,-18.000021 z m 113.007828,9.027358 c -5.28111,0.194261 -13.93775,4.926352 -27.77736,12.890615 v 52.20899 c 36.20385,20.834136 36.31252,19.144186 36.31251,-26.105474 1e-5,-27.952051 -0.001,-39.308057 -8.53515,-38.994131 z M 21.683267,35.855076 c -0.127563,0.86796 -0.195328,1.755656 -0.195325,2.660145 v 60.000003 c 2.7e-5,9.972036 8.028012,18.000026 18.000022,18.000026 h 59.999999 c 0.904487,0 1.792187,-0.0678 2.660147,-0.19533 L 72.142256,86.314065 a 17.999999,17.999999 0 0 1 -2.654293,0.201177 17.999999,17.999999 0 0 1 -18.000021,-18.000021 17.999999,17.999999 0 0 1 0.21291,-2.64256 z" />
  </g>
</svg>
