<svg xmlns="http://www.w3.org/2000/svg" xmlns:xlink="http://www.w3.org/1999/xlink" width="135" height="121">
  <path stroke="none" stroke-linejoin="round" fill-opacity="1" xml:space="preserve" fill-rule="nonzero" stroke-miterlimit="4" xmlns:svg="http://www.w3.org/2000/svg" fill="#000000" stroke-width="2.11668" opacity="1" stroke-linecap="round" stroke-dasharray="none" version="1.1" stroke-opacity="1" d="M10.433,22.312L99.32,111.343C101.466,113.49,101.466,116.946,99.32,119.092C97.173,121.239,93.717,121.239,91.571,119.092L2.684,30.061C0.538,27.914,0.538,24.458,2.684,22.312C4.831,20.165,8.287,20.165,10.433,22.312ZM24.99,27.6C23.638,27.6,22.327,27.766,21.073,28.074L48.181,55.18C49.455,54.859,50.764,54.694,52.078,54.688C61.055,54.688,68.332,61.965,68.332,70.941C68.33,72.259,68.168,73.572,67.85,74.851L94.946,101.945C95.254,100.691,95.42,99.381,95.42,98.03L95.42,43.853C95.42,34.848,88.171,27.6,79.167,27.6ZM127.031,35.751C122.262,35.926,114.445,40.199,101.949,47.39L101.949,94.533C134.639,113.345,134.737,111.819,134.737,70.961C134.737,45.721,134.736,35.467,127.031,35.751ZM8.913,41.451C8.798,42.234,8.737,43.036,8.737,43.853L8.737,98.03C8.737,107.034,15.986,114.283,24.99,114.283L79.167,114.283C79.984,114.283,80.785,114.221,81.569,114.107L54.475,87.013C53.682,87.132,52.881,87.193,52.078,87.194C43.102,87.194,35.825,79.918,35.825,70.941C35.831,70.142,35.895,69.345,36.017,68.555ZM8.913,41.451"/>

</svg>
