<?xml version="1.0" encoding="UTF-8"?>
<!--Generator: Apple Native CoreSVG 175-->
<!DOCTYPE svg
PUBLIC "-//W3C//DTD SVG 1.1//EN"
       "http://www.w3.org/Graphics/SVG/1.1/DTD/svg11.dtd">
<svg version="1.1" xmlns="http://www.w3.org/2000/svg" xmlns:xlink="http://www.w3.org/1999/xlink" width="3300" height="2200">
 <!--glyph: "uni100EF5.medium", point size: 100.0, font version: "17.1d1e1", template writer version: "65.1"-->
 <g id="Notes">
  <rect height="2200" id="artboard" style="fill:white;opacity:1" width="3300" x="0" y="0"/>
  <line style="fill:none;stroke:black;opacity:1;stroke-width:0.5;" x1="263" x2="3036" y1="292" y2="292"/>
  <text style="stroke:none;fill:black;font-family:sans-serif;font-size:13;font-weight:bold;" transform="matrix(1 0 0 1 263 322)">Weight/Scale Variations</text>
  <text style="stroke:none;fill:black;font-family:sans-serif;font-size:13;text-anchor:middle;" transform="matrix(1 0 0 1 559.711 322)">Ultralight</text>
  <text style="stroke:none;fill:black;font-family:sans-serif;font-size:13;text-anchor:middle;" transform="matrix(1 0 0 1 856.422 322)">Thin</text>
  <text style="stroke:none;fill:black;font-family:sans-serif;font-size:13;text-anchor:middle;" transform="matrix(1 0 0 1 1153.13 322)">Light</text>
  <text style="stroke:none;fill:black;font-family:sans-serif;font-size:13;text-anchor:middle;" transform="matrix(1 0 0 1 1449.84 322)">Regular</text>
  <text style="stroke:none;fill:black;font-family:sans-serif;font-size:13;text-anchor:middle;" transform="matrix(1 0 0 1 1746.56 322)">Medium</text>
  <text style="stroke:none;fill:black;font-family:sans-serif;font-size:13;text-anchor:middle;" transform="matrix(1 0 0 1 2043.27 322)">Semibold</text>
  <text style="stroke:none;fill:black;font-family:sans-serif;font-size:13;text-anchor:middle;" transform="matrix(1 0 0 1 2339.98 322)">Bold</text>
  <text style="stroke:none;fill:black;font-family:sans-serif;font-size:13;text-anchor:middle;" transform="matrix(1 0 0 1 2636.69 322)">Heavy</text>
  <text style="stroke:none;fill:black;font-family:sans-serif;font-size:13;text-anchor:middle;" transform="matrix(1 0 0 1 2933.4 322)">Black</text>
  <line style="fill:none;stroke:black;opacity:1;stroke-width:0.5;" x1="263" x2="3036" y1="1903" y2="1903"/>
  <g transform="matrix(1 0 0 1 263 1933)">
   <path d="M9.24805 0.830078Q10.8691 0.830078 12.2949 0.214844Q13.7207-0.400391 14.8096-1.49414Q15.8984-2.58789 16.5186-4.01367Q17.1387-5.43945 17.1387-7.05078Q17.1387-8.66211 16.5186-10.0879Q15.8984-11.5137 14.8047-12.6074Q13.7109-13.7012 12.2852-14.3164Q10.8594-14.9316 9.23828-14.9316Q7.62695-14.9316 6.20117-14.3164Q4.77539-13.7012 3.69141-12.6074Q2.60742-11.5137 1.9873-10.0879Q1.36719-8.66211 1.36719-7.05078Q1.36719-5.43945 1.9873-4.01367Q2.60742-2.58789 3.69629-1.49414Q4.78516-0.400391 6.21094 0.214844Q7.63672 0.830078 9.24805 0.830078ZM9.24805-0.654297Q7.91992-0.654297 6.7627-1.14746Q5.60547-1.64062 4.73145-2.51953Q3.85742-3.39844 3.36426-4.56055Q2.87109-5.72266 2.87109-7.05078Q2.87109-8.37891 3.35938-9.54102Q3.84766-10.7031 4.72168-11.582Q5.5957-12.4609 6.75293-12.9541Q7.91016-13.4473 9.23828-13.4473Q10.5762-13.4473 11.7334-12.9541Q12.8906-12.4609 13.7695-11.582Q14.6484-10.7031 15.1465-9.54102Q15.6445-8.37891 15.6445-7.05078Q15.6445-5.72266 15.1514-4.56055Q14.6582-3.39844 13.7842-2.51953Q12.9102-1.64062 11.748-1.14746Q10.5859-0.654297 9.24805-0.654297ZM5.6543-7.05078Q5.6543-6.72852 5.85938-6.52832Q6.06445-6.32812 6.40625-6.32812L8.51562-6.32812L8.51562-4.20898Q8.51562-3.88672 8.71094-3.67676Q8.90625-3.4668 9.23828-3.4668Q9.56055-3.4668 9.77051-3.67676Q9.98047-3.88672 9.98047-4.20898L9.98047-6.32812L12.0898-6.32812Q12.4219-6.32812 12.627-6.52832Q12.832-6.72852 12.832-7.05078Q12.832-7.38281 12.627-7.58789Q12.4219-7.79297 12.0898-7.79297L9.98047-7.79297L9.98047-9.90234Q9.98047-10.2344 9.77051-10.4443Q9.56055-10.6543 9.23828-10.6543Q8.90625-10.6543 8.71094-10.4443Q8.51562-10.2344 8.51562-9.90234L8.51562-7.79297L6.40625-7.79297Q6.06445-7.79297 5.85938-7.58789Q5.6543-7.38281 5.6543-7.05078Z"/>
  </g>
  <g transform="matrix(1 0 0 1 281.867 1933)">
   <path d="M11.709 2.91016Q13.75 2.91016 15.5518 2.12891Q17.3535 1.34766 18.7305-0.0292969Q20.1074-1.40625 20.8887-3.20801Q21.6699-5.00977 21.6699-7.05078Q21.6699-9.0918 20.8887-10.8936Q20.1074-12.6953 18.7305-14.0723Q17.3535-15.4492 15.5469-16.2305Q13.7402-17.0117 11.6992-17.0117Q9.6582-17.0117 7.85645-16.2305Q6.05469-15.4492 4.68262-14.0723Q3.31055-12.6953 2.5293-10.8936Q1.74805-9.0918 1.74805-7.05078Q1.74805-5.00977 2.5293-3.20801Q3.31055-1.40625 4.6875-0.0292969Q6.06445 1.34766 7.86621 2.12891Q9.66797 2.91016 11.709 2.91016ZM11.709 1.25Q9.98047 1.25 8.47656 0.605469Q6.97266-0.0390625 5.83496-1.17676Q4.69727-2.31445 4.05762-3.81836Q3.41797-5.32227 3.41797-7.05078Q3.41797-8.7793 4.05762-10.2832Q4.69727-11.7871 5.83008-12.9297Q6.96289-14.0723 8.4668-14.7119Q9.9707-15.3516 11.6992-15.3516Q13.4277-15.3516 14.9316-14.7119Q16.4355-14.0723 17.5781-12.9297Q18.7207-11.7871 19.3652-10.2832Q20.0098-8.7793 20.0098-7.05078Q20.0098-5.32227 19.3701-3.81836Q18.7305-2.31445 17.5928-1.17676Q16.4551-0.0390625 14.9463 0.605469Q13.4375 1.25 11.709 1.25ZM7.17773-7.05078Q7.17773-6.69922 7.41211-6.47461Q7.64648-6.25 8.01758-6.25L10.8887-6.25L10.8887-3.36914Q10.8887-2.99805 11.1133-2.76855Q11.3379-2.53906 11.6895-2.53906Q12.0605-2.53906 12.29-2.76855Q12.5195-2.99805 12.5195-3.36914L12.5195-6.25L15.4004-6.25Q15.7715-6.25 16.001-6.47461Q16.2305-6.69922 16.2305-7.05078Q16.2305-7.42188 16.001-7.65137Q15.7715-7.88086 15.4004-7.88086L12.5195-7.88086L12.5195-10.752Q12.5195-11.1328 12.29-11.3623Q12.0605-11.5918 11.6895-11.5918Q11.3379-11.5918 11.1133-11.3574Q10.8887-11.123 10.8887-10.752L10.8887-7.88086L8.01758-7.88086Q7.63672-7.88086 7.40723-7.65137Q7.17773-7.42188 7.17773-7.05078Z"/>
  </g>
  <g transform="matrix(1 0 0 1 305.646 1933)">
   <path d="M14.9707 5.66406Q17.0605 5.66406 18.96 5.01465Q20.8594 4.36523 22.4512 3.19336Q24.043 2.02148 25.2197 0.429688Q26.3965-1.16211 27.0459-3.06641Q27.6953-4.9707 27.6953-7.05078Q27.6953-9.14062 27.0459-11.04Q26.3965-12.9395 25.2197-14.5312Q24.043-16.123 22.4512-17.2998Q20.8594-18.4766 18.9551-19.126Q17.0508-19.7754 14.9609-19.7754Q12.8711-19.7754 10.9717-19.126Q9.07227-18.4766 7.48535-17.2998Q5.89844-16.123 4.72168-14.5312Q3.54492-12.9395 2.90039-11.04Q2.25586-9.14062 2.25586-7.05078Q2.25586-4.9707 2.90527-3.06641Q3.55469-1.16211 4.72656 0.429688Q5.89844 2.02148 7.49023 3.19336Q9.08203 4.36523 10.9814 5.01465Q12.8809 5.66406 14.9707 5.66406ZM14.9707 3.84766Q13.1641 3.84766 11.5283 3.2959Q9.89258 2.74414 8.53516 1.74805Q7.17773 0.751953 6.17676-0.610352Q5.17578-1.97266 4.62891-3.6084Q4.08203-5.24414 4.08203-7.05078Q4.08203-8.86719 4.62891-10.5029Q5.17578-12.1387 6.17188-13.501Q7.16797-14.8633 8.52539-15.8594Q9.88281-16.8555 11.5186-17.4023Q13.1543-17.9492 14.9609-17.9492Q16.7773-17.9492 18.4131-17.4023Q20.0488-16.8555 21.4111-15.8594Q22.7734-14.8633 23.7695-13.501Q24.7656-12.1387 25.3174-10.5029Q25.8691-8.86719 25.8691-7.05078Q25.8789-5.24414 25.332-3.6084Q24.7852-1.97266 23.7842-0.610352Q22.7832 0.751953 21.4209 1.74805Q20.0586 2.74414 18.4229 3.2959Q16.7871 3.84766 14.9707 3.84766ZM9.19922-7.05078Q9.19922-6.66992 9.45801-6.4209Q9.7168-6.17188 10.1172-6.17188L14.0625-6.17188L14.0625-2.2168Q14.0625-1.81641 14.3115-1.55762Q14.5605-1.29883 14.9512-1.29883Q15.3516-1.29883 15.6104-1.55273Q15.8691-1.80664 15.8691-2.2168L15.8691-6.17188L19.8242-6.17188Q20.2246-6.17188 20.4785-6.4209Q20.7324-6.66992 20.7324-7.05078Q20.7324-7.46094 20.4785-7.71484Q20.2246-7.96875 19.8242-7.96875L15.8691-7.96875L15.8691-11.9141Q15.8691-12.3242 15.6104-12.583Q15.3516-12.8418 14.9512-12.8418Q14.5605-12.8418 14.3115-12.583Q14.0625-12.3242 14.0625-11.9141L14.0625-7.96875L10.1172-7.96875Q9.70703-7.96875 9.45312-7.71484Q9.19922-7.46094 9.19922-7.05078Z"/>
  </g>
  <text style="stroke:none;fill:black;font-family:sans-serif;font-size:13;font-weight:bold;" transform="matrix(1 0 0 1 263 1953)">Design Variations</text>
  <text style="stroke:none;fill:black;font-family:sans-serif;font-size:13;" transform="matrix(1 0 0 1 263 1971)">Symbols are supported in up to nine weights and three scales.</text>
  <text style="stroke:none;fill:black;font-family:sans-serif;font-size:13;" transform="matrix(1 0 0 1 263 1989)">For optimal layout with text and other symbols, vertically align</text>
  <text style="stroke:none;fill:black;font-family:sans-serif;font-size:13;" transform="matrix(1 0 0 1 263 2007)">symbols with the adjacent text.</text>
  <line style="fill:none;stroke:#00AEEF;stroke-width:0.5;opacity:1.0;" x1="776" x2="776" y1="1919" y2="1933"/>
  <g transform="matrix(1 0 0 1 776 1933)">
   <path d="M3.31055 0.15625Q3.70117 0.15625 3.91602-0.00976562Q4.13086-0.175781 4.26758-0.585938L5.52734-4.0332L11.2891-4.0332L12.5488-0.585938Q12.6855-0.175781 12.9004-0.00976562Q13.1152 0.15625 13.4961 0.15625Q13.8867 0.15625 14.1162-0.0585938Q14.3457-0.273438 14.3457-0.644531Q14.3457-0.869141 14.2383-1.17188L9.6582-13.3691Q9.48242-13.8184 9.17969-14.043Q8.87695-14.2676 8.4082-14.2676Q7.5-14.2676 7.17773-13.3789L2.59766-1.16211Q2.49023-0.859375 2.49023-0.634766Q2.49023-0.263672 2.70996-0.0537109Q2.92969 0.15625 3.31055 0.15625ZM6.00586-5.51758L8.37891-12.0898L8.42773-12.0898L10.8008-5.51758Z"/>
  </g>
  <line style="fill:none;stroke:#00AEEF;stroke-width:0.5;opacity:1.0;" x1="793.197" x2="793.197" y1="1919" y2="1933"/>
  <text style="stroke:none;fill:black;font-family:sans-serif;font-size:13;font-weight:bold;" transform="matrix(1 0 0 1 776 1953)">Margins</text>
  <text style="stroke:none;fill:black;font-family:sans-serif;font-size:13;" transform="matrix(1 0 0 1 776 1971)">Leading and trailing margins on the left and right side of each symbol</text>
  <text style="stroke:none;fill:black;font-family:sans-serif;font-size:13;" transform="matrix(1 0 0 1 776 1989)">can be adjusted by modifying the x-location of the margin guidelines.</text>
  <text style="stroke:none;fill:black;font-family:sans-serif;font-size:13;" transform="matrix(1 0 0 1 776 2007)">Modifications are automatically applied proportionally to all</text>
  <text style="stroke:none;fill:black;font-family:sans-serif;font-size:13;" transform="matrix(1 0 0 1 776 2025)">scales and weights.</text>
  <g transform="matrix(1 0 0 1 1289 1933)">
   <path d="M2.8418 1.86523L4.54102 3.57422Q5.18555 4.22852 5.90332 4.17969Q6.62109 4.13086 7.31445 3.35938L18.0078-8.42773L17.041-9.4043L6.42578 2.27539Q6.16211 2.57812 5.89355 2.61719Q5.625 2.65625 5.27344 2.30469L4.10156 1.14258Q3.75 0.791016 3.79395 0.522461Q3.83789 0.253906 4.14062-0.0195312L15.6152-10.8203L14.6387-11.7871L3.04688-0.898438Q2.30469-0.214844 2.25098 0.498047Q2.19727 1.21094 2.8418 1.86523ZM9.25781-16.3281Q8.94531-16.0254 8.90625-15.6348Q8.86719-15.2441 9.04297-14.9512Q9.21875-14.6777 9.55566-14.541Q9.89258-14.4043 10.3809-14.5215Q11.4746-14.7754 12.5977-14.7314Q13.7207-14.6875 14.7949-13.9844L14.209-12.5293Q13.9551-11.9043 14.0674-11.4404Q14.1797-10.9766 14.5801-10.5664L16.875-8.25195Q17.2363-7.88086 17.5781-7.82227Q17.9199-7.76367 18.3398-7.8418L19.4043-8.03711L20.0684-7.36328L20.0293-6.80664Q20-6.43555 20.1221-6.12305Q20.2441-5.81055 20.6055-5.44922L21.3672-4.70703Q21.7285-4.3457 22.1533-4.33105Q22.5781-4.31641 22.9297-4.66797L25.8398-7.58789Q26.1914-7.93945 26.1816-8.35449Q26.1719-8.76953 25.8105-9.13086L25.0391-9.89258Q24.6875-10.2539 24.3799-10.3857Q24.0723-10.5176 23.7109-10.4883L23.1348-10.4395L22.4902-11.0742L22.7344-12.1973Q22.832-12.6172 22.6953-12.9834Q22.5586-13.3496 22.1191-13.7891L19.9219-15.9766Q18.6719-17.2168 17.2607-17.8369Q15.8496-18.457 14.4189-18.4814Q12.9883-18.5059 11.665-17.959Q10.3418-17.4121 9.25781-16.3281ZM10.752-15.957Q11.6602-16.6211 12.7002-16.9043Q13.7402-17.1875 14.8047-17.085Q15.8691-16.9824 16.8701-16.5137Q17.8711-16.0449 18.7012-15.2051L21.1328-12.793Q21.3086-12.6172 21.3525-12.4512Q21.3965-12.2852 21.3379-12.0312L21.0156-10.5469L22.5195-9.0625L23.5059-9.12109Q23.6914-9.13086 23.7891-9.09668Q23.8867-9.0625 24.0332-8.91602L24.6094-8.33984L22.168-5.89844L21.5918-6.47461Q21.4453-6.62109 21.4062-6.71875Q21.3672-6.81641 21.377-7.01172L21.4453-7.98828L19.9512-9.47266L18.4277-9.21875Q18.1836-9.16992 18.042-9.2041Q17.9004-9.23828 17.7148-9.41406L15.7129-11.416Q15.5176-11.5918 15.4932-11.7529Q15.4688-11.9141 15.5859-12.1875L16.4648-14.2773Q15.293-15.3711 13.8281-15.791Q12.3633-16.2109 10.8398-15.7617Q10.7227-15.7324 10.6885-15.8057Q10.6543-15.8789 10.752-15.957Z"/>
  </g>
  <text style="stroke:none;fill:black;font-family:sans-serif;font-size:13;font-weight:bold;" transform="matrix(1 0 0 1 1289 1953)">Exporting</text>
  <text style="stroke:none;fill:black;font-family:sans-serif;font-size:13;" transform="matrix(1 0 0 1 1289 1971)">Symbols should be outlined when exporting to ensure the</text>
  <text style="stroke:none;fill:black;font-family:sans-serif;font-size:13;" transform="matrix(1 0 0 1 1289 1989)">design is preserved when submitting to Xcode.</text>
  <text id="template-version" style="stroke:none;fill:black;font-family:sans-serif;font-size:13;text-anchor:end;" transform="matrix(1 0 0 1 3036 1933)">Template v.3.0</text>
  <text style="stroke:none;fill:black;font-family:sans-serif;font-size:13;text-anchor:end;" transform="matrix(1 0 0 1 3036 1951)">Requires Xcode 13 or greater</text>
  <text id="descriptive-name" style="stroke:none;fill:black;font-family:sans-serif;font-size:13;text-anchor:end;" transform="matrix(1 0 0 1 3036 1969)">Generated from rectangle.portrait.and.arrow.right</text>
  <text style="stroke:none;fill:black;font-family:sans-serif;font-size:13;text-anchor:end;" transform="matrix(1 0 0 1 3036 1987)">Typeset at 100 points</text>
  <text style="stroke:none;fill:black;font-family:sans-serif;font-size:13;" transform="matrix(1 0 0 1 263 726)">Small</text>
  <text style="stroke:none;fill:black;font-family:sans-serif;font-size:13;" transform="matrix(1 0 0 1 263 1156)">Medium</text>
  <text style="stroke:none;fill:black;font-family:sans-serif;font-size:13;" transform="matrix(1 0 0 1 263 1586)">Large</text>
 </g>
 <g id="Guides">
  <g id="H-reference" style="fill:#27AAE1;stroke:none;" transform="matrix(1 0 0 1 339 696)">
   <path d="M0.993347 0L3.6377 0L29.3282-67.1326L30.0301-67.1326L30.0301-70.459L28.1227-70.459ZM11.6882-24.4797L46.9818-24.4797L46.2311-26.7288L12.4382-26.7288ZM55.1193 0L57.7637 0L30.6381-70.459L29.4327-70.459L29.4327-67.1326Z"/>
  </g>
  <line id="Baseline-S" style="fill:none;stroke:#27AAE1;opacity:1;stroke-width:0.5;" x1="263" x2="3036" y1="696" y2="696"/>
  <line id="Capline-S" style="fill:none;stroke:#27AAE1;opacity:1;stroke-width:0.5;" x1="263" x2="3036" y1="625.541" y2="625.541"/>
  <g id="H-reference" style="fill:#27AAE1;stroke:none;" transform="matrix(1 0 0 1 339 1126)">
   <path d="M0.993347 0L3.6377 0L29.3282-67.1326L30.0301-67.1326L30.0301-70.459L28.1227-70.459ZM11.6882-24.4797L46.9818-24.4797L46.2311-26.7288L12.4382-26.7288ZM55.1193 0L57.7637 0L30.6381-70.459L29.4327-70.459L29.4327-67.1326Z"/>
  </g>
  <line id="Baseline-M" style="fill:none;stroke:#27AAE1;opacity:1;stroke-width:0.5;" x1="263" x2="3036" y1="1126" y2="1126"/>
  <line id="Capline-M" style="fill:none;stroke:#27AAE1;opacity:1;stroke-width:0.5;" x1="263" x2="3036" y1="1055.54" y2="1055.54"/>
  <g id="H-reference" style="fill:#27AAE1;stroke:none;" transform="matrix(1 0 0 1 339 1556)">
   <path d="M0.993347 0L3.6377 0L29.3282-67.1326L30.0301-67.1326L30.0301-70.459L28.1227-70.459ZM11.6882-24.4797L46.9818-24.4797L46.2311-26.7288L12.4382-26.7288ZM55.1193 0L57.7637 0L30.6381-70.459L29.4327-70.459L29.4327-67.1326Z"/>
  </g>
  <line id="Baseline-L" style="fill:none;stroke:#27AAE1;opacity:1;stroke-width:0.5;" x1="263" x2="3036" y1="1556" y2="1556"/>
  <line id="Capline-L" style="fill:none;stroke:#27AAE1;opacity:1;stroke-width:0.5;" x1="263" x2="3036" y1="1485.54" y2="1485.54"/>
  <line id="left-margin-Regular-M" style="fill:none;stroke:#00AEEF;stroke-width:0.5;opacity:1.0;" x1="1380.73" x2="1380.73" y1="1030.79" y2="1150.12"/>
  <line id="right-margin-Regular-M" style="fill:none;stroke:#00AEEF;stroke-width:0.5;opacity:1.0;" x1="1518.96" x2="1518.96" y1="1030.79" y2="1150.12"/>
 </g>
 <g id="Symbols">
  <g id="Black-L" transform="matrix(1 0 0 1 2837.45 1556)">
   <path d="M39.7724 35.1919L107.573 35.1919Q118.9 35.1919 125.091 28.9898Q131.282 22.7878 131.282 11.4202L131.282-13.9763L111.282-13.9763L111.282 8.68948Q111.282 11.8963 109.751 13.5536Q108.221 15.2108 104.738 15.2108L42.628 15.2108Q39.1823 15.2108 37.6236 13.5536Q36.065 11.8963 36.065 8.68948L36.065-79.1073Q36.065-82.3725 37.6236-84.0006Q39.1823-85.6287 42.628-85.6287L104.738-85.6287Q108.221-85.6287 109.751-84.0006Q111.282-82.3725 111.282-79.1073L111.282-56.0934L131.282-56.0934L131.282-81.838Q131.282-93.1848 125.091-99.3972Q118.9-105.61 107.573-105.61L39.7724-105.61Q28.4464-105.61 22.2652-99.3972Q16.084-93.1848 16.084-81.838L16.084 11.4202Q16.084 22.7878 22.2652 28.9898Q28.4464 35.1919 39.7724 35.1919ZM86.703-26.585L145.883-26.585L155.03-27.3535L149.995-24.6986L143.178-18.3017Q140.747-16.0496 140.747-12.7288Q140.747-9.91929 142.724-7.62939Q144.701-5.33948 147.841-5.33948Q150.726-5.33948 152.981-7.59442L172.73-28.2142Q174.427-29.9694 175.117-31.7414Q175.807-33.5133 175.807-35.2697Q175.807-37.0845 175.117-38.8273Q174.427-40.57 172.73-42.3252L152.981-62.9462Q150.726-65.2011 147.841-65.2011Q144.701-65.2011 142.724-62.9222Q140.747-60.6433 140.747-57.8326Q140.747-54.491 143.178-52.2389L149.995-45.842L155.052-43.1859L145.883-43.9544L86.703-43.9544Q83.2486-43.9544 80.6834-41.4665Q78.1183-38.9785 78.1183-35.2697Q78.1183-31.6193 80.6834-29.1021Q83.2486-26.585 86.703-26.585Z"/>
  </g>
  <g id="Heavy-L" transform="matrix(1 0 0 1 2542.44 1556)">
   <path d="M38.7107 34.4872L106.333 34.4872Q117.252 34.4872 123.121 28.6Q128.99 22.7128 128.99 11.7397L128.99-14.6358L111.465-14.6358L111.465 9.61544Q111.465 13.2172 109.685 15.102Q107.904 16.9867 104.058 16.9867L41.0161 16.9867Q37.1843 16.9867 35.3843 15.102Q33.5844 13.2172 33.5844 9.61544L33.5844-80.0432Q33.5844-83.6896 35.3843-85.552Q37.1843-87.4145 41.0161-87.4145L104.058-87.4145Q107.904-87.4145 109.685-85.552Q111.465-83.6896 111.465-80.0432L111.465-55.5354L128.99-55.5354L128.99-82.1674Q128.99-93.1104 123.121-99.0126Q117.252-104.915 106.333-104.915L38.7107-104.915Q27.7979-104.915 21.941-99.0126Q16.084-93.1104 16.084-82.1674L16.084 11.7397Q16.084 22.7128 21.941 28.6Q27.7979 34.4872 38.7107 34.4872ZM83.5848-27.5314L144.284-27.5314L153.474-28.2089L148.486-25.0779L140.823-17.8586Q138.632-15.848 138.632-12.845Q138.632-10.2704 140.418-8.23093Q142.205-6.19143 145.022-6.19143Q147.626-6.19143 149.677-8.24226L169.693-29.0756Q171.203-30.6307 171.809-32.1699Q172.414-33.7091 172.414-35.2697Q172.414-36.8749 171.809-38.3918Q171.203-39.9087 169.693-41.4638L149.677-62.3028Q147.626-64.3536 145.022-64.3536Q142.205-64.3536 140.418-62.332Q138.632-60.3103 138.632-57.7302Q138.632-54.697 140.823-52.6865L148.486-45.4672L153.51-42.3305L144.284-43.008L83.5848-43.008Q80.5083-43.008 78.2299-40.7815Q75.9515-38.5549 75.9515-35.2697Q75.9515-32.0291 78.2299-29.7802Q80.5083-27.5314 83.5848-27.5314Z"/>
  </g>
  <g id="Bold-L" transform="matrix(1 0 0 1 2247.82 1556)">
   <path d="M37.3893 33.656L104.864 33.656Q115.253 33.656 120.73 28.1532Q126.207 22.6504 126.207 12.1988L126.207-15.4056L111.741-15.4056L111.741 10.753Q111.741 14.8688 109.645 17.0415Q107.55 19.2143 103.228 19.2143L39.063 19.2143Q34.7324 19.2143 32.6291 17.0415Q30.5258 14.8688 30.5258 10.753L30.5258-81.1811Q30.5258-85.3261 32.6291-87.4842Q34.7324-89.6424 39.063-89.6424L103.228-89.6424Q107.55-89.6424 109.645-87.4842Q111.741-85.3261 111.741-81.1811L111.741-54.8737L126.207-54.8737L126.207-82.6269Q126.207-93.0406 120.73-98.5624Q115.253-104.084 104.864-104.084L37.3893-104.084Q27.0136-104.084 21.5488-98.5624Q16.084-93.0406 16.084-82.6269L16.084 12.1988Q16.084 22.6504 21.5488 28.1532Q27.0136 33.656 37.3893 33.656ZM79.7273-28.7293L142.503-28.7293L151.709-29.2916L146.612-25.4647L137.888-17.1863Q136.005-15.4752 136.005-12.8866Q136.005-10.6338 137.545-8.90919Q139.086-7.18462 141.489-7.18462Q143.724-7.18462 145.507-8.96697L165.958-30.1436Q167.23-31.4454 167.732-32.7001Q168.233-33.9548 168.233-35.2697Q168.233-36.6138 167.732-37.8539Q167.23-39.094 165.958-40.3958L145.507-61.5858Q143.724-63.3681 141.489-63.3681Q139.086-63.3681 137.545-61.6691Q136.005-59.97 136.005-57.704Q136.005-55.0773 137.888-53.3665L146.612-45.0881L151.76-41.2478L142.503-41.8101L79.7273-41.8101Q77.127-41.8101 75.2095-39.9175Q73.292-38.0249 73.292-35.2697Q73.292-32.5437 75.2095-30.6365Q77.127-28.7293 79.7273-28.7293Z"/>
  </g>
  <g id="Semibold-L" transform="matrix(1 0 0 1 1952.55 1556)">
   <path d="M36.4783 33.0831L103.85 33.0831Q113.874 33.0831 119.081 27.8452Q124.288 22.6074 124.288 12.5153L124.288-15.9363L111.93-15.9363L111.93 11.5372Q111.93 16.0074 109.618 18.3787Q107.305 20.7499 102.655 20.7499L37.7166 20.7499Q33.0421 20.7499 30.7296 18.3787Q28.4171 16.0074 28.4171 11.5372L28.4171-81.9656Q28.4171-86.4543 30.7296-88.8163Q33.0421-91.1783 37.7166-91.1783L102.655-91.1783Q107.305-91.1783 109.618-88.8163Q111.93-86.4543 111.93-81.9656L111.93-54.4175L124.288-54.4175L124.288-82.9436Q124.288-92.9925 119.081-98.252Q113.874-103.511 103.85-103.511L36.4783-103.511Q26.4729-103.511 21.2785-98.252Q16.084-92.9925 16.084-82.9436L16.084 12.5153Q16.084 22.6074 21.2785 27.8452Q26.4729 33.0831 36.4783 33.0831ZM77.0679-29.5551L141.275-29.5551L150.493-30.038L145.319-25.7314L135.865-16.7228Q134.193-15.2183 134.193-12.9153Q134.193-10.8842 135.564-9.37678Q136.936-7.86932 139.053-7.86932Q141.035-7.86932 142.632-9.46658L163.383-30.8799Q164.491-32.007 164.921-33.0656Q165.351-34.1243 165.351-35.2697Q165.351-36.4337 164.921-37.4831Q164.491-38.5324 163.383-39.6595L142.632-61.0915Q141.035-62.6887 139.053-62.6887Q136.936-62.6887 135.564-61.212Q134.193-59.7353 134.193-57.686Q134.193-55.3395 135.865-53.8353L145.319-44.8267L150.554-40.5014L141.275-40.9843L77.0679-40.9843Q74.7959-40.9843 73.1273-39.3219Q71.4586-37.6595 71.4586-35.2697Q71.4586-32.8985 73.1273-31.2268Q74.7959-29.5551 77.0679-29.5551Z"/>
  </g>
  <g id="Medium-L" transform="matrix(1 0 0 1 1656.93 1556)">
   <path d="M35.7875 32.6486L103.082 32.6486Q112.829 32.6486 117.831 27.6117Q122.833 22.5747 122.833 12.7553L122.833-16.3387L112.074-16.3387L112.074 12.1318Q112.074 16.8707 109.597 19.3925Q107.12 21.9143 102.221 21.9143L36.6956 21.9143Q31.7604 21.9143 29.2894 19.3925Q26.8183 16.8707 26.8183 12.1318L26.8183-82.5604Q26.8183-87.3098 29.2894-89.8263Q31.7604-92.3428 36.6956-92.3428L102.221-92.3428Q107.12-92.3428 109.597-89.8263Q112.074-87.3098 112.074-82.5604L112.074-54.0716L122.833-54.0716L122.833-83.1838Q122.833-92.956 117.831-98.0166Q112.829-103.077 103.082-103.077L35.7875-103.077Q26.063-103.077 21.0735-98.0166Q16.084-92.956 16.084-83.1838L16.084 12.7553Q16.084 22.5747 21.0735 27.6117Q26.063 32.6486 35.7875 32.6486ZM75.0515-30.1813L140.344-30.1813L149.57-30.6039L144.339-25.9335L134.331-16.3713Q132.82-15.0234 132.82-12.937Q132.82-11.0742 134.063-9.73132Q135.306-8.38848 137.206-8.38848Q138.995-8.38848 140.452-9.84541L161.43-31.4382Q162.414-32.4329 162.79-33.3428Q163.166-34.2527 163.166-35.2697Q163.166-36.2972 162.79-37.2019Q162.414-38.1065 161.43-39.1012L140.452-60.7166Q138.995-62.1736 137.206-62.1736Q135.306-62.1736 134.063-60.8655Q132.82-59.5574 132.82-57.6723Q132.82-55.5382 134.331-54.1907L144.339-44.6285L149.64-39.9355L140.344-40.3581L75.0515-40.3581Q73.0284-40.3581 71.5484-38.8703Q70.0685-37.3824 70.0685-35.2697Q70.0685-33.1675 71.5484-31.6744Q73.0284-30.1813 75.0515-30.1813Z"/>
  </g>
  <g id="Regular-L" transform="matrix(1 0 0 1 1361.64 1556)">
   <path d="M34.8865 32.0819L102.08 32.0819Q111.466 32.0819 116.201 27.307Q120.935 22.5321 120.935 13.0683L120.935-16.8636L112.262-16.8636L112.262 12.9074Q112.262 17.9968 109.57 20.7149Q106.878 23.433 101.655 23.433L35.364 23.433Q30.0887 23.433 27.4108 20.7149Q24.7329 17.9968 24.7329 12.9074L24.7329-83.3363Q24.7329-88.4257 27.4108-91.1438Q30.0887-93.8618 35.364-93.8618L101.655-93.8618Q106.878-93.8618 109.57-91.1438Q112.262-88.4257 112.262-83.3363L112.262-53.6205L120.935-53.6205L120.935-83.4971Q120.935-92.9084 116.201-97.7096Q111.466-102.511 102.08-102.511L34.8865-102.511Q25.5282-102.511 20.8061-97.7096Q16.084-92.9084 16.084-83.4971L16.084 13.0683Q16.084 22.5321 20.8061 27.307Q25.5282 32.0819 34.8865 32.0819ZM72.4213-30.998L139.129-30.998L148.367-31.3421L143.061-26.1973L132.33-15.913Q131.028-14.7693 131.028-12.9654Q131.028-11.3219 132.104-10.1938Q133.179-9.06565 134.797-9.06565Q136.335-9.06565 137.609-10.3395L158.883-32.1664Q159.705-32.9883 160.01-33.7043Q160.315-34.4203 160.315-35.2697Q160.315-36.1191 160.01-36.8351Q159.705-37.5511 158.883-38.373L137.609-60.2278Q136.335-61.5016 134.797-61.5016Q133.179-61.5016 132.104-60.4135Q131.028-59.3254 131.028-57.6544Q131.028-55.7975 132.33-54.6543L143.061-44.37L148.447-39.1973L139.129-39.5414L72.4213-39.5414Q70.723-39.5414 69.4891-38.2812Q68.2552-37.021 68.2552-35.2697Q68.2552-33.5184 69.4891-32.2582Q70.723-30.998 72.4213-30.998Z"/>
  </g>
  <g id="Light-L" transform="matrix(1 0 0 1 1066.31 1556)">
   <path d="M33.9323 31.7767L101.489 31.7767Q110.359 31.7767 114.865 27.2307Q119.37 22.6848 119.37 13.7936L119.37-17.0926L112.758-17.0926L112.758 13.6328Q112.758 19.2375 109.818 22.1941Q106.878 25.1508 101.159 25.1508L34.2953 25.1508Q28.5428 25.1508 25.6263 22.1941Q22.7099 19.2375 22.7099 13.6328L22.7099-83.9853Q22.7099-89.59 25.6263-92.5466Q28.5428-95.5033 34.2953-95.5033L101.159-95.5033Q106.878-95.5033 109.818-92.5466Q112.758-89.59 112.758-83.9853L112.758-53.3534L119.37-53.3534L119.37-84.1461Q119.37-93.004 114.865-97.5666Q110.359-102.129 101.489-102.129L33.9323-102.129Q25.1085-102.129 20.5962-97.5666Q16.084-93.004 16.084-84.1461L16.084 13.7936Q16.084 22.6848 20.5962 27.2307Q25.1085 31.7767 33.9323 31.7767ZM69.7875-31.9905L139.187-31.9905L148.195-32.239L141.725-25.9302L130.192-14.6534Q129.158-13.7195 129.158-12.3356Q129.158-11.1119 130.004-10.2319Q130.851-9.352 132.087-9.352Q133.243-9.352 134.231-10.3395L156.479-32.9106Q157.09-33.5229 157.329-34.067Q157.567-34.6111 157.567-35.2697Q157.567-35.9283 157.329-36.4724Q157.09-37.0165 156.479-37.6288L134.231-60.247Q133.243-61.2345 132.087-61.2345Q130.851-61.2345 130.004-60.3944Q129.158-59.5543 129.158-58.2842Q129.158-56.8663 130.192-55.9331L141.725-44.6563L148.276-38.3005L139.187-38.5489L69.7875-38.5489Q68.471-38.5489 67.5233-37.5846Q66.5756-36.6202 66.5756-35.2697Q66.5756-33.9192 67.5233-32.9548Q68.471-31.9905 69.7875-31.9905Z"/>
  </g>
  <g id="Thin-L" transform="matrix(1 0 0 1 771.414 1556)">
   <path d="M32.6702 31.3729L100.706 31.3729Q108.896 31.3729 113.098 27.1298Q117.3 22.8866 117.3 14.7529L117.3-17.3954L113.415-17.3954L113.415 14.5921Q113.415 20.8783 110.146 24.1505Q106.878 27.4227 100.502 27.4227L32.8818 27.4227Q26.4982 27.4227 23.2662 24.1505Q20.0343 20.8783 20.0343 14.5921L20.0343-84.8436Q20.0343-91.1298 23.2662-94.402Q26.4982-97.6742 32.8818-97.6742L100.502-97.6742Q106.878-97.6742 110.146-94.402Q113.415-91.1298 113.415-84.8436L113.415-53.0001L117.3-53.0001L117.3-85.0045Q117.3-93.1304 113.098-97.3774Q108.896-101.624 100.706-101.624L32.6702-101.624Q24.5534-101.624 20.3187-97.3774Q16.084-93.1304 16.084-85.0045L16.084 14.7529Q16.084 22.8866 20.3187 27.1298Q24.5534 31.3729 32.6702 31.3729ZM66.304-33.303L139.263-33.303L147.968-33.4251L139.959-25.5769L127.365-12.9876Q126.684-12.331 126.684-11.5027Q126.684-10.8341 127.228-10.2824Q127.771-9.73071 128.502-9.73071Q129.154-9.73071 129.763-10.3395L153.298-33.8949Q153.632-34.2298 153.782-34.5466Q153.932-34.8634 153.932-35.2697Q153.932-35.676 153.782-35.9928Q153.632-36.3096 153.298-36.6445L129.763-60.2724Q129.154-60.8813 128.502-60.8813Q127.771-60.8813 127.228-60.3692Q126.684-59.8571 126.684-59.1171Q126.684-58.2798 127.365-57.6244L139.959-45.0351L148.048-37.1143L139.263-37.2364L66.304-37.2364Q65.4926-37.2364 64.9234-36.6632Q64.3542-36.0901 64.3542-35.2697Q64.3542-34.4493 64.9234-33.8762Q65.4926-33.303 66.304-33.303Z"/>
  </g>
  <g id="Ultralight-L" transform="matrix(1 0 0 1 475.634 1556)">
   <path d="M32.0237 31.1661L100.305 31.1661Q108.146 31.1661 112.193 27.0781Q116.24 22.99 116.24 15.2443L116.24-17.5505L113.751-17.5505L113.751 15.0834Q113.751 21.7187 110.314 25.1525Q106.878 28.5863 100.166 28.5863L32.1578 28.5863Q25.451 28.5863 22.0574 25.1525Q18.6638 21.7187 18.6638 15.0834L18.6638-85.2833Q18.6638-91.9186 22.0574-95.3524Q25.451-98.7862 32.1578-98.7862L100.166-98.7862Q106.878-98.7862 110.314-95.3524Q113.751-91.9186 113.751-85.2833L113.751-52.8192L116.24-52.8192L116.24-85.4441Q116.24-93.1951 112.193-97.2805Q108.146-101.366 100.305-101.366L32.0237-101.366Q24.269-101.366 20.1765-97.2805Q16.084-93.1951 16.084-85.4441L16.084 15.2443Q16.084 22.99 20.1765 27.0781Q24.269 31.1661 32.0237 31.1661ZM64.5197-33.9753L139.301-33.9753L147.851-34.0327L139.054-25.396L125.917-12.1343Q125.417-11.6198 125.417-11.0761Q125.417-10.6918 125.806-10.3082Q126.194-9.92469 126.666-9.92469Q127.06-9.92469 127.475-10.3395L151.67-34.3991Q151.861-34.5919 151.966-34.7923Q152.07-34.9927 152.07-35.2697Q152.07-35.5467 151.966-35.7471Q151.861-35.9475 151.67-36.1403L127.475-60.2855Q127.06-60.7003 126.666-60.7003Q126.194-60.7003 125.806-60.3563Q125.417-60.0122 125.417-59.5437Q125.417-59.0038 125.917-58.4907L139.054-45.229L147.932-36.5067L139.301-36.5641L64.5197-36.5641Q63.9671-36.5641 63.5917-36.1913Q63.2164-35.8186 63.2164-35.2697Q63.2164-34.7208 63.5917-34.3481Q63.9671-33.9753 64.5197-33.9753Z"/>
  </g>
  <g id="Black-M" transform="matrix(1 0 0 1 2857.8 1126)">
   <path d="M31.5964 19.8932L84.3265 19.8932Q93.3835 19.8932 98.4255 14.8486Q103.467 9.80402 103.467 0.735694L103.467-18.228L86.1238-18.228L86.1238-1.90115Q86.1238 0.313729 85.12 1.43447Q84.1161 2.55522 81.6622 2.55522L34.2662 2.55522Q31.8639 2.55522 30.8314 1.43447Q29.7989 0.313729 29.7989-1.90115L29.7989-68.5071Q29.7989-70.7791 30.8314-71.8713Q31.8639-72.9634 34.2662-72.9634L81.6622-72.9634Q84.1161-72.9634 85.12-71.8713Q86.1238-70.7791 86.1238-68.5071L86.1238-51.8371L103.467-51.8371L103.467-71.1439Q103.467-80.2068 98.4255-85.2541Q93.3835-90.3014 84.3265-90.3014L31.5964-90.3014Q22.5391-90.3014 17.5-85.2541Q12.4609-80.2068 12.4609-71.1439L12.4609 0.735694Q12.4609 9.80402 17.5 14.8486Q22.5391 19.8932 31.5964 19.8932ZM69.4954-27.8533L114.404-27.8533L121.422-28.514L117.323-26.7086L112.661-22.325Q110.606-20.401 110.606-17.6121Q110.606-15.2904 112.271-13.3347Q113.936-11.3791 116.594-11.3791Q119.019-11.3791 120.903-13.2627L136.106-29.1549Q137.553-30.6584 138.151-32.2079Q138.749-33.7575 138.749-35.2606Q138.749-36.8209 138.151-38.3419Q137.553-39.8629 136.106-41.3663L120.903-57.2583Q119.019-59.1419 116.594-59.1419Q113.936-59.1419 112.271-57.1889Q110.606-55.2358 110.606-52.9144Q110.606-50.12 112.661-48.196L117.323-43.8124L121.427-42.0073L114.404-42.668L69.4954-42.668Q66.5462-42.668 64.3512-40.5559Q62.1562-38.4437 62.1562-35.2606Q62.1562-32.1346 64.3512-29.994Q66.5462-27.8533 69.4954-27.8533Z"/>
  </g>
  <g id="Heavy-M" transform="matrix(1 0 0 1 2562.62 1126)">
   <path d="M30.6466 19.2324L83.1692 19.2324Q91.8743 19.2324 96.6228 14.4746Q101.371 9.71667 101.371 0.981088L101.371-18.8516L86.2576-18.8516L86.2576-1.06287Q86.2576 1.49054 85.0319 2.81168Q83.8062 4.13282 81.0432 4.13282L32.7891 4.13282Q30.0533 4.13282 28.8069 2.81168Q27.5605 1.49054 27.5605-1.06287L27.5605-69.3621Q27.5605-71.9591 28.8069-73.2584Q30.0533-74.5578 32.7891-74.5578L81.0432-74.5578Q83.8062-74.5578 85.0319-73.2584Q86.2576-71.9591 86.2576-69.3621L86.2576-51.3162L101.371-51.3162L101.371-71.406Q101.371-80.1252 96.6228-84.8913Q91.8743-89.6574 83.1692-89.6574L30.6466-89.6574Q21.9439-89.6574 17.2024-84.8913Q12.4609-80.1252 12.4609-71.406L12.4609 0.981088Q12.4609 9.71667 17.2024 14.4746Q21.9439 19.2324 30.6466 19.2324ZM66.6902-28.6869L112.835-28.6869L119.917-29.2675L115.971-27.104L110.555-22.008Q108.712-20.3008 108.712-17.7838Q108.712-15.653 110.211-13.9192Q111.71-12.1855 114.089-12.1855Q116.274-12.1855 117.984-13.896L133.359-29.9284Q134.642-31.2555 135.164-32.5934Q135.685-33.9313 135.685-35.2606Q135.685-36.6336 135.164-37.9497Q134.642-39.2658 133.359-40.5929L117.984-56.6276Q116.274-58.3381 114.089-58.3381Q111.71-58.3381 110.211-56.6137Q108.712-54.8892 108.712-52.7562Q108.712-50.2227 110.555-48.5156L115.971-43.4196L119.936-41.2538L112.835-41.8344L66.6902-41.8344Q64.0751-41.8344 62.134-39.9505Q60.1929-38.0666 60.1929-35.2606Q60.1929-32.4983 62.134-30.5926Q64.0751-28.6869 66.6902-28.6869Z"/>
  </g>
  <g id="Bold-M" transform="matrix(1 0 0 1 2267.62 1126)">
   <path d="M29.5842 18.4933L81.8747 18.4933Q90.186 18.4933 94.6063 14.0561Q99.0265 9.61896 99.0265 1.2556L99.0265-19.5491L86.4074-19.5491L86.4074-0.125134Q86.4074 2.80697 84.9335 4.35228Q83.4595 5.89759 80.3508 5.89759L31.1366 5.89759Q28.0279 5.89759 26.5423 4.35228Q25.0566 2.80697 25.0566-0.125134L25.0566-70.3185Q25.0566-73.2792 26.5423-74.8102Q28.0279-76.3413 31.1366-76.3413L80.3508-76.3413Q83.4595-76.3413 84.9335-74.8102Q86.4074-73.2792 86.4074-70.3185L86.4074-50.7335L99.0265-50.7335L99.0265-71.6993Q99.0265-80.034 94.6063-84.4855Q90.186-88.937 81.8747-88.937L29.5842-88.937Q21.278-88.937 16.8695-84.4855Q12.4609-80.034 12.4609-71.6993L12.4609 1.2556Q12.4609 9.61896 16.8695 14.0561Q21.278 18.4933 29.5842 18.4933ZM63.5521-29.6195L111.08-29.6195L118.233-30.1103L114.46-27.5463L108.2-21.6534Q106.592-20.1887 106.592-17.9758Q106.592-16.0587 107.907-14.5731Q109.221-13.0876 111.286-13.0876Q113.203-13.0876 114.72-14.6044L130.285-30.7936Q131.386-31.9235 131.823-33.0246Q132.259-34.1257 132.259-35.2606Q132.259-36.4242 131.823-37.511Q131.386-38.5978 130.285-39.7277L114.72-55.922Q113.203-57.4389 111.286-57.4389Q109.221-57.4389 107.907-55.9702Q106.592-54.5015 106.592-52.5793Q106.592-50.3377 108.2-48.873L114.46-42.9801L118.267-40.411L111.08-40.9018L63.5521-40.9018Q61.3108-40.9018 59.6538-39.2733Q57.9967-37.6448 57.9967-35.2606Q57.9967-32.905 59.6538-31.2622Q61.3108-29.6195 63.5521-29.6195Z"/>
  </g>
  <g id="Semibold-M" transform="matrix(1 0 0 1 1972.09 1126)">
   <path d="M28.8517 17.9838L80.9823 17.9838Q89.0221 17.9838 93.216 13.7677Q97.41 9.55159 97.41 1.44484L97.41-20.03L86.5106-20.03L86.5106 0.521338Q86.5106 3.71451 84.8656 5.41437Q83.2205 7.11422 79.8735 7.11422L29.9974 7.11422Q26.6316 7.11422 24.981 5.41437Q23.3305 3.71451 23.3305 0.521338L23.3305-70.9779Q23.3305-74.1892 24.981-75.88Q26.6316-77.5708 29.9974-77.5708L79.8735-77.5708Q83.2205-77.5708 84.8656-75.88Q86.5106-74.1892 86.5106-70.9779L86.5106-50.3318L97.41-50.3318L97.41-71.9014Q97.41-79.9712 93.216-84.2057Q89.0221-88.4403 80.9823-88.4403L28.8517-88.4403Q20.819-88.4403 16.64-84.2057Q12.4609-79.9712 12.4609-71.9014L12.4609 1.44484Q12.4609 9.55159 16.64 13.7677Q20.819 17.9838 28.8517 17.9838ZM61.3887-30.2624L109.871-30.2624L117.072-30.6914L113.418-27.8513L106.576-21.409Q105.131-20.1114 105.131-18.1081Q105.131-16.3383 106.318-15.0239Q107.505-13.7095 109.353-13.7095Q111.085-13.7095 112.469-15.0928L128.166-31.3901Q129.142-32.384 129.519-33.3218Q129.897-34.2597 129.897-35.2606Q129.897-36.2798 129.519-37.2085Q129.142-38.1373 128.166-39.1312L112.469-55.4356Q111.085-56.819 109.353-56.819Q107.505-56.819 106.318-55.5266Q105.131-54.2342 105.131-52.4573Q105.131-50.4169 106.576-49.1195L113.418-42.6772L117.116-39.8299L109.871-40.2589L61.3887-40.2589Q59.4051-40.2589 57.9439-38.8065Q56.4827-37.354 56.4827-35.2606Q56.4827-33.1854 57.9439-31.7239Q59.4051-30.2624 61.3887-30.2624Z"/>
  </g>
  <g id="Medium-M" transform="matrix(1 0 0 1 1676.27 1126)">
   <path d="M28.2963 17.5974L80.3056 17.5974Q88.1396 17.5974 92.1619 13.549Q96.1843 9.50052 96.1843 1.58833L96.1843-20.3946L86.5889-20.3946L86.5889 1.01152Q86.5889 4.40265 84.8141 6.21968Q83.0393 8.03671 79.5115 8.03671L29.1337 8.03671Q25.5728 8.03671 23.7972 6.21968Q22.0216 4.40265 22.0216 1.01152L22.0216-71.4779Q22.0216-74.8793 23.7972-76.6912Q25.5728-78.5031 29.1337-78.5031L79.5115-78.5031Q83.0393-78.5031 84.8141-76.6912Q86.5889-74.8793 86.5889-71.4779L86.5889-50.0272L96.1843-50.0272L96.1843-72.0547Q96.1843-79.9235 92.1619-83.9936Q88.1396-88.0637 80.3056-88.0637L28.2963-88.0637Q20.471-88.0637 16.4659-83.9936Q12.4609-79.9235 12.4609-72.0547L12.4609 1.58833Q12.4609 9.50052 16.4659 13.549Q20.471 17.5974 28.2963 17.5974ZM59.7484-30.7498L108.953-30.7498L116.192-31.132L112.627-28.0825L105.345-21.2237Q104.024-20.0528 104.024-18.2085Q104.024-16.5504 105.114-15.3657Q106.203-14.181 107.888-14.181Q109.48-14.181 110.762-15.4632L126.559-31.8423Q127.44-32.7331 127.773-33.5472Q128.105-34.3613 128.105-35.2606Q128.105-36.1703 127.773-36.9792Q127.44-37.7881 126.559-38.679L110.762-55.0668Q109.48-56.3489 107.888-56.3489Q106.203-56.3489 105.114-55.1902Q104.024-54.0315 104.024-52.3648Q104.024-50.477 105.345-49.3063L112.627-42.4475L116.244-39.3893L108.953-39.7715L59.7484-39.7715Q57.9601-39.7715 56.6474-38.4525Q55.3347-37.1335 55.3347-35.2606Q55.3347-33.3981 56.6474-32.0739Q57.9601-30.7498 59.7484-30.7498Z"/>
  </g>
  <g id="Regular-M" transform="matrix(1 0 0 1 1380.73 1126)">
   <path d="M27.5719 17.0934L79.4229 17.0934Q86.9885 17.0934 90.787 13.2637Q94.5855 9.43389 94.5855 1.7755L94.5855-20.8702L86.691-20.8702L86.691 1.65089Q86.691 5.30021 84.747 7.27009Q82.8029 9.23997 79.0395 9.23997L28.007 9.23997Q24.1919 9.23997 22.2531 7.27009Q20.3144 5.30021 20.3144 1.65089L20.3144-72.13Q20.3144-75.7793 22.2531-77.7492Q24.1919-79.7191 28.007-79.7191L79.0395-79.7191Q82.8029-79.7191 84.747-77.7492Q86.691-75.7793 86.691-72.13L86.691-49.63L94.5855-49.63L94.5855-72.2546Q94.5855-79.8613 90.787-83.7169Q86.9885-87.5725 79.4229-87.5725L27.5719-87.5725Q20.017-87.5725 16.239-83.7169Q12.4609-79.8613 12.4609-72.2546L12.4609 1.7755Q12.4609 9.43389 16.239 13.2637Q20.017 17.0934 27.5719 17.0934ZM57.6087-31.3857L107.757-31.3857L115.044-31.7067L111.597-28.3841L103.739-20.9819Q102.579-19.9764 102.579-18.3394Q102.579-16.827 103.542-15.8115Q104.506-14.7961 105.977-14.7961Q107.386-14.7961 108.536-15.9462L124.464-32.4322Q125.22-33.1886 125.495-33.8412Q125.769-34.4939 125.769-35.2606Q125.769-36.0274 125.495-36.6801Q125.22-37.3327 124.464-38.089L108.536-54.5857Q107.386-55.7358 105.977-55.7358Q104.506-55.7358 103.542-54.7515Q102.579-53.7671 102.579-52.2442Q102.579-50.5554 103.739-49.55L111.597-42.1479L115.106-38.8146L107.757-39.1356L57.6087-39.1356Q56.0753-39.1356 54.9563-37.9908Q53.8373-36.8459 53.8373-35.2606Q53.8373-33.6754 54.9563-32.5305Q56.0753-31.3857 57.6087-31.3857Z"/>
  </g>
  <g id="Light-M" transform="matrix(1 0 0 1 1085.25 1126)">
   <path d="M26.7163 16.8198L78.8925 16.8198Q85.9961 16.8198 89.5892 13.1952Q93.1823 9.57073 93.1823 2.42579L93.1823-21.0755L87.136-21.0755L87.136 2.30118Q87.136 6.41249 84.9695 8.59626Q82.8029 10.78 78.5944 10.78L27.0488 10.78Q22.8059 10.78 20.6533 8.59626Q18.5007 6.41249 18.5007 2.30118L18.5007-72.7119Q18.5007-76.8232 20.6533-79.0069Q22.8059-81.1907 27.0488-81.1907L78.5944-81.1907Q82.8029-81.1907 84.9695-79.0069Q87.136-76.8232 87.136-72.7119L87.136-49.3905L93.1823-49.3905L93.1823-72.8365Q93.1823-79.947 89.5892-83.5887Q85.9961-87.2304 78.8925-87.2304L26.7163-87.2304Q19.6407-87.2304 16.0508-83.5887Q12.4609-79.947 12.4609-72.8365L12.4609 2.42579Q12.4609 9.57073 16.0508 13.1952Q19.6407 16.8198 26.7163 16.8198ZM55.2473-32.2754L107.808-32.2754L114.89-32.5108L110.399-28.1446L101.823-19.8527Q100.902-19.0351 100.902-17.7748Q100.902-16.6387 101.66-15.8457Q102.419-15.0528 103.547-15.0528Q104.614-15.0528 105.508-15.9462L122.308-33.0995Q122.876-33.6678 123.09-34.1664Q123.305-34.6649 123.305-35.2606Q123.305-35.8564 123.09-36.3549Q122.876-36.8535 122.308-37.4218L105.508-54.603Q104.614-55.4964 103.547-55.4964Q102.419-55.4964 101.66-54.7344Q100.902-53.9724 100.902-52.8088Q100.902-51.5136 101.823-50.6965L110.399-42.4046L114.952-38.0105L107.808-38.2459L55.2473-38.2459Q54.0563-38.2459 53.1939-37.3662Q52.3314-36.4865 52.3314-35.2606Q52.3314-34.0348 53.1939-33.1551Q54.0563-32.2754 55.2473-32.2754Z"/>
  </g>
  <g id="Thin-M" transform="matrix(1 0 0 1 790.169 1126)">
   <path d="M25.5848 16.4578L78.191 16.4578Q84.6835 16.4578 88.005 13.1048Q91.3265 9.75172 91.3265 3.28585L91.3265-21.347L87.7246-21.347L87.7246 3.16124Q87.7246 7.88357 85.2638 10.3502Q82.8029 12.8169 78.0058 12.8169L25.7815 12.8169Q20.9729 12.8169 18.5374 10.3502Q16.1019 7.88357 16.1019 3.16124L16.1019-73.4814Q16.1019-78.2038 18.5374-80.6704Q20.9729-83.1371 25.7815-83.1371L78.0058-83.1371Q82.8029-83.1371 85.2638-80.6704Q87.7246-78.2038 87.7246-73.4814L87.7246-49.0738L91.3265-49.0738L91.3265-73.606Q91.3265-80.0603 88.005-83.4191Q84.6835-86.778 78.191-86.778L25.5848-86.778Q19.1429-86.778 15.8019-83.4191Q12.4609-80.0603 12.4609-73.606L12.4609 3.28585Q12.4609 9.75172 15.8019 13.1048Q19.1429 16.4578 25.5848 16.4578ZM52.1242-33.4522L107.876-33.4522L114.686-33.5742L108.815-27.8279L99.2885-18.3592Q98.684-17.7903 98.684-17.0281Q98.684-16.3896 99.171-15.891Q99.658-15.3924 100.334-15.3924Q100.948-15.3924 101.502-15.9462L119.457-33.982Q119.775-34.3016 119.911-34.5964Q120.046-34.8911 120.046-35.2606Q120.046-35.6301 119.911-35.9249Q119.775-36.2196 119.457-36.5393L101.502-54.6258Q100.948-55.1796 100.334-55.1796Q99.658-55.1796 99.171-54.7117Q98.684-54.2438 98.684-53.5555Q98.684-52.7809 99.2885-52.2128L108.815-42.7441L114.748-36.9471L107.876-37.0691L52.1242-37.0691Q51.386-37.0691 50.8629-36.5402Q50.3398-36.0113 50.3398-35.2606Q50.3398-34.51 50.8629-33.9811Q51.386-33.4522 52.1242-33.4522Z"/>
  </g>
  <g id="Ultralight-M" transform="matrix(1 0 0 1 494.292 1126)">
   <path d="M25.0052 16.2724L77.8317 16.2724Q84.0113 16.2724 87.1936 13.0584Q90.3759 9.84442 90.3759 3.72637L90.3759-21.486L88.0261-21.486L88.0261 3.60176Q88.0261 8.63705 85.4145 11.2486Q82.8029 13.8601 77.7044 13.8601L25.1325 13.8601Q20.034 13.8601 17.4536 11.2486Q14.8732 8.63705 14.8732 3.60176L14.8732-73.8756Q14.8732-78.9109 17.4536-81.5224Q20.034-84.134 25.1325-84.134L77.7044-84.134Q82.8029-84.134 85.4145-81.5224Q88.0261-78.9109 88.0261-73.8756L88.0261-48.9115L90.3759-48.9115L90.3759-74.0002Q90.3759-80.1183 87.1936-83.3323Q84.0113-86.5462 77.8317-86.5462L25.0052-86.5462Q18.888-86.5462 15.6745-83.3323Q12.4609-80.1183 12.4609-74.0002L12.4609 3.72637Q12.4609 9.84442 15.6745 13.0584Q18.888 16.2724 25.0052 16.2724ZM50.5246-34.055L107.911-34.055L114.582-34.1189L108.004-27.6656L97.9903-17.5942Q97.548-17.1527 97.548-16.6456Q97.548-16.262 97.896-15.9142Q98.2439-15.5663 98.6878-15.5663Q99.0705-15.5663 99.4504-15.9462L117.996-34.434Q118.188-34.6263 118.282-34.8166Q118.377-35.007 118.377-35.2606Q118.377-35.5143 118.282-35.7046Q118.188-35.895 117.996-36.0873L99.4504-54.6375Q99.0705-55.0174 98.6878-55.0174Q98.2439-55.0174 97.896-54.7001Q97.548-54.3829 97.548-53.938Q97.548-53.4299 97.9903-52.9895L108.004-42.918L114.644-36.4023L107.911-36.4663L50.5246-36.4663Q50.0183-36.4663 49.669-36.1171Q49.3197-35.7678 49.3197-35.2606Q49.3197-34.7535 49.669-34.4042Q50.0183-34.055 50.5246-34.055Z"/>
  </g>
  <g id="Black-S" transform="matrix(1 0 0 1 2873.76 696)">
   <path d="M25 8.1543L66.4062 8.1543Q73.584 8.1543 77.6123 4.12598Q81.6406 0.0976562 81.6406-7.08008L81.6406-21.7285L67.4805-21.7285L67.4805-9.32617Q67.4805-7.66602 66.748-6.83594Q66.0156-6.00586 64.1602-6.00586L27.2461-6.00586Q25.4395-6.00586 24.6826-6.83594Q23.9258-7.66602 23.9258-9.32617L23.9258-61.084Q23.9258-62.793 24.6826-63.5986Q25.4395-64.4043 27.2461-64.4043L64.1602-64.4043Q66.0156-64.4043 66.748-63.5986Q67.4805-62.793 67.4805-61.084L67.4805-48.3887L81.6406-48.3887L81.6406-63.3301Q81.6406-70.5078 77.6123-74.5361Q73.584-78.5645 66.4062-78.5645L25-78.5645Q17.8223-78.5645 13.7939-74.5361Q9.76562-70.5078 9.76562-63.3301L9.76562-7.08008Q9.76562 0.0976562 13.7939 4.12598Q17.8223 8.1543 25 8.1543ZM55.1758-29.248L90.1367-29.248L95.6055-29.7852L92.2852-28.418L88.8184-25.1465Q87.1582-23.584 87.1582-21.3379Q87.1582-19.4824 88.501-17.8955Q89.8438-16.3086 91.9922-16.3086Q93.9453-16.3086 95.459-17.8223L107.373-30.2734Q108.545-31.4941 109.033-32.7637Q109.521-34.0332 109.521-35.2539Q109.521-36.5234 109.033-37.7686Q108.545-39.0137 107.373-40.2344L95.459-52.6855Q93.9453-54.1992 91.9922-54.1992Q89.8438-54.1992 88.501-52.6123Q87.1582-51.0254 87.1582-49.1699Q87.1582-46.9238 88.8184-45.3613L92.2852-42.0898L95.6055-40.7227L90.1367-41.2598L55.1758-41.2598Q52.7832-41.2598 51.001-39.5508Q49.2188-37.8418 49.2188-35.2539Q49.2188-32.7148 51.001-30.9814Q52.7832-29.248 55.1758-29.248Z"/>
  </g>
  <g id="Heavy-S" transform="matrix(1 0 0 1 2578.2 696)">
   <path d="M24.297 7.62417L65.4843 7.62417Q72.42 7.62417 76.2236 3.81482Q80.0272 0.00546053 80.0272-6.95331L80.0272-22.2356L67.5381-22.2356L67.5381-8.69233Q67.5381-6.80168 66.6443-5.82755Q65.7506-4.85341 63.6877-4.85341L26.1052-4.85341Q24.068-4.85341 23.1556-5.82755Q22.2432-6.80168 22.2432-8.69233L22.2432-61.7409Q22.2432-63.6688 23.1556-64.6243Q24.068-65.5798 26.1052-65.5798L63.6877-65.5798Q65.7506-65.5798 66.6443-64.6243Q67.5381-63.6688 67.5381-61.7409L67.5381-47.9738L80.0272-47.9738L80.0272-63.4799Q80.0272-70.4271 76.2236-74.2423Q72.42-78.0574 65.4843-78.0574L24.297-78.0574Q17.3613-78.0574 13.5635-74.2423Q9.76562-70.4271 9.76562-63.4799L9.76562-6.95331Q9.76562 0.00546053 13.5635 3.81482Q17.3613 7.62417 24.297 7.62417ZM53.0783-29.8473L88.7884-29.8473L94.3378-30.3268L91.2825-28.7868L87.2626-25.0197Q85.7522-23.6186 85.7522-21.5569Q85.7522-19.8166 86.9797-18.3911Q88.2073-16.9655 90.1598-16.9655Q91.9516-16.9655 93.35-18.3639L105.299-30.8497Q106.355-31.9436 106.786-33.0518Q107.217-34.16 107.217-35.2539Q107.217-36.3851 106.786-37.4747Q106.355-38.5642 105.299-39.6582L93.35-52.1439Q91.9516-53.5423 90.1598-53.5423Q88.2073-53.5423 86.9797-52.1225Q85.7522-50.7027 85.7522-48.9625Q85.7522-46.8893 87.2626-45.4881L91.2825-41.7211L94.3493-40.181L88.7884-40.6605L53.0783-40.6605Q50.9278-40.6605 49.3299-39.1129Q47.7321-37.5652 47.7321-35.2539Q47.7321-32.9799 49.3299-31.4136Q50.9278-29.8473 53.0783-29.8473Z"/>
  </g>
  <g id="Bold-S" transform="matrix(1 0 0 1 2282.78 696)">
   <path d="M23.5107 7.03125L64.4531 7.03125Q71.1182 7.03125 74.6704 3.4668Q78.2227-0.0976562 78.2227-6.81152L78.2227-22.8027L67.6025-22.8027L67.6025-7.9834Q67.6025-5.83496 66.5283-4.69971Q65.4541-3.56445 63.1592-3.56445L24.8291-3.56445Q22.5342-3.56445 21.4478-4.69971Q20.3613-5.83496 20.3613-7.9834L20.3613-62.4756Q20.3613-64.6484 21.4478-65.7715Q22.5342-66.8945 24.8291-66.8945L63.1592-66.8945Q65.4541-66.8945 66.5283-65.7715Q67.6025-64.6484 67.6025-62.4756L67.6025-47.5098L78.2227-47.5098L78.2227-63.6475Q78.2227-70.3369 74.6704-73.9136Q71.1182-77.4902 64.4531-77.4902L23.5107-77.4902Q16.8457-77.4902 13.3057-73.9136Q9.76562-70.3369 9.76562-63.6475L9.76562-6.81152Q9.76562-0.0976562 13.3057 3.4668Q16.8457 7.03125 23.5107 7.03125ZM50.7324-30.5176L87.2803-30.5176L92.9199-30.9326L90.1611-29.1992L85.5225-24.8779Q84.1797-23.6572 84.1797-21.8018Q84.1797-20.1904 85.2783-18.9453Q86.377-17.7002 88.1104-17.7002Q89.7217-17.7002 90.9912-18.9697L102.979-31.4941Q103.906-32.4463 104.272-33.374Q104.639-34.3018 104.639-35.2539Q104.639-36.2305 104.272-37.146Q103.906-38.0615 102.979-39.0137L90.9912-51.5381Q89.7217-52.8076 88.1104-52.8076Q86.377-52.8076 85.2783-51.5747Q84.1797-50.3418 84.1797-48.7305Q84.1797-46.8506 85.5225-45.6299L90.1611-41.3086L92.9443-39.5752L87.2803-39.9902L50.7324-39.9902Q48.8525-39.9902 47.4609-38.623Q46.0693-37.2559 46.0693-35.2539Q46.0693-33.2764 47.4609-31.897Q48.8525-30.5176 50.7324-30.5176Z"/>
  </g>
  <g id="Semibold-S" transform="matrix(1 0 0 1 1986.95 696)">
   <path d="M22.9687 6.62246L63.7422 6.62246Q70.2206 6.62246 73.5996 3.22686Q76.9785-0.16875 76.9785-6.71377L76.9785-23.1938L67.647-23.1938L67.647-7.49463Q67.647-5.16846 66.4483-3.92212Q65.2497-2.67578 62.7948-2.67578L23.9493-2.67578Q21.4767-2.67578 20.2703-3.92212Q19.0639-5.16846 19.0639-7.49463L19.0639-62.9821Q19.0639-65.3238 20.2703-66.5624Q21.4767-67.801 23.9493-67.801L62.7948-67.801Q65.2497-67.801 66.4483-66.5624Q67.647-65.3238 67.647-62.9821L67.647-47.1898L76.9785-47.1898L76.9785-63.763Q76.9785-70.2747 73.5996-73.687Q70.2206-77.0992 63.7422-77.0992L22.9687-77.0992Q16.4902-77.0992 13.1279-73.687Q9.76562-70.2747 9.76562-63.763L9.76562-6.71377Q9.76562-0.16875 13.1279 3.22686Q16.4902 6.62246 22.9687 6.62246ZM49.115-30.9797L86.2405-30.9797L91.9424-31.3503L89.388-29.4836L84.3228-24.7802Q83.0955-23.6839 83.0955-21.9706Q83.0955-20.4481 84.1053-19.3274Q85.115-18.2067 86.6974-18.2067Q88.1843-18.2067 89.3649-19.3874L101.379-31.9385Q102.218-32.7929 102.54-33.5962Q102.861-34.3995 102.861-35.2539Q102.861-36.1238 102.54-36.9194Q102.218-37.7149 101.379-38.5693L89.3649-51.1204Q88.1843-52.3011 86.6974-52.3011Q85.115-52.3011 84.1053-51.197Q83.0955-50.093 83.0955-48.5705Q83.0955-46.8239 84.3228-45.7276L89.388-41.0242L91.9757-39.1575L86.2405-39.5281L49.115-39.5281Q47.4218-39.5281 46.1724-38.2854Q44.9229-37.0426 44.9229-35.2539Q44.9229-33.4808 46.1724-32.2302Q47.4218-30.9797 49.115-30.9797Z"/>
  </g>
  <g id="Medium-S" transform="matrix(1 0 0 1 1690.92 696)">
   <path d="M22.5576 6.3125L63.2031 6.3125Q69.54 6.3125 72.7876 3.04492Q76.0352-0.222656 76.0352-6.63965L76.0352-23.4902L67.6807-23.4902L67.6807-7.12402Q67.6807-4.66309 66.3877-3.33252Q65.0947-2.00195 62.5186-2.00195L23.2822-2.00195Q20.6748-2.00195 19.3774-3.33252Q18.0801-4.66309 18.0801-7.12402L18.0801-63.3662Q18.0801-65.8359 19.3774-67.1621Q20.6748-68.4883 23.2822-68.4883L62.5186-68.4883Q65.0947-68.4883 66.3877-67.1621Q67.6807-65.8359 67.6807-63.3662L67.6807-46.9473L76.0352-46.9473L76.0352-63.8506Q76.0352-70.2275 72.7876-73.5151Q69.54-76.8027 63.2031-76.8027L22.5576-76.8027Q16.2207-76.8027 12.9932-73.5151Q9.76562-70.2275 9.76562-63.8506L9.76562-6.63965Q9.76562-0.222656 12.9932 3.04492Q16.2207 6.3125 22.5576 6.3125ZM47.8887-31.3301L85.4521-31.3301L91.2012-31.667L88.8018-29.6992L83.4131-24.7061Q82.2734-23.7041 82.2734-22.0986Q82.2734-20.6436 83.2158-19.6172Q84.1582-18.5908 85.626-18.5908Q87.0186-18.5908 88.1318-19.7041L100.166-32.2754Q100.938-33.0557 101.226-33.7646Q101.514-34.4736 101.514-35.2539Q101.514-36.043 101.226-36.7476Q100.938-37.4521 100.166-38.2324L88.1318-50.8037Q87.0186-51.917 85.626-51.917Q84.1582-51.917 83.2158-50.9106Q82.2734-49.9043 82.2734-48.4492Q82.2734-46.8037 83.4131-45.8018L88.8018-40.8086L91.2412-38.8408L85.4521-39.1777L47.8887-39.1777Q46.3369-39.1777 45.1953-38.0293Q44.0537-36.8809 44.0537-35.2539Q44.0537-33.6357 45.1953-32.4829Q46.3369-31.3301 47.8887-31.3301Z"/>
  </g>
  <g id="Regular-S" transform="matrix(1 0 0 1 1395.08 696)">
   <path d="M22.0215 5.9082L62.5 5.9082Q68.6523 5.9082 71.7285 2.80762Q74.8047-0.292969 74.8047-6.54297L74.8047-23.877L67.7246-23.877L67.7246-6.64062Q67.7246-4.00391 66.3086-2.56348Q64.8926-1.12305 62.1582-1.12305L22.4121-1.12305Q19.6289-1.12305 18.2129-2.56348Q16.7969-4.00391 16.7969-6.64062L16.7969-63.8672Q16.7969-66.5039 18.2129-67.9443Q19.6289-69.3848 22.4121-69.3848L62.1582-69.3848Q64.8926-69.3848 66.3086-67.9443Q67.7246-66.5039 67.7246-63.8672L67.7246-46.6309L74.8047-46.6309L74.8047-63.9648Q74.8047-70.166 71.7285-73.291Q68.6523-76.416 62.5-76.416L22.0215-76.416Q15.8691-76.416 12.8174-73.291Q9.76562-70.166 9.76562-63.9648L9.76562-6.54297Q9.76562-0.292969 12.8174 2.80762Q15.8691 5.9082 22.0215 5.9082ZM46.2891-31.7871L84.4238-31.7871L90.2344-32.0801L88.0371-29.9805L82.2266-24.6094Q81.2012-23.7305 81.2012-22.2656Q81.2012-20.8984 82.0557-19.9951Q82.9102-19.0918 84.2285-19.0918Q85.498-19.0918 86.5234-20.1172L98.584-32.7148Q99.2676-33.3984 99.5117-33.9844Q99.7559-34.5703 99.7559-35.2539Q99.7559-35.9375 99.5117-36.5234Q99.2676-37.1094 98.584-37.793L86.5234-50.3906Q85.498-51.416 84.2285-51.416Q82.9102-51.416 82.0557-50.5371Q81.2012-49.6582 81.2012-48.291Q81.2012-46.7773 82.2266-45.8984L88.0371-40.5273L90.2832-38.4277L84.4238-38.7207L46.2891-38.7207Q44.9219-38.7207 43.9209-37.6953Q42.9199-36.6699 42.9199-35.2539Q42.9199-33.8379 43.9209-32.8125Q44.9219-31.7871 46.2891-31.7871Z"/>
  </g>
  <g id="Light-S" transform="matrix(1 0 0 1 1099.46 696)">
   <path d="M21.2646 5.6661L62.0308 5.6661Q67.7745 5.6661 70.6689 2.74709Q73.5634-0.171916 73.5634-5.96771L73.5634-24.0585L68.1183-24.0585L68.1183-6.06537Q68.1183-3.01997 66.5054-1.39033Q64.8926 0.239309 61.7645 0.239309L21.5645 0.239309Q18.4029 0.239309 16.7976-1.39033Q15.1924-3.01997 15.1924-6.06537L15.1924-64.3819Q15.1924-67.4273 16.7976-69.057Q18.4029-70.6866 21.5645-70.6866L61.7645-70.6866Q64.8926-70.6866 66.5054-69.057Q68.1183-67.4273 68.1183-64.3819L68.1183-46.419L73.5634-46.419L73.5634-64.4796Q73.5634-70.2418 70.6689-73.1776Q67.7745-76.1134 62.0308-76.1134L21.2646-76.1134Q15.5362-76.1134 12.6509-73.1776Q9.76562-70.2418 9.76562-64.4796L9.76562-5.96771Q9.76562-0.171916 12.6509 2.74709Q15.5362 5.6661 21.2646 5.6661ZM44.2001-32.5742L84.4694-32.5742L90.0981-32.7914L86.9776-29.7686L80.5313-23.6104Q79.7178-22.8978 79.7178-21.7662Q79.7178-20.7319 80.3907-20.0254Q81.0636-19.3189 82.0791-19.3189Q83.046-19.3189 83.8442-20.1172L96.6769-33.3051Q97.1939-33.8224 97.385-34.272Q97.5761-34.7216 97.5761-35.2539Q97.5761-35.7862 97.385-36.2358Q97.1939-36.6854 96.6769-37.2027L83.8442-50.4059Q83.046-51.2042 82.0791-51.2042Q81.0636-51.2042 80.3907-50.522Q79.7178-49.8398 79.7178-48.7905Q79.7178-47.625 80.5313-46.9126L86.9776-40.7544L90.1469-37.7164L84.4694-37.9336L44.2001-37.9336Q43.1358-37.9336 42.3618-37.1428Q41.5878-36.352 41.5878-35.2539Q41.5878-34.1558 42.3618-33.365Q43.1358-32.5742 44.2001-32.5742Z"/>
  </g>
  <g id="Thin-S" transform="matrix(1 0 0 1 804.193 696)">
   <path d="M20.2637 5.34589L61.4102 5.34589Q66.6134 5.34589 69.2675 2.66704Q71.9217-0.0118133 71.9217-5.20689L71.9217-24.2987L68.639-24.2987L68.639-5.30455Q68.639-1.71863 66.7658 0.161251Q64.8926 2.04113 61.2439 2.04113L20.4434 2.04113Q16.7813 2.04113 14.9259 0.161251Q13.0704-1.71863 13.0704-5.30455L13.0704-65.0627Q13.0704-68.6486 14.9259-70.5285Q16.7813-72.4084 20.4434-72.4084L61.2439-72.4084Q64.8926-72.4084 66.7658-70.5285Q68.639-68.6486 68.639-65.0627L68.639-46.1388L71.9217-46.1388L71.9217-65.1603Q71.9217-70.342 69.2675-73.0276Q66.6134-75.7131 61.4102-75.7131L20.2637-75.7131Q15.096-75.7131 12.4308-73.0276Q9.76562-70.342 9.76562-65.1603L9.76562-5.20689Q9.76562-0.0118133 12.4308 2.66704Q15.096 5.34589 20.2637 5.34589ZM41.4374-33.6152L84.5296-33.6152L89.9178-33.7322L85.5764-29.4884L78.2892-22.2893Q77.7558-21.7966 77.7558-21.1056Q77.7558-20.5116 78.1886-20.0654Q78.6214-19.6193 79.2362-19.6193Q79.8029-19.6193 80.3008-20.1172L94.1546-34.0858Q94.4513-34.3831 94.5723-34.6524Q94.6933-34.9218 94.6933-35.2539Q94.6933-35.5861 94.5723-35.8554Q94.4513-36.1247 94.1546-36.422L80.3008-50.4261Q79.8029-50.924 79.2362-50.924Q78.6214-50.924 78.1886-50.502Q77.7558-50.0799 77.7558-49.4511Q77.7558-48.746 78.2892-48.254L85.5764-41.0548L89.9666-36.7757L84.5296-36.8926L41.4374-36.8926Q40.7737-36.8926 40.2998-36.4121Q39.826-35.9316 39.826-35.2539Q39.826-34.5762 40.2998-34.0957Q40.7737-33.6152 41.4374-33.6152Z"/>
  </g>
  <g id="Ultralight-S" transform="matrix(1 0 0 1 508.22 696)">
   <path d="M19.751 5.18188L61.0924 5.18188Q66.0187 5.18188 68.5497 2.62604Q71.0808 0.0701904 71.0808-4.8172L71.0808-24.4217L68.9056-24.4217L68.9056-4.91486Q68.9056-1.05209 66.8991 0.955963Q64.8926 2.96402 60.9772 2.96402L19.8692 2.96402Q15.9508 2.96402 13.9671 0.955963Q11.9835-1.05209 11.9835-4.91486L11.9835-65.4114Q11.9835-69.2741 13.9671-71.2822Q15.9508-73.2903 19.8692-73.2903L60.9772-73.2903Q64.8926-73.2903 66.8991-71.2822Q68.9056-69.2741 68.9056-65.4114L68.9056-45.9953L71.0808-45.9953L71.0808-65.509Q71.0808-70.3934 68.5497-72.9507Q66.0187-75.5081 61.0924-75.5081L19.751-75.5081Q14.8705-75.5081 12.318-72.9507Q9.76562-70.3934 9.76562-65.509L9.76562-4.8172Q9.76562 0.0701904 12.318 2.62604Q14.8705 5.18188 19.751 5.18188ZM40.0223-34.1484L84.5604-34.1484L89.8254-34.214L84.8587-29.3449L77.1408-21.6125Q76.7509-21.2326 76.7509-20.7672Q76.7509-20.3987 77.0607-20.0859Q77.3705-19.7731 77.7802-19.7731Q78.1418-19.7731 78.4859-20.1172L92.8627-34.4856Q93.0466-34.6703 93.1316-34.8473Q93.2167-35.0243 93.2167-35.2539Q93.2167-35.4836 93.1316-35.6606Q93.0466-35.8376 92.8627-36.0222L78.4859-50.4364Q78.1418-50.7805 77.7802-50.7805Q77.3705-50.7805 77.0607-50.4917Q76.7509-50.2029 76.7509-49.7894Q76.7509-49.3202 77.1408-48.941L84.8587-41.2086L89.8743-36.2938L84.5604-36.3594L40.0223-36.3594Q39.5638-36.3594 39.2437-36.0378Q38.9236-35.7162 38.9236-35.2539Q38.9236-34.7916 39.2437-34.47Q39.5638-34.1484 40.0223-34.1484Z"/>
  </g>
 </g>
</svg>
